<?xml version="1.0" encoding="utf-8"?>
<!-- Generator: Adobe Illustrator 18.0.0, SVG Export Plug-In . SVG Version: 6.00 Build 0)  -->
<!DOCTYPE svg PUBLIC "-//W3C//DTD SVG 1.1//EN" "http://www.w3.org/Graphics/SVG/1.1/DTD/svg11.dtd">
<svg version="1.1" id="图层_1" xmlns="http://www.w3.org/2000/svg" xmlns:xlink="http://www.w3.org/1999/xlink" x="0px" y="0px"
	 viewBox="0 0 500 500" enable-background="new 0 0 500 500" xml:space="preserve">
<path fill="#999999" d="M417.6,134.4L302.1,250l115.6,115.6l46.9-46.9c6.3-6.7,13.9-8.2,22.8-4.6c8.5,3.7,12.7,10.1,12.7,19.2v145.8
	c0,5.6-2.1,10.5-6.2,14.6c-4.1,4.1-9,6.2-14.6,6.2H333.3c-9.1,0-15.5-4.3-19.2-13c-3.7-8.5-2.2-16,4.6-22.5l46.9-46.9L250,302.1
	L134.4,417.6l46.9,46.9c6.7,6.5,8.2,14,4.6,22.5c-3.7,8.7-10.1,13-19.2,13H20.8c-5.6,0-10.5-2.1-14.6-6.2c-4.1-4.1-6.2-9-6.2-14.6
	V333.3c0-9.1,4.3-15.5,13-19.2c8.5-3.7,16-2.2,22.5,4.6l46.9,46.9L197.9,250L82.4,134.4l-46.9,46.9c-4.1,4.1-9,6.2-14.6,6.2
	c-2.6,0-5.2-0.5-7.8-1.6c-8.7-3.7-13-10.1-13-19.2V20.8c0-5.6,2.1-10.5,6.2-14.6S15.2,0,20.8,0h145.8c9.1,0,15.5,4.3,19.2,13
	c3.7,8.5,2.2,16-4.6,22.5l-46.9,46.9L250,197.9L365.6,82.4l-46.9-46.9c-6.7-6.5-8.2-14-4.6-22.5c3.7-8.7,10.1-13,19.2-13h145.8
	c5.6,0,10.5,2.1,14.6,6.2c4.1,4.1,6.2,9,6.2,14.6v145.8c0,9.1-4.2,15.5-12.7,19.2c-2.8,1.1-5.5,1.6-8.1,1.6
	c-5.6,0-10.5-2.1-14.6-6.2L417.6,134.4z"/>
</svg>
