<?xml version="1.0" encoding="utf-8"?>
<!-- Generator: Adobe Illustrator 18.0.0, SVG Export Plug-In . SVG Version: 6.00 Build 0)  -->
<!DOCTYPE svg PUBLIC "-//W3C//DTD SVG 1.1//EN" "http://www.w3.org/Graphics/SVG/1.1/DTD/svg11.dtd">
<svg version="1.1" id="图层_1" xmlns="http://www.w3.org/2000/svg" xmlns:xlink="http://www.w3.org/1999/xlink" x="0px" y="0px"
	 viewBox="0 0 500 500" enable-background="new 0 0 500 500" xml:space="preserve">
<path fill="#999999" d="M385.4,250c0,8-3.5,14-10.4,17.9L197.9,372.1c-3.3,2-6.7,2.9-10.4,2.9c-3.5,0-6.9-0.9-10.4-2.6
	c-6.9-4.1-10.4-10.2-10.4-18.2V145.8c0-8,3.5-14.1,10.4-18.2c7.2-3.9,14.1-3.8,20.8,0.3L375,232.1C381.9,236,385.4,242,385.4,250z
	 M427.1,250c0-32.1-7.9-61.7-23.8-88.9s-37.3-48.6-64.5-64.5S282.1,72.9,250,72.9s-61.7,7.9-88.9,23.8s-48.6,37.3-64.5,64.5
	S72.9,217.9,72.9,250s7.9,61.7,23.8,88.9s37.3,48.6,64.5,64.5s56.7,23.8,88.9,23.8s61.7-7.9,88.9-23.8s48.6-37.3,64.5-64.5
	S427.1,282.1,427.1,250z M500,250c0,45.4-11.2,87.2-33.5,125.5s-52.7,68.6-91,91S295.4,500,250,500s-87.2-11.2-125.5-33.5
	s-68.6-52.7-91-91S0,295.4,0,250s11.2-87.2,33.5-125.5s52.7-68.6,91-91S204.6,0,250,0s87.2,11.2,125.5,33.5s68.6,52.7,91,91
	S500,204.6,500,250z"/>
</svg>
