<?xml version="1.0" encoding="utf-8"?>
<!-- Generator: Adobe Illustrator 18.0.0, SVG Export Plug-In . SVG Version: 6.00 Build 0)  -->
<!DOCTYPE svg PUBLIC "-//W3C//DTD SVG 1.1//EN" "http://www.w3.org/Graphics/SVG/1.1/DTD/svg11.dtd">
<svg version="1.1" id="图层_1" xmlns="http://www.w3.org/2000/svg" xmlns:xlink="http://www.w3.org/1999/xlink" x="0px" y="0px"
	 viewBox="0 0 500 500" enable-background="new 0 0 500 500" xml:space="preserve">
<path fill="#999999" d="M250,0c45.4,0,87.2,11.2,125.5,33.5s68.6,52.7,91,91S500,204.6,500,250s-11.2,87.2-33.5,125.5
	s-52.7,68.6-91,91S295.4,500,250,500s-87.2-11.2-125.5-33.5s-68.6-52.7-91-91S0,295.4,0,250s11.2-87.2,33.5-125.5s52.7-68.6,91-91
	S204.6,0,250,0z M375,267.9c6.9-3.9,10.4-9.9,10.4-17.9c0-8-3.5-14-10.4-17.9L197.9,127.9c-6.7-4.1-13.7-4.2-20.8-0.3
	c-6.9,4.1-10.4,10.2-10.4,18.2v208.3c0,8,3.5,14.1,10.4,18.2c3.5,1.7,6.9,2.6,10.4,2.6c3.7,0,7.2-1,10.4-2.9L375,267.9z"/>
</svg>
