<?xml version="1.0" encoding="utf-8"?>
<!-- Generator: Adobe Illustrator 18.0.0, SVG Export Plug-In . SVG Version: 6.00 Build 0)  -->
<!DOCTYPE svg PUBLIC "-//W3C//DTD SVG 1.1//EN" "http://www.w3.org/Graphics/SVG/1.1/DTD/svg11.dtd">
<svg version="1.1" id="图层_1" xmlns="http://www.w3.org/2000/svg" xmlns:xlink="http://www.w3.org/1999/xlink" x="0px" y="0px"
	 viewBox="0 0 500 500" enable-background="new 0 0 500 500" xml:space="preserve">
<path fill="#999999" d="M245.8,302.1c0,2.8-1.1,5.3-3.3,7.5L134.4,417.6l46.9,46.9c4.1,4.1,6.2,9,6.2,14.6c0,5.6-2.1,10.5-6.2,14.6
	c-4.1,4.1-9,6.2-14.6,6.2H20.8c-5.6,0-10.5-2.1-14.6-6.2c-4.1-4.1-6.2-9-6.2-14.6V333.3c0-5.6,2.1-10.5,6.2-14.6
	c4.1-4.1,9-6.2,14.6-6.2s10.5,2.1,14.6,6.2l46.9,46.9l108.1-108.1c2.2-2.2,4.7-3.3,7.5-3.3c2.8,0,5.3,1.1,7.5,3.3l37.1,37.1
	C244.7,296.8,245.8,299.3,245.8,302.1z M500,20.8v145.8c0,5.6-2.1,10.5-6.2,14.6c-4.1,4.1-9,6.2-14.6,6.2c-5.6,0-10.5-2.1-14.6-6.2
	l-46.9-46.9L309.6,242.5c-2.2,2.2-4.7,3.3-7.5,3.3s-5.3-1.1-7.5-3.3l-37.1-37.1c-2.2-2.2-3.3-4.7-3.3-7.5c0-2.8,1.1-5.3,3.3-7.5
	L365.6,82.4l-46.9-46.9c-4.1-4.1-6.2-9-6.2-14.6s2.1-10.5,6.2-14.6c4.1-4.1,9-6.2,14.6-6.2h145.8c5.6,0,10.5,2.1,14.6,6.2
	C497.9,10.3,500,15.2,500,20.8z"/>
</svg>
