<?xml version="1.0" encoding="utf-8"?>
<!-- Generator: Adobe Illustrator 18.0.0, SVG Export Plug-In . SVG Version: 6.00 Build 0)  -->
<!DOCTYPE svg PUBLIC "-//W3C//DTD SVG 1.1//EN" "http://www.w3.org/Graphics/SVG/1.1/DTD/svg11.dtd">
<svg version="1.1" id="图层_1" xmlns="http://www.w3.org/2000/svg" xmlns:xlink="http://www.w3.org/1999/xlink" x="0px" y="0px"
	 viewBox="0 0 500 500" enable-background="new 0 0 500 500" xml:space="preserve">
<path fill="#999999" d="M250,271.2v148.3c0,5.7-2.1,10.7-6.3,14.9c-4.2,4.2-9.2,6.3-14.9,6.3c-5.7,0-10.7-2.1-14.9-6.3l-47.7-47.7
	L56.3,496.7c-2.2,2.2-4.7,3.3-7.6,3.3c-2.9,0-5.4-1.1-7.6-3.3L3.3,458.9c-2.2-2.2-3.3-4.7-3.3-7.6c0-2.9,1.1-5.4,3.3-7.6
	l109.9-109.9l-47.7-47.7c-4.2-4.2-6.3-9.2-6.3-14.9s2.1-10.7,6.3-14.9c4.2-4.2,9.2-6.3,14.9-6.3h148.3c5.7,0,10.7,2.1,14.9,6.3
	C247.9,260.5,250,265.5,250,271.2z M500,48.7c0,2.9-1.1,5.4-3.3,7.6L386.8,166.2l47.7,47.7c4.2,4.2,6.3,9.2,6.3,14.9
	c0,5.7-2.1,10.7-6.3,14.9c-4.2,4.2-9.2,6.3-14.9,6.3H271.2c-5.7,0-10.7-2.1-14.9-6.3c-4.2-4.2-6.3-9.2-6.3-14.9V80.5
	c0-5.7,2.1-10.7,6.3-14.9c4.2-4.2,9.2-6.3,14.9-6.3s10.7,2.1,14.9,6.3l47.7,47.7L443.7,3.3c2.2-2.2,4.7-3.3,7.6-3.3
	c2.9,0,5.4,1.1,7.6,3.3l37.7,37.7C498.9,43.3,500,45.8,500,48.7z"/>
</svg>
