<?xml version="1.0" encoding="utf-8"?>
<!-- Generator: Adobe Illustrator 18.0.0, SVG Export Plug-In . SVG Version: 6.00 Build 0)  -->
<!DOCTYPE svg PUBLIC "-//W3C//DTD SVG 1.1//EN" "http://www.w3.org/Graphics/SVG/1.1/DTD/svg11.dtd">
<svg version="1.1" id="图层_1" xmlns="http://www.w3.org/2000/svg" xmlns:xlink="http://www.w3.org/1999/xlink" x="0px" y="0px"
	 viewBox="0 0 500 500" enable-background="new 0 0 500 500" xml:space="preserve">
<path fill="#999999" d="M185.8,151.8c-11.2,17.1-23.9,42.5-38.2,76.2c-4.1-8.4-7.5-15.1-10.3-20.2c-2.8-5.1-6.6-11-11.3-17.7
	s-9.5-12-14.2-15.8s-10.6-7.1-17.6-9.8s-14.6-4-22.7-4H8.9c-2.6,0-4.7-0.8-6.4-2.5c-1.7-1.8-2.5-3.9-2.5-6.5V97.9
	c0-2.6,0.8-4.7,2.5-6.4C4.2,89.8,6.3,89,8.9,89h62.5C117.9,89,156.1,109.9,185.8,151.8z M500,374.7c0,2.6-0.8,4.7-2.5,6.4
	l-89.3,89.3c-1.7,1.7-3.8,2.5-6.4,2.5c-2.4,0-4.5-0.9-6.3-2.7s-2.7-3.9-2.7-6.3v-53.6c-6,0-13.9,0-23.7,0.1s-17.4,0.2-22.6,0.3
	c-5.2,0.1-12,0-20.4-0.3s-15-0.7-19.8-1.4c-4.8-0.7-10.8-1.6-17.9-2.9s-12.9-3-17.6-5.2s-10-4.8-16.2-8c-6.1-3.2-11.6-6.9-16.5-11.2
	s-10-9.3-15.3-14.9c-5.4-5.7-10.6-12.1-15.6-19.4c11-17.3,23.6-42.7,37.9-76.2c4.1,8.4,7.5,15.1,10.3,20.2s6.6,11,11.3,17.7
	s9.5,12,14.2,15.8s10.6,7.1,17.6,9.8c7,2.7,14.6,4,22.7,4h71.4v-53.6c0-2.6,0.8-4.7,2.5-6.4s3.8-2.5,6.4-2.5c2.2,0,4.5,0.9,6.7,2.8
	l89,89C499.2,370,500,372.1,500,374.7z M500,124.7c0,2.6-0.8,4.7-2.5,6.4l-89.3,89.3c-1.7,1.7-3.8,2.5-6.4,2.5
	c-2.4,0-4.5-0.9-6.3-2.7s-2.7-3.9-2.7-6.3v-53.6h-71.4c-8.9,0-17,1.4-24.3,4.2s-13.7,7-19.3,12.6c-5.6,5.6-10.3,11.3-14.2,17.2
	s-8.1,13.1-12.6,21.6c-6,11.5-13.2,27.4-21.8,47.7c-5.4,12.3-10,22.6-13.8,31s-8.8,18.1-15.1,29.3c-6.2,11.2-12.2,20.5-17.9,27.9
	S169.8,367,161.8,375c-8.1,8-16.5,14.4-25.1,19.1s-18.6,8.6-29.7,11.7c-11.2,3.1-23.1,4.6-35.7,4.6H8.9c-2.6,0-4.7-0.8-6.4-2.5
	S0,404.1,0,401.5v-53.6c0-2.6,0.8-4.7,2.5-6.4s3.8-2.5,6.4-2.5h62.5c8.9,0,17-1.4,24.3-4.2c7.3-2.8,13.7-7,19.3-12.6
	c5.6-5.6,10.3-11.3,14.2-17.2c3.9-5.9,8.1-13.1,12.6-21.6c6-11.5,13.2-27.4,21.8-47.7c5.4-12.3,10-22.6,13.8-31s8.8-18.1,15.1-29.3
	c6.2-11.2,12.2-20.5,17.9-27.9c5.7-7.4,12.6-15.2,20.6-23.2c8.1-8,16.5-14.4,25.1-19.1c8.6-4.7,18.6-8.6,29.7-11.7
	c11.2-3.1,23.1-4.6,35.7-4.6h71.4V35.4c0-2.6,0.8-4.7,2.5-6.4s3.8-2.5,6.4-2.5c2.2,0,4.5,0.9,6.7,2.8l89,89
	C499.2,120,500,122.1,500,124.7z"/>
</svg>
