<?xml version="1.0" encoding="utf-8"?>
<!-- Generator: Adobe Illustrator 18.0.0, SVG Export Plug-In . SVG Version: 6.00 Build 0)  -->
<!DOCTYPE svg PUBLIC "-//W3C//DTD SVG 1.1//EN" "http://www.w3.org/Graphics/SVG/1.1/DTD/svg11.dtd">
<svg version="1.1" id="图层_1" xmlns="http://www.w3.org/2000/svg" xmlns:xlink="http://www.w3.org/1999/xlink" x="0px" y="0px"
	 viewBox="0 0 500 500" enable-background="new 0 0 500 500" xml:space="preserve">
<path fill="#999999" d="M333.3,391.7c0,2.3-0.8,4.2-2.5,5.9c-1.6,1.6-3.6,2.5-5.9,2.5H75c-1.4,0-2.6-0.2-3.5-0.5s-1.7-1-2.3-1.8
	s-1.1-1.6-1.4-2.1s-0.6-1.5-0.8-3c-0.2-1.5-0.3-2.5-0.3-3V233.3h-50c-4.5,0-8.4-1.6-11.7-4.9c-3.3-3.3-4.9-7.2-4.9-11.7
	c0-4.2,1.3-7.7,3.9-10.7l83.2-100c3.3-3.8,7.6-5.7,12.8-5.7s9.5,1.9,12.8,5.7l83.3,100c2.6,3,3.9,6.5,3.9,10.7
	c0,4.5-1.6,8.4-4.9,11.7c-3.3,3.3-7.2,4.9-11.7,4.9h-50v100h150c2.8,0,4.9,1,6.5,2.9l41.7,50C332.7,388.1,333.3,389.9,333.3,391.7z
	 M500,283.3c0,4.2-1.3,7.7-3.9,10.7l-83.3,100c-3.5,4-7.7,6-12.8,6s-9.3-2-12.8-6l-83.3-100c-2.6-3-3.9-6.5-3.9-10.7
	c0-4.5,1.6-8.4,4.9-11.7s7.2-4.9,11.7-4.9h50v-100h-150c-2.8,0-4.9-1-6.5-3.1l-41.7-50c-1.2-1.6-1.8-3.3-1.8-5.2
	c0-2.3,0.8-4.2,2.5-5.9c1.6-1.6,3.6-2.5,5.9-2.5h250c1.4,0,2.6,0.2,3.5,0.5c0.9,0.3,1.7,1,2.3,1.8c0.6,0.8,1.1,1.6,1.4,2.1
	s0.6,1.5,0.8,3c0.2,1.5,0.3,2.5,0.3,3v156.3h50c4.5,0,8.4,1.6,11.7,4.9C498.4,274.9,500,278.8,500,283.3z"/>
</svg>
