<?xml version="1.0" encoding="utf-8"?>
<!-- Generator: Adobe Illustrator 18.0.0, SVG Export Plug-In . SVG Version: 6.00 Build 0)  -->
<!DOCTYPE svg PUBLIC "-//W3C//DTD SVG 1.1//EN" "http://www.w3.org/Graphics/SVG/1.1/DTD/svg11.dtd">
<svg version="1.1" id="图层_1" xmlns="http://www.w3.org/2000/svg" xmlns:xlink="http://www.w3.org/1999/xlink" x="0px" y="0px"
	 viewBox="0 0 500 500" enable-background="new 0 0 500 500" xml:space="preserve">
<path fill="#999999" d="M401.6,4.7c4.1-4.1,7.6-5.5,10.4-4.2s4.2,4.8,4.2,10.4v478.3c0,5.6-1.4,9.1-4.2,10.4s-6.3-0.1-10.4-4.2
	L170.9,264.6c-1.9-1.9-3.4-4-4.2-6.2v220.3c0,5.6-2.1,10.5-6.2,14.6c-4.1,4.1-9,6.2-14.6,6.2h-41.6c-5.6,0-10.5-2.1-14.6-6.2
	c-4.1-4.1-6.2-9-6.2-14.6V21.3c0-5.6,2.1-10.5,6.2-14.6c4.1-4.1,9-6.2,14.6-6.2h41.6c5.6,0,10.5,2,14.6,6.1s6.2,9,6.2,14.6v220.3
	c0.9-2.4,2.3-4.4,4.2-6.2L401.6,4.7z"/>
</svg>
