<?xml version="1.0" encoding="utf-8"?>
<!-- Generator: Adobe Illustrator 18.0.0, SVG Export Plug-In . SVG Version: 6.00 Build 0)  -->
<!DOCTYPE svg PUBLIC "-//W3C//DTD SVG 1.1//EN" "http://www.w3.org/Graphics/SVG/1.1/DTD/svg11.dtd">
<svg version="1.1" id="图层_1" xmlns="http://www.w3.org/2000/svg" xmlns:xlink="http://www.w3.org/1999/xlink" x="0px" y="0px"
	 viewBox="0 0 500 500" enable-background="new 0 0 500 500" xml:space="preserve">
<path fill="#999999" d="M98.1,495.3c-4.1,4.1-7.6,5.5-10.4,4.2c-2.8-1.3-4.2-4.7-4.2-10.4V10.9c0-5.7,1.4-9.1,4.2-10.4
	c2.8-1.3,6.3,0.1,10.4,4.2l230.7,230.7c1.7,1.7,3.1,3.8,4.2,6.2V21.3c0-5.6,2.1-10.5,6.2-14.6c4.1-4.1,9-6.2,14.6-6.2h41.6
	c5.6,0,10.5,2.1,14.6,6.2s6.2,9,6.2,14.6v457.5c0,5.6-2.1,10.5-6.2,14.6s-9,6.2-14.6,6.2h-41.6c-5.6,0-10.5-2.1-14.6-6.2
	s-6.2-9-6.2-14.6V258.4c-1.1,2.2-2.5,4.2-4.2,6.2L98.1,495.3z"/>
</svg>
