<?xml version="1.0" encoding="utf-8"?>
<!-- Generator: Adobe Illustrator 18.0.0, SVG Export Plug-In . SVG Version: 6.00 Build 0)  -->
<!DOCTYPE svg PUBLIC "-//W3C//DTD SVG 1.1//EN" "http://www.w3.org/Graphics/SVG/1.1/DTD/svg11.dtd">
<svg version="1.1" id="图层_1" xmlns="http://www.w3.org/2000/svg" xmlns:xlink="http://www.w3.org/1999/xlink" x="0px" y="0px"
	 viewBox="0 0 500 500" enable-background="new 0 0 500 500" xml:space="preserve">
<path fill="#999999" d="M12.6,460.3c-3.6,3.6-6.6,4.8-9,3.7S0,459.9,0,455V44.3c0-4.8,1.2-7.8,3.6-8.9s5.4,0.1,9,3.6l198.1,198.1
	c1.5,1.5,2.7,3.3,3.6,5.3V44.3c0-4.8,1.2-7.8,3.6-8.9c2.4-1.1,5.4,0.1,8.9,3.6l198.1,198.1c1.5,1.5,2.7,3.3,3.6,5.3V53.3
	c0-4.8,1.8-9,5.3-12.6c3.5-3.6,7.7-5.3,12.6-5.3h35.7c4.8,0,9,1.8,12.6,5.3s5.3,7.7,5.3,12.6v392.9c0,4.8-1.8,9-5.3,12.6
	s-7.7,5.3-12.6,5.3h-35.7c-4.8,0-9-1.8-12.6-5.3s-5.3-7.7-5.3-12.6V256.9c-0.9,1.9-2.1,3.6-3.6,5.3L226.8,460.3
	c-3.5,3.5-6.5,4.7-8.9,3.6s-3.6-4.1-3.6-8.9V256.9c-0.9,1.9-2.1,3.6-3.6,5.3L12.6,460.3z"/>
</svg>
