<?xml version="1.0" encoding="utf-8"?>
<!-- Generator: Adobe Illustrator 18.0.0, SVG Export Plug-In . SVG Version: 6.00 Build 0)  -->
<!DOCTYPE svg PUBLIC "-//W3C//DTD SVG 1.1//EN" "http://www.w3.org/Graphics/SVG/1.1/DTD/svg11.dtd">
<svg version="1.1" id="图层_1" xmlns="http://www.w3.org/2000/svg" xmlns:xlink="http://www.w3.org/1999/xlink" x="0px" y="0px"
	 viewBox="0 0 500 500" enable-background="new 0 0 500 500" xml:space="preserve">
<path fill="#999999" d="M485.4,5.2c4.1-4.1,7.6-5.5,10.4-4.2s4.2,4.8,4.2,10.4v477.3c0,5.6-1.4,9.1-4.2,10.4
	c-2.8,1.3-6.3-0.1-10.4-4.2L255.2,264.6c-1.7-1.9-3.1-4-4.2-6.2v230.2c0,5.6-1.4,9.1-4.2,10.4c-2.8,1.3-6.3-0.1-10.4-4.2L6.2,264.6
	c-4.1-4.1-6.2-9-6.2-14.6c0-5.6,2.1-10.5,6.2-14.6L236.4,5.2c4.1-4.1,7.6-5.5,10.4-4.2s4.2,4.8,4.2,10.4v230.2
	c1.1-2.4,2.5-4.4,4.2-6.2L485.4,5.2z"/>
</svg>
