<?xml version="1.0" encoding="utf-8"?>
<!-- Generator: Adobe Illustrator 18.0.0, SVG Export Plug-In . SVG Version: 6.00 Build 0)  -->
<!DOCTYPE svg PUBLIC "-//W3C//DTD SVG 1.1//EN" "http://www.w3.org/Graphics/SVG/1.1/DTD/svg11.dtd">
<svg version="1.1" id="图层_1" xmlns="http://www.w3.org/2000/svg" xmlns:xlink="http://www.w3.org/1999/xlink" x="0px" y="0px"
	 viewBox="0 0 500 500" enable-background="new 0 0 500 500" xml:space="preserve">
<path fill="#999999" d="M14.6,494.8c-4.1,4.1-7.6,5.5-10.4,4.2c-2.8-1.3-4.2-4.8-4.2-10.4V11.3C0,5.7,1.4,2.3,4.2,1
	s6.3,0.1,10.4,4.2l230.2,230.2c1.7,1.7,3.1,3.8,4.2,6.2V11.3c0-5.6,1.4-9.1,4.2-10.4c2.8-1.3,6.3,0.1,10.4,4.2l230.2,230.2
	c4.1,4.1,6.2,9,6.2,14.6c0,5.6-2.1,10.5-6.2,14.6L263.6,494.8c-4.1,4.1-7.6,5.5-10.4,4.2c-2.8-1.3-4.2-4.8-4.2-10.4V258.4
	c-1.1,2.2-2.5,4.2-4.2,6.2L14.6,494.8z"/>
</svg>
