<?xml version="1.0" encoding="utf-8"?>
<!-- Generator: Adobe Illustrator 18.0.0, SVG Export Plug-In . SVG Version: 6.00 Build 0)  -->
<!DOCTYPE svg PUBLIC "-//W3C//DTD SVG 1.1//EN" "http://www.w3.org/Graphics/SVG/1.1/DTD/svg11.dtd">
<svg version="1.1" id="图层_1" xmlns="http://www.w3.org/2000/svg" xmlns:xlink="http://www.w3.org/1999/xlink" x="0px" y="0px"
	 viewBox="0 0 500 500" enable-background="new 0 0 500 500" xml:space="preserve">
<path fill="#999999" d="M500,20.8v458.3c0,5.6-2.1,10.5-6.2,14.6c-4.1,4.1-9,6.2-14.6,6.2H312.5c-5.6,0-10.5-2.1-14.6-6.2
	c-4.1-4.1-6.2-9-6.2-14.6V20.8c0-5.6,2.1-10.5,6.2-14.6s9-6.2,14.6-6.2h166.7c5.6,0,10.5,2.1,14.6,6.2C497.9,10.3,500,15.2,500,20.8
	z M208.3,20.8v458.3c0,5.6-2.1,10.5-6.2,14.6c-4.1,4.1-9,6.2-14.6,6.2H20.8c-5.6,0-10.5-2.1-14.6-6.2c-4.1-4.1-6.2-9-6.2-14.6V20.8
	c0-5.6,2.1-10.5,6.2-14.6S15.2,0,20.8,0h166.7c5.6,0,10.5,2.1,14.6,6.2S208.3,15.2,208.3,20.8z"/>
</svg>
