<?xml version="1.0" encoding="utf-8"?>
<!-- Generator: Adobe Illustrator 18.0.0, SVG Export Plug-In . SVG Version: 6.00 Build 0)  -->
<!DOCTYPE svg PUBLIC "-//W3C//DTD SVG 1.1//EN" "http://www.w3.org/Graphics/SVG/1.1/DTD/svg11.dtd">
<svg version="1.1" id="图层_1" xmlns="http://www.w3.org/2000/svg" xmlns:xlink="http://www.w3.org/1999/xlink" x="0px" y="0px"
	 viewBox="0 0 500 500" enable-background="new 0 0 500 500" xml:space="preserve">
<path fill="#999999" d="M4.7,277.9L235.4,47.2c4.1-4.1,9-6.2,14.6-6.2s10.5,2.1,14.6,6.2l230.7,230.7c4.1,4.1,5.5,7.6,4.2,10.4
	s-4.8,4.2-10.4,4.2H10.9c-5.6,0-9.1-1.4-10.4-4.2C-0.8,285.4,0.6,282,4.7,277.9z M478.7,458.8H21.3c-5.6,0-10.5-2.1-14.6-6.2
	s-6.2-9-6.2-14.6v-83.2c0-5.6,2.1-10.5,6.2-14.6s9-6.2,14.6-6.2h457.5c5.6,0,10.5,2.1,14.6,6.2s6.2,9,6.2,14.6V438
	c0,5.6-2.1,10.5-6.2,14.6C489.2,456.8,484.4,458.8,478.7,458.8z"/>
</svg>
