<?xml version="1.0" encoding="utf-8"?>
<!-- Generator: Adobe Illustrator 18.0.0, SVG Export Plug-In . SVG Version: 6.00 Build 0)  -->
<!DOCTYPE svg PUBLIC "-//W3C//DTD SVG 1.1//EN" "http://www.w3.org/Graphics/SVG/1.1/DTD/svg11.dtd">
<svg version="1.1" id="图层_1" xmlns="http://www.w3.org/2000/svg" xmlns:xlink="http://www.w3.org/1999/xlink" x="0px" y="0px"
	 viewBox="0 0 500 500" enable-background="new 0 0 500 500" xml:space="preserve">
<path fill="#999999" d="M392.9,446.3c0-4.8-1.8-9-5.3-12.6c-3.5-3.5-7.7-5.3-12.6-5.3s-9,1.8-12.6,5.3c-3.5,3.5-5.3,7.7-5.3,12.6
	c0,4.8,1.8,9,5.3,12.6c3.5,3.5,7.7,5.3,12.6,5.3s9-1.8,12.6-5.3C391.1,455.5,392.9,451.3,392.9,446.3z M428.6,233.3
	c0-35.2-15.5-52.7-46.6-52.7c-4.8,0-10,0.5-15.6,1.4c-3-5.6-7.9-10-14.6-13.3c-6.8-3.3-13.6-4.9-20.5-4.9s-13.3,1.7-19.3,5
	c-9.3-9.9-20.4-14.8-33.2-14.8c-4.7,0-9.8,0.9-15.5,2.8c-5.7,1.9-10.1,4.2-13.3,7V71.3c0-9.7-3.5-18-10.6-25.1S224,35.7,214.3,35.7
	c-9.5,0-17.8,3.6-25,10.9s-10.7,15.5-10.7,24.8v160.7c-3.7,0-8.2-1.4-13.5-4.2s-10.4-5.9-15.3-9.2c-4.9-3.3-11.3-6.4-19-9.2
	s-15.6-4.2-23.6-4.2c-12.5,0-21.5,4.1-27.2,12.4c-5.7,8.3-8.5,19-8.5,32.2c0,4.5,12.9,12.8,38.8,25.1c8.2,4.5,14.2,7.9,18.1,10.3
	c11.9,7.4,25.4,17.9,40.5,31.3c15.1,13.2,24.9,22.6,29.6,28.2c10.6,12.8,15.9,25.9,15.9,39.1v8.9H393v-8.9c0-13.4,3-28.9,8.9-46.6
	s11.9-35.7,17.9-54S428.6,248.3,428.6,233.3z M464.3,231.8c0,24.7-6.4,54.7-19.3,89.8c-11,30.5-16.5,51.2-16.5,62.2v80.4
	c0,9.9-3.5,18.3-10.5,25.3S402.6,500,392.7,500H214.3c-9.9,0-18.3-3.5-25.3-10.5s-10.5-15.4-10.5-25.3v-80.4c0-1.9-0.4-3.9-1.3-6
	c-0.8-2.1-2.1-4.3-3.9-6.6c-1.8-2.2-3.4-4.3-5-6.3s-3.7-4.2-6.3-6.7c-2.6-2.5-4.6-4.4-6-5.7c-1.4-1.3-3.4-3.1-6-5.3
	c-2.6-2.2-4.2-3.5-4.7-3.9c-13.8-12.1-25.8-21.4-36-27.9c-3.9-2.4-9.7-5.5-17.3-9.2c-7.6-3.7-14.3-7.2-20.1-10.3
	c-5.8-3.2-11.6-6.9-17.6-11.3c-6-4.4-10.6-9.5-13.8-15.3s-4.8-12.3-4.8-19.4c0-23.3,6.2-42.5,18.7-57.6s30-22.7,52.7-22.7
	c12.6,0,24.6,2,35.7,6.1V71.3c0-19.3,7.1-36.1,21.2-50.2C178.1,7,194.8-0.1,214-0.1c19.5,0,36.4,7,50.5,21.1
	c14.1,14,21.2,30.8,21.2,50.4v47.2c11.5,0.7,22.6,4.2,33.2,10.3c3.9-0.6,7.9-0.8,12-0.8c18.8,0,35.3,5.6,49.7,16.7
	c25.9-0.2,46.3,7.7,61.2,23.7C456.8,184.4,464.3,205.6,464.3,231.8z"/>
</svg>
