<?xml version="1.0" encoding="utf-8"?>
<!-- Generator: Adobe Illustrator 18.0.0, SVG Export Plug-In . SVG Version: 6.00 Build 0)  -->
<!DOCTYPE svg PUBLIC "-//W3C//DTD SVG 1.1//EN" "http://www.w3.org/Graphics/SVG/1.1/DTD/svg11.dtd">
<svg version="1.1" id="图层_1" xmlns="http://www.w3.org/2000/svg" xmlns:xlink="http://www.w3.org/1999/xlink" x="0px" y="0px"
	 viewBox="0 0 500 500" enable-background="new 0 0 500 500" xml:space="preserve">
<path fill="#999999" d="M428.6,267.9c0-15.6-3-32.6-8.9-51.1s-11.9-36.5-17.9-54.1s-8.9-33.2-8.9-46.6v-8.9H214.3v8.9
	c0,6.5-1.1,12.8-3.3,18.8s-5.7,11.9-10.3,17.4c-4.7,5.6-8.9,10.2-12.8,14s-8.9,8.3-15.1,13.7c-1.7,1.5-3,2.6-3.9,3.3
	c-15.1,13.4-28.6,23.8-40.5,31.3c-4.1,2.6-10.4,6.1-19,10.6c-0.6,0.2-2.7,1.2-6.3,2.9c-3.6,1.8-7,3.5-10,5.2
	c-3.1,1.7-6.4,3.5-9.9,5.6c-3.5,2-6.4,4-8.5,6s-3.2,3.7-3.2,5.2c0,13.2,2.8,23.9,8.5,32.2c5.7,8.3,14.7,12.4,27.2,12.4
	c8,0,15.9-1.4,23.6-4.2c7.7-2.8,14-5.9,19-9.2s10-6.4,15.3-9.2c5.3-2.8,9.8-4.2,13.5-4.2v160.7c0,9.3,3.6,17.6,10.7,24.8
	s15.5,10.9,25,10.9c9.7,0,18-3.5,25.1-10.6s10.6-15.4,10.6-25.1v-92.4c8.6,6.5,18.1,9.8,28.7,9.8c12.8,0,23.9-4.9,33.2-14.8
	c6,3.3,12.4,5,19.3,5s13.7-1.6,20.5-4.9s11.7-7.7,14.6-13.3c4.5,0.7,9.7,1.1,15.6,1.1c15.8,0,27.5-4.5,35.2-13.5
	C424.8,296.6,428.6,284,428.6,267.9z M392.9,53.6c0-4.8-1.8-9-5.3-12.6c-3.5-3.5-7.7-5.3-12.6-5.3s-9,1.8-12.6,5.3
	c-3.5,3.5-5.3,7.7-5.3,12.6s1.8,9,5.3,12.6c3.5,3.5,7.7,5.3,12.6,5.3s9-1.8,12.6-5.3C391.1,62.6,392.9,58.4,392.9,53.6z
	 M464.3,266.7c0,26.4-7.2,47.8-21.6,64.2c-14.4,16.4-34.6,24.5-60.7,24.3l-1.4-0.3c-14.1,11.3-30.7,17-49.7,17
	c-4.1,0-8.1-0.3-12-0.8c-10,5.6-21.1,9-33.2,10.3v47.2c0,19.5-7.1,36.3-21.2,50.4c-14.1,14-31,21.1-50.5,21.1
	c-19.2,0-35.8-7.1-49.9-21.2s-21.2-30.9-21.2-50.2V324.2c-10,4.1-21.9,6.1-35.7,6.1c-22.5,0-40-7.6-52.6-22.7S35.7,273.3,35.7,250
	c0-7.1,1.6-13.5,4.9-19.4s7.9-11,13.8-15.3c6-4.4,11.8-8.1,17.6-11.3c5.8-3.2,12.5-6.6,20.1-10.3s13.4-6.8,17.3-9.2
	c10.2-6.5,22.2-15.8,36-27.9c0.6-0.4,2.1-1.7,4.7-3.9c2.6-2.2,4.6-4,6-5.3c1.4-1.3,3.4-3.2,6-5.7c2.6-2.5,4.7-4.7,6.3-6.7
	s3.3-4,5-6.3c1.8-2.2,3.1-4.4,3.9-6.6c0.8-2.1,1.3-4.1,1.3-6V35.7c0-9.9,3.5-18.3,10.5-25.3s15.4-10.5,25.3-10.5H393
	c9.9,0,18.3,3.5,25.3,10.5s10.5,15.4,10.5,25.3v80.4c0,11,5.5,31.7,16.5,62.2C457.9,213.6,464.3,243.1,464.3,266.7z"/>
</svg>
