<?xml version="1.0" encoding="utf-8"?>
<!-- Generator: Adobe Illustrator 18.0.0, SVG Export Plug-In . SVG Version: 6.00 Build 0)  -->
<!DOCTYPE svg PUBLIC "-//W3C//DTD SVG 1.1//EN" "http://www.w3.org/Graphics/SVG/1.1/DTD/svg11.dtd">
<svg version="1.1" id="图层_1" xmlns="http://www.w3.org/2000/svg" xmlns:xlink="http://www.w3.org/1999/xlink" x="0px" y="0px"
	 viewBox="0 0 500 500" enable-background="new 0 0 500 500" xml:space="preserve">
<path fill="#999999" d="M383.9,392.8h8.9V214.1h-8.9c-6.5,0-12.8-1.1-18.8-3.3s-11.9-5.7-17.4-10.3c-5.6-4.7-10.2-8.9-14-12.8
	s-8.3-8.9-13.7-15.1c-0.4-0.6-0.7-1-1-1.3s-0.7-0.7-1.1-1.3c-0.5-0.6-0.9-1-1.3-1.4c-13.4-15.1-23.8-28.6-31.3-40.5
	c-2.6-4.1-6.1-10.4-10.6-19c-0.2-0.6-1.2-2.7-2.9-6.3c-1.8-3.6-3.5-7-5.2-10c-1.7-3.1-3.5-6.4-5.6-9.9c-2-3.5-4-6.4-6-8.5
	c-2-2.1-3.7-3.2-5.2-3.2c-13.2,0-23.9,2.8-32.2,8.5s-12.4,14.7-12.4,27.2c0,8,1.4,15.9,4.2,23.6s5.9,14,9.2,19s6.4,10,9.2,15.3
	s4.2,9.8,4.2,13.5H71.4c-9.3,0-17.6,3.6-24.8,10.7c-7.3,7.2-10.9,15.5-10.9,25c0,9.7,3.5,18,10.6,25.1s15.5,10.7,25.1,10.7h92.4
	c-2.8,3.2-5.1,7.6-7,13.3c-1.9,5.7-2.8,10.8-2.8,15.5c0,12.8,4.9,23.9,14.8,33.2c-3.3,6-5,12.4-5,19.3s1.6,13.7,4.9,20.5
	c3.3,6.8,7.7,11.7,13.3,14.6c-0.7,4.5-1.1,9.7-1.1,15.6c0,15.8,4.5,27.5,13.5,35.2c9,7.6,21.6,11.4,37.8,11.4
	c15.6,0,32.6-3,51.1-8.9s36.5-11.9,54.1-17.9S370.5,392.8,383.9,392.8z M464.3,374.9c0-4.8-1.8-9-5.3-12.6
	c-3.5-3.5-7.7-5.3-12.6-5.3c-4.8,0-9,1.8-12.6,5.3c-3.5,3.5-5.3,7.7-5.3,12.6s1.8,9,5.3,12.6c3.5,3.5,7.7,5.3,12.6,5.3
	c4.8,0,9-1.8,12.6-5.3C462.5,383.9,464.3,379.6,464.3,374.9z M500,214.1v178.6c0,9.9-3.5,18.3-10.5,25.3s-15.4,10.5-25.3,10.5h-80.4
	c-11,0-31.7,5.5-62.2,16.5c-35.3,12.8-64.8,19.3-88.4,19.3c-26.4,0-47.8-7.2-64.2-21.6s-24.5-34.6-24.3-60.7l0.3-1.4
	c-11.3-14.1-17-30.7-17-49.7c0-4.1,0.3-8.1,0.8-12c-6.1-10.6-9.6-21.7-10.3-33.2H71.4c-19.5,0-36.3-7.1-50.4-21.2
	C7,250.2,0,233.3,0,213.8c0-19.2,7.1-35.8,21.2-49.9c14.1-14.1,30.9-21.2,50.2-21.2h104.4c-4.1-11.2-6.1-23.1-6.1-35.7
	c0-22.7,7.6-40.3,22.7-52.7s34.4-18.7,57.6-18.7c7.1,0,13.5,1.6,19.4,4.9s11,7.9,15.3,13.8c4.4,6,8.1,11.8,11.3,17.6
	c3.2,5.8,6.6,12.5,10.3,20.1c3.7,7.6,6.8,13.4,9.2,17.3c6.5,10.2,15.8,22.2,27.9,36c0.4,0.6,1.7,2.1,3.9,4.7c2.2,2.6,4,4.6,5.3,6
	s3.2,3.4,5.7,6s4.7,4.7,6.7,6.3s4,3.3,6.3,5c2.2,1.8,4.4,3.1,6.6,3.9c2.1,0.8,4.1,1.3,6,1.3h80.4c9.9,0,18.3,3.5,25.3,10.5
	C496.5,195.8,500,204.2,500,214.1z"/>
</svg>
