<?xml version="1.0" encoding="utf-8"?>
<!-- Generator: Adobe Illustrator 18.0.0, SVG Export Plug-In . SVG Version: 6.00 Build 0)  -->
<!DOCTYPE svg PUBLIC "-//W3C//DTD SVG 1.1//EN" "http://www.w3.org/Graphics/SVG/1.1/DTD/svg11.dtd">
<svg version="1.1" id="图层_1" xmlns="http://www.w3.org/2000/svg" xmlns:xlink="http://www.w3.org/1999/xlink" x="0px" y="0px"
	 viewBox="0 0 500 500" enable-background="new 0 0 500 500" xml:space="preserve">
<path fill="#999999" d="M72.4,374.4c0-4.8-1.8-8.9-5.3-12.5c-3.5-3.5-7.7-5.3-12.5-5.3s-8.9,1.8-12.5,5.3c-3.5,3.5-5.3,7.7-5.3,12.5
	c0,4.9,1.8,8.9,5.3,12.5c3.5,3.5,7.7,5.3,12.5,5.3s8.9-1.8,12.5-5.3C70.8,383.3,72.4,379.1,72.4,374.4z M463.2,214.5
	c0-9.4-3.6-17.7-10.8-24.9c-7.3-7.2-15.4-10.6-24.7-10.6H267.9c0-3.7,1.4-8.2,4.2-13.4c2.8-5.3,5.9-10.3,9.1-15.2
	c3.3-4.9,6.4-11.2,9.1-18.9c2.8-7.7,4.2-15.5,4.2-23.5c0-12.4-4.1-21.4-12.3-27c-8.3-5.7-18.9-8.5-32-8.5c-4.5,0-12.7,12.8-25,38.6
	c-4.5,8.2-7.9,14.1-10.2,18c-7.4,11.8-17.8,25.3-31.1,40.3c-13.1,15-22.5,24.8-28,29.4c-12.7,10.5-25.8,15.8-38.9,15.8H108v177.6
	h8.9c13.3,0,28.7,3,46.3,8.9s35.5,11.8,53.7,17.8c18.2,6,34.8,8.9,49.8,8.9c35,0,52.4-15.4,52.4-46.3c0-4.8-0.5-9.9-1.4-15.5
	c5.6-3,9.9-7.9,13.2-14.5c3.3-6.8,4.9-13.5,4.9-20.4s-1.7-13.2-5-19.2c9.8-9.2,14.7-20.3,14.7-33c0-4.7-0.9-9.7-2.8-15.4
	s-4.2-10-7-13.2h91.8c9.6,0,17.9-3.5,25-10.5C459.7,232.5,463.2,224.2,463.2,214.5z M498.7,214.3c0,19.4-7,36.2-21,50.2
	c-13.9,14-30.6,21.1-50.1,21.1h-46.9c-0.7,11.4-4.2,22.5-10.2,33c0.6,3.9,0.8,7.9,0.8,11.9c0,18.7-5.6,35.1-16.6,49.4
	c0.2,25.8-7.7,46-23.6,60.9c-15.9,14.9-36.9,22.4-62.9,22.4c-24.6,0-54.4-6.4-89.3-19.2c-30.3-10.9-50.9-16.4-61.9-16.4h-80
	c-9.8,0-18.2-3.5-25.2-10.4S1.3,401.8,1.3,392V214.5c0-9.8,3.5-18.2,10.4-25.2c7-7,15.3-10.4,25.2-10.4h80c1.9,0,3.9-0.4,6-1.3
	c2.1-0.8,4.3-2.1,6.6-3.9c2.2-1.8,4.3-3.4,6.3-5c2-1.6,4.2-3.7,6.7-6.3c2.5-2.6,4.4-4.6,5.7-6s3.1-3.4,5.3-6
	c2.2-2.6,3.5-4.2,3.9-4.7c12-13.7,21.3-25.7,27.7-35.8c2.4-3.9,5.5-9.6,9.1-17.2c3.7-7.6,7.2-14.2,10.2-20
	c3.2-5.8,6.9-11.5,11.2-17.5s9.4-10.5,15.2-13.7c5.9-3.3,12.2-4.9,19.3-4.9c23.2,0,42.3,6.2,57.3,18.6
	c15.1,12.4,22.6,29.8,22.6,52.4c0,12.5-2,24.5-6.1,35.5h103.8c19.2,0,35.9,7.1,49.9,21.1S498.7,195.2,498.7,214.3z"/>
</svg>
