<?xml version="1.0" encoding="utf-8"?>
<!-- Generator: Adobe Illustrator 18.0.0, SVG Export Plug-In . SVG Version: 6.00 Build 0)  -->
<!DOCTYPE svg PUBLIC "-//W3C//DTD SVG 1.1//EN" "http://www.w3.org/Graphics/SVG/1.1/DTD/svg11.dtd">
<svg version="1.1" id="图层_1" xmlns="http://www.w3.org/2000/svg" xmlns:xlink="http://www.w3.org/1999/xlink" x="0px" y="0px"
	 viewBox="0 0 500 500" enable-background="new 0 0 500 500" xml:space="preserve">
<path fill="#999999" d="M96.2,403.8c0-5.2-1.9-9.7-5.7-13.5c-3.8-3.8-8.3-5.7-13.5-5.7s-9.7,1.9-13.5,5.7c-3.8,3.8-5.7,8.3-5.7,13.5
	s1.9,9.7,5.7,13.5S71.8,423,77,423s9.7-1.9,13.5-5.7C94.3,413.6,96.2,409.1,96.2,403.8z M442.3,230.8c0-10.2-3.9-19.2-11.7-26.9
	c-7.8-7.7-16.7-11.6-26.7-11.6H298.1c0-11.6,4.8-27.6,14.4-47.9s14.4-36.4,14.4-48.2c0-19.6-3.2-34.2-9.6-43.6s-19.2-14.1-38.5-14.1
	c-5.2,5.2-9,13.7-11.4,25.5s-5.5,24.4-9.2,37.7c-3.7,13.3-9.7,24.3-17.9,32.9c-4.4,4.6-12.1,13.7-23.1,27.3c-0.8,1-3.1,4-6.9,9
	c-3.8,5-7,9.1-9.5,12.3s-6,7.5-10.4,12.8s-8.4,9.7-12,13.2s-7.5,7.1-11.6,10.7c-4.1,3.6-8.1,6.3-12,8.1s-7.5,2.7-10.7,2.7h-9.6V423
	h9.6c2.6,0,5.8,0.3,9.5,0.9s7,1.3,9.9,2s6.7,1.8,11.4,3.3s8.2,2.7,10.5,3.5s5.9,2.1,10.7,3.8c4.8,1.7,7.7,2.8,8.7,3.2
	c42.3,14.6,76.5,21.9,102.8,21.9H344c38.5,0,57.7-16.7,57.7-50.2c0-5.2-0.5-10.8-1.5-16.8c6-3.2,10.8-8.5,14.3-15.8
	s5.3-14.7,5.3-22.1s-1.8-14.3-5.4-20.7c10.6-10,15.9-21.9,15.9-35.8c0-5-1-10.6-3-16.7s-4.5-10.9-7.5-14.3
	c6.4-0.2,11.8-4.9,16.1-14.1C440.2,245.9,442.3,237.8,442.3,230.8z M480.8,230.5c0,17.8-4.9,34.2-14.7,49c1.8,6.6,2.7,13.5,2.7,20.7
	c0,15.4-3.8,29.8-11.4,43.3c0.6,4.2,0.9,8.5,0.9,12.9c0,20.2-6,38.1-18,53.5c0.2,27.8-8.3,49.8-25.5,66
	c-17.2,16.1-40,24.2-68.2,24.2h-38.8c-19.2,0-38.2-2.3-56.9-6.8s-40.4-11.1-65.1-19.7c-23.2-8-37.1-12-41.5-12H57.7
	c-10.6,0-19.7-3.8-27.2-11.3s-11.3-16.6-11.3-27.2V230.8c0-10.6,3.8-19.7,11.3-27.2s16.6-11.3,27.2-11.3H140
	c7.2-4.8,20.9-20.3,41.2-46.6c11.6-15,22.3-27.8,32.2-38.5c4.8-5,8.4-13.6,10.7-25.7s5.4-24.8,9.2-38s10-24,18.6-32.5
	c7.8-7.4,16.8-11.1,27-11.1c16.8,0,32,3.3,45.4,9.8s23.6,16.7,30.6,30.5s10.5,32.5,10.5,55.9c0,18.6-4.8,37.9-14.4,57.7h52.9
	c20.8,0,38.9,7.6,54.1,22.8C473.2,191.9,480.8,209.8,480.8,230.5z"/>
</svg>
