<?xml version="1.0" encoding="utf-8"?>
<!-- Generator: Adobe Illustrator 18.0.0, SVG Export Plug-In . SVG Version: 6.00 Build 0)  -->
<!DOCTYPE svg PUBLIC "-//W3C//DTD SVG 1.1//EN" "http://www.w3.org/Graphics/SVG/1.1/DTD/svg11.dtd">
<svg version="1.1" id="图层_1" xmlns="http://www.w3.org/2000/svg" xmlns:xlink="http://www.w3.org/1999/xlink" x="0px" y="0px"
	 viewBox="0 0 500 500" enable-background="new 0 0 500 500" xml:space="preserve">
<path fill="#999999" d="M96.2,96.2c0-5.2-1.9-9.7-5.7-13.5C86.7,78.9,82.2,77,77,77s-9.7,1.9-13.5,5.7c-3.8,3.8-5.7,8.3-5.7,13.5
	s1.9,9.7,5.7,13.5s8.3,5.7,13.5,5.7s9.7-1.9,13.5-5.7S96.2,101.4,96.2,96.2z M442.3,269.2c0-7-2.2-15.1-6.5-24.3
	s-9.7-13.9-16.1-14.1c3-3.4,5.5-8.2,7.5-14.3s3-11.7,3-16.7c0-13.8-5.3-25.7-15.9-35.8c3.6-6.4,5.4-13.3,5.4-20.7
	s-1.8-14.8-5.3-22.1c-3.5-7.3-8.3-12.6-14.3-15.8c1-6,1.5-11.6,1.5-16.8c0-17-4.9-29.6-14.7-37.9c-9.8-8.2-23.4-12.3-40.9-12.3
	h-38.5c-26.2,0-60.5,7.3-102.8,21.9c-1,0.4-3.9,1.5-8.7,3.2s-8.4,3-10.7,3.8s-5.8,2-10.5,3.5s-8.5,2.6-11.4,3.3
	c-2.9,0.7-6.2,1.4-9.9,2S146.6,77,144,77h-9.6v192.3h9.6c3.2,0,6.8,0.9,10.7,2.7c3.9,1.8,7.9,4.5,12,8.1c4.1,3.6,8,7.2,11.6,10.7
	s7.6,7.9,12,13.2s7.9,9.6,10.4,12.8c2.5,3.2,5.7,7.3,9.5,12.3s6.1,8,6.9,9c11,13.6,18.7,22.7,23.1,27.3c8.2,8.6,14.2,19.6,17.9,32.9
	c3.7,13.3,6.8,25.9,9.2,37.7c2.4,11.8,6.2,20.3,11.4,25.5c19.2,0,32.1-4.7,38.5-14.1c6.4-9.4,9.6-23.9,9.6-43.6
	c0-11.8-4.8-27.9-14.4-48.2c-9.6-20.3-14.4-36.3-14.4-47.9h105.8c10,0,18.9-3.9,26.7-11.6C438.4,288.4,442.3,279.4,442.3,269.2z
	 M480.8,269.5c0,20.6-7.6,38.6-22.8,53.8c-15.2,15.2-33.3,22.8-54.1,22.8H351c9.6,19.8,14.4,39.1,14.4,57.7
	c0,23.6-3.5,42.3-10.5,55.9c-7,13.8-17.2,24-30.6,30.5s-28.5,9.8-45.4,9.8c-10.2,0-19.2-3.7-27-11.1c-6.8-6.6-12.2-14.8-16.2-24.6
	s-6.6-18.9-7.7-27.2c-1.1-8.3-2.9-16.8-5.3-25.4c-2.4-8.6-5.5-15-9.3-19.2c-9.6-10-20.3-22.7-32.2-38.2
	c-20.2-26.2-34-41.8-41.2-46.6H57.7c-10.6,0-19.7-3.8-27.2-11.3s-11.3-16.6-11.3-27.2V76.9c0-10.6,3.8-19.7,11.3-27.2
	s16.6-11.3,27.2-11.3h86.5c4.4,0,18.2-4,41.5-12c25.6-8.8,48-15.4,67-19.8S291.8,0,312.8,0h33.7c28,0,50.7,7.9,68.1,23.7
	c17.3,15.8,25.9,37.5,25.7,64.9v1.5c12,15.4,18,33.3,18,53.5c0,4.4-0.3,8.7-0.9,12.9c7.6,13.4,11.4,27.8,11.4,43.3
	c0,7.2-0.9,14.1-2.7,20.7C475.9,235.4,480.8,251.7,480.8,269.5z"/>
</svg>
