<?xml version="1.0" encoding="utf-8"?>
<!-- Generator: Adobe Illustrator 18.0.0, SVG Export Plug-In . SVG Version: 6.00 Build 0)  -->
<!DOCTYPE svg PUBLIC "-//W3C//DTD SVG 1.1//EN" "http://www.w3.org/Graphics/SVG/1.1/DTD/svg11.dtd">
<svg version="1.1" id="图层_1" xmlns="http://www.w3.org/2000/svg" xmlns:xlink="http://www.w3.org/1999/xlink" x="0px" y="0px"
	 viewBox="0 0 500 500" enable-background="new 0 0 500 500" xml:space="preserve">
<path fill="#999999" d="M80,389.9c0-5.4-2-10.1-5.9-14.1s-8.7-5.9-14.1-5.9c-5.6,0-10.4,2-14.2,5.9s-5.8,8.7-5.8,14.1
	c0,5.6,1.9,10.4,5.8,14.2s8.6,5.8,14.2,5.8c5.4,0,10.1-1.9,14.1-5.8S80,395.5,80,389.9z M130,229.9v200c0,5.4-2,10.1-5.9,14.1
	s-8.6,5.9-14.1,5.9H20c-5.4,0-10.1-2-14.1-5.9S0,435.3,0,429.9v-200c0-5.4,2-10.1,5.9-14.1s8.7-5.9,14.1-5.9h90
	c5.4,0,10.1,2,14.1,5.9C128.1,219.7,130,224.5,130,229.9z M500,229.9c0,17.9-5.7,33.4-17.2,46.6c3.1,9.2,4.7,17.1,4.7,23.8
	c0.6,15.8-3.9,30.1-13.4,42.8c3.5,11.7,3.5,23.9,0,36.6c-3.1,11.9-8.8,21.7-16.9,29.4c1.9,23.3-3.2,42.2-15.3,56.6
	c-13.3,15.8-33.9,24-61.6,24.4H340c-13.8,0-28.8-1.6-45-4.8s-28.9-6.3-38-9.1s-21.6-6.9-37.7-12.3c-25.6-9-42.1-13.5-49.4-13.8
	c-5.4-0.2-10.1-2.2-14.1-6.1s-5.9-8.5-5.9-13.9V229.6c0-5.2,1.9-9.7,5.6-13.6s8.2-6,13.4-6.4c5-0.4,12.9-6.6,23.8-18.4
	s21.4-24.5,31.6-37.8c14.2-18.1,24.7-30.6,31.6-37.5c3.8-3.8,7-8.8,9.7-15s4.5-11.3,5.5-15.2s2.3-10.2,4.2-18.9
	c1.5-8.1,2.8-14.5,3.9-19.1s3.2-10,6.1-16.3s6.5-11.5,10.6-15.6c4-4,8.6-5.9,14.1-5.9c9.6,0,18.2,1.1,25.8,3.3s13.9,4.9,18.8,8.1
	s9.1,7.4,12.5,12.7s5.9,9.9,7.5,14.1s2.8,9.4,3.8,15.6s1.5,10.9,1.6,14.1s0,7.1,0,12.1c0,7.9-1,15.8-3,23.8s-4,14.2-5.9,18.8
	c-2,4.6-4.8,10.4-8.6,17.5c-0.6,1.3-1.7,3.1-3.1,5.6s-2.6,4.8-3.4,6.9s-1.7,4.6-2.5,7.5H440c16.3,0,30.3,5.9,42.2,17.8
	S500,213.7,500,229.9z"/>
</svg>
