<?xml version="1.0" encoding="utf-8"?>
<!-- Generator: Adobe Illustrator 18.0.0, SVG Export Plug-In . SVG Version: 6.00 Build 0)  -->
<!DOCTYPE svg PUBLIC "-//W3C//DTD SVG 1.1//EN" "http://www.w3.org/Graphics/SVG/1.1/DTD/svg11.dtd">
<svg version="1.1" id="图层_1" xmlns="http://www.w3.org/2000/svg" xmlns:xlink="http://www.w3.org/1999/xlink" x="0px" y="0px"
	 viewBox="0 0 500 500" enable-background="new 0 0 500 500" xml:space="preserve">
<path fill="#999999" d="M80,110c0,5.4-2,10.1-5.9,14.1c-3.9,4-8.7,5.9-14.1,5.9c-5.6,0-10.4-2-14.2-5.9S40,115.4,40,110
	c0-5.6,1.9-10.4,5.8-14.2S54.4,90,60,90c5.4,0,10.1,1.9,14.1,5.8S80,104.4,80,110z M130,270V70c0-5.4-2-10.1-5.9-14.1
	S115.4,50,110,50H20c-5.4,0-10.1,2-14.1,5.9S0,64.6,0,70v200c0,5.4,2,10.1,5.9,14.1S14.6,290,20,290h90c5.4,0,10.1-2,14.1-5.9
	C128.1,280.2,130,275.4,130,270z M482.8,223.4c11.5,12.7,17.2,28.2,17.2,46.6c-0.2,16.3-6.2,30.3-18,42.2S456.3,330,440,330h-86.6
	c0.8,2.9,1.7,5.4,2.5,7.5s2,4.4,3.4,6.9s2.5,4.4,3.1,5.6c3.8,7.7,6.6,13.6,8.4,17.8s3.9,10.3,5.9,18.3s3.1,16,3.1,23.9
	c0,5-0.1,9.1-0.2,12.2s-0.6,7.8-1.6,14.1s-2.2,11.5-3.8,15.6s-4.1,8.9-7.5,14.1s-7.6,9.4-12.5,12.7s-11.1,5.9-18.8,8.1
	S319.6,490,310,490c-5.4,0-10.1-2-14.1-5.9c-4.2-4.2-7.7-9.4-10.6-15.6s-4.9-11.7-6.1-16.3s-2.4-10.9-3.9-19.1
	c-1.9-8.8-3.3-15.1-4.2-18.9s-2.8-8.9-5.5-15.2s-5.9-11.3-9.7-15c-6.9-6.9-17.4-19.4-31.6-37.5c-10.2-13.3-20.7-25.9-31.6-37.8
	s-18.8-18-23.8-18.4c-5.2-0.4-9.7-2.6-13.4-6.4s-5.6-8.4-5.6-13.6V70c0-5.4,2-10.1,5.9-13.9s8.6-5.9,14.1-6.1
	c7.3-0.2,23.8-4.8,49.4-13.8c16-5.4,28.6-9.5,37.7-12.3s21.7-5.8,38-9.1s31.3-4.8,45-4.8h40.3c27.7,0.4,48.2,8.5,61.6,24.4
	C454,48.8,459.1,67.6,457.2,91c8.1,7.7,13.8,17.5,16.9,29.4c3.5,12.7,3.5,24.9,0,36.6c9.6,12.7,14.1,27,13.4,42.8
	C487.5,206.4,485.9,214.3,482.8,223.4z"/>
</svg>
