<?xml version="1.0" encoding="utf-8"?>
<!-- Generator: Adobe Illustrator 18.0.0, SVG Export Plug-In . SVG Version: 6.00 Build 0)  -->
<!DOCTYPE svg PUBLIC "-//W3C//DTD SVG 1.1//EN" "http://www.w3.org/Graphics/SVG/1.1/DTD/svg11.dtd">
<svg version="1.1" id="图层_1" xmlns="http://www.w3.org/2000/svg" xmlns:xlink="http://www.w3.org/1999/xlink" x="0px" y="0px"
	 viewBox="0 0 500 500" enable-background="new 0 0 500 500" xml:space="preserve">
<path fill="#999999" d="M117.2,289c0-10.7-3.8-19.9-11.5-27.5S88.9,250,78.1,250s-19.9,3.8-27.6,11.5c-7.7,7.7-11.4,16.8-11.4,27.5
	s3.8,19.9,11.5,27.5c7.6,7.6,16.8,11.5,27.6,11.5s19.9-3.8,27.6-11.5C113.4,308.9,117.2,299.7,117.2,289z M126,211h248l-21.7-87
	c-0.3-1.3-1.5-2.7-3.4-4.3c-2-1.5-3.7-2.3-5.1-2.3H156.3c-1.5,0-3.2,0.8-5.1,2.3c-2,1.5-3.1,3-3.4,4.3L126,211z M460.9,289
	c0-10.7-3.8-19.9-11.5-27.5S432.6,250,421.9,250s-19.9,3.8-27.6,11.5c-7.7,7.7-11.5,16.8-11.5,27.5s3.8,19.9,11.5,27.5
	c7.6,7.6,16.8,11.5,27.6,11.5s19.9-3.8,27.6-11.5C457.1,308.9,460.9,299.7,460.9,289z M500,265.6v93.6c0,2.3-0.7,4.1-2.2,5.6
	s-3.3,2.2-5.6,2.2h-23.4v31.2c0,13-4.6,24-13.7,33.1S434.9,445,421.9,445s-24.1-4.5-33.2-13.6S375,411.2,375,398.2V367H125v31.2
	c0,13-4.6,24-13.7,33.1S91.1,445,78.1,445s-24.1-4.5-33.2-13.6s-13.7-20.1-13.7-33.1V367H7.8c-2.3,0-4.2-0.7-5.6-2.2
	S0,361.5,0,359.2v-93.6c0-15.1,5.3-28,16-38.6s23.6-16,38.7-16h6.8l25.7-102.1c3.7-15.3,12.2-28.1,25.4-38.4S140.3,55,156.3,55
	h187.5c16,0,30.5,5.2,43.7,15.5s21.6,23.1,25.4,38.4L438.5,211h6.8c15.1,0,28,5.3,38.7,16S500,250.5,500,265.6z"/>
</svg>
