<?xml version="1.0" encoding="utf-8"?>
<!-- Generator: Adobe Illustrator 18.0.0, SVG Export Plug-In . SVG Version: 6.00 Build 0)  -->
<!DOCTYPE svg PUBLIC "-//W3C//DTD SVG 1.1//EN" "http://www.w3.org/Graphics/SVG/1.1/DTD/svg11.dtd">
<svg version="1.1" id="图层_1" xmlns="http://www.w3.org/2000/svg" xmlns:xlink="http://www.w3.org/1999/xlink" x="0px" y="0px"
	 viewBox="0 0 500 500" enable-background="new 0 0 500 500" xml:space="preserve">
<path fill="#999999" d="M431.4,98c0-8.2-2.9-15.1-8.6-20.8c-5.7-5.7-12.7-8.6-20.8-8.6c-8.2,0-15.1,2.9-20.8,8.6
	c-5.7,5.7-8.6,12.7-8.6,20.8s2.9,15.1,8.6,20.8c5.7,5.7,12.7,8.6,20.8,8.6c8.2,0,15.1-2.9,20.8-8.6
	C428.6,113.1,431.4,106.1,431.4,98z M500,9.8c0,50.8-7.7,94.8-23.1,131.8s-41.3,73.8-77.6,110.4c-16.5,16.3-36.4,34.3-59.7,53.9
	l-6.1,116c-0.4,3.3-2,5.9-4.9,8L211,498.5c-1.4,0.8-3.1,1.2-4.9,1.2c-2.4,0-4.8-0.9-7-2.8l-19.6-19.6c-2.7-2.9-3.5-6.1-2.4-9.8
	l26-84.5l-86-86l-84.5,26c-0.6,0.2-1.5,0.3-2.8,0.3c-2.9,0-5.2-0.9-7-2.8L3.1,301c-3.5-3.9-4-7.9-1.5-11.9l68.6-117.6
	c2-2.9,4.7-4.5,8-4.9l116-6.1c19.6-23.3,37.6-43.2,53.9-59.7c38.4-38.2,74.9-64.5,109.6-79S436.3,0,489.6,0c2.9,0,5.3,1,7.3,2.9
	S500,7.1,500,9.8z"/>
</svg>
