<?xml version="1.0" encoding="utf-8"?>
<!-- Generator: Adobe Illustrator 18.0.0, SVG Export Plug-In . SVG Version: 6.00 Build 0)  -->
<!DOCTYPE svg PUBLIC "-//W3C//DTD SVG 1.1//EN" "http://www.w3.org/Graphics/SVG/1.1/DTD/svg11.dtd">
<svg version="1.1" id="图层_1" xmlns="http://www.w3.org/2000/svg" xmlns:xlink="http://www.w3.org/1999/xlink" x="0px" y="0px"
	 viewBox="0 0 500 500" enable-background="new 0 0 500 500" xml:space="preserve">
<path fill="#999999" d="M445.8,413.8c3.2-3.2,6.9-4.7,11.2-4.7c4.3,0,8,1.6,11.2,4.7l31.8,31.8L477.6,468L457,447.4L436.3,468
	c-3,3.2-6.7,4.7-11.2,4.7s-8.2-1.6-11.2-4.7l-20.6-20.6L372.6,468c-3.2,3.2-6.9,4.7-11.2,4.7c-4.3,0-8-1.6-11.2-4.7l-20.6-20.6
	L309,468c-3.2,3.2-6.9,4.7-11.2,4.7c-4.3,0-8-1.6-11.2-4.7L266,447.4L245.3,468c-3.2,3.2-6.9,4.7-11.2,4.7s-8-1.6-11.2-4.7
	l-20.6-20.6L181.6,468c-3.2,3.2-6.9,4.7-11.2,4.7s-8-1.6-11.2-4.7l-20.6-20.6L117.9,468c-3.2,3.2-6.9,4.7-11.2,4.7
	c-4.3,0-8-1.6-11.2-4.7l-20.6-20.6L54.2,468c-3.2,3.2-6.9,4.7-11.2,4.7s-8-1.6-11.2-4.7L0,436.2l22.4-22.4L43,434.5l20.6-20.6
	c3.2-3.2,6.9-4.7,11.2-4.7c4.3,0,8,1.6,11.2,4.7l20.6,20.6l20.6-20.6c3.2-3.2,6.9-4.7,11.2-4.7s8,1.6,11.2,4.7l20.6,20.6l20.6-20.6
	c3.2-3.2,6.9-4.7,11.2-4.7s8,1.6,11.2,4.7l20.6,20.6l20.6-20.6c3.2-3.2,6.9-4.7,11.2-4.7s8,1.6,11.2,4.7l20.6,20.6l20.6-20.6
	c3.2-3.2,6.9-4.7,11.2-4.7s8,1.6,11.2,4.7l20.6,20.6l20.6-20.6c3.2-3.2,6.9-4.7,11.2-4.7c4.3,0,8,1.6,11.2,4.7l20.6,20.6
	L445.8,413.8z M54.2,404.4c-3.2,3.2-6.9,4.7-11.2,4.7s-8-1.6-11.2-4.7L0,372.5l22.4-22.4L43,370.5l20.6-20.4
	c3.2-3.2,6.9-4.7,11.2-4.7c4.3,0,8,1.6,11.2,4.7l20.6,20.4l15.9-15.9v-72.9l-52.2-78.1c-2.8-4.3-3.4-9-1.7-14.1
	c1.7-5.1,5-8.4,10-10.1l44-14.4V90.7h31.8V58.8h63.7V27h63.7v31.8h63.7v31.8h31.8V165l44,14.4c5,1.7,8.3,5,10,10.1s1.1,9.7-1.7,14.1
	l-52.2,78.1v72.9l4.7-4.5c3.2-3.2,6.9-4.7,11.2-4.7c4.3,0,8,1.6,11.2,4.7l20.6,20.4l20.6-20.4c3.2-3.2,6.9-4.7,11.2-4.7
	c4.3,0,8,1.6,11.2,4.7L500,382l-22.4,22.4L457,383.7l-20.6,20.6c-3,3.2-6.7,4.7-11.2,4.7s-8.2-1.6-11.2-4.7l-20.6-20.6l-20.6,20.6
	c-3.2,3.2-6.9,4.7-11.2,4.7c-4.3,0-8-1.6-11.2-4.7l-20.6-20.6L309,404.4c-3.2,3.2-6.9,4.7-11.2,4.7c-4.3,0-8-1.6-11.2-4.7L266,383.8
	l-20.6,20.6c-3.2,3.2-6.9,4.7-11.2,4.7s-8-1.6-11.2-4.7l-20.6-20.6l-20.6,20.6c-3.2,3.2-6.9,4.7-11.2,4.7s-8-1.6-11.2-4.7
	l-20.6-20.6l-20.6,20.6c-3.2,3.2-6.9,4.7-11.2,4.7c-4.3,0-8-1.6-11.2-4.7l-20.6-20.6L54.2,404.4z M154.5,122.5v31.8l95.5-31.8
	l95.5,31.8v-31.8h-31.8V90.7H186.3v31.8H154.5z"/>
</svg>
