<?xml version="1.0" encoding="utf-8"?>
<!-- Generator: Adobe Illustrator 18.0.0, SVG Export Plug-In . SVG Version: 6.00 Build 0)  -->
<!DOCTYPE svg PUBLIC "-//W3C//DTD SVG 1.1//EN" "http://www.w3.org/Graphics/SVG/1.1/DTD/svg11.dtd">
<svg version="1.1" id="图层_1" xmlns="http://www.w3.org/2000/svg" xmlns:xlink="http://www.w3.org/1999/xlink" x="0px" y="0px"
	 viewBox="0 0 500 500" enable-background="new 0 0 500 500" xml:space="preserve">
<path fill="#999999" d="M339.1,0c34.4,0,63.8,8.7,88.3,26.1c24.5,17.4,36.7,38.5,36.7,63.2v250c0,24.2-11.7,44.8-35,61.9
	s-51.8,26.1-85.2,27.1l59.4,56.4c3,2.8,3.7,6,2.2,9.8c-1.5,3.7-4.3,5.6-8.4,5.6H102.5c-4.1,0-6.9-1.9-8.4-5.6s-0.7-7,2.2-9.8
	l59.4-56.4c-33.5-0.9-61.9-10-85.2-27.1s-35-37.8-35-61.9v-250c0-24.7,12.2-45.8,36.7-63.2S126.1,0,160.5,0H339.1z M249.8,375
	c14.9,0,27.5-5.2,37.9-15.6c10.4-10.4,15.6-23.1,15.6-37.9c0-14.9-5.2-27.5-15.6-37.9S264.6,268,249.8,268
	c-14.9,0-27.5,5.2-37.9,15.6s-15.6,23.1-15.6,37.9c0,14.9,5.2,27.5,15.6,37.9C222.3,369.8,234.9,375,249.8,375z M410.5,214.3V71.4
	H89.1v142.9L410.5,214.3L410.5,214.3z"/>
</svg>
