<?xml version="1.0" encoding="utf-8"?>
<!-- Generator: Adobe Illustrator 18.0.0, SVG Export Plug-In . SVG Version: 6.00 Build 0)  -->
<!DOCTYPE svg PUBLIC "-//W3C//DTD SVG 1.1//EN" "http://www.w3.org/Graphics/SVG/1.1/DTD/svg11.dtd">
<svg version="1.1" id="图层_1" xmlns="http://www.w3.org/2000/svg" xmlns:xlink="http://www.w3.org/1999/xlink" x="0px" y="0px"
	 viewBox="0 0 500 500" enable-background="new 0 0 500 500" xml:space="preserve">
<path fill="#999999" d="M445.3,249.8c15.1,0,28,5.3,38.7,16c10.7,10.7,16,23.6,16,38.7v93.8c0,2.3-0.7,4.2-2.2,5.6s-3.3,2.2-5.6,2.2
	h-23.4v15.6c0,13-4.6,24.1-13.7,33.2s-20.2,13.7-33.2,13.7s-24.1-4.6-33.2-13.7S375,434.6,375,421.6V406H125v15.6
	c0,13-4.6,24.1-13.7,33.2s-20.2,13.7-33.2,13.7s-24.1-4.6-33.2-13.7s-13.7-20.2-13.7-33.2V406H7.8c-2.3,0-4.2-0.7-5.6-2.2
	S0,400.5,0,398.2v-93.8c0-15.1,5.3-28,16-38.7c10.7-10.7,23.6-16,38.7-16h6.8l25.6-102.3c3.7-15.3,12.2-28.1,25.4-38.5
	s27.8-15.5,43.7-15.5h31.3V38.8c0-2.3,0.7-4.2,2.2-5.6c1.5-1.4,3.3-2.2,5.6-2.2h109.4c2.3,0,4.2,0.7,5.6,2.2s2.2,3.3,2.2,5.6v54.7
	h31.3c16,0,30.5,5.2,43.7,15.5s21.6,23.2,25.4,38.5l25.6,102.3H445.3z M78.1,366.9c10.7,0,19.9-3.8,27.6-11.5s11.5-16.8,11.5-27.6
	s-3.8-19.9-11.5-27.6s-16.8-11.5-27.6-11.5s-19.9,3.8-27.6,11.5S39,317,39,327.8s3.8,19.9,11.5,27.6S67.4,366.9,78.1,366.9z
	 M126,249.8h248l-21.7-87.2c-0.3-1.3-1.5-2.7-3.4-4.3s-3.7-2.3-5.1-2.3H156.3c-1.5,0-3.2,0.8-5.1,2.3s-3.1,3-3.4,4.3L126,249.8z
	 M421.9,366.9c10.7,0,19.9-3.8,27.6-11.5s11.5-16.8,11.5-27.6s-3.8-19.9-11.5-27.6s-16.8-11.5-27.6-11.5s-19.9,3.8-27.6,11.5
	s-11.5,16.8-11.5,27.6s3.8,19.9,11.5,27.6S411.1,366.9,421.9,366.9z"/>
</svg>
