<?xml version="1.0" encoding="utf-8"?>
<!-- Generator: Adobe Illustrator 18.0.0, SVG Export Plug-In . SVG Version: 6.00 Build 0)  -->
<!DOCTYPE svg PUBLIC "-//W3C//DTD SVG 1.1//EN" "http://www.w3.org/Graphics/SVG/1.1/DTD/svg11.dtd">
<svg version="1.1" id="图层_1" xmlns="http://www.w3.org/2000/svg" xmlns:xlink="http://www.w3.org/1999/xlink" x="0px" y="0px"
	 viewBox="0 0 500 500" enable-background="new 0 0 500 500" xml:space="preserve">
<path fill="#999999" d="M309.2,328.1l29,58c-11,33.9-30.9,61.4-59.7,82.4S217.7,500,182.2,500c-29.5,0-56.9-7.3-82-22
	s-45-34.6-59.7-59.7s-22-52.4-22-82c0-34.3,9.9-65.5,29.7-93.8s45.8-48.2,78-59.9l4.8,37.2c-23.1,10.2-41.6,25.9-55.4,47
	s-20.7,44.3-20.7,69.5c0,35,12.5,65,37.4,89.9s54.9,37.4,89.9,37.4c23.9,0,45.9-6.2,66.1-18.5c20.2-12.3,35.8-28.9,46.9-49.9
	C306.3,374.4,310.9,352,309.2,328.1z M464.9,356.5l16.5,32.4l-72.7,36.4c-2.5,1.3-5.2,2-8.2,2c-7.6,0-13-3.3-16.2-9.9l-67.9-135.5
	H182.2c-4.5,0-8.6-1.6-12.1-4.7s-5.5-7-6.1-11.5L136.8,44.3c-0.4-3,0.2-7,1.7-11.9c2.7-9.7,8-17.5,16.2-23.4s17.3-9,27.5-9
	c12.5,0,23.2,4.5,32.1,13.4s13.4,19.6,13.4,32.1c0,13.1-4.9,24.2-14.8,33.4c-9.8,9.2-21.2,13.1-34.1,11.8l10.5,82.1h120.2v36.4
	H193.9l4.5,36.4h129.3c7.6,0,13,3.3,16.2,9.9l64.8,129.3L464.9,356.5z"/>
</svg>
