<?xml version="1.0" encoding="utf-8"?>
<!-- Generator: Adobe Illustrator 18.0.0, SVG Export Plug-In . SVG Version: 6.00 Build 0)  -->
<!DOCTYPE svg PUBLIC "-//W3C//DTD SVG 1.1//EN" "http://www.w3.org/Graphics/SVG/1.1/DTD/svg11.dtd">
<svg version="1.1" id="图层_1" xmlns="http://www.w3.org/2000/svg" xmlns:xlink="http://www.w3.org/1999/xlink" x="0px" y="0px"
	 viewBox="0 0 500 500" enable-background="new 0 0 500 500" xml:space="preserve">
<path fill="#999999" d="M142.6,339.3c0-9.9-3.5-18.3-10.5-25.3c-7-7-15.4-10.5-25.3-10.5S88.5,307,81.5,314S71,329.4,71,339.3
	s3.5,18.3,10.5,25.3s15.4,10.5,25.3,10.5s18.3-3.5,25.3-10.5C139.2,357.6,142.6,349.1,142.6,339.3z M428.4,339.3
	c0-9.9-3.5-18.3-10.5-25.3s-15.4-10.5-25.3-10.5s-18.3,3.5-25.3,10.5s-10.5,15.4-10.5,25.3s3.5,18.3,10.5,25.3s15.4,10.5,25.3,10.5
	s18.3-3.5,25.3-10.5C424.9,357.6,428.4,349.1,428.4,339.3z M415.5,228.8l-20.1-107.1c-0.9-4.3-3-7.8-6.3-10.5s-7-4-11.3-4H121.7
	c-4.3,0-8,1.3-11.3,4s-5.3,6.2-6.3,10.5L84,228.8c-0.9,5.6,0.4,10.5,3.9,14.8s8.1,6.4,13.7,6.4h296.3c5.6,0,10.1-2.1,13.7-6.4
	C415.2,239.3,416.5,234.4,415.5,228.8z M352.5,58c0-3.7-1.3-6.9-3.9-9.5s-5.8-3.9-9.5-3.9H160.5c-3.7,0-6.9,1.3-9.5,3.9
	c-2.6,2.6-3.9,5.8-3.9,9.5s1.3,6.9,3.9,9.5s5.8,3.9,9.5,3.9h178.6c3.7,0,6.9-1.3,9.5-3.9S352.5,61.8,352.5,58z M464.1,260.3v168.2
	h-35.7v35.7c0,9.9-3.5,18.3-10.5,25.3S402.5,500,392.6,500s-18.3-3.5-25.3-10.5s-10.5-15.4-10.5-25.3v-35.7H142.6v35.7
	c0,9.9-3.5,18.3-10.5,25.3c-7,7-15.4,10.5-25.3,10.5s-18.3-3.5-25.3-10.5S71,474.1,71,464.2v-35.7H35.5V260.3
	c0-20.8,2.3-41.6,7-62.2L71.2,71.4c1.7-14.5,10.7-27.3,27.2-38.2S136.3,14,162.6,8.4S218,0,249.8,0s60.9,2.8,87.2,8.4
	s47.7,13.9,64.2,24.8c16.5,11,25.5,23.7,27.2,38.2l29.3,126.7C461.9,217.1,464.1,237.8,464.1,260.3z"/>
</svg>
