<?xml version="1.0" encoding="utf-8"?>
<!-- Generator: Adobe Illustrator 18.0.0, SVG Export Plug-In . SVG Version: 6.00 Build 0)  -->
<!DOCTYPE svg PUBLIC "-//W3C//DTD SVG 1.1//EN" "http://www.w3.org/Graphics/SVG/1.1/DTD/svg11.dtd">
<svg version="1.1" id="图层_1" xmlns="http://www.w3.org/2000/svg" xmlns:xlink="http://www.w3.org/1999/xlink" x="0px" y="0px"
	 viewBox="0 0 500 500" enable-background="new 0 0 500 500" xml:space="preserve">
<path fill="#999999" d="M165.4,305.4H97.2c-5.8,0-9.9-2.5-12.5-7.6c-2.5-5.1-2.1-9.9,1.4-14.5l40.8-54.5c-9.4-4.5-19.3-6.7-29.7-6.7
	c-19.1,0-35.4,6.8-49,20.4s-20.4,29.9-20.4,49c0,19.1,6.8,35.4,20.4,49c13.6,13.6,29.9,20.4,49,20.4c16.6,0,31.3-5.2,44.1-15.7
	C154,334.8,162,321.5,165.4,305.4z M125,277.7h40.4c-2.6-12.3-8-23-16.3-32.1L125,277.7z M229.2,277.7l62.5-83.3H187.5L166,223
	c15.2,14.9,24.3,33.1,27.3,54.7H229.2z M472.2,291.6c0-19.1-6.8-35.4-20.4-49s-29.9-20.4-49-20.4c-8.7,0-17.4,1.7-26.3,5.2
	l37.8,56.4c2.2,3.3,2.9,6.9,2.2,10.6s-2.7,6.7-5.9,8.7c-2.2,1.6-4.8,2.4-7.8,2.4c-5.1,0-8.9-2.1-11.5-6.3l-37.8-56.4
	c-13.5,13.7-20.2,30-20.2,48.8c0,19.1,6.8,35.4,20.4,49c13.6,13.6,29.9,20.4,49,20.4s35.4-6.8,49-20.4
	C465.4,327,472.2,310.7,472.2,291.6z M500,291.6c0,26.8-9.5,49.7-28.5,68.7s-41.9,28.5-68.7,28.5c-26.8,0-49.7-9.5-68.7-28.5
	s-28.5-41.9-28.5-68.7c0-14,2.9-27.3,8.6-39.8s13.6-23.3,23.8-32.4L323.8,198l-76.6,101.8c-2.6,3.8-6.3,5.6-11.1,5.6h-42.8
	c-3.3,23.7-14.1,43.5-32.3,59.5s-39.5,23.9-63.8,23.9c-26.8,0-49.7-9.5-68.7-28.5S0,318.3,0,291.6s9.5-49.7,28.5-68.7
	s41.9-28.5,68.7-28.5c16.5,0,32,4,46.7,11.9l29.7-39.7H125c-3.8,0-7-1.4-9.8-4.1s-4.1-6-4.1-9.8s1.4-7,4.1-9.8s6-4.1,9.8-4.1h83.3
	v27.8h94.4l-18.4-27.8h-48.2c-3.8,0-7-1.4-9.8-4.1c-2.7-2.7-4.1-6-4.1-9.8c0-3.8,1.4-7,4.1-9.8c2.7-2.7,6-4.1,9.8-4.1h55.6
	c4.8,0,8.6,2,11.5,6.1l57.9,86.8c13.2-6.4,27.1-9.5,41.7-9.5c26.8,0,49.7,9.5,68.7,28.5S500,264.8,500,291.6z"/>
</svg>
