<?xml version="1.0" encoding="utf-8"?>
<!-- Generator: Adobe Illustrator 18.0.0, SVG Export Plug-In . SVG Version: 6.00 Build 0)  -->
<!DOCTYPE svg PUBLIC "-//W3C//DTD SVG 1.1//EN" "http://www.w3.org/Graphics/SVG/1.1/DTD/svg11.dtd">
<svg version="1.1" id="图层_1" xmlns="http://www.w3.org/2000/svg" xmlns:xlink="http://www.w3.org/1999/xlink" x="0px" y="0px"
	 viewBox="0 0 500 500" enable-background="new 0 0 500 500" xml:space="preserve">
<path fill="#999999" d="M281.8,500h-61.1c-3.1,0-5.7-1.1-8-3.2c-2.2-2.1-3.4-4.9-3.4-8.2V371.4H107.1c-3.1,0-5.7-1.1-8-3.2
	c-2.3-2.1-3.4-4.9-3.4-8.2v-36.6c0-3.1,1.1-5.7,3.4-8c2.3-2.3,4.9-3.4,8-3.4h102.3v-30H107.1c-3.1,0-5.7-1.1-8-3.2
	c-2.2-2.1-3.4-4.9-3.4-8.2v-36.9c0-3.1,1.1-5.7,3.4-8c2.2-2.2,4.9-3.4,8-3.4h76L69.1,17c-1.9-3.8-1.9-7.6,0-11.4
	c2.4-3.7,5.7-5.6,10-5.6H148c4.5,0,7.9,2.1,10.3,6.4l76.3,150.9c4.5,9,11.1,23.8,19.9,44.4c2.4-5.7,6-13.7,10.8-24.1
	c4.9-10.4,8.1-17.6,9.8-21.7L342.9,6.7c1.9-4.5,5.3-6.7,10.3-6.7H421c4,0,7.2,1.9,9.6,5.7c2.1,3.3,2.2,7,0.4,11L319.8,222.3h76.3
	c3.1,0,5.7,1.1,8,3.4c2.2,2.2,3.4,4.9,3.4,8v36.9c0,3.3-1.1,6-3.4,8.2c-2.2,2.1-4.9,3.2-8,3.2h-103v30.2h103c3.1,0,5.7,1.1,8,3.4
	c2.2,2.2,3.4,4.9,3.4,8v36.6c0,3.3-1.1,6-3.4,8.2c-2.2,2.1-4.9,3.2-8,3.2h-103v117.2c0,3.1-1.1,5.7-3.4,8
	C287.6,498.9,284.9,500,281.8,500z"/>
</svg>
