<?xml version="1.0" encoding="utf-8"?>
<!-- Generator: Adobe Illustrator 18.0.0, SVG Export Plug-In . SVG Version: 6.00 Build 0)  -->
<!DOCTYPE svg PUBLIC "-//W3C//DTD SVG 1.1//EN" "http://www.w3.org/Graphics/SVG/1.1/DTD/svg11.dtd">
<svg version="1.1" id="图层_1" xmlns="http://www.w3.org/2000/svg" xmlns:xlink="http://www.w3.org/1999/xlink" x="0px" y="0px"
	 viewBox="0 0 500 500" enable-background="new 0 0 500 500" xml:space="preserve">
<path fill="#999999" d="M200,316.7h100v-25h-33.3V175H237l-38.5,35.7l20.1,20.8c7.3-6.4,12.1-11.4,14.3-14.8h0.5v75H200V316.7z
	 M333.3,250c0,12.2-1.8,24.5-5.5,37c-3.6,12.5-8.8,24.1-15.5,34.9s-15.5,19.5-26.4,26.3S263,358.4,250,358.4s-25-3.4-35.9-10.2
	c-10.9-6.8-19.7-15.5-26.4-26.3s-11.8-22.4-15.5-34.9c-3.6-12.5-5.5-24.8-5.5-37c0-12.2,1.8-24.5,5.5-37
	c3.6-12.5,8.8-24.1,15.5-34.9c6.7-10.8,15.5-19.5,26.4-26.3s22.9-10.2,35.9-10.2s25,3.4,35.9,10.2s19.7,15.5,26.4,26.3
	s11.8,22.4,15.5,34.9S333.3,237.8,333.3,250z M466.7,316.7V183.3c-18.4,0-34.1-6.5-47.1-19.5s-19.5-28.7-19.5-47.1H100
	c0,18.4-6.5,34.1-19.5,47.1s-28.7,19.5-47.1,19.5v133.3c18.4,0,34.1,6.5,47.1,19.5s19.5,28.7,19.5,47.1h300
	c0-18.4,6.5-34.1,19.5-47.1C432.6,323.2,448.3,316.7,466.7,316.7z M500,100v300c0,4.5-1.6,8.4-4.9,11.7c-3.3,3.3-7.2,4.9-11.7,4.9
	H16.7c-4.5,0-8.4-1.6-11.7-4.9s-5-7.2-5-11.7V100c0-4.5,1.6-8.4,4.9-11.7c3.3-3.3,7.2-4.9,11.7-4.9h466.7c4.5,0,8.4,1.6,11.7,4.9
	C498.4,91.6,500,95.5,500,100z"/>
</svg>
