<?xml version="1.0" encoding="utf-8"?>
<!-- Generator: Adobe Illustrator 18.0.0, SVG Export Plug-In . SVG Version: 6.00 Build 0)  -->
<!DOCTYPE svg PUBLIC "-//W3C//DTD SVG 1.1//EN" "http://www.w3.org/Graphics/SVG/1.1/DTD/svg11.dtd">
<svg version="1.1" id="图层_1" xmlns="http://www.w3.org/2000/svg" xmlns:xlink="http://www.w3.org/1999/xlink" x="0px" y="0px"
	 viewBox="0 0 500 500" enable-background="new 0 0 500 500" xml:space="preserve">
<path fill="#999999" d="M409.5,121.4v36.2c0,3.3-1.1,6-3.2,8.2c-2.1,2.1-4.9,3.2-8.2,3.2h-59.7c-5.4,34.1-20.7,61.8-45.8,83.1
	s-57.8,34.3-98,39.1c39.5,42.1,93.9,105.6,163,190.3c3.3,3.8,3.8,7.8,1.4,12.1c-1.9,4.3-5.3,6.4-10.3,6.4h-69.2
	c-3.8,0-6.7-1.4-8.9-4.3C198.2,408.9,139.3,341.3,93.8,293c-2.1-2.1-3.2-4.7-3.2-7.8v-45.1c0-3.1,1.1-5.7,3.4-8
	c2.2-2.2,4.9-3.4,8-3.4h39.8c31.2,0,56.4-5.1,75.5-15.3s31.2-25,36.4-44.4H102c-3.3,0-6-1.1-8.2-3.2c-2.1-2.1-3.2-4.8-3.2-8.1v-36.2
	c0-3.3,1.1-6,3.2-8.2c2.1-2.2,4.9-3.2,8.2-3.2h146.6C235.1,83.3,203.4,70,153.5,70H102c-3.1,0-5.7-1.1-8-3.4c-2.2-2.2-3.4-4.9-3.4-8
	V11.4c0-3.3,1.1-6,3.2-8.2C95.9,1,98.6,0,102,0h295.5c3.3,0,6,1.1,8.2,3.2c2.1,2.1,3.2,4.9,3.2,8.2v36.2c0,3.3-1.1,6-3.2,8.2
	c-2.1,2.1-4.9,3.2-8.2,3.2h-82.7c11.1,14.4,18.7,31.5,22.7,51.1h60.7c3.3,0,6,1.1,8.2,3.2S409.5,118.1,409.5,121.4z"/>
</svg>
