<?xml version="1.0" encoding="utf-8"?>
<!-- Generator: Adobe Illustrator 18.0.0, SVG Export Plug-In . SVG Version: 6.00 Build 0)  -->
<!DOCTYPE svg PUBLIC "-//W3C//DTD SVG 1.1//EN" "http://www.w3.org/Graphics/SVG/1.1/DTD/svg11.dtd">
<svg version="1.1" id="图层_1" xmlns="http://www.w3.org/2000/svg" xmlns:xlink="http://www.w3.org/1999/xlink" x="0px" y="0px"
	 viewBox="0 0 500 500" enable-background="new 0 0 500 500" xml:space="preserve">
<path fill="#999999" d="M143.4,351.3l22.6-83.4h-44.4l20.9,83.7c0.2,0.2,0.3,0.5,0.3,0.8s0.1,0.7,0.3,0.8c0-0.2,0-0.5,0.1-1
	C143.4,351.8,143.4,351.4,143.4,351.3z M175.8,232.1l9.8-35.7h-81.5l8.9,35.7H175.8z M229.4,232.1h38.8l-9.8-35.7h-19.5L229.4,232.1
	z M354.6,351.5l21.8-83.7h-45.2l22.6,83.4c0,0.2,0,0.5,0.1,1s0.2,0.8,0.4,1c0-0.2,0-0.5,0.1-0.8S354.6,351.8,354.6,351.5z
	 M385.6,232.1l9.2-35.7h-82.9l9.5,35.7H385.6z M500,241v17.9c0,2.6-0.8,4.7-2.5,6.4c-1.7,1.7-3.8,2.5-6.4,2.5h-59.4l-45.8,171.9
	c-1.3,4.5-4.2,6.7-8.6,6.7h-44.4c-4.5,0-7.3-2.2-8.6-6.7L278,267.8h-58.3L173,439.8c-1.3,4.5-4.2,6.7-8.6,6.7H120
	c-2,0-3.9-0.7-5.4-2c-1.6-1.3-2.6-2.9-2.9-4.7L67,267.9H9c-2.6,0-4.7-0.8-6.4-2.5c-1.7-1.7-2.6-3.8-2.6-6.4V241
	c0-2.6,0.8-4.7,2.5-6.4s3.8-2.5,6.4-2.5h48.8l-9.2-35.7H8.9c-2.6,0-4.7-0.8-6.4-2.5S0,190.1,0,187.6v-17.9c0-2.6,0.8-4.7,2.5-6.4
	c1.7-1.7,3.8-2.5,6.4-2.5h30.4l-24.8-96C13.6,62,14,59.3,15.9,57c1.9-2.3,4.3-3.4,7.3-3.4h38.2c4.8,0,7.7,2.2,8.6,6.7l25.1,100.4
	h100.2l27.1-100.4c1.3-4.5,4.2-6.7,8.6-6.7h35.2c4.5,0,7.3,2.2,8.6,6.7l27.3,100.4H404l26-100.4c0.9-4.5,3.8-6.7,8.6-6.7h38.2
	c3,0,5.4,1.1,7.3,3.3c1.9,2.4,2.3,5,1.4,7.8l-25.4,96h31c2.6,0,4.7,0.8,6.4,2.5c1.7,1.7,2.5,3.8,2.5,6.4v17.9c0,2.6-0.8,4.7-2.5,6.4
	s-3.8,2.5-6.4,2.5h-40.5l-9.5,35.7H491c2.6,0,4.7,0.8,6.4,2.5C499.2,236.3,500,238.4,500,241z"/>
</svg>
