<?xml version="1.0" encoding="utf-8"?>
<!-- Generator: Adobe Illustrator 18.0.0, SVG Export Plug-In . SVG Version: 6.00 Build 0)  -->
<!DOCTYPE svg PUBLIC "-//W3C//DTD SVG 1.1//EN" "http://www.w3.org/Graphics/SVG/1.1/DTD/svg11.dtd">
<svg version="1.1" id="图层_1" xmlns="http://www.w3.org/2000/svg" xmlns:xlink="http://www.w3.org/1999/xlink" x="0px" y="0px"
	 viewBox="0 0 500 500" enable-background="new 0 0 500 500" xml:space="preserve">
<path fill="#999999" d="M430.7,358.3v130.3c0,3.3-1.1,6-3.2,8.2c-2.1,2.1-4.9,3.2-8.2,3.2H79.9c-3.3,0-6-1.1-8.2-3.2
	c-2.2-2.1-3.2-4.8-3.2-8.2v-53.3c0-3.1,1.1-5.7,3.4-8c2.2-2.2,4.9-3.4,8-3.4h34.4V288H80.6c-3.3,0-6-1.1-8.2-3.4
	c-2.1-2.2-3.2-4.9-3.2-8v-46.5c0-3.3,1.1-6,3.2-8.2c2.1-2.1,4.9-3.2,8.2-3.2h33.7v-79.2c0-40.5,14.6-73.9,43.9-100.1
	C187.5,13.2,224.6,0,269.8,0c43.8,0,83.5,14.8,119,44.4c2.1,1.9,3.3,4.3,3.6,7.3c0.2,3-0.6,5.6-2.5,8l-36.6,45.1
	c-2.1,2.6-4.7,4-7.8,4.3c-3.1,0.5-5.8-0.4-8.2-2.5c-1.2-1.2-4.3-3.4-9.2-6.7c-5-3.3-13.1-7.1-24.5-11.4s-22.4-6.4-33-6.4
	c-20.1,0-36.3,5.6-48.7,16.7c-12.3,11.1-18.5,25.7-18.5,43.7v76.3h108.3c3.1,0,5.7,1.1,8,3.2c2.2,2.1,3.4,4.9,3.4,8.2v46.5
	c0,3.1-1.1,5.7-3.4,8c-2.2,2.2-4.9,3.4-8,3.4H203.4v134.6h147v-64.3c0-3.1,1.1-5.7,3.2-8c2.1-2.2,4.9-3.4,8.2-3.4h57.5
	c3.3,0,6,1.1,8.2,3.4C429.7,352.6,430.7,355.2,430.7,358.3z"/>
</svg>
