<?xml version="1.0" encoding="utf-8"?>
<!-- Generator: Adobe Illustrator 18.0.0, SVG Export Plug-In . SVG Version: 6.00 Build 0)  -->
<!DOCTYPE svg PUBLIC "-//W3C//DTD SVG 1.1//EN" "http://www.w3.org/Graphics/SVG/1.1/DTD/svg11.dtd">
<svg version="1.1" id="图层_1" xmlns="http://www.w3.org/2000/svg" xmlns:xlink="http://www.w3.org/1999/xlink" x="0px" y="0px"
	 viewBox="0 0 500 500" enable-background="new 0 0 500 500" xml:space="preserve">
<path fill="#999999" d="M416.9,418.5l12.4,56.5c0.7,2.8,0.4,5.5-1.1,8c-1.4,2.5-3.4,4.2-6,5.1l-1.8,0.4c-0.9,0.5-2.2,0.9-3.7,1.2
	c-1.5,0.4-3.4,0.9-5.7,1.6c-2.2,0.7-4.8,1.4-7.6,2c-2.8,0.6-5.9,1.2-9.1,1.8c-3.2,0.6-6.7,1.2-10.7,1.8c-3.9,0.6-7.9,1.1-11.9,1.6
	c-4,0.5-8.3,0.8-13,1.1c-4.6,0.2-9.2,0.4-13.7,0.4c-55.4,0-103.8-15.4-145.1-46.3s-69.5-72.7-84.4-125.1H81.8c-3.1,0-5.7-1.1-8-3.4
	c-2.2-2.2-3.4-4.9-3.4-8v-40.1c0-3.1,1.1-5.7,3.4-8c2.3-2.3,4.9-3.4,8-3.4h23.4c-0.5-13.5-0.4-25.9,0.4-37.3H81.8
	c-3.3,0-6-1.1-8.2-3.2c-2.1-2.1-3.2-4.9-3.2-8.2v-40.5c0-3.3,1.1-6,3.2-8.2c2.1-2.1,4.9-3.2,8.2-3.2h34.8
	c15.9-49.7,44.7-89.7,86.5-120S292.1,0,345.2,0c24.1,0,47.1,2.7,68.9,8.2c2.6,0.7,5,2.5,7.1,5.3c1.4,2.6,1.8,5.4,1.1,8.5L407,78.5
	c-0.7,3.1-2.4,5.4-5,6.9c-2.6,1.5-5.4,1.8-8.5,0.9l-1.4-0.4c-0.9-0.2-2.3-0.5-4.1-0.9l-6.2-1.2l-8-1.2l-9.2-1.1l-10.3-0.9l-10.5-0.4
	c-29.8,0-56.6,7.6-80.3,22.7s-41.4,36-53.3,62.5h166.1c3.8,0,6.7,1.4,8.9,4.3c2.4,2.8,3.2,5.9,2.5,9.2l-8.5,40.5
	c-1.2,6.2-5,9.2-11.4,9.2H194.6c-0.7,8.8-0.7,21.2,0,37.3h162.9c3.6,0,6.5,1.4,8.9,4.3c2.1,2.8,2.8,6,2.1,9.6l-8.5,39.8
	c-0.5,2.6-1.8,4.8-3.9,6.6c-2.1,1.8-4.5,2.7-7.1,2.7H211.6c11.4,27.7,29.1,49.7,53.1,65.9c24,16.2,51.1,24.3,81.1,24.3
	c4.3,0,8.5-0.2,12.8-0.5c4.3-0.4,8.2-0.8,11.9-1.2c3.7-0.5,7.2-1,10.5-1.6c3.3-0.6,6.2-1.2,8.7-1.8c2.5-0.6,4.7-1.1,6.6-1.6l4.3-1.1
	l1.8-0.7c3.1-1.2,6.2-0.9,9.2,0.7C414.4,412.7,416.2,415.2,416.9,418.5z"/>
</svg>
