<?xml version="1.0" encoding="utf-8"?>
<!-- Generator: Adobe Illustrator 18.0.0, SVG Export Plug-In . SVG Version: 6.00 Build 0)  -->
<!DOCTYPE svg PUBLIC "-//W3C//DTD SVG 1.1//EN" "http://www.w3.org/Graphics/SVG/1.1/DTD/svg11.dtd">
<svg version="1.1" id="图层_1" xmlns="http://www.w3.org/2000/svg" xmlns:xlink="http://www.w3.org/1999/xlink" x="0px" y="0px"
	 viewBox="0 0 500 500" enable-background="new 0 0 500 500" xml:space="preserve">
<path fill="#999999" d="M358,176.1v176.1c0,3.3-1.1,6-3.2,8.2c-2.1,2.1-4.9,3.2-8.2,3.2h-56.8c-3.3,0-6-1.1-8.2-3.2
	c-2.1-2.1-3.2-4.9-3.2-8.2V176.1c0-26.5-9.5-49.2-28.4-68.2s-41.7-28.4-68.2-28.4H85.2v409.1c0,3.3-1.1,6-3.2,8.2
	c-2.1,2.1-4.9,3.2-8.2,3.2H17.1c-3.3,0-6-1.1-8.2-3.2s-3.2-4.8-3.2-8.2V11.4c0-3.3,1.1-6,3.2-8.2S13.7,0,17.1,0h164.8
	c32,0,61.4,7.9,88.4,23.6s48.4,37.1,64.1,64.1S358,144.2,358,176.1z M494.3,11.4v312.5c0,32-7.9,61.4-23.6,88.4
	s-37.1,48.4-64.1,64.1S350.1,500,318.2,500H153.4c-3.3,0-6-1.1-8.2-3.2c-2.1-2.1-3.2-4.9-3.2-8.2V147.7c0-3.3,1.1-6,3.2-8.2
	c2.1-2.1,4.9-3.2,8.2-3.2h56.8c3.3,0,6,1.1,8.2,3.2c2.1,2.1,3.2,4.9,3.2,8.2v272.7h96.6c26.5,0,49.2-9.5,68.2-28.4
	c18.9-18.9,28.4-41.7,28.4-68.2V11.4c0-3.3,1.1-6,3.2-8.2c2.1-2.2,4.9-3.2,8.2-3.2H483c3.3,0,6,1.1,8.2,3.2S494.3,8,494.3,11.4z"/>
</svg>
