<?xml version="1.0" encoding="utf-8"?>
<!-- Generator: Adobe Illustrator 18.0.0, SVG Export Plug-In . SVG Version: 6.00 Build 0)  -->
<!DOCTYPE svg PUBLIC "-//W3C//DTD SVG 1.1//EN" "http://www.w3.org/Graphics/SVG/1.1/DTD/svg11.dtd">
<svg version="1.1" id="图层_1" xmlns="http://www.w3.org/2000/svg" xmlns:xlink="http://www.w3.org/1999/xlink" x="0px" y="0px"
	 viewBox="0 0 500 500" enable-background="new 0 0 500 500" xml:space="preserve">
<path fill="#999999" d="M380.2,330.7c0,28.5-9.3,53-27.8,73.5c-18.5,20.6-42.6,33.2-72.1,38.1v48.8c0,2.6-0.8,4.7-2.5,6.4
	c-1.7,1.7-3.8,2.5-6.4,2.5h-37.7c-2.4,0-4.5-0.9-6.3-2.7c-1.8-1.8-2.7-3.9-2.7-6.3v-48.8c-12.3-1.7-24.1-4.6-35.6-8.6
	s-20.9-8.2-28.3-12.4c-7.4-4.2-14.3-8.6-20.6-13.4c-6.3-4.7-10.6-8.2-13-10.5c-2.3-2.2-4-3.9-4.9-5c-3.2-3.9-3.3-7.7-0.6-11.4
	l28.8-37.6c1.3-1.9,3.4-3,6.4-3.3c2.8-0.4,5,0.5,6.7,2.5l0.6,0.6c21,18.4,43.6,30,67.8,34.9c6.9,1.5,13.8,2.2,20.6,2.2
	c15.1,0,28.3-4,39.8-12c11.4-8,17.2-19.3,17.2-34c0-5.2-1.4-10.1-4.2-14.8c-2.8-4.7-5.9-8.6-9.3-11.7c-3.4-3.2-8.9-6.6-16.3-10.5
	c-7.4-3.9-13.6-6.8-18.4-8.9s-12.3-5.2-22.3-9.1c-7.3-3-13-5.3-17.2-7s-9.9-4.1-17.2-7.4c-7.3-3.3-13.1-6.1-17.4-8.6
	c-4.4-2.5-9.6-5.8-15.8-9.9c-6.2-4.1-11.1-8-14.9-11.9c-3.8-3.8-7.9-8.4-12.1-13.7c-4.3-5.3-7.6-10.7-9.9-16.2s-4.3-11.7-5.9-18.6
	c-1.6-6.9-2.4-14.1-2.4-21.8c0-25.7,9.1-48.2,27.3-67.5s41.9-31.8,71.2-37.3V9c0-2.4,0.9-4.5,2.7-6.3s3.9-2.7,6.3-2.7h37.7
	c2.6,0,4.7,0.8,6.4,2.5c1.7,1.7,2.5,3.8,2.5,6.4v49.2c10.6,1.1,20.9,3.3,30.8,6.4c9.9,3.1,18,6.3,24.3,9.3
	c6.2,3.1,12.1,6.6,17.7,10.5c5.6,3.9,9.2,6.6,10.9,8.1c1.7,1.5,3.1,2.8,4.2,3.9c3.2,3.3,3.6,6.9,1.4,10.6l-22.6,40.7
	c-1.5,2.8-3.6,4.3-6.4,4.5c-2.6,0.6-5.1-0.1-7.5-2c-0.6-0.6-1.9-1.7-4-3.3c-2.1-1.7-5.8-4.1-10.9-7.4c-5.1-3.3-10.6-6.2-16.3-8.9
	c-5.8-2.7-12.7-5.1-20.8-7.3c-8.1-2.1-16-3.2-23.9-3.2c-17.7,0-32.1,4-43.2,12c-11.1,8-16.7,18.3-16.7,31c0,4.8,0.8,9.3,2.4,13.4
	c1.6,4.1,4.3,8,8.2,11.6c3.9,3.6,7.6,6.7,11,9.2c3.4,2.5,8.6,5.4,15.6,8.6c7,3.3,12.6,5.8,16.9,7.5c4.3,1.8,10.8,4.3,19.5,7.7
	c9.9,3.7,17.4,6.6,22.6,8.8c5.2,2.1,12.3,5.4,21.2,9.8c8.9,4.4,16,8.3,21.1,11.9c5.1,3.5,10.9,8.2,17.3,14
	c6.4,5.8,11.3,11.7,14.8,17.7c3.4,6,6.4,13.2,8.8,21.3C379,312.7,380.2,321.4,380.2,330.7z"/>
</svg>
