<?xml version="1.0" encoding="utf-8"?>
<!-- Generator: Adobe Illustrator 18.0.0, SVG Export Plug-In . SVG Version: 6.00 Build 0)  -->
<!DOCTYPE svg PUBLIC "-//W3C//DTD SVG 1.1//EN" "http://www.w3.org/Graphics/SVG/1.1/DTD/svg11.dtd">
<svg version="1.1" id="图层_1" xmlns="http://www.w3.org/2000/svg" xmlns:xlink="http://www.w3.org/1999/xlink" x="0px" y="0px"
	 viewBox="0 0 500 500" enable-background="new 0 0 500 500" xml:space="preserve">
<path fill="#999999" d="M454.5,250c0,45.2-11.2,87-33.6,125.4s-52.7,68.7-91.1,91.1s-80,33.5-125.3,33.5h-56.8c-3.3,0-6-1.1-8.2-3.2
	c-2.1-2.1-3.2-4.9-3.2-8.2v-217L60,295.1c-0.7,0.2-1.8,0.4-3.2,0.4c-2.4,0-4.6-0.7-6.7-2.1c-3.1-2.4-4.6-5.4-4.6-9.2v-45.5
	c0-5.4,2.7-9.1,8.2-11l82.7-25.2v-33L60,192.8c-0.7,0.2-1.8,0.4-3.2,0.4c-2.4,0-4.6-0.7-6.7-2.1c-3.1-2.4-4.6-5.4-4.6-9.2v-45.5
	c0-5.4,2.7-9.1,8.2-11l82.7-25.2V11.4c0-3.3,1.1-6,3.2-8.2c2.1-2.1,4.9-3.2,8.2-3.2h56.8c3.3,0,6,1.1,8.2,3.2
	c2.1,2.1,3.2,4.9,3.2,8.2v64.3l133.2-41.2c3.6-1.2,6.9-0.6,9.9,1.8c3.1,2.4,4.6,5.4,4.6,9.2V91c0,5.4-2.7,9.1-8.2,11l-139.6,43v33
	l133.2-41.2c3.6-1.2,6.9-0.6,9.9,1.8s4.6,5.4,4.6,9.2v45.5c0,5.4-2.7,9.1-8.2,11l-139.6,43v172.9c44.5-3.1,82.1-21,112.9-53.6
	S375,295,375,250c0-3.3,1.1-6,3.2-8.2c2.1-2.1,4.9-3.2,8.2-3.2h56.8c3.3,0,6,1.1,8.2,3.2C453.5,244,454.5,246.7,454.5,250z"/>
</svg>
