<?xml version="1.0" encoding="utf-8"?>
<!-- Generator: Adobe Illustrator 18.0.0, SVG Export Plug-In . SVG Version: 6.00 Build 0)  -->
<!DOCTYPE svg PUBLIC "-//W3C//DTD SVG 1.1//EN" "http://www.w3.org/Graphics/SVG/1.1/DTD/svg11.dtd">
<svg version="1.1" id="图层_1" xmlns="http://www.w3.org/2000/svg" xmlns:xlink="http://www.w3.org/1999/xlink" x="0px" y="0px"
	 viewBox="0 0 500 500" enable-background="new 0 0 500 500" xml:space="preserve">
<path fill="#999999" d="M393,155.1c0-23.7-7.7-42.9-23.1-57.5s-35.6-22-60.7-22H195.7v159h113.6c25.1,0,45.3-7.3,60.7-22
	C385.3,198,393,178.8,393,155.1z M477.2,155.1c0,45.7-15,83-44.9,111.9s-68.6,43.3-115.9,43.3H195.7v41.9H375c3.3,0,6,1.1,8.2,3.2
	c2.1,2.1,3.2,4.9,3.2,8.2V409c0,3.3-1.1,6-3.2,8.2c-2.1,2.1-4.9,3.2-8.2,3.2H195.7v68.2c0,3.3-1.1,6-3.4,8.2c-2.2,2.1-4.9,3.2-8,3.2
	H125c-3.3,0-6-1.1-8.2-3.2c-2.1-2.1-3.2-4.9-3.2-8.2v-68.2H34.2c-3.3,0-6-1.1-8.2-3.2s-3.2-4.9-3.2-8.2v-45.5c0-3.3,1.1-6,3.2-8.2
	s4.9-3.2,8.2-3.2h79.5v-41.9H34.2c-3.3,0-6-1.1-8.2-3.2c-2.1-2.1-3.2-4.9-3.2-8.2V246c0-3.1,1.1-5.7,3.2-8c2.1-2.2,4.9-3.4,8.2-3.4
	h79.5V11.4c0-3.3,1.1-6,3.2-8.2C119,1.1,121.8,0,125,0h191.3c47.3,0,86,14.4,115.9,43.3S477.2,109.5,477.2,155.1z"/>
</svg>
