<?xml version="1.0" encoding="utf-8"?>
<!-- Generator: Adobe Illustrator 18.0.0, SVG Export Plug-In . SVG Version: 6.00 Build 0)  -->
<!DOCTYPE svg PUBLIC "-//W3C//DTD SVG 1.1//EN" "http://www.w3.org/Graphics/SVG/1.1/DTD/svg11.dtd">
<svg version="1.1" id="图层_1" xmlns="http://www.w3.org/2000/svg" xmlns:xlink="http://www.w3.org/1999/xlink" x="0px" y="0px"
	 viewBox="0 0 500 500" enable-background="new 0 0 500 500" xml:space="preserve">
<path fill="#999999" d="M223,381.2l199.9-199.9c4.1-4.1,6.2-9,6.2-14.6c0-5.6-2.1-10.5-6.2-14.6l-33.2-33.2c-4.1-4.1-9-6.2-14.6-6.2
	s-10.5,2.1-14.6,6.2l-152,152l-68.7-68.7c-4.1-4.1-9-6.2-14.6-6.2c-5.6,0-10.5,2.1-14.6,6.2l-33.2,33.2c-4.1,4.1-6.2,9-6.2,14.6
	s2.1,10.5,6.2,14.6l116.5,116.5c4.1,4.1,9,6.2,14.6,6.2C214,387.4,218.9,385.3,223,381.2z M500,93.8v312.5
	c0,25.8-9.2,47.9-27.5,66.2c-18.3,18.3-40.4,27.5-66.2,27.5H93.8c-25.8,0-47.9-9.2-66.2-27.5C9.2,454.2,0,432.1,0,406.3V93.8
	c0-25.8,9.2-47.9,27.5-66.2S67.9,0,93.8,0h312.5c25.8,0,47.9,9.2,66.2,27.5C490.8,45.8,500,67.9,500,93.8z"/>
</svg>
