<?xml version="1.0" encoding="utf-8"?>
<!-- Generator: Adobe Illustrator 18.0.0, SVG Export Plug-In . SVG Version: 6.00 Build 0)  -->
<!DOCTYPE svg PUBLIC "-//W3C//DTD SVG 1.1//EN" "http://www.w3.org/Graphics/SVG/1.1/DTD/svg11.dtd">
<svg version="1.1" id="图层_1" xmlns="http://www.w3.org/2000/svg" xmlns:xlink="http://www.w3.org/1999/xlink" x="0px" y="0px"
	 viewBox="0 0 500 500" enable-background="new 0 0 500 500" xml:space="preserve">
<path fill="#999999" d="M397.7,45.5H102.3c-15.6,0-29,5.6-40.1,16.7s-16.7,24.5-16.7,40.1v295.5c0,15.6,5.6,29,16.7,40.1
	c11.1,11.1,24.5,16.7,40.1,16.7h295.5c15.6,0,29-5.6,40.1-16.7c11.1-11.1,16.7-24.5,16.7-40.1V102.3c0-15.6-5.6-29-16.7-40.1
	C426.7,51,413.4,45.5,397.7,45.5z M500,102.3v295.5c0,28.2-10,52.3-30,72.3c-20,20-44.1,30-72.3,30H102.3C74.1,500,50,490,30,470
	c-20-20-30-44.1-30-72.3V102.3C0,74.1,10,50,30,30S74.1,0,102.3,0h295.5C425.9,0,450,10,470,30C490,50,500,74.1,500,102.3z"/>
</svg>
