<?xml version="1.0" encoding="utf-8"?>
<!-- Generator: Adobe Illustrator 18.0.0, SVG Export Plug-In . SVG Version: 6.00 Build 0)  -->
<!DOCTYPE svg PUBLIC "-//W3C//DTD SVG 1.1//EN" "http://www.w3.org/Graphics/SVG/1.1/DTD/svg11.dtd">
<svg version="1.1" id="图层_1" xmlns="http://www.w3.org/2000/svg" xmlns:xlink="http://www.w3.org/1999/xlink" x="0px" y="0px"
	 viewBox="0 0 500 500" enable-background="new 0 0 500 500" xml:space="preserve">
<path fill="#999999" d="M423.3,279.1v95.6c0,23.9-8.5,44.2-25.4,61.2c-16.9,16.9-37.3,25.4-61.2,25.4H86.6
	c-23.9,0-44.2-8.5-61.2-25.4C8.5,419,0,398.6,0,374.7V124.6c0-23.9,8.5-44.2,25.4-61.2S62.7,38,86.6,38h250.2
	c12.6,0,24.4,2.5,35.2,7.5c3,1.4,4.8,3.7,5.4,6.9c0.6,3.4-0.3,6.3-2.7,8.7L360,75.8c-2,2-4.3,3-6.9,3c-0.6,0-1.5-0.2-2.7-0.6
	c-4.6-1.2-9.1-1.8-13.5-1.8H86.6c-13.2,0-24.6,4.7-34,14.1s-14.1,20.7-14.1,34v250.2c0,13.2,4.7,24.6,14.1,34s20.7,14.1,34,14.1
	h250.2c13.2,0,24.6-4.7,34-14.1s14.1-20.7,14.1-34v-76.4c0-2.6,0.9-4.8,2.7-6.6l19.2-19.2c2-2,4.3-3,6.9-3c1.2,0,2.4,0.3,3.6,0.9
	C421.3,272,423.3,274.9,423.3,279.1z M492.8,132.1L248,376.8c-4.8,4.8-10.5,7.2-17.1,7.2s-12.3-2.4-17.1-7.2L84.5,247.6
	c-4.8-4.8-7.2-10.5-7.2-17.1s2.4-12.3,7.2-17.1l33.1-33.1c4.8-4.8,10.5-7.2,17.1-7.2s12.3,2.4,17.1,7.2l79.1,79.1L425.4,64.8
	c4.8-4.8,10.5-7.2,17.1-7.2s12.3,2.4,17.1,7.2l33.1,33.1c4.8,4.8,7.2,10.5,7.2,17.1C500,121.6,497.6,127.3,492.8,132.1z"/>
</svg>
