<?xml version="1.0" encoding="utf-8"?>
<!-- Generator: Adobe Illustrator 18.0.0, SVG Export Plug-In . SVG Version: 6.00 Build 0)  -->
<!DOCTYPE svg PUBLIC "-//W3C//DTD SVG 1.1//EN" "http://www.w3.org/Graphics/SVG/1.1/DTD/svg11.dtd">
<svg version="1.1" id="图层_1" xmlns="http://www.w3.org/2000/svg" xmlns:xlink="http://www.w3.org/1999/xlink" x="0px" y="0px"
	 viewBox="0 0 500 500" enable-background="new 0 0 500 500" xml:space="preserve">
<path fill="#999999" d="M416.7,270.8v-41.7c0-5.6-2.1-10.5-6.2-14.6c-4.1-4.1-9-6.2-14.6-6.2H291.7V104.2c0-5.6-2.1-10.5-6.2-14.6
	c-4.1-4.1-9-6.2-14.6-6.2h-41.7c-5.6,0-10.5,2.1-14.6,6.2c-4.1,4.1-6.2,9-6.2,14.6v104.2H104.2c-5.6,0-10.5,2.1-14.6,6.2
	c-4.1,4.1-6.2,9-6.2,14.6v41.7c0,5.6,2.1,10.5,6.2,14.6c4.1,4.1,9,6.2,14.6,6.2h104.2v104.2c0,5.6,2.1,10.5,6.2,14.6
	c4.1,4.1,9,6.2,14.6,6.2h41.7c5.6,0,10.5-2.1,14.6-6.2c4.1-4.1,6.2-9,6.2-14.6V291.7h104.2c5.6,0,10.5-2.1,14.6-6.2
	C414.6,281.4,416.7,276.5,416.7,270.8z M500,93.8v312.5c0,25.8-9.2,47.9-27.5,66.2c-18.3,18.3-40.4,27.5-66.2,27.5H93.8
	c-25.8,0-47.9-9.2-66.2-27.5C9.2,454.2,0,432.1,0,406.3V93.8c0-25.8,9.2-47.9,27.5-66.2S67.9,0,93.8,0h312.5
	c25.8,0,47.9,9.2,66.2,27.5C490.8,45.8,500,67.9,500,93.8z"/>
</svg>
