<?xml version="1.0" encoding="utf-8"?>
<!-- Generator: Adobe Illustrator 18.0.0, SVG Export Plug-In . SVG Version: 6.00 Build 0)  -->
<!DOCTYPE svg PUBLIC "-//W3C//DTD SVG 1.1//EN" "http://www.w3.org/Graphics/SVG/1.1/DTD/svg11.dtd">
<svg version="1.1" id="图层_1" xmlns="http://www.w3.org/2000/svg" xmlns:xlink="http://www.w3.org/1999/xlink" x="0px" y="0px"
	 viewBox="0 0 500 500" enable-background="new 0 0 500 500" xml:space="preserve">
<path fill="#999999" d="M166.7,375c0-11.5-4.1-21.3-12.2-29.5c-8.1-8.1-18-12.2-29.5-12.2s-21.3,4.1-29.5,12.2
	c-8.1,8.1-12.2,18-12.2,29.5s4.1,21.3,12.2,29.5c8.1,8.1,18,12.2,29.5,12.2s21.3-4.1,29.5-12.2C162.6,396.3,166.7,386.5,166.7,375
	L166.7,375z M280.9,405.6c-2.8-50.3-22-93.3-57.6-128.9s-78.6-54.8-128.9-57.6c-3-0.2-5.6,0.8-7.8,2.9c-2.2,2.2-3.3,4.7-3.3,7.5
	v41.7c0,2.8,0.9,5.2,2.8,7.2c1.8,2,4.2,3,7,3.3c33.4,2.4,62.1,15.5,85.9,39.4c23.9,23.9,37,52.5,39.4,85.9c0.2,2.8,1.3,5.2,3.3,7
	s4.3,2.8,7.2,2.8h41.7c2.8,0,5.3-1.1,7.5-3.3C280.2,411.2,281.1,408.6,280.9,405.6L280.9,405.6z M405.9,405.9
	c-1.1-33.4-7.2-65.7-18.2-96.8s-26.2-59.4-45.4-84.6s-41.4-47.5-66.7-66.7s-53.5-34.3-84.6-45.4s-63.4-17.1-96.8-18.2
	c-3-0.2-5.5,0.8-7.5,2.9c-2.2,2.2-3.3,4.7-3.3,7.5v41.7c0,2.8,1,5.2,2.9,7.2s4.3,3,7.2,3.3c44.3,1.5,85.3,13.6,123,36.3
	s68,52.9,90.7,90.7s34.8,78.8,36.3,123c0.2,2.8,1.3,5.2,3.3,7.2s4.3,2.9,7.2,2.9h41.7c2.8,0,5.3-1.1,7.5-3.3
	C405.4,411.5,406.4,409,405.9,405.9L405.9,405.9z M500,93.8v312.5c0,25.8-9.2,47.9-27.5,66.2c-18.3,18.3-40.4,27.5-66.2,27.5H93.8
	c-25.8,0-47.9-9.2-66.2-27.5C9.2,454.2,0,432.1,0,406.3V93.8c0-25.8,9.2-47.9,27.5-66.2S67.9,0,93.8,0h312.5
	c25.8,0,47.9,9.2,66.2,27.5C490.8,45.8,500,67.9,500,93.8L500,93.8z"/>
</svg>
