<?xml version="1.0" encoding="utf-8"?>
<!-- Generator: Adobe Illustrator 18.0.0, SVG Export Plug-In . SVG Version: 6.00 Build 0)  -->
<!DOCTYPE svg PUBLIC "-//W3C//DTD SVG 1.1//EN" "http://www.w3.org/Graphics/SVG/1.1/DTD/svg11.dtd">
<svg version="1.1" id="图层_1" xmlns="http://www.w3.org/2000/svg" xmlns:xlink="http://www.w3.org/1999/xlink" x="0px" y="0px"
	 viewBox="0 0 500 500" enable-background="new 0 0 500 500" xml:space="preserve">
<path fill="#999999" d="M497,215l-46.7,217.3h-95.1l50.7-237c2.5-10.6,1-19-4.3-25.1c-5.1-6.3-13-9.4-23.6-9.4h-48.1l-58.1,271.4
	h-95.1l58.1-271.4h-81.5L95.1,432.3H0l58.1-271.4L14.5,67.7H378c19.2,0,37.2,3.8,54,11.5c16.8,7.7,30.8,18.5,42,32.3
	c11.4,13.9,19.1,29.9,23.1,48S501,196.2,497,215L497,215z"/>
</svg>
