<?xml version="1.0" encoding="utf-8"?>
<!-- Generator: Adobe Illustrator 18.0.0, SVG Export Plug-In . SVG Version: 6.00 Build 0)  -->
<!DOCTYPE svg PUBLIC "-//W3C//DTD SVG 1.1//EN" "http://www.w3.org/Graphics/SVG/1.1/DTD/svg11.dtd">
<svg version="1.1" id="图层_1" xmlns="http://www.w3.org/2000/svg" xmlns:xlink="http://www.w3.org/1999/xlink" x="0px" y="0px"
	 viewBox="0 0 500 500" enable-background="new 0 0 500 500" xml:space="preserve">
<path fill="#999999" d="M406.3,0c25.8,0,47.9,9.2,66.2,27.5C490.8,45.8,500,67.9,500,93.8v312.5c0,25.8-9.2,47.9-27.5,66.2
	c-18.3,18.3-40.4,27.5-66.2,27.5H93.8c-25.8,0-47.9-9.2-66.2-27.5C9.2,454.2,0,432.1,0,406.3V93.8c0-25.8,9.2-47.9,27.5-66.2
	S67.9,0,93.8,0H406.3L406.3,0z M227.2,250c0-19.1-6.7-35.4-20.2-48.8S177.3,181,158.2,181s-35.4,6.7-48.8,20.2S89.2,230.9,89.2,250
	c0,19.1,6.7,35.4,20.2,48.8s29.7,20.2,48.8,20.2s35.4-6.7,48.8-20.2S227.2,269.1,227.2,250L227.2,250z M410.8,250
	c0-19.1-6.7-35.4-20.2-48.8S360.9,181,341.8,181s-35.4,6.7-48.8,20.2s-20.2,29.7-20.2,48.8c0,19.1,6.7,35.4,20.2,48.8
	s29.7,20.2,48.8,20.2s35.4-6.7,48.8-20.2S410.8,269.1,410.8,250L410.8,250z"/>
</svg>
