<?xml version="1.0" encoding="utf-8"?>
<!-- Generator: Adobe Illustrator 18.0.0, SVG Export Plug-In . SVG Version: 6.00 Build 0)  -->
<!DOCTYPE svg PUBLIC "-//W3C//DTD SVG 1.1//EN" "http://www.w3.org/Graphics/SVG/1.1/DTD/svg11.dtd">
<svg version="1.1" id="图层_1" xmlns="http://www.w3.org/2000/svg" xmlns:xlink="http://www.w3.org/1999/xlink" x="0px" y="0px"
	 viewBox="0 0 500 500" enable-background="new 0 0 500 500" xml:space="preserve">
<path fill="#999999" d="M5.2,243.9c1.5-40.4,12.3-78.1,32.4-113.3S86,65.8,122.7,41.9h1.4c0,0.2-0.1,0.5-0.3,0.8
	c-1.5,1.5-4.1,4.6-7.8,9.3c-3.7,4.7-8.6,11.9-14.5,21.3c-6,9.5-11.5,19.8-16.7,30.8c-5.2,11.1-9.3,23.7-12.4,37.8
	c-3.1,14.1-4.4,28.1-3.9,42c0.5,13.9,4.1,28.5,10.9,43.9c6.8,15.4,16.9,29.8,30.3,43c9.3,9.3,18.8,15.8,28.5,19.4
	c9.7,3.6,18.1,4.7,25.3,3.2c7.2-1.5,13.6-3.7,19.4-6.6c5.8-2.9,10.1-5.9,13.1-9.1l4.5-4.5c7.3-9.5,12.2-20.3,14.8-32.5
	c2.6-12.2,3.2-23.6,1.8-34.2c-1.4-10.6-3.3-20.6-5.9-29.9c-2.5-9.3-5-16.7-7.4-22.3l-3.9-8.1c-1.9-4.7-4.7-9.3-8.5-13.8
	s-7.8-8.4-12-11.4c-4.2-3.1-8.2-5.8-12.1-8.2c-3.9-2.4-7.2-4.2-9.8-5.3l-3.6-1.7l29-32.1c7.3,3.2,14.5,8,21.8,14.5
	c7.3,6.5,12.7,12.2,16.5,17l5.3,7.5c0.2-8.9-1.5-18.6-5.2-28.9s-7.4-18.5-11.3-24.4l-5.6-8.6L249.1,0l44.6,50.5
	c-6.1,8.6-11,18.1-14.6,28.6s-5.7,18.9-6.3,25.3l-1.1,9.2c4.1-6.9,9.8-13.6,17.2-20.2c7.3-6.6,13.6-11.5,18.8-14.6l7.8-4.7
	l28.7,32.1c-8.2,2.6-16.1,7.3-23.7,14c-7.6,6.7-13.2,12.7-16.7,18.1l-5.3,8.1c-5.8,10.4-10.2,22.8-13.4,37.2
	c-3.2,14.4-3.8,30.2-2,47.4c1.9,17.2,7.2,31.8,15.9,43.7c6.1,8.4,13.3,14,21.6,16.9c8.3,2.9,16.2,3.4,23.7,1.5
	c7.5-1.9,14.6-4.3,21.2-7.4c6.6-3.1,12-6.2,16-9.3l5.9-4.5c11.2-9.9,20.1-20.6,26.9-32.1c6.8-11.5,11.3-22.8,13.5-33.9
	s3.2-22.4,2.8-33.9c-0.4-11.5-2-22.5-5-32.9c-3-10.4-6.4-20.4-10.3-30s-8.1-18.2-12.7-25.9c-4.6-7.7-8.7-14.4-12.6-20.1
	c-3.8-5.7-7-10.1-9.6-13.3l-3.6-4.7c-2.6-2.4-3.3-3.6-2-3.6l2.8,0.8c7.4,5.4,13.3,9.7,17.4,12.8c4.2,3.2,10,7.8,17.3,14
	c7.3,6.1,13.3,11.5,17.9,16.2c4.6,4.7,10,10.7,16.3,18.1c6.3,7.4,11.5,14.6,15.5,21.5c4,6.9,8.2,15.1,12.7,24.6
	c4.5,9.5,8,19.1,10.6,28.7c2.6,9.7,4.8,20.6,6.6,32.6c1.8,12.1,2.7,24.7,2.9,37.9c0.6,48.2-9.5,91.4-30.1,129.7
	c-20.6,38.3-49.7,68.2-87.1,89.6c-37.4,21.4-79.8,32.1-127.2,32.1c-34.4,0-67.1-6.9-97.9-20.6c-30.9-13.8-57.2-32.2-79.1-55.2
	s-39-50.3-51.3-81.8S4.1,278.1,5.2,243.9L5.2,243.9z"/>
</svg>
