<?xml version="1.0" encoding="utf-8"?>
<!-- Generator: Adobe Illustrator 18.0.0, SVG Export Plug-In . SVG Version: 6.00 Build 0)  -->
<!DOCTYPE svg PUBLIC "-//W3C//DTD SVG 1.1//EN" "http://www.w3.org/Graphics/SVG/1.1/DTD/svg11.dtd">
<svg version="1.1" id="图层_1" xmlns="http://www.w3.org/2000/svg" xmlns:xlink="http://www.w3.org/1999/xlink" x="0px" y="0px"
	 viewBox="0 0 500 500" enable-background="new 0 0 500 500" xml:space="preserve">
<path fill="#999999" d="M301.9,259.6c12.8-0.5,25,1.2,36.7,5.2c11.7,4,21.7,9,30.2,15c8.4,6,17,14,25.8,24.2
	c8.8,10.1,15.9,19.3,21.5,27.6s12,18.5,19.3,30.8c5.6,9.5,12.3,18.8,20.1,27.9c7.8,9,14.2,15.9,19.3,20.6
	c5.1,4.7,13.5,12.2,25.3,22.6c-8.2,5.1-17.4,10-27.7,14.7c-10.3,4.7-22.1,9.7-35.4,15.1c-13.3,5.4-23,9.4-29.1,12.1
	c-7.5-6.3-13.8-16.1-18.9-29.4c-5.1-13.3-8.8-27.3-11.1-42.1c-2.3-14.7-5.1-30.1-8.4-46.1c-3.3-16-6.9-30.4-10.9-43.1
	c-3.9-12.7-10.1-23.2-18.5-31.4c-8.4-8.3-18.9-12.4-31.3-12.4l-2.6,0.5l-1.5,1c0.7,0.9,1.8,2,3.3,3.6c1,0.9,3.4,2.9,7.2,6
	c3.7,3.2,5.9,5,6.5,5.6s2.2,2.1,4.9,4.6c2.6,2.5,4.2,4.2,4.6,5.2c0.4,1,1.4,2.8,2.9,5.4c1.5,2.6,2.4,4.9,2.7,7
	c0.3,2.1,0.6,4.8,1.2,7.9c0.5,3.2,0.9,6.6,1,10.4l0.3,8.4c0.2,4.4,0,9.3-0.6,14.7c-0.6,5.4-1.2,9.8-1.9,13.3
	c-0.7,3.5-1.7,8.5-3.2,15c-1.4,6.5-2.4,11-2.9,13.5c-6-0.2-14.6,0.6-25.8,2.4c-11.2,1.8-19.6,2.7-25.1,2.7c-6.6,0-12.8-0.9-18.4-2.6
	c-0.3-2.7-0.5-6.7-0.5-12c0-12.6,0.3-20.8,0.8-24.5c0.3-2.2,3-5.8,8.1-10.6c5-4.9,9.9-9.9,14.6-15.1c4.7-5.2,6.9-9.6,6.8-13.2
	c-4.1-0.3-7.8,1.7-11,6.1c-6.1,9-15.6,17.5-28.5,25.4c-12.9,7.9-24.5,11.9-34.9,11.9c-4.3,0-10.7-5.4-19.3-16.1
	s-17.7-22.6-27.2-35.7c-9.5-13-16.7-21.3-21.5-24.7c-1-0.7-3.3-3.2-6.9-7.7c-82.1,19.1-125.9,28.6-131.1,28.6
	c-2.7,0-5.1-0.9-7.2-2.8c-2-1.9-3.1-4.2-3.1-6.9c0-2.6,0.7-4.8,2.2-6.8c1.4-2,3.4-3.2,5.8-3.7l124.2-27.1c-1.4-2.4-2-4.5-2-6.4
	s0.5-3.4,1.4-4.5c0.9-1.1,2.3-2.1,4.1-2.9c1.8-0.9,3.5-1.4,5.1-1.8c1.6-0.3,3.6-0.7,5.9-1.2c2.3-0.4,3.9-0.8,4.7-1.2
	c0.7-0.2,2-0.8,4-1.9c2-1.1,3.5-1.7,4.5-1.7c2.6,0,4.9,1.4,7.2,4.1c2.2,2.7,3.9,5.5,5.1,8.4c27.8-6.3,42.4-9.5,44-9.5
	c2.9,0,5.4,0.9,7.5,2.8c2.1,1.9,3.2,4.3,3.2,7.2c0,2.6-0.7,4.8-2.2,6.6c-1.4,1.9-3.5,3.1-6,3.6L172,272.9l-0.3,4.1
	c-0.2,4.4,6.8,14.4,20.8,30c14.1,15.6,23,23.4,26.7,23.4c8,0,18.1-6.8,30.4-20.4c12.3-13.6,18.4-24.6,18.4-33c0-6.1-2-10.7-6-13.5
	c-4-2.9-8.4-4.5-13-4.7c-4.7-0.3-9-1.2-13-2.9c-4-1.7-6-4.6-6-8.7c0-2.7,0.9-5.6,2.6-8.7l-17.4-4.9c7.3-7.5,11-17.5,11-29.9
	c0-4.4-0.4-9.4-1.3-14.8c14-2.7,26.2-4.1,36.8-4.1c7.5,0,13.6,0.1,18.3,0.4c4.7,0.3,8.8,1,12.4,2.2c3.6,1.2,6.2,2.3,7.9,3.5
	c1.7,1.1,3.5,3.2,5.2,6.3c1.8,3.1,3.1,5.9,4,8.6c0.9,2.6,2.3,6.7,4.3,12.1c2,5.5,4.1,10.6,6.1,15.3l12.8-6.4
	c-0.5,6.8-2.5,11.9-5.9,15.3c-3.4,3.4-7,5.2-10.9,5.4c-3.8,0.2-7.2,0.7-10.2,1.7c-3,0.9-4.4,2.7-4.2,5.2L301.9,259.6z M317.2,199.5
	c-0.9-0.9-2-2.2-3.5-4c-1.4-1.8-2.5-3-3.1-3.7c-0.6-0.7-1.5-1.7-2.7-2.9c-1.2-1.3-2-2.2-2.6-2.7l-2-2l-2.2-1.9l-2-1.3l-2.2-1.2
	c-1.2-0.5-2.4-0.9-3.7-1.3c-1.3-0.3-3-0.6-5.2-0.6c-2.2-0.1-4.1-0.1-5.6-0.1h-17.9c-21.5,0-40,3.7-55.5,11c2.7-5.1,5.8-9.1,9.2-11.9
	c3.4-2.8,8-5.3,13.8-7.5c5.8-2.2,11.4-5.3,16.7-9.2c5.4-3.9,9.3-7,11.8-9.3c2.5-2.3,6.7-7,12.8-14.1c6-7.1,9.8-11.4,11.1-12.9
	c2,1.5,4.4,4.2,7.2,8.1s5.5,6.9,8.2,9.3c2.7,2.4,6,3.5,9.7,3.3l3.1-0.3v19.4l5.6,0.3c42.1-16.2,73.7-32.4,94.8-48.6
	c4.8-3.6,9-6.9,12.8-10c3.7-3.1,7.4-6.3,10.9-9.6c3.5-3.3,6.3-6,8.4-7.9c2.1-2,4.6-4.9,7.5-8.7c2.9-3.8,4.9-6.5,6.1-7.9
	c1.2-1.4,3.3-4.6,6.3-9.5c3-4.9,4.9-8.1,5.9-9.7s3.2-5.7,6.9-12.1s6.2-11,7.5-13.5l1.8-2.3c-0.3,9-4,20.9-11,35.5
	c-13.5,28.1-30.9,50.6-52.4,67.5s-47.5,29-78.2,36.3c-2.4,0.5-6,1.2-10.7,1.9c-4.8,0.8-9,1.6-12.8,2.4c-3.7,0.9-7.1,2-10,3.6
	c0.5,3.2,2.6,7.2,6.3,11.8c3.7,4.6,5.5,7.5,5.5,8.7C323.9,193.7,321.7,196.3,317.2,199.5L317.2,199.5z M260.7,434.9
	c6.6-4.4,17.9-8.5,33.6-12.1s28.2-5.5,37.4-5.5c1.5,0,3.5,1.3,5.8,4c2.3,2.6,4.7,6.3,7.2,10.9c2.5,4.6,4.7,8.9,6.6,12.8
	c2,3.9,4,8.3,6.1,13c2.1,4.8,3.4,7.6,3.7,8.4c-20.6,7.7-41.4,11.5-62.4,11.5c-10.4,0-21-0.9-32-2.8L260.7,434.9z M199.6,269.6
	l12.3-3.1l27.9,45.2L221.1,324L199.6,269.6z M327.7,401.7c0.5,2.6,0.8,3.9,0.8,4.1c0,1.2-1.5,2.4-4.5,3.7c-3,1.3-6.9,2.4-11.8,3.3
	c-4.9,0.9-9.5,1.7-13.8,2.4c-4.3,0.7-8.9,1.3-13.7,1.9s-7.5,1-8.2,1.2l-1.8-11c3.6-0.3,8.7-1.1,15.5-2.2c6.7-1.1,12.9-2,18.4-2.6
	c5.5-0.6,10.7-0.9,15.5-0.9H327.7L327.7,401.7z M210.9,241.2l-24.5,5.1l-1.5-4.3c1.7-0.2,4.5-0.8,8.3-1.8c3.8-1,6.8-1.5,8.8-1.5
	C205.2,238.6,208.2,239.5,210.9,241.2L210.9,241.2z M260.7,403.2h7.9l2.6,21.2l-10.5,3.1V403.2L260.7,403.2z M488,22.4v-0.3V22.4
	L488,22.4z M488,22.4l-0.3,1.3l-0.5,0.5l0.3-0.8L488,22.4z M488,22.4l0.3-0.3L488,22.4z"/>
</svg>
