<?xml version="1.0" encoding="utf-8"?>
<!-- Generator: Adobe Illustrator 18.0.0, SVG Export Plug-In . SVG Version: 6.00 Build 0)  -->
<!DOCTYPE svg PUBLIC "-//W3C//DTD SVG 1.1//EN" "http://www.w3.org/Graphics/SVG/1.1/DTD/svg11.dtd">
<svg version="1.1" id="图层_1" xmlns="http://www.w3.org/2000/svg" xmlns:xlink="http://www.w3.org/1999/xlink" x="0px" y="0px"
	 viewBox="0 0 500 500" enable-background="new 0 0 500 500" xml:space="preserve">
<path fill="#999999" d="M363.6,446.5c-0.9-3.6-3.2-4.1-6.8-1.4c-5.7,4.2-14,7.9-24.8,11.1c-10.8,3.2-23.3,4.8-37.3,4.8
	c-24.5,0-42.8-4.7-55-14c-0.9-0.8-2.2-1.1-3.7-1.1c-2.1,0-4.6,1.1-7.4,3.4c-1.3,1.1-2,2.7-2.1,4.6c-0.1,1.9,0.6,3.8,2.1,5.7
	c6.5,6.1,14.8,10.4,24.9,13.1c10.2,2.7,19.9,3.8,29.2,3.6c9.3-0.3,18.7-0.7,28.2-1.3c7.8-0.8,15.8-2.7,24.1-5.8
	c8.3-3.1,14.4-6,18.5-8.5c4.1-2.6,6.8-4.5,8.1-5.8C363.9,452.4,364.6,449.7,363.6,446.5L363.6,446.5z M352.5,413.7
	c-3.6-8.9-7.3-14.7-11.1-17.4c-4.4-2.8-11.6-4.3-21.6-4.3c-8.9,0-15.7,0.9-20.2,2.8c-5.5,2.3-12.9,7.6-22.2,15.9
	c-4.9,4.6-6.1,8.7-3.4,12.5c1.7,1.5,3.4,1.9,5,1.3c1.6-0.7,4.6-2.9,9-6.7c0.6-0.4,1.6-1.2,3-2.4c1.4-1.2,2.4-2,3-2.4
	c0.6-0.4,1.5-1,2.8-2c1.3-0.9,2.4-1.6,3.3-2c0.9-0.4,2-0.9,3.6-1.4c1.5-0.6,2.9-1,4.3-1.3c1.3-0.3,2.9-0.5,4.7-0.7
	c1.8-0.2,3.7-0.3,5.8-0.3c5.1,0,9.3,0.7,12.7,2.1c3.3,1.4,5.5,2.8,6.5,4.1c1,1.3,2.3,3.4,3.8,6.3c1.9,3.2,3.1,5.1,3.6,5.7
	c0.5,0.6,1.7,0.5,3.6-0.3C352.9,421.1,354.2,417.9,352.5,413.7L352.5,413.7z M453.6,333.7c0-4.2-0.5-8.4-1.4-12.7
	c-0.9-4.3-2.5-8.5-4.7-12.8c-2.2-4.3-5.4-7.7-9.7-10.4c-4.3-2.7-9.3-4-14.9-4c-6.3,0-15.5,3.9-27.6,11.8
	c-12.1,7.9-24.4,15.8-36.7,23.8s-21.9,12-28.8,12c-5.1,0.2-11.2-1.6-18.1-5.4c-6.9-3.8-14.1-8.4-21.6-14c-7.5-5.5-15.4-11-23.8-16.5
	c-8.4-5.5-17.8-10.2-28.5-14c-10.6-3.8-21.2-5.6-31.6-5.4c-21.8,0.2-40.5,7.6-56.1,22.4c-15.6,14.7-23.5,31.7-23.9,50.8
	c-0.4,21.3,6.6,36.8,21.1,46.7c5.5,3.8,11.4,6.5,17.8,8.1c6.4,1.6,16.2,2.4,29.5,2.4c10.8,0,23.3-3.1,37.6-9.3s27-12.9,38.2-20.2
	c11.2-7.3,22.6-14,34.2-20.1c11.6-6.1,20.4-9,26.5-8.8c4.9,0.2,11.1,3.2,18.5,9c7.4,5.8,14.2,12.1,20.4,19.1
	c6.2,6.9,12.6,13.3,19.4,19.2s12,8.9,15.8,9.1c6.6,0.6,12.2-0.8,16.7-4c4.5-3.2,9.7-9.2,15.8-17.9c5.3-7.8,9.3-17.4,12.1-28.8
	C452.2,352.5,453.6,342.4,453.6,333.7L453.6,333.7z M468.7,288.2c0,31.1-5.9,60-17.7,86.7c-11.8,26.7-27.5,49.1-47.3,67.2
	c-19.7,18.1-42.8,32.3-69,42.6C308.4,494.9,280.8,500,252,500s-56.7-5.5-83.4-16.4c-26.8-10.9-50.3-25.8-70.5-44.7
	c-20.2-18.9-36.4-41.8-48.5-68.8c-12.1-27-18.2-55.6-18.2-86c0-16.9,1.9-33.3,5.6-49.1c3.7-15.9,8.4-29.7,14-41.4
	c5.6-11.8,12.3-23,20.1-33.7c7.8-10.7,15.2-19.6,22.4-26.8c7.1-7.1,14.6-13.7,22.4-19.8c7.8-6.1,13.9-10.5,18.4-13.2
	c4.5-2.8,8.5-5.1,12.1-7c2.7-1.5,7.5-4,14.5-7.5c7-3.5,12.2-6.2,15.5-8.1c3.3-1.9,7.9-4.7,13.7-8.5c5.8-3.8,11.5-8,17.2-12.5
	c6.8-5.3,12.3-12.2,16.5-20.6c4.2-8.4,7-20.4,8.5-35.7c24.5,29.4,42.1,47.7,53,55c8.4,5.5,20.7,12,37,19.4
	c16.3,7.4,28.6,13.7,36.7,18.8c4,2.5,7.7,4.8,11.1,7.1c3.4,2.3,9.2,6.7,17.2,13.2c8.1,6.5,15.3,13.2,21.6,20.1
	c6.4,6.8,13.5,15.9,21.4,27.1c7.9,11.2,14.4,22.8,19.6,34.7c5.2,12,9.7,26.1,13.4,42.3S468.7,270.7,468.7,288.2L468.7,288.2z"/>
</svg>
