<?xml version="1.0" encoding="utf-8"?>
<!-- Generator: Adobe Illustrator 18.0.0, SVG Export Plug-In . SVG Version: 6.00 Build 0)  -->
<!DOCTYPE svg PUBLIC "-//W3C//DTD SVG 1.1//EN" "http://www.w3.org/Graphics/SVG/1.1/DTD/svg11.dtd">
<svg version="1.1" id="图层_1" xmlns="http://www.w3.org/2000/svg" xmlns:xlink="http://www.w3.org/1999/xlink" x="0px" y="0px"
	 viewBox="0 0 500 500" enable-background="new 0 0 500 500" xml:space="preserve">
<path fill="#999999" d="M304,7.2c-68.8,26.3-129.1,65.6-181,118S32.3,238.4,6.5,307.6C2.2,288.3,0,269.2,0,250.3
	c0-45.1,11.1-86.9,33.4-125.2S85.8,56.6,124,34.3S203.9,1,249,1C266.8,1,285.2,3,304,7.2L304,7.2z M391.6,45.9
	c20.2,14.1,38,30.9,53.4,50.5c-84.4,24.5-157.6,68-219.6,130.4s-105,135.8-129.1,220.2c-20.2-15.6-37-33.2-50.5-52.7
	c24.3-83.8,67.2-156.6,128.6-218.4S308.3,70.6,391.6,45.9L391.6,45.9z M153,480.1c25-77.3,66.1-144.7,123.5-202.5
	s124.6-99.4,201.7-125c8.7,20,14.5,41.1,17.6,63.5c-63.4,26-119.4,63.5-168,112.3s-85.8,105-111.7,168.6
	C193.8,494,172.7,488.4,153,480.1L153,480.1z M500,499c-41.9-10.9-81.7-23.3-119.5-37.4c-29.3,18.2-60.8,29.8-94.4,34.8
	c23.7-44.5,53.4-84.7,89.2-120.6s75.8-65.8,120.1-89.7c-4.6,33-15.5,63.8-32.9,92.4C476.7,416.6,489.1,456.7,500,499L500,499z"/>
</svg>
