<?xml version="1.0" encoding="utf-8"?>
<!-- Generator: Adobe Illustrator 18.0.0, SVG Export Plug-In . SVG Version: 6.00 Build 0)  -->
<!DOCTYPE svg PUBLIC "-//W3C//DTD SVG 1.1//EN" "http://www.w3.org/Graphics/SVG/1.1/DTD/svg11.dtd">
<svg version="1.1" id="图层_1" xmlns="http://www.w3.org/2000/svg" xmlns:xlink="http://www.w3.org/1999/xlink" x="0px" y="0px"
	 viewBox="0 0 500 500" enable-background="new 0 0 500 500" xml:space="preserve">
<path fill="#999999" d="M35.4,250c0-30.3,6.2-59.4,18.7-87.3l102.4,280.4c-36.5-17.7-65.8-43.8-87.9-78.4S35.4,291.9,35.4,250
	L35.4,250z M394.8,239.1c0,3.5-0.2,7.1-0.7,10.7c-0.5,3.6-1.4,8.2-2.8,13.8s-2.5,9.7-3.2,12.3c-0.7,2.6-2.4,8.1-4.9,16.5
	c-2.5,8.4-4.1,13.8-4.9,16.2L357.1,380l-77.6-230.5c8.6-0.6,16.7-1.3,24.6-2.2c3.5-0.4,6-2.1,7.3-5.2c1.3-3.1,1.1-6-0.7-8.6
	c-1.8-2.7-4.4-4-8-3.8l-57.2,2.8c-14-0.2-32.7-1.1-56.4-2.8c-2.2-0.2-4.1,0.3-5.7,1.4c-1.6,1.1-2.7,2.5-3.2,4.2
	c-0.6,1.7-0.7,3.4-0.4,5.2s1.1,3.3,2.5,4.6c1.4,1.3,3.2,2,5.4,2.2l22.3,2.2l33.5,91.5l-46.9,140.6l-78.1-232.1
	c8.6-0.6,16.7-1.3,24.6-2.2c3.5-0.4,6-2.1,7.3-5.2c1.3-3.1,1.1-6-0.7-8.6c-1.8-2.7-4.4-4-8-3.8l-57.2,2.8c-1.3,0-3.4,0-6.4-0.1
	c-3-0.1-5.4-0.1-7.3-0.1c19.5-29.8,45.1-53.3,76.6-70.7S213.2,35.4,250,35.4c27.3,0,53.4,4.9,78.3,14.8c24.8,9.9,47,23.7,66.5,41.6
	H392c-10.2,0-18.8,3.8-25.7,11.3c-6.9,7.5-10.3,16.4-10.3,26.6c0,2.2,0.2,4.5,0.6,6.7c0.4,2.2,0.7,4.2,1.1,6s1.1,3.9,2.2,6.4
	c1.1,2.5,2,4.5,2.5,5.9c0.6,1.4,1.7,3.5,3.3,6.3s2.8,4.7,3.5,5.9c0.7,1.1,2,3.3,4,6.7c2,3.3,3.3,5.5,3.9,6.4
	C389,199.9,394.8,219.6,394.8,239.1L394.8,239.1z M253.6,268.7l66.1,180.5c0.2,1.1,0.7,2.1,1.4,3.1c-23.4,8.2-47.2,12.3-71.1,12.3
	c-20.8,0-41-3-60.5-8.9L253.6,268.7z M438.1,147c17.7,32.4,26.5,66.7,26.5,103c0,38.9-9.7,74.7-29,107.6s-45.3,58.7-77.8,77.7
	l65.6-189.2c11-31.4,16.5-57.1,16.5-77C439.7,161.3,439.2,153.9,438.1,147L438.1,147z M250,0c33.9,0,66.2,6.6,97.1,19.8
	s57.5,31,79.8,53.3c22.3,22.3,40.1,48.9,53.3,79.8c13.2,30.9,19.8,63.2,19.8,97.1s-6.6,66.2-19.8,97.1c-13.2,30.9-31,57.5-53.3,79.8
	c-22.3,22.3-48.9,40.1-79.8,53.3C316.2,493.4,283.9,500,250,500s-66.2-6.6-97.1-19.8c-30.9-13.2-57.5-31-79.8-53.3
	C50.8,404.6,33,378,19.8,347.1S0,283.9,0,250s6.6-66.2,19.8-97.1s31-57.5,53.3-79.8S122,33,152.9,19.8S216.1,0,250,0L250,0z
	 M250,488.6c32.2,0,63-6.3,92.5-19c29.5-12.6,54.9-29.6,76.2-50.9s38.3-46.7,50.9-76.2c12.6-29.5,19-60.3,19-92.5s-6.3-63-19-92.5
	c-12.6-29.5-29.6-54.9-50.9-76.2S372,43.1,342.5,30.4s-60.3-19-92.5-19s-63,6.3-92.5,19S102.6,60,81.3,81.3S43.1,128,30.4,157.5
	s-19,60.3-19,92.5s6.3,63,19,92.5s29.6,54.9,50.9,76.2s46.7,38.3,76.2,50.9C187,482.2,217.8,488.6,250,488.6L250,488.6z"/>
</svg>
