<?xml version="1.0" encoding="utf-8"?>
<!-- Generator: Adobe Illustrator 18.0.0, SVG Export Plug-In . SVG Version: 6.00 Build 0)  -->
<!DOCTYPE svg PUBLIC "-//W3C//DTD SVG 1.1//EN" "http://www.w3.org/Graphics/SVG/1.1/DTD/svg11.dtd">
<svg version="1.1" id="图层_1" xmlns="http://www.w3.org/2000/svg" xmlns:xlink="http://www.w3.org/1999/xlink" x="0px" y="0px"
	 viewBox="0 0 500 500" enable-background="new 0 0 500 500" xml:space="preserve">
<path fill="#999999" d="M374.3,307.9v35.5c0,10.9-4,20.5-11.9,29c-7.9,8.5-18.1,15-30.6,19.7c-12.5,4.7-25.3,8.2-38.4,10.6
	c-13.1,2.4-25.9,3.6-38.2,3.6c-44.5,0-81.7-15.1-111.5-45.2S99,293.3,99,248.4c0-44.1,14.8-80.8,44.3-110.4s66.3-44.3,110.4-44.3
	c7.4,0,15.6,0.5,24.6,1.5c9,1,19.1,2.9,30.3,5.9c11.2,2.9,21.2,6.6,30.1,11.1c8.9,4.4,16.4,10.6,22.5,18.4
	c6.1,7.8,9.1,16.6,9.1,26.4v35.5c0,3.5-1.7,5.2-5.2,5.2h-38.4c-3.5,0-5.2-1.7-5.2-5.2v-22.8c0-9.3-7.1-16.7-21.3-22
	c-14.2-5.3-29.1-8-44.8-8c-30.4,0-55.2,9.9-74.4,29.8S152,215.1,152,246.7c0,32.8,9.9,59.8,29.8,81.2s45.2,32.1,76,32.1
	c14.8,0,29.7-2.6,44.9-7.8c15.2-5.2,22.8-12.4,22.8-21.5v-22.8c0-1.5,0.5-2.8,1.5-3.7s2.1-1.5,3.4-1.5h38.7c1.3,0,2.5,0.5,3.6,1.5
	S374.3,306.4,374.3,307.9L374.3,307.9z M250,41.7c-28.2,0-55.2,5.5-80.9,16.6s-47.9,25.9-66.4,44.4s-33.4,40.7-44.4,66.4
	S41.7,221.8,41.7,250s5.5,55.2,16.6,80.9c11.1,25.7,25.9,47.9,44.4,66.4s40.7,33.4,66.4,44.4c25.7,11.1,52.7,16.6,80.9,16.6
	s55.2-5.5,80.9-16.6c25.7-11.1,47.9-25.9,66.4-44.4s33.4-40.7,44.4-66.4c11.1-25.7,16.6-52.7,16.6-80.9s-5.5-55.2-16.6-80.9
	c-11.1-25.7-25.9-47.9-44.4-66.4s-40.7-33.4-66.4-44.4C305.2,47.2,278.2,41.7,250,41.7L250,41.7z M500,250
	c0,45.4-11.2,87.2-33.5,125.5s-52.7,68.6-91,91S295.4,500,250,500s-87.2-11.2-125.5-33.5s-68.6-52.7-91-91S0,295.4,0,250
	s11.2-87.2,33.5-125.5s52.7-68.6,91-91S204.6,0,250,0s87.2,11.2,125.5,33.5s68.6,52.7,91,91S500,204.6,500,250L500,250z"/>
</svg>
