<?xml version="1.0" encoding="utf-8"?>
<!-- Generator: Adobe Illustrator 18.0.0, SVG Export Plug-In . SVG Version: 6.00 Build 0)  -->
<!DOCTYPE svg PUBLIC "-//W3C//DTD SVG 1.1//EN" "http://www.w3.org/Graphics/SVG/1.1/DTD/svg11.dtd">
<svg version="1.1" id="图层_1" xmlns="http://www.w3.org/2000/svg" xmlns:xlink="http://www.w3.org/1999/xlink" x="0px" y="0px"
	 viewBox="0 0 500 500" enable-background="new 0 0 500 500" xml:space="preserve">
<path fill="#999999" d="M500,249.8c0,3.4-1.1,6.4-3.2,8.9c-2.1,2.5-4.8,4.1-8.1,4.8l-50,86.9c0.5,1.5,0.7,2.9,0.7,4.4
	c0,3.3-1,6.1-3.1,8.7s-4.7,4.1-7.9,4.8l-47.1,82.3c0.5,1.3,0.7,2.6,0.7,3.9c0,3.7-1.3,7-4,9.8s-6,4.2-9.9,4.2c-4.1,0-7.4-1.5-10-4.4
	h-97.7c-2.8,3.3-6.3,4.9-10.5,4.9s-7.7-1.6-10.5-4.9h-97.4c-2.8,3.3-6.3,4.9-10.5,4.9c-3.7,0-7-1.3-9.8-4s-4.2-6-4.2-9.9
	c0-1.3,0.3-2.9,1-4.9l-47.1-81.8c-3.3-0.7-5.9-2.2-7.9-4.8s-3.1-5.4-3.1-8.7c0-1.5,0.2-2.9,0.7-4.4L11,263.4c-3.3-0.8-5.9-2.5-7.9-5
	C1,255.9,0,253,0,249.8c0-3.4,1.1-6.4,3.3-8.9s4.9-4.1,8.2-4.8l48.6-84c0-0.2,0-0.4-0.1-0.7s-0.1-0.6-0.1-0.7c0-5.9,2.8-10,8.3-12.5
	l51-88.6c-0.7-1.6-1-3.1-1-4.4c0-3.9,1.4-7.2,4.2-9.9s6-4,9.8-4c4.2,0,7.8,1.7,10.7,5.1h96.7c2.6-3.4,6.1-5.1,10.5-5.1
	s7.9,1.7,10.5,5.1h97.2c2.9-3.4,6.5-5.1,10.7-5.1c3.7,0,7,1.3,9.8,4s4.2,6,4.2,9.9c0,1-0.3,2.4-1,4.4l50.5,87.4
	c3.7,0.2,6.9,1.6,9.5,4.3s3.9,5.8,3.9,9.4c0,2.1-0.6,4.3-1.7,6.6l45.7,79.1c3.1,0.7,5.7,2.2,7.7,4.8S500,246.5,500,249.8L500,249.8z
	 M259.5,444.8h95L271,358.4h-34.9l-83.5,86.4h87.9c2.9-2.6,6.1-3.9,9.5-3.9S256.6,442.2,259.5,444.8L259.5,444.8z M27.3,246.6
	c0.2,0.7,0.2,1.7,0.2,3.2c0,1.6-0.2,2.8-0.5,3.7l50.8,87.9c0.3,0,0.7,0.1,1.1,0.2s0.9,0.4,1.3,0.6l1.2,0.6l45.9-48.6v-84.7
	l-45.7-47.4c-2.1,1.3-4.5,2.1-7.1,2.4L27.3,246.6z M240.7,55.2H146l46.4,48.8l135.3-48.8h-68.4c-2.6,2.6-5.7,3.9-9.3,3.9
	S243.3,57.8,240.7,55.2L240.7,55.2z M412.4,351.1c0.2-1,0.6-1.9,1.2-2.7l-15.6-16.6l-4.2,19.3H412.4L412.4,351.1z M386.5,351.1
	l5.4-25.6l-61.5-64.9l-72.3,75l15.4,15.6H386.5L386.5,351.1z M365,440.9l3.9-6.8l15.9-75.7H280.5l81.3,83.7
	C363.1,441.5,364.2,441.1,365,440.9L365,440.9z M141.1,444.8h1.2l83.5-86.4h-91.1v81.8l1,1.5C138,442.5,139.8,443.5,141.1,444.8
	L141.1,444.8z M134.8,351.1h98.1l15.6-16.1l-75.4-78.4l-38.3,40.5V351.1L134.8,351.1z M87.6,351.1h39.8v-46.1l-41,43.2
	C87.1,349.4,87.5,350.4,87.6,351.1L87.6,351.1z M87.4,149.7c0,0.2,0,0.3,0.1,0.5s0.1,0.3,0.1,0.5c0,2.6-0.7,5-2,7.1l41.7,43.2v-65.7
	L87.4,149.7z M134.8,132.6v75.9l37.4,38.3l72.5-76.7l-54.4-57.6L134.8,132.6z M135.7,58.3l-1,2v64.5l50-18.1l-46.6-49.1
	C137.2,57.9,136.4,58.2,135.7,58.3L135.7,58.3z M353.3,55.2h-3.9l-151.6,54.7l52,54.9L353.3,55.2z M249.8,175.3l-72.5,76.9
	l75.9,77.9l72.3-75L249.8,175.3z M168,251.5L134.8,217v69.3L168,251.5z M253.4,340.3l-10.3,10.7h20.8L253.4,340.3z M335.4,255.4
	l58.1,61.3l32.2-152.3l-0.7-1.2l-0.2-0.2L335.4,255.4z M419.4,157.7c-1.3-2.1-2-4.5-2-7.1v-0.5l-52.7-91.8c-0.8-0.2-1.9-0.6-3.2-1.2
	l-106.7,113l75.7,79.8L419.4,157.7z M127.4,127.4V73l-39.8,68.8L127.4,127.4z M127.4,358.4H87.6l39.8,69.1V358.4L127.4,358.4z
	 M392.3,358.4l-11.7,55.4l31.7-55.4H392.3L392.3,358.4z M422.1,341.3l50.5-88.1c-0.3-1.6-0.5-2.8-0.5-3.4c0-0.2,0.2-1.5,0.7-3.9
	l-41.7-72.3L399.7,323l18.8,20C419.3,342.5,420.5,342,422.1,341.3L422.1,341.3z"/>
</svg>
