<?xml version="1.0" encoding="utf-8"?>
<!-- Generator: Adobe Illustrator 18.0.0, SVG Export Plug-In . SVG Version: 6.00 Build 0)  -->
<!DOCTYPE svg PUBLIC "-//W3C//DTD SVG 1.1//EN" "http://www.w3.org/Graphics/SVG/1.1/DTD/svg11.dtd">
<svg version="1.1" id="图层_1" xmlns="http://www.w3.org/2000/svg" xmlns:xlink="http://www.w3.org/1999/xlink" x="0px" y="0px"
	 viewBox="0 0 500 500" enable-background="new 0 0 500 500" xml:space="preserve">
<path fill="#999999" d="M60.3,326.2l168.2,112.2V338.2l-93.2-62.2L60.3,326.2z M43,286l53.9-36L43,214V286L43,286z M271.5,438.3
	l168.2-112.2l-75.1-50.2l-93.2,62.2V438.3L271.5,438.3z M250,300.8l75.9-50.8L250,199.2L174.1,250L250,300.8z M135.3,224.1
	l93.2-62.2V61.7L60.3,173.8L135.3,224.1z M403.2,250l53.9,36v-72L403.2,250z M364.7,224.1l75.1-50.2L271.5,61.7v100.2L364.7,224.1z
	 M500,173.8v152.3c0,7.6-3.2,13.6-9.5,17.9L262,496.4c-3.9,2.4-7.9,3.6-12,3.6s-8.1-1.2-12-3.6L9.5,344C3.2,339.8,0,333.8,0,326.2
	V173.8c0-7.6,3.2-13.6,9.5-17.9L238,3.6c3.9-2.4,7.9-3.6,12-3.6s8.1,1.2,12,3.6L490.5,156C496.8,160.2,500,166.2,500,173.8
	L500,173.8z"/>
</svg>
