<?xml version="1.0" encoding="utf-8"?>
<!-- Generator: Adobe Illustrator 18.0.0, SVG Export Plug-In . SVG Version: 6.00 Build 0)  -->
<!DOCTYPE svg PUBLIC "-//W3C//DTD SVG 1.1//EN" "http://www.w3.org/Graphics/SVG/1.1/DTD/svg11.dtd">
<svg version="1.1" id="图层_1" xmlns="http://www.w3.org/2000/svg" xmlns:xlink="http://www.w3.org/1999/xlink" x="0px" y="0px"
	 viewBox="0 0 500 500" enable-background="new 0 0 500 500" xml:space="preserve">
<path fill="#999999" d="M136.3,431.8c0,18.9-6.6,35-19.9,48.3C103.2,493.4,87.1,500,68.1,500c-18.9,0-35-6.6-48.3-19.9
	C6.6,466.9,0,450.8,0,431.8c0-18.9,6.6-35,19.9-48.3c13.3-13.3,29.4-19.9,48.3-19.9c18.9,0,35,6.6,48.3,19.9
	C129.7,396.8,136.3,412.9,136.3,431.8L136.3,431.8z M318.1,475.5c0.5,6.6-1.5,12.3-6,17c-4.3,5-9.8,7.5-16.7,7.5h-47.9
	c-5.9,0-11-2-15.3-5.9c-4.3-3.9-6.6-8.8-7.1-14.7c-5.2-54.2-27-100.6-65.5-139c-38.5-38.5-84.8-60.3-139-65.5
	c-5.9-0.5-10.8-2.8-14.7-7.1c-3.9-4.3-5.9-9.4-5.9-15.3v-47.9c0-6.9,2.5-12.4,7.5-16.7c4-4,9.1-6,15.3-6h1.8
	c37.9,3.1,74.1,12.6,108.7,28.6s65.2,37.5,92,64.5c27,26.8,48.5,57.4,64.5,92S315.1,437.6,318.1,475.5L318.1,475.5z M500,476.2
	c0.5,6.4-1.7,12-6.4,16.7c-4.3,4.7-9.7,7.1-16.3,7.1h-50.8c-6.2,0-11.4-2.1-15.8-6.2c-4.4-4.1-6.7-9.2-6.9-15.1
	c-2.8-50.9-14.8-99.3-35.9-145.1c-21.1-45.8-48.5-85.6-82.2-119.3c-33.7-33.7-73.5-61.1-119.3-82.2S72.2,99,21.3,95.9
	c-5.9-0.2-10.9-2.5-15.1-6.9C2,84.6,0,79.4,0,73.5V22.7c0-6.6,2.4-12.1,7.1-16.3C11.3,2.1,16.5,0,22.7,0h1.1
	c62,3.1,121.4,17.3,178.1,42.6S308.9,102.7,353,147c44.3,44,79.1,94.4,104.4,151.1C482.7,354.8,496.9,414.2,500,476.2L500,476.2z"/>
</svg>
