<?xml version="1.0" encoding="utf-8"?>
<!-- Generator: Adobe Illustrator 18.0.0, SVG Export Plug-In . SVG Version: 6.00 Build 0)  -->
<!DOCTYPE svg PUBLIC "-//W3C//DTD SVG 1.1//EN" "http://www.w3.org/Graphics/SVG/1.1/DTD/svg11.dtd">
<svg version="1.1" id="图层_1" xmlns="http://www.w3.org/2000/svg" xmlns:xlink="http://www.w3.org/1999/xlink" x="0px" y="0px"
	 viewBox="0 0 500 500" enable-background="new 0 0 500 500" xml:space="preserve">
<path fill="#999999" d="M456.4,233.2c12.4,0,22.8,4.1,31.1,12.2s12.5,18.3,12.5,30.5c0,19.4-9.3,32.5-27.9,39.1l-51.7,17.7
	l16.8,50.2c1.4,4.2,2.1,8.9,2.1,14.1c0,11.8-4.2,22-12.6,30.6c-8.4,8.6-18.5,12.9-30.3,12.9c-9.4,0-18-2.7-25.7-8.1
	c-7.7-5.4-13.1-12.6-16.1-21.6L338,361.2L244.9,393l16.5,49.3c1.6,4.8,2.4,9.5,2.4,14.1c0,11.8-4.2,22-12.6,30.6
	c-8.4,8.6-18.6,12.9-30.6,12.9c-9.4,0-17.9-2.7-25.5-8.1c-7.6-5.4-12.9-12.6-15.9-21.6l-16.5-49l-46,15.9c-5.8,1.8-10.8,2.7-15,2.7
	c-12.2,0-22.4-4-30.5-12s-12.2-18.1-12.2-30.3c0-9.4,2.8-17.9,8.3-25.5c5.5-7.6,12.7-12.9,21.5-15.9l46.9-15.9L104,246.1l-46.9,16.2
	c-5.2,1.6-10,2.4-14.4,2.4c-12,0-22.1-4.1-30.3-12.2C4.1,244.4,0,234.4,0,222.4c0-9.4,2.8-17.9,8.3-25.5
	c5.5-7.6,12.7-12.9,21.5-15.9L76.9,165L61,117.2c-1.6-4.8-2.4-9.5-2.4-14.1c0-12,4.2-22.3,12.6-30.8s18.6-12.8,30.6-12.8
	c9.4,0,17.9,2.7,25.5,8.1c7.6,5.4,12.9,12.6,15.9,21.6l16.2,48.1l93.1-31.6l-16.2-48.1c-1.6-4.8-2.4-9.5-2.4-14.1
	c0-11.8,4.3-22,12.8-30.6C255.4,4.3,265.5,0,277.3,0c9.4,0,18,2.8,25.7,8.3c7.7,5.5,13.1,12.7,16.1,21.5L335,78.1l48.7-16.5
	c4.2-1.2,8.5-1.8,12.9-1.8c12,0,22.3,4,30.8,11.9c8.5,7.9,12.8,17.8,12.8,29.6c0,9-3,17.2-9,24.5c-6,7.3-13.4,12.5-22.2,15.5
	l-47.2,16.2l31.6,95l49.3-16.8C447.4,234,452,233.2,456.4,233.2L456.4,233.2z M217.8,311.9l93.1-31.6l-31.6-94.7l-93.1,32.2
	L217.8,311.9z"/>
</svg>
