<?xml version="1.0" encoding="utf-8"?>
<!-- Generator: Adobe Illustrator 18.0.0, SVG Export Plug-In . SVG Version: 6.00 Build 0)  -->
<!DOCTYPE svg PUBLIC "-//W3C//DTD SVG 1.1//EN" "http://www.w3.org/Graphics/SVG/1.1/DTD/svg11.dtd">
<svg version="1.1" id="图层_1" xmlns="http://www.w3.org/2000/svg" xmlns:xlink="http://www.w3.org/1999/xlink" x="0px" y="0px"
	 viewBox="0 0 500 500" enable-background="new 0 0 500 500" xml:space="preserve">
<path fill="#999999" d="M412.6,223.5c24.1,0,44.7,8,61.8,24s25.6,35.9,25.6,59.7c0,25.6-8.9,46.8-26.6,63.8s-39.5,25.5-65.2,25.5
	c-13.8,0-27-2.2-39.6-6.7s-23.8-10.5-33.7-17.9s-19.5-16.1-28.8-25.9S288,326,279.5,315.2s-16.9-21.6-25.3-32.3
	c-8.4-10.7-17.2-21-26.5-30.8s-18.8-18.4-28.6-25.9s-20.8-13.5-33.2-17.9s-25.3-6.7-38.8-6.7c-25.1,0-45.5,7.4-61.4,22.3
	S42,258.7,42,283.6c0,25.6,8.5,45.9,25.4,61s38.3,22.7,64.2,22.7c16.3,0,33.2-3.1,50.8-9.2s33.3-14.1,47.1-24
	c0.8-0.7,2.5-2.2,5.1-4.5s5-4.3,7.3-5.9s4.1-2.3,5.4-2.3c2.3,0,4.3,0.9,6,2.6s2.6,3.7,2.6,6c0,3.9-4.9,10.2-14.6,18.8
	c-16.4,14.3-35.5,25.9-57.3,34.7s-42.9,13.2-63.6,13.2c-21.6,0-41.6-4.7-59.9-14.2s-33-22.9-43.9-40.3S0,305.1,0,283.3
	c0-33.4,11.5-61.1,34.5-83.3s51.3-33.2,84.8-33.2c19.5,0,38,3.5,55.3,10.6s32.4,16.3,45.3,27.6s25.2,23.8,37,37.4
	c11.8,13.6,23.1,27.2,33.9,40.9s21.7,26.2,32.6,37.5s23.1,20.5,36.5,27.6s27.5,10.6,42.1,10.6c16.6,0,30.3-5,41.1-15
	s16.2-23.2,16.2-39.7c0-15.5-5.2-28.4-15.7-38.8c-10.5-10.4-23.5-15.6-38.9-15.6c-4.9,0-11.5,1.5-19.9,4.5c-8.4,3-14,4.5-16.7,4.5
	c-3.3,0-6.1-1.2-8.7-3.7s-3.8-5.3-3.8-8.5c0-2.9,0.7-7.6,2.1-13.9s2.1-11.1,2.1-14.4c0-25.9-8.7-47.3-26.2-64.2
	s-39.2-25.4-65.1-25.4c-9.4,0-18.5,1.5-27.2,4.5s-15.5,6.3-20.5,9.9s-9.5,6.9-13.5,9.9s-6.8,4.5-8.1,4.5c-2.4,0-4.5-0.9-6.2-2.6
	s-2.6-3.8-2.6-6.2c0-3.1,2-6.8,6.1-11.2c9.6-10.9,21.6-19.3,35.9-25.3s29.1-8.9,44.4-8.9c31.1,0,57,10.2,77.6,30.6s31,46.1,31,77
	c0,6-0.3,11.4-1,16.1C393.8,224.7,403.2,223.5,412.6,223.5L412.6,223.5z"/>
</svg>
