<?xml version="1.0" encoding="utf-8"?>
<!-- Generator: Adobe Illustrator 18.0.0, SVG Export Plug-In . SVG Version: 6.00 Build 0)  -->
<!DOCTYPE svg PUBLIC "-//W3C//DTD SVG 1.1//EN" "http://www.w3.org/Graphics/SVG/1.1/DTD/svg11.dtd">
<svg version="1.1" id="图层_1" xmlns="http://www.w3.org/2000/svg" xmlns:xlink="http://www.w3.org/1999/xlink" x="0px" y="0px"
	 viewBox="0 0 500 500" enable-background="new 0 0 500 500" xml:space="preserve">
<path fill="#999999" d="M352.5,402.3c0-5-0.7-9.9-2.1-14.7c-1.4-4.8-2.9-9-4.4-12.6c-1.5-3.6-4.2-7.8-8.1-12.5
	c-3.9-4.7-6.9-8.2-8.9-10.5c-2-2.3-5.9-5.8-11.6-10.4c-5.7-4.6-9.4-7.5-11-8.7c-1.6-1.2-5.8-4.2-12.5-9c-6.7-4.8-10.4-7.4-11-7.8
	c-3.2-0.4-8.1-0.6-14.7-0.6c-10.6,0-21.1,0.7-31.4,2.1c-10.3,1.4-21,3.9-32.2,7.5c-11.1,3.6-20.8,8.2-29.1,13.8
	c-8.3,5.6-15.2,13.1-20.6,22.4s-8.1,19.9-8.1,31.7c0,11.2,2.4,21.4,7.1,30.6c4.7,9.2,10.8,16.8,18.3,22.7c7.5,5.9,16.2,10.9,26.1,15
	c9.9,4.1,19.9,7,30,8.7c10.1,1.7,20.3,2.6,30.5,2.6c11.6,0,22.8-1.3,33.5-3.9c10.7-2.6,20.6-6.5,29.7-11.7s16.4-12.5,21.9-21.9
	C349.7,425.7,352.5,414.8,352.5,402.3L352.5,402.3z M317.3,144.5c0-11.8-1.7-24.4-5.1-37.7s-8.2-26.2-14.4-38.8
	c-6.2-12.5-14.6-22.9-25.2-31.1c-10.6-8.2-22.3-12.3-35.2-12.3c-8.4,0-16.7,2-24.8,5.9c-8.1,3.9-14.8,9.2-20,15.8
	c-9.2,11.8-13.8,27.8-13.8,48.1c0,9.2,1,19,3,29.3c2,10.3,5.2,20.6,9.5,30.9c4.3,10.3,9.5,19.6,15.6,27.8
	c6.1,8.2,13.6,14.9,22.5,20.1c8.9,5.2,18.6,7.8,29,7.8c7.4,0,15.2-1.7,23.3-5c8.1-3.3,14.7-7.7,19.7-13.1
	C312,181.1,317.3,165.2,317.3,144.5L317.3,144.5z M283.7,0H409l-41.2,26.4h-39.7c15,12.6,26.3,25.9,34,40c7.6,14,11.4,30,11.4,48.1
	c0,14.4-2.5,27.4-7.4,38.9c-4.9,11.5-10.9,20.8-17.9,27.9c-7,7.1-14,13.6-20.9,19.5c-6.9,5.9-12.8,12.1-17.7,18.5s-7.4,13-7.4,19.8
	c0,7.2,3.2,14.3,9.6,21.2c6.4,6.9,14.1,13.7,23.1,20.4c9,6.7,18.1,14.1,27.2,22.1c9.1,8,16.9,18.4,23.3,31.3
	c6.4,12.8,9.6,27,9.6,42.7c0,18.2-4.9,35.6-14.7,52c-14.2,24.4-35.2,42.4-63,53.9c-27.7,11.5-57.6,17.3-89.7,17.3
	c-26.4,0-51.1-4.2-74.1-12.5c-22.9-8.3-40.2-22.1-51.8-41.3C94.7,434.4,91,421.3,91,406.9c0-16.2,4.5-31.3,13.4-45.1
	c8.9-13.8,20.8-25.3,35.6-34.6c26.2-16.4,66.7-26.4,121.4-30c-6.4-8.2-11.2-15.6-14.3-22.1c-3.1-6.5-4.7-13.9-4.7-22.1
	c0-8,2.1-16.5,6.3-25.5c-9.2,0.8-16,1.2-20.4,1.2c-29.6,0-54.6-9.7-75-29s-30.5-43.8-30.5-73.5c0-16.4,3.6-32.4,10.8-47.8
	c7.2-15.4,17.1-28.5,29.7-39.4c15.2-13.2,33.5-23,54.7-29.4C239.4,3.2,261.2,0,283.7,0L283.7,0z"/>
</svg>
