<?xml version="1.0" encoding="utf-8"?>
<!-- Generator: Adobe Illustrator 18.0.0, SVG Export Plug-In . SVG Version: 6.00 Build 0)  -->
<!DOCTYPE svg PUBLIC "-//W3C//DTD SVG 1.1//EN" "http://www.w3.org/Graphics/SVG/1.1/DTD/svg11.dtd">
<svg version="1.1" id="图层_1" xmlns="http://www.w3.org/2000/svg" xmlns:xlink="http://www.w3.org/1999/xlink" x="0px" y="0px"
	 viewBox="0 0 500 500" enable-background="new 0 0 500 500" xml:space="preserve">
<path fill="#999999" d="M312.8,390.9V433l-197.3,0.3v-42.1L312.8,390.9z M380,294.4V490l-0.3,9.8v0.3H63.9l-9.8-0.3h-0.3V294.4h33.8
	v172.4h258.9V294.4H380L380,294.4z M121.1,318.9l196.4,18.1l-3.6,41.9l-196.7-18.1L121.1,318.9z M140.1,230.7l190.6,51.1l-10.9,40.7
	l-190.6-51.1L140.1,230.7z M185.5,133.4l169.9,100.4L334,270.1L164.1,169.6L185.5,133.4z M286,41l111,163.2L362.4,228L251.1,65
	L286,41z M412.4,0l33.8,194.5l-41.6,7.3L370.8,7.3L412.4,0z"/>
</svg>
