<?xml version="1.0" encoding="utf-8"?>
<!-- Generator: Adobe Illustrator 18.0.0, SVG Export Plug-In . SVG Version: 6.00 Build 0)  -->
<!DOCTYPE svg PUBLIC "-//W3C//DTD SVG 1.1//EN" "http://www.w3.org/Graphics/SVG/1.1/DTD/svg11.dtd">
<svg version="1.1" id="图层_1" xmlns="http://www.w3.org/2000/svg" xmlns:xlink="http://www.w3.org/1999/xlink" x="0px" y="0px"
	 viewBox="0 0 500 500" enable-background="new 0 0 500 500" xml:space="preserve">
<path fill="#999999" d="M303,17.9v428.6l-75.9,35.7c-42.4-3.7-80.9-13.2-115.5-28.5S49.8,419,29.9,395.5S0,346.6,0,319.5
	c0-26,9.3-50.5,28-73.5s44.3-42.1,76.7-57.3c32.5-15.3,68.9-25.3,109.2-30.1v48c-40.4,7.1-73.5,21-99.5,41.9s-38.9,44.5-38.9,71.1
	c0,28.3,14.4,53.1,43.1,74.5s64.9,34.9,108.4,40.5V55L303,17.9z M489.7,180.2L500,289.1l-146.5-31.8l41-23.2
	c-22.1-13-48.2-22.2-78.1-27.6v-48c51.5,6.1,96.3,20.7,134.2,43.8L489.7,180.2z"/>
</svg>
