<?xml version="1.0" encoding="utf-8"?>
<!-- Generator: Adobe Illustrator 18.0.0, SVG Export Plug-In . SVG Version: 6.00 Build 0)  -->
<!DOCTYPE svg PUBLIC "-//W3C//DTD SVG 1.1//EN" "http://www.w3.org/Graphics/SVG/1.1/DTD/svg11.dtd">
<svg version="1.1" id="图层_1" xmlns="http://www.w3.org/2000/svg" xmlns:xlink="http://www.w3.org/1999/xlink" x="0px" y="0px"
	 viewBox="0 0 500 500" enable-background="new 0 0 500 500" xml:space="preserve">
<path fill="#999999" d="M500,250c0,45.4-11.2,87.2-33.5,125.5s-52.7,68.6-91,91S295.4,500,250,500c-24.1,0-47.7-3.5-71-10.4
	c12.8-20.2,21.3-38,25.4-53.4c2-7.4,7.8-30.3,17.6-68.7c4.3,8.5,12.3,15.8,23.8,22c11.5,6.2,23.9,9.3,37.1,9.3
	c26.3,0,49.7-7.4,70.3-22.3s36.6-35.3,47.9-61.4c11.3-26,16.9-55.3,16.9-87.9c0-24.7-6.5-48-19.4-69.7
	c-12.9-21.7-31.6-39.4-56.2-53.1S290.3,84,259.4,84c-22.8,0-44.1,3.1-63.8,9.4c-19.7,6.3-36.5,14.6-50.3,25.1
	c-13.8,10.4-25.6,22.4-35.5,36c-9.9,13.6-17.1,27.6-21.8,42.2c-4.7,14.5-7,29.1-7,43.6c0,22.6,4.3,42.4,13,59.6
	c8.7,17.1,21.4,29.2,38.1,36.1c6.5,2.6,10.6,0.4,12.4-6.5c0.4-1.5,1.3-4.9,2.6-10.1c1.3-5.2,2.2-8.5,2.6-9.8c1.3-5,0.1-9.7-3.6-14
	c-11.1-13.2-16.6-29.6-16.6-49.2c0-32.8,11.3-60.9,34-84.5s52.4-35.3,89-35.3c32.8,0,58.3,8.9,76.7,26.7
	c18.3,17.8,27.5,40.9,27.5,69.3c0,36.9-7.4,68.3-22.3,94.1c-14.9,25.8-33.9,38.7-57.1,38.7c-13.2,0-23.9-4.7-31.9-14.2
	c-8-9.4-10.5-20.8-7.5-34c1.7-7.6,4.6-17.7,8.6-30.4s7.3-23.9,9.8-33.5c2.5-9.7,3.7-17.8,3.7-24.6c0-10.9-2.9-19.9-8.8-27
	c-5.9-7.2-14.2-10.7-25.1-10.7c-13.5,0-24.8,6.2-34.2,18.6c-9.3,12.4-14,27.8-14,46.2c0,15.8,2.7,29.1,8.1,39.7L154,421.5
	c-3.7,15.2-5.1,34.4-4.2,57.6c-44.7-19.7-80.8-50.2-108.4-91.5S0,300.6,0,250c0-45.4,11.2-87.2,33.5-125.5s52.7-68.6,91-91
	S204.6,0,250,0s87.2,11.2,125.5,33.5s68.6,52.7,91,91S500,204.6,500,250L500,250z"/>
</svg>
