<?xml version="1.0" encoding="utf-8"?>
<!-- Generator: Adobe Illustrator 18.0.0, SVG Export Plug-In . SVG Version: 6.00 Build 0)  -->
<!DOCTYPE svg PUBLIC "-//W3C//DTD SVG 1.1//EN" "http://www.w3.org/Graphics/SVG/1.1/DTD/svg11.dtd">
<svg version="1.1" id="图层_1" xmlns="http://www.w3.org/2000/svg" xmlns:xlink="http://www.w3.org/1999/xlink" x="0px" y="0px"
	 viewBox="0 0 500 500" enable-background="new 0 0 500 500" xml:space="preserve">
<path fill="#999999" d="M406.3,0c25.8,0,47.9,9.2,66.2,27.5C490.8,45.8,500,67.9,500,93.8v312.5c0,25.8-9.2,47.9-27.5,66.2
	c-18.3,18.3-40.4,27.5-66.2,27.5h-236c18.4-26.5,30.2-49.3,35.2-68.4c2-7.4,7.7-30.1,17.3-68c4.6,8.5,12.5,15.7,23.9,21.8
	c11.4,6.1,23.6,9.1,36.6,9.1c39.3,0,71.3-16,96.2-48s37.3-72.5,37.3-121.6c0-18.2-3.8-35.9-11.4-52.9s-18.1-32.1-31.4-45.2
	c-13.3-13.1-29.9-23.7-49.6-31.6s-41.1-11.9-64.1-11.9c-22.6,0-43.7,3.1-63.3,9.3c-19.6,6.2-36.2,14.5-49.8,24.9
	c-13.6,10.4-25.2,22.3-35,35.6c-9.8,13.3-17,27.2-21.6,41.7s-7,28.8-7,43.1c0,22.1,4.3,41.7,12.9,58.6c8.6,16.9,21.2,28.9,37.9,35.8
	c2.8,1.1,5.4,1.1,7.6,0c2.3-1.1,3.9-3.1,4.7-6.2c2.2-9.5,3.8-16.2,4.9-19.9c1.3-5,0.1-9.5-3.6-13.7c-10.9-13.5-16.3-29.7-16.3-48.8
	c0-32.6,11.2-60.4,33.7-83.5s51.8-34.7,88.1-34.7c32.3,0,57.6,8.8,75.7,26.4c18.1,17.6,27.2,40.4,27.2,68.4c0,36.5-7.3,67.5-22,93.1
	s-33.5,38.4-56.5,38.4c-13,0-23.5-4.7-31.6-14.2c-8-9.4-10.5-20.7-7.5-33.7c1.7-7.4,4.6-17.4,8.6-30.1c4-12.7,7.2-23.8,9.6-33.2
	c2.4-9.4,3.6-17.5,3.6-24.3c0-10.6-2.9-19.5-8.6-26.5s-13.9-10.6-24.6-10.6c-13.2,0-24.5,6.1-33.7,18.4s-13.8,27.4-13.8,45.4
	c0,15.6,2.6,28.8,7.8,39.4l-31.9,134.8c-5.2,21.7-6,49.3-2.3,82.7H93.8c-25.8,0-47.9-9.2-66.2-27.5C9.2,454.2,0,432.1,0,406.3V93.8
	c0-25.8,9.2-47.9,27.5-66.2S67.9,0,93.8,0H406.3L406.3,0z"/>
</svg>
