<?xml version="1.0" encoding="utf-8"?>
<!-- Generator: Adobe Illustrator 18.0.0, SVG Export Plug-In . SVG Version: 6.00 Build 0)  -->
<!DOCTYPE svg PUBLIC "-//W3C//DTD SVG 1.1//EN" "http://www.w3.org/Graphics/SVG/1.1/DTD/svg11.dtd">
<svg version="1.1" id="图层_1" xmlns="http://www.w3.org/2000/svg" xmlns:xlink="http://www.w3.org/1999/xlink" x="0px" y="0px"
	 viewBox="0 0 500 500" enable-background="new 0 0 500 500" xml:space="preserve">
<path fill="#999999" d="M57.7,179.4c0-21.6,3.8-42,11.3-61.1c7.5-19.1,17.9-35.8,31.1-50s28.4-26.5,45.7-37S181.5,13,201.3,7.8
	S241.4,0,262,0c31.7,0,61.1,6.7,88.3,20c27.2,13.3,49.4,32.7,66.4,58.1c17,25.4,25.5,54.2,25.5,86.2c0,19.2-1.9,38.1-5.7,56.5
	c-3.8,18.4-9.8,36.2-18,53.2c-8.2,17-18.2,32-30,44.9c-11.8,12.9-26.3,23.2-43.6,30.9c-17.2,7.7-36.2,11.6-56.8,11.6
	c-13.6,0-27.1-3.2-40.6-9.6c-13.4-6.4-23-15.2-28.8-26.4c-2,7.8-4.8,19.1-8.4,33.8c-3.6,14.7-6,24.2-7.1,28.5
	c-1.1,4.3-3.2,11.4-6.2,21.3c-3,9.9-5.6,17-7.8,21.3c-2.2,4.3-5.4,10.6-9.6,18.8s-8.8,16-13.8,23.3s-11.2,16-18.6,26L143,500l-2.7-3
	c-3-31.5-4.5-50.3-4.5-56.5c0-18.4,2.2-39.1,6.5-62c4.3-22.9,11-51.7,20-86.4c9-34.7,14.2-55,15.6-61c-6.4-13-9.6-29.9-9.6-50.8
	c0-16.6,5.2-32.3,15.6-46.9c10.4-14.6,23.6-21.9,39.7-21.9c12.2,0,21.7,4.1,28.5,12.2c6.8,8.1,10.2,18.4,10.2,30.8
	c0,13.2-4.4,32.4-13.2,57.4c-8.8,25-13.2,43.8-13.2,56.2c0,12.6,4.5,23.1,13.5,31.4c9,8.3,19.9,12.5,32.8,12.5
	c11,0,21.2-2.5,30.6-7.5c9.4-5,17.3-11.8,23.6-20.4c6.3-8.6,11.9-18.1,16.8-28.5c4.9-10.4,8.7-21.5,11.4-33.2
	c2.7-11.7,4.7-22.8,6-33.4c1.3-10.5,2-20.5,2-29.9c0-34.7-11-61.6-32.9-81c-21.9-19.3-50.5-29-85.8-29c-40.1,0-73.5,13-100.4,38.9
	s-40.3,58.8-40.3,98.7c0,8.8,1.3,17.3,3.8,25.5c2.5,8.2,5.2,14.7,8.1,19.5c2.9,4.8,5.6,9.4,8.1,13.7c2.5,4.3,3.8,7.4,3.8,9.2
	c0,5.6-1.5,12.9-4.5,21.9c-3,9-6.7,13.5-11.1,13.5c-0.4,0-2.1-0.3-5.1-0.9c-10.2-3-19.3-8.6-27.2-16.8c-7.9-8.2-14-17.7-18.3-28.4
	c-4.3-10.7-7.6-21.5-9.8-32.5C58.8,200.5,57.7,189.8,57.7,179.4L57.7,179.4z"/>
</svg>
