<?xml version="1.0" encoding="utf-8"?>
<!-- Generator: Adobe Illustrator 18.0.0, SVG Export Plug-In . SVG Version: 6.00 Build 0)  -->
<!DOCTYPE svg PUBLIC "-//W3C//DTD SVG 1.1//EN" "http://www.w3.org/Graphics/SVG/1.1/DTD/svg11.dtd">
<svg version="1.1" id="图层_1" xmlns="http://www.w3.org/2000/svg" xmlns:xlink="http://www.w3.org/1999/xlink" x="0px" y="0px"
	 viewBox="0 0 500 500" enable-background="new 0 0 500 500" xml:space="preserve">
<path fill="#999999" d="M223,207.4c0-0.2-13.7-24.3-41-72.3c-4.6-7.4-10.2-11.1-16.9-11.1h-59.9c-3.9,0-6.7,1.2-8.5,3.6
	c-1.5,2.6-1.4,5.8,0.3,9.4l40.7,70.3v0.3L73.9,320.3c-2,3-2,6.1,0,9.1c1.7,2.8,4.3,4.2,7.8,4.2h60.2c6.7,0,12.2-3.9,16.3-11.7
	L223,207.4z M426.1,45.6c-1.5-2.6-4.1-3.9-7.8-3.9h-60.9c-6.5,0-11.8,3.8-16,11.4L207.7,290.4c0.2,0.4,28.6,52.6,85.3,156.6
	c4.3,7.6,10,11.4,16.9,11.4h59.9c3.9,0,6.6-1.3,8.1-3.9c1.7-2.8,1.6-5.9-0.3-9.1L293,290.4V290L426.1,54.7
	C427.8,51.2,427.8,48.2,426.1,45.6L426.1,45.6z M500,93.8v312.5c0,25.8-9.2,47.9-27.5,66.2c-18.3,18.3-40.4,27.5-66.2,27.5H93.8
	c-25.8,0-47.9-9.2-66.2-27.5C9.2,454.2,0,432.1,0,406.3V93.8c0-25.8,9.2-47.9,27.5-66.2S67.9,0,93.8,0h312.5
	c25.8,0,47.9,9.2,66.2,27.5C490.8,45.8,500,67.9,500,93.8L500,93.8z"/>
</svg>
