<?xml version="1.0" encoding="utf-8"?>
<!-- Generator: Adobe Illustrator 18.0.0, SVG Export Plug-In . SVG Version: 6.00 Build 0)  -->
<!DOCTYPE svg PUBLIC "-//W3C//DTD SVG 1.1//EN" "http://www.w3.org/Graphics/SVG/1.1/DTD/svg11.dtd">
<svg version="1.1" id="图层_1" xmlns="http://www.w3.org/2000/svg" xmlns:xlink="http://www.w3.org/1999/xlink" x="0px" y="0px"
	 viewBox="0 0 500 500" enable-background="new 0 0 500 500" xml:space="preserve">
<path fill="#999999" d="M320.1,275.2c2.8,0,13.3,4.7,31.5,14.2c18.2,9.5,27.8,15.2,28.9,17.1c0.4,1.1,0.6,2.7,0.6,4.8
	c0,7.1-1.8,15.3-5.5,24.5c-3.4,8.4-11.1,15.5-22.9,21.2c-11.8,5.7-22.8,8.6-32.9,8.6c-12.3,0-32.7-6.7-61.4-20
	c-21.1-9.7-39.4-22.4-54.9-38.1c-15.5-15.7-31.4-35.6-47.8-59.8c-15.5-23-23.1-43.9-22.9-62.7v-2.6c0.6-19.6,8.6-36.6,23.9-51
	c5.2-4.7,10.8-7.1,16.8-7.1c1.3,0,3.2,0.2,5.8,0.5c2.6,0.3,4.6,0.5,6.1,0.5c4.1,0,6.9,0.7,8.6,2.1c1.6,1.4,3.3,4.4,5,8.9
	c1.7,4.3,5.3,13.8,10.7,28.4c5.4,14.6,8.1,22.7,8.1,24.2c0,4.5-3.7,10.7-11.1,18.6c-7.4,7.9-11.1,12.9-11.1,15
	c0,1.5,0.5,3.1,1.6,4.8c7.3,15.7,18.3,30.5,32.9,44.3c12.1,11.4,28.3,22.3,48.8,32.6c2.6,1.5,5,2.3,7.1,2.3c3.2,0,9-5.2,17.4-15.7
	C311.7,280.4,317.3,275.2,320.1,275.2L320.1,275.2z M254.5,446.4c27.3,0,53.6-5.4,78.6-16.1c25.1-10.8,46.7-25.2,64.8-43.3
	s32.5-39.7,43.3-64.8c10.8-25.1,16.1-51.3,16.1-78.6s-5.4-53.6-16.1-78.6c-10.8-25.1-25.2-46.7-43.3-64.8s-39.7-32.5-64.8-43.3
	c-25.1-10.8-51.3-16.1-78.6-16.1s-53.6,5.4-78.6,16.1c-25.1,10.8-46.7,25.2-64.8,43.3s-32.5,39.7-43.3,64.8s-16.1,51.3-16.1,78.6
	c0,43.7,12.9,83.3,38.8,118.9l-25.5,75.3l78.2-24.9C177.1,435.2,214.3,446.4,254.5,446.4L254.5,446.4z M254.5,0
	C287.5,0,319,6.5,349,19.4s55.9,30.3,77.7,52c21.7,21.7,39.1,47.6,52,77.7c12.9,30,19.4,61.5,19.4,94.5s-6.5,64.4-19.4,94.5
	c-12.9,30-30.3,55.9-52,77.7c-21.7,21.7-47.6,39.1-77.7,52c-30,12.9-61.5,19.4-94.5,19.4c-42,0-81.3-10.1-117.9-30.4L1.9,500
	l43.9-130.8C22.6,330.9,11,289,11,243.5c0-32.9,6.5-64.4,19.4-94.5s30.3-55.9,52-77.7c21.7-21.7,47.6-39.1,77.7-52
	C190.1,6.5,221.6,0,254.5,0L254.5,0z"/>
</svg>
