<?xml version="1.0" encoding="utf-8"?>
<!-- Generator: Adobe Illustrator 18.0.0, SVG Export Plug-In . SVG Version: 6.00 Build 0)  -->
<!DOCTYPE svg PUBLIC "-//W3C//DTD SVG 1.1//EN" "http://www.w3.org/Graphics/SVG/1.1/DTD/svg11.dtd">
<svg version="1.1" id="图层_1" xmlns="http://www.w3.org/2000/svg" xmlns:xlink="http://www.w3.org/1999/xlink" x="0px" y="0px"
	 viewBox="0 0 500 500" enable-background="new 0 0 500 500" xml:space="preserve">
<path fill="#999999" d="M217.6,198.6c-2,3.6-27.9,49.6-77.7,137.8c-5.4,9.3-12,13.9-19.6,13.9H48c-4.2,0-7.4-1.7-9.4-5.1
	s-2-7.1,0-10.9l76.5-135.4c0.2,0,0.2-0.1,0-0.3l-48.7-84.3c-2.4-4.4-2.5-8.2-0.3-11.2c1.8-3,5-4.5,9.7-4.5h72.2
	c8.1,0,14.7,4.5,20,13.6L217.6,198.6z M461.2,4.5c2.2,3.2,2.2,7,0,11.2L301.6,298.1v0.3l101.6,185.9c2.2,4,2.3,7.8,0.3,11.2
	c-2,3-5.2,4.5-9.7,4.5h-72.2c-8.5,0-15.1-4.5-20-13.6l-102.5-188c3.6-6.4,57.1-101.4,160.5-284.8C364.7,4.5,371.1,0,379,0h72.9
	C456.3,0,459.4,1.5,461.2,4.5L461.2,4.5z"/>
</svg>
