<?xml version="1.0" encoding="utf-8"?>
<!-- Generator: Adobe Illustrator 18.0.0, SVG Export Plug-In . SVG Version: 6.00 Build 0)  -->
<!DOCTYPE svg PUBLIC "-//W3C//DTD SVG 1.1//EN" "http://www.w3.org/Graphics/SVG/1.1/DTD/svg11.dtd">
<svg version="1.1" id="图层_1" xmlns="http://www.w3.org/2000/svg" xmlns:xlink="http://www.w3.org/1999/xlink" x="0px" y="0px"
	 viewBox="0 0 500 500" enable-background="new 0 0 500 500" xml:space="preserve">
<path fill="#999999" d="M309.2,330.4c1.5-1.5,3.4-2.3,5.7-2.3s4.2,0.8,5.7,2.3c1.5,1.5,2.3,3.5,2.3,5.9c0,2.4-0.8,4.3-2.3,5.9
	C306.5,356,284,363,252.9,363h-0.7c-31,0-53.5-6.9-67.4-20.8c-1.7-1.5-2.6-3.5-2.6-5.9c0-2.4,0.9-4.3,2.6-5.9
	c1.5-1.5,3.4-2.3,5.7-2.3c2.3,0,4.2,0.8,5.7,2.3c10.6,11.1,29.3,16.6,56,16.6h0.7C279.4,347,298.2,341.5,309.2,330.4L309.2,330.4z
	 M218.4,258.8c0,8-2.8,15-8.5,20.8s-12.5,8.8-20.5,8.8s-14.9-2.9-20.5-8.8s-8.5-12.8-8.5-20.8c0-8,2.8-14.9,8.5-20.5
	s12.5-8.5,20.5-8.5s14.9,2.8,20.5,8.5S218.4,250.8,218.4,258.8L218.4,258.8z M395.2,116.9c-6.3,0-11.7-2.3-16.3-6.8
	c-4.6-4.6-6.8-10-6.8-16.3c0-6.5,2.3-12,6.8-16.6c4.6-4.6,10-6.8,16.3-6.8c6.5,0,12,2.3,16.6,6.8c4.6,4.6,6.8,10.1,6.8,16.6
	c0,6.3-2.3,11.7-6.8,16.3C407.2,114.6,401.7,116.9,395.2,116.9L395.2,116.9z M395.8,0c28.6,0,53.2,10.2,73.6,30.6s30.6,45,30.6,73.9
	v291c0,28.9-10.2,53.5-30.6,73.9S424.5,500,395.8,500H104.2c-28.6,0-53.2-10.2-73.6-30.6S0,424.4,0,395.5v-291
	C0,75.6,10.2,51,30.6,30.6S75.5,0,104.2,0H395.8L395.8,0z M430,264.3c7.6-3,13.8-8,18.6-14.8s7.2-14.5,7.2-22.9
	c0-11.1-3.9-20.6-11.7-28.5c-7.8-7.9-17.3-11.9-28.3-11.9c-13,0-23.7,5.2-31.9,15.6c-32.8-23.2-73.5-35.7-122.1-37.4l27-86.3
	l67.1,16c0.2,10.9,4.2,20.1,11.9,27.7c7.7,7.6,16.9,11.4,27.5,11.4c10.9,0,20.2-3.9,28-11.6s11.7-17,11.7-27.8s-3.9-20.2-11.7-28
	S406,54,395.2,54c-7.8,0-15,2.2-21.5,6.7c-6.5,4.4-11.4,10.3-14.6,17.4l-73.9-17.6c-2-0.4-3.9-0.2-5.7,0.8s-3.1,2.5-3.7,4.7
	l-30.9,98.3c-48.6,0.9-90,13.1-124,36.8c-7.8-9.3-17.9-14-30.3-14c-11.1,0-20.5,4-28.3,11.9c-7.8,7.9-11.7,17.4-11.7,28.5
	c0,8,2.1,15.4,6.3,22c4.2,6.6,9.9,11.6,17.1,14.8c-1.5,5.4-2.3,11.3-2.3,17.6c0,21.3,8,41,24.1,59.1c16.1,18.1,37.9,32.4,65.6,43
	c27.7,10.5,57.9,15.8,90.7,15.8c32.6,0,62.7-5.3,90.3-15.8c27.7-10.5,49.5-24.8,65.6-43c16.1-18.1,24.1-37.8,24.1-59.1
	C432,276,431.3,270.2,430,264.3L430,264.3z M316.1,229.8c8,0,14.9,2.8,20.5,8.5c5.6,5.6,8.5,12.5,8.5,20.5c0,8-2.8,15-8.5,20.8
	c-5.6,5.9-12.5,8.8-20.5,8.8c-8,0-14.9-2.9-20.5-8.8c-5.6-5.9-8.5-12.8-8.5-20.8c0-8,2.8-14.9,8.5-20.5
	C301.2,232.6,308.1,229.8,316.1,229.8L316.1,229.8z"/>
</svg>
