<?xml version="1.0" encoding="utf-8"?>
<!-- Generator: Adobe Illustrator 18.0.0, SVG Export Plug-In . SVG Version: 6.00 Build 0)  -->
<!DOCTYPE svg PUBLIC "-//W3C//DTD SVG 1.1//EN" "http://www.w3.org/Graphics/SVG/1.1/DTD/svg11.dtd">
<svg version="1.1" id="图层_1" xmlns="http://www.w3.org/2000/svg" xmlns:xlink="http://www.w3.org/1999/xlink" x="0px" y="0px"
	 viewBox="0 0 500 500" enable-background="new 0 0 500 500" xml:space="preserve">
<path fill="#999999" d="M333.6,374.8c0,2.2-0.9,4.4-2.8,6.8c-8.1,9.2-19.6,15.7-34.5,19.4c-14.9,3.7-30.2,5.6-46,5.6
	c-39.3,0-66.3-8.3-81-25c-1.9-2.3-2.8-4.6-2.8-6.8c0-2.7,0.9-5,2.8-6.9s4.1-2.9,6.8-2.9c2.3,0,4.7,0.9,7,2.8
	c9.1,7.6,18.8,12.8,29.4,15.4c10.5,2.7,23,4,37.3,4s26.8-1.3,37.5-4c10.6-2.7,20.5-7.8,29.7-15.4c2.3-1.9,4.7-2.8,7-2.8
	c2.7,0,4.9,1,6.8,2.9C332.6,369.8,333.6,372.1,333.6,374.8L333.6,374.8z M209.3,283.2c0,9.5-3.4,17.6-10.1,24.3
	s-14.8,10.1-24.3,10.1c-9.4,0-17.5-3.4-24.5-10.2c-6.9-6.8-10.4-14.9-10.4-24.2c0-9.5,3.4-17.7,10.3-24.6s15.1-10.3,24.6-10.3
	s17.6,3.4,24.3,10.3S209.3,273.7,209.3,283.2L209.3,283.2z M360,283.2c0,9.5-3.4,17.6-10.1,24.3s-14.8,10.1-24.3,10.1
	c-9.4,0-17.5-3.4-24.5-10.2c-6.9-6.8-10.4-14.9-10.4-24.2c0-9.5,3.4-17.7,10.3-24.6s15.1-10.3,24.6-10.3s17.6,3.4,24.3,10.3
	S360,273.7,360,283.2L360,283.2z M77.5,214.2c-6.1-4.2-13-6.3-20.6-6.3c-10.3,0-19.1,3.7-26.5,11c-7.3,7.3-11,16.2-11,26.5
	c0,11.2,4.2,20.7,12.6,28.3C40.3,251.6,55.5,231.8,77.5,214.2L77.5,214.2z M453.2,310.4c0-34.6-19.4-64.8-58.3-90.6
	c-20-13.3-42.7-23.1-68.2-29.6c-25.5-6.5-51.4-9.7-77.6-9.7c-26.2,0-52.1,3.2-77.6,9.7c-25.5,6.5-48.3,16.3-68.5,29.6
	c-38.9,25.7-58.3,55.9-58.3,90.6c0,34.6,19.4,64.8,58.3,90.6c20.1,13.3,43,23.1,68.5,29.6c25.5,6.5,51.4,9.7,77.6,9.7
	c26.2,0,52.1-3.2,77.6-9.7c25.5-6.5,48.3-16.3,68.2-29.6C433.8,375.2,453.2,345,453.2,310.4L453.2,310.4z M480.6,245.3
	c0-10.3-3.7-19.1-11-26.5c-7.3-7.3-16.2-11-26.5-11c-7.8,0-15.1,2.3-21.8,7c21.8,17.8,36.8,37.8,44.9,59.9
	C475.8,267.3,480.6,257.5,480.6,245.3L480.6,245.3z M446.9,87.3c0-7.6-2.7-14.2-8.1-19.5c-5.4-5.4-11.8-8.1-19.3-8.1
	c-7.6,0-14.2,2.7-19.5,8.1c-5.4,5.4-8.1,11.9-8.1,19.5c0,7.5,2.7,13.9,8.1,19.3c5.4,5.4,11.9,8.1,19.5,8.1c7.5,0,13.9-2.7,19.3-8.1
	C444.2,101.2,446.9,94.8,446.9,87.3L446.9,87.3z M500,245.3c0,10.1-2.6,19.7-7.7,28.6c-5.1,8.9-12.1,15.9-20.8,21.1
	c0.8,5.5,1.2,10.6,1.2,15.4c0,21.7-6.2,41.6-18.5,59.8c-12.3,18.2-28.6,33.9-48.7,47.2c-21.8,14.4-46.3,25-73.4,32
	c-27.1,6.9-54.7,10.4-83,10.4c-28.2,0-55.9-3.5-83.1-10.4s-51.7-17.6-73.5-32c-20.1-13.3-36.4-29-48.7-47.2
	c-12.3-18.2-18.5-38.1-18.5-59.8c0-5.6,0.5-11.2,1.4-16.6c-8.3-5.1-14.8-12.1-19.5-20.7S0,255.1,0,245.3c0-15.6,5.5-29,16.6-40.1
	c11.1-11.2,24.5-16.7,40.3-16.7c14.2,0,26.6,4.7,37.2,14c41.4-26.5,91.1-40.3,149.3-41.4l33.7-106.7c1.6-4.5,4.7-6.8,9.4-6.8
	c3.7,0,33.7,7,89.9,21.1c3.7-8.6,9.5-15.4,17.3-20.6c7.8-5.1,16.4-7.7,25.7-7.7c12.8,0,23.8,4.6,33,13.8
	c9.2,9.2,13.8,20.3,13.8,33.2s-4.6,24-13.8,33.1c-9.2,9.1-20.2,13.7-33,13.7c-13,0-24-4.6-33.1-13.7c-9.1-9.1-13.8-20.1-13.9-32.9
	l-79.4-18.7l-29.3,92.5c54.5,2.3,101.5,16.3,141.2,41.9c11.1-9.8,23.8-14.7,38.2-14.7c15.8,0,29.2,5.6,40.3,16.7
	C494.5,216.3,500,229.7,500,245.3L500,245.3z"/>
</svg>
