<?xml version="1.0" encoding="utf-8"?>
<!-- Generator: Adobe Illustrator 18.0.0, SVG Export Plug-In . SVG Version: 6.00 Build 0)  -->
<!DOCTYPE svg PUBLIC "-//W3C//DTD SVG 1.1//EN" "http://www.w3.org/Graphics/SVG/1.1/DTD/svg11.dtd">
<svg version="1.1" id="图层_1" xmlns="http://www.w3.org/2000/svg" xmlns:xlink="http://www.w3.org/1999/xlink" x="0px" y="0px"
	 viewBox="0 0 500 500" enable-background="new 0 0 500 500" xml:space="preserve">
<path fill="#999999" d="M357.1,250c0-6.9-2.8-11.9-8.4-15.1l-142.9-89.3c-5.8-3.7-11.8-3.9-18.1-0.6c-6.1,3.3-9.2,8.6-9.2,15.6
	v178.6c0,7.1,3.1,12.3,9.2,15.6c3,1.5,5.9,2.2,8.6,2.2c3.7,0,6.9-0.9,9.5-2.8l142.9-89.3C354.4,261.9,357.1,256.9,357.1,250
	L357.1,250z M500,250c0,17.9-0.1,31.8-0.3,41.9c-0.2,10-1,22.7-2.4,38.1c-1.4,15.3-3.5,29.1-6.3,41.2c-3,13.6-9.4,25-19.3,34.3
	c-9.9,9.3-21.4,14.7-34.6,16.2c-41.3,4.7-103.7,7-187.2,7s-145.9-2.3-187.2-7c-13.2-1.5-24.8-6.9-34.7-16.2
	c-10-9.3-16.4-20.7-19.4-34.3C6,359,4,345.3,2.7,329.9c-1.4-15.3-2.2-28-2.4-38.1c-0.2-10-0.3-24-0.3-41.9s0.1-31.8,0.3-41.9
	s1-22.7,2.4-38.1s3.5-29.1,6.3-41.2c3-13.6,9.4-25,19.3-34.3s21.4-14.7,34.6-16.2c41.3-4.7,103.7-7,187.2-7s145.9,2.3,187.2,7
	c13.2,1.5,24.8,6.9,34.7,16.2s16.4,20.7,19.4,34.3c2.6,12.1,4.6,25.8,6,41.2s2.2,28,2.4,38.1S500,232.1,500,250L500,250z"/>
</svg>
