<?xml version="1.0" encoding="utf-8"?>
<!-- Generator: Adobe Illustrator 18.0.0, SVG Export Plug-In . SVG Version: 6.00 Build 0)  -->
<!DOCTYPE svg PUBLIC "-//W3C//DTD SVG 1.1//EN" "http://www.w3.org/Graphics/SVG/1.1/DTD/svg11.dtd">
<svg version="1.1" id="图层_1" xmlns="http://www.w3.org/2000/svg" xmlns:xlink="http://www.w3.org/1999/xlink" x="0px" y="0px"
	 viewBox="0 0 500 500" enable-background="new 0 0 500 500" xml:space="preserve">
<path fill="#999999" d="M299.2,382.5v-51.1c0-10.9-3.1-16.3-9.4-16.3c-3.7,0-7.3,1.7-10.7,5.2v72.9c3.5,3.5,7.1,5.2,10.7,5.2
	C296,398.4,299.2,393.1,299.2,382.5L299.2,382.5z M359,342.8h21.5v-11.1c0-11.1-3.6-16.6-10.7-16.6c-7.2,0-10.7,5.5-10.7,16.6V342.8
	L359,342.8z M173.2,256.2V279h-26v137.7H123V279H97.7v-22.8H173.2L173.2,256.2z M238.6,297.2v119.5h-21.8v-13
	c-8.5,9.8-16.7,14.6-24.7,14.6c-7.2,0-11.7-3-13.7-9.1c-1.3-3.5-2-9.3-2-17.6v-94.4h21.5v87.9c0,5.2,0.1,8,0.3,8.5
	c0.2,3.3,1.8,4.9,4.9,4.9c4.3,0,8.9-3.4,13.7-10.1v-91.1H238.6L238.6,297.2z M320.6,333.3v47.5c0,11.3-0.8,19.2-2.3,23.8
	c-2.6,9.1-8.4,13.7-17.3,13.7c-7.6,0-15-4.4-22.1-13.3v11.7h-21.8V256.2H279v52.4c6.9-8.7,14.3-13,22.1-13c8.9,0,14.6,4.6,17.3,13.7
	C319.9,313.8,320.6,321.8,320.6,333.3L320.6,333.3z M402.3,375.3v2.9c0,6.3-0.2,11-0.7,14c-0.7,4.8-2.3,9.1-4.9,13
	c-5.9,8.7-14.5,13-26,13c-11.3,0-20.1-4.1-26.4-12.4c-4.6-5.9-6.8-15.2-6.8-28v-42c0-12.8,2.2-22.1,6.5-28c6.3-8.2,15-12.4,26-12.4
	s19.5,4.1,25.4,12.4c4.6,6.1,6.8,15.4,6.8,28v24.7H359v21.2c0,11.1,3.7,16.6,11.1,16.6c5.2,0,8.5-2.8,9.8-8.5c0-0.2,0.1-1,0.2-2.3
	s0.2-3.1,0.2-5.4v-7H402.3L402.3,375.3z M255.5,107.1v50.8c0,11.1-3.5,16.6-10.4,16.6s-10.4-5.5-10.4-16.6v-50.8
	c0-11.3,3.5-16.9,10.4-16.9S255.5,95.8,255.5,107.1L255.5,107.1z M429,339.2c0-38.4-2.1-66.6-6.2-84.6c-2.2-9.5-6.8-17.5-14-23.9
	c-7.2-6.4-15.4-10.1-24.7-11.2c-29.5-3.3-74.2-4.9-134.1-4.9c-59.7,0-104.3,1.6-133.8,4.9c-9.5,1.1-17.8,4.8-24.9,11.2
	S79.6,245,77.5,254.6c-4.3,18.9-6.5,47.1-6.5,84.6c0,38.2,2.2,66.4,6.5,84.6c2.2,9.3,6.8,17.3,13.8,23.8
	c7.1,6.5,15.2,10.3,24.6,11.4c29.7,3.3,74.4,4.9,134.1,4.9s104.4-1.6,134.1-4.9c9.3-1.1,17.5-4.9,24.6-11.4
	c7.1-6.5,11.7-14.4,13.8-23.8C426.9,405.6,429,377.4,429,339.2L429,339.2z M183.3,127.3l29.3-96.4h-24.4l-16.6,63.5l-17.3-63.5
	h-25.4l7.8,22.5l7.5,22.5c7.6,22.4,12.6,39.5,15,51.4v65.4h24.1V127.3L183.3,127.3z M277.3,153.6v-42.3c0-12.6-2.3-22-6.8-28.3
	c-6.3-8.2-14.8-12.4-25.4-12.4c-11.1,0-19.5,4.1-25.4,12.4c-4.6,6.3-6.8,15.7-6.8,28.3v42.3c0,12.6,2.3,22,6.8,28.3
	c5.9,8.2,14.3,12.4,25.4,12.4c10.6,0,19.1-4.1,25.4-12.4C275.1,176.1,277.3,166.7,277.3,153.6L277.3,153.6z M336.3,192.7h21.8V72.3
	h-21.8v92.1c-4.8,6.7-9.3,10.1-13.7,10.1c-3.3,0-5-1.7-5.2-5.2c-0.2-0.4-0.3-3.3-0.3-8.5V72.3h-21.8v95.4c0,8,0.7,14,2,17.9
	c2.4,5.9,7.1,8.8,14,8.8c7.8,0,16.2-4.9,25.1-14.6V192.7L336.3,192.7z M500,93.8v312.5c0,25.8-9.2,47.9-27.5,66.2
	c-18.3,18.3-40.4,27.5-66.2,27.5H93.8c-25.8,0-47.9-9.2-66.2-27.5C9.2,454.2,0,432.1,0,406.3V93.8c0-25.8,9.2-47.9,27.5-66.2
	S67.9,0,93.8,0h312.5c25.8,0,47.9,9.2,66.2,27.5C490.8,45.8,500,67.9,500,93.8L500,93.8z"/>
</svg>
