<?xml version="1.0" encoding="utf-8"?>
<!-- Generator: Adobe Illustrator 18.0.0, SVG Export Plug-In . SVG Version: 6.00 Build 0)  -->
<!DOCTYPE svg PUBLIC "-//W3C//DTD SVG 1.1//EN" "http://www.w3.org/Graphics/SVG/1.1/DTD/svg11.dtd">
<svg version="1.1" id="图层_1" xmlns="http://www.w3.org/2000/svg" xmlns:xlink="http://www.w3.org/1999/xlink" x="0px" y="0px"
	 viewBox="0 0 500 500" enable-background="new 0 0 500 500" xml:space="preserve">
<path fill="#999999" d="M306.6,347.1V406c0,12.5-3.6,18.7-10.9,18.7c-4.3,0-8.5-2-12.6-6.1v-84c4.1-4.1,8.3-6.1,12.6-6.1
	C303,328.4,306.6,334.6,306.6,347.1L306.6,347.1z M400.9,347.4v12.8h-25.1v-12.8c0-12.6,4.2-19,12.6-19S400.9,334.7,400.9,347.4
	L400.9,347.4z M131.4,286.6h29.9v-26.2H74.2v26.2h29.3v158.8h27.9V286.6L131.4,286.6z M211.8,445.3h24.8V307.5h-24.8v105.5
	c-5.6,7.8-10.9,11.7-15.9,11.7c-3.3,0-5.3-2-5.9-5.9c-0.2-0.6-0.3-3.8-0.3-9.8V307.5h-24.8v109.1c0,9.1,0.7,15.9,2.2,20.4
	c2.2,6.9,7.6,10.3,16.2,10.3c8.9,0,18.4-5.7,28.5-17V445.3L211.8,445.3z M331.5,404v-55c0-13.6-0.8-22.8-2.5-27.6
	c-3.2-10.4-9.8-15.6-19.8-15.6c-9.3,0-18,5-25.9,15.1v-60.5h-24.8v185h24.8v-13.4c8.4,10.2,17,15.3,25.9,15.3
	c10,0,16.6-5.1,19.8-15.3C330.6,426.9,331.5,417.6,331.5,404L331.5,404z M425.8,401.2v-3.6h-25.4c0,9.5-0.2,15.2-0.6,17
	c-1.3,6.7-5,10-11.2,10c-8.6,0-12.8-6.4-12.8-19.3v-24.3h49.9v-28.7c0-14.7-2.5-25.5-7.5-32.4c-7.3-9.5-17.1-14.2-29.6-14.2
	c-12.6,0-22.6,4.7-29.9,14.2c-5.2,6.9-7.8,17.7-7.8,32.4v48.3c0,14.7,2.7,25.5,8.1,32.4c7.3,9.5,17.3,14.2,30.1,14.2
	c13.4,0,23.4-4.9,30.1-14.8c3.3-5,5.3-10,5.9-15.1C425.6,415.7,425.8,410.3,425.8,401.2L425.8,401.2z M256.1,146.5V87.9
	c0-12.8-4-19.3-12-19.3s-12,6.4-12,19.3v58.6c0,13,4,19.5,12,19.5S256.1,159.5,256.1,146.5L256.1,146.5z M456.8,356
	c0,43.5-2.4,76.1-7.3,97.7c-2.6,11-8,20.2-16.2,27.6s-17.7,11.7-28.5,12.8C370.6,498,319,500,250,500s-120.6-2-154.9-5.9
	c-10.8-1.1-20.3-5.4-28.6-12.8s-13.6-16.6-16-27.6c-4.8-20.8-7.3-53.4-7.3-97.7c0-43.5,2.4-76.1,7.3-97.7c2.6-11,8-20.2,16.2-27.6
	c8.2-7.4,17.8-11.8,28.7-13.1c34-3.7,85.6-5.6,154.6-5.6s120.6,1.9,154.9,5.6c10.8,1.3,20.3,5.7,28.6,13.1
	c8.3,7.4,13.6,16.6,16,27.6C454.3,279.2,456.8,311.8,456.8,356L456.8,356z M178.3,0h28.5L173,111.3v75.6h-27.9v-75.6
	c-2.6-13.8-8.3-33.5-17-59.2C121.2,33,115.1,15.6,109.9,0h29.6l19.8,73.4L178.3,0z M281.5,92.9v48.8c0,15.1-2.6,26-7.8,32.9
	c-6.9,9.5-16.7,14.2-29.6,14.2c-12.5,0-22.2-4.7-29.3-14.2c-5.2-7.1-7.8-18-7.8-32.9V92.9c0-14.9,2.6-25.8,7.8-32.6
	c7.1-9.5,16.8-14.2,29.3-14.2c12.8,0,22.7,4.7,29.6,14.2C278.9,67.2,281.5,78,281.5,92.9L281.5,92.9z M375,47.7v139.2h-25.4v-15.3
	c-9.9,11.5-19.4,17.3-28.7,17.3c-8.6,0-14-3.4-16.5-10.3c-1.5-4.5-2.2-11.4-2.2-20.9V47.7h25.4v102.4c0,6.1,0.1,9.4,0.3,9.8
	c0.6,4.1,2.5,6.1,5.9,6.1c5,0,10.3-4,15.9-12V47.7H375L375,47.7z"/>
</svg>
