<?xml version="1.0" encoding="utf-8"?>
<!-- Generator: Adobe Illustrator 18.0.0, SVG Export Plug-In . SVG Version: 6.00 Build 0)  -->
<!DOCTYPE svg PUBLIC "-//W3C//DTD SVG 1.1//EN" "http://www.w3.org/Graphics/SVG/1.1/DTD/svg11.dtd">
<svg version="1.1" id="图层_1" xmlns="http://www.w3.org/2000/svg" xmlns:xlink="http://www.w3.org/1999/xlink" x="0px" y="0px"
	 viewBox="0 0 500 500" enable-background="new 0 0 500 500" xml:space="preserve">
<path fill="#999999" d="M369.8,433.9l-20.2-59.6c-9.5,4.8-20.7,7.2-33.5,7.2c-7.8,0.2-14.5-0.9-20.2-3.4c-5.6-2.5-9.8-5.9-12.5-10.3
	c-2.7-4.3-4.6-8.7-5.7-13.2c-1.1-4.4-1.6-9.2-1.6-14.2V210.9h83.7v-63.2h-83.3V41.7h-61.2c-1.7,0-2.7,1.1-2.9,3.3
	c-1.1,9.5-3,19-5.7,28.3s-6.9,19.6-12.7,30.9s-14.1,21.6-25.1,30.9c-11,9.3-23.8,16.7-38.6,22.1v53.7h42.3V347
	c0,12.4,2.3,24.8,7,37.4c4.7,12.6,11.7,24.6,21.2,36.1c9.4,11.5,22.6,20.8,39.4,27.8c16.8,7.1,36,10.4,57.5,9.9
	c15-0.2,29.8-2.9,44.4-8.1S365.9,439.6,369.8,433.9L369.8,433.9z M500,93.8v312.5c0,25.8-9.2,47.9-27.5,66.2
	c-18.3,18.3-40.4,27.5-66.2,27.5H93.8c-25.8,0-47.9-9.2-66.2-27.5C9.2,454.2,0,432.1,0,406.3V93.8c0-25.8,9.2-47.9,27.5-66.2
	S67.9,0,93.8,0h312.5c25.8,0,47.9,9.2,66.2,27.5C490.8,45.8,500,67.9,500,93.8L500,93.8z"/>
</svg>
