<?xml version="1.0" encoding="utf-8"?>
<!-- Generator: Adobe Illustrator 18.0.0, SVG Export Plug-In . SVG Version: 6.00 Build 0)  -->
<!DOCTYPE svg PUBLIC "-//W3C//DTD SVG 1.1//EN" "http://www.w3.org/Graphics/SVG/1.1/DTD/svg11.dtd">
<svg version="1.1" id="图层_1" xmlns="http://www.w3.org/2000/svg" xmlns:xlink="http://www.w3.org/1999/xlink" x="0px" y="0px"
	 viewBox="0 0 500 500" enable-background="new 0 0 500 500" xml:space="preserve">
<path fill="#999999" d="M369.6,399.3l24,71.2c-4.6,7-15.7,13.6-33.4,19.8c-17.6,6.2-35.4,9.4-53.2,9.6c-20.8,0.4-39.9-2.2-57.2-7.8
	c-17.3-5.6-31.6-13-42.8-22.2c-11.2-9.2-20.7-19.8-28.5-31.8c-7.8-12-13.4-24-16.7-36.1c-3.3-12-5-23.8-5-35.5V203.1h-50.5v-64.6
	c14.4-5.2,27.3-12.2,38.8-20.9c11.4-8.7,20.5-17.7,27.3-27c6.8-9.3,12.6-19.5,17.4-30.6c4.8-11.1,8.2-21,10.2-29.7
	c2-8.7,3.5-17.6,4.5-26.6c0.2-1,0.7-1.9,1.4-2.6c0.7-0.7,1.5-1.1,2.3-1.1h73.3v127.4h100.1v75.7H281.2v155.6c0,6,0.7,11.6,2,16.8
	s3.6,10.5,6.8,15.8c3.2,5.3,8.2,9.5,14.9,12.5c6.7,3,14.9,4.4,24.5,4.2C344.9,407.6,358.4,404.7,369.6,399.3L369.6,399.3z"/>
</svg>
