<?xml version="1.0" encoding="utf-8"?>
<!-- Generator: Adobe Illustrator 18.0.0, SVG Export Plug-In . SVG Version: 6.00 Build 0)  -->
<!DOCTYPE svg PUBLIC "-//W3C//DTD SVG 1.1//EN" "http://www.w3.org/Graphics/SVG/1.1/DTD/svg11.dtd">
<svg version="1.1" id="图层_1" xmlns="http://www.w3.org/2000/svg" xmlns:xlink="http://www.w3.org/1999/xlink" x="0px" y="0px"
	 viewBox="0 0 500 500" enable-background="new 0 0 500 500" xml:space="preserve">
<path fill="#999999" d="M416.7,347.3c0-19.1-6.8-35.5-20.3-49.2s-29.9-20.5-49-20.5c-18.2,0-34,6.3-47.2,18.9l-78.5-39.1
	c0.4-3.5,0.7-6,0.7-7.5s-0.2-4-0.7-7.5l78.5-39.1c13.2,12.6,29,18.9,47.2,18.9c19.1,0,35.4-6.8,49-20.5s20.3-30.1,20.3-49.2
	s-6.8-35.4-20.3-49c-13.6-13.6-29.9-20.3-49-20.3c-19.1,0-35.5,6.8-49.2,20.3c-13.7,13.6-20.5,29.9-20.5,49c0,1.5,0.2,4,0.7,7.5
	l-78.5,39.1c-13.5-12.4-29.2-18.6-47.2-18.6c-19.1,0-35.4,6.8-49,20.3c-13.6,13.6-20.3,29.9-20.3,49c0,19.1,6.8,35.4,20.3,49
	c13.6,13.6,29.9,20.3,49,20.3c18,0,33.7-6.2,47.2-18.6l78.5,39.1c-0.4,3.5-0.7,6-0.7,7.5c0,19.1,6.8,35.4,20.5,49
	s30.1,20.3,49.2,20.3c19.1,0,35.4-6.8,49-20.3S416.7,366.4,416.7,347.3L416.7,347.3z M500,93.8v312.5c0,25.8-9.2,47.9-27.5,66.2
	c-18.3,18.3-40.4,27.5-66.2,27.5H93.8c-25.8,0-47.9-9.2-66.2-27.5C9.2,454.2,0,432.1,0,406.3V93.8c0-25.8,9.2-47.9,27.5-66.2
	S67.9,0,93.8,0h312.5c25.8,0,47.9,9.2,66.2,27.5C490.8,45.8,500,67.9,500,93.8L500,93.8z"/>
</svg>
