<?xml version="1.0" encoding="utf-8"?>
<!-- Generator: Adobe Illustrator 18.0.0, SVG Export Plug-In . SVG Version: 6.00 Build 0)  -->
<!DOCTYPE svg PUBLIC "-//W3C//DTD SVG 1.1//EN" "http://www.w3.org/Graphics/SVG/1.1/DTD/svg11.dtd">
<svg version="1.1" id="图层_1" xmlns="http://www.w3.org/2000/svg" xmlns:xlink="http://www.w3.org/1999/xlink" x="0px" y="0px"
	 viewBox="0 0 500 500" enable-background="new 0 0 500 500" xml:space="preserve">
<path fill="#999999" d="M395.8,291.7c28.9,0,53.4,10.1,73.7,30.4c20.3,20.3,30.4,44.9,30.4,73.7c0,28.9-10.1,53.4-30.4,73.7
	c-20.3,20.3-44.9,30.4-73.7,30.4c-28.9,0-53.4-10.1-73.7-30.4c-20.3-20.3-30.4-44.9-30.4-73.7c0-2.6,0.2-6.3,0.7-11.1l-117.2-58.6
	c-20,18.7-43.6,28-71,28c-28.9,0-53.4-10.1-73.7-30.4S0,278.9,0,250c0-28.9,10.1-53.4,30.4-73.7s44.9-30.4,73.7-30.4
	c27.3,0,51,9.3,71,28l117.2-58.6c-0.4-4.8-0.7-8.5-0.7-11.1c0-28.9,10.1-53.4,30.4-73.7C342.4,10.1,367,0,395.8,0
	c28.9,0,53.4,10.1,73.7,30.4c20.3,20.3,30.4,44.9,30.4,73.7s-10.1,53.4-30.4,73.7c-20.3,20.3-44.9,30.4-73.7,30.4
	c-27.3,0-51-9.3-71-28l-117.2,58.6c0.4,4.8,0.7,8.5,0.7,11.1s-0.2,6.3-0.7,11.1l117.2,58.6C344.8,301,368.5,291.7,395.8,291.7
	L395.8,291.7z"/>
</svg>
