<?xml version="1.0" encoding="utf-8"?>
<!-- Generator: Adobe Illustrator 18.0.0, SVG Export Plug-In . SVG Version: 6.00 Build 0)  -->
<!DOCTYPE svg PUBLIC "-//W3C//DTD SVG 1.1//EN" "http://www.w3.org/Graphics/SVG/1.1/DTD/svg11.dtd">
<svg version="1.1" id="图层_1" xmlns="http://www.w3.org/2000/svg" xmlns:xlink="http://www.w3.org/1999/xlink" x="0px" y="0px"
	 viewBox="0 0 500 500" enable-background="new 0 0 500 500" xml:space="preserve">
<path fill="#999999" d="M458.2,227.2c0-9.5-0.8-21.9-2.3-36.9c-1.5-15.1-3.5-25.6-5.9-31.4c-2.6-6.5-4.4-11.3-5.5-14.3
	c-1.1-3-2.1-7-2.9-11.9c-0.9-4.9-1.3-10.1-1.3-15.8c0-5,0.5-12.4,1.6-22.3c1.1-9.9,1.6-17.2,1.6-22c0-8-1.1-14-3.3-17.9
	c-0.9-0.2-2.3-0.3-4.2-0.3c-4.1,0-10.4,0.5-18.9,1.5c-8.5,1-14.9,1.5-19.2,1.5c-13,0-32.1-2.6-57.3-7.8c-25.2-5.2-44.2-7.8-57-7.8
	c-9.3,0-19.6,1.2-30.8,3.7c-11.2,2.5-20.4,5-27.7,7.6c-7.3,2.6-17,6.3-29.1,11.1c-29.7,11.7-51.6,22.9-65.8,33.5
	c-20.8,15.8-38.1,36.4-51.9,61.7c-13.8,25.3-23.3,50.9-28.6,76.8s-8,52.9-8,80.9c0,8.7,1.4,21.7,4.1,39.1s4.1,30.5,4.1,39.4
	c0,5-1.2,12.2-3.6,21.6c-2.4,9.4-3.6,16.5-3.6,21.3c0,4.8,1.3,8.7,3.9,11.9c2.6,3.1,6.3,4.7,11.1,4.7c5.2,0,13.1-1.2,23.6-3.6
	c10.5-2.4,18.5-3.6,23.9-3.6c12.4,0,30.8,1.7,55.2,5c24.4,3.4,42.8,5,55.2,5c39.3,0,70.1-3.9,92.4-11.7c28-9.8,53.5-26.3,76.7-49.6
	c23.1-23.3,41.1-50,54-79.9C451.7,286.8,458.2,256.9,458.2,227.2L458.2,227.2z M499.8,226.6c0,35.8-7.6,71.3-22.8,106.6
	c-15.2,35.3-36.5,66.5-63.8,93.8c-27.3,27.2-57.8,46.8-91.5,58.8c-26.9,9.5-62.3,14.3-106.1,14.3c-12.4,0-30.8-1.6-55.3-4.7
	c-24.5-3.1-42.9-4.7-55-4.7c-5.2,0-13.1,1.6-23.6,4.7c-10.5,3.1-18.5,4.7-23.9,4.7c-15.8,0-29.2-6-40.2-18.1
	c-11-12-16.4-26-16.4-41.8c0-5.2,1.2-12.6,3.6-22.1s3.6-16.8,3.6-21.8c0-8.7-1.4-21.8-4.1-39.2s-4.1-30.7-4.1-39.6
	c0-24.1,2-47.7,5.9-70.8c3.9-23.1,9.8-45.8,17.7-68.2s18.8-43.4,32.7-63.2s30.2-36.7,48.8-50.8c16.9-12.8,42.1-25.8,75.5-39.1
	C222.9,8.5,257.2,0,283.7,0c13,0,32.1,2.6,57.1,7.8c25.1,5.2,43.9,7.8,56.5,7.8c4.1,0,10.3-0.5,18.6-1.6c8.2-1.1,14.5-1.6,18.9-1.6
	c17.6,0,30.4,5.5,38.4,16.4c8,11,12,25.6,12,43.8c0,5-0.5,12.4-1.6,22.1c-1.1,9.8-1.6,17.1-1.6,22.1c0,2.2,0.1,4.2,0.3,6
	c0.2,1.8,0.5,3.7,1,5.5c0.4,1.8,0.9,3.3,1.3,4.4s1.1,2.8,2.1,5.2c1,2.4,1.7,4.2,2.1,5.5c3.5,8.7,6.2,21.5,8.1,38.6
	S499.8,214,499.8,226.6L499.8,226.6z"/>
</svg>
