<?xml version="1.0" encoding="utf-8"?>
<!-- Generator: Adobe Illustrator 18.0.0, SVG Export Plug-In . SVG Version: 6.00 Build 0)  -->
<!DOCTYPE svg PUBLIC "-//W3C//DTD SVG 1.1//EN" "http://www.w3.org/Graphics/SVG/1.1/DTD/svg11.dtd">
<svg version="1.1" id="图层_1" xmlns="http://www.w3.org/2000/svg" xmlns:xlink="http://www.w3.org/1999/xlink" x="0px" y="0px"
	 viewBox="0 0 500 500" enable-background="new 0 0 500 500" xml:space="preserve">
<path fill="#999999" d="M161.7,176.4c3.8,12.2,6.9,24.6,9.3,37.1c2.4,12.5,4.1,26.7,5.1,42.5c1,15.8-0.4,31.8-4.2,47.8
	c-3.8,16-10,30.5-18.6,43.6c-4.2-16.2-10.9-32-20.1-47.2c-9.2-15.2-18.8-27.9-28.7-38.2c-9.9-10.2-19.8-19.3-29.7-27.2
	c-9.9-7.9-17.8-13.7-23.6-17.3c-5.8-3.6-9.1-5.5-9.9-5.7c-12.4-6.8-20.6-16.8-24.5-30c-3.9-13.2-2.5-26,4.4-38.5
	c6.8-12.4,16.9-20.6,30.3-24.5c13.4-3.9,26.3-2.5,38.8,4.4C117.8,139.8,141.7,157.6,161.7,176.4L161.7,176.4z M259.4,90.1
	c2.2,5,4.3,9.6,6.2,13.8c1.9,4.2,5.6,14.3,11,30.2c5.4,15.9,9.7,31,12.8,45.2c3.1,14.2,5.7,32.2,7.7,53.9c2,21.7,2,42.3,0,61.7
	c-2,19.4-6.8,40.4-14.3,63c-7.5,22.5-18.1,43.4-31.7,62.7c-10.2,14.4-24,21.6-41.5,21.6c-10.8,0-20.6-3.1-29.4-9.3
	c-11.4-8-18.3-18.9-20.7-32.8c-2.4-13.8,0.4-26.5,8.4-38.2c12-17,20.1-36.6,24.3-58.6c4.2-22,5.5-42,3.9-59.9
	c-1.6-17.9-4.8-36-9.6-54.2c-4.8-18.2-8.7-31-11.7-38.5c-3-7.4-5.2-12.6-6.6-15.6c-6.2-12.6-7.1-25.6-2.6-38.9s13.1-23.1,25.7-29.3
	c6.8-3.4,14.3-5.1,22.5-5.1c9.4,0,18.3,2.5,26.6,7.5S255,81.3,259.4,90.1L259.4,90.1z M355.8,291.2c-3.4,32.1-10.6,63.2-21.6,93.4
	c-3.4-26.2-9.7-50.9-18.9-73.9c5-34.9,4.5-71-1.5-108.5c-5.4-35.7-14.8-69.9-28.2-102.8c22.8,18,44.1,39.2,63.7,63.4
	c1.8,7.4,3.3,15.4,4.5,24C358.9,222.8,359.6,257.5,355.8,291.2L355.8,291.2z M437.5,28.8c1.8,3.4,4.2,8.4,7.1,14.9
	c2.9,6.5,7.3,18.3,13.1,35.3c5.8,17,10.9,34.9,15.2,53.5c4.3,18.6,7.7,41.4,10.2,68.4c2.5,26.9,3,53.9,1.5,80.8
	c-1.5,26.9-6.2,57-14.1,90.1c-7.9,33.2-19.2,65.6-33.8,97.2c-4.4,9.6-11,17.2-19.8,22.7c-8.8,5.5-18.3,8.3-28.5,8.3
	c-7.8,0-15.2-1.6-22.2-4.8c-13.4-6.2-22.7-16.2-27.8-30c-5.1-13.8-4.7-27.4,1.4-40.9c11.6-25.2,20.6-51,27-77.4
	c6.4-26.3,10.2-50.3,11.3-72c1.1-21.6,0.8-43-1.1-64.2c-1.8-21.1-4.5-39.2-8-54.2c-3.5-15-7.4-28.9-11.6-41.6
	c-4.2-12.7-7.5-21.7-9.8-27s-3.9-8.6-4.7-9.8c-6.8-13-8-26.6-3.5-40.7S352.7,12.8,365.7,6c7.4-4,15.5-6,24.3-6
	c9.8,0,19,2.6,27.5,7.7S432.7,19.8,437.5,28.8L437.5,28.8z"/>
</svg>
