<?xml version="1.0" encoding="utf-8"?>
<!-- Generator: Adobe Illustrator 18.0.0, SVG Export Plug-In . SVG Version: 6.00 Build 0)  -->
<!DOCTYPE svg PUBLIC "-//W3C//DTD SVG 1.1//EN" "http://www.w3.org/Graphics/SVG/1.1/DTD/svg11.dtd">
<svg version="1.1" id="图层_1" xmlns="http://www.w3.org/2000/svg" xmlns:xlink="http://www.w3.org/1999/xlink" x="0px" y="0px"
	 viewBox="0 0 500 500" enable-background="new 0 0 500 500" xml:space="preserve">
<path fill="#999999" d="M404.3,168.9c0-17.4-6.2-32.2-18.6-44.4s-27.2-18.4-44.6-18.4c-17.4,0-32.2,6.2-44.4,18.6
	c-12.3,12.4-18.4,27.1-18.4,44.3c0,17.4,6.1,32.2,18.4,44.4c12.3,12.3,27.1,18.4,44.4,18.4c17.4,0,32.2-6.1,44.6-18.4
	S404.3,186.3,404.3,168.9L404.3,168.9z M205.7,360.4c0,18-6.3,33.3-18.9,45.7c-12.6,12.5-27.8,18.7-45.6,18.7
	c-12.2,0-23.3-3.1-33.5-9.4c-10.2-6.3-18-14.6-23.4-25.1c11.3,4.3,21.9,8.7,31.9,13c13,5.2,26,5,39.1-0.5s22.2-14.9,27.7-28.2
	c5.2-13,5-26-0.5-39.1c-5.5-13-14.9-22.1-28.2-27.3l-26.7-10.7c4.8-1.1,9.3-1.6,13.7-1.6c17.8,0,33,6.2,45.6,18.7
	C199.4,327.1,205.7,342.3,205.7,360.4L205.7,360.4z M500,93.8v312.5c0,25.8-9.2,47.9-27.5,66.2c-18.3,18.3-40.4,27.5-66.2,27.5H93.8
	c-25.8,0-47.9-9.2-66.2-27.5C9.2,454.2,0,432.1,0,406.3v-49.8l56,22.5c4.3,20,14.5,36.5,30.4,49.5c16,13,34.2,19.5,54.9,19.5
	c22.6,0,42.2-7.6,58.9-22.8c16.7-15.2,26.2-34,28.3-56.3l112.3-82c32.6,0,60.3-11.4,83.2-34.3c22.9-22.9,34.3-50.5,34.3-82.8
	c0-32.6-11.4-60.3-34.3-83.2c-22.9-22.9-50.6-34.3-83.2-34.3c-32.1,0-59.6,11.3-82.4,34c-22.8,22.7-34.4,50.1-34.8,82.2l-73.2,104.8
	c-2-0.2-5-0.3-9.1-0.3c-16.3,0-31.1,4-44.6,12L0,246.1V93.8c0-25.8,9.2-47.9,27.5-66.2S67.9,0,93.8,0h312.5
	c25.8,0,47.9,9.2,66.2,27.5C490.8,45.8,500,67.9,500,93.8L500,93.8z M419.6,169.6c0,21.7-7.7,40.2-23.1,55.5s-34,22.9-55.7,22.9
	s-40.2-7.6-55.5-22.9c-15.3-15.3-22.9-33.8-22.9-55.5s7.6-40.3,22.9-55.7c15.3-15.4,33.8-23.1,55.5-23.1c21.9,0,40.5,7.6,55.8,22.9
	C411.9,129.1,419.6,147.7,419.6,169.6L419.6,169.6z"/>
</svg>
