<?xml version="1.0" encoding="utf-8"?>
<!-- Generator: Adobe Illustrator 18.0.0, SVG Export Plug-In . SVG Version: 6.00 Build 0)  -->
<!DOCTYPE svg PUBLIC "-//W3C//DTD SVG 1.1//EN" "http://www.w3.org/Graphics/SVG/1.1/DTD/svg11.dtd">
<svg version="1.1" id="图层_1" xmlns="http://www.w3.org/2000/svg" xmlns:xlink="http://www.w3.org/1999/xlink" x="0px" y="0px"
	 viewBox="0 0 500 500" enable-background="new 0 0 500 500" xml:space="preserve">
<path fill="#999999" d="M441.4,162.4c0,18.8-6.6,34.8-19.9,48.1c-13.3,13.3-29.3,19.9-48.1,19.9c-18.8,0-34.8-6.6-48.1-19.9
	c-13.3-13.3-19.9-29.3-19.9-48.1s6.6-34.8,19.9-48.1s29.3-19.9,48.1-19.9c18.8,0,34.8,6.6,48.1,19.9S441.4,143.6,441.4,162.4
	L441.4,162.4z M226.6,369.4c0-19.3-6.8-35.8-20.4-49.4s-30-20.4-49.4-20.4c-5,0-10,0.6-15.1,1.7l29,11.7
	c14.3,5.8,24.5,15.7,30.6,29.7s6.2,28.1,0.4,42.3c-5.8,14.3-15.7,24.5-29.9,30.4s-28.3,6-42.4,0.3c-3.9-1.5-9.7-3.8-17.3-6.8
	c-7.6-3.1-13.3-5.3-17-6.8c6,11.2,14.4,20.1,25.4,26.9s23.1,10.2,36.3,10.2c19.3,0,35.8-6.8,49.4-20.4
	C219.8,405.2,226.6,388.8,226.6,369.4L226.6,369.4z M458.1,162.7c0-23.4-8.3-43.5-25-60.1c-16.6-16.6-36.7-25-60.1-25
	c-23.6,0-43.8,8.3-60.4,25c-16.6,16.6-25,36.7-25,60.1c0,23.6,8.3,43.7,25,60.3c16.6,16.6,36.8,24.8,60.4,24.8
	c23.4,0,43.5-8.3,60.1-24.8C449.8,206.4,458.1,186.3,458.1,162.7L458.1,162.7z M500,162.7c0,35.2-12.4,65.1-37.2,89.8
	c-24.8,24.7-54.7,37.1-89.7,37.1l-121.9,89c-2.2,24-12.4,44.3-30.4,60.8s-39.3,24.8-63.9,24.8c-22.5,0-42.4-7.1-59.7-21.2
	c-17.3-14.1-28.3-32-32.9-53.6L0,363.8V244.1l108.5,43.8c14.7-8.9,30.8-13.4,48.3-13.4c2.4,0,5.7,0.2,9.8,0.6l79.2-113.6
	c0.4-34.8,13-64.5,37.8-89C308.5,48,338.3,35.7,373,35.7c35,0,64.9,12.4,89.7,37.2C487.6,97.8,500,127.7,500,162.7L500,162.7z"/>
</svg>
