<?xml version="1.0" encoding="utf-8"?>
<!-- Generator: Adobe Illustrator 18.0.0, SVG Export Plug-In . SVG Version: 6.00 Build 0)  -->
<!DOCTYPE svg PUBLIC "-//W3C//DTD SVG 1.1//EN" "http://www.w3.org/Graphics/SVG/1.1/DTD/svg11.dtd">
<svg version="1.1" id="图层_1" xmlns="http://www.w3.org/2000/svg" xmlns:xlink="http://www.w3.org/1999/xlink" x="0px" y="0px"
	 viewBox="0 0 500 500" enable-background="new 0 0 500 500" xml:space="preserve">
<path fill="#999999" d="M368.8,467.1c-37.1,20.4-77,30.6-119.8,30.6c-42.5,0-82.4-10.2-119.5-30.6c29.9-18.9,55.5-41.8,76.7-68.7
	s35.4-56,42.8-87.2c7.6,31.3,22,60.3,43.1,87.2C313.3,425.3,338.9,448.2,368.8,467.1L368.8,467.1z M207.7,2.3v157.9
	c0,54.7-13.7,104.5-41.2,149.6S103.2,388,58.9,409.5C19.6,362.8,0,309.1,0,248.4c0-40.6,9.1-78.5,27.2-113.8s43-64.5,74.7-87.7
	S168.8,8.8,207.7,2.3L207.7,2.3z M500,248.4c0,60.8-19.6,114.5-58.9,161.1c-44.3-21.5-80.1-54.7-107.6-99.8s-41.2-94.9-41.2-149.6
	V2.3c38.8,6.5,74.1,21.4,105.8,44.6s56.6,52.5,74.7,87.7C490.9,169.9,500,207.8,500,248.4L500,248.4z"/>
</svg>
