<?xml version="1.0" encoding="utf-8"?>
<!-- Generator: Adobe Illustrator 18.0.0, SVG Export Plug-In . SVG Version: 6.00 Build 0)  -->
<!DOCTYPE svg PUBLIC "-//W3C//DTD SVG 1.1//EN" "http://www.w3.org/Graphics/SVG/1.1/DTD/svg11.dtd">
<svg version="1.1" id="图层_1" xmlns="http://www.w3.org/2000/svg" xmlns:xlink="http://www.w3.org/1999/xlink" x="0px" y="0px"
	 viewBox="0 0 500 500" enable-background="new 0 0 500 500" xml:space="preserve">
<path fill="#999999" d="M186.6,106.7c3.2,0,6-1.2,8.3-3.5c2.3-2.3,3.5-5.1,3.5-8.3c0-3.2-1.2-6-3.5-8.3c-2.3-2.3-5.1-3.5-8.3-3.5
	s-5.9,1.2-8.1,3.5c-2.2,2.3-3.3,5.1-3.3,8.3c0,3.2,1.1,6,3.3,8.3C180.7,105.5,183.4,106.7,186.6,106.7z M313.4,106.7
	c3.2,0,5.9-1.2,8.1-3.5c2.2-2.3,3.3-5.1,3.3-8.3c0-3.2-1.1-6-3.3-8.3c-2.2-2.3-4.9-3.5-8.1-3.5c-3.2,0-6,1.2-8.3,3.5
	c-2.3,2.3-3.5,5.1-3.5,8.3c0,3.2,1.2,6,3.5,8.3C307.4,105.5,310.2,106.7,313.4,106.7z M69.4,162c8.4,0,15.6,3,21.6,9
	c6,6,9,13.2,9,21.6v129.2c0,8.6-3,15.9-8.9,21.9c-5.9,6-13.2,9-21.8,9s-15.9-3-21.9-9s-9-13.3-9-21.9V192.6c0-8.4,3-15.6,9-21.6
	S60.8,162,69.4,162z M387.9,167.7v200.1c0,9.2-3.2,17-9.6,23.4c-6.4,6.4-14.1,9.6-23.1,9.6h-22.5v68.2c0,8.6-3,15.9-9,21.9
	s-13.3,9-21.9,9s-15.9-3-21.9-9s-9-13.3-9-21.9v-68.2h-41.5v68.2c0,8.6-3,15.9-9,21.9c-6,6-13.3,9-21.9,9c-8.4,0-15.6-3-21.6-9
	s-9-13.3-9-21.9l-0.3-68.2h-22.2c-9.2,0-17-3.2-23.4-9.6c-6.4-6.4-9.6-14.2-9.6-23.4V167.7H387.9z M318.2,46
	c21.4,11,38.6,26.4,51.4,46.1s19.2,41.3,19.2,64.8H110.9c0-23.4,6.4-45,19.2-64.8c12.8-19.7,30-35.1,51.7-46.1L160.5,6.6
	c-1.4-2.6-0.9-4.6,1.5-6c2.6-1.2,4.6-0.6,6,1.8l21.6,39.7c19-8.4,39.2-12.6,60.4-12.6s41.4,4.2,60.4,12.6L332,2.4
	c1.4-2.4,3.4-3,6-1.8c2.4,1.4,2.9,3.4,1.5,6L318.2,46z M461.5,192.6v129.2c0,8.6-3,15.9-9,21.9s-13.3,9-21.9,9c-8.4,0-15.6-3-21.6-9
	s-9-13.3-9-21.9V192.6c0-8.6,3-15.9,9-21.8c6-5.9,13.2-8.9,21.6-8.9c8.6,0,15.9,3,21.9,8.9C458.5,176.7,461.5,184,461.5,192.6z"/>
</svg>
