<?xml version="1.0" encoding="utf-8"?>
<!-- Generator: Adobe Illustrator 18.0.0, SVG Export Plug-In . SVG Version: 6.00 Build 0)  -->
<!DOCTYPE svg PUBLIC "-//W3C//DTD SVG 1.1//EN" "http://www.w3.org/Graphics/SVG/1.1/DTD/svg11.dtd">
<svg version="1.1" id="图层_1" xmlns="http://www.w3.org/2000/svg" xmlns:xlink="http://www.w3.org/1999/xlink" x="0px" y="0px"
	 viewBox="0 0 500 500" enable-background="new 0 0 500 500" xml:space="preserve">
<path fill="#999999" d="M459.3,365.1c-7.8,25-20.1,50.1-37,75.1c-25.8,39.3-51.6,58.9-77.2,58.9c-9.8,0-23.8-3.2-42.1-9.6
	c-17.2-6.4-32.4-9.6-45.4-9.6c-12.2,0-26.4,3.3-42.7,9.9c-16.2,6.8-29.4,10.2-39.7,10.2c-30.4,0-60.6-25.9-90.4-77.8
	C55.4,369.9,40.7,319.5,40.7,271c0-45.7,11.3-83.1,34-112.4c22.4-28.8,50.9-43.3,85.3-43.3c14.4,0,32.2,3,53.2,9
	c20.8,6,34.7,9,41.5,9c9,0,23.3-3.4,43-10.2c20.4-6.8,37.8-10.2,52-10.2c23.8,0,45.2,6.5,64,19.5c10.4,7.2,20.8,17.2,31.3,30
	C429,176,417.6,187.8,410.6,198c-13,18.8-19.5,39.6-19.5,62.2c0,24.8,6.9,47.2,20.7,67C425.6,347.1,441.5,359.7,459.3,365.1z
	 M346.3,12.6c0,12.2-2.9,25.8-8.7,40.9c-6,15-15.3,28.8-27.9,41.5c-10.8,10.8-21.6,18-32.5,21.6c-7.4,2.2-17.8,3.9-31.3,5.1
	c0.6-29.8,8.4-55.6,23.4-77.2C284.2,23,309.2,8.2,344.5,0c0.2,0.6,0.5,1.7,0.8,3.3s0.6,2.7,0.8,3.3c0,0.8,0.1,1.8,0.2,3
	C346.3,10.8,346.3,11.8,346.3,12.6z"/>
</svg>
