<?xml version="1.0" encoding="utf-8"?>
<!-- Generator: Adobe Illustrator 18.0.0, SVG Export Plug-In . SVG Version: 6.00 Build 0)  -->
<!DOCTYPE svg PUBLIC "-//W3C//DTD SVG 1.1//EN" "http://www.w3.org/Graphics/SVG/1.1/DTD/svg11.dtd">
<svg version="1.1" id="图层_1" xmlns="http://www.w3.org/2000/svg" xmlns:xlink="http://www.w3.org/1999/xlink" x="0px" y="0px"
	 viewBox="0 0 500 500" enable-background="new 0 0 500 500" xml:space="preserve">
<path fill="#999999" d="M223.6,239.2c0,7.2,3.2,14.3,9.6,21.2c6.4,6.9,14.2,13.7,23.3,20.4c9.1,6.7,18.2,14.1,27.2,22.1
	c9,8,16.7,18.4,23.1,31.3s9.6,27,9.6,42.7c0,18-4.8,35.4-14.4,52c-14.4,24.4-35.6,42.4-63.4,53.9S180.9,500,149,500
	c-26.4,0-51.1-4.2-74.1-12.5c-22.9-8.3-40.1-22.1-51.5-41.3c-7.4-12-11.1-25.1-11.1-39.4c0-16.2,4.5-31.3,13.4-45.1
	s20.8-25.3,35.6-34.6c26.2-16.4,66.7-26.4,121.4-30c-6.4-8.4-11.2-15.8-14.3-22.2c-3.1-6.4-4.7-13.7-4.7-21.9
	c0-7.2,2.1-15.7,6.3-25.5c-9.2,0.8-16,1.2-20.4,1.2c-29.6,0-54.6-9.7-75-29s-30.5-43.8-30.5-73.5c0-16.4,3.6-32.4,10.8-47.8
	s17.1-28.5,29.7-39.4c15.4-13.2,33.7-23,54.8-29.4S182.5,0,204.9,0h125.6l-41.5,26.4h-39.4c14.8,12.6,26,25.9,33.7,40
	s11.4,30,11.4,48.1c0,14.4-2.5,27.4-7.4,38.9c-4.9,11.5-10.8,20.8-17.7,27.9c-6.9,7.1-13.9,13.6-20.9,19.5c-7,5.9-13,12.1-17.9,18.5
	C226,225.8,223.6,232.4,223.6,239.2z M179.7,210.3c7.6,0,15.4-1.7,23.4-5c8-3.3,14.6-7.7,19.8-13.1c10.6-11.4,15.9-27.3,15.9-47.8
	c0-11.6-1.7-24.1-5.1-37.6s-8.3-26.4-14.6-38.9c-6.3-12.5-14.8-22.9-25.4-31.1c-10.6-8.2-22.3-12.3-35.2-12.3
	c-8.4,0-16.7,2-24.8,5.9s-14.7,9.2-19.7,15.8c-9.4,11.8-14.1,27.8-14.1,48.1c0,9.2,1,19,3,29.3s5.2,20.6,9.5,30.9
	c4.3,10.3,9.5,19.6,15.6,27.8c6.1,8.2,13.6,14.9,22.5,20.1C159.6,207.7,169.3,210.3,179.7,210.3z M180.3,472.7
	c11.6,0,22.8-1.3,33.5-3.9s20.6-6.5,29.7-11.7s16.4-12.5,21.9-21.9s8.3-20.3,8.3-32.8c0-5-0.7-9.9-2.1-14.7c-1.4-4.8-2.9-9-4.4-12.6
	s-4.2-7.8-8.1-12.5c-3.9-4.7-6.9-8.2-8.9-10.5c-2-2.3-5.9-5.8-11.6-10.4c-5.7-4.6-9.4-7.5-11-8.7c-1.6-1.2-5.8-4.2-12.5-9
	c-6.7-4.8-10.4-7.4-11-7.8c-3.2-0.4-8-0.6-14.4-0.6c-10.6,0-21.1,0.7-31.6,2.1c-10.4,1.4-21.2,3.9-32.3,7.5
	c-11.1,3.6-20.8,8.2-29.1,13.8c-8.3,5.6-15.2,13.1-20.6,22.4s-8.1,19.9-8.1,31.7c0,14,3.5,26.4,10.5,37.1s16.2,19,27.5,24.9
	s23.2,10.3,35.8,13.2C154.5,471.2,167.3,472.7,180.3,472.7z M423.7,209.4h64v32.5h-64v65.8h-31.6v-65.8h-63.7v-32.5h63.7v-65.2h31.6
	V209.4z"/>
</svg>
