<?xml version="1.0" encoding="utf-8"?>
<!-- Generator: Adobe Illustrator 18.0.0, SVG Export Plug-In . SVG Version: 6.00 Build 0)  -->
<!DOCTYPE svg PUBLIC "-//W3C//DTD SVG 1.1//EN" "http://www.w3.org/Graphics/SVG/1.1/DTD/svg11.dtd">
<svg version="1.1" id="图层_1" xmlns="http://www.w3.org/2000/svg" xmlns:xlink="http://www.w3.org/1999/xlink" x="0px" y="0px"
	 viewBox="0 0 500 500" enable-background="new 0 0 500 500" xml:space="preserve">
<path fill="#999999" d="M192.3,326.9c0,8-1.3,16.2-3.8,24.6s-6.8,16-12.9,22.8s-13.4,10.2-21.8,10.2c-8.4,0-15.7-3.4-21.8-10.2
	s-10.4-14.4-12.9-22.8s-3.8-16.6-3.8-24.6c0-8,1.3-16.2,3.8-24.6c2.5-8.4,6.8-16,12.9-22.8s13.4-10.2,21.8-10.2
	c8.4,0,15.7,3.4,21.8,10.2s10.4,14.4,12.9,22.8C191.1,310.7,192.3,318.9,192.3,326.9z M384.6,326.9c0,8-1.3,16.2-3.8,24.6
	s-6.8,16-12.9,22.8c-6.1,6.8-13.4,10.2-21.8,10.2c-8.4,0-15.7-3.4-21.8-10.2c-6.1-6.8-10.4-14.4-12.9-22.8
	c-2.5-8.4-3.8-16.6-3.8-24.6c0-8,1.3-16.2,3.8-24.6c2.5-8.4,6.8-16,12.9-22.8c6.1-6.8,13.4-10.2,21.8-10.2c8.4,0,15.7,3.4,21.8,10.2
	c6.1,6.8,10.4,14.4,12.9,22.8C383.4,310.7,384.6,318.9,384.6,326.9z M432.7,326.9c0-24-6.9-44.5-20.7-61.3s-32.6-25.2-56.2-25.2
	c-8.2,0-27.7,2.1-58.6,6.3c-14.2,2.2-29.9,3.3-47.2,3.3s-33-1.1-47.2-3.3c-30.4-4.2-50-6.3-58.6-6.3c-23.6,0-42.4,8.4-56.2,25.2
	s-20.7,37.3-20.7,61.3c0,17.6,3.2,33,9.6,46.1c6.4,13.1,14.5,23.4,24.3,30.9s22,13.5,36.7,18c14.6,4.5,28.6,7.5,42.1,8.9
	c13.4,1.4,28.3,2.1,44.8,2.1h50.5c16.4,0,31.4-0.7,44.8-2.1c13.4-1.4,27.4-4.4,42.1-8.9s26.8-10.5,36.7-18
	c9.8-7.5,17.9-17.8,24.3-30.9C429.5,359.9,432.7,344.6,432.7,326.9z M500,274c0,41.5-6.1,74.6-18.3,99.5
	c-7.6,15.4-18.2,28.7-31.7,40s-27.6,19.8-42.4,25.8c-14.7,6-31.8,10.8-51.1,14.3c-19.3,3.5-36.5,5.7-51.5,6.6
	c-15,0.9-31.8,1.4-50.2,1.4c-15.6,0-29.8-0.3-42.7-0.9c-12.8-0.6-27.6-1.9-44.3-3.8s-32-4.9-45.8-9c-13.8-4.1-27.5-9.3-41.2-15.5
	c-13.6-6.2-25.7-14.3-36.4-24.3c-10.6-10-19.2-21.5-25.8-34.6C6.2,348.9,0,315.7,0,274c0-47.5,13.6-87.1,40.9-119
	c-5.4-16.4-8.1-33.5-8.1-51.1c0-23.2,5.1-45.1,15.3-65.5c21.6,0,40.7,4,57.1,11.9s35.4,20.3,56.8,37.1c29.4-7,60.4-10.5,92.8-10.5
	c29.6,0,57.7,3.2,84.1,9.6c21-16.4,39.8-28.5,56.2-36.4s35.4-11.7,56.8-11.7c10.2,20.4,15.3,42.3,15.3,65.5
	c0,17.4-2.7,34.3-8.1,50.5C486.4,186.5,500,226.4,500,274z"/>
</svg>
