<?xml version="1.0" encoding="utf-8"?>
<!-- Generator: Adobe Illustrator 18.0.0, SVG Export Plug-In . SVG Version: 6.00 Build 0)  -->
<!DOCTYPE svg PUBLIC "-//W3C//DTD SVG 1.1//EN" "http://www.w3.org/Graphics/SVG/1.1/DTD/svg11.dtd">
<svg version="1.1" id="图层_1" xmlns="http://www.w3.org/2000/svg" xmlns:xlink="http://www.w3.org/1999/xlink" x="0px" y="0px"
	 viewBox="0 0 500 500" enable-background="new 0 0 500 500" xml:space="preserve">
<path fill="#999999" d="M166,422.4c0-18.6-15.3-27.9-46-27.9c-29.4,0-44.1,9.7-44.1,29c0,18.8,16,28.2,48,28.2
	C152,451.7,166,442,166,422.4z M149.6,211.8c0-11.3-2.8-20.8-8.4-28.5c-5.6-7.6-13.9-11.4-24.8-11.4c-23.1,0-34.6,13.5-34.6,40.5
	c0,25.1,11.5,37.7,34.6,37.7C138.5,250,149.6,237.3,149.6,211.8z M224.6,121.4v56.4c-6.7,2.2-14,4.3-22,6.1c3,8,4.5,15.8,4.5,23.4
	c0,23.6-6.8,43.8-20.4,60.4s-31.9,27.1-55,31.4c-7.4,1.5-13,4-16.6,7.5c-3.6,3.5-5.4,8.9-5.4,16.2c0,5.8,2.1,10.6,6.3,14.4
	c4.2,3.8,9.6,6.8,16.2,8.9c6.6,2.1,13.9,4.2,21.9,6.1s16,4.3,24,7.1s15.3,6.3,21.9,10.5c6.6,4.2,12,10.1,16.2,17.9
	c4.2,7.7,6.3,16.9,6.3,27.5c0,56.5-33.8,84.8-101.3,84.8c-12.8,0-24.9-1.2-36.3-3.5s-22.1-6.1-32.4-11.4S34.1,472.1,28,462.2
	S19,440.4,19,426.6c0-30.7,16.9-51.6,50.8-62.8v-1.1c-12.5-7.6-18.7-19.3-18.7-35.2c0-20.3,5.9-33,17.6-38.2v-1.1
	c-13.4-4.5-24.5-14.6-33.3-30.3C26.5,242.2,22,226.8,22,211.8c0-25.9,8.8-47.4,26.5-64.6s39.5-25.8,65.6-25.8
	c17.9,0,34.4,4.4,49.7,13.1C182,134.5,202.3,130.1,224.6,121.4z M313.3,367.2h-61.9c0.7-8.4,1.1-20.8,1.1-37.4V159.9
	c0-17.5-0.4-29.4-1.1-35.7h61.9c-0.7,6.1-1.1,17.7-1.1,34.6v171C312.2,346.4,312.6,358.8,313.3,367.2z M481,305.2v54.7
	c-13.2,7.3-29.4,10.9-48.5,10.9c-11.5,0-21.5-1.9-29.9-5.6s-14.9-8.4-19.5-14c-4.7-5.6-8.3-12.8-11-21.8c-2.7-8.9-4.4-17.5-5.2-25.7
	c-0.7-8.2-1.1-17.8-1.1-28.7v-97.9h0.6v-1.1c-1.3,0-3.1-0.1-5.3-0.3s-3.9-0.3-5-0.3c-3.9,0-9.4,0.6-16.5,1.7v-53h26.8V103
	c0-10-0.6-18.3-1.7-24.8H428c-1.1,7.6-1.7,23-1.7,46h47.7v53c-2.8,0-6.8-0.2-12.1-0.6c-5.3-0.4-9.3-0.6-11.9-0.6h-23.7v101.8
	c0,24.4,8.1,36.6,24.3,36.6C462,314.5,472.1,311.4,481,305.2z M320.3,41c0,10.8-3.6,20.2-10.9,28.3c-7.3,8.1-16.2,12.1-26.8,12.1
	c-10.8,0-19.9-4-27.3-12.1c-7.4-8.1-11.2-17.5-11.2-28.3c0-11,3.7-20.6,11-28.7S271.7,0,282.6,0c10.8,0,19.8,4.1,26.9,12.4
	S320.3,30.2,320.3,41z"/>
</svg>
