<?xml version="1.0" encoding="utf-8"?>
<!-- Generator: Adobe Illustrator 18.0.0, SVG Export Plug-In . SVG Version: 6.00 Build 0)  -->
<!DOCTYPE svg PUBLIC "-//W3C//DTD SVG 1.1//EN" "http://www.w3.org/Graphics/SVG/1.1/DTD/svg11.dtd">
<svg version="1.1" id="图层_1" xmlns="http://www.w3.org/2000/svg" xmlns:xlink="http://www.w3.org/1999/xlink" x="0px" y="0px"
	 viewBox="0 0 500 500" enable-background="new 0 0 500 500" xml:space="preserve">
<path fill="#999999" d="M189.5,384.1c0,14.3-10.1,21.5-30.3,21.5c-23.2,0-34.8-6.8-34.8-20.5c0-13.9,10.6-20.8,31.9-20.8
	C178.4,364.3,189.5,370.9,189.5,384.1z M177.7,232.4c0,18.4-8,27.7-24.1,27.7c-16.7,0-25.1-9.1-25.1-27.3c0-19.5,8.4-29.3,25.1-29.3
	c7.8,0,13.8,2.8,17.9,8.3C175.7,217.3,177.7,224.2,177.7,232.4z M231.8,208v-40.7c-16.9,6.3-31.6,9.4-43.9,9.4
	c-10.9-6.3-22.8-9.4-35.8-9.4c-18.7,0-34.4,6.2-47.2,18.6c-12.8,12.4-19.2,27.9-19.2,46.5c0,10.9,3.2,21.9,9.6,33.2
	s14.4,18.6,23.9,21.8v1c-8.2,3.7-12.4,12.9-12.4,27.7c0,11.5,4.4,19.9,13.3,25.1v1c-24.5,8-36.8,23.1-36.8,45.2
	c0,9.8,2.2,18.3,6.5,25.6c4.3,7.3,10.2,12.8,17.6,16.6s15.2,6.6,23.4,8.3c8.2,1.7,17,2.6,26.4,2.6c48.6,0,72.9-20.4,72.9-61.2
	c0-14.5-5.2-25.3-15.6-32.2c-10.4-6.9-24.1-11.9-41-15c-5.9-1.1-11.4-3.3-16.8-6.7c-5.3-3.4-8-7.6-8-12.9c0-9.5,5.3-15.2,16-16.9
	c16.7-3.3,29.9-10.9,39.7-22.8c9.8-11.9,14.6-26.5,14.6-43.6c0-5.2-1.1-10.9-3.3-16.9C223.8,210.3,229.2,208.9,231.8,208z
	 M251,344.4h44.6c-0.4-5.9-0.7-14.8-0.7-26.7v-126c0-10,0.2-17.5,0.7-22.5H251c0.7,5,1,12.7,1,23.1V320
	C252,330.8,251.6,339,251,344.4z M416.7,339.2v-39.4c-6.5,4.6-13.9,6.8-22.1,6.8c-11.5,0-17.3-8.9-17.3-26.7v-73.2h16.9
	c2,0,4.8,0.1,8.6,0.3s6.7,0.3,8.6,0.3v-38.1h-34.2c0-17.8,0.3-28.9,1-33.2h-45.6c0.9,5.2,1.3,11.2,1.3,17.9v15.3h-19.5v38.1
	c7.8-0.7,11.8-1,12-1c0.7,0,1.8,0.1,3.6,0.2s3,0.2,3.9,0.2v0.7h-0.7V278c0,8,0.3,15,0.8,20.8c0.5,5.9,1.8,12,3.7,18.4
	c2,6.4,4.6,11.7,8,15.8c3.4,4.1,8.1,7.5,14.2,10.1c6.1,2.6,13.2,3.9,21.5,3.9C395.4,347,407.1,344.4,416.7,339.2z M300.8,109.4
	c0-7.8-2.6-14.7-7.8-20.7c-5.2-6-11.7-9-19.5-9s-14.4,2.9-19.7,8.8c-5.3,5.9-8,12.8-8,20.8c0,7.8,2.7,14.6,8.1,20.3
	c5.4,5.8,11.9,8.6,19.5,8.6s14.1-2.9,19.4-8.8C298.1,123.7,300.8,117,300.8,109.4z M500,93.8v312.5c0,25.8-9.2,47.9-27.5,66.2
	c-18.3,18.3-40.4,27.5-66.2,27.5H93.8c-25.8,0-47.9-9.2-66.2-27.5C9.2,454.2,0,432.1,0,406.3V93.8c0-25.8,9.2-47.9,27.5-66.2
	S67.9,0,93.8,0h312.5c25.8,0,47.9,9.2,66.2,27.5C490.8,45.8,500,67.9,500,93.8z"/>
</svg>
