<?xml version="1.0" encoding="utf-8"?>
<!-- Generator: Adobe Illustrator 18.0.0, SVG Export Plug-In . SVG Version: 6.00 Build 0)  -->
<!DOCTYPE svg PUBLIC "-//W3C//DTD SVG 1.1//EN" "http://www.w3.org/Graphics/SVG/1.1/DTD/svg11.dtd">
<svg version="1.1" id="图层_1" xmlns="http://www.w3.org/2000/svg" xmlns:xlink="http://www.w3.org/1999/xlink" x="0px" y="0px"
	 viewBox="0 0 500 500" enable-background="new 0 0 500 500" xml:space="preserve">
<path fill="#999999" d="M500,256.1c0,54.5-15.9,103.5-47.7,147s-72.9,73.6-123.2,90.3c-5.9,1.1-10.1,0.3-12.9-2.3
	c-2.7-2.6-4.1-5.9-4.1-9.8v-68.7c0-21.1-5.6-36.5-16.9-46.2c12.4-1.3,23.5-3.3,33.4-5.9c9.9-2.6,20.1-6.8,30.6-12.7
	c10.5-5.9,19.3-13.1,26.4-21.6c7.1-8.6,12.8-20,17.3-34.2s6.7-30.5,6.7-49c0-26.3-8.6-48.6-25.7-67.1c8-19.7,7.2-41.9-2.6-66.4
	c-6.1-2-14.9-0.8-26.4,3.6c-11.5,4.3-21.5,9.1-29.9,14.3l-12.4,7.8c-20.2-5.6-41-8.5-62.5-8.5s-42.3,2.8-62.5,8.5
	c-3.5-2.4-8.1-5.3-13.8-8.8c-5.8-3.5-14.8-7.6-27.2-12.5s-21.7-6.3-28-4.4c-9.5,24.5-10.3,46.7-2.3,66.4
	c-17.1,18.4-25.7,40.8-25.7,67.1c0,18.4,2.2,34.7,6.7,48.8c4.4,14.1,10.1,25.5,17.1,34.2s15.7,16,26.2,21.8
	c10.5,5.9,20.7,10.1,30.6,12.7c9.9,2.6,21,4.6,33.4,5.9c-8.7,7.8-14,19-16,33.5c-4.6,2.2-9.4,3.8-14.6,4.9s-11.4,1.6-18.6,1.6
	s-14.3-2.3-21.3-7c-7.1-4.7-13.1-11.4-18.1-20.3c-4.1-6.9-9.4-12.6-15.8-16.9s-11.8-6.9-16.1-7.8l-6.5-1c-4.6,0-7.7,0.5-9.4,1.5
	s-2.3,2.2-1.6,3.7c0.7,1.5,1.6,3,2.9,4.6s2.7,2.8,4.2,3.9l2.3,1.6c4.8,2.2,9.5,6.3,14.2,12.4c4.7,6.1,8.1,11.6,10.3,16.6l3.3,7.5
	c2.8,8.2,7.6,14.9,14.3,20c6.7,5.1,14,8.4,21.8,9.8s15.4,2.2,22.6,2.3s13.3-0.3,18.1-1.1l7.5-1.3c0,8.2,0.1,17.9,0.2,29
	s0.2,16.9,0.2,17.6c0,3.9-1.4,7.2-4.2,9.8c-2.8,2.6-7.2,3.4-13,2.3c-50.3-16.7-91.4-46.8-123.2-90.3S0,310.6,0,256.1
	c0-45.4,11.2-87.2,33.5-125.5s52.7-68.6,91-91S204.6,6.1,250,6.1s87.2,11.2,125.5,33.5s68.6,52.7,91,91S500,210.8,500,256.1z"/>
</svg>
