<?xml version="1.0" encoding="utf-8"?>
<!-- Generator: Adobe Illustrator 18.0.0, SVG Export Plug-In . SVG Version: 6.00 Build 0)  -->
<!DOCTYPE svg PUBLIC "-//W3C//DTD SVG 1.1//EN" "http://www.w3.org/Graphics/SVG/1.1/DTD/svg11.dtd">
<svg version="1.1" id="图层_1" xmlns="http://www.w3.org/2000/svg" xmlns:xlink="http://www.w3.org/1999/xlink" x="0px" y="0px"
	 viewBox="0 0 500 500" enable-background="new 0 0 500 500" xml:space="preserve">
<path fill="#999999" d="M128.3,398.4c-1.7,2-3.9,1.6-6.5-1c-2.8-2.4-3.3-4.4-1.3-6.2c1.7-2,3.9-1.6,6.5,1
	C129.6,394.6,130,396.7,128.3,398.4z M114.6,378.6c2,2.6,2,4.7,0,6.2c-1.7,1.3-3.6,0.5-5.5-2.3s-2-4.8,0-5.9
	C111,375.1,112.8,375.8,114.6,378.6z M94.7,359c-1.1,1.5-2.5,1.7-4.2,0.7c-2.2-1.1-2.9-2.4-2.3-3.9c0.7-1.1,2.1-1.3,4.2-0.7
	C94.6,356.2,95.4,357.5,94.7,359z M104.8,370.1c-1.3,1.5-3,1.2-5.2-1c-2-2.4-2.2-4.1-0.7-5.2c1.3-1.3,3-1,5.2,1
	C106.1,367.3,106.3,369,104.8,370.1z M146.8,406.6c-0.9,2.6-2.9,3.3-6.2,2c-3.7-0.9-5.1-2.5-4.2-4.9c0.9-2.4,2.9-3.1,6.2-2.3
	C146.1,402.5,147.5,404.2,146.8,406.6z M167.3,408.2c0,2.4-1.7,3.6-5.2,3.6c-3.7,0.4-5.5-0.8-5.5-3.6c0-2.4,1.7-3.6,5.2-3.6
	C165.5,404.2,167.3,405.4,167.3,408.2z M186.2,404.9c0.4,2.2-1.1,3.7-4.6,4.6s-5.4,0-5.9-2.6c-0.4-2.6,1.1-4.2,4.6-4.9
	C183.8,401.6,185.8,402.6,186.2,404.9z M500,93.8v312.5c0,25.8-9.2,47.9-27.5,66.2c-18.3,18.3-40.4,27.5-66.2,27.5h-72.9
	c-3.5,0-6.1-0.1-8-0.3c-1.8-0.2-4-0.8-6.3-1.6c-2.4-0.9-4.1-2.4-5.2-4.7c-1.1-2.3-1.6-5.3-1.6-9v-77.8c0-21.1-5.6-36.5-16.9-46.2
	c12.4-1.3,23.5-3.3,33.4-5.9s20.1-6.8,30.6-12.7c10.5-5.9,19.3-13.1,26.4-21.6c7.1-8.6,12.8-20,17.3-34.2c4.4-14.2,6.7-30.5,6.7-49
	c0-26.3-8.6-48.6-25.7-67.1c8-19.7,7.2-41.9-2.6-66.4c-6.1-2-14.9-0.8-26.4,3.6c-11.5,4.3-21.5,9.1-29.9,14.3l-12.4,7.8
	c-20.2-5.6-41-8.5-62.5-8.5s-42.3,2.8-62.5,8.5c-3.5-2.4-8.1-5.3-13.8-8.8c-5.8-3.5-14.8-7.6-27.2-12.5s-21.7-6.3-28-4.4
	c-9.5,24.5-10.3,46.7-2.3,66.4c-17.1,18.4-25.7,40.8-25.7,67.1c0,18.4,2.2,34.7,6.7,48.8c4.4,14.1,10.1,25.5,17.1,34.2
	s15.7,16,26.2,21.8c10.5,5.9,20.7,10.1,30.6,12.7c9.9,2.6,21,4.6,33.4,5.9c-8.7,7.8-14,19-16,33.5c-4.6,2.2-9.4,3.8-14.6,4.9
	s-11.4,1.6-18.6,1.6s-14.3-2.3-21.3-7c-7.1-4.7-13.1-11.4-18.1-20.3c-4.1-6.9-9.4-12.6-15.8-16.9c-6.4-4.3-11.8-6.9-16.1-7.8l-6.5-1
	c-4.6,0-7.7,0.5-9.4,1.5s-2.3,2.2-1.6,3.7s1.6,3,2.9,4.6c1.3,1.5,2.7,2.8,4.2,3.9l2.3,1.6c4.8,2.2,9.5,6.3,14.2,12.4
	s8.1,11.6,10.3,16.6l3.3,7.5c2.8,8.2,7.6,14.9,14.3,20c6.7,5.1,14,8.4,21.8,9.8c7.8,1.4,15.4,2.2,22.6,2.3s13.3-0.3,18.1-1.1
	l7.5-1.3c0,8.2,0.1,19.4,0.2,33.5c0.1,14.1,0.2,21.5,0.2,22.1c0,4.8-1.2,8.4-3.6,10.9c-2.4,2.5-4.8,3.9-7.2,4.2s-6,0.5-10.7,0.5
	H93.8c-25.8,0-47.9-9.2-66.2-27.5C9.2,454.2,0,432.1,0,406.3V93.8c0-25.8,9.2-47.9,27.5-66.2S67.9,0,93.8,0h312.5
	c25.8,0,47.9,9.2,66.2,27.5C490.8,45.8,500,67.9,500,93.8z"/>
</svg>
