<?xml version="1.0" encoding="utf-8"?>
<!-- Generator: Adobe Illustrator 18.0.0, SVG Export Plug-In . SVG Version: 6.00 Build 0)  -->
<!DOCTYPE svg PUBLIC "-//W3C//DTD SVG 1.1//EN" "http://www.w3.org/Graphics/SVG/1.1/DTD/svg11.dtd">
<svg version="1.1" id="图层_1" xmlns="http://www.w3.org/2000/svg" xmlns:xlink="http://www.w3.org/1999/xlink" x="0px" y="0px"
	 viewBox="0 0 500 500" enable-background="new 0 0 500 500" xml:space="preserve">
<path fill="#999999" d="M251.6,382.2l113.9-154c3.5-4.8,6.1-11.2,8-19.2s1.2-17.3-2-27.7c-3.1-10.4-9.8-19-20-25.7
	c-8.7-5.6-17.7-8.4-27-8.3c-9.3,0.1-17.3,2-23.9,5.7c-6.6,3.7-12.5,8.6-17.7,14.6c-7.8,8.7-18.2,13-31.2,13
	c-12.8,0-23.1-4.3-30.9-13c-5.2-6.1-11.1-11-17.7-14.6c-6.6-3.7-14.6-5.6-23.9-5.7c-9.3-0.1-18.4,2.7-27.3,8.3
	c-10,6.7-16.5,15.3-19.7,25.7c-3.1,10.4-3.8,19.6-2,27.7c1.8,8,4.5,14.4,8,19.2L251.6,382.2z M500,250c0,45.4-11.2,87.2-33.5,125.5
	s-52.7,68.6-91,91S295.4,500,250,500s-87.2-11.2-125.5-33.5s-68.6-52.7-91-91S0,295.4,0,250s11.2-87.2,33.5-125.5s52.7-68.6,91-91
	S204.6,0,250,0s87.2,11.2,125.5,33.5s68.6,52.7,91,91S500,204.6,500,250z"/>
</svg>
