<?xml version="1.0" encoding="utf-8"?>
<!-- Generator: Adobe Illustrator 18.0.0, SVG Export Plug-In . SVG Version: 6.00 Build 0)  -->
<!DOCTYPE svg PUBLIC "-//W3C//DTD SVG 1.1//EN" "http://www.w3.org/Graphics/SVG/1.1/DTD/svg11.dtd">
<svg version="1.1" id="图层_1" xmlns="http://www.w3.org/2000/svg" xmlns:xlink="http://www.w3.org/1999/xlink" x="0px" y="0px"
	 viewBox="0 0 500 500" enable-background="new 0 0 500 500" xml:space="preserve">
<path fill="#999999" d="M451.2,114H326.4v30.3h124.8V114z M389.6,218c-14.6,0-26.5,4.3-35.6,12.8s-14.2,20.1-15.1,34.8h99.6
	C435.5,233.9,419.3,218,389.6,218z M393.6,360.8c10.3,0,20.2-2.6,29.8-7.8s15.8-12.3,18.6-21.2h54c-16.3,50-51,75-104.2,75
	c-34.8,0-62.5-10.7-83.1-32.2s-30.9-49.7-30.9-84.7c0-33.9,10.6-62,31.9-84.4s48.6-33.6,82.2-33.6c22.5,0,42,5.5,58.7,16.6
	s29.1,25.6,37.4,43.7s12.3,38.2,12.3,60.5c0,2.8-0.2,6.6-0.5,11.5H338.9c0,18.1,4.7,32,14,41.9S375.8,360.8,393.6,360.8z
	 M67.6,348.6h72.3c33.4,0,50-13.6,50-40.8c0-29.3-16.2-43.9-48.6-43.9H67.6V348.6z M67.6,217.5h68.6c12.7,0,22.7-3,30.2-8.9
	s11.1-15.2,11.1-27.7c0-23.4-15.5-35.2-46.4-35.2H67.6V217.5z M0,93.3h145c14.2,0,26.8,1.1,37.8,3.4s21.4,6.1,30.9,11.6
	s16.8,13.3,22,23.6s7.7,22.8,7.7,37.6c0,29.5-14,50.9-42,64.2c18.6,5.2,32.6,14.6,42,28.1c9.4,13.5,14.2,30.1,14.2,49.8
	c0,12.2-2,23.3-6,33.3s-9.4,18.4-16.1,25.3s-14.8,12.6-24,17.3s-19.1,8.1-29.5,10.3s-21.3,3.2-32.7,3.2H0V93.3z"/>
</svg>
