<?xml version="1.0" encoding="utf-8"?>
<!-- Generator: Adobe Illustrator 18.0.0, SVG Export Plug-In . SVG Version: 6.00 Build 0)  -->
<!DOCTYPE svg PUBLIC "-//W3C//DTD SVG 1.1//EN" "http://www.w3.org/Graphics/SVG/1.1/DTD/svg11.dtd">
<svg version="1.1" id="图层_1" xmlns="http://www.w3.org/2000/svg" xmlns:xlink="http://www.w3.org/1999/xlink" x="0px" y="0px"
	 viewBox="0 0 500 500" enable-background="new 0 0 500 500" xml:space="preserve">
<path fill="#999999" d="M403.2,153.8c3.6,36.5-9.5,62.3-39.4,77.5c23.4,5.6,41,15.9,52.6,30.9c11.6,15,16.1,36.5,13.5,64.3
	c-1.4,14.2-4.7,26.7-9.8,37.6c-5.1,10.8-11.6,19.7-19.4,26.7s-17.5,12.9-29.1,17.6c-11.6,4.7-23.8,8.2-36.5,10.4
	c-12.7,2.2-27.3,3.7-43.7,4.5V500h-46.3v-75.4c-16,0-28.2-0.1-36.7-0.3V500h-46.3v-76.6c-3.6,0-9-0.1-16.2-0.2
	c-7.2-0.1-12.7-0.2-16.5-0.2H69.4l9.3-55H112c10,0,15.8-5.1,17.4-15.3V232h4.8c-1.2-0.2-2.8-0.3-4.8-0.3v-86.2
	c-2.6-13.6-11.5-20.4-26.7-20.4H69.4V75.7l63.7,0.3c12.8,0,22.5-0.1,29.1-0.3V0h46.3v74.2c16.4-0.4,28.6-0.6,36.7-0.6V0h46.3v75.7
	c15.8,1.4,29.8,3.7,42.1,6.8s23.5,7.6,34,13.5c10.4,5.9,18.7,13.7,24.8,23.4C398.3,129.2,402,140.6,403.2,153.8z M338.6,317.6
	c0-7.2-1.5-13.6-4.5-19.2c-3-5.6-6.7-10.2-11.1-13.8s-10.2-6.7-17.3-9.2c-7.1-2.5-13.7-4.4-19.7-5.6c-6-1.2-13.4-2.1-22.2-2.7
	c-8.8-0.6-15.7-0.9-20.7-0.9c-5,0-11.5,0.1-19.4,0.3c-7.9,0.2-12.7,0.3-14.3,0.3v101.6c1.6,0,5.3,0.1,11.1,0.2
	c5.8,0.1,10.6,0.2,14.4,0.2c3.8,0,9.1-0.2,15.9-0.5c6.8-0.3,12.7-0.7,17.6-1.2c4.9-0.5,10.6-1.4,17.1-2.6c6.5-1.2,12.1-2.6,16.7-4.2
	c4.6-1.6,9.4-3.7,14.3-6.3s8.9-5.6,11.9-9c3-3.4,5.5-7.4,7.4-12C337.6,328.3,338.6,323.2,338.6,317.6z M317.3,174.6
	c0-6.6-1.3-12.5-3.8-17.6c-2.5-5.1-5.6-9.3-9.2-12.6c-3.6-3.3-8.4-6.1-14.4-8.4s-11.5-4-16.5-5c-5-1-11.2-1.8-18.5-2.4
	c-7.3-0.6-13.1-0.9-17.4-0.8c-4.3,0.1-9.7,0.2-16.2,0.3c-6.5,0.1-10.5,0.2-11.9,0.2v92.2c1,0,4.5,0.1,10.4,0.2
	c5.9,0.1,10.6,0.1,14,0s8.4-0.3,15-0.6c6.6-0.3,12.1-0.9,16.5-1.7c4.4-0.8,9.6-1.9,15.5-3.3c5.9-1.4,10.8-3.3,14.6-5.6
	c3.8-2.3,7.5-5,11.1-8.1c3.6-3.1,6.3-7,8.1-11.6C316.3,185.3,317.3,180.2,317.3,174.6z"/>
</svg>
