<?xml version="1.0" encoding="utf-8"?>
<!-- Generator: Adobe Illustrator 18.0.0, SVG Export Plug-In . SVG Version: 6.00 Build 0)  -->
<!DOCTYPE svg PUBLIC "-//W3C//DTD SVG 1.1//EN" "http://www.w3.org/Graphics/SVG/1.1/DTD/svg11.dtd">
<svg version="1.1" id="图层_1" xmlns="http://www.w3.org/2000/svg" xmlns:xlink="http://www.w3.org/1999/xlink" x="0px" y="0px"
	 viewBox="0 0 500 500" enable-background="new 0 0 500 500" xml:space="preserve">
<path fill="#999999" d="M-49.1-47.4c0-12.5-8.3-18.8-24.9-18.8h-34.1v38.5h36.8C-56.5-27.8-49.1-34.3-49.1-47.4z"/>
<path fill="#999999" d="M64.4-27.6c-7.8,0-14.2,2.3-19,6.9S37.8-9.9,37.2-2.1h53.1C88.8-19.1,80.1-27.6,64.4-27.6z"/>
<path fill="#999999" d="M-68.6-3.1h-39.5v45.4h38.7c17.8,0,26.8-7.3,26.8-21.7C-42.6,4.7-51.3-3.1-68.6-3.1z"/>
<path fill="#999999" d="M472.5,27.5C454.2,9.2,432.1,0,406.3,0H93.8C67.9,0,45.8,9.2,27.5,27.5S0,67.9,0,93.8v312.5
	c0,25.8,9.2,47.9,27.5,66.2S67.9,500,93.8,500h312.5c25.8,0,47.9-9.2,66.2-27.5s27.5-40.4,27.5-66.2V93.8
	C500,67.9,490.8,45.8,472.5,27.5z M313.8,136.7h103.8v25.1H313.8V136.7z M230.1,356.9c-17.4,12.5-38.7,18.7-64.1,18.7H41.7V119.5
	h120.8c11.9,0,22.5,0.9,31.6,2.8c9.1,1.9,17.7,5,25.7,9.6c8,4.6,14.2,11.1,18.4,19.7c4.2,8.6,6.3,19,6.3,31.4
	c0,24.3-11.6,42.1-34.8,53.4c31,9.1,46.5,30.8,46.5,65.1C256.2,325.9,247.5,344.5,230.1,356.9z M458,295.2H324.2
	c0,15,3.9,26.6,11.7,34.8s19.1,12.4,33.9,12.4c8.5,0,16.7-2.2,24.6-6.5c7.9-4.3,13.1-10.2,15.5-17.6h44.9
	c-13.4,41.4-42.4,62.2-86.9,62.2c-29.1,0-52.2-8.9-69.3-26.7s-25.7-41.3-25.7-70.6c0-28.2,8.9-51.7,26.7-70.3s40.6-28,68.4-28
	c28,0,50.1,9.6,66.2,28.8s24.3,43.1,24.3,71.8C458.3,289.8,458.2,293.1,458,295.2z"/>
</svg>
