<?xml version="1.0" encoding="utf-8"?>
<!-- Generator: Adobe Illustrator 18.0.0, SVG Export Plug-In . SVG Version: 6.00 Build 0)  -->
<!DOCTYPE svg PUBLIC "-//W3C//DTD SVG 1.1//EN" "http://www.w3.org/Graphics/SVG/1.1/DTD/svg11.dtd">
<svg version="1.1" id="图层_1" xmlns="http://www.w3.org/2000/svg" xmlns:xlink="http://www.w3.org/1999/xlink" x="0px" y="0px"
	 viewBox="0 0 500 500" enable-background="new 0 0 500 500" xml:space="preserve">
<path fill="#999999" d="M337.3,105.5L305.5,197l32.6,5.9c30.7-83.9,46-132.1,46-144.5c0-10.4-3.5-15.6-10.6-15.6
	C363,42.7,350.9,63.6,337.3,105.5z M253.9,297.2l9.2,24.6c6.9-7.8,13.5-14,19.8-18.7l-9.2-1.5l-10.7-2L253.9,297.2z M172.4,47.2
	c0,18.2,14.8,66.7,44.4,145.4c3.3-1.9,7.9-2.8,13.7-2.8c2.8,0,9.8,0.5,20.9,1.4l-33.8-97.9c-14-40.9-25.4-61.4-34.3-61.4
	c-3.5,0-6.2,1.6-8.1,4.9C173.4,39.9,172.4,43.4,172.4,47.2z M150.4,258.9c0,6.7,4.8,17.8,14.4,33.2c9.6,15.4,20.5,29.7,32.8,42.7
	c12.3,13,21.6,19.5,27.9,19.5c2.6,0,5-1.2,7.1-3.6c2.1-2.4,3.2-4.9,3.2-7.5c0-4.5-3-14-8.9-28.5c-2.4-6-5.4-12.6-8.9-20.1
	c-3.5-7.4-8-15.7-13.3-24.8c-5.3-9.1-11-16.6-17.2-22.6s-11.9-8.9-17.3-8.9c-3.7,0-8,2.5-12.7,7.5S150.4,255.2,150.4,258.9z
	 M106.3,352.4c0,7.6,2.3,17.3,7,29c11,27,28,48.1,51.2,63.3s49.3,22.9,78.5,22.9c42.2,0,77.8-15.8,106.6-47.4
	c28.3-31.4,42.4-71.1,42.4-119.1c0-8-0.1-14.2-0.3-18.7c-0.2-4.5-1.3-10.2-3.2-17.3s-4.8-12.3-8.5-15.6c-10.4-9.1-30.1-16.1-59-21.1
	s-54.1-7.4-75.5-7.4c-6.9,0-11.4,1-13.7,3.1c-2.2,0.9-3.3,4.2-3.3,9.8c0,6.3,2,11.9,6,16.7s9.2,8.6,15.5,11.2
	c6.3,2.6,13.5,4.8,21.6,6.6c8.1,1.8,16.2,2.8,24.4,3.2c8.2,0.4,16.1,0.7,23.7,1.1c7.6,0.4,14.1,0.4,19.5,0h6.4
	c4.5,0,8.2,1.8,11.2,5.3c2.8,3.5,4.6,8.6,5.3,15.3c-5.2,5.2-14.1,10.2-26.8,15.1c-11.3,4.1-20,8.4-25.9,12.8
	c-11.9,8.6-22,19.2-30.3,31.8c-8.3,12.6-12.4,25.4-12.4,38.2c0,5.8,1.7,14,5.2,24.7c3.4,10.7,5.2,18.8,5.2,24.4l-0.8,3.3
	c-0.7,2.2-1.1,3.5-1.1,3.9c-25.5-1.9-39.1-21.9-40.7-60.3c-1.5,0.4-5.3,0.6-11.4,0.6c0.4,1.3,0.6,3.3,0.6,5.9
	c0,9.9-3.8,18.2-11.3,25c-7.5,6.8-16.3,10.2-26.4,10.2c-15.3,0-30.7-7.3-46.5-21.8c-15.7-14.5-23.6-29.3-23.6-44.4
	c0-6.3,3.1-12.6,9.2-18.7c9.7,11.9,15.3,19,16.7,21.2c14.3,19.3,26.7,29,37.1,29c2.2,0,4.7-0.8,7.4-2.4c2.7-1.6,4-3.5,4-5.7
	c0-6.3-8.1-19.8-24.4-40.5s-27.1-31-32.5-31c-8,0-14.5,4.1-19.5,12.4S106.3,343.8,106.3,352.4z M74.5,354.9c0-18.8,4-33.9,11.9-45.5
	c7.9-11.5,20.6-19.7,38.1-24.6c-5.2-13.8-7.8-23.4-7.8-29c0-11.5,5.7-23,17-34.3c11.3-11.3,22.7-17,34-17c5.4,0,11.9,1.4,19.5,4.2
	C156.9,122.8,141.7,70,141.7,50.5c0-14.9,3.8-27,11.4-36.4S171.9,0,186.4,0c24.4,0,54.6,54,90.7,162.1c1.1,3.2,1.9,5.3,2.2,6.4
	c1.1-3,3.8-10.4,8.1-22.2c4.3-11.8,8.3-22.8,12.1-33.1s8.8-22.1,15.1-35.6c6.2-13.5,12.2-24.9,18-34.3s12.3-17.4,19.7-24.1
	s14.5-10,21.3-10c13.2,0,23.6,4.6,31.3,13.7s11.4,20.5,11.4,34c0,20.1-14.8,71.2-44.4,153.5c11.3,2.8,20.7,7.1,28,12.8
	c7.3,5.8,12.8,13,16.3,21.8s6,17.4,7.3,26.1c1.3,8.6,2,18.9,2,30.8c0,27.9-4.4,53.9-13.1,78.1c-8.7,24.2-21,45.1-36.8,62.8
	s-35.4,31.6-58.9,41.9S267.4,500,239.1,500c-20.6,0-41.4-3.9-62.2-11.7c-27.7-10.6-51.7-28.4-72-53.4S74.5,383.2,74.5,354.9z"/>
</svg>
