<?xml version="1.0" encoding="utf-8"?>
<!-- Generator: Adobe Illustrator 18.0.0, SVG Export Plug-In . SVG Version: 6.00 Build 0)  -->
<!DOCTYPE svg PUBLIC "-//W3C//DTD SVG 1.1//EN" "http://www.w3.org/Graphics/SVG/1.1/DTD/svg11.dtd">
<svg version="1.1" id="图层_1" xmlns="http://www.w3.org/2000/svg" xmlns:xlink="http://www.w3.org/1999/xlink" x="0px" y="0px"
	 viewBox="0 0 500 500" enable-background="new 0 0 500 500" xml:space="preserve">
<path fill="#999999" d="M69.9,239.4h-3.3c-2.7,0-4.1-1.3-4.1-3.9c0-4.1,1.4-10.2,4.1-18.4c0.7-2.2,1.8-3.6,3.3-4.2s3.5-1,6.1-1
	c11.1,0,16.7,3.5,16.7,10.6c0,5.9-2.2,10.2-6.6,12.9S76.2,239.4,69.9,239.4z M144.1,274.3c-6.8,0-10.2-2.1-10.2-6.3
	c0-9,8.9-13.5,26.7-13.5l0.7,0.7C160.5,267.9,154.8,274.3,144.1,274.3z M312.1,239.8h-3.3c-2.7,0-4.1-1.4-4.1-4.1
	c0-4.1,1.4-10.2,4.1-18.4c0.7-2.2,1.8-3.5,3.1-4.1c1.4-0.6,3.4-0.9,6.2-0.9c11.1,0,16.7,3.5,16.7,10.6c0,5.9-2.2,10.2-6.6,12.9
	C323.8,238.5,318.4,239.8,312.1,239.8z M386.3,274.5c-6.8,0-10.2-2.2-10.2-6.5c0-9,8.9-13.5,26.7-13.5l0.7,0.7
	C402.7,268.1,397,274.5,386.3,274.5z M80.9,194.9H53.2c-1.2,0-2.2,0.3-3.1,0.9c-0.9,0.6-1.6,1.1-1.8,1.6c-0.3,0.5-0.8,1.4-1.5,2.7
	c-0.4,1-3.7,14.8-9.8,41.2s-9.1,40.4-9.1,41.7c0,1,0.4,1.9,1.2,2.7s1.8,1.2,2.9,1.2h13.5c3.6,0,6-2.5,7.1-7.5l3.3-15l7.1-7.5
	c6.8,0,13.1-0.5,19-1.6c5.9-1.1,11.7-2.9,17.5-5.3s10.4-6.3,13.8-11.4c3.4-5.1,5.1-11.2,5.1-18.3c0-5.2-1-9.6-3.1-13.2
	c-2.1-3.6-5.1-6.3-8.9-7.9s-7.7-2.8-11.6-3.4C90.5,195.2,86,194.9,80.9,194.9z M156,215.7c-5.5,0-10.9,0.4-16.1,1.3
	c-0.3,0-0.9,0.1-1.8,0.2c-0.9,0.1-1.6,0.3-2,0.3l-1.6,0.3l-1.6,0.4l-1.4,0.7l-1.4,0.9l-1.1,1.1l-1,1.5l-0.9,2c-1.3,4.2-2,7-2,8.5
	c0,1.4,0.7,2.2,2,2.2c0.7,0,2.3-0.4,4.7-1.1c2.4-0.7,3.8-1.2,4.2-1.3c4.3-1.2,8.5-1.7,12.6-1.7c10.7,0,16.1,2.6,16.1,7.8
	c0,1.6-0.7,2.6-2.2,3c-1.2,0.3-2.5,0.5-3.9,0.7c-1.4,0.1-3,0.3-4.7,0.3c-1.7,0.1-2.9,0.2-3.8,0.3c-5.5,0.6-10.2,1.3-14,2.2
	c-3.8,0.9-7.9,2.3-12.3,4.2c-4.3,2-7.6,4.8-9.9,8.5c-2.2,3.7-3.4,8.2-3.4,13.6c0,5.5,1.9,9.8,5.6,12.9c3.8,3.1,8.4,4.7,13.9,4.7
	c3.5,0,6.8-0.5,9.9-1.4s5.5-1.9,7.2-2.8s4.4-2.6,8.4-5.1c-0.4,1-0.7,2.1-0.7,3.3s0.4,2.1,1.2,2.9s1.7,1.2,2.7,1.2H171
	c0.1-0.1,0.7-0.4,1.5-0.8c0.9-0.4,1.4-0.6,1.6-0.8c0.2-0.1,0.6-0.4,1.1-0.8c0.5-0.4,0.9-0.8,1.1-1.2c0.2-0.4,0.4-1,0.5-1.7l9.8-42.1
	c0.6-1.9,0.9-4.1,0.9-6.5C187.5,221.6,177,215.7,156,215.7z M270.6,216.8h-16.1c-3.2,0-6,1.7-8.5,5c-0.7,1-2.9,4.7-6.4,11.1
	c-3.5,6.4-6.9,12.3-10.1,17.7c-3.2,5.4-5.1,8.2-5.6,8.4l-1.1-0.9c0-11.1-2-23.1-5.9-36c-0.1-0.7-0.4-1.3-0.8-1.8
	c-0.4-0.5-0.8-1-1.3-1.4s-1-0.8-1.4-1.1c-0.4-0.3-1-0.5-1.8-0.7c-0.8-0.1-1.4-0.3-1.8-0.3c-0.4-0.1-1.1-0.1-2.1-0.2
	c-0.9-0.1-1.6-0.1-2-0.1h-4c-5.5,0-8.2,1.5-8.2,4.6l0.2,1.1c0.7,7.7,2.5,18.6,5.4,32.8s4.7,24.5,5.4,31c0.3,2.3,0.4,4.1,0.4,5.2
	c0,2.7-2.2,7.2-6.6,13.3c-4.4,6.1-6.6,10.4-6.6,12.7c0,1.9,2.9,2.8,8.7,2.8c8.8,0,14.3-1.8,16.5-5.4l53.2-90.1
	c1.4-2.9,2.2-4.8,2.2-5.6C272.4,217.4,271.8,216.8,270.6,216.8z M323.1,195.3h-28c-2.6,0-4.7,1.7-6.3,5c-0.9,1.9-4.2,15.7-10.1,41.6
	s-8.8,39.6-8.8,41.3c0,2.9,3.1,4.3,9.3,4.3h5.5l2.1-0.2l1.8-0.4l1.8-0.7l1.4-1l1.2-1.3l0.7-1.8l4.6-19.7c0.3-1.4,1-2.7,2.3-3.7
	c1.2-1,2.6-1.5,4.2-1.5c6.8,0,13.1-0.5,19-1.5c5.9-1,11.7-2.8,17.5-5.3c5.8-2.5,10.4-6.3,13.8-11.4c3.4-5.1,5.1-11.1,5.1-18.2
	c0-5.2-1-9.6-3.1-13.2c-2.1-3.6-5.1-6.3-8.9-7.9c-3.8-1.7-7.7-2.8-11.6-3.4S328.2,195.3,323.1,195.3z M398.2,215.7
	c-3.8,0-9.1,0.4-16.1,1.3c-5.5,0.9-9,2-10.4,3.5c-1,1.2-1.8,2.5-2.4,4.1c-1.2,3.5-1.7,6.3-1.7,8.5c0,1.4,0.6,2.2,1.7,2.2
	c0.1,0,3.1-0.9,8.9-2.6c4.3-1.2,8.5-1.7,12.6-1.7c10.7,0,16.1,2.6,16.1,7.8c0,1.7-0.7,2.7-2.2,3c-0.6,0.1-4.7,0.7-12.4,1.5
	c-5.5,0.6-10.2,1.3-14,2.2c-3.8,0.9-7.9,2.3-12.3,4.2c-4.3,2-7.6,4.8-9.9,8.5s-3.4,8.2-3.4,13.6c0,5.4,1.9,9.6,5.6,12.7
	c3.8,3.1,8.4,4.7,13.9,4.7c3.5,0,6.7-0.4,9.8-1.3c3-0.9,5.5-1.8,7.4-2.8c1.9-1,4.6-2.7,8.2-5.2c-0.4,2.2-0.7,3.3-0.7,3.5
	c0,0.7,0.1,1.3,0.4,1.8c0.3,0.5,0.8,0.9,1.4,1.2c0.7,0.3,1.2,0.5,1.7,0.8c0.5,0.2,1.3,0.4,2.3,0.4c1,0.1,1.7,0.1,2.1,0.1h3.8
	c6.1,0,9.5-1.8,10.4-5.4L429,240c0.4-2.2,0.7-4.4,0.7-6.7C429.7,221.6,419.2,215.7,398.2,215.7z M468.1,196h-11.9
	c-3.6,0-6,2.9-7.2,8.7c-1.4,6.4-4.1,18.4-7.9,36.2c-3.8,17.8-6.9,31.5-9.2,41.2v1.1c0,2.3,1.2,3.6,3.5,3.9h12.6c1.4,0,2.8-0.5,4-1.4
	s2-2.1,2.3-3.6l18-81.2H472l0.2-1.1c0-1-0.4-1.9-1.2-2.7C470.2,196.4,469.3,196,468.1,196z M500,111.1v277.8c0,7.5-2.7,14-8.2,19.5
	c-5.5,5.5-12,8.2-19.5,8.2H27.8c-7.5,0-14-2.7-19.5-8.2c-5.5-5.5-8.2-12-8.2-19.5V111.1c0-7.5,2.7-14,8.2-19.5
	c5.5-5.5,12-8.2,19.5-8.2h444.4c7.5,0,14,2.7,19.5,8.2C497.3,97.1,500,103.6,500,111.1z"/>
</svg>
