<?xml version="1.0" encoding="utf-8"?>
<!-- Generator: Adobe Illustrator 18.0.0, SVG Export Plug-In . SVG Version: 6.00 Build 0)  -->
<!DOCTYPE svg PUBLIC "-//W3C//DTD SVG 1.1//EN" "http://www.w3.org/Graphics/SVG/1.1/DTD/svg11.dtd">
<svg version="1.1" id="图层_1" xmlns="http://www.w3.org/2000/svg" xmlns:xlink="http://www.w3.org/1999/xlink" x="0px" y="0px"
	 viewBox="0 0 500 500" enable-background="new 0 0 500 500" xml:space="preserve">
<path fill="#999999" d="M428.6,270.4h-29.9c2-5.4,6.8-18.3,14.3-38.8l0.7-2c0.6-1.4,1.3-3.3,2.2-5.6c0.9-2.3,1.5-4.2,2-5.6l2.6,11.9
	L428.6,270.4z M115.2,256.3l-12.6-64c-1.6-7.8-7-11.7-16.3-11.7H28.2l-0.4,2.8C72.8,194.8,101.9,219.1,115.2,256.3z M154.1,180.6
	l-35.2,95.1l-3.7-19.3c-3.8-10.1-9.9-19.5-18.4-28.1c-8.5-8.6-18-15-28.4-19.2l29.3,110.7h38l56.6-139.1H154.1z M184.2,319.9h36
	l22.6-139.3h-36L184.2,319.9z M350.9,184c-10-3.9-20.8-5.9-32.3-5.9c-17.8,0-32.3,4.3-43.6,12.8c-11.3,8.5-17,19.6-17.1,33.2
	c-0.1,14.8,10.3,27.3,31.5,37.8c6.9,3.3,11.8,6.3,14.5,8.9c2.7,2.6,4.1,5.4,4.1,8.5c0,4.3-2.2,7.7-6.5,10c-4.3,2.3-9.3,3.5-15,3.5
	c-12.4,0-23.7-2.4-33.9-7.2l-4.8-2.4l-5,31.3c10.7,4.9,24.1,7.4,40.1,7.4c18.8,0.1,33.9-4.1,45.2-12.8c11.4-8.7,17.2-20.3,17.5-34.7
	c0-15.3-10.1-27.9-30.4-37.8c-7.1-3.6-12.2-6.7-15.4-9.1s-4.8-5.2-4.8-8.2c0-3.2,1.8-6,5.3-8.4c3.5-2.4,8.6-3.6,15.3-3.6
	c10.1-0.1,19.1,1.6,26.9,5.2l3.3,1.7L350.9,184z M443.1,180.6h-27.8c-9.4,0-15.7,3.9-18.9,11.7l-53.4,127.6h37.8l7.6-20.8h46
	c0.7,3.2,2.2,10.1,4.3,20.8h33.4L443.1,180.6z M500,111.1v277.8c0,7.5-2.7,14-8.2,19.5c-5.5,5.5-12,8.2-19.5,8.2H27.8
	c-7.5,0-14-2.7-19.5-8.2c-5.5-5.5-8.2-12-8.2-19.5V111.1c0-7.5,2.7-14,8.2-19.5c5.5-5.5,12-8.2,19.5-8.2h444.4
	c7.5,0,14,2.7,19.5,8.2C497.3,97.1,500,103.6,500,111.1z"/>
</svg>
