<?xml version="1.0" encoding="utf-8"?>
<!-- Generator: Adobe Illustrator 18.0.0, SVG Export Plug-In . SVG Version: 6.00 Build 0)  -->
<!DOCTYPE svg PUBLIC "-//W3C//DTD SVG 1.1//EN" "http://www.w3.org/Graphics/SVG/1.1/DTD/svg11.dtd">
<svg version="1.1" id="图层_1" xmlns="http://www.w3.org/2000/svg" xmlns:xlink="http://www.w3.org/1999/xlink" x="0px" y="0px"
	 viewBox="0 0 500 500" enable-background="new 0 0 500 500" xml:space="preserve">
<path fill="#999999" d="M277.3,287.6l3.9,212.4c-12.4-2.2-22.9-3.3-31.6-3.3c-8.2,0-18.7,1.1-31.6,3.3l3.9-212.4
	c-8-13.8-24.9-43.4-50.6-88.8S124,115.9,106.4,86.2S70.6,27.8,52,0c11.6,3,22.4,4.5,32.5,4.5C93,4.5,104.2,3,117.8,0
	c12.6,22.2,26,45.2,40.1,69c14.1,23.7,30.8,51.4,50.2,83.1s33.2,54.4,41.6,68.2c7.4-12.2,18.4-30,32.9-53.3
	c14.5-23.3,26.3-42.4,35.3-57.1c9-14.7,19.5-32.4,31.6-52.9S372.2,17.4,381.6,0c10.8,2.8,21.5,4.2,32.2,4.2C425,4.2,436.4,2.8,448,0
	c-5.6,7.8-11.6,16.7-18,26.6s-11.4,17.8-14.9,23.6c-3.5,5.8-9.2,15.4-17,28.8s-12.7,21.8-14.7,25.2
	C354.2,153.9,318.8,215,277.3,287.6L277.3,287.6z"/>
</svg>
