<?xml version="1.0" encoding="utf-8"?>
<!-- Generator: Adobe Illustrator 18.0.0, SVG Export Plug-In . SVG Version: 6.00 Build 0)  -->
<!DOCTYPE svg PUBLIC "-//W3C//DTD SVG 1.1//EN" "http://www.w3.org/Graphics/SVG/1.1/DTD/svg11.dtd">
<svg version="1.1" id="图层_1" xmlns="http://www.w3.org/2000/svg" xmlns:xlink="http://www.w3.org/1999/xlink" x="0px" y="0px"
	 viewBox="0 0 500 500" enable-background="new 0 0 500 500" xml:space="preserve">
<path fill="#999999" d="M67.9,224.2c0,7.4-2.6,13.5-7.8,18.2c-4.2,3.8-10.6,5.6-19.3,5.6h-3.7v-47.7h3.7c8.8,0,15.3,2,19.3,5.9
	C65.3,210.6,67.9,216.7,67.9,224.2z M453.3,210.1c0,7.5-4.6,11.3-13.9,11.3h-4.1v-21.9h4.3C448.8,199.4,453.3,203,453.3,210.1z
	 M82.5,224.2c0-10.7-3.6-19.4-10.9-26.2s-16.6-10.1-28-10.1H23v72.3h20.6c10.7,0,19.3-2.7,25.8-8.2
	C78.1,244.6,82.5,235.3,82.5,224.2z M89,260.2h14.1v-72.3H89V260.2z M158.4,238.3c0-5.8-1.5-10.3-4.4-13.5c-3-3.2-8.4-6.2-16.4-9.1
	c-4.2-1.4-7.1-2.8-8.6-4.1c-1.5-1.3-2.3-3-2.3-5c0-2.3,1-4.2,2.9-5.8c2-1.5,4.4-2.3,7.5-2.3c4.2,0,8,2,11.5,5.9l7.4-9.5
	c-5.9-5.4-13-8-21.3-8c-6.4,0-11.7,2-16.1,6c-4.3,4-6.5,8.9-6.5,14.6c0,5.1,1.3,9.1,3.9,12c2.6,3,7.2,5.6,13.9,7.9
	c5.4,1.9,8.6,3.3,9.8,4.1c2.7,1.7,4.1,4.2,4.1,7.4c0,2.9-1,5.3-3,7.3s-4.6,2.9-7.8,2.9c-6.9,0-12.1-3.2-15.4-9.5l-9.1,8.7
	c6.4,9.3,14.7,13.9,25,13.9c7.4,0,13.4-2.2,18-6.6C156.1,251.1,158.4,245.4,158.4,238.3z M218.8,257.8v-16.7c-5.4,5.4-11,8-16.9,8
	c-7.1,0-12.9-2.4-17.5-7.1c-4.6-4.7-6.8-10.7-6.8-17.9c0-6.9,2.3-12.8,6.8-17.7c4.6-4.8,10.2-7.3,16.8-7.3c6.2,0,12.1,2.7,17.6,8.2
	v-16.7c-5.8-2.9-11.6-4.3-17.4-4.3c-10.7,0-19.8,3.7-27.2,11S163,213.6,163,224.2c0,10.6,3.7,19.5,11.1,26.8
	c7.4,7.3,16.4,11,27.1,11C207.2,261.9,213.1,260.6,218.8,257.8z M486.1,388.9V274.5c-9.4,5.8-19.9,11.9-31.4,18.2
	s-28.7,14.8-51.5,25.4c-22.9,10.6-46.7,20.5-71.5,29.8c-24.8,9.3-55,19.1-90.6,29.2c-35.6,10.1-72,18.7-109.4,25.6h340.5
	c3.8,0,7-1.4,9.8-4.1S486.1,392.7,486.1,388.9z M301.4,224.6c0-10.9-3.8-20.1-11.5-27.8c-7.7-7.7-16.9-11.5-27.8-11.5
	c-10.9,0-20.1,3.8-27.8,11.5c-7.7,7.7-11.5,16.9-11.5,27.8s3.8,20.1,11.5,27.8s16.9,11.5,27.8,11.5c10.9,0,20.1-3.8,27.8-11.5
	C297.6,244.7,301.4,235.5,301.4,224.6z M334.4,262.2l31.3-74.2h-15.4l-19.5,48.6l-19.3-48.6H296l30.8,74.2H334.4z M372,260.2h39.9
	V248h-25.8v-19.5h25v-12.2h-25v-16.1h25.8v-12.4H372V260.2z M456.8,260.2h17.4l-22.8-30.4c11-2.3,16.5-9.1,16.5-20.4
	c0-6.8-2.2-12.1-6.7-15.8s-10.8-5.6-18.9-5.6h-21.1v72.3h14.1v-28.9h2L456.8,260.2z M500,112.4v275.2c0,8.1-2.8,15-8.4,20.6
	s-12.3,8.5-20.3,8.5H28.6c-8,0-14.7-2.8-20.3-8.5S0,395.7,0,387.6V112.4c0-8.1,2.8-15,8.4-20.6s12.3-8.5,20.3-8.5h442.7
	c8,0,14.7,2.8,20.3,8.5S500,104.3,500,112.4z"/>
</svg>
