<?xml version="1.0" encoding="utf-8"?>
<!-- Generator: Adobe Illustrator 18.0.0, SVG Export Plug-In . SVG Version: 6.00 Build 0)  -->
<!DOCTYPE svg PUBLIC "-//W3C//DTD SVG 1.1//EN" "http://www.w3.org/Graphics/SVG/1.1/DTD/svg11.dtd">
<svg version="1.1" id="图层_1" xmlns="http://www.w3.org/2000/svg" xmlns:xlink="http://www.w3.org/1999/xlink" x="0px" y="0px"
	 viewBox="0 0 500 500" enable-background="new 0 0 500 500" xml:space="preserve">
<path fill="#999999" d="M145.6,258h-2.8c-6.8,0-10.2,2.3-10.2,6.9c0,3.2,1.4,4.8,4.3,4.8c2.5,0,4.5-1.1,6.1-3.3
	C144.6,264.3,145.5,261.5,145.6,258z M231.3,250.2h13.5v-0.7c0.1-0.6,0.2-1,0.1-1.4c-0.1-0.4-0.1-0.9-0.2-1.5
	c-0.1-0.7-0.2-1.2-0.4-1.7s-0.5-1-1-1.4c-0.4-0.4-1-0.8-1.6-1.1c-0.7-0.3-1.5-0.4-2.5-0.4C235.1,242,232.5,244.7,231.3,250.2z
	 M348.5,258h-2.6c-6.9,0-10.4,2.3-10.4,6.9c0,3.2,1.4,4.8,4.3,4.8c2.5,0,4.5-1.1,6.1-3.3C347.5,264.3,348.4,261.5,348.5,258z
	 M417.8,252.4c0-5.9-2.2-8.9-6.5-8.9c-2.7,0-5,1.4-6.7,4.3c-1.7,2.9-2.6,6.6-2.6,11.1c0,6.1,2,9.1,6.1,9.1c2.9,0,5.2-1.4,7.1-4.3
	S417.8,257,417.8,252.4z M104.2,221.8H123l-9.5,56.9h-12.2l6.9-43.6l-15.4,43.6h-8.5l-0.9-43.4l-7.4,43.4H64.7l9.5-56.9h17.6
	l0.4,35.4L104.2,221.8z M159.1,245c0,0.9-0.3,3.9-0.9,9.1c-2.3,14.6-3.5,22.8-3.7,24.5h-10.2l0.2-4.8c-2.9,3.8-7.1,5.6-12.6,5.6
	c-3.3,0-6-1.2-8.1-3.5c-2.1-2.3-3.1-5.4-3.1-9.1c0-5.6,1.9-10,5.6-13.1c3.8-3.1,9-4.7,15.8-4.7c2,0,3.7,0.1,5,0.2
	c0-0.4,0-0.8,0.1-1.2s0.1-0.7,0.2-1s0.1-0.5,0.1-0.7c0-2.9-2.6-4.3-7.8-4.3c-4.2,0-8.5,0.7-12.8,2.2c0-0.6,0.5-4.1,1.5-10.4
	c5.5-1.6,10.3-2.4,14.5-2.4C153.7,231.6,159.1,236,159.1,245z M192.9,232.4l-1.7,10.6c-3.2-0.4-6.1-0.7-8.9-0.7
	c-3.9,0-5.9,1.2-5.9,3.7c0,1.2,0.3,2,1,2.6c0.7,0.6,2.2,1.4,4.7,2.4c5.8,2.7,8.7,7.1,8.7,13c0,10.4-6.3,15.6-18.9,15.4
	c-4.9,0-9.1-0.4-12.6-1.3c0-0.3,0.5-3.8,1.5-10.6c4.2,1.2,7.9,1.7,11.1,1.7c4.6,0,6.9-1.4,6.9-4.1c0-1-0.3-1.8-1-2.5
	s-2.2-1.6-4.7-2.7c-6.2-2.9-9.3-7.2-9.3-12.8c0-10.4,6.1-15.6,18.2-15.6C186.4,231.6,190,231.8,192.9,232.4z M212,232.4h6.1
	l-1.5,11.3h-6.3c-0.3,2.5-0.8,5.4-1.4,8.8c-0.7,3.4-1.2,6.2-1.5,8.4c-0.4,2.2-0.5,3.5-0.5,3.9c0,2.3,1.4,3.5,4.1,3.5
	c1.2,0,2.3-0.1,3.5-0.4l-1.7,10.2c-3,1-5.9,1.5-8.7,1.5c-6.2,0-9.5-3.4-9.8-10.2c0-1.7,0.6-5.8,1.7-12.2c0.4-2.9,2.2-13.5,5.4-31.7
	h11.9L212,232.4z M256.1,248.3c0,3.3-0.5,7.1-1.5,11.3h-24.1c-0.4,3.2,0.3,5.6,2.2,7.2c1.9,1.6,4.6,2.4,8.2,2.4c4.3,0,8.5-1,12.6-3
	l-2,11.7c-4.3,1.2-8.5,1.7-12.4,1.7c-13.7,0-20.6-6.9-20.6-20.6c0-8,2-14.5,6-19.6c4-5.1,9-7.7,15.1-7.7c5.1,0,9.1,1.5,12,4.6
	C254.6,239.1,256.1,243.2,256.1,248.3z M286.2,232.2c-1.9,3.3-3.5,7.8-4.8,13.5c-3.2-0.3-5.4,1.4-6.7,5.2c-1.3,3.8-3.1,13-5.4,27.8
	h-12.2l0.7-3c3.2-18.8,5.3-33.2,6.3-43.2h11.1l-0.7,7.2c2-3,3.9-5.2,5.5-6.4S283.8,231.6,286.2,232.2z M326.8,223.3l-2,12.4
	c-4.1-2-7.7-3-10.9-3c-4.5,0-8.2,2-11.1,6c-2.9,4-4.3,9.1-4.3,15.3c0,4.3,1,7.7,2.9,10.2c2,2.5,4.7,3.7,8.4,3.7
	c3,0,6.5-0.9,10.4-2.8l-2.2,12.8c-4.1,1.2-7.7,1.7-10.9,1.7c-6.5,0-11.7-2.2-15.5-6.6c-3.8-4.4-5.8-10.4-5.8-17.9
	c0-10.1,2.6-18.4,7.7-24.8c5.1-6.4,11.8-9.7,19.9-9.7C317.3,220.5,321.8,221.4,326.8,223.3z M362,245c0,2.6-0.3,5.6-0.9,9.1
	c-1.9,11.4-3.1,19.6-3.7,24.5h-10l0.2-4.8c-2.9,3.8-7.2,5.6-12.8,5.6c-3.3,0-6-1.2-8-3.5c-2-2.3-3-5.4-3-9.1c0-5.6,1.8-10,5.5-13.1
	c3.7-3.1,8.9-4.7,15.7-4.7c2.2,0,3.8,0.1,5,0.2c0.3-1,0.4-2,0.4-2.8c0-2.9-2.6-4.3-7.8-4.3c-4.2,0-8.5,0.7-12.8,2.2
	c0-0.6,0.6-4.1,1.7-10.4c5.5-1.6,10.3-2.4,14.5-2.4C356.7,231.6,362,236,362,245z M392.6,232.2c-2,3.5-3.5,8-4.6,13.5
	c-3.3-0.3-5.6,1.4-6.8,5c-1.2,3.6-3.1,12.9-5.5,28h-12.2l0.7-3c2.7-15,4.8-29.4,6.3-43.2h11.3c0,1.6-0.3,4-0.9,7.2
	c2.2-3,4.1-5.2,5.8-6.4C388.3,232,390.3,231.6,392.6,232.2z M423.2,221.8h12.2l-9.3,56.9h-11.5l0.7-4.1c-3.3,3.3-7.1,5-11.3,5
	c-4.5,0-8.1-1.7-10.7-5.2c-2.7-3.5-4-8.1-4-13.9c0-7.7,2-14.3,6-20c4-5.6,8.6-8.5,14-8.5c4.5,0,8.3,2.1,11.5,6.3L423.2,221.8z
	 M447.3,250c0-21.4-5.2-41.2-15.7-59.2s-24.8-32.4-43-43c-18.2-10.6-37.9-15.8-59.4-15.8c-26.2,0-49.9,8-71.2,23.9
	c18.4,16.8,30.7,37.3,37.1,61.6h-10.9c-6.4-21.7-17.8-40-34.3-54.9c-16.5,14.9-27.9,33.2-34.3,54.9h-10.9
	c6.4-24.3,18.7-44.8,37.1-61.6c-21.3-15.9-45-23.9-71.2-23.9c-21.4,0-41.2,5.3-59.4,15.8s-32.5,24.9-43,43S52.7,228.6,52.7,250
	s5.2,41.2,15.7,59.2s24.8,32.4,43,43c18.2,10.6,37.9,15.8,59.4,15.8c26.2,0,49.9-8,71.2-23.9c-17.4-16.1-29.3-35.2-35.8-57.3H217
	c6.7,20,17.7,36.8,33,50.6c15.3-13.7,26.3-30.6,33-50.6h10.9c-6.5,22.1-18.4,41.2-35.8,57.3c21.3,15.9,45,23.9,71.2,23.9
	c21.4,0,41.2-5.3,59.4-15.8c18.2-10.6,32.5-24.9,43-43S447.3,271.4,447.3,250z M500,111.1v277.8c0,7.5-2.7,14-8.2,19.5
	c-5.5,5.5-12,8.2-19.5,8.2H27.8c-7.5,0-14-2.7-19.5-8.2c-5.5-5.5-8.2-12-8.2-19.5V111.1c0-7.5,2.7-14,8.2-19.5
	c5.5-5.5,12-8.2,19.5-8.2h444.4c7.5,0,14,2.7,19.5,8.2C497.3,97.1,500,103.6,500,111.1z"/>
</svg>
