<?xml version="1.0" encoding="utf-8"?>
<!-- Generator: Adobe Illustrator 18.0.0, SVG Export Plug-In . SVG Version: 6.00 Build 0)  -->
<!DOCTYPE svg PUBLIC "-//W3C//DTD SVG 1.1//EN" "http://www.w3.org/Graphics/SVG/1.1/DTD/svg11.dtd">
<svg version="1.1" id="图层_1" xmlns="http://www.w3.org/2000/svg" xmlns:xlink="http://www.w3.org/1999/xlink" x="0px" y="0px"
	 viewBox="0 0 500 500" enable-background="new 0 0 500 500" xml:space="preserve">
<path fill="#999999" d="M346.6,251.5c0,10-1.5,17.7-4.6,23c-2.7,5.1-6.5,7.6-11.3,7.6c-3.3,0-6.3-0.7-8.9-2v-48.6
	c4.2-4.3,8.3-6.5,12.4-6.5C342.4,225,346.6,233.9,346.6,251.5z M441.6,243.7h-23.9c0.9-14.2,4.9-21.3,12.2-21.3
	C437.3,222.4,441.2,229.5,441.6,243.7z M103.3,273c0-8.5-2.4-15.2-7.2-19.9s-12.1-8.9-21.9-12.5c-5.2-1.9-9-3.6-11.3-5.2
	c-2.3-1.6-3.5-3.4-3.5-5.4c0-3.8,2.7-5.6,8.2-5.6c8.4,0,17.4,2.4,26.9,7.2l3.9-24.3c-9.7-4.6-20.5-6.9-32.3-6.9
	c-11.1,0-20,2.7-26.7,8.2c-6.9,5.6-10.4,13.5-10.4,23.7c0,8.4,2.4,14.9,7.1,19.6s11.9,8.8,21.6,12.3c5.6,2,9.6,3.9,11.8,5.5
	c2.2,1.7,3.4,3.7,3.4,6c0,4.5-3.5,6.7-10.4,6.7c-4.2,0-9.3-0.9-15.2-2.7c-5.9-1.8-11.1-4-15.6-6.6l-3.9,24.5
	c10.4,5.9,22.6,8.9,36.5,8.9c11.7,0,21.1-2.7,28-8C99.6,292.5,103.3,284,103.3,273z M167.3,226.3l4.1-24.1h-20.8V173l-28,4.6
	l-3.9,24.7l-10,1.7l-3.7,22.4h13.5v47.5c0,12.2,3.2,20.8,9.5,26c5.5,4.3,13.5,6.5,24.1,6.5c4.6,0,10.3-0.8,17.1-2.4v-25.6
	c-4.6,1-7.8,1.5-9.5,1.5c-6.1,0-9.1-3.6-9.1-10.9v-42.8H167.3z M235.9,231.8v-30.2c-2.2-0.4-4.2-0.7-6.1-0.7c-4.6,0-8.6,1.2-12,3.5
	s-5.8,5.6-7.3,10l-2.2-12.2h-28.4v102.2h32.6v-66.4c3.8-4.5,9.7-6.7,17.8-6.7C232.6,231.3,234.4,231.5,235.9,231.8z M243.9,304.5
	h32.6V202.3h-32.6V304.5z M378.9,250.4c0-17.7-3.3-30.6-9.8-38.8c-5.8-7.5-13.8-11.3-24.1-11.3c-9.3,0-17.7,4.1-25.4,12.2l-1.7-10.2
	h-28.6v140l32.6-5.4V304c5.2,1.6,10.1,2.4,14.8,2.4c12,0,21.7-4.1,29.1-12.2C374.5,284.9,378.9,270.3,378.9,250.4z M277.3,174.9
	c0-4.8-1.7-8.8-5-12.2c-3.3-3.3-7.4-5-12.2-5c-4.8,0-8.8,1.7-12.2,5c-3.3,3.3-5,7.4-5,12.2s1.7,8.9,5,12.3s7.4,5.1,12.2,5.1
	c4.8,0,8.8-1.7,12.2-5.1C275.7,183.8,277.3,179.7,277.3,174.9z M472.2,252.4c0-16.3-3.5-29.1-10.4-38.2
	c-7.2-9.3-17.7-13.9-31.3-13.9c-13.9,0-24.8,4.8-32.9,14.3s-12,22.6-12,39.1c0,18.5,4.6,32.1,13.7,40.8c8,8,19.6,11.9,34.9,11.9
	c14.6,0,26.2-2.9,34.7-8.7l-3.5-22.4c-8.2,4.5-17.5,6.7-27.8,6.7c-6.2,0-10.8-1.4-13.7-4.1c-3.3-2.7-5.4-7.5-6.1-14.3h53.8
	C472.1,261.6,472.2,257.9,472.2,252.4z M500,111.1v277.8c0,7.5-2.7,14-8.2,19.5c-5.5,5.5-12,8.2-19.5,8.2H27.8
	c-7.5,0-14-2.7-19.5-8.2c-5.5-5.5-8.2-12-8.2-19.5V111.1c0-7.5,2.7-14,8.2-19.5c5.5-5.5,12-8.2,19.5-8.2h444.4
	c7.5,0,14,2.7,19.5,8.2C497.3,97.1,500,103.6,500,111.1z"/>
</svg>
