<?xml version="1.0" encoding="utf-8"?>
<!-- Generator: Adobe Illustrator 18.0.0, SVG Export Plug-In . SVG Version: 6.00 Build 0)  -->
<!DOCTYPE svg PUBLIC "-//W3C//DTD SVG 1.1//EN" "http://www.w3.org/Graphics/SVG/1.1/DTD/svg11.dtd">
<svg version="1.1" id="图层_1" xmlns="http://www.w3.org/2000/svg" xmlns:xlink="http://www.w3.org/1999/xlink" x="0px" y="0px"
	 viewBox="0 0 500 500" enable-background="new 0 0 500 500" xml:space="preserve">
<path fill="#999999" d="M406.3,0c25.8,0,47.9,9.2,66.2,27.5C490.8,45.8,500,67.9,500,93.8v312.5c0,25.8-9.2,47.9-27.5,66.2
	c-18.3,18.3-40.4,27.5-66.2,27.5h-61.2V306.3h64.8l9.8-75.5h-74.5v-48.2c0-12.2,2.5-21.3,7.6-27.3c5.1-6.1,15-9.1,29.8-9.1l39.7-0.3
	V78.5c-13.7-2-33-2.9-57.9-2.9c-29.5,0-53.1,8.7-70.8,26c-17.7,17.4-26.5,41.9-26.5,73.6v55.7h-65.1v75.5h65.1V500H93.8
	c-25.8,0-47.9-9.2-66.2-27.5C9.2,454.2,0,432.1,0,406.3V93.8c0-25.8,9.2-47.9,27.5-66.2S67.9,0,93.8,0H406.3z"/>
</svg>
