<?xml version="1.0" encoding="utf-8"?>
<!-- Generator: Adobe Illustrator 18.0.0, SVG Export Plug-In . SVG Version: 6.00 Build 0)  -->
<!DOCTYPE svg PUBLIC "-//W3C//DTD SVG 1.1//EN" "http://www.w3.org/Graphics/SVG/1.1/DTD/svg11.dtd">
<svg version="1.1" id="图层_1" xmlns="http://www.w3.org/2000/svg" xmlns:xlink="http://www.w3.org/1999/xlink" x="0px" y="0px"
	 viewBox="0 0 500 500" enable-background="new 0 0 500 500" xml:space="preserve">
<path fill="#999999" d="M358.1,130.4l11.1-58.3c1-4.6,0.1-8.6-2.7-12c-2.8-3.4-6.3-5.1-10.5-5.1H142.2c-4.6,0-8.5,1.7-11.6,5.1
	c-3.1,3.4-4.7,7.1-4.7,11.1v330.7c0,1.4,0.6,1.5,1.8,0.3l87.4-105.7c4.6-5.2,8.4-8.6,11.4-10.1c3-1.5,7.8-2.3,14.4-2.3h71.8
	c4.4,0,8.1-1.5,11.1-4.4c3-2.9,4.8-5.9,5.4-8.9c4.8-26,8.5-45.2,11.1-57.4c0.8-4.2-0.4-8.2-3.5-12c-3.1-3.8-6.8-5.7-11-5.7h-88.3
	c-5.8,0-10.6-1.9-14.4-5.7c-3.8-3.8-5.7-8.6-5.7-14.4v-12.6c0-5.8,1.9-10.6,5.7-14.3c3.8-3.7,8.6-5.6,14.4-5.6h103.9
	c3.6,0,7.1-1.4,10.5-4.1C355.5,136.5,357.5,133.6,358.1,130.4z M426.3,63.7c-3,14.6-8.4,41.3-16.1,80.1
	c-7.7,38.8-14.7,73.8-20.9,105.1s-9.7,48.7-10.5,52.1c-1.2,4.4-2.1,7.7-2.7,9.8c-0.6,2.1-2,5.4-4.2,9.8c-2.2,4.4-4.7,7.7-7.4,9.9
	c-2.7,2.2-6.6,4.3-11.6,6.3c-5,2-10.8,3-17.4,3h-81.4c-2.6,0-4.8,1-6.6,3c-1.6,1.8-44.3,51.3-128,148.4c-4.4,5-10.3,7.9-17.6,8.6
	c-7.3,0.7-12.2,0.2-14.6-1.7c-11-4.4-16.5-14.2-16.5-29.4V45.1c0-11,3.8-21.3,11.4-30.8C90,4.8,102,0,118.4,0h266.7
	c19,0,31.7,5.3,38.2,15.9S430.7,42.5,426.3,63.7z M426.3,63.7L378.9,301c0.8-3.4,4.3-20.8,10.5-52.1s13.2-66.4,20.9-105.1
	C418,105,423.3,78.3,426.3,63.7z"/>
</svg>
