<?xml version="1.0" encoding="utf-8"?>
<!-- Generator: Adobe Illustrator 18.0.0, SVG Export Plug-In . SVG Version: 6.00 Build 0)  -->
<!DOCTYPE svg PUBLIC "-//W3C//DTD SVG 1.1//EN" "http://www.w3.org/Graphics/SVG/1.1/DTD/svg11.dtd">
<svg version="1.1" id="图层_1" xmlns="http://www.w3.org/2000/svg" xmlns:xlink="http://www.w3.org/1999/xlink" x="0px" y="0px"
	 viewBox="0 0 500 500" enable-background="new 0 0 500 500" xml:space="preserve">
<path fill="#999999" d="M381.8,304.4c0-10.9-2.1-20.8-6.3-29.8c-4.2-9-9.5-16.4-15.8-22.3c-6.3-5.9-14.2-11.2-23.8-16
	s-18.5-8.5-26.9-11.1c-8.4-2.6-17.8-5.1-28.5-7.5l-33.9-7.8c-6.5-1.5-11.3-2.7-14.3-3.4s-6.8-2-11.4-3.7c-4.6-1.7-7.8-3.5-9.8-5.2
	c-2-1.7-3.7-4-5.4-6.8c-1.6-2.8-2.4-6.1-2.4-9.8c0-16.7,15.6-25.1,46.9-25.1c9.3,0,17.7,1.3,25.1,3.9c7.4,2.6,13.2,5.7,17.6,9.3
	c4.3,3.6,8.5,7.2,12.4,10.9c3.9,3.7,8.2,6.8,13,9.4s10,3.9,15.6,3.9c10.2,0,18.4-3.5,24.6-10.4c6.2-6.9,9.3-15.3,9.3-25.1
	c0-11.9-6.1-22.7-18.2-32.4s-27.6-17-46.2-22S265,96,244.1,96c-14.8,0-29.1,1.7-43,5s-26.9,8.5-38.9,15.3c-12,6.8-21.7,16.3-29,28.3
	c-7.3,12-10.9,26-10.9,41.8c0,13.2,2.1,24.8,6.2,34.7c4.1,9.9,10.2,18.1,18.2,24.6c8,6.5,16.7,11.8,26,15.8s20.5,7.5,33.5,10.6
	l47.5,11.7c19.5,4.8,31.7,8.7,36.5,11.7c6.9,4.3,10.4,10.9,10.4,19.5c0,8.5-4.3,15.5-13,21c-8.7,5.5-20.1,8.3-34.2,8.3
	c-11.1,0-21-1.7-29.8-5.2c-8.8-3.5-15.8-7.6-21.2-12.5s-10.3-9.8-14.8-14.6c-4.6-4.9-9.5-9.1-15-12.5c-5.4-3.5-11.3-5.2-17.6-5.2
	c-10.9,0-19,3.3-24.6,9.8c-5.5,6.5-8.3,14.6-8.3,24.4c0,20,13.2,37.1,39.7,51.3c26.5,14.2,58.1,21.3,94.7,21.3c15.8,0,31-2,45.6-6
	s27.8-9.8,39.9-17.4c12-7.6,21.6-17.7,28.8-30.4S381.8,320.2,381.8,304.4L381.8,304.4z M500,375c0,34.5-12.2,64-36.6,88.4
	S409.5,500,375,500c-28.2,0-53.6-8.7-76.2-26c-16.7,3.5-33,5.2-48.8,5.2c-31,0-60.7-6-89-18.1c-28.3-12-52.7-28.3-73.2-48.8
	S50.9,367.4,38.9,339s-18.1-58-18.1-89c0-15.8,1.7-32.1,5.2-48.8C8.7,178.6,0,153.2,0,125c0-34.5,12.2-64,36.6-88.4S90.5,0,125,0
	c28.2,0,53.6,8.7,76.2,26c16.7-3.5,33-5.2,48.8-5.2c31,0,60.7,6,89,18.1s52.7,28.3,73.2,48.8s36.8,44.9,48.8,73.2
	c12,28.3,18.1,58,18.1,89c0,15.8-1.7,32.1-5.2,48.8C491.3,321.4,500,346.8,500,375L500,375z"/>
</svg>
