<?xml version="1.0" encoding="utf-8"?>
<!-- Generator: Adobe Illustrator 18.0.0, SVG Export Plug-In . SVG Version: 6.00 Build 0)  -->
<!DOCTYPE svg PUBLIC "-//W3C//DTD SVG 1.1//EN" "http://www.w3.org/Graphics/SVG/1.1/DTD/svg11.dtd">
<svg version="1.1" id="图层_1" xmlns="http://www.w3.org/2000/svg" xmlns:xlink="http://www.w3.org/1999/xlink" x="0px" y="0px"
	 viewBox="0 0 500 500" enable-background="new 0 0 500 500" xml:space="preserve">
<path fill="#999999" d="M113.6,166.3v322.6H6.2V166.3H113.6z M120.4,66.7c0.2,15.8-5.3,29.1-16.4,39.7s-25.9,16-44.1,16h-0.7
	c-17.8,0-32.1-5.3-43-16S0,82.6,0,66.7c0-16.1,5.6-29.4,16.8-39.9s25.8-15.8,43.8-15.8s32.4,5.3,43.3,15.8S120.2,50.7,120.4,66.7z
	 M500,304v184.9H392.9V316.4c0-22.8-4.4-40.6-13.2-53.5c-8.8-12.9-22.5-19.4-41.2-19.4c-13.7,0-25.1,3.7-34.3,11.2
	c-9.2,7.5-16.1,16.8-20.7,27.8c-2.4,6.5-3.6,15.3-3.6,26.4v180H172.9c0.4-86.6,0.7-156.8,0.7-210.6s-0.1-85.9-0.3-96.4l-0.3-15.6
	h107.1v46.9h-0.7c4.3-6.9,8.8-13,13.3-18.2c4.6-5.2,10.7-10.9,18.4-16.9c7.7-6.1,17.1-10.8,28.3-14.2s23.6-5,37.3-5
	c37.1,0,66.9,12.3,89.5,36.9S500,256.5,500,304z"/>
</svg>
