<?xml version="1.0" encoding="utf-8"?>
<!-- Generator: Adobe Illustrator 18.0.0, SVG Export Plug-In . SVG Version: 6.00 Build 0)  -->
<!DOCTYPE svg PUBLIC "-//W3C//DTD SVG 1.1//EN" "http://www.w3.org/Graphics/SVG/1.1/DTD/svg11.dtd">
<svg version="1.1" id="图层_1" xmlns="http://www.w3.org/2000/svg" xmlns:xlink="http://www.w3.org/1999/xlink" x="0px" y="0px"
	 viewBox="0 0 500 500" enable-background="new 0 0 500 500" xml:space="preserve">
<path fill="#999999" d="M77.1,418.6h75.2V192.7H77.1V418.6z M157.2,123c-0.2-11.3-4.1-20.6-11.7-28c-7.6-7.4-17.7-11.1-30.3-11.1
	c-12.6,0-22.8,3.7-30.8,11.1c-7.9,7.4-11.9,16.7-11.9,28c0,11.1,3.9,20.3,11.6,27.8s17.7,11.2,30.1,11.2h0.3
	c12.8,0,23.1-3.7,30.9-11.2S157.2,134.1,157.2,123z M347.7,418.6h75.2V289.1c0-33.4-7.9-58.7-23.8-75.8
	c-15.8-17.1-36.8-25.7-62.8-25.7c-29.5,0-52.2,12.7-68,38.1h0.7v-32.9h-75.2c0.7,14.3,0.7,89.6,0,225.9h75.2V292.3
	c0-8.2,0.8-14.3,2.3-18.2c3.3-7.6,8.1-14.1,14.6-19.4c6.5-5.3,14.5-8,24.1-8c25.2,0,37.8,17,37.8,51.1V418.6z M500,93.8v312.5
	c0,25.8-9.2,47.9-27.5,66.2c-18.3,18.3-40.4,27.5-66.2,27.5H93.8c-25.8,0-47.9-9.2-66.2-27.5C9.2,454.2,0,432.1,0,406.3V93.8
	c0-25.8,9.2-47.9,27.5-66.2S67.9,0,93.8,0h312.5c25.8,0,47.9,9.2,66.2,27.5C490.8,45.8,500,67.9,500,93.8z"/>
</svg>
