<?xml version="1.0" encoding="utf-8"?>
<!-- Generator: Adobe Illustrator 18.0.0, SVG Export Plug-In . SVG Version: 6.00 Build 0)  -->
<!DOCTYPE svg PUBLIC "-//W3C//DTD SVG 1.1//EN" "http://www.w3.org/Graphics/SVG/1.1/DTD/svg11.dtd">
<svg version="1.1" id="图层_1" xmlns="http://www.w3.org/2000/svg" xmlns:xlink="http://www.w3.org/1999/xlink" x="0px" y="0px"
	 viewBox="0 0 500 500" enable-background="new 0 0 500 500" xml:space="preserve">
<path fill="#999999" d="M462.2,110.2L500,420.8c-21.3,0-42.2-4.6-62.7-13.9c-32.6-14.8-64.5-22.2-95.9-22.2
	c-36.8,0-67.2,12-91.3,36.1c-24.1-24.1-54.5-36.1-91.3-36.1c-31.4,0-63.4,7.4-95.9,22.2c-20.8,9.3-41.3,13.9-61.5,13.9H0l37.8-310.5
	c36.5-20.7,75.7-31,117.7-31c37.9,0,69.4,8.6,94.5,25.9c25.1-17.3,56.6-25.9,94.5-25.9C386.5,79.2,425.7,89.6,462.2,110.2z
	 M341.3,351.2c21,0,39.9,2.3,56.6,7s37.9,12.2,63.5,22.8l-30.3-249.3c-27.8-12.7-57.8-19-89.8-19c-36.5,0-66.9,11.5-91.3,34.4
	c-24.4-22.9-54.9-34.4-91.3-34.4c-32.1,0-62,6.3-89.8,19L38.6,381c17.1-7,30.6-12.3,40.4-15.9s21.9-6.8,36.3-9.6s28.8-4.3,43.5-4.3
	c32.9,0,63.3,8.8,91.3,26.4C278,360,308.4,351.2,341.3,351.2z M351.1,342.9l-13.4-221.4c-34.3,0.7-63.6,13.3-87.6,37.8
	c-24.7-25.2-55.2-37.8-91.3-37.8c-28.6,0-56,5.4-82,16.1L48.8,367.3c20.2-8.3,38.8-14.5,55.8-18.6s35-6.1,54.1-6.1
	c34,0,64.5,8.3,91.3,24.9c28-17.4,58.4-25.7,91.3-24.9L351.1,342.9z"/>
</svg>
