<?xml version="1.0" encoding="utf-8"?>
<!-- Generator: Adobe Illustrator 18.0.0, SVG Export Plug-In . SVG Version: 6.00 Build 0)  -->
<!DOCTYPE svg PUBLIC "-//W3C//DTD SVG 1.1//EN" "http://www.w3.org/Graphics/SVG/1.1/DTD/svg11.dtd">
<svg version="1.1" id="图层_1" xmlns="http://www.w3.org/2000/svg" xmlns:xlink="http://www.w3.org/1999/xlink" x="0px" y="0px"
	 viewBox="0 0 500 500" enable-background="new 0 0 500 500" xml:space="preserve">
<path fill="#999999" d="M220.6,114.7c-2,0.2-3.5,1.2-4.3,2.9s-1.6,2.7-2.4,2.7c-0.9,0.2-1.4-0.3-1.4-1.4c0-2.2,1.8-3.6,5.3-4.2
	H220.6z M244.9,118.6c-0.7,0.2-1.8-0.4-3.2-1.8c-1.4-1.4-3-1.8-4.9-1.3c4.5-2,7.4-1.9,8.9,0.6C246.3,117.2,246,118,244.9,118.6z
	 M147,237.7c-0.7-0.2-1.3,0.1-1.7,0.8c-0.4,0.7-0.8,1.9-1.3,3.5s-1,2.8-1.5,3.8c-0.6,0.9-1.5,2.1-2.8,3.6c-1.3,1.9-1.4,3-0.3,3.3
	c0.7,0.2,1.9-0.5,3.5-2s2.7-3.2,3.5-5c0.2-0.6,0.4-1.2,0.6-2c0.2-0.7,0.4-1.3,0.6-1.7c0.2-0.4,0.3-0.8,0.4-1.3
	c0.1-0.5,0.1-0.8,0.1-1.1V239l-0.3-0.7L147,237.7z M385.5,337.9c0-3.3-5.1-7.3-15.3-11.7c0.7-2.8,1.4-5.3,2.1-7.7s1.1-4.7,1.4-7.3
	c0.3-2.5,0.6-4.5,0.8-6c0.3-1.5,0.3-3.6,0.1-6.3c-0.2-2.7-0.3-4.5-0.3-5.4c0-0.9-0.3-3-1-6.1c-0.7-3.2-1-5.1-1.1-5.7
	c-0.1-0.7-0.6-3-1.4-7c-0.8-4-1.3-6.5-1.5-7.4c-1.9-8.9-6.2-18.5-13.1-28.7c-6.9-10.2-13.6-17.2-20.1-20.9
	c4.5,3.7,9.8,11.4,15.9,23.2c16.2,30.1,21.2,56,15.1,77.6c-2,7.4-6.7,11.3-13.9,11.7c-5.8,0.7-9.3-1-10.7-5.2
	c-1.4-4.2-2.1-12-2.2-23.3c-0.1-11.3-1.2-21.3-3.2-29.9c-1.7-7.3-3.5-13.7-5.4-19.3s-3.8-9.8-5.4-12.7s-3.1-5.2-4.3-6.8
	c-1.2-1.7-2.4-3.1-3.6-4.2c-1.2-1.1-1.9-1.8-2.1-2c-2.6-11.5-5.5-21.1-8.6-28.7c-3.2-7.6-5.9-12.8-8.2-15.6
	c-2.3-2.8-4.5-5.9-6.6-9.2s-3.4-7.1-4.2-11.2c-0.7-3.9-0.2-8.9,1.7-14.9c1.9-6,2.3-10.6,1.3-13.8s-5.2-5.5-12.4-7
	c-2.8-0.6-6.9-2.2-12.4-5c-5.5-2.8-8.8-4.3-9.9-4.5c-1.5-0.2-2.5-2.6-3.1-7.3c-0.6-4.6,0.2-9.4,2.2-14.2c2-4.8,5.4-7.3,10-7.5
	c6.9-0.6,11.6,2.2,14.2,8.4c2.6,6.1,3,11.5,1.1,16.2c-2,3.5-2.2,6-0.6,7.4c1.7,1.4,4.5,1.4,8.4,0.1c2.4-0.7,3.6-4.1,3.6-10V99.6
	c-0.9-5.6-2.2-10.2-3.8-13.9c-1.6-3.7-3.5-6.6-5.9-8.5c-2.3-2-4.5-3.3-6.6-4.2c-2-0.8-4.6-1.5-7.5-2.1
	c-19.9,1.5-28.2,13.9-24.8,37.4c0,2.8-0.1,4.2-0.3,4.2c-1.7-1.7-4.4-2.7-8.2-2.9c-3.8-0.3-6.9-0.2-9.2,0.1c-2.3,0.4-3.8-0.1-4.3-1.4
	c0.2-10.6-1.3-19-4.5-25.1s-7.3-9.3-12.6-9.5c-5-0.2-8.9,2.4-11.6,7.7s-4.2,10.8-4.6,16.6c-0.2,2.8,0.1,6.2,1,10.3
	c0.8,4.1,2,7.6,3.6,10.5s3,4.1,4.3,3.8c1.9-0.6,3.3-1.9,4.5-3.9c0.7-1.7,0.1-2.4-2-2.2c-1.3,0-2.7-1.3-4.3-4
	c-1.6-2.7-2.5-5.8-2.7-9.3c-0.2-4.1,0.7-7.5,2.5-10.3s5-4.1,9.5-3.9c3.2,0,5.7,2,7.5,5.9c1.9,3.9,2.7,7.5,2.7,10.9
	c-0.1,3.3-0.2,5.4-0.4,6.1c-4.1,2.8-7,5.5-8.6,8.1c-1.5,2.2-4,4.4-7.7,6.6c-3.6,2.1-5.5,3.3-5.7,3.5c-2.4,2.6-3.9,5.1-4.3,7.5
	s0.2,4.1,2.1,5c2.6,1.5,4.9,3.3,7,5.4c2,2.1,3.5,3.9,4.5,5.3c0.9,1.4,2.7,2.6,5.2,3.6s5.8,1.6,9.9,1.8c8.7,0.4,18.2-1,28.5-4.2
	c0.4-0.2,2.5-0.8,6.4-2c3.9-1.1,7.1-2.1,9.6-2.9c2.5-0.8,5.3-2,8.2-3.6c3-1.6,4.9-3.2,5.9-4.9c1.7-2.6,3.5-3.3,5.6-2.2
	c0.9,0.6,1.5,1.3,1.8,2.4c0.3,1,0,2.1-0.8,3.3c-0.8,1.2-2.4,2.1-4.6,2.7c-3.7,1.1-9,3.1-15.8,6c-6.8,2.9-11,4.7-12.7,5.4
	c-8.2,3.5-14.7,5.7-19.5,6.4c-4.6,0.9-12,0.7-22-0.6c-1.9-0.4-2.7-0.2-2.5,0.6s1.8,2.5,4.7,5.3c4.6,4.3,10.9,6.3,18.7,6.1
	c3.2-0.2,6.5-0.8,10-2c3.5-1.1,6.9-2.4,10-3.9c3.2-1.5,6.3-3.1,9.3-4.9c3.1-1.8,5.9-3.3,8.4-4.7c2.5-1.4,4.8-2.5,6.8-3.3
	c2-0.8,3.7-1.1,4.9-0.7s2,1.4,2.4,3.1c0,0.4-0.1,0.8-0.3,1.3c-0.2,0.5-0.6,0.9-1.1,1.4s-1.1,0.9-1.7,1.3c-0.6,0.4-1.3,0.8-2.4,1.4
	c-1,0.6-1.9,1-2.5,1.3c-0.7,0.3-1.6,0.7-2.8,1.4c-1.2,0.7-2.1,1.1-2.7,1.3c-5.2,2.6-11.5,6.7-18.8,12.3c-7.3,5.6-13.5,9.6-18.6,12
	s-9.6,2.5-13.7,0.3c-3.9-2-9.8-8.8-17.6-20.4c-4.1-5.8-6.4-7.8-7-6.1c-0.2,0.6-0.3,1.5-0.3,2.8c0,4.6-1.4,9.9-4.2,15.8
	c-2.8,5.9-5.5,11-8.2,15.5c-2.7,4.5-4.6,9.9-5.9,16.2c-1.2,6.3-0.1,12.2,3.2,17.6c-4.3,1.1-10.1,9.5-17.4,25.1
	c-7.3,15.6-11.8,28.7-13.3,39.3c-0.4,3.3-0.5,9.8-0.4,19.3c0.1,9.5-0.4,15-1.5,16.5c-1.5,4.5-4.2,4.7-8.1,0.8
	c-6-5.8-9.3-14.5-10-26.2c-0.4-5.2,0-10.4,1.1-15.6c0.7-3.5,0.7-5.2-0.3-5l-1.1,1.4c-6.7,12.1-5.8,27.5,2.8,46.3
	c0.9,2.2,3.3,4.8,7,7.8s6,4.8,6.7,5.6c3.7,4.3,13.4,12.7,29,25.2c15.6,12.6,24.3,19.7,25.9,21.3c3,2.8,4.6,6.3,4.9,10.6
	s-1,8.3-3.9,12s-7.1,5.9-12.7,6.4c1.5,2.8,4.2,6.9,8.1,12.4c3.9,5.5,6.5,10.5,7.8,15.1c1.3,4.6,2,11.1,2,19.7c8.6-4.5,9.2-13,2-25.7
	c-0.7-1.5-1.7-3-2.9-4.5c-1.2-1.5-2.1-2.6-2.7-3.3c-0.6-0.7-0.7-1.3-0.6-1.7c0.6-0.9,1.8-1.8,3.6-2.7c1.9-0.8,3.7-0.6,5.6,0.7
	c8.6,9.7,24,13,46.3,10c24.7-2.8,41.2-10.9,49.4-24.3c4.3-7.1,7.4-9.9,9.5-8.4c2.2,1.1,3.2,6,2.8,14.5c-0.2,4.6-2.3,13.2-6.4,25.7
	c-1.7,4.3-2.2,7.8-1.7,10.5c0.6,2.7,2.8,4.1,6.7,4.3c0.6-3.5,1.9-10.7,4-21.5s3.4-19.2,3.8-25.1c0.4-3.9-0.2-10.7-1.8-20.5
	c-1.6-9.8-2.3-18.8-2.1-27.1c0.2-8.3,2.3-14.8,6.4-19.7c2.8-3.3,7.5-5,14.2-5c0.2-6.9,3.4-11.8,9.6-14.8c6.2-3,13-4,20.2-2.9
	C376,332.6,381.6,334.7,385.5,337.9z M210.3,107.2c0.6-3.2,0.3-6-0.7-8.4s-2.1-3.8-3.2-4.2c-1.7-0.4-2.5,0.3-2.5,2
	c0.4,0.9,0.8,1.5,1.4,1.7c1.9,0,2.5,1.4,2,4.2c-0.6,3.7,0.2,5.6,2.2,5.6C210,108,210.3,107.7,210.3,107.2z M327.2,162.1
	c-0.4-1.5-1-2.6-1.8-3.2c-0.8-0.7-2-1.1-3.6-1.4c-1.6-0.3-2.9-0.8-4-1.5c-0.9-0.6-1.8-1.3-2.7-2.2c-0.8-0.9-1.5-1.7-2-2.2
	c-0.5-0.6-1-1.2-1.5-1.8s-0.9-1-1.1-1.1c-0.2-0.1-0.6,0-1.1,0.4c-2.6,3-2,7,2,12.1c3.9,5.1,7.5,8,10.9,8.8c1.7,0.2,3-0.6,4-2.2
	S327.6,164.2,327.2,162.1z M277.5,102.7c0-2-0.5-3.9-1.4-5.4s-2-2.7-3.1-3.5c-1.1-0.7-2-1-2.5-0.8c-2.6,0.2-3.3,0.8-2,2l1.1,0.6
	c2.6,0.7,4.3,3.6,5,8.6c0,0.6,0.7,0.4,2.2-0.6L277.5,102.7z M292.6,37.7c0-0.4-0.2-0.8-0.7-1.4c-0.5-0.6-1.3-1.2-2.5-2
	c-1.2-0.7-2.1-1.3-2.7-1.7c-2.8-2.8-5-4.2-6.7-4.2c-1.7,0.2-2.7,0.9-3.2,2.1c-0.5,1.2-0.6,2.4-0.3,3.6s0.2,2.4-0.1,3.5
	c-0.2,0.7-0.7,1.7-1.7,2.9c-0.9,1.2-1.5,2-1.7,2.5s0.1,1.3,0.8,2.4c0.7,0.6,1.5,0.6,2.2,0s1.8-1.4,3.1-2.5c1.3-1.1,2.7-2,4.2-2.5
	c0.2-0.2,1-0.3,2.5-0.3c1.5,0,2.9-0.2,4.2-0.6S292.2,38.6,292.6,37.7z M450.2,411.8c3.7,2.2,6.6,4.5,8.6,6.8s3.2,4.6,3.3,6.7
	c0.2,2.1,0,4.2-0.7,6.3s-2.1,4.1-4.3,6.1c-2.2,2-4.4,3.9-6.6,5.4c-2.1,1.6-4.9,3.3-8.4,5.2c-3.4,1.9-6.4,3.4-8.8,4.6
	c-2.4,1.2-5.4,2.7-8.9,4.3c-3.5,1.7-6,2.9-7.5,3.6c-7.1,3.5-15,8.7-23.9,15.6c-8.8,6.9-15.9,12.8-21.1,17.9c-3.2,3-9.5,4.8-19,5.4
	c-9.5,0.7-17.8-0.7-24.8-4c-3.3-1.7-6.1-3.9-8.2-6.6c-2.1-2.7-3.7-5.1-4.6-7.1c-0.9-2-3-3.9-6.1-5.4c-3.2-1.6-7.5-2.5-13.1-2.7
	c-8.2-0.2-20.3-0.3-36.3-0.3c-3.5,0-8.8,0.1-15.9,0.4c-7.1,0.3-12.5,0.5-16.2,0.7c-8.2,0.2-15.6,1.6-22.2,4.2s-11.6,5.4-14.9,8.4
	s-7.4,5.6-12.1,8s-9.7,3.4-14.9,3.2c-5.4-0.2-15.7-3.1-31-8.6c-15.3-5.6-28.8-9.6-40.7-12c-3.5-0.7-8.3-1.6-14.2-2.7
	s-10.6-1.9-13.9-2.5c-3.3-0.7-7-1.5-11-2.7c-4-1.1-7.1-2.5-9.3-4s-3.8-3.4-4.7-5.4c-1.9-4.3-1.2-10.5,2-18.6s4.8-13.2,5-15.2
	c0.2-3-0.2-6.7-1.1-11.2s-1.9-8.4-2.8-11.9c-0.9-3.4-1.3-6.8-1.3-10.2c0.1-3.3,1.1-5.9,2.9-7.5c2.6-2.2,7.9-3.5,15.9-3.9
	c8-0.4,13.6-1.5,16.7-3.3c5.6-3.3,9.5-6.6,11.7-9.8c2.2-3.2,3.3-7.9,3.3-14.2c3.9,13.6,0.9,23.4-8.9,29.6c-6,3.7-13.7,5.1-23.2,4.2
	c-6.3-0.6-10.3,0.4-12,2.8c-2.4,2.8-2,8.1,1.4,15.9c0.4,1.1,1.1,2.8,2.2,5c1.1,2.2,1.9,3.9,2.4,5s0.9,2.7,1.3,4.7s0.5,4.1,0.3,6.1
	c0,2.8-1.6,7.3-4.7,13.7s-4.5,10.8-3.9,13.4c0.6,3.2,4,5.6,10.3,7.3c3.7,1.1,11.6,2.8,23.6,5.2s21.3,4.2,27.8,5.7
	c4.5,1.1,11.3,3.2,20.6,6.1c9.3,3,17,5.1,23,6.4c6,1.3,11.2,1.7,15.5,1.1c8-1.1,14-3.7,18-7.8c4-4.1,6.1-8.6,6.4-13.4
	c0.3-4.8-0.4-10.3-2.1-16.3s-3.4-10.9-5.3-14.5s-3.7-7-5.6-10.2c-22.5-35.3-38.2-57.8-47.2-67.5c-12.6-13.8-23.2-17.5-31.5-11.2
	c-2,1.7-3.4,0.3-4.2-4.2c-0.6-3-0.7-6.5-0.6-10.6c0.2-5.4,1.1-10.2,2.8-14.5c1.7-4.3,3.9-8.6,6.7-13.1s4.8-8.4,6.1-11.7
	c1.5-3.9,4-10.6,7.4-20.1c3.4-9.5,6.2-16.7,8.2-21.8c2-5,4.8-10.7,8.4-17c3.5-6.3,7.2-11.3,10.9-15.1c20.5-26.6,32-44.7,34.6-54.4
	c-2.2-20.8-3.7-49.7-4.5-86.5c-0.4-16.7,1.9-30.8,6.7-42.3s14.7-21.2,29.6-29.2C219,2,228.6,0,240.7,0c9.9-0.2,19.7,1.1,29.6,3.8
	c9.9,2.7,18.1,6.6,24.8,11.6c10.6,7.8,19.1,19.1,25.5,33.9c6.4,14.8,9.2,28.5,8.2,41.2c-0.9,17.7,1.9,37.6,8.4,59.7
	c6.3,21,18.7,41.3,37.1,60.8c10.2,11,19.5,26.1,27.8,45.5c8.3,19.3,13.8,37.1,16.6,53.3c1.5,9.1,2,17,1.4,23.6
	c-0.6,6.6-1.7,11.8-3.3,15.5s-3.5,5.8-5.6,6.1c-1.9,0.4-4,2.1-6.6,5.3c-2.5,3.2-5,6.5-7.5,9.9c-2.5,3.4-6.3,6.6-11.3,9.3
	c-5,2.8-10.7,4.1-17,3.9c-3.3-0.2-6.3-0.7-8.8-1.4c-2.5-0.7-4.6-2-6.3-3.8s-2.9-3.2-3.8-4.3c-0.8-1.1-1.9-3-3.2-5.7
	c-1.3-2.7-2.1-4.5-2.5-5.4c-4.1-6.9-7.9-9.7-11.4-8.4c-3.5,1.3-6.1,5.9-7.8,13.7s-1,16.8,2,27.1c3.7,13,3.8,31.2,0.3,54.4
	c-1.9,12.1-0.2,21.4,5,28c5.2,6.6,12,9.7,20.4,9.2c8.4-0.5,16.3-3.8,23.7-9.9c11-9.1,19.3-15.3,25-18.6c5.7-3.3,15.3-7.2,28.9-11.9
	c9.9-3.3,17-6.7,21.5-10.2s6.2-6.6,5.2-9.6s-3.3-5.6-7-8s-8.4-4.5-14.4-6.6c-6.1-2-10.7-6.5-13.8-13.4c-3.1-6.9-4.5-13.6-4.2-20.2
	c0.3-6.6,1.7-11,4.3-13.3c0.2,5.8,0.9,11,2.2,15.8s2.7,8.5,4,11.3c1.4,2.8,3.3,5.4,5.7,8c2.4,2.5,4.4,4.3,5.9,5.3
	c1.5,1,3.5,2.2,6,3.6C448.2,410.6,449.7,411.4,450.2,411.8z"/>
</svg>
