<?xml version="1.0" encoding="utf-8"?>
<!-- Generator: Adobe Illustrator 18.0.0, SVG Export Plug-In . SVG Version: 6.00 Build 0)  -->
<!DOCTYPE svg PUBLIC "-//W3C//DTD SVG 1.1//EN" "http://www.w3.org/Graphics/SVG/1.1/DTD/svg11.dtd">
<svg version="1.1" id="图层_1" xmlns="http://www.w3.org/2000/svg" xmlns:xlink="http://www.w3.org/1999/xlink" x="0px" y="0px"
	 viewBox="0 0 500 500" enable-background="new 0 0 500 500" xml:space="preserve">
<path fill="#999999" d="M360.5,172.9c0,1.1,0.9,4.9,2.8,11.4c1.9,5.4,4.2,10,7,13.8c2.8,3.8,6.6,7,11.4,9.5
	c4.8,2.5,8.9,4.4,12.3,5.6c3.3,1.2,8.5,2.7,15.3,4.6c60.5,16.9,90.7,47.8,90.7,92.6c0,27.2-9.8,49.7-29.4,67.7s-43.3,26.9-71,26.9
	c-11,0-21.3-1.7-31.1-5.2s-18.3-7.7-25.5-12.7c-7.3-5-14.4-12-21.5-20.8c-7.1-8.8-12.9-17-17.6-24.4c-4.7-7.4-9.6-17.1-14.9-28.9
	c-5.3-11.8-9.3-21.4-12.1-28.7c-2.8-7.3-6.5-17.3-11-29.7c-4.6-12.5-7.9-21.3-9.9-26.5c-6-15.1-11.7-27.5-17.2-37.2
	c-5.5-9.8-12.3-18.7-20.5-26.9c-8.2-8.2-17.9-14.1-29-17.9c-11.2-3.7-24.4-5.6-39.6-5.6c-17.9,0-34.9,5.2-51.1,15.5
	c-16.2,10.3-29,23.8-38.5,40.3s-14.2,33.8-14.2,51.6c0,29.8,9.9,55.8,29.7,78c19.8,22.2,44.3,33.3,73.5,33.3
	c32.9,0,56.9-8.8,72-26.5c10.4-11.7,18.1-22.5,23.2-32.4l23.4,42.4c-2.8,6.3-6.9,12.8-12.3,19.5l0.3,0.3
	c-24.4,28.3-60.5,42.4-108.3,42.4c-27.3,0-52.4-7.3-75.2-22c-22.8-14.7-40.5-34-53.2-57.9S0,275.6,0,248.5C0,229,4,209.8,12.1,191
	s18.9-35.2,32.4-49.2s29.5-25.3,48-33.9S130,95,149.6,95c16.2,0,31,1.8,44.4,5.3c13.4,3.5,24.9,8.2,34.5,14
	c9.6,5.8,18.4,13.2,26.5,22.3s14.8,18.3,20.2,27.6c5.4,9.3,10.8,20.2,16.3,32.6c5.5,12.5,10.2,24,14.1,34.7s8.6,22.8,14,36.4
	c5.4,13.6,10.5,25.4,15.3,35.4c17.9,37.2,39.5,55.8,65,55.8c15.1,0,27.9-4.5,38.6-13.5c10.7-9,16-21,16-35.9
	c0-7.8-1.8-14.5-5.3-20.1c-3.5-5.6-8.2-9.9-14.1-12.8c-5.9-3-12.6-5.9-20.2-8.8c-7.6-2.9-15.5-5.4-23.6-7.5s-16.2-5.3-24.4-9.5
	s-15.7-9-22.6-14.5c-6.9-5.5-12.9-13.1-18.1-22.9s-8.8-21.2-10.9-34.2c-0.6-3-0.8-6-0.8-9.2c0-20.5,8.1-38.3,24.4-53.6
	s34.7-22.5,55.4-21.8c14.5,0.6,25.7,1.9,33.6,4c7.9,2.1,16.3,7.1,25.3,14.9h-0.3c2.2,2,4.4,4.3,6.4,6.8c2,2.5,4.5,5.9,7.3,10
	c2.8,4.2,4.6,6.7,5.3,7.7l-36,27.6c-4.8-9.1-9.9-15.6-15.1-19.5v-0.3c-4.3-3.9-13.3-5.9-27.1-5.9c-9.1,0-16.9,3.1-23.4,9.2
	C363.7,155.9,360.5,163.6,360.5,172.9z"/>
</svg>
