<?xml version="1.0" encoding="utf-8"?>
<!-- Generator: Adobe Illustrator 18.0.0, SVG Export Plug-In . SVG Version: 6.00 Build 0)  -->
<!DOCTYPE svg PUBLIC "-//W3C//DTD SVG 1.1//EN" "http://www.w3.org/Graphics/SVG/1.1/DTD/svg11.dtd">
<svg version="1.1" id="图层_1" xmlns="http://www.w3.org/2000/svg" xmlns:xlink="http://www.w3.org/1999/xlink" x="0px" y="0px"
	 viewBox="0 0 500 500" enable-background="new 0 0 500 500" xml:space="preserve">
<path fill="#999999" d="M466.1,300.8c0-37.5-25.4-63.5-76.2-77.8c-7.6-2.2-13.3-4-17.3-5.4s-8-4.1-12.4-8.1s-7.5-9.1-9.4-15.1
	c0-0.4-0.2-1.4-0.7-2.8c-0.4-1.4-0.8-2.7-1-3.9c-0.2-1.2-0.3-2-0.3-2.4c0-7.8,2.7-14.3,8-19.4c5.3-5.1,11.9-7.6,19.7-7.6
	c11.7,0,19.4,1.6,23.1,4.9h-0.3c4.3,3.3,8.6,8.8,12.7,16.6l30.3-23.1c-8.5-11.7-13.8-18.7-16-20.8c-7.2-6.3-14.5-10.5-22-12.7
	c-7.5-2.2-16.8-3.3-27.8-3.3c-17.4,0-32.8,6.2-46.2,18.7c-13.5,12.5-20.2,27.4-20.2,44.8c0,1.5,0.2,4,0.7,7.5
	c3.5,20.8,10.5,36,21,45.6c10.5,9.5,26.6,17.5,48.3,23.8c6.3,1.7,11.6,3.4,16,5c4.3,1.6,9.2,4,14.6,7c5.4,3,9.6,6.8,12.5,11.2
	s4.4,9.5,4.4,15.1v1.6c0.2,12.6-4.2,22.7-13.2,30.3c-9,7.6-19.9,11.4-32.7,11.4c-21.1,0-39.2-15.6-54.4-46.9
	c-5-10.2-10.6-23.4-16.8-39.6c-6.2-16.2-11.4-29.8-15.6-40.9c-4.2-11.1-10.1-23.1-17.6-36c-7.5-12.9-15.5-23.3-24.1-31.1
	c-8.6-7.8-19.8-14.4-33.7-19.7c-13.9-5.3-29.8-8-47.9-8c-21.9,0-42.8,6.1-62.5,18.2S74,166.2,62.5,186.2S45.6,227,46.2,248.7v0.3
	c0.9,23.4,6.3,45,16.4,64.8c10.1,19.7,24.6,35.8,43.5,48s40.1,18.4,63.8,18.4c40.4,0,70.6-11.9,90.8-35.8
	c4.3-5.9,7.7-11.4,10.1-16.6l-19.5-35.5c-9.1,17.4-19.9,29.9-32.2,37.8c-12.4,7.8-28.2,11.7-47.5,11.7c-25,0-45.7-9.4-62.2-28.3
	s-24.7-41-24.7-66.4c0-22.8,8.9-43.3,26.7-61.5s38-27.3,60.5-27.3c24.3,0,42.8,5.8,55.3,17.4c12.6,11.6,23.9,30.3,33.9,56.2
	c1.7,4.6,4.5,12,8.3,22.3c3.8,10.3,6.9,18.6,9.3,24.9s5.8,14.4,10.3,24.3c4.4,9.9,8.6,17.9,12.5,24.1c3.9,6.2,8.8,13,14.8,20.3
	s12,13.2,18.1,17.4c6.1,4.2,13.2,7.8,21.5,10.7c8.2,2.9,16.9,4.4,26,4.4c23.2,0,43.1-7.5,59.6-22.6
	C457.9,342.5,466.1,323.6,466.1,300.8z M500,93.8v312.5c0,25.8-9.2,47.9-27.5,66.2c-18.3,18.3-40.4,27.5-66.2,27.5H93.8
	c-25.8,0-47.9-9.2-66.2-27.5C9.2,454.2,0,432.1,0,406.3V93.8c0-25.8,9.2-47.9,27.5-66.2S67.9,0,93.8,0h312.5
	c25.8,0,47.9,9.2,66.2,27.5C490.8,45.8,500,67.9,500,93.8z"/>
</svg>
