<?xml version="1.0" encoding="utf-8"?>
<!-- Generator: Adobe Illustrator 18.0.0, SVG Export Plug-In . SVG Version: 6.00 Build 0)  -->
<!DOCTYPE svg PUBLIC "-//W3C//DTD SVG 1.1//EN" "http://www.w3.org/Graphics/SVG/1.1/DTD/svg11.dtd">
<svg version="1.1" id="图层_1" xmlns="http://www.w3.org/2000/svg" xmlns:xlink="http://www.w3.org/1999/xlink" x="0px" y="0px"
	 viewBox="0 0 500 500" enable-background="new 0 0 500 500" xml:space="preserve">
<path fill="#999999" d="M297.9,311.8h-95.7L250,132.5L297.9,311.8z M325.8,416.7h101.2L321.6,83.3H178.4L72.9,416.7h101.2
	l124.7-102.2L325.8,416.7z M500,93.8v312.5c0,25.6-9.2,47.6-27.7,66.1S431.9,500,406.3,500H93.8c-25.6,0-47.6-9.2-66.1-27.7
	S0,431.9,0,406.3V93.8c0-25.6,9.2-47.6,27.7-66.1S68.1,0,93.8,0h312.5c25.6,0,47.6,9.2,66.1,27.7S500,68.1,500,93.8L500,93.8z"/>
</svg>
