<?xml version="1.0" encoding="utf-8"?>
<!-- Generator: Adobe Illustrator 18.0.0, SVG Export Plug-In . SVG Version: 6.00 Build 0)  -->
<!DOCTYPE svg PUBLIC "-//W3C//DTD SVG 1.1//EN" "http://www.w3.org/Graphics/SVG/1.1/DTD/svg11.dtd">
<svg version="1.1" id="图层_1" xmlns="http://www.w3.org/2000/svg" xmlns:xlink="http://www.w3.org/1999/xlink" x="0px" y="0px"
	 viewBox="0 0 500 500" enable-background="new 0 0 500 500" xml:space="preserve">
<path fill="#999999" d="M268.6,280.3L380.2,88.9h-48.8c-4.6,8.5-11.4,21.3-20.7,38.6c-9.2,17.3-16.6,31.2-22.1,41.8
	c-5.5,10.6-12,23.5-19.4,38.6s-13.9,29-19.5,41.8h-1c-4.6-10.4-9.4-20.9-14.5-31.6c-5.1-10.6-10.7-22.1-16.9-34.3
	s-11.2-22.2-15.1-29.9s-9.8-19-17.6-34s-13.1-25.3-16-30.9h-48.8l105.1,191.7v141.6h43.6V280.3z M500,93.8v312.5
	c0,25.8-9.2,47.9-27.5,66.2c-18.3,18.3-40.4,27.5-66.2,27.5H93.8c-25.8,0-47.9-9.2-66.2-27.5C9.2,454.2,0,432.1,0,406.3V93.8
	c0-25.8,9.2-47.9,27.5-66.2S67.9,0,93.8,0h312.5c25.8,0,47.9,9.2,66.2,27.5C490.8,45.8,500,67.9,500,93.8z"/>
</svg>
