<?xml version="1.0" encoding="utf-8"?>
<!-- Generator: Adobe Illustrator 18.0.0, SVG Export Plug-In . SVG Version: 6.00 Build 0)  -->
<!DOCTYPE svg PUBLIC "-//W3C//DTD SVG 1.1//EN" "http://www.w3.org/Graphics/SVG/1.1/DTD/svg11.dtd">
<svg version="1.1" id="图层_1" xmlns="http://www.w3.org/2000/svg" xmlns:xlink="http://www.w3.org/1999/xlink" x="0px" y="0px"
	 viewBox="0 0 500 500" enable-background="new 0 0 500 500" xml:space="preserve">
<path fill="#999999" d="M80.1,100.1h49.8v240H0V169.9h80.1V100.1z M80.1,300V210H50V300H80.1z M149.9,169.9v170.2h50V169.9H149.9z
	 M149.9,100.1v49.8h50v-49.8H149.9z M220,169.9h130.1v230H220v-39.8H300v-20H220V169.9z M300,300V210h-30V300H300z M370.1,169.9H500
	v230H370.1v-39.8H450v-20h-79.8V169.9z M450,300V210h-30V300H450z"/>
</svg>
