<?xml version="1.0" encoding="utf-8"?>
<!-- Generator: Adobe Illustrator 18.0.0, SVG Export Plug-In . SVG Version: 6.00 Build 0)  -->
<!DOCTYPE svg PUBLIC "-//W3C//DTD SVG 1.1//EN" "http://www.w3.org/Graphics/SVG/1.1/DTD/svg11.dtd">
<svg version="1.1" id="图层_1" xmlns="http://www.w3.org/2000/svg" xmlns:xlink="http://www.w3.org/1999/xlink" x="0px" y="0px"
	 viewBox="0 0 500 500" enable-background="new 0 0 500 500" xml:space="preserve">
<path fill="#999999" d="M306.4,159.6c0,14.9-5.3,27.6-15.9,38.1c-10.6,10.5-23.3,15.8-37.9,15.8c-11.2,0-21.5-3.3-31-9.8
	c-11.5,12.5-22.2,26-32.1,40.7c-45.9,69-64.7,148.9-56.4,239.7c0.2,4.1-1,7.7-3.5,10.7c-2.5,3.1-5.7,4.8-9.6,5.2h-1.4
	c-3.7,0-7-1.3-9.8-3.8c-2.8-2.5-4.4-5.6-4.7-9.3c-2.6-23.4-2.9-46.5-1-69.1c2-22.6,4.7-42.8,8.2-60.5c3.5-17.8,8.6-35.1,15.1-51.9
	c6.5-16.8,12.9-31.3,19.3-43.4c6.3-12.1,13.2-23.7,20.6-34.9c11.3-16.7,23.6-32.1,36.8-46c-3-6.5-4.5-13.7-4.5-21.5
	c0-14.9,5.3-27.6,15.8-38.1c10.5-10.5,23.2-15.8,38.1-15.8c14.9,0,27.6,5.3,38.1,15.8C301.1,132,306.4,144.7,306.4,159.6
	L306.4,159.6z M412.7,162.7c0,29.4-7.3,56.5-21.8,81.5c-14.5,24.9-34.3,44.6-59.3,59.2c-25,14.5-52.2,21.8-81.6,21.8
	c-11.9,0-24.1-1.3-36.6-3.9c-3.9-0.9-6.9-3.1-9.1-6.6c-2.1-3.4-2.7-7.1-1.8-11c0.9-3.7,3.1-6.6,6.4-8.8c3.3-2.1,7-2.8,10.9-2.1
	c9.5,2.4,19.5,3.6,30.1,3.6c18,0,35.3-3.5,51.9-10.6c16.6-7.1,30.8-16.6,42.7-28.5c11.9-11.9,21.4-26.1,28.5-42.7
	s10.6-33.9,10.6-51.9s-3.5-35.3-10.6-51.9S356.5,80,344.6,68.1c-11.9-11.9-26.1-21.4-42.7-28.5C285.3,32.6,268,29,250,29
	c-18,0-35.3,3.5-51.9,10.6s-30.8,16.6-42.7,28.5C143.5,80,134,94.2,127,110.8c-7.1,16.6-10.6,33.9-10.6,51.9
	c0,21.2,4.8,41.5,14.5,60.8c1.9,3.7,2.2,7.4,1,11.2s-3.6,6.5-7.1,8.4c-3.5,1.9-7.2,2.1-11,0.8c-3.8-1.3-6.6-3.7-8.5-7.3
	c-11.9-22.9-17.9-47.5-17.9-73.9c0-22.1,4.3-43.2,13-63.3s20.2-37.4,34.7-51.9s31.8-26,51.9-34.6S228.1,0,250,0
	c29.4,0,56.6,7.3,81.6,21.8s44.8,34.3,59.3,59.3C405.4,106.1,412.7,133.3,412.7,162.7L412.7,162.7z"/>
</svg>
