<?xml version="1.0" encoding="utf-8"?>
<!-- Generator: Adobe Illustrator 18.0.0, SVG Export Plug-In . SVG Version: 6.00 Build 0)  -->
<!DOCTYPE svg PUBLIC "-//W3C//DTD SVG 1.1//EN" "http://www.w3.org/Graphics/SVG/1.1/DTD/svg11.dtd">
<svg version="1.1" id="图层_1" xmlns="http://www.w3.org/2000/svg" xmlns:xlink="http://www.w3.org/1999/xlink" x="0px" y="0px"
	 viewBox="0 0 500 500" enable-background="new 0 0 500 500" xml:space="preserve">
<path fill="#999999" d="M75.3,224.9c-1.5-3.5-2.2-8.4-2.2-14.5c0-3.7,1-8.3,3.1-13.7c2-5.4,4.3-9.6,6.7-12.6
	c-0.2-4.1,0.5-9,2.1-14.8c1.6-5.8,3.7-9.8,6.3-12c0-25.9,8.6-52.7,25.8-80.5s37.4-47.3,60.7-58.5C203.6,6.1,233.7,0,268.1,0
	c24.7,0,49.5,5.1,74.2,15.3c9.1,3.9,17.5,8.4,25.1,13.4s14.2,10.2,19.8,15.6s10.7,11.7,15.3,19c4.7,7.3,8.6,14.1,11.7,20.6
	c3.2,6.5,6.2,14.4,9.1,23.6c2.9,9.2,5.3,17.5,7.1,25c1.9,7.4,3.9,16.6,6.1,27.3l0.3,1.4c10.2,15.4,15.3,29.4,15.3,41.9
	c0,2.6-0.8,6.3-2.5,11.2s-2.5,8.4-2.5,10.6c0,0.2,0.1,0.5,0.4,1c0.3,0.5,0.6,0.9,1,1.4c0.4,0.5,0.6,0.8,0.6,1
	c14.3,21.2,25.5,41.2,33.6,59.8s12.1,38.1,12.1,58.2c0,8-1.8,17.3-5.4,27.9c-3.6,10.6-8.8,15.9-15.5,15.9c-1.7,0-3.5-0.7-5.4-2.1
	s-3.7-3-5.3-4.9s-3.3-4.3-5.3-7.3c-2-3-3.4-5.4-4.5-7.4c-1-2-2.3-4.4-3.8-7.3c-1.5-2.9-2.3-4.5-2.5-4.9c-0.2-0.2-0.5-0.3-0.8-0.3
	l-1.4,1.1c-11,28.6-23.3,49.4-36.8,62.2c3.7,3.7,9.4,7.3,17.2,10.7c7.7,3.4,14.1,7.3,19.3,11.6c5.1,4.3,8.4,10.3,9.9,18.1
	c-0.4,0.7-0.7,2.2-1.1,4.5s-1,3.9-2,5c-11.9,18-40,27.1-84.3,27.1c-9.9,0-20.1-0.8-30.8-2.5c-10.7-1.7-19.8-3.5-27.3-5.6
	s-17.3-4.8-29.2-8.4c-2.8-0.9-4.9-1.6-6.4-2c-2.6-0.7-6.9-1.2-12.8-1.3c-6-0.1-9.7-0.2-11.2-0.4c-7.6,8.4-19.5,14.4-35.6,18.1
	s-31.8,5.6-47,5.6c-6.5,0-12.9-0.1-19.3-0.4s-15-1.1-25.9-2.5s-20.4-3.3-28.2-5.7c-7.8-2.4-14.7-6.1-20.8-11.2c-6-5-9.1-11-9.1-17.9
	c0-7.4,0.9-13,2.8-16.6s5.7-8.1,11.4-13.5c2-0.4,5.8-1.6,11.3-3.6c5.5-2,10.1-3.2,13.8-3.3c0.7,0,2-0.2,3.9-0.6
	c0.4-0.4,0.6-0.7,0.6-1.1l-0.6-0.8c-8.9-2-19-11.9-30.1-29.4s-18-32.1-20.4-43.7l-1.4-0.8c-0.7,0-1.9,1.9-3.3,5.6
	c-3.3,7.6-8.4,14.6-15.2,20.8c-6.8,6.2-14,9.7-21.6,10.5h-0.3c-0.7,0-1.3-0.4-1.7-1.3c-0.4-0.8-0.8-1.3-1.4-1.5
	c-4.3-10-6.4-19.3-6.4-27.9C5,303.8,28.5,260.4,75.3,224.9z"/>
</svg>
