<?xml version="1.0" encoding="utf-8"?>
<!-- Generator: Adobe Illustrator 18.0.0, SVG Export Plug-In . SVG Version: 6.00 Build 0)  -->
<!DOCTYPE svg PUBLIC "-//W3C//DTD SVG 1.1//EN" "http://www.w3.org/Graphics/SVG/1.1/DTD/svg11.dtd">
<svg version="1.1" id="图层_1" xmlns="http://www.w3.org/2000/svg" xmlns:xlink="http://www.w3.org/1999/xlink" x="0px" y="0px"
	 viewBox="0 0 500 500" enable-background="new 0 0 500 500" xml:space="preserve">
<path fill="#999999" d="M234.4,122.6c0,12-1.9,23.4-5.7,34.1c-3.8,10.7-10.1,20-18.9,27.8c-8.8,7.8-19.3,11.7-31.6,11.7
	c-15.2,0-29-5.8-41.5-17.3c-12.4-11.5-21.6-25.1-27.6-40.7c-6-15.6-9-30.7-9-45.4c0-12,1.9-23.4,5.7-34.1
	c3.8-10.7,10.1-20,18.9-27.8s19.3-11.7,31.6-11.7c15.4,0,29.3,5.8,41.6,17.3c12.3,11.5,21.5,25,27.5,40.6S234.4,107.8,234.4,122.6z
	 M131.6,267.7c0,16-4.2,29.9-12.6,41.8c-8.4,11.8-20.3,17.7-35.8,17.7c-15.2,0-29.4-5.6-42.5-16.7s-23.2-24.5-30.2-40.1
	S0,239.6,0,224.8c0-16,4.2-30,12.6-41.9C21,170.9,33,165,48.4,165c15.2,0,29.4,5.6,42.5,16.7s23.2,24.5,30.2,40.3
	C128.1,237.6,131.6,252.9,131.6,267.7z M250,259.6c23.6,0,49.2,9.8,76.6,29.3c27.4,19.5,50.4,43.3,68.8,71.2
	c18.4,27.9,27.6,53.4,27.6,76.5c0,9.2-1.7,16.9-5.1,23c-3.4,6.1-8.3,10.6-14.6,13.5c-6.3,2.9-12.8,4.9-19.4,6
	c-6.6,1.1-14.2,1.7-22.8,1.7c-13.6,0-32.4-4.5-56.3-13.5c-23.9-9-42.2-13.5-54.8-13.5c-13.2,0-32.5,4.5-57.8,13.4
	s-45.4,13.4-60.2,13.4c-36.7,0-55-14.6-55-43.9c0-17.2,5.6-36.4,16.8-57.5s25.2-40.4,41.9-57.8c16.7-17.4,35.5-32.1,56.3-43.9
	S232.2,259.6,250,259.6z M321.8,196.2c-12.2,0-22.7-3.9-31.6-11.7s-15.1-17.1-18.9-27.8c-3.8-10.7-5.7-22.1-5.7-34.1
	c0-14.8,3-30,9-45.5s15.2-29,27.5-40.6c12.3-11.5,26.2-17.3,41.6-17.3c12.2,0,22.7,3.9,31.6,11.7s15.1,17.1,18.9,27.8
	c3.8,10.7,5.7,22.1,5.7,34.1c0,14.6-3,29.7-9,45.4s-15.2,29.2-27.6,40.7C350.9,190.5,337,196.2,321.8,196.2z M451.6,165
	c15.4,0,27.3,6,35.8,17.9c8.4,11.9,12.6,25.9,12.6,41.9c0,14.8-3.5,30-10.5,45.7s-17.1,29-30.2,40.1s-27.3,16.7-42.5,16.7
	c-15.4,0-27.3-5.9-35.8-17.7c-8.4-11.8-12.6-25.7-12.6-41.8c0-14.8,3.5-30.1,10.5-45.8s17.1-29.1,30.2-40.3
	C422.2,170.5,436.4,165,451.6,165z"/>
</svg>
