<?xml version="1.0" encoding="utf-8"?>
<!-- Generator: Adobe Illustrator 18.0.0, SVG Export Plug-In . SVG Version: 6.00 Build 0)  -->
<!DOCTYPE svg PUBLIC "-//W3C//DTD SVG 1.1//EN" "http://www.w3.org/Graphics/SVG/1.1/DTD/svg11.dtd">
<svg version="1.1" id="图层_1" xmlns="http://www.w3.org/2000/svg" xmlns:xlink="http://www.w3.org/1999/xlink" x="0px" y="0px"
	 viewBox="0 0 500 500" enable-background="new 0 0 500 500" xml:space="preserve">
<path fill="#999999" d="M500,95.2c-14.2,20.7-31.3,38.4-51.4,53c0.2,3,0.3,7.4,0.3,13.3c0,27.5-4,54.9-12.1,82.3
	s-20.3,53.7-36.6,78.8s-35.9,47.4-58.5,66.8c-22.6,19.4-49.9,34.8-81.9,46.3c-31.9,11.5-66.1,17.3-102.5,17.3
	C100,453,47.6,437.7,0,407c7.4,0.8,15.7,1.3,24.7,1.3c47.6,0,90-14.6,127.2-43.8c-22.2-0.4-42.1-7.2-59.6-20.5S62.7,314,56.2,293.5
	c7,1.1,13.4,1.6,19.4,1.6c9.1,0,18.1-1.2,27-3.5c-23.7-4.9-43.3-16.7-58.9-35.4S20.3,215.7,20.3,191v-1.3c14.4,8,29.8,12.4,46.3,13
	c-14-9.3-25.1-21.5-33.3-36.5c-8.2-15-12.4-31.3-12.4-48.9c0-18.6,4.7-35.9,14-51.7c25.6,31.5,56.7,56.7,93.4,75.7
	s76,29.5,117.9,31.6c-1.7-8-2.5-15.9-2.5-23.5c0-28.3,10-52.5,30-72.5c20-20,44.2-30,72.5-30c29.6,0,54.6,10.8,74.9,32.4
	c23.1-4.4,44.7-12.7,65-24.7c-7.8,24.3-22.8,43.1-45.1,56.5C460.7,108.9,480.3,103.6,500,95.2z"/>
</svg>
