<?xml version="1.0" encoding="utf-8"?>
<!-- Generator: Adobe Illustrator 18.0.0, SVG Export Plug-In . SVG Version: 6.00 Build 0)  -->
<!DOCTYPE svg PUBLIC "-//W3C//DTD SVG 1.1//EN" "http://www.w3.org/Graphics/SVG/1.1/DTD/svg11.dtd">
<svg version="1.1" id="图层_1" xmlns="http://www.w3.org/2000/svg" xmlns:xlink="http://www.w3.org/1999/xlink" x="0px" y="0px"
	 viewBox="0 0 500 500" enable-background="new 0 0 500 500" xml:space="preserve">
<path fill="#999999" d="M416.7,156.9c-12.2,5.4-25.3,9.1-39.4,11.1c14.8-8.7,24.8-21.4,30.3-38.1c-14.1,8.2-28.6,13.8-43.6,16.6
	c-13.2-14.3-29.8-21.5-49.8-21.5c-18.9,0-35,6.7-48.3,20c-13.3,13.3-20,29.5-20,48.3c0,6.3,0.5,11.5,1.6,15.6
	c-28-1.5-54.3-8.6-78.8-21.2c-24.5-12.6-45.4-29.4-62.5-50.5c-6.3,10.9-9.4,22.4-9.4,34.5c0,24.7,9.9,43.7,29.6,57
	c-10.2-0.2-21.1-3-32.6-8.5v0.7c0,16.3,5.4,30.8,16.3,43.5c10.9,12.7,24.2,20.6,40,23.6c-6.3,1.7-11.8,2.6-16.6,2.6
	c-2.8,0-7.1-0.4-12.7-1.3c4.6,13.7,12.6,25,24.3,33.9s24.8,13.5,39.6,13.7c-25.2,19.5-53.5,29.3-85,29.3c-5.6,0-11.1-0.3-16.3-1
	c32.1,20.4,67.1,30.6,104.8,30.6c24.3,0,47.1-3.9,68.4-11.6s39.5-18,54.7-30.9c15.2-12.9,28.3-27.8,39.2-44.6
	c11-16.8,19.1-34.4,24.4-52.7c5.3-18.3,8-36.6,8-54.9c0-3.9-0.1-6.8-0.3-8.8C396.2,182.6,407.6,170.8,416.7,156.9z M500,93.8v312.5
	c0,25.8-9.2,47.9-27.5,66.2c-18.3,18.3-40.4,27.5-66.2,27.5H93.8c-25.8,0-47.9-9.2-66.2-27.5C9.2,454.2,0,432.1,0,406.3V93.8
	c0-25.8,9.2-47.9,27.5-66.2S67.9,0,93.8,0h312.5c25.8,0,47.9,9.2,66.2,27.5C490.8,45.8,500,67.9,500,93.8z"/>
</svg>
