<?xml version="1.0" encoding="utf-8"?>
<!-- Generator: Adobe Illustrator 18.0.0, SVG Export Plug-In . SVG Version: 6.00 Build 0)  -->
<!DOCTYPE svg PUBLIC "-//W3C//DTD SVG 1.1//EN" "http://www.w3.org/Graphics/SVG/1.1/DTD/svg11.dtd">
<svg version="1.1" id="图层_1" xmlns="http://www.w3.org/2000/svg" xmlns:xlink="http://www.w3.org/1999/xlink" x="0px" y="0px"
	 viewBox="0 0 500 500" enable-background="new 0 0 500 500" xml:space="preserve">
<path fill="#999999" d="M188.3,358.2c3.9-6.3,4.9-12.7,3.1-19.2c-1.9-6.5-6-11.2-12.6-13.9c-6.3-2.6-13.1-2.7-20.4-0.3
	s-12.8,6.7-16.7,12.8c-4.1,6.3-5.3,12.7-3.6,19.1c1.7,6.4,5.7,11.1,12,14.1c6.3,3,13.2,3.2,20.8,0.7
	C178.4,368.9,184.2,364.5,188.3,358.2z M214.5,324.4c1.5-2.4,1.8-4.9,1-7.4c-0.8-2.5-2.5-4.2-4.9-5.2c-2.6-0.9-5.3-0.9-7.9,0.1
	c-2.7,1-4.7,2.7-6,5.2c-3.2,5.8-2,9.9,3.6,12.6c2.6,0.9,5.3,0.9,8.1-0.1C211.1,328.6,213.2,326.8,214.5,324.4z M263,354.3
	c-8.4,19-23.1,32.9-44.1,41.8s-41.8,10-62.5,3.3c-19.9-6.3-33.6-18.1-41.1-35.3c-7.5-17.2-6.9-34.6,1.8-52.3
	c8.7-17.3,22.8-30.2,42.3-38.8s39-10.3,58.7-5.3c20.6,5.4,35.4,16.5,44.2,33.3S271.4,335.7,263,354.3z M350.1,309.6
	c-1.7-17.9-9.9-33.7-24.8-47.4s-34.3-23.9-58.2-30.4c-23.9-6.5-49.4-8.5-76.6-5.9c-41.5,4.3-75.8,17.4-103.1,39.5
	s-39.6,46.6-37,73.8c1.7,17.9,9.9,33.7,24.8,47.4c14.9,13.8,34.3,23.9,58.2,30.4c23.9,6.5,49.4,8.5,76.6,5.9
	c41.5-4.3,75.8-17.4,103.1-39.5C340.3,361.4,352.7,336.8,350.1,309.6z M436,310.8c0,12.6-3.4,25.6-10.3,38.9s-17,26-30.4,38.2
	c-13.4,12.2-29.1,23.1-47,32.8c-17.9,9.7-39,17.4-63,23.2c-24.1,5.8-49.2,8.6-75.4,8.6s-51.8-3.1-76.7-9.3
	c-24.9-6.2-47.3-14.9-67.1-25.9S30.2,392.1,18.1,375C6,358,0,339.5,0,319.4c0-21.4,6.5-44.2,19.4-68.3c12.9-24.2,31.3-48.2,55.1-72
	c31.4-31.4,63.2-53.4,95.3-65.8s55-11.8,68.8,2c12.1,11.9,13.9,31.3,5.6,58.3c-0.7,2.6-0.8,4.5-0.3,5.6c0.6,1.1,1.5,1.8,2.8,2
	s2.6,0.1,4-0.1c1.4-0.3,2.6-0.6,3.8-1l1.7-0.6c25.8-11,48.7-16.5,68.6-16.5s34.1,5.7,42.7,17c8.4,11.7,8.4,28.3,0,49.6
	c-0.4,2.4-0.8,4.3-1.3,5.6s0,2.5,1.3,3.5c1.3,1,2.4,1.7,3.3,2.1c0.9,0.4,2.5,0.9,4.7,1.7c10.6,3.3,20.2,7.7,28.7,13.1
	c8.6,5.4,16,13,22.3,22.7C432.8,288,436,298.9,436,310.8z M415.3,136.7c7.8,8.7,12.9,18.8,15.2,30.3s1.7,22.4-1.8,32.8
	c-1.5,4.3-4.2,7.4-8.2,9.5c-4,2-8.1,2.4-12.4,1.1c-4.3-1.5-7.4-4.2-9.5-8.2c-2-4-2.4-8.1-1.1-12.4c3.7-11.7,1.5-22-6.7-31
	c-8.2-8.9-18.1-12.2-29.8-9.8c-4.5,0.9-8.6,0.2-12.6-2.2c-3.9-2.4-6.2-5.9-7-10.3c-0.9-4.5-0.2-8.6,2.2-12.4s5.9-6.2,10.3-7.1
	c11.2-2.4,22.2-1.9,33.2,1.5S407.5,128,415.3,136.7z M465.8,91.2c16.2,17.9,26.6,38.5,31.4,62.1s3.5,46-3.8,67.4
	c-1.7,5-4.8,8.7-9.5,11.2c-4.6,2.4-9.5,2.8-14.5,1.1c-5-1.7-8.7-4.8-11.2-9.5s-2.9-9.5-1.4-14.5c5.2-15.2,6.1-31.2,2.8-48
	c-3.3-16.7-10.8-31.4-22.3-44.1c-11.5-12.8-25.3-21.7-41.3-26.6c-16-4.9-32.1-5.7-48.3-2.4c-5.2,1.1-10,0.2-14.5-2.6
	c-4.5-2.9-7.3-6.9-8.4-12.1s-0.2-10,2.6-14.4s6.9-7.1,12.1-8.2c22.9-4.8,45.6-3.8,68.1,3.2S449.6,73.2,465.8,91.2z"/>
</svg>
