<?xml version="1.0" encoding="utf-8"?>
<!-- Generator: Adobe Illustrator 18.0.0, SVG Export Plug-In . SVG Version: 6.00 Build 0)  -->
<!DOCTYPE svg PUBLIC "-//W3C//DTD SVG 1.1//EN" "http://www.w3.org/Graphics/SVG/1.1/DTD/svg11.dtd">
<svg version="1.1" id="图层_1" xmlns="http://www.w3.org/2000/svg" xmlns:xlink="http://www.w3.org/1999/xlink" x="0px" y="0px"
	 viewBox="0 0 500 500" enable-background="new 0 0 500 500" xml:space="preserve">
<path fill="#999999" d="M141.6,143.8c0-6.7-2-12-6.1-16.1c-4.1-4.1-9.4-6.1-16.1-6.1c-7,0-13.2,2.1-18.6,6.2s-8.1,9.5-8.1,16
	c0,6.3,2.7,11.6,8.1,15.7s11.6,6.2,18.6,6.2c6.7,0,12-2,16.1-6S141.6,150.5,141.6,143.8z M323,267.6c0-4.6-2.1-8.6-6.2-12.2
	c-4.2-3.6-9.5-5.4-16-5.4c-4.4,0-8.4,1.8-12.1,5.5s-5.5,7.7-5.5,12.1c0,4.6,1.8,8.7,5.5,12.3s7.7,5.5,12.1,5.5
	c6.5,0,11.8-1.8,16-5.4S323,272.3,323,267.6z M265.4,143.8c0-6.7-2-12-6-16.1c-4-4.1-9.3-6.1-16-6.1c-7,0-13.2,2.1-18.6,6.2
	s-8.1,9.5-8.1,16c0,6.3,2.7,11.6,8.1,15.7s11.6,6.2,18.6,6.2c6.7,0,12-2,16-6C263.4,155.8,265.4,150.5,265.4,143.8z M420.4,267.6
	c0-4.6-2.1-8.6-6.3-12.2c-4.2-3.6-9.5-5.4-15.9-5.4c-4.4,0-8.4,1.8-12.1,5.5s-5.5,7.7-5.5,12.1c0,4.6,1.8,8.7,5.5,12.3
	s7.7,5.5,12.1,5.5c6.3,0,11.6-1.8,15.9-5.4S420.4,272.3,420.4,267.6z M355.5,170.7c-5-0.7-10.7-1-17.1-1c-27.5,0-52.8,6.3-75.9,18.8
	s-41.3,29.5-54.6,50.9S188,284.2,188,309.6c0,12.7,1.9,25.1,5.6,37.1c-5.7,0.5-11.2,0.7-16.6,0.7c-4.2,0-8.3-0.1-12.2-0.4
	s-8.4-0.8-13.4-1.6s-8.7-1.4-10.9-1.7s-6.6-1.2-13.3-2.6c-6.7-1.4-10.7-2.2-12.2-2.6l-61.8,31l17.6-53.2C23.6,283.4,0,243.5,0,196.8
	c0-27.5,7.9-52.8,23.8-75.9s37.4-41.3,64.5-54.6s56.7-19.9,88.7-19.9c28.6,0,55.7,5.4,81.2,16.1s46.8,25.6,64,44.6
	S350.4,147.2,355.5,170.7z M500,307.6c0,19-5.6,37.2-16.7,54.6S457,395.3,438,409.4l13.4,44.2L402.8,427c-24.4,6-42.2,9-53.2,9
	c-27.5,0-52.8-5.7-75.9-17.2s-41.3-27.1-54.6-46.8s-19.9-41.2-19.9-64.5s6.6-44.8,19.9-64.5s31.5-35.3,54.6-46.8
	s48.4-17.2,75.9-17.2c26.2,0,50.9,5.7,74,17.2s41.6,27.1,55.5,46.9S500,284.5,500,307.6z"/>
</svg>
