<?xml version="1.0" encoding="utf-8"?>
<!-- Generator: Adobe Illustrator 18.0.0, SVG Export Plug-In . SVG Version: 6.00 Build 0)  -->
<!DOCTYPE svg PUBLIC "-//W3C//DTD SVG 1.1//EN" "http://www.w3.org/Graphics/SVG/1.1/DTD/svg11.dtd">
<svg version="1.1" id="图层_1" xmlns="http://www.w3.org/2000/svg" xmlns:xlink="http://www.w3.org/1999/xlink" x="0px" y="0px"
	 viewBox="0 0 500 500" enable-background="new 0 0 500 500" xml:space="preserve">
<path fill="#999999" d="M426.8,232.4v37.1c0,5.2-1.5,9.3-4.4,12.4s-7,4.6-12.2,4.6h-65.8c-5.2,0-9.3-1.5-12.4-4.6s-4.6-7.2-4.6-12.4
	v-37.1c0-5.2,1.5-9.3,4.6-12.4c3-3,7.2-4.6,12.4-4.6h65.8c5.2,0,9.3,1.5,12.2,4.6C425.3,223.1,426.8,227.2,426.8,232.4L426.8,232.4z
	 M267.3,307.3v-81.4c0-11.5-3.5-20.8-10.6-27.8c-7.1-7.1-16.3-10.6-27.8-10.6h-43.3c-14.8,0-25.2,5.6-31.3,16.9
	c-6.1-11.3-16.5-16.9-31.3-16.9H80.7c-11.5,0-20.8,3.5-27.8,10.6c-7.1,7.1-10.6,16.3-10.6,27.8v81.4c0,4.8,2.3,7.2,6.8,7.2h17.9
	c4.8,0,7.2-2.4,7.2-7.2v-74.9c0-5.2,1.5-9.3,4.4-12.4c2.9-3,7.1-4.6,12.5-4.6h30.6c5.2,0,9.3,1.5,12.4,4.6c3,3,4.6,7.2,4.6,12.4
	v74.9c0,4.8,2.3,7.2,6.8,7.2h17.6c4.8,0,7.2-2.4,7.2-7.2v-74.9c0-5.2,1.5-9.3,4.6-12.4c3-3,7.2-4.6,12.4-4.6h31.6
	c5.2,0,9.3,1.5,12.2,4.6c2.9,3,4.4,7.2,4.4,12.4v74.9c0,4.8,2.4,7.2,7.2,7.2h17.9C265,314.5,267.3,312.1,267.3,307.3L267.3,307.3z
	 M459,276v-50.1c0-11.5-3.6-20.8-10.7-27.8c-7.2-7.1-16.5-10.6-28-10.6h-85.9c-11.5,0-20.8,3.5-28,10.6
	c-7.2,7.1-10.7,16.3-10.7,27.8v133.5c0,4.6,2.4,6.8,7.2,6.8h17.9c4.6,0,6.8-2.3,6.8-6.8v-58.6c6.7,9.1,16.9,13.7,30.6,13.7h62.2
	c11.5,0,20.8-3.5,28-10.6C455.4,296.8,459,287.5,459,276L459,276z M500,75.5v349c0,20.8-7.4,38.6-22.1,53.4S445.3,500,424.5,500
	h-349c-20.8,0-38.6-7.4-53.4-22.1S0,445.3,0,424.5v-349c0-20.8,7.4-38.6,22.1-53.4S54.7,0,75.5,0h349c20.8,0,38.6,7.4,53.4,22.1
	S500,54.7,500,75.5L500,75.5z"/>
</svg>
