<?xml version="1.0" encoding="utf-8"?>
<!-- Generator: Adobe Illustrator 18.0.0, SVG Export Plug-In . SVG Version: 6.00 Build 0)  -->
<!DOCTYPE svg PUBLIC "-//W3C//DTD SVG 1.1//EN" "http://www.w3.org/Graphics/SVG/1.1/DTD/svg11.dtd">
<svg version="1.1" id="图层_1" xmlns="http://www.w3.org/2000/svg" xmlns:xlink="http://www.w3.org/1999/xlink" x="0px" y="0px"
	 viewBox="0 0 500 500" enable-background="new 0 0 500 500" xml:space="preserve">
<path fill="#999999" d="M500,249.2c0,2.7-1,5-2.9,6.9L386,358.5c-3.1,2.7-6.5,3.3-10.1,1.7c-3.7-1.7-5.5-4.5-5.5-8.4v-64.8H9.3
	c-2.7,0-4.9-0.9-6.7-2.6s-2.6-4-2.6-6.7v-55.6c0-2.7,0.9-4.9,2.6-6.7c1.7-1.7,4-2.6,6.7-2.6h361.1v-64.8c0-4.1,1.8-6.8,5.5-8.4
	c3.7-1.5,7-1.1,10.1,1.4l111.1,101.3C499,244.4,500,246.6,500,249.2L500,249.2z"/>
</svg>
