<?xml version="1.0" encoding="utf-8"?>
<!-- Generator: Adobe Illustrator 18.0.0, SVG Export Plug-In . SVG Version: 6.00 Build 0)  -->
<!DOCTYPE svg PUBLIC "-//W3C//DTD SVG 1.1//EN" "http://www.w3.org/Graphics/SVG/1.1/DTD/svg11.dtd">
<svg version="1.1" id="图层_1" xmlns="http://www.w3.org/2000/svg" xmlns:xlink="http://www.w3.org/1999/xlink" x="0px" y="0px"
	 viewBox="0 0 500 500" enable-background="new 0 0 500 500" xml:space="preserve">
<path fill="#999999" d="M500,238c0,11.3-4,21-11.9,28.9L279.2,476.1C270.9,484,261.1,488,250,488c-11.3,0-21-4-28.9-11.9L12.2,266.8
	C4.1,259.1,0,249.5,0,238c0-11.3,4.1-21.1,12.2-29.2l23.7-24.1c8.3-7.9,18.1-11.9,29.2-11.9c11.3,0,21,4,28.9,11.9l94.4,94.4V53.1
	c0-11.1,4.1-20.8,12.2-28.9c8.1-8.1,17.8-12.2,28.9-12.2h41.1c11.1,0,20.8,4.1,28.9,12.2s12.2,17.8,12.2,28.9V279l94.4-94.4
	c7.9-7.9,17.5-11.9,28.9-11.9c11.1,0,20.9,4,29.2,11.9l24.1,24.1C496,217.1,500,226.8,500,238z"/>
</svg>
