<?xml version="1.0" encoding="utf-8"?>
<!-- Generator: Adobe Illustrator 18.0.0, SVG Export Plug-In . SVG Version: 6.00 Build 0)  -->
<!DOCTYPE svg PUBLIC "-//W3C//DTD SVG 1.1//EN" "http://www.w3.org/Graphics/SVG/1.1/DTD/svg11.dtd">
<svg version="1.1" id="图层_1" xmlns="http://www.w3.org/2000/svg" xmlns:xlink="http://www.w3.org/1999/xlink" x="0px" y="0px"
	 viewBox="0 0 500 500" enable-background="new 0 0 500 500" xml:space="preserve">
<path fill="#999999" d="M486.2,250c0,11.6-4,21.3-11.9,29.2L265.4,488.1c-8.3,7.9-18.1,11.9-29.2,11.9c-10.9,0-20.5-4-28.9-11.9
	l-24.1-24.1c-8.1-8.1-12.2-17.9-12.2-29.2c0-11.3,4.1-21.1,12.2-29.2l94-94H51.3c-11.1,0-20.2-4-27.1-12s-10.4-17.7-10.4-29v-41.1
	c0-11.3,3.5-21,10.4-29c7-8,16-12,27.1-12h225.9l-94-94.4c-8.1-7.7-12.2-17.3-12.2-28.9s4.1-21.2,12.2-28.9l24.1-24.1
	C215.4,4.1,225.1,0,236.2,0c11.3,0,21.1,4.1,29.2,12.2l208.9,208.9C482.2,228.6,486.2,238.2,486.2,250z"/>
</svg>
