<?xml version="1.0" encoding="utf-8"?>
<!-- Generator: Adobe Illustrator 18.0.0, SVG Export Plug-In . SVG Version: 6.00 Build 0)  -->
<!DOCTYPE svg PUBLIC "-//W3C//DTD SVG 1.1//EN" "http://www.w3.org/Graphics/SVG/1.1/DTD/svg11.dtd">
<svg version="1.1" id="图层_1" xmlns="http://www.w3.org/2000/svg" xmlns:xlink="http://www.w3.org/1999/xlink" x="0px" y="0px"
	 viewBox="0 0 500 500" enable-background="new 0 0 500 500" xml:space="preserve">
<path fill="#999999" d="M500,250c0,4.8-1.8,9-5.3,12.6L423.3,334c-3.5,3.5-7.7,5.3-12.6,5.3c-4.8,0-9-1.8-12.6-5.3
	s-5.3-7.7-5.3-12.6v-35.7H107.1v35.7c0,4.8-1.8,9-5.3,12.6c-3.5,3.5-7.7,5.3-12.6,5.3s-9-1.8-12.6-5.3L5.3,262.6
	C1.8,259,0,254.8,0,250s1.8-9,5.3-12.6L76.7,166c3.5-3.5,7.7-5.3,12.6-5.3s9,1.8,12.6,5.3c3.5,3.5,5.3,7.7,5.3,12.6v35.7h285.7
	v-35.7c0-4.8,1.8-9,5.3-12.6s7.7-5.3,12.6-5.3c4.8,0,9,1.8,12.6,5.3l71.4,71.4C498.2,241,500,245.2,500,250z"/>
</svg>
