<?xml version="1.0" encoding="utf-8"?>
<!-- Generator: Adobe Illustrator 18.0.0, SVG Export Plug-In . SVG Version: 6.00 Build 0)  -->
<!DOCTYPE svg PUBLIC "-//W3C//DTD SVG 1.1//EN" "http://www.w3.org/Graphics/SVG/1.1/DTD/svg11.dtd">
<svg version="1.1" id="图层_1" xmlns="http://www.w3.org/2000/svg" xmlns:xlink="http://www.w3.org/1999/xlink" x="0px" y="0px"
	 viewBox="0 0 500 500" enable-background="new 0 0 500 500" xml:space="preserve">
<path fill="#999999" d="M339.3,89.3c0,4.8-1.8,9-5.3,12.6c-3.5,3.5-7.7,5.3-12.6,5.3h-35.7v285.7h35.7c4.8,0,9,1.8,12.6,5.3
	s5.3,7.7,5.3,12.6c0,4.8-1.8,9-5.3,12.6l-71.4,71.4c-3.5,3.5-7.7,5.3-12.6,5.3s-9-1.8-12.6-5.3L166,423.3c-3.5-3.5-5.3-7.7-5.3-12.6
	c0-4.8,1.8-9,5.3-12.6s7.7-5.3,12.6-5.3h35.7V107.1h-35.7c-4.8,0-9-1.8-12.6-5.3c-3.5-3.5-5.3-7.7-5.3-12.6s1.8-9,5.3-12.6
	l71.4-71.4C241,1.8,245.2,0,250,0s9,1.8,12.6,5.3L334,76.7C337.5,80.3,339.3,84.4,339.3,89.3z"/>
</svg>
