<?xml version="1.0" encoding="utf-8"?>
<!-- Generator: Adobe Illustrator 18.0.0, SVG Export Plug-In . SVG Version: 6.00 Build 0)  -->
<!DOCTYPE svg PUBLIC "-//W3C//DTD SVG 1.1//EN" "http://www.w3.org/Graphics/SVG/1.1/DTD/svg11.dtd">
<svg version="1.1" id="图层_1" xmlns="http://www.w3.org/2000/svg" xmlns:xlink="http://www.w3.org/1999/xlink" x="0px" y="0px"
	 viewBox="0 0 500 500" enable-background="new 0 0 500 500" xml:space="preserve">
<path fill="#999999" d="M395.8,41.6c0,4.3-1.7,8.2-5,11.5L193.9,250l196.9,196.9c3.3,3.3,5,7.2,5,11.5c0,4.3-1.7,8.2-5,11.5
	L365.7,495c-3.3,3.3-7.2,5-11.5,5c-4.3,0-8.2-1.7-11.5-5L109.2,261.5c-3.3-3.3-5-7.2-5-11.5s1.7-8.2,5-11.5L342.7,5
	c3.3-3.3,7.2-5,11.5-5c4.3,0,8.2,1.7,11.5,5l25.1,25.1C394.1,33.4,395.8,37.2,395.8,41.6z"/>
</svg>
