<?xml version="1.0" encoding="utf-8"?>
<!-- Generator: Adobe Illustrator 18.0.0, SVG Export Plug-In . SVG Version: 6.00 Build 0)  -->
<!DOCTYPE svg PUBLIC "-//W3C//DTD SVG 1.1//EN" "http://www.w3.org/Graphics/SVG/1.1/DTD/svg11.dtd">
<svg version="1.1" id="图层_1" xmlns="http://www.w3.org/2000/svg" xmlns:xlink="http://www.w3.org/1999/xlink" x="0px" y="0px"
	 viewBox="0 0 500 500" enable-background="new 0 0 500 500" xml:space="preserve">
<path fill="#999999" d="M395.8,250c0,4.3-1.7,8.2-5,11.5L157.3,495c-3.3,3.3-7.2,5-11.5,5s-8.2-1.7-11.5-5l-25.1-25.1
	c-3.3-3.3-5-7.2-5-11.5c0-4.3,1.7-8.2,5-11.5L306.1,250L109.2,53.1c-3.3-3.3-5-7.2-5-11.5s1.7-8.2,5-11.5L134.3,5
	c3.3-3.3,7.2-5,11.5-5s8.2,1.7,11.5,5l233.5,233.5C394.1,241.8,395.8,245.7,395.8,250z"/>
</svg>
