<?xml version="1.0" encoding="utf-8"?>
<!-- Generator: Adobe Illustrator 18.0.0, SVG Export Plug-In . SVG Version: 6.00 Build 0)  -->
<!DOCTYPE svg PUBLIC "-//W3C//DTD SVG 1.1//EN" "http://www.w3.org/Graphics/SVG/1.1/DTD/svg11.dtd">
<svg version="1.1" id="图层_1" xmlns="http://www.w3.org/2000/svg" xmlns:xlink="http://www.w3.org/1999/xlink" x="0px" y="0px"
	 viewBox="0 0 500 500" enable-background="new 0 0 500 500" xml:space="preserve">
<path fill="#999999" d="M500,450.4c0,4.3-1.7,8.2-5,11.5L469.9,487c-3.3,3.3-7.2,5-11.5,5c-4.3,0-8.2-1.7-11.5-5L250,290.1L53.1,487
	c-3.3,3.3-7.2,5-11.5,5s-8.2-1.7-11.5-5L5,461.9c-3.3-3.3-5-7.2-5-11.5c0-4.3,1.7-8.2,5-11.5l233.5-233.5c3.3-3.3,7.2-5,11.5-5
	s8.2,1.7,11.5,5L495,438.9C498.3,442.2,500,446.1,500,450.4z M500,258c0,4.3-1.7,8.2-5,11.5l-25.1,25.1c-3.3,3.3-7.2,5-11.5,5
	c-4.3,0-8.2-1.7-11.5-5L250,97.7L53.1,294.6c-3.3,3.3-7.2,5-11.5,5s-8.2-1.7-11.5-5L5,269.5c-3.3-3.3-5-7.2-5-11.5
	c0-4.3,1.7-8.2,5-11.5L238.5,13c3.3-3.3,7.2-5,11.5-5s8.2,1.7,11.5,5L495,246.5C498.3,249.8,500,253.7,500,258z"/>
</svg>
