<?xml version="1.0" encoding="utf-8"?>
<!-- Generator: Adobe Illustrator 18.0.0, SVG Export Plug-In . SVG Version: 6.00 Build 0)  -->
<!DOCTYPE svg PUBLIC "-//W3C//DTD SVG 1.1//EN" "http://www.w3.org/Graphics/SVG/1.1/DTD/svg11.dtd">
<svg version="1.1" id="图层_1" xmlns="http://www.w3.org/2000/svg" xmlns:xlink="http://www.w3.org/1999/xlink" x="0px" y="0px"
	 viewBox="0 0 500 500" enable-background="new 0 0 500 500" xml:space="preserve">
<path fill="#999999" d="M0,250.8c0-2.7,1-5,2.9-6.9L114,141.5c3.1-2.7,6.5-3.3,10.1-1.7c3.7,1.7,5.5,4.5,5.5,8.4v64.8h361.1
	c2.7,0,4.9,0.9,6.7,2.6s2.6,4,2.6,6.7v55.6c0,2.7-0.9,4.9-2.6,6.7c-1.7,1.7-4,2.6-6.7,2.6H129.6v64.8c0,4.1-1.8,6.8-5.5,8.4
	s-7,1.1-10.1-1.4L2.9,257.5C1,255.6,0,253.4,0,250.8L0,250.8z"/>
</svg>
