<?xml version="1.0" encoding="utf-8"?>
<!-- Generator: Adobe Illustrator 18.0.0, SVG Export Plug-In . SVG Version: 6.00 Build 0)  -->
<!DOCTYPE svg PUBLIC "-//W3C//DTD SVG 1.1//EN" "http://www.w3.org/Graphics/SVG/1.1/DTD/svg11.dtd">
<svg version="1.1" id="图层_1" xmlns="http://www.w3.org/2000/svg" xmlns:xlink="http://www.w3.org/1999/xlink" x="0px" y="0px"
	 viewBox="0 0 500 500" enable-background="new 0 0 500 500" xml:space="preserve">
<path fill="#999999" d="M500,242c0,4.3-1.7,8.2-5,11.5L261.5,487c-3.3,3.3-7.2,5-11.5,5s-8.2-1.7-11.5-5L5,253.5
	c-3.3-3.3-5-7.2-5-11.5s1.7-8.2,5-11.5l25.1-25.1c3.3-3.3,7.2-5,11.5-5s8.2,1.7,11.5,5L250,402.3l196.9-196.9c3.3-3.3,7.2-5,11.5-5
	c4.3,0,8.2,1.7,11.5,5l25.1,25.1C498.3,233.8,500,237.6,500,242z M500,49.6c0,4.3-1.7,8.2-5,11.5L261.5,294.6c-3.3,3.3-7.2,5-11.5,5
	s-8.2-1.7-11.5-5L5,61.1c-3.3-3.3-5-7.2-5-11.5s1.7-8.2,5-11.5L30.1,13c3.3-3.3,7.2-5,11.5-5s8.2,1.7,11.5,5L250,209.9L446.9,13
	c3.3-3.3,7.2-5,11.5-5c4.3,0,8.2,1.7,11.5,5L495,38.1C498.3,41.4,500,45.3,500,49.6z"/>
</svg>
