<?xml version="1.0" encoding="utf-8"?>
<!-- Generator: Adobe Illustrator 18.0.0, SVG Export Plug-In . SVG Version: 6.00 Build 0)  -->
<!DOCTYPE svg PUBLIC "-//W3C//DTD SVG 1.1//EN" "http://www.w3.org/Graphics/SVG/1.1/DTD/svg11.dtd">
<svg version="1.1" id="图层_1" xmlns="http://www.w3.org/2000/svg" xmlns:xlink="http://www.w3.org/1999/xlink" x="0px" y="0px"
	 viewBox="0 0 500 500" enable-background="new 0 0 500 500" xml:space="preserve">
<path fill="#999999" d="M299.6,458.4c0,4.3-1.7,8.2-5,11.5L269.5,495c-3.3,3.3-7.2,5-11.5,5c-4.3,0-8.2-1.7-11.5-5L13,261.5
	c-3.3-3.3-5-7.2-5-11.5s1.7-8.2,5-11.5L246.5,5c3.3-3.3,7.2-5,11.5-5c4.3,0,8.2,1.7,11.5,5l25.1,25.1c3.3,3.3,5,7.2,5,11.5
	s-1.7,8.2-5,11.5L97.7,250l196.9,196.9C297.9,450.2,299.6,454.1,299.6,458.4z M492,458.4c0,4.3-1.7,8.2-5,11.5L461.9,495
	c-3.3,3.3-7.2,5-11.5,5c-4.3,0-8.2-1.7-11.5-5L205.4,261.5c-3.3-3.3-5-7.2-5-11.5s1.7-8.2,5-11.5L438.9,5c3.3-3.3,7.2-5,11.5-5
	c4.3,0,8.2,1.7,11.5,5L487,30.1c3.3,3.3,5,7.2,5,11.5s-1.7,8.2-5,11.5L290.1,250L487,446.9C490.3,450.2,492,454.1,492,458.4z"/>
</svg>
