<?xml version="1.0" encoding="utf-8"?>
<!-- Generator: Adobe Illustrator 18.0.0, SVG Export Plug-In . SVG Version: 6.00 Build 0)  -->
<!DOCTYPE svg PUBLIC "-//W3C//DTD SVG 1.1//EN" "http://www.w3.org/Graphics/SVG/1.1/DTD/svg11.dtd">
<svg version="1.1" id="图层_1" xmlns="http://www.w3.org/2000/svg" xmlns:xlink="http://www.w3.org/1999/xlink" x="0px" y="0px"
	 viewBox="0 0 500 500" enable-background="new 0 0 500 500" xml:space="preserve">
<path fill="#999999" d="M299.6,250c0,4.3-1.7,8.2-5,11.5L61.1,495c-3.3,3.3-7.2,5-11.5,5s-8.2-1.7-11.5-5L13,469.9
	c-3.3-3.3-5-7.2-5-11.5c0-4.3,1.7-8.2,5-11.5L209.9,250L13,53.1c-3.3-3.3-5-7.2-5-11.5s1.7-8.2,5-11.5L38.1,5c3.3-3.3,7.2-5,11.5-5
	s8.2,1.7,11.5,5l233.5,233.5C297.9,241.8,299.6,245.7,299.6,250z M492,250c0,4.3-1.7,8.2-5,11.5L253.5,495c-3.3,3.3-7.2,5-11.5,5
	s-8.2-1.7-11.5-5l-25.1-25.1c-3.3-3.3-5-7.2-5-11.5c0-4.3,1.7-8.2,5-11.5L402.3,250L205.4,53.1c-3.3-3.3-5-7.2-5-11.5
	s1.7-8.2,5-11.5L230.5,5c3.3-3.3,7.2-5,11.5-5s8.2,1.7,11.5,5L487,238.5C490.3,241.8,492,245.7,492,250z"/>
</svg>
