<?xml version="1.0" encoding="utf-8"?>
<!-- Generator: Adobe Illustrator 18.0.0, SVG Export Plug-In . SVG Version: 6.00 Build 0)  -->
<!DOCTYPE svg PUBLIC "-//W3C//DTD SVG 1.1//EN" "http://www.w3.org/Graphics/SVG/1.1/DTD/svg11.dtd">
<svg version="1.1" id="图层_1" xmlns="http://www.w3.org/2000/svg" xmlns:xlink="http://www.w3.org/1999/xlink" x="0px" y="0px"
	 viewBox="0 0 500 500" enable-background="new 0 0 500 500" xml:space="preserve">
<path fill="#999999" d="M364.6,260.4c0,2.6-1.1,5.2-3.3,7.8L257.5,372.1c-2.4,2-4.9,2.9-7.5,2.9s-5.1-1-7.5-2.9L138.3,267.9
	c-3.3-3.5-4-7.3-2.3-11.4c1.7-4.3,5-6.5,9.8-6.5h62.5V135.4c0-3,1-5.5,2.9-7.5s4.4-2.9,7.5-2.9h62.5c3,0,5.5,1,7.5,2.9
	s2.9,4.4,2.9,7.5V250h62.5c3,0,5.5,1,7.5,2.9S364.6,257.4,364.6,260.4z M250,72.9c-32.1,0-61.7,7.9-88.9,23.8s-48.6,37.3-64.5,64.5
	S72.9,217.9,72.9,250s7.9,61.7,23.8,88.9s37.3,48.6,64.5,64.5s56.7,23.8,88.9,23.8s61.7-7.9,88.9-23.8s48.6-37.3,64.5-64.5
	s23.8-56.7,23.8-88.9s-7.9-61.7-23.8-88.9s-37.3-48.6-64.5-64.5S282.1,72.9,250,72.9z M500,250c0,45.4-11.2,87.2-33.5,125.5
	s-52.7,68.6-91,91S295.4,500,250,500s-87.2-11.2-125.5-33.5s-68.6-52.7-91-91S0,295.4,0,250s11.2-87.2,33.5-125.5s52.7-68.6,91-91
	S204.6,0,250,0s87.2,11.2,125.5,33.5s68.6,52.7,91,91S500,204.6,500,250z"/>
</svg>
