<?xml version="1.0" encoding="utf-8"?>
<!-- Generator: Adobe Illustrator 18.0.0, SVG Export Plug-In . SVG Version: 6.00 Build 0)  -->
<!DOCTYPE svg PUBLIC "-//W3C//DTD SVG 1.1//EN" "http://www.w3.org/Graphics/SVG/1.1/DTD/svg11.dtd">
<svg version="1.1" id="图层_1" xmlns="http://www.w3.org/2000/svg" xmlns:xlink="http://www.w3.org/1999/xlink" x="0px" y="0px"
	 viewBox="0 0 500 500" enable-background="new 0 0 500 500" xml:space="preserve">
<path fill="#999999" d="M375,218.8v62.5c0,2.8-1,5.3-3.1,7.3s-4.5,3.1-7.3,3.1H250v62.5c0,3-1,5.5-2.9,7.5s-4.4,2.9-7.5,2.9
	c-2.6,0-5.2-1.1-7.8-3.3L127.9,257.5c-2-2-2.9-4.4-2.9-7.5s1-5.5,2.9-7.5l104.2-104.2c2-2,4.4-2.9,7.5-2.9c2.8,0,5.3,1,7.3,3.1
	c2.1,2.1,3.1,4.5,3.1,7.3v62.5h114.6c2.8,0,5.3,1,7.3,3.1S375,215.9,375,218.8z M427.1,250c0-32.1-7.9-61.7-23.8-88.9
	s-37.3-48.6-64.5-64.5S282.1,72.9,250,72.9s-61.7,7.9-88.9,23.8s-48.6,37.3-64.5,64.5S72.9,217.9,72.9,250s7.9,61.7,23.8,88.9
	s37.3,48.6,64.5,64.5s56.7,23.8,88.9,23.8s61.7-7.9,88.9-23.8s48.6-37.3,64.5-64.5S427.1,282.1,427.1,250z M500,250
	c0,45.4-11.2,87.2-33.5,125.5s-52.7,68.6-91,91S295.4,500,250,500s-87.2-11.2-125.5-33.5s-68.6-52.7-91-91S0,295.4,0,250
	s11.2-87.2,33.5-125.5s52.7-68.6,91-91S204.6,0,250,0s87.2,11.2,125.5,33.5s68.6,52.7,91,91S500,204.6,500,250z"/>
</svg>
