<?xml version="1.0" encoding="utf-8"?>
<!-- Generator: Adobe Illustrator 18.0.0, SVG Export Plug-In . SVG Version: 6.00 Build 0)  -->
<!DOCTYPE svg PUBLIC "-//W3C//DTD SVG 1.1//EN" "http://www.w3.org/Graphics/SVG/1.1/DTD/svg11.dtd">
<svg version="1.1" id="图层_1" xmlns="http://www.w3.org/2000/svg" xmlns:xlink="http://www.w3.org/1999/xlink" x="0px" y="0px"
	 viewBox="0 0 500 500" enable-background="new 0 0 500 500" xml:space="preserve">
<path fill="#999999" d="M360.2,375.9c1.5,3.7,1.1,7-1.4,10.1L257.5,497.1c-1.9,1.9-4.1,2.9-6.7,2.9c-2.7,0-5-1-6.9-2.9L141.2,386
	c-2.5-3.1-3-6.5-1.4-10.1c1.7-3.7,4.5-5.5,8.4-5.5H213V9.3c0-2.7,0.9-4.9,2.6-6.7c1.7-1.7,4-2.6,6.7-2.6h55.6c2.7,0,4.9,0.9,6.7,2.6
	c1.7,1.7,2.6,4,2.6,6.7v361.1h64.8C355.9,370.4,358.7,372.2,360.2,375.9L360.2,375.9z"/>
</svg>
