<?xml version="1.0" encoding="utf-8"?>
<!-- Generator: Adobe Illustrator 18.0.0, SVG Export Plug-In . SVG Version: 6.00 Build 0)  -->
<!DOCTYPE svg PUBLIC "-//W3C//DTD SVG 1.1//EN" "http://www.w3.org/Graphics/SVG/1.1/DTD/svg11.dtd">
<svg version="1.1" id="图层_1" xmlns="http://www.w3.org/2000/svg" xmlns:xlink="http://www.w3.org/1999/xlink" x="0px" y="0px"
	 viewBox="0 0 500 500" enable-background="new 0 0 500 500" xml:space="preserve">
<path fill="#999999" d="M494.1,353.4l-51.5,51.2c-3.9,3.9-8.6,5.9-14,5.9c-5.4,0-10-2-14-5.9L250,239.9L85.3,404.6
	c-3.9,3.9-8.6,5.9-14,5.9s-10-2-14-5.9L5.9,353.4C2,349.5,0,344.8,0,339.3c0-5.5,2-10.2,5.9-14.1L236,95.4c3.9-3.9,8.6-5.9,14-5.9
	s10,2,14,5.9l230.1,229.8c3.9,3.9,5.9,8.6,5.9,14.1C500,344.8,498,349.5,494.1,353.4z"/>
</svg>
