<?xml version="1.0" encoding="utf-8"?>
<!-- Generator: Adobe Illustrator 18.0.0, SVG Export Plug-In . SVG Version: 6.00 Build 0)  -->
<!DOCTYPE svg PUBLIC "-//W3C//DTD SVG 1.1//EN" "http://www.w3.org/Graphics/SVG/1.1/DTD/svg11.dtd">
<svg version="1.1" id="图层_1" xmlns="http://www.w3.org/2000/svg" xmlns:xlink="http://www.w3.org/1999/xlink" x="0px" y="0px"
	 viewBox="0 0 500 500" enable-background="new 0 0 500 500" xml:space="preserve">
<path fill="#999999" d="M404.8,85.3L240.1,250l164.7,164.7c3.9,3.9,5.9,8.6,5.9,14c0,5.4-2,10-5.9,14l-51.5,51.5
	c-3.9,3.9-8.6,5.9-14,5.9c-5.4,0-10-2-14-5.9L95.2,264c-3.9-3.9-5.9-8.6-5.9-14s2-10,5.9-14L325.4,5.9C329.3,2,334,0,339.3,0
	c5.4,0,10,2,14,5.9l51.5,51.5c3.9,3.9,5.9,8.6,5.9,14C410.7,76.7,408.7,81.4,404.8,85.3z"/>
</svg>
