<?xml version="1.0" encoding="utf-8"?>
<!-- Generator: Adobe Illustrator 18.0.0, SVG Export Plug-In . SVG Version: 6.00 Build 0)  -->
<!DOCTYPE svg PUBLIC "-//W3C//DTD SVG 1.1//EN" "http://www.w3.org/Graphics/SVG/1.1/DTD/svg11.dtd">
<svg version="1.1" id="图层_1" xmlns="http://www.w3.org/2000/svg" xmlns:xlink="http://www.w3.org/1999/xlink" x="0px" y="0px"
	 viewBox="0 0 500 500" enable-background="new 0 0 500 500" xml:space="preserve">
<path fill="#999999" d="M404.8,264L174.6,494.1c-3.9,3.9-8.6,5.9-14,5.9c-5.4,0-10-2-14-5.9l-51.5-51.5c-3.9-3.9-5.9-8.6-5.9-14
	c0-5.4,2-10,5.9-14L259.9,250L95.2,85.3c-3.9-3.9-5.9-8.6-5.9-14c0-5.4,2-10,5.9-14l51.5-51.5c3.9-3.9,8.6-5.9,14-5.9
	c5.4,0,10,2,14,5.9L404.8,236c3.9,3.9,5.9,8.6,5.9,14S408.7,260,404.8,264z"/>
</svg>
