<?xml version="1.0" encoding="utf-8"?>
<!-- Generator: Adobe Illustrator 18.0.0, SVG Export Plug-In . SVG Version: 6.00 Build 0)  -->
<!DOCTYPE svg PUBLIC "-//W3C//DTD SVG 1.1//EN" "http://www.w3.org/Graphics/SVG/1.1/DTD/svg11.dtd">
<svg version="1.1" id="图层_1" xmlns="http://www.w3.org/2000/svg" xmlns:xlink="http://www.w3.org/1999/xlink" x="0px" y="0px"
	 viewBox="0 0 500 500" enable-background="new 0 0 500 500" xml:space="preserve">
<path fill="#999999" d="M233.4,412.4l147.8-147.8c4.1-4.1,6.2-9,6.2-14.6s-2.1-10.5-6.2-14.6L233.4,87.6c-4.1-4.1-9-6.2-14.6-6.2
	s-10.5,2.1-14.6,6.2l-33.2,33.2c-4.1,4.1-6.2,9-6.2,14.6c0,5.6,2.1,10.5,6.2,14.6l99.9,99.9l-99.9,99.9c-4.1,4.1-6.2,9-6.2,14.6
	c0,5.6,2.1,10.5,6.2,14.6l33.2,33.2c4.1,4.1,9,6.2,14.6,6.2S229.3,416.6,233.4,412.4z M500,250c0,45.4-11.2,87.2-33.5,125.5
	s-52.7,68.6-91,91S295.4,500,250,500s-87.2-11.2-125.5-33.5s-68.6-52.7-91-91S0,295.4,0,250s11.2-87.2,33.5-125.5s52.7-68.6,91-91
	S204.6,0,250,0s87.2,11.2,125.5,33.5s68.6,52.7,91,91S500,204.6,500,250z"/>
</svg>
