<?xml version="1.0" encoding="utf-8"?>
<!-- Generator: Adobe Illustrator 18.0.0, SVG Export Plug-In . SVG Version: 6.00 Build 0)  -->
<!DOCTYPE svg PUBLIC "-//W3C//DTD SVG 1.1//EN" "http://www.w3.org/Graphics/SVG/1.1/DTD/svg11.dtd">
<svg version="1.1" id="图层_1" xmlns="http://www.w3.org/2000/svg" xmlns:xlink="http://www.w3.org/1999/xlink" x="0px" y="0px"
	 viewBox="0 0 500 500" enable-background="new 0 0 500 500" xml:space="preserve">
<path fill="#999999" d="M354.2,250c0,7.2-2.9,12.8-8.8,16.9L199.5,371.1c-6.7,5-13.9,5.5-21.5,1.6c-7.6-3.7-11.4-9.9-11.4-18.6
	V145.8c0-8.7,3.8-14.9,11.4-18.6c7.6-3.9,14.8-3.4,21.5,1.6l145.8,104.2C351.2,237.2,354.2,242.8,354.2,250L354.2,250z M416.7,406.3
	V93.8c0-3-1-5.5-2.9-7.5s-4.4-2.9-7.5-2.9H93.8c-3,0-5.5,1-7.5,2.9s-2.9,4.4-2.9,7.5v312.5c0,3,1,5.5,2.9,7.5s4.4,2.9,7.5,2.9h312.5
	c3,0,5.5-1,7.5-2.9S416.7,409.3,416.7,406.3L416.7,406.3z M500,93.8v312.5c0,25.8-9.2,47.9-27.5,66.2
	c-18.3,18.3-40.4,27.5-66.2,27.5H93.8c-25.8,0-47.9-9.2-66.2-27.5C9.2,454.2,0,432.1,0,406.3V93.8c0-25.8,9.2-47.9,27.5-66.2
	S67.9,0,93.8,0h312.5c25.8,0,47.9,9.2,66.2,27.5C490.8,45.8,500,67.9,500,93.8L500,93.8z"/>
</svg>
