<?xml version="1.0" encoding="utf-8"?>
<!-- Generator: Adobe Illustrator 18.0.0, SVG Export Plug-In . SVG Version: 6.00 Build 0)  -->
<!DOCTYPE svg PUBLIC "-//W3C//DTD SVG 1.1//EN" "http://www.w3.org/Graphics/SVG/1.1/DTD/svg11.dtd">
<svg version="1.1" id="图层_1" xmlns="http://www.w3.org/2000/svg" xmlns:xlink="http://www.w3.org/1999/xlink" x="0px" y="0px"
	 viewBox="0 0 500 500" enable-background="new 0 0 500 500" xml:space="preserve">
<path fill="#999999" d="M333.3,145.8v208.3c0,5.6-2.1,10.5-6.2,14.6c-4.1,4.1-9,6.2-14.6,6.2c-4.3,0-8.4-1.3-12-3.9L154.6,266.9
	c-5.9-4.1-8.8-9.8-8.8-16.9c0-7.2,2.9-12.8,8.8-16.9l145.8-104.2c3.7-2.6,7.7-3.9,12-3.9c5.6,0,10.5,2.1,14.6,6.2
	C331.3,135.3,333.3,140.2,333.3,145.8L333.3,145.8z M416.7,406.3V93.8c0-2.8-1-5.3-3.1-7.3s-4.5-3.1-7.3-3.1H93.8
	c-2.8,0-5.3,1-7.3,3.1s-3.1,4.5-3.1,7.3v312.5c0,2.8,1,5.3,3.1,7.3s4.5,3.1,7.3,3.1h312.5c2.8,0,5.3-1,7.3-3.1
	S416.7,409.1,416.7,406.3L416.7,406.3z M500,93.8v312.5c0,25.8-9.2,47.9-27.5,66.2c-18.3,18.3-40.4,27.5-66.2,27.5H93.8
	c-25.8,0-47.9-9.2-66.2-27.5C9.2,454.2,0,432.1,0,406.3V93.8c0-25.8,9.2-47.9,27.5-66.2S67.9,0,93.8,0h312.5
	c25.8,0,47.9,9.2,66.2,27.5C490.8,45.8,500,67.9,500,93.8L500,93.8z"/>
</svg>
