<?xml version="1.0" encoding="utf-8"?>
<!-- Generator: Adobe Illustrator 18.0.0, SVG Export Plug-In . SVG Version: 6.00 Build 0)  -->
<!DOCTYPE svg PUBLIC "-//W3C//DTD SVG 1.1//EN" "http://www.w3.org/Graphics/SVG/1.1/DTD/svg11.dtd">
<svg version="1.1" id="图层_1" xmlns="http://www.w3.org/2000/svg" xmlns:xlink="http://www.w3.org/1999/xlink" x="0px" y="0px"
	 viewBox="0 0 500 500" enable-background="new 0 0 500 500" xml:space="preserve">
<path fill="#999999" d="M372.7,321.9c-3.7,7.6-9.9,11.4-18.6,11.4H145.8c-8.7,0-14.9-3.8-18.6-11.4c-3.9-7.6-3.4-14.8,1.6-21.5
	l104.2-145.8c4.1-5.9,9.8-8.8,16.9-8.8c7.2,0,12.8,2.9,16.9,8.8l104.2,145.8C376.1,307.2,376.6,314.3,372.7,321.9L372.7,321.9z
	 M416.7,406.3V93.8c0-2.8-1-5.3-3.1-7.3s-4.5-3.1-7.3-3.1H93.8c-2.8,0-5.3,1-7.3,3.1s-3.1,4.5-3.1,7.3v312.5c0,2.8,1,5.3,3.1,7.3
	s4.5,3.1,7.3,3.1h312.5c2.8,0,5.3-1,7.3-3.1S416.7,409.1,416.7,406.3L416.7,406.3z M500,93.8v312.5c0,25.8-9.2,47.9-27.5,66.2
	c-18.3,18.3-40.4,27.5-66.2,27.5H93.8c-25.8,0-47.9-9.2-66.2-27.5C9.2,454.2,0,432.1,0,406.3V93.8c0-25.8,9.2-47.9,27.5-66.2
	S67.9,0,93.8,0h312.5c25.8,0,47.9,9.2,66.2,27.5C490.8,45.8,500,67.9,500,93.8L500,93.8z"/>
</svg>
