<?xml version="1.0" encoding="utf-8"?>
<!-- Generator: Adobe Illustrator 18.0.0, SVG Export Plug-In . SVG Version: 6.00 Build 0)  -->
<!DOCTYPE svg PUBLIC "-//W3C//DTD SVG 1.1//EN" "http://www.w3.org/Graphics/SVG/1.1/DTD/svg11.dtd">
<svg version="1.1" id="图层_1" xmlns="http://www.w3.org/2000/svg" xmlns:xlink="http://www.w3.org/1999/xlink" x="0px" y="0px"
	 viewBox="0 0 500 500" enable-background="new 0 0 500 500" xml:space="preserve">
<path fill="#999999" d="M500,263.8c0,10.9-4,20.5-11.9,28.9l-24.1,24.1c-8.1,8.1-17.9,12.2-29.2,12.2c-11.6,0-21.2-4.1-28.9-12.2
	l-94.4-94v225.9c0,11.1-4,20.2-12,27.1c-8,7-17.7,10.4-29,10.4h-41.1c-11.3,0-21-3.5-29-10.4c-8-7-12-16-12-27.1V222.7l-94.4,94
	c-7.7,8.1-17.3,12.2-28.9,12.2s-21.2-4.1-28.9-12.2l-24.1-24.1C4.1,284.6,0,274.9,0,263.8c0-11.3,4.1-21.1,12.2-29.2L221.1,25.7
	c7.5-7.9,17.1-11.9,28.9-11.9c11.6,0,21.3,4,29.2,11.9l208.9,208.9C496,242.9,500,252.7,500,263.8z"/>
</svg>
