<?xml version="1.0" encoding="utf-8"?>
<!-- Generator: Adobe Illustrator 18.0.0, SVG Export Plug-In . SVG Version: 6.00 Build 0)  -->
<!DOCTYPE svg PUBLIC "-//W3C//DTD SVG 1.1//EN" "http://www.w3.org/Graphics/SVG/1.1/DTD/svg11.dtd">
<svg version="1.1" id="图层_1" xmlns="http://www.w3.org/2000/svg" xmlns:xlink="http://www.w3.org/1999/xlink" x="0px" y="0px"
	 viewBox="0 0 500 500" enable-background="new 0 0 500 500" xml:space="preserve">
<path fill="#999999" d="M321.4,142.9V11.2c4.1,2.6,7.4,5.2,10,7.8l113.8,113.8c2.6,2.6,5.2,6,7.8,10H321.4z M285.7,151.8
	c0,7.4,2.6,13.8,7.8,19c5.2,5.2,11.5,7.8,19,7.8h151.8v294.6c0,7.4-2.6,13.8-7.8,19c-5.2,5.2-11.5,7.8-19,7.8h-375
	c-7.4,0-13.8-2.6-19-7.8s-7.8-11.5-7.8-19V26.8c0-7.4,2.6-13.8,7.8-19S55.1,0,62.5,0h223.2V151.8z"/>
</svg>
