<?xml version="1.0" encoding="utf-8"?>
<!-- Generator: Adobe Illustrator 18.0.0, SVG Export Plug-In . SVG Version: 6.00 Build 0)  -->
<!DOCTYPE svg PUBLIC "-//W3C//DTD SVG 1.1//EN" "http://www.w3.org/Graphics/SVG/1.1/DTD/svg11.dtd">
<svg version="1.1" id="图层_1" xmlns="http://www.w3.org/2000/svg" xmlns:xlink="http://www.w3.org/1999/xlink" x="0px" y="0px"
	 viewBox="0 0 500 500" enable-background="new 0 0 500 500" xml:space="preserve">
<path fill="#999999" d="M445.3,106c5.2,5.2,9.7,12.3,13.4,21.2c3.7,8.9,5.6,17.1,5.6,24.6v321.4c0,7.4-2.6,13.8-7.8,19
	c-5.2,5.2-11.5,7.8-19,7.8h-375c-7.4,0-13.8-2.6-19-7.8s-7.8-11.5-7.8-19V26.8c0-7.4,2.6-13.8,7.8-19S55.1,0,62.5,0h250
	c7.4,0,15.6,1.9,24.6,5.6c8.9,3.7,16,8.2,21.2,13.4L445.3,106z M321.4,37.9v104.9h104.9c-1.9-5.4-3.9-9.2-6.1-11.4l-87.3-87.3
	C330.6,41.9,326.8,39.8,321.4,37.9z M428.6,464.3V178.6H312.5c-7.4,0-13.8-2.6-19-7.8c-5.2-5.2-7.8-11.5-7.8-19V35.7H71.4v428.6
	H428.6z M285.2,298.8c6.1,4.8,14,10,23.4,15.6c11-1.3,21.9-2,32.6-2c27.3,0,43.8,4.6,49.4,13.7c3,4.1,3.2,8.9,0.6,14.5
	c0,0.2-0.1,0.4-0.3,0.6l-0.6,0.6v0.3c-1.1,7.1-7.7,10.6-19.8,10.6c-8.9,0-19.6-1.9-32.1-5.6c-12.5-3.7-24.6-8.6-36.3-14.8
	c-41.1,4.5-77.6,12.2-109.4,23.2c-28.5,48.7-51,73.1-67.5,73.1c-2.8,0-5.4-0.7-7.8-2l-6.7-3.3c-0.2-0.2-0.7-0.7-1.7-1.4
	c-1.9-1.9-2.4-5.2-1.7-10c1.7-7.4,6.9-16,15.6-25.5s21-18.6,36.8-26.9c2.6-1.7,4.7-1.1,6.4,1.7c0.4,0.4,0.6,0.7,0.6,1.1
	c9.7-15.8,19.6-34.1,29.9-55c12.6-25.3,22.3-49.7,29-73.1c-4.5-15.3-7.3-30.1-8.5-44.5c-1.2-14.4-0.6-26.3,1.8-35.6
	c2-7.4,6-11.2,11.7-11.2h6.1c4.3,0,7.5,1.4,9.8,4.2c3.3,3.9,4.2,10.2,2.5,19c-0.4,1.1-0.7,1.9-1.1,2.2c0.2,0.6,0.3,1.3,0.3,2.2v8.4
	c-0.4,22.9-1.7,40.7-3.9,53.6C254.7,262.9,268.2,285.1,285.2,298.8z M124.4,413.5c9.7-4.5,22.4-19.2,38.2-44.1
	c-9.5,7.4-17.6,15.3-24.4,23.4S126.9,407.9,124.4,413.5z M235.5,156.8c-2.8,7.8-3,20.1-0.6,36.8c0.2-1.3,0.8-5.4,2-12.3
	c0-0.6,0.7-4.6,2-12c0.2-0.7,0.6-1.5,1.1-2.2c-0.2-0.2-0.3-0.4-0.3-0.6c0-0.2,0-0.3-0.1-0.4s-0.1-0.2-0.1-0.4
	c-0.2-4.1-1.4-7.4-3.6-10c0,0.2-0.1,0.4-0.3,0.6V156.8z M200.9,341.2c25.1-10,51.5-17.6,79.2-22.6c-0.4-0.2-1.6-1.1-3.6-2.7
	c-2-1.6-3.5-2.8-4.5-3.8c-14.1-12.5-25.9-28.8-35.4-49.1c-5,16-12.7,34.3-23.2,55C207.9,328.5,203.7,336.2,200.9,341.2z
	 M381.1,336.8c-4.5-4.5-17.5-6.7-39.1-6.7c14.1,5.2,25.7,7.8,34.6,7.8c2.6,0,4.3-0.1,5-0.3C381.7,337.4,381.5,337.1,381.1,336.8z"/>
</svg>
