<?xml version="1.0" encoding="utf-8"?>
<!-- Generator: Adobe Illustrator 18.0.0, SVG Export Plug-In . SVG Version: 6.00 Build 0)  -->
<!DOCTYPE svg PUBLIC "-//W3C//DTD SVG 1.1//EN" "http://www.w3.org/Graphics/SVG/1.1/DTD/svg11.dtd">
<svg version="1.1" id="图层_1" xmlns="http://www.w3.org/2000/svg" xmlns:xlink="http://www.w3.org/1999/xlink" x="0px" y="0px"
	 viewBox="0 0 500 500" enable-background="new 0 0 500 500" xml:space="preserve">
<path fill="#999999" d="M214.3,107.1V71.4h-35.7v35.7H214.3z M250,142.9v-35.7h-35.7v35.7H250z M214.3,178.6v-35.7h-35.7v35.7H214.3
	z M250,214.3v-35.7h-35.7v35.7H250z M445.3,106c5.2,5.2,9.7,12.3,13.4,21.2c3.7,8.9,5.6,17.1,5.6,24.6v321.4c0,7.4-2.6,13.8-7.8,19
	c-5.2,5.2-11.5,7.8-19,7.8h-375c-7.4,0-13.8-2.6-19-7.8s-7.8-11.5-7.8-19V26.8c0-7.4,2.6-13.8,7.8-19S55.1,0,62.5,0h250
	c7.4,0,15.6,1.9,24.6,5.6c8.9,3.7,16,8.2,21.2,13.4L445.3,106z M321.4,37.9v104.9h104.9c-1.9-5.4-3.9-9.2-6.1-11.4l-87.3-87.3
	C330.6,41.9,326.8,39.8,321.4,37.9z M428.6,464.3V178.6H312.5c-7.4,0-13.8-2.6-19-7.8c-5.2-5.2-7.8-11.5-7.8-19V35.7H250v35.7h-35.7
	V35.7H71.4v428.6H428.6z M253.6,263.1l29.9,97.4c1.5,5,2.2,9.9,2.2,14.5c0,15.4-6.7,28.2-20.2,38.4c-13.5,10.1-30.6,15.2-51.2,15.2
	s-37.7-5.1-51.2-15.2s-20.2-22.9-20.2-38.4c0-4.7,0.7-9.5,2.2-14.5c3.9-11.7,15.1-48.5,33.5-110.5v-35.7h35.7V250h22
	c4.1,0,7.7,1.2,10.9,3.6S252.5,259.2,253.6,263.1z M214.3,392.9c9.9,0,18.3-1.8,25.3-5.3c7-3.5,10.5-7.7,10.5-12.6s-3.5-9-10.5-12.6
	c-7-3.5-15.4-5.3-25.3-5.3c-9.9,0-18.3,1.8-25.3,5.3c-7,3.5-10.5,7.7-10.5,12.6s3.5,9,10.5,12.6C196,391.1,204.4,392.9,214.3,392.9z
	"/>
</svg>
