<?xml version="1.0" encoding="utf-8"?>
<!-- Generator: Adobe Illustrator 18.0.0, SVG Export Plug-In . SVG Version: 6.00 Build 0)  -->
<!DOCTYPE svg PUBLIC "-//W3C//DTD SVG 1.1//EN" "http://www.w3.org/Graphics/SVG/1.1/DTD/svg11.dtd">
<svg version="1.1" id="图层_1" xmlns="http://www.w3.org/2000/svg" xmlns:xlink="http://www.w3.org/1999/xlink" x="0px" y="0px"
	 viewBox="0 0 500 500" enable-background="new 0 0 500 500" xml:space="preserve">
<path fill="#999999" d="M445.3,106c5.2,5.2,9.7,12.3,13.4,21.2c3.7,8.9,5.6,17.1,5.6,24.6v321.4c0,7.4-2.6,13.8-7.8,19
	c-5.2,5.2-11.5,7.8-19,7.8h-375c-7.4,0-13.8-2.6-19-7.8s-7.8-11.5-7.8-19V26.8c0-7.4,2.6-13.8,7.8-19S55.1,0,62.5,0h250
	c7.4,0,15.6,1.9,24.6,5.6c8.9,3.7,16,8.2,21.2,13.4L445.3,106z M321.4,37.9v104.9h104.9c-1.9-5.4-3.9-9.2-6.1-11.4l-87.3-87.3
	C330.6,41.9,326.8,39.8,321.4,37.9z M428.6,464.3V178.6H312.5c-7.4,0-13.8-2.6-19-7.8c-5.2-5.2-7.8-11.5-7.8-19V35.7H71.4v428.6
	H428.6z M208.7,237.2c3.7,1.5,5.6,4.3,5.6,8.4v151.8c0,4.1-1.9,6.9-5.6,8.4c-1.5,0.4-2.6,0.6-3.3,0.6c-2.2,0-4.4-0.8-6.4-2.5
	l-46.3-46.6h-36.6c-2.6,0-4.7-0.8-6.4-2.5c-1.7-1.7-2.5-3.8-2.5-6.4v-53.6c0-2.6,0.8-4.7,2.5-6.4c1.7-1.7,3.8-2.5,6.4-2.5h36.6
	l46.3-46.6C201.9,236.3,205.2,235.7,208.7,237.2z M325.1,429.4c5.8,0,10.4-2.2,14-6.7c24-29.6,36-63.3,36-101.3s-12-71.7-36-101.3
	c-3-3.9-7-6.1-12-6.7c-5-0.6-9.4,0.7-13.1,3.9c-3.9,3.2-6.1,7.2-6.6,12.1s0.9,9.3,4,13.3c18.6,22.9,27.9,49.1,27.9,78.7
	c0,29.6-9.3,55.8-27.9,78.7c-3.2,3.9-4.5,8.3-4,13.3c0.5,4.9,2.7,8.9,6.6,11.9C317.2,428,321,429.4,325.1,429.4z M266.2,388.1
	c5,0,9.4-1.9,13.1-5.6c16.2-17.3,24.3-37.7,24.3-61.1s-8.1-43.8-24.3-61.1c-3.3-3.5-7.5-5.4-12.6-5.6c-5-0.2-9.3,1.4-12.8,4.7
	c-3.5,3.3-5.4,7.5-5.6,12.4s1.5,9.3,5,13c9.7,10.6,14.5,22.8,14.5,36.6s-4.8,25.9-14.5,36.6c-3.5,3.7-5.2,8-5,13
	c0.2,4.9,2,9.1,5.6,12.4C257.6,386.5,261.7,388.1,266.2,388.1z"/>
</svg>
