<?xml version="1.0" encoding="utf-8"?>
<!-- Generator: Adobe Illustrator 18.0.0, SVG Export Plug-In . SVG Version: 6.00 Build 0)  -->
<!DOCTYPE svg PUBLIC "-//W3C//DTD SVG 1.1//EN" "http://www.w3.org/Graphics/SVG/1.1/DTD/svg11.dtd">
<svg version="1.1" id="图层_1" xmlns="http://www.w3.org/2000/svg" xmlns:xlink="http://www.w3.org/1999/xlink" x="0px" y="0px"
	 viewBox="0 0 500 500" enable-background="new 0 0 500 500" xml:space="preserve">
<path fill="#999999" d="M473.2,107.1c7.4,0,13.8,2.6,19,7.8c5.2,5.2,7.8,11.5,7.8,19v339.3c0,7.4-2.6,13.8-7.8,19s-11.5,7.8-19,7.8
	H205.4c-7.4,0-13.8-2.6-19-7.8s-7.8-11.5-7.8-19v-80.4H26.8c-7.4,0-13.8-2.6-19-7.8S0,373.5,0,366.1V178.6c0-7.4,1.9-15.6,5.6-24.6
	s8.2-16,13.4-21.2L132.8,19c5.2-5.2,12.3-9.7,21.2-13.4S171.1,0,178.6,0h116.1c7.4,0,13.8,2.6,19,7.8c5.2,5.2,7.8,11.5,7.8,19v91.5
	c12.6-7.4,24.6-11.2,35.7-11.2H473.2z M321.4,166.6L238,250h83.4V166.6z M142.9,59.4l-83.4,83.4h83.4V59.4z M197.5,240l88.2-88.2
	V35.7H178.6v116.1c0,7.4-2.6,13.8-7.8,19s-11.5,7.8-19,7.8H35.7v178.6h142.9v-71.4c0-7.4,1.9-15.6,5.6-24.6
	C187.9,252.2,192.3,245.2,197.5,240z M464.3,464.3V142.9H357.1v116.1c0,7.4-2.6,13.8-7.8,19s-11.5,7.8-19,7.8H214.3v178.6H464.3z"/>
</svg>
