<?xml version="1.0" encoding="utf-8"?>
<!-- Generator: Adobe Illustrator 18.0.0, SVG Export Plug-In . SVG Version: 6.00 Build 0)  -->
<!DOCTYPE svg PUBLIC "-//W3C//DTD SVG 1.1//EN" "http://www.w3.org/Graphics/SVG/1.1/DTD/svg11.dtd">
<svg version="1.1" id="图层_1" xmlns="http://www.w3.org/2000/svg" xmlns:xlink="http://www.w3.org/1999/xlink" x="0px" y="0px"
	 viewBox="0 0 500 500" enable-background="new 0 0 500 500" xml:space="preserve">
<path fill="#999999" d="M500,392.9v35.7c0,4.8-1.8,9-5.3,12.6s-7.7,5.3-12.6,5.3H17.9c-4.8,0-9-1.8-12.6-5.3S0,433.4,0,428.6v-35.7
	c0-4.8,1.8-9,5.3-12.6S13,375,17.9,375h464.3c4.8,0,9,1.8,12.6,5.3S500,388,500,392.9z M500,285.7v35.7c0,4.8-1.8,9-5.3,12.6
	s-7.7,5.3-12.6,5.3H125c-4.8,0-9-1.8-12.6-5.3c-3.5-3.5-5.3-7.7-5.3-12.6v-35.7c0-4.8,1.8-9,5.3-12.6c3.5-3.5,7.7-5.3,12.6-5.3
	h357.1c4.8,0,9,1.8,12.6,5.3S500,280.9,500,285.7z M500,178.6v35.7c0,4.8-1.8,9-5.3,12.6c-3.5,3.5-7.7,5.3-12.6,5.3H53.6
	c-4.8,0-9-1.8-12.6-5.3c-3.5-3.5-5.3-7.7-5.3-12.6v-35.7c0-4.8,1.8-9,5.3-12.6s7.7-5.3,12.6-5.3h428.6c4.8,0,9,1.8,12.6,5.3
	S500,173.7,500,178.6z M500,71.4v35.7c0,4.8-1.8,9-5.3,12.6s-7.7,5.3-12.6,5.3H160.7c-4.8,0-9-1.8-12.6-5.3
	c-3.5-3.5-5.3-7.7-5.3-12.6V71.4c0-4.8,1.8-9,5.3-12.6c3.5-3.5,7.7-5.3,12.6-5.3h321.4c4.8,0,9,1.8,12.6,5.3
	C498.2,62.4,500,66.6,500,71.4z"/>
</svg>
