<?xml version="1.0" encoding="utf-8"?>
<!-- Generator: Adobe Illustrator 18.0.0, SVG Export Plug-In . SVG Version: 6.00 Build 0)  -->
<!DOCTYPE svg PUBLIC "-//W3C//DTD SVG 1.1//EN" "http://www.w3.org/Graphics/SVG/1.1/DTD/svg11.dtd">
<svg version="1.1" id="图层_1" xmlns="http://www.w3.org/2000/svg" xmlns:xlink="http://www.w3.org/1999/xlink" x="0px" y="0px"
	 viewBox="0 0 500 500" enable-background="new 0 0 500 500" xml:space="preserve">
<path fill="#999999" d="M201.5,453.5c16.1,6.9,31.3,10.4,45.6,10.4c81.6,0,122.4-36.3,122.4-109c0-24.7-4.4-44.3-13.3-58.6
	c-5.9-9.5-12.5-17.6-20-24.1c-7.5-6.5-14.8-11.6-22-15.1c-7.2-3.6-15.9-6.3-26.2-8.1c-10.3-1.8-19.4-3-27.3-3.4
	c-7.9-0.4-18.2-0.7-30.8-0.7c-15.8,0-26.8,1.1-32.9,3.3c0,11.5-0.1,28.8-0.2,51.8c-0.1,23-0.2,40.1-0.2,51.4c0,1.7-0.1,9.1-0.3,22
	c-0.2,12.9-0.3,23.4-0.2,31.4c0.1,8,0.6,17.1,1.5,27.2C198.5,441.9,199.8,449.1,201.5,453.5z M196.9,210.6
	c9.1,1.5,20.9,2.3,35.5,2.3c17.8,0,33.3-1.4,46.5-4.2c13.2-2.8,25.2-7.6,35.8-14.5s18.7-16.5,24.3-29.1c5.5-12.6,8.3-28,8.3-46.2
	c0-15.2-3.1-28.5-9.4-39.9S323,58.6,312.2,52.2S289.6,41.1,277,38.1c-12.6-3-26-4.6-40.4-4.6c-10.9,0-25,1.4-42.3,4.2
	c0,10.9,0.4,27.2,1.3,49.2c0.9,21.9,1.3,38.4,1.3,49.5c0,5.9-0.1,14.5-0.2,26c-0.1,11.5-0.2,20.1-0.2,25.7
	C196.6,198.1,196.7,205.6,196.9,210.6z M20.8,500l0.7-30.6c3.3-0.9,12.5-2.6,27.7-5.2c15.2-2.6,26.7-5.5,34.5-8.8
	c1.5-2.6,2.9-5.5,4.1-8.8c1.2-3.3,2.1-6.9,2.8-10.9c0.7-4,1.2-7.5,1.8-10.6s0.9-7.1,1-12.2c0.1-5.1,0.2-8.8,0.2-11.1v-21.3
	c0-213.1-2.4-324.3-7.2-333.7c-0.9-1.7-3.3-3.3-7.2-4.7s-8.7-2.6-14.5-3.6c-5.8-1-11.1-1.7-16.1-2.3c-5-0.5-10.3-1-15.8-1.5
	c-5.5-0.4-8.8-0.8-9.9-1l-1.3-27c21.3-0.4,58.2-1.7,110.7-3.7S225.2,0,253.6,0c5,0,12.4,0.1,22.3,0.2s17.2,0.2,22,0.2
	c15.2,0,30,1.4,44.4,4.2s28.4,7.4,41.8,13.7c13.5,6.3,25.2,14,35.2,23.1c10,9.1,18,20.5,24.1,34s9.1,28.5,9.1,44.8
	c0,11.3-1.8,21.6-5.4,31.1c-3.6,9.4-7.8,17.3-12.7,23.4c-4.9,6.2-11.9,12.4-21,18.7c-9.1,6.3-17,11.2-23.8,14.6s-15.8,7.8-27.3,13
	c33.4,7.6,61.3,22.1,83.5,43.6s33.4,48.4,33.4,80.7c0,21.7-3.8,41.2-11.4,58.4s-17.7,31.4-30.4,42.5s-27.7,20.3-44.9,27.8
	c-17.3,7.5-35,12.7-53.2,15.8c-18.2,3-37.3,4.6-57.3,4.6c-9.5,0-23.9-0.3-43-1c-19.1-0.7-33.4-1-43-1c-23,0-56.3,1.2-99.9,3.6
	S27.3,499.8,20.8,500z"/>
</svg>
