<?xml version="1.0" encoding="utf-8"?>
<!-- Generator: Adobe Illustrator 18.0.0, SVG Export Plug-In . SVG Version: 6.00 Build 0)  -->
<!DOCTYPE svg PUBLIC "-//W3C//DTD SVG 1.1//EN" "http://www.w3.org/Graphics/SVG/1.1/DTD/svg11.dtd">
<svg version="1.1" id="图层_1" xmlns="http://www.w3.org/2000/svg" xmlns:xlink="http://www.w3.org/1999/xlink" x="0px" y="0px"
	 viewBox="0 0 500 500" enable-background="new 0 0 500 500" xml:space="preserve">
<path fill="#999999" d="M233.3,383.3l87.5-100h-200l-87.5,100H233.3z M497.1,102.9c2.6,5.9,3.4,12.1,2.5,18.6s-3.6,12.2-7.9,17.1
	L258.3,405.2c-6.6,7.6-14.9,11.5-25,11.5h-200c-6.6,0-12.6-1.8-18.1-5.3c-5.5-3.6-9.6-8.3-12.4-14.2c-2.6-5.9-3.4-12.1-2.5-18.6
	s3.6-12.2,7.9-17.1L241.7,94.8c6.6-7.6,14.9-11.5,25-11.5h200c6.6,0,12.6,1.8,18.1,5.3C490.2,92.2,494.4,97,497.1,102.9z"/>
</svg>
