<?xml version="1.0" encoding="utf-8"?>
<!-- Generator: Adobe Illustrator 18.0.0, SVG Export Plug-In . SVG Version: 6.00 Build 0)  -->
<!DOCTYPE svg PUBLIC "-//W3C//DTD SVG 1.1//EN" "http://www.w3.org/Graphics/SVG/1.1/DTD/svg11.dtd">
<svg version="1.1" id="图层_1" xmlns="http://www.w3.org/2000/svg" xmlns:xlink="http://www.w3.org/1999/xlink" x="0px" y="0px"
	 viewBox="0 0 500 500" enable-background="new 0 0 500 500" xml:space="preserve">
<path fill="#999999" d="M217.8,148.7L166.8,284c6.6,0,20.3,0.2,41,0.6s36.8,0.6,48.2,0.6c3.8,0,9.5-0.2,17.1-0.6
	C255.7,233.9,237.3,188.6,217.8,148.7z M0,480.8L0.6,457c4.6-1.4,10.2-2.7,16.8-3.8s12.3-2.2,17.1-3.2c4.8-1,9.8-2.5,14.9-4.4
	c5.1-1.9,9.6-4.8,13.4-8.7s6.9-9,9.3-15.2l71.2-185.1l84.1-217.5h38.5c1.6,2.8,2.7,4.9,3.3,6.3l61.6,144.2
	c6.6,15.6,17.2,41.4,31.9,77.4s26,63.5,34.3,82.5c3,6.8,8.8,21.3,17.4,43.4s15.8,39,21.6,50.6c4,9,7.5,14.7,10.5,17.1
	c3.8,3,12.6,6,26.4,8.9s22.2,5,25.2,6.2c1.2,7.6,1.8,13.3,1.8,17.1c0,0.8-0.1,2.1-0.2,3.9c-0.1,1.8-0.2,3.1-0.2,3.9
	c-12.6,0-31.7-0.8-57.1-2.4c-25.4-1.6-44.6-2.4-57.4-2.4c-15.2,0-36.8,0.7-64.6,2.1c-27.8,1.4-45.7,2.2-53.5,2.4
	c0-8.6,0.4-16.4,1.2-23.4l39.4-8.4c0.2,0,1.5-0.3,3.8-0.8c2.3-0.5,3.9-0.9,4.7-1.1c0.8-0.2,2.3-0.7,4.4-1.4s3.6-1.4,4.5-2
	c0.9-0.6,2-1.4,3.3-2.4s2.2-2.1,2.7-3.3c0.5-1.2,0.8-2.6,0.8-4.2c0-3.2-3.1-12.9-9.3-29s-13.4-33.9-21.6-53.3
	c-8.2-19.4-12.4-29.4-12.6-30l-135.2-0.6c-5.2,11.6-12.9,31.2-23,58.7c-10.1,27.5-15.2,43.8-15.2,48.8c0,4.4,1.4,8.2,4.2,11.3
	s7.2,5.6,13.1,7.4c5.9,1.8,10.8,3.2,14.6,4.1c3.8,0.9,9.5,1.8,17.1,2.6c7.6,0.8,11.7,1.2,12.3,1.2c0.2,3.8,0.3,9.6,0.3,17.4
	c0,1.8-0.2,4.5-0.6,8.1c-11.6,0-29.1-1-52.4-3c-23.3-2-40.8-3-52.4-3c-1.6,0-4.3,0.4-8,1.2s-5.9,1.2-6.5,1.2
	C40.5,479.4,21.6,480.8,0,480.8z"/>
</svg>
