<?xml version="1.0" encoding="utf-8"?>
<!-- Generator: Adobe Illustrator 18.0.0, SVG Export Plug-In . SVG Version: 6.00 Build 0)  -->
<!DOCTYPE svg PUBLIC "-//W3C//DTD SVG 1.1//EN" "http://www.w3.org/Graphics/SVG/1.1/DTD/svg11.dtd">
<svg version="1.1" id="图层_1" xmlns="http://www.w3.org/2000/svg" xmlns:xlink="http://www.w3.org/1999/xlink" x="0px" y="0px"
	 viewBox="0 0 500 500" enable-background="new 0 0 500 500" xml:space="preserve">
<path fill="#999999" d="M485.6,480.2c-8.8,0-22-0.3-39.7-1c-17.7-0.7-31-1-40-1c-8.8,0-22,0.3-39.6,1c-17.6,0.7-30.8,1-39.6,1
	c-4.8,0-8.5-2-11.1-6.1c-2.6-4.1-3.9-8.6-3.9-13.6c0-6.2,1.7-10.8,5.1-13.8c3.4-3,7.3-4.7,11.7-5.1s9.5-1.1,15.3-2.1
	c5.8-1,10.3-2.5,13.5-4.5c6.6-4.2,9.9-18.2,9.9-42l-0.3-117.2c0-4.2-0.1-7.3-0.3-9.3c-2.6-0.8-7.6-1.2-15-1.2H149.3
	c-7.6,0-12.7,0.4-15.3,1.2c-0.2,2-0.3,5.1-0.3,9.3L133.4,387c0,28.4,3.7,44.8,11.1,49.2c3.2,2,8,3.3,14.4,3.9
	c6.4,0.6,12.1,0.9,17.1,1c5,0.1,9.5,1.6,13.5,4.5c4,2.9,6,7.4,6,13.6c0,5.2-1.2,10-3.7,14.4c-2.5,4.4-6.1,6.6-10.9,6.6
	c-9.4,0-23.3-0.3-41.8-1c-18.5-0.7-32.3-1-41.5-1c-8.6,0-21.4,0.3-38.4,1c-17,0.7-29.7,1-38.1,1c-4.6,0-8.1-2.1-10.6-6.3
	c-2.5-4.2-3.7-8.7-3.7-13.5c0-6,1.5-10.5,4.6-13.5s6.7-4.7,10.8-5.2c4.1-0.5,8.8-1.2,14.2-2.2c5.4-1,9.6-2.5,12.6-4.5
	c6.6-4.6,9.9-18.9,9.9-42.9L58.5,375V131.3c0-0.6,0-3.2,0.1-7.8c0.1-4.6,0.1-8.2,0-10.9c-0.1-2.7-0.2-6.5-0.4-11.5
	c-0.2-5-0.5-9.2-1-12.6c-0.5-3.4-1.1-7-1.9-10.9c-0.8-3.9-1.9-7-3.3-9.4s-3-4.2-4.8-5.4c-3-2-7.5-3.2-13.5-3.6
	c-6-0.4-11.3-0.6-15.9-0.6S9,57.1,5.4,54.3S0,47,0,40.8c0-5.2,1.2-10,3.6-14.4s6-6.6,10.8-6.6c9.2,0,23,0.3,41.5,1
	c18.5,0.7,32.3,1,41.5,1c8.4,0,21-0.3,37.9-1c16.9-0.7,29.5-1,37.9-1c5,0,8.7,2.2,11.2,6.6c2.5,4.4,3.7,9.2,3.7,14.4
	c0,6-1.7,10.3-5.1,13s-7.2,4.1-11.5,4.3c-4.3,0.2-9.2,0.6-14.8,1.2c-5.6,0.6-9.9,1.9-12.9,3.9c-7,4.2-10.5,20.2-10.5,48l0.3,95.9
	c0,4.2,0.1,7.4,0.3,9.6c2.6,0.6,6.5,0.9,11.7,0.9h209.5c5,0,8.8-0.3,11.4-0.9c0.2-2.2,0.3-5.4,0.3-9.6l0.3-95.9
	c0-27.8-3.5-43.8-10.5-48c-3.6-2.2-9.4-3.4-17.5-3.7c-8.1-0.3-14.7-1.6-19.8-3.9c-5.1-2.3-7.6-7.2-7.6-14.8c0-5.2,1.2-10,3.7-14.4
	c2.5-4.4,6.2-6.6,11.2-6.6c8.8,0,22,0.3,39.6,1c17.6,0.7,30.8,1,39.6,1c8.6,0,21.5-0.3,38.7-1c17.2-0.7,30.1-1,38.7-1
	c5,0,8.7,2.2,11.2,6.6s3.7,9.2,3.7,14.4c0,6-1.7,10.4-5.2,13.2s-7.5,4.2-12,4.3c-4.5,0.1-9.6,0.4-15.4,0.9
	c-5.8,0.5-10.2,1.7-13.2,3.7c-7,4.6-10.5,20.7-10.5,48.3l0.3,282.7c0,23.8,3.4,37.8,10.2,42c3.2,2,7.8,3.3,13.8,4
	c6,0.7,11.3,1.1,16,1.3s8.8,1.7,12.4,4.6c3.6,2.9,5.4,7.3,5.4,13.3c0,5.2-1.2,10-3.6,14.4C494,478,490.4,480.2,485.6,480.2z"/>
</svg>
