<?xml version="1.0" encoding="utf-8"?>
<!-- Generator: Adobe Illustrator 18.0.0, SVG Export Plug-In . SVG Version: 6.00 Build 0)  -->
<!DOCTYPE svg PUBLIC "-//W3C//DTD SVG 1.1//EN" "http://www.w3.org/Graphics/SVG/1.1/DTD/svg11.dtd">
<svg version="1.1" id="图层_1" xmlns="http://www.w3.org/2000/svg" xmlns:xlink="http://www.w3.org/1999/xlink" x="0px" y="0px"
	 viewBox="0 0 500 500" enable-background="new 0 0 500 500" xml:space="preserve">
<path fill="#999999" d="M83.3,499.3l5.5-27.7c1.3-0.4,10.1-2.8,26.5-7c16.4-4.2,28.5-8.3,36.3-12.2c6.1-7.6,10.5-18.6,13.3-32.9
	c0.2-1.5,6.9-32.9,20.2-94.1s25.6-120.2,37.1-176.9c11.5-56.7,17.1-88.9,16.9-96.5v-8.1c-5.2-2.8-11.1-4.8-17.7-6
	c-6.6-1.2-14.2-2.1-22.6-2.6c-8.5-0.5-14.8-1.1-18.9-1.8L186.2,0c7.2,0.4,20.2,1.1,39.1,2.1s35.1,1.7,48.7,2.3s26.6,0.8,39.2,0.8
	c10.4,0,21.1-0.3,32.1-0.8s24.1-1.3,39.4-2.3c15.3-1,26-1.7,32.1-2.1c-1.1,8.5-3.1,18.1-6.2,29c-6.5,2.2-17.5,5.3-33,9.3
	s-27.3,7.6-35.3,10.9c-1.7,4.1-3.3,8.7-4.6,13.8c-1.3,5.1-2.3,9.4-2.9,13c-0.7,3.6-1.5,8.5-2.4,14.8s-1.7,10.9-2.1,13.7
	c-5.9,32.1-15.4,77.6-28.5,136.6s-21.5,97.5-25.2,115.7c-0.4,2-1.8,8.2-4.2,18.9s-4.6,20.4-6.5,29.3s-3.7,18-5.2,27.2
	s-2.2,15.5-2,18.7l0.3,5.9c3.7,0.9,23.8,4.2,60.2,10.1c-0.7,9.5-2.4,20.3-5.2,32.2c-2.4,0-5.9,0.2-10.6,0.5s-8.2,0.5-10.6,0.5
	c-6.3,0-15.7-1.1-28.3-3.3c-12.6-2.2-21.9-3.3-28-3.3c-29.9-0.4-52.3-0.7-67.1-0.7c-11.1,0-26.6,1-46.5,2.9S89.6,498.9,83.3,499.3z"
	/>
</svg>
