<?xml version="1.0" encoding="utf-8"?>
<!-- Generator: Adobe Illustrator 18.0.0, SVG Export Plug-In . SVG Version: 6.00 Build 0)  -->
<!DOCTYPE svg PUBLIC "-//W3C//DTD SVG 1.1//EN" "http://www.w3.org/Graphics/SVG/1.1/DTD/svg11.dtd">
<svg version="1.1" id="图层_1" xmlns="http://www.w3.org/2000/svg" xmlns:xlink="http://www.w3.org/1999/xlink" x="0px" y="0px"
	 viewBox="0 0 500 500" enable-background="new 0 0 500 500" xml:space="preserve">
<path fill="#999999" d="M107.1,169.6v160.7c0,2.4-0.9,4.5-2.7,6.3s-3.9,2.7-6.3,2.7c-2.6,0-4.7-0.8-6.4-2.5l-80.4-80.4
	c-1.7-1.7-2.5-3.8-2.5-6.4s0.8-4.7,2.5-6.4l80.4-80.4c1.7-1.7,3.8-2.5,6.4-2.5c2.4,0,4.5,0.9,6.3,2.7S107.1,167.2,107.1,169.6z
	 M500,383.9v53.6c0,2.4-0.9,4.5-2.7,6.3s-3.9,2.7-6.3,2.7H8.9c-2.4,0-4.5-0.9-6.3-2.7S0,439.9,0,437.5v-53.6c0-2.4,0.9-4.5,2.7-6.3
	s3.9-2.7,6.3-2.7h482.1c2.4,0,4.5,0.9,6.3,2.7S500,381.5,500,383.9z M500,276.8v53.6c0,2.4-0.9,4.5-2.7,6.3s-3.9,2.7-6.3,2.7H187.5
	c-2.4,0-4.5-0.9-6.3-2.7c-1.8-1.8-2.7-3.9-2.7-6.3v-53.6c0-2.4,0.9-4.5,2.7-6.3c1.8-1.8,3.9-2.7,6.3-2.7h303.6
	c2.4,0,4.5,0.9,6.3,2.7S500,274.4,500,276.8z M500,169.6v53.6c0,2.4-0.9,4.5-2.7,6.3s-3.9,2.7-6.3,2.7H187.5c-2.4,0-4.5-0.9-6.3-2.7
	c-1.8-1.8-2.7-3.9-2.7-6.3v-53.6c0-2.4,0.9-4.5,2.7-6.3c1.8-1.8,3.9-2.7,6.3-2.7h303.6c2.4,0,4.5,0.9,6.3,2.7S500,167.2,500,169.6z
	 M500,62.5v53.6c0,2.4-0.9,4.5-2.7,6.3c-1.8,1.8-3.9,2.7-6.3,2.7H8.9c-2.4,0-4.5-0.9-6.3-2.7c-1.8-1.8-2.7-3.9-2.7-6.3V62.5
	c0-2.4,0.9-4.5,2.7-6.3c1.8-1.8,3.9-2.7,6.3-2.7h482.1c2.4,0,4.5,0.9,6.3,2.7C499.1,58,500,60.1,500,62.5z"/>
</svg>
