<?xml version="1.0" encoding="utf-8"?>
<!-- Generator: Adobe Illustrator 18.0.0, SVG Export Plug-In . SVG Version: 6.00 Build 0)  -->
<!DOCTYPE svg PUBLIC "-//W3C//DTD SVG 1.1//EN" "http://www.w3.org/Graphics/SVG/1.1/DTD/svg11.dtd">
<svg version="1.1" id="图层_1" xmlns="http://www.w3.org/2000/svg" xmlns:xlink="http://www.w3.org/1999/xlink" x="0px" y="0px"
	 viewBox="0 0 500 500" enable-background="new 0 0 500 500" xml:space="preserve">
<path fill="#999999" d="M71.4,383.9v53.6c0,2.4-0.9,4.5-2.7,6.3s-3.9,2.7-6.3,2.7H8.9c-2.4,0-4.5-0.9-6.3-2.7S0,439.9,0,437.5v-53.6
	c0-2.4,0.9-4.5,2.7-6.3s3.9-2.7,6.3-2.7h53.6c2.4,0,4.5,0.9,6.3,2.7S71.4,381.5,71.4,383.9z M71.4,276.8v53.6c0,2.4-0.9,4.5-2.7,6.3
	s-3.9,2.7-6.3,2.7H8.9c-2.4,0-4.5-0.9-6.3-2.7S0,332.8,0,330.4v-53.6c0-2.4,0.9-4.5,2.7-6.3s3.9-2.7,6.3-2.7h53.6
	c2.4,0,4.5,0.9,6.3,2.7S71.4,274.4,71.4,276.8z M71.4,169.6v53.6c0,2.4-0.9,4.5-2.7,6.3s-3.9,2.7-6.3,2.7H8.9
	c-2.4,0-4.5-0.9-6.3-2.7S0,225.6,0,223.2v-53.6c0-2.4,0.9-4.5,2.7-6.3s3.9-2.7,6.3-2.7h53.6c2.4,0,4.5,0.9,6.3,2.7
	S71.4,167.2,71.4,169.6z M500,383.9v53.6c0,2.4-0.9,4.5-2.7,6.3s-3.9,2.7-6.3,2.7h-375c-2.4,0-4.5-0.9-6.3-2.7
	c-1.8-1.8-2.7-3.9-2.7-6.3v-53.6c0-2.4,0.9-4.5,2.7-6.3c1.8-1.8,3.9-2.7,6.3-2.7h375c2.4,0,4.5,0.9,6.3,2.7S500,381.5,500,383.9z
	 M71.4,62.5v53.6c0,2.4-0.9,4.5-2.7,6.3c-1.8,1.8-3.9,2.7-6.3,2.7H8.9c-2.4,0-4.5-0.9-6.3-2.7c-1.8-1.8-2.7-3.9-2.7-6.3V62.5
	c0-2.4,0.9-4.5,2.7-6.3c1.8-1.8,3.9-2.7,6.3-2.7h53.6c2.4,0,4.5,0.9,6.3,2.7C70.5,58,71.4,60.1,71.4,62.5z M500,276.8v53.6
	c0,2.4-0.9,4.5-2.7,6.3s-3.9,2.7-6.3,2.7h-375c-2.4,0-4.5-0.9-6.3-2.7c-1.8-1.8-2.7-3.9-2.7-6.3v-53.6c0-2.4,0.9-4.5,2.7-6.3
	c1.8-1.8,3.9-2.7,6.3-2.7h375c2.4,0,4.5,0.9,6.3,2.7S500,274.4,500,276.8z M500,169.6v53.6c0,2.4-0.9,4.5-2.7,6.3s-3.9,2.7-6.3,2.7
	h-375c-2.4,0-4.5-0.9-6.3-2.7c-1.8-1.8-2.7-3.9-2.7-6.3v-53.6c0-2.4,0.9-4.5,2.7-6.3c1.8-1.8,3.9-2.7,6.3-2.7h375
	c2.4,0,4.5,0.9,6.3,2.7S500,167.2,500,169.6z M500,62.5v53.6c0,2.4-0.9,4.5-2.7,6.3c-1.8,1.8-3.9,2.7-6.3,2.7h-375
	c-2.4,0-4.5-0.9-6.3-2.7c-1.8-1.8-2.7-3.9-2.7-6.3V62.5c0-2.4,0.9-4.5,2.7-6.3c1.8-1.8,3.9-2.7,6.3-2.7h375c2.4,0,4.5,0.9,6.3,2.7
	C499.1,58,500,60.1,500,62.5z"/>
</svg>
