<?xml version="1.0" encoding="utf-8"?>
<!-- Generator: Adobe Illustrator 18.0.0, SVG Export Plug-In . SVG Version: 6.00 Build 0)  -->
<!DOCTYPE svg PUBLIC "-//W3C//DTD SVG 1.1//EN" "http://www.w3.org/Graphics/SVG/1.1/DTD/svg11.dtd">
<svg version="1.1" id="图层_1" xmlns="http://www.w3.org/2000/svg" xmlns:xlink="http://www.w3.org/1999/xlink" x="0px" y="0px"
	 viewBox="0 0 500 500" enable-background="new 0 0 500 500" xml:space="preserve">
<path fill="#999999" d="M107.1,392.9c0,14.9-5.2,27.5-15.6,37.9c-10.4,10.4-23.1,15.6-37.9,15.6s-27.5-5.2-37.9-15.6
	C5.2,420.4,0,407.7,0,392.9c0-14.9,5.2-27.5,15.6-37.9c10.4-10.4,23.1-15.6,37.9-15.6s27.5,5.2,37.9,15.6
	C101.9,365.3,107.1,378,107.1,392.9z M107.1,250c0,14.9-5.2,27.5-15.6,37.9c-10.4,10.4-23.1,15.6-37.9,15.6s-27.5-5.2-37.9-15.6
	C5.2,277.5,0,264.9,0,250s5.2-27.5,15.6-37.9s23.1-15.6,37.9-15.6s27.5,5.2,37.9,15.6S107.1,235.1,107.1,250z M500,366.1v53.6
	c0,2.4-0.9,4.5-2.7,6.3c-1.8,1.8-3.9,2.7-6.3,2.7H151.8c-2.4,0-4.5-0.9-6.3-2.7c-1.8-1.8-2.7-3.9-2.7-6.3v-53.6
	c0-2.4,0.9-4.5,2.7-6.3s3.9-2.7,6.3-2.7h339.3c2.4,0,4.5,0.9,6.3,2.7S500,363.7,500,366.1z M107.1,107.1c0,14.9-5.2,27.5-15.6,37.9
	c-10.4,10.4-23.1,15.6-37.9,15.6s-27.5-5.2-37.9-15.6C5.2,134.7,0,122,0,107.1s5.2-27.5,15.6-37.9s23.1-15.6,37.9-15.6
	s27.5,5.2,37.9,15.6S107.1,92.3,107.1,107.1z M500,223.2v53.6c0,2.4-0.9,4.5-2.7,6.3c-1.8,1.8-3.9,2.7-6.3,2.7H151.8
	c-2.4,0-4.5-0.9-6.3-2.7c-1.8-1.8-2.7-3.9-2.7-6.3v-53.6c0-2.4,0.9-4.5,2.7-6.3s3.9-2.7,6.3-2.7h339.3c2.4,0,4.5,0.9,6.3,2.7
	S500,220.8,500,223.2z M500,80.4v53.6c0,2.4-0.9,4.5-2.7,6.3c-1.8,1.8-3.9,2.7-6.3,2.7H151.8c-2.4,0-4.5-0.9-6.3-2.7
	c-1.8-1.8-2.7-3.9-2.7-6.3V80.4c0-2.4,0.9-4.5,2.7-6.3c1.8-1.8,3.9-2.7,6.3-2.7h339.3c2.4,0,4.5,0.9,6.3,2.7
	C499.1,75.8,500,77.9,500,80.4z"/>
</svg>
