<?xml version="1.0" encoding="utf-8"?>
<!-- Generator: Adobe Illustrator 18.0.0, SVG Export Plug-In . SVG Version: 6.00 Build 0)  -->
<!DOCTYPE svg PUBLIC "-//W3C//DTD SVG 1.1//EN" "http://www.w3.org/Graphics/SVG/1.1/DTD/svg11.dtd">
<svg version="1.1" id="图层_1" xmlns="http://www.w3.org/2000/svg" xmlns:xlink="http://www.w3.org/1999/xlink" x="0px" y="0px"
	 viewBox="0 0 500 500" enable-background="new 0 0 500 500" xml:space="preserve">
<path fill="#999999" d="M103.5,451.8c0,15-5.1,26.7-15.3,35.3S65.3,500,50.2,500c-19.8,0-35.9-6.2-48.2-18.5l16-24.7
	c9.2,8.4,19.1,12.6,29.7,12.6c5.4,0,10.1-1.4,14.2-4.1c4-2.7,6-6.7,6-11.9c0-12-9.8-17.2-29.4-15.7L31.1,422
	c1.5-1.9,4.5-5.9,9.1-12.2c4.6-6.3,8.6-11.3,11.9-15.1c3.4-3.8,6.8-7.4,10.4-10.8v-0.3c-3,0-7.5,0.1-13.6,0.3s-10.6,0.3-13.6,0.3
	V399H5.6v-42.6H99v24.7l-26.6,32.2c9.5,2.2,17.1,6.8,22.7,13.7C100.7,434,103.5,442.2,103.5,451.8z M104,275.9v44.6H2.5
	c-1.1-6.7-1.7-11.8-1.7-15.1c0-9.5,2.2-18.2,6.6-26.1s9.7-14.2,15.8-19.1s12.3-9.3,18.5-13.3s11.5-8.1,15.8-12.2
	c4.4-4.1,6.6-8.3,6.6-12.6c0-4.7-1.4-8.3-4.1-10.8c-2.7-2.5-6.4-3.8-11.1-3.8c-8.6,0-16.2,5.4-22.7,16.3L2.5,207.2
	c4.5-9.5,11.2-17,20.1-22.3c8.9-5.3,18.7-8,29.6-8c13.6,0,25.1,3.9,34.5,11.6s14,18.3,14,31.5c0,9.3-3.2,17.9-9.5,25.7
	c-6.4,7.8-13.4,13.8-21,18.1s-14.7,9-21.2,14.2s-9.8,10-10,14.7h35.6v-16.8H104z M499.2,365.4v53.8c0,2.4-0.9,4.5-2.7,6.3
	c-1.8,1.8-3.9,2.7-6.3,2.7h-341c-2.4,0-4.5-0.9-6.3-2.7c-1.8-1.8-2.7-3.9-2.7-6.3v-53.8c0-2.6,0.8-4.8,2.5-6.4
	c1.7-1.7,3.8-2.5,6.4-2.5h341c2.4,0,4.5,0.9,6.3,2.7C498.3,360.9,499.2,363,499.2,365.4z M104.3,113.3v27.8H10.4v-27.8h30
	c0-7.7,0-19.1,0.1-34.2c0.1-15.1,0.1-26.5,0.1-33.9v-3.4h-0.6c-1.5,3.2-6.2,8.2-14,15.1L6.2,35.6L44.3,0H74v113.3H104.3z
	 M499.2,221.8v53.8c0,2.4-0.9,4.5-2.7,6.3c-1.8,1.8-3.9,2.7-6.3,2.7h-341c-2.4,0-4.5-0.9-6.3-2.7c-1.8-1.8-2.7-3.9-2.7-6.3v-53.8
	c0-2.6,0.8-4.8,2.5-6.4c1.7-1.7,3.8-2.5,6.4-2.5h341c2.4,0,4.5,0.9,6.3,2.7C498.3,217.3,499.2,219.4,499.2,221.8z M499.2,78.2v53.8
	c0,2.4-0.9,4.5-2.7,6.3c-1.8,1.8-3.9,2.7-6.3,2.7h-341c-2.4,0-4.5-0.9-6.3-2.7c-1.8-1.8-2.7-3.9-2.7-6.3V78.2c0-2.4,0.9-4.5,2.7-6.3
	c1.8-1.8,3.9-2.7,6.3-2.7h341c2.4,0,4.5,0.9,6.3,2.7C498.3,73.7,499.2,75.8,499.2,78.2z"/>
</svg>
