<?xml version="1.0" encoding="utf-8"?>
<!-- Generator: Adobe Illustrator 18.0.0, SVG Export Plug-In . SVG Version: 6.00 Build 0)  -->
<!DOCTYPE svg PUBLIC "-//W3C//DTD SVG 1.1//EN" "http://www.w3.org/Graphics/SVG/1.1/DTD/svg11.dtd">
<svg version="1.1" id="图层_1" xmlns="http://www.w3.org/2000/svg" xmlns:xlink="http://www.w3.org/1999/xlink" x="0px" y="0px"
	 viewBox="0 0 500 500" enable-background="new 0 0 500 500" xml:space="preserve">
<path fill="#999999" d="M479.1,410c0,25.5-8.6,46.9-25.9,64.1C436,491.4,414.6,500,389.1,500c-29.5,0-55.1-10.9-76.9-32.7
	L57.9,213.4c-24.7-25.1-37-54.6-37-88.7c0-34.7,12-64.1,36-88.4S110.3,0,145,0c34.5,0,64.2,12.3,89.3,37l198,198.3
	c2.2,2.2,3.3,4.6,3.3,7.2c0,3.5-3.3,8.6-10,15.2s-11.7,10-15.2,10c-2.8,0-5.3-1.1-7.5-3.3L204.5,65.8c-17.2-16.8-37-25.2-59.2-25.2
	c-23.1,0-42.6,8.2-58.6,24.5s-23.9,36.1-23.9,59.2c0,22.9,8.3,42.6,24.9,59.2l253.9,254.3c13.7,13.7,29.6,20.6,47.4,20.6
	c14,0,25.5-4.6,34.7-13.7c9.2-9.2,13.7-20.7,13.7-34.7c0-17.9-6.9-33.7-20.6-47.4L226.8,172.4c-5.7-5.2-12.2-7.9-19.6-7.9
	c-6.3,0-11.6,2.1-15.7,6.2c-4.1,4.1-6.2,9.4-6.2,15.7c0,7,2.7,13.4,8.2,19.3L327.6,340c2.2,2.2,3.3,4.6,3.3,7.2
	c0,3.5-3.4,8.6-10.1,15.4c-6.8,6.8-11.9,10.1-15.4,10.1c-2.6,0-5-1.1-7.2-3.3L163.9,235.3c-13.7-13.3-20.6-29.6-20.6-48.8
	c0-17.9,6.2-33,18.7-45.5s27.6-18.7,45.5-18.7c19.2,0,35.4,6.9,48.8,20.6l190.1,190.1C468.2,354.5,479.1,380.1,479.1,410z"/>
</svg>
