<?xml version="1.0" encoding="utf-8"?>
<!-- Generator: Adobe Illustrator 18.0.0, SVG Export Plug-In . SVG Version: 6.00 Build 0)  -->
<!DOCTYPE svg PUBLIC "-//W3C//DTD SVG 1.1//EN" "http://www.w3.org/Graphics/SVG/1.1/DTD/svg11.dtd">
<svg version="1.1" id="图层_1" xmlns="http://www.w3.org/2000/svg" xmlns:xlink="http://www.w3.org/1999/xlink" x="0px" y="0px"
	 viewBox="0 0 500 500" enable-background="new 0 0 500 500" xml:space="preserve">
<path fill="#999999" d="M291.7,422.2v54.6h-81.1l-52-82.4l-7.8-13.7c-1.7-2-2.9-4.3-3.6-6.9h-1l-2.9,6.9c-2.2,4.4-4.9,9.2-8.2,14.4
	l-50.7,81.8H0v-54.6h41.9l64.4-95.2l-60.5-88.9H1v-54.9h90.3l45.5,74.6c0.4,0.9,2.9,5.5,7.5,13.7c1.7,2,2.9,4.3,3.6,6.9h1
	c0.7-2,1.9-4.3,3.6-6.9l8.2-13.7l45.8-74.6h84v54.9h-40.9l-60.2,87.3l66.7,96.8H291.7z M500,200.1v67.4H331.9l-1-8.8
	c-0.9-6.1-1.3-11.1-1.3-15c0-14,2.8-26.7,8.5-38.3c5.7-11.6,12.8-21,21.3-28.3s17.7-14.4,27.5-21.3s19-12.8,27.5-17.8
	s15.6-10.9,21.3-17.7c5.7-6.8,8.5-13.7,8.5-20.9c0-8.3-3.2-15.1-9.6-20.4c-6.4-5.3-14.1-8-23.1-8c-11.1,0-21.7,4.3-31.7,12.8
	c-3.1,2.4-7,6.5-11.8,12.4l-34.3-30.1c5.7-8.1,12.5-15.3,20.6-21.6c18.1-14.2,38.6-21.3,61.5-21.3c24,0,43.4,6.5,58.2,19.5
	s22.2,30.2,22.2,51.8c0,12.2-2.7,23.4-8,33.7c-5.3,10.2-12.1,18.6-20.3,25c-8.2,6.4-17.1,12.8-26.7,19.1
	c-9.6,6.3-18.5,11.8-26.8,16.5s-15.4,10.3-21.4,16.8c-6,6.5-9.3,13.4-10,20.6h75.9v-26.2H500z"/>
</svg>
