<?xml version="1.0" encoding="utf-8"?>
<!-- Generator: Adobe Illustrator 18.0.0, SVG Export Plug-In . SVG Version: 6.00 Build 0)  -->
<!DOCTYPE svg PUBLIC "-//W3C//DTD SVG 1.1//EN" "http://www.w3.org/Graphics/SVG/1.1/DTD/svg11.dtd">
<svg version="1.1" id="图层_1" xmlns="http://www.w3.org/2000/svg" xmlns:xlink="http://www.w3.org/1999/xlink" x="0px" y="0px"
	 viewBox="0 0 500 500" enable-background="new 0 0 500 500" xml:space="preserve">
<path fill="#999999" d="M291.3,300.3v54.5h-81l-51.9-82.3l-7.8-13.7c-1.7-2-2.9-4.2-3.6-6.9h-1l-2.9,6.9c-2.2,4.4-4.9,9.1-8.2,14.4
	l-50.6,81.6H0v-54.5h41.8l64.3-95l-60.4-88.8H1V61.6h90.1l45.4,74.5c0.4,0.9,2.9,5.4,7.5,13.7c1.7,2,2.9,4.2,3.6,6.9h1
	c0.7-2,1.9-4.2,3.6-6.9l8.2-13.7l45.7-74.5H290v54.9h-40.8l-60.1,87.2l66.6,96.7H291.3z M500,371.2v67.3H332.1l-1.3-8.8
	c-0.7-9.8-1-14.8-1-15c0-13.9,2.8-26.7,8.5-38.2c5.7-11.5,12.7-21,21.2-28.2c8.5-7.3,17.6-14.4,27.4-21.2
	c9.8-6.9,18.9-12.8,27.4-17.8s15.6-10.9,21.2-17.6s8.5-13.7,8.5-20.9c0-8.3-3.2-15.1-9.6-20.4c-6.4-5.3-14.1-8-23-8
	c-11.1,0-21.7,4.2-31.7,12.7c-3,2.4-7,6.5-11.8,12.4l-34.3-30c5.7-8.1,12.5-15.2,20.6-21.6c17.4-14.2,37.9-21.2,61.4-21.2
	c23.9,0,43.3,6.5,58.1,19.4s22.2,30.2,22.2,51.8c0,14.4-3.8,27.3-11.3,38.7c-7.5,11.4-16.7,20.8-27.4,28.1
	c-10.8,7.3-21.6,14.1-32.5,20.4c-10.9,6.3-20.4,13.2-28.4,20.6s-12.5,15.3-13.4,23.8h75.8v-26.1H500z"/>
</svg>
