<?xml version="1.0" encoding="utf-8"?>
<!-- Generator: Adobe Illustrator 18.0.0, SVG Export Plug-In . SVG Version: 6.00 Build 0)  -->
<!DOCTYPE svg PUBLIC "-//W3C//DTD SVG 1.1//EN" "http://www.w3.org/Graphics/SVG/1.1/DTD/svg11.dtd">
<svg version="1.1" id="图层_1" xmlns="http://www.w3.org/2000/svg" xmlns:xlink="http://www.w3.org/1999/xlink" x="0px" y="0px"
	 viewBox="0 0 500 500" enable-background="new 0 0 500 500" xml:space="preserve">
<path fill="#999999" d="M441.2,367.6c0-8.2-2.9-15.1-8.6-20.8l-63.7-63.7c-5.7-5.7-12.7-8.6-20.8-8.6c-8.6,0-15.9,3.3-22.1,9.8
	c0.6,0.6,2.6,2.5,5.8,5.7c3.3,3.2,5.5,5.4,6.6,6.6s2.7,3.2,4.6,5.8s3.3,5.3,4,7.8s1.1,5.4,1.1,8.4c0,8.2-2.9,15.1-8.6,20.8
	s-12.7,8.6-20.8,8.6c-3.1,0-5.9-0.4-8.4-1.1c-2.6-0.7-5.2-2-7.8-4s-4.6-3.5-5.8-4.6s-3.4-3.3-6.6-6.6c-3.2-3.3-5.1-5.2-5.7-5.8
	c-6.7,6.3-10.1,13.8-10.1,22.4c0,8.2,2.9,15.1,8.6,20.8l63.1,63.4c5.5,5.5,12.5,8.3,20.8,8.3c8.2,0,15.1-2.7,20.8-8l45-44.7
	C438.3,382.5,441.2,375.6,441.2,367.6z M225.8,151.7c0-8.2-2.9-15.1-8.6-20.8l-63.1-63.4c-5.7-5.7-12.7-8.6-20.8-8.6
	c-8,0-14.9,2.8-20.8,8.3l-45,44.7c-5.7,5.7-8.6,12.6-8.6,20.5c0,8.2,2.9,15.1,8.6,20.8l63.7,63.7c5.5,5.5,12.5,8.3,20.8,8.3
	c8.6,0,15.9-3.2,22.1-9.5c-0.6-0.6-2.6-2.5-5.8-5.7c-3.3-3.2-5.5-5.4-6.6-6.6c-1.1-1.2-2.7-3.2-4.6-5.8c-1.9-2.7-3.3-5.3-4-7.8
	c-0.7-2.6-1.1-5.4-1.1-8.4c0-8.2,2.9-15.1,8.6-20.8s12.7-8.6,20.8-8.6c3.1,0,5.9,0.4,8.4,1.1c2.6,0.7,5.2,2,7.8,4
	c2.7,1.9,4.6,3.5,5.8,4.6c1.2,1.1,3.4,3.3,6.6,6.6c3.2,3.3,5.1,5.2,5.7,5.8C222.4,167.7,225.8,160.2,225.8,151.7z M500,367.6
	c0,24.5-8.7,45.2-26,62.2l-45,44.7c-17,17-37.7,25.4-62.2,25.4c-24.7,0-45.5-8.7-62.5-26l-63.1-63.4c-17-17-25.4-37.7-25.4-62.2
	c0-25.1,9-46.5,27-64l-27-27c-17.6,18-38.8,27-63.7,27c-24.5,0-45.3-8.6-62.5-25.7l-63.7-63.7C8.6,177.7,0,156.9,0,132.4
	s8.7-45.2,26-62.2l45-44.7C88,8.5,108.8,0,133.3,0c24.7,0,45.5,8.7,62.5,26l63.1,63.4c17,17,25.4,37.7,25.4,62.2
	c0,25.1-9,46.5-27,64l27,27c17.6-18,38.8-27,63.7-27c24.5,0,45.3,8.6,62.5,25.7l63.7,63.7C491.4,322.3,500,343.1,500,367.6z"/>
</svg>
