<?xml version="1.0" encoding="utf-8"?>
<!-- Generator: Adobe Illustrator 18.0.0, SVG Export Plug-In . SVG Version: 6.00 Build 0)  -->
<!DOCTYPE svg PUBLIC "-//W3C//DTD SVG 1.1//EN" "http://www.w3.org/Graphics/SVG/1.1/DTD/svg11.dtd">
<svg version="1.1" id="图层_1" xmlns="http://www.w3.org/2000/svg" xmlns:xlink="http://www.w3.org/1999/xlink" x="0px" y="0px"
	 viewBox="0 0 500 500" enable-background="new 0 0 500 500" xml:space="preserve">
<path fill="#999999" d="M131.9,381.9L55,458.8c-2,1.8-4.3,2.7-6.9,2.7c-2.4,0-4.7-0.9-6.9-2.7c-1.8-2-2.7-4.3-2.7-6.9
	s0.9-4.9,2.7-6.9l76.9-76.9c2-1.8,4.3-2.7,6.9-2.7s4.9,0.9,6.9,2.7c1.8,2,2.7,4.3,2.7,6.9S133.7,379.9,131.9,381.9z M182.7,394.2
	v96.2c0,2.8-0.9,5.1-2.7,6.9s-4.1,2.7-6.9,2.7c-2.8,0-5.1-0.9-6.9-2.7s-2.7-4.1-2.7-6.9v-96.2c0-2.8,0.9-5.1,2.7-6.9
	s4.1-2.7,6.9-2.7c2.8,0,5.1,0.9,6.9,2.7S182.7,391.4,182.7,394.2z M115.4,326.9c0,2.8-0.9,5.1-2.7,6.9c-1.8,1.8-4.1,2.7-6.9,2.7H9.6
	c-2.8,0-5.1-0.9-6.9-2.7S0,329.7,0,326.9c0-2.8,0.9-5.1,2.7-6.9s4.1-2.7,6.9-2.7h96.2c2.8,0,5.1,0.9,6.9,2.7
	C114.5,321.8,115.4,324.1,115.4,326.9z M495.2,365.4c0,24-8.5,44.4-25.5,61l-44.2,43.9c-16.6,16.6-37,24.9-61,24.9
	c-24.2,0-44.7-8.5-61.3-25.5L202.8,369c-4.2-4.2-8.4-9.8-12.6-16.8l71.8-5.4l82,82.3c5.4,5.4,12.2,8.2,20.4,8.3
	c8.2,0.1,15-2.6,20.4-8l44.2-43.9c5.6-5.6,8.4-12.3,8.4-20.1c0-8-2.8-14.8-8.4-20.4l-82.3-82.6l5.4-71.8c7,4.2,12.6,8.4,16.8,12.6
	l101,101C486.8,321.3,495.2,341.7,495.2,365.4z M309.8,147.8l-71.8,5.4l-82-82.3c-5.6-5.6-12.4-8.4-20.4-8.4
	c-7.8,0-14.6,2.7-20.4,8.1l-44.2,43.9c-5.6,5.6-8.4,12.3-8.4,20.1c0,8,2.8,14.8,8.4,20.4l82.3,82.3l-5.4,72.1
	c-7-4.2-12.6-8.4-16.8-12.6l-101-101c-16.8-17.2-25.2-37.7-25.2-61.3c0-24,8.5-44.4,25.5-61l44.2-43.9c16.6-16.6,37-24.9,61-24.9
	c24.2,0,44.7,8.5,61.3,25.5L297.2,131C301.4,135.2,305.6,140.8,309.8,147.8z M500,173.1c0,2.8-0.9,5.1-2.7,6.9s-4.1,2.7-6.9,2.7
	h-96.2c-2.8,0-5.1-0.9-6.9-2.7s-2.7-4.1-2.7-6.9c0-2.8,0.9-5.1,2.7-6.9s4.1-2.7,6.9-2.7h96.2c2.8,0,5.1,0.9,6.9,2.7
	S500,170.3,500,173.1z M336.5,9.6v96.2c0,2.8-0.9,5.1-2.7,6.9c-1.8,1.8-4.1,2.7-6.9,2.7c-2.8,0-5.1-0.9-6.9-2.7
	c-1.8-1.8-2.7-4.1-2.7-6.9V9.6c0-2.8,0.9-5.1,2.7-6.9s4.1-2.7,6.9-2.7c2.8,0,5.1,0.9,6.9,2.7S336.5,6.8,336.5,9.6z M458.8,55
	l-76.9,76.9c-2.2,1.8-4.5,2.7-6.9,2.7s-4.7-0.9-6.9-2.7c-1.8-2-2.7-4.3-2.7-6.9s0.9-4.9,2.7-6.9L445,41.2c2-1.8,4.3-2.7,6.9-2.7
	s4.9,0.9,6.9,2.7c1.8,2,2.7,4.3,2.7,6.9S460.6,53,458.8,55z"/>
</svg>
