<?xml version="1.0" encoding="utf-8"?>
<!-- Generator: Adobe Illustrator 18.0.0, SVG Export Plug-In . SVG Version: 6.00 Build 0)  -->
<!DOCTYPE svg PUBLIC "-//W3C//DTD SVG 1.1//EN" "http://www.w3.org/Graphics/SVG/1.1/DTD/svg11.dtd">
<svg version="1.1" id="图层_1" xmlns="http://www.w3.org/2000/svg" xmlns:xlink="http://www.w3.org/1999/xlink" x="0px" y="0px"
	 viewBox="0 0 500 500" enable-background="new 0 0 500 500" xml:space="preserve">
<path fill="#999999" d="M48.1,442.3h182.7V96.2H38.5v336.5c0,2.6,1,4.9,2.9,6.8C43.2,441.4,45.5,442.3,48.1,442.3z M461.5,432.7
	V96.2H269.2v346.2h182.7c2.6,0,4.9-1,6.8-2.9C460.6,437.6,461.5,435.3,461.5,432.7z M500,67.3v365.4c0,13.2-4.7,24.5-14.1,34
	s-20.7,14.1-34,14.1H48.1c-13.2,0-24.5-4.7-34-14.1S0,445.9,0,432.7V67.3c0-13.2,4.7-24.5,14.1-34s20.7-14.1,34-14.1h403.8
	c13.2,0,24.5,4.7,34,14.1S500,54.1,500,67.3z"/>
</svg>
