<?xml version="1.0" encoding="utf-8"?>
<!-- Generator: Adobe Illustrator 18.0.0, SVG Export Plug-In . SVG Version: 6.00 Build 0)  -->
<!DOCTYPE svg PUBLIC "-//W3C//DTD SVG 1.1//EN" "http://www.w3.org/Graphics/SVG/1.1/DTD/svg11.dtd">
<svg version="1.1" id="图层_1" xmlns="http://www.w3.org/2000/svg" xmlns:xlink="http://www.w3.org/1999/xlink" x="0px" y="0px"
	 viewBox="0 0 500 500" enable-background="new 0 0 500 500" xml:space="preserve">
<path fill="#999999" d="M491.1,250c2.6,0,4.7,0.8,6.4,2.5c1.7,1.7,2.5,3.8,2.5,6.4v17.9c0,2.6-0.8,4.7-2.5,6.4s-3.8,2.5-6.4,2.5H8.9
	c-2.6,0-4.7-0.8-6.4-2.5S0,279.4,0,276.8v-17.9c0-2.6,0.8-4.7,2.5-6.4c1.7-1.7,3.8-2.5,6.4-2.5H491.1z M134.8,232.1
	c-5.2-6.5-10-14-14.2-22.3c-8.9-18-13.4-35.5-13.4-52.5c0-33.7,12.5-62.4,37.4-86.2c24.7-23.6,61.3-35.4,109.7-35.4
	c9.3,0,24.8,1.8,46.6,5.3c12.3,2.2,28.7,6.7,49.4,13.4c1.9,7.1,3.8,18,5.9,32.9c2.6,22.9,3.9,39.9,3.9,51.1c0,3.3-0.5,7.5-1.4,12.6
	l-3.3,0.8l-23.4-1.7l-3.9-0.6c-9.3-27.7-18.9-46.8-28.7-57.2C282.7,75.4,263.2,67,240.5,67c-21.2,0-38.1,5.5-50.8,16.5
	c-12.5,10.8-18.7,24.4-18.7,40.7c0,13.6,6.1,26.6,18.4,39.1s38.2,24.5,77.8,36c12.8,3.7,28.9,9.9,48.3,18.4
	c10.8,5.2,19.6,10,26.5,14.5H134.8z M276.2,303.6h114.7c1.3,7.3,2,15.8,2,25.7c0,20.6-3.8,40.4-11.4,59.2
	c-4.3,10.2-10.9,19.9-19.8,29c-6.9,6.5-17,14-30.4,22.6c-14.9,8.9-29.1,15.1-42.7,18.4c-14.9,3.9-33.8,5.9-56.6,5.9
	c-21.2,0-39.3-2.1-54.4-6.4l-39.1-11.2c-10.6-3-17.3-5.6-20.1-7.8c-1.5-1.5-2.2-3.5-2.2-6.1v-3.6c0-20.1-0.2-34.6-0.6-43.5
	c-0.2-5.6-0.2-11.9,0-19l0.6-10.3V344l28.5-0.6c2.8,6.3,5.6,12.9,8.4,19.8c2.8,6.9,4.9,12.1,6.3,15.6s2.6,6,3.5,7.5
	c6.5,10.6,14,19.3,22.3,26.2c8,6.7,17.8,12,29.3,15.9c11,4.1,23.3,6.1,36.8,6.1c11.9,0,24.8-2.5,38.8-7.5c14.3-4.8,25.7-12.8,34-24
	c8.7-11.3,13.1-23.3,13.1-36c0-15.6-7.5-30.2-22.6-43.8C308.1,318,295.4,311.4,276.2,303.6z"/>
</svg>
