<?xml version="1.0" encoding="utf-8"?>
<!-- Generator: Adobe Illustrator 18.0.0, SVG Export Plug-In . SVG Version: 6.00 Build 0)  -->
<!DOCTYPE svg PUBLIC "-//W3C//DTD SVG 1.1//EN" "http://www.w3.org/Graphics/SVG/1.1/DTD/svg11.dtd">
<svg version="1.1" id="图层_1" xmlns="http://www.w3.org/2000/svg" xmlns:xlink="http://www.w3.org/1999/xlink" x="0px" y="0px"
	 viewBox="0 0 500 500" enable-background="new 0 0 500 500" xml:space="preserve">
<path fill="#999999" d="M500,250c0,33.9-6.6,66.2-19.9,97c-13.2,30.8-31,57.4-53.4,79.8s-48.9,40.1-79.8,53.4
	c-30.8,13.2-63.2,19.9-97,19.9c-37.3,0-72.8-7.9-106.4-23.6s-62.3-37.9-85.9-66.6c-1.5-2.2-2.2-4.6-2.1-7.3c0.1-2.7,1-4.9,2.8-6.7
	l44.6-44.9c2.2-2,4.9-2.9,8.1-2.9c3.5,0.4,6,1.7,7.5,3.9c15.8,20.6,35.3,36.6,58.3,47.9c23,11.3,47.4,16.9,73.2,16.9
	c22.6,0,44.1-4.4,64.6-13.2s38.2-20.7,53.2-35.6c15-15,26.9-32.7,35.6-53.2s13.2-42,13.2-64.6s-4.4-44.1-13.2-64.6
	s-20.7-38.2-35.6-53.2c-15-15-32.7-26.9-53.2-35.6s-42-13.2-64.6-13.2c-21.3,0-41.7,3.9-61.2,11.6s-36.9,18.7-52.1,33l44.6,44.9
	c6.7,6.5,8.2,14,4.6,22.5c-3.7,8.7-10.1,13-19.2,13H20.8c-5.6,0-10.5-2.1-14.6-6.2s-6.2-9-6.2-14.6V41.7c0-9.1,4.3-15.5,13-19.2
	c8.5-3.7,16-2.2,22.5,4.6l42.3,42c23.2-21.9,49.8-38.9,79.6-50.9S218.1,0,250,0c33.9,0,66.2,6.6,97,19.9s57.4,31,79.8,53.4
	s40.1,48.9,53.4,79.8C493.4,183.8,500,216.1,500,250z"/>
</svg>
