<?xml version="1.0" encoding="utf-8"?>
<!-- Generator: Adobe Illustrator 18.0.0, SVG Export Plug-In . SVG Version: 6.00 Build 0)  -->
<!DOCTYPE svg PUBLIC "-//W3C//DTD SVG 1.1//EN" "http://www.w3.org/Graphics/SVG/1.1/DTD/svg11.dtd">
<svg version="1.1" id="图层_1" xmlns="http://www.w3.org/2000/svg" xmlns:xlink="http://www.w3.org/1999/xlink" x="0px" y="0px"
	 viewBox="0 0 500 500" enable-background="new 0 0 500 500" xml:space="preserve">
<path fill="#999999" d="M500,41.7v145.8c0,5.6-2.1,10.5-6.2,14.6c-4.1,4.1-9,6.2-14.6,6.2H333.3c-9.1,0-15.5-4.3-19.2-13
	c-3.7-8.5-2.2-16,4.6-22.5l44.9-44.9c-32.1-29.7-70-44.6-113.6-44.6c-22.6,0-44.1,4.4-64.6,13.2s-38.2,20.7-53.2,35.6
	c-15,15-26.9,32.7-35.6,53.2s-13.2,42-13.2,64.6s4.4,44.1,13.2,64.6s20.7,38.2,35.6,53.2c15,15,32.7,26.9,53.2,35.6
	s42,13.2,64.6,13.2c25.8,0,50.2-5.6,73.2-16.9c23-11.3,42.4-27.2,58.3-47.9c1.5-2.2,4-3.5,7.5-3.9c3,0,5.8,1,8.1,2.9l44.6,44.9
	c2,1.7,3,4,3.1,6.7c0.1,2.7-0.7,5.2-2.4,7.3c-23.7,28.6-52.3,50.8-85.9,66.6S287.3,500,250,500c-33.9,0-66.2-6.6-97-19.9
	c-30.8-13.2-57.4-31-79.8-53.4S33.1,377.8,19.9,347S0,283.9,0,250s6.6-66.2,19.9-97s31-57.4,53.4-79.8s48.9-40.1,79.8-53.4
	S216.1,0,250,0c31.9,0,62.8,6,92.6,18.1c29.8,12,56.4,29,79.6,50.9l42.3-42c6.3-6.7,13.9-8.2,22.8-4.6C495.8,26.2,500,32.6,500,41.7
	z"/>
</svg>
