<?xml version="1.0" encoding="utf-8"?>
<!-- Generator: Adobe Illustrator 18.0.0, SVG Export Plug-In . SVG Version: 6.00 Build 0)  -->
<!DOCTYPE svg PUBLIC "-//W3C//DTD SVG 1.1//EN" "http://www.w3.org/Graphics/SVG/1.1/DTD/svg11.dtd">
<svg version="1.1" id="图层_1" xmlns="http://www.w3.org/2000/svg" xmlns:xlink="http://www.w3.org/1999/xlink" x="0px" y="0px"
	 viewBox="0 0 500 500" enable-background="new 0 0 500 500" xml:space="preserve">
<path fill="#999999" d="M267.8,232.1c4.8,0,9,1.8,12.6,5.3s5.3,7.7,5.3,12.6s-1.8,9-5.3,12.6c-3.5,3.5-7.7,5.3-12.6,5.3
	c-4.8,0-9-1.8-12.6-5.3c-3.5-3.5-5.3-7.7-5.3-12.6s1.8-9,5.3-12.6S263,232.1,267.8,232.1z M351.5,250l141.4,111
	c5.2,3.7,7.5,8.9,7,15.6c-0.9,6.5-4.2,11.3-9.8,14.2l-35.7,17.9c-2.4,1.3-5.1,2-8.1,2c-3.2,0-6-0.7-8.6-2.2l-192.5-108l-30.7,18.4
	c-1.5,0.7-2.6,1.2-3.3,1.4c2.6,9.1,3.5,18.1,2.8,27.1c-1.3,14.3-6.5,28-15.6,41.1s-21.4,24.6-36.8,34.4
	c-24.5,15.6-50.3,23.4-77.3,23.4c-25.3,0-45.9-7.3-61.9-21.8C5.6,409-1.7,389.7,0.3,366.9c1.3-14.1,6.5-27.8,15.6-41
	c9.1-13.2,21.3-24.7,36.5-34.6c24.5-15.6,50.4-23.4,77.5-23.4c15.4,0,29.5,2.9,42.1,8.6c1.7-2.4,3.7-4.5,6.1-6.1l34-20.4l-34-20.4
	c-2.4-1.7-4.5-3.7-6.1-6.1c-12.6,5.8-26.7,8.6-42.1,8.6c-27.2,0-53-7.8-77.5-23.4c-15.2-9.9-27.4-21.4-36.5-34.6
	c-9.1-13.2-14.3-26.9-15.6-41c-0.9-11,0.5-21.5,4.3-31.5s9.7-18.7,17.7-25.9c15.8-14.7,36.4-22,61.9-22c27,0,52.7,7.8,77.3,23.4
	c15.4,9.7,27.7,21.1,36.8,34.3s14.3,27,15.6,41.3c0.7,8.9-0.2,17.9-2.8,27.1c0.7,0.2,1.9,0.7,3.3,1.4l30.7,18.4l192.5-108
	c2.6-1.5,5.5-2.2,8.6-2.2c3,0,5.7,0.7,8.1,2l35.7,17.9c5.6,3,8.8,7.7,9.8,14.2c0.6,6.7-1.8,11.9-7,15.6L351.5,250z M161.6,177.5
	c8.6-7.8,10.5-17.9,5.9-30.1c-4.6-12.3-14.5-23.2-29.6-32.6c-17.1-11-35-16.5-53.6-16.5c-13.8,0-24.3,3.3-31.5,10
	c-8.6,7.8-10.5,17.9-5.9,30.1s14.5,23.2,29.6,32.6c17.1,11,35,16.5,53.6,16.5C143.8,187.5,154.3,184.2,161.6,177.5z M137.9,385.3
	c15.1-9.5,24.9-20.4,29.6-32.6c4.6-12.3,2.7-22.3-5.9-30.1c-7.3-6.7-17.8-10-31.5-10c-18.6,0-36.4,5.5-53.6,16.5
	c-15.1,9.5-24.9,20.4-29.6,32.6c-4.6,12.3-2.7,22.3,5.9,30.1c7.3,6.7,17.8,10,31.5,10C102.9,401.7,120.7,396.3,137.9,385.3z
	 M187.5,214.3l26.8,16.2v-3.1c0-6.7,3.1-11.9,9.2-15.6l3.9-2.2l-22-13.1l-7.3,7.3c-0.6,0.6-1.5,1.6-2.8,3.1
	c-1.3,1.5-2.4,2.6-3.3,3.3c-0.4,0.4-0.7,0.7-1.1,1s-0.7,0.5-0.8,0.7L187.5,214.3z M250,276.8l26.8,8.9L482.1,125l-35.7-17.9
	L232.1,227.4v31.5l-44.6,26.8l2.5,2.2c0.4,0.4,1,0.9,2,1.7c0.7,0.7,1.8,1.9,3.1,3.3s2.3,2.6,3.1,3.3l7.3,7.3L250,276.8z
	 M446.4,392.8l35.7-17.9L337,261.2l-49.4,38.5c-0.4,0.6-1.6,1.2-3.6,2L446.4,392.8z"/>
</svg>
