<?xml version="1.0" encoding="utf-8"?>
<!-- Generator: Adobe Illustrator 18.0.0, SVG Export Plug-In . SVG Version: 6.00 Build 0)  -->
<!DOCTYPE svg PUBLIC "-//W3C//DTD SVG 1.1//EN" "http://www.w3.org/Graphics/SVG/1.1/DTD/svg11.dtd">
<svg version="1.1" id="图层_1" xmlns="http://www.w3.org/2000/svg" xmlns:xlink="http://www.w3.org/1999/xlink" x="0px" y="0px"
	 viewBox="0 0 500 500" enable-background="new 0 0 500 500" xml:space="preserve">
<path fill="#999999" d="M445.3,106c5.2,5.2,9.7,12.3,13.4,21.2c3.7,8.9,5.6,17.1,5.6,24.6v321.4c0,7.4-2.6,13.8-7.8,19
	c-5.2,5.2-11.5,7.8-19,7.8h-375c-7.4,0-13.8-2.6-19-7.8s-7.8-11.5-7.8-19V26.8c0-7.4,2.6-13.8,7.8-19S55.1,0,62.5,0h250
	c7.4,0,15.6,1.9,24.6,5.6c8.9,3.7,16,8.2,21.2,13.4L445.3,106z M321.4,37.9v104.9h104.9c-1.9-5.4-3.9-9.2-6.1-11.4l-87.3-87.3
	C330.6,41.9,326.8,39.8,321.4,37.9z M428.6,464.3V178.6H312.5c-7.4,0-13.8-2.6-19-7.8c-5.2-5.2-7.8-11.5-7.8-19V35.7H71.4v428.6
	H428.6z M151.8,399v29.6H243V399h-25.9v-46.6h38.2c14.1,0,25.1-1.4,32.9-4.2c12.5-4.3,22.4-12.4,29.7-24.3c7.3-11.9,11-25.5,11-40.7
	c0-15.1-3.4-28.2-10.3-39.3c-6.9-11.2-16.2-19.3-27.9-24.3c-8.9-3.5-21-5.3-36.3-5.3H151.8v29.9h25.7V399H151.8z M250.3,320.9h-33.2
	v-74.8h33.5c9.7,0,17.4,1.7,23.2,5c10.4,6.1,15.6,16.8,15.6,32.1c0,16.6-5.8,27.7-17.3,33.5C266.3,319.5,259,320.9,250.3,320.9z"/>
</svg>
