<?xml version="1.0" encoding="utf-8"?>
<!-- Generator: Adobe Illustrator 18.0.0, SVG Export Plug-In . SVG Version: 6.00 Build 0)  -->
<!DOCTYPE svg PUBLIC "-//W3C//DTD SVG 1.1//EN" "http://www.w3.org/Graphics/SVG/1.1/DTD/svg11.dtd">
<svg version="1.1" id="图层_1" xmlns="http://www.w3.org/2000/svg" xmlns:xlink="http://www.w3.org/1999/xlink" x="0px" y="0px"
	 viewBox="0 0 500 500" enable-background="new 0 0 500 500" xml:space="preserve">
<path fill="#999999" d="M125,458.3h250v-125H125V458.3z M416.7,458.3h41.7V166.7c0-3-1.1-7.2-3.3-12.5s-4.3-9.1-6.5-11.2l-91.5-91.5
	c-2.2-2.2-5.9-4.3-11.1-6.5c-5.2-2.2-9.4-3.3-12.7-3.3v135.4c0,8.7-3,16.1-9.1,22.1s-13.5,9.1-22.1,9.1H114.6
	c-8.7,0-16.1-3-22.1-9.1s-9.1-13.5-9.1-22.1V41.7H41.7v416.7h41.7V322.9c0-8.7,3-16.1,9.1-22.1s13.5-9.1,22.1-9.1h270.8
	c8.7,0,16.1,3,22.1,9.1c6.1,6.1,9.1,13.5,9.1,22.1V458.3z M291.7,156.3V52.1c0-2.8-1-5.3-3.1-7.3c-2.1-2.1-4.5-3.1-7.3-3.1h-62.5
	c-2.8,0-5.3,1-7.3,3.1c-2.1,2.1-3.1,4.5-3.1,7.3v104.2c0,2.8,1,5.3,3.1,7.3s4.5,3.1,7.3,3.1h62.5c2.8,0,5.3-1,7.3-3.1
	S291.7,159.1,291.7,156.3z M500,166.7v302.1c0,8.7-3,16.1-9.1,22.1c-6.1,6.1-13.5,9.1-22.1,9.1H31.3c-8.7,0-16.1-3-22.1-9.1
	C3,484.8,0,477.4,0,468.8V31.3c0-8.7,3-16.1,9.1-22.1S22.6,0,31.3,0h302.1c8.7,0,18.2,2.2,28.6,6.5c10.4,4.3,18.7,9.5,24.7,15.6
	l91.1,91.1c6.1,6.1,11.3,14.3,15.6,24.7C497.8,148.4,500,158,500,166.7z"/>
</svg>
