<?xml version="1.0" encoding="utf-8"?>
<!-- Generator: Adobe Illustrator 18.0.0, SVG Export Plug-In . SVG Version: 6.00 Build 0)  -->
<!DOCTYPE svg PUBLIC "-//W3C//DTD SVG 1.1//EN" "http://www.w3.org/Graphics/SVG/1.1/DTD/svg11.dtd">
<svg version="1.1" id="图层_1" xmlns="http://www.w3.org/2000/svg" xmlns:xlink="http://www.w3.org/1999/xlink" x="0px" y="0px"
	 viewBox="0 0 500 500" enable-background="new 0 0 500 500" xml:space="preserve">
<path fill="#999999" d="M15.6,30.9c-8-0.4-12.9-0.9-14.6-1.3L0,1c2.8-0.2,7.2-0.3,13-0.3c13,0,25.2,0.4,36.5,1.3
	c28.6,1.5,46.7,2.3,54,2.3c18.7,0,36.9-0.3,54.7-1c25.2-0.9,41-1.4,47.5-1.6c12.2,0,21.5-0.2,28-0.7l-0.3,4.6l0.7,20.8v2.9
	c-13,2-26.5,2.9-40.4,2.9c-13,0-21.6,2.7-25.7,8.1c-2.8,3-4.2,17.4-4.2,43c0,2.8,0.1,6.3,0.2,10.6c0.1,4.2,0.2,7,0.2,8.3l0.3,74.5
	l4.6,91.1c1.3,26.9,6.8,48.8,16.6,65.8c7.6,12.8,18,22.8,31.3,29.9c19.1,10.2,38.3,15.3,57.6,15.3c22.6,0,43.3-3,62.2-9.1
	c12.2-3.9,22.9-9.4,32.2-16.6c10.4-7.8,17.5-14.8,21.2-20.8c7.8-12.2,13.6-24.5,17.3-37.1c4.6-15.8,6.8-40.7,6.8-74.5
	c0-17.1-0.4-31-1.1-41.7c-0.8-10.6-2-23.9-3.6-39.9c-1.6-16-3.1-33.3-4.4-51.9L403.6,68c-1.1-14.5-3.7-24.1-7.8-28.6
	c-7.4-7.6-15.7-11.3-25.1-11.1L338.2,29l-4.6-1l0.7-28h27.3l66.7,3.3c16.5,0.7,37.8-0.4,63.8-3.3l5.9,0.7c1.3,8.2,2,13.8,2,16.6
	c0,1.5-0.4,4.9-1.3,10.1c-9.8,2.6-18.9,4-27.3,4.2c-15.8,2.4-24.4,4.2-25.7,5.5c-3.3,3.3-4.9,7.7-4.9,13.3c0,1.5,0.2,4.4,0.5,8.8
	c0.3,4.3,0.5,7.7,0.5,10.1c1.7,4.1,4.1,47.1,7.2,128.9c1.3,42.3-0.3,75.3-4.9,99c-3.3,16.5-7.7,29.7-13.3,39.7
	c-8.2,14.1-20.4,27.5-36.5,40c-16.3,12.4-36,22-59.2,29c-23.7,7.2-51.3,10.7-83,10.7c-36.2,0-67.1-5-92.4-15
	c-25.8-10.2-45.2-23.4-58.3-39.7c-13.2-16.5-22.2-37.7-27-63.5c-3.5-17.4-5.2-43.1-5.2-77.1V113c0-40.8-1.8-63.9-5.5-69.3
	C58.1,35.8,42.1,31.6,15.6,30.9z M500,489.6v-20.8c0-3-1-5.5-2.9-7.5s-4.4-2.9-7.5-2.9H10.4c-3,0-5.5,1-7.5,2.9S0,465.7,0,468.8
	v20.8c0,3,1,5.5,2.9,7.5s4.4,2.9,7.5,2.9h479.2c3,0,5.5-1,7.5-2.9S500,492.6,500,489.6z"/>
</svg>
