<?xml version="1.0" encoding="utf-8"?>
<!-- Generator: Adobe Illustrator 18.0.0, SVG Export Plug-In . SVG Version: 6.00 Build 0)  -->
<!DOCTYPE svg PUBLIC "-//W3C//DTD SVG 1.1//EN" "http://www.w3.org/Graphics/SVG/1.1/DTD/svg11.dtd">
<svg version="1.1" id="图层_1" xmlns="http://www.w3.org/2000/svg" xmlns:xlink="http://www.w3.org/1999/xlink" x="0px" y="0px"
	 viewBox="0 0 500 500" enable-background="new 0 0 500 500" xml:space="preserve">
<path fill="#999999" d="M43.2,0.3l16.3,8.1c2.4,1,23.6,1.5,63.5,1.5c8.8,0,22.1-0.2,39.7-0.6s30.9-0.6,39.7-0.6
	c14,0,38.8-0.1,74.2-0.3s66-0.3,91.7-0.2s50.5,0.6,74.4,1.4c6.6,0.2,12.2-2.9,16.9-9.3L472.2,0c0.8,0,2.2,0.1,4.2,0.2
	s3.4,0.2,4.2,0.2c0.4,22.5,0.6,56.2,0.6,101.1c0,16.1-0.5,27-1.5,32.8c-7.8,2.8-14.6,4.6-20.5,5.4c-5-8.8-10.4-21.7-16.3-38.5
	c-0.6-1.8-1.7-6.6-3.3-14.3c-1.6-7.7-3.1-15.1-4.5-22.1c-1.4-7-2.1-10.6-2.1-10.8c-2-2.6-4.7-4.5-8.1-5.7c-1-0.4-7.6-0.6-19.9-0.6
	c-6,0-15.4-0.1-28-0.3c-12.6-0.2-23-0.3-31-0.3s-17.5,0.2-28.3,0.6s-20.5,1.1-28.9,2.1c-1.8,16.3-2.6,29.9-2.4,40.9l0.3,45.8v-15.7
	c0,11,0.1,26.5,0.3,46.4s0.4,37.9,0.5,54.2s0.2,31.6,0.2,46.1c0,3.2-0.3,10.4-0.8,21.5s-0.5,20.3,0,27.5c0.5,7.2,1.8,14.1,3.8,20.8
	c8,4.2,20.5,8.5,37.3,12.8c16.9,4.3,28.9,8.1,36.1,11.3c1,8,1.5,13,1.5,15.1c0,2.8-0.3,5.7-0.9,8.7l-10.2,0.3
	c-15.3,0.4-37.1-0.4-65.6-2.4c-28.5-2-49.3-3-62.3-3c-10,0-25.2,0.9-45.5,2.7c-20.3,1.8-35.5,2.7-45.8,2.7
	c-0.6-10.2-0.9-15.5-0.9-15.7v-2.7c3.4-5.4,9.6-9.7,18.5-12.9c8.9-3.2,18.8-6.1,29.7-8.7c10.8-2.6,18.7-5.3,23.5-8.1
	c1.4-3.2,2.6-10.6,3.5-22.3c0.9-11.6,1.5-26.2,1.8-43.8s0.5-33.1,0.5-46.7c0-13.5-0.1-28.9-0.2-46.2s-0.2-26.2-0.2-26.8
	c0-1.4-0.3-3.6-0.8-6.5c-0.5-2.9-0.8-5.2-0.8-6.8c0-1.4,0.1-5.8,0.2-13.2c0.1-7.4,0.2-14.8,0.3-22c0.1-7.2,0.1-14.9,0-23
	c-0.1-8.1-0.4-14.9-0.9-20.3s-1.2-8.6-2-9.6c-2.2-2.4-18.5-3.6-48.8-3.6c-8.2,0-24.6,1.4-49.1,4.1c-24.5,2.7-38.3,5.2-41.5,7.4
	c-3.8,2.4-7.2,9.6-10.2,21.5s-6.2,23.1-9.5,33.6c-3.3,10.4-7.6,15.9-12.8,16.3c-8.4-5.2-14-9.6-16.9-13.2V0.6L43.2,0.3z
	 M413.2,386.2c2.4,0,6.6,2,12.6,5.9c6,3.9,11.8,8.1,17.3,12.5s11.5,9.3,17.9,14.8s10,8.4,10.8,9c5.2,4.2,7.8,9.1,7.8,14.8
	c0,5.6-2.6,10.5-7.8,14.8c-0.8,0.6-4.4,3.6-10.8,9s-12.4,10.3-17.9,14.8c-5.5,4.4-11.3,8.6-17.3,12.5c-6,3.9-10.2,5.9-12.6,5.9
	c-2.6,0-4.7-1.1-6.2-3.2c-1.5-2.1-2.5-5-3-8.6c-0.5-3.6-0.8-7-0.8-10.1c0-3.1,0.2-6.4,0.5-9.9c0.3-3.5,0.5-5.5,0.5-5.9H95.9
	c0,0.4,0.2,2.4,0.5,5.9c0.3,3.5,0.5,6.8,0.5,9.9c0,3.1-0.3,6.5-0.8,10.1c-0.5,3.6-1.5,6.5-3,8.6c-1.5,2.1-3.6,3.2-6.2,3.2
	c-2.4,0-6.6-2-12.6-5.9s-11.8-8.1-17.3-12.5c-5.5-4.4-11.5-9.3-17.9-14.8s-10-8.4-10.8-9c-5.2-4.2-7.8-9.1-7.8-14.8
	c0-5.6,2.6-10.5,7.8-14.8c0.8-0.6,4.4-3.6,10.8-9s12.4-10.3,17.9-14.8c5.5-4.4,11.3-8.6,17.3-12.5c6-3.9,10.2-5.9,12.6-5.9
	c2.6,0,4.7,1.1,6.2,3.2c1.5,2.1,2.5,5,3,8.6s0.8,7,0.8,10.1s-0.2,6.4-0.5,9.9s-0.5,5.5-0.5,5.9h308.2c0-0.4-0.2-2.4-0.5-5.9
	s-0.5-6.8-0.5-9.9s0.3-6.5,0.8-10.1c0.5-3.6,1.5-6.5,3-8.6C408.5,387.3,410.5,386.2,413.2,386.2z"/>
</svg>
