<?xml version="1.0" encoding="utf-8"?>
<!-- Generator: Adobe Illustrator 18.0.0, SVG Export Plug-In . SVG Version: 6.00 Build 0)  -->
<!DOCTYPE svg PUBLIC "-//W3C//DTD SVG 1.1//EN" "http://www.w3.org/Graphics/SVG/1.1/DTD/svg11.dtd">
<svg version="1.1" id="图层_1" xmlns="http://www.w3.org/2000/svg" xmlns:xlink="http://www.w3.org/1999/xlink" x="0px" y="0px"
	 viewBox="0 0 500 500" enable-background="new 0 0 500 500" xml:space="preserve">
<path fill="#999999" d="M487.5,393.1c6.1,0,10.1,1.7,11.7,5.2c1.7,3.4,0.7,7.6-3.1,12.4L460.9,456c-3.7,4.8-8.3,7.3-13.7,7.3
	s-10-2.4-13.7-7.3l-35.2-45.3c-3.7-4.8-4.8-9-3.1-12.4c1.7-3.4,5.6-5.2,11.7-5.2h22.4V106.8H407c-6.1,0-10.1-1.7-11.7-5.2
	c-1.7-3.4-0.7-7.6,3.1-12.4l35.2-45.3c3.7-4.8,8.3-7.3,13.7-7.3s10,2.4,13.7,7.3l35.2,45.3c3.7,4.8,4.8,9,3.1,12.4
	c-1.7,3.4-5.6,5.2-11.7,5.2h-22.4v286.2H487.5z M22.6,35.6l15.1,7.5c2.2,0.9,21.9,1.4,59,1.4c8.2,0,20.5-0.2,36.9-0.6
	c16.4-0.4,28.7-0.6,36.9-0.6c6.7,0,16.7,0,30,0.1s23.3,0.1,30,0.1h81.9c1.1,0,3.1,0,5.9,0.1c2.8,0.1,4.7,0.1,5.7,0
	c1-0.1,2.5-0.4,4.5-0.8c2-0.5,3.6-1.3,4.9-2.5c1.3-1.2,2.7-2.8,4.2-4.9l11.7-0.3c0.7,0,2,0,3.9,0.1c1.9,0.1,3.2,0.1,3.9,0.1
	c0.4,20.9,0.6,52.2,0.6,93.9c0,14.9-0.5,25.1-1.4,30.5c-7.3,2.6-13.6,4.3-19,5c-4.7-8.2-9.7-20.1-15.1-35.8
	c-0.6-1.7-1.6-6.1-3.1-13.4c-1.5-7.3-2.8-14.1-4.1-20.5c-1.2-6.4-1.9-9.7-2.1-9.9c-1.1-1.5-2.2-2.7-3.4-3.5s-2.6-1.4-4.3-1.7
	s-3-0.5-3.6-0.7s-2.3-0.2-5-0.1c-2.7,0.1-4.2,0.1-4.6,0.1c-3.2,0-9.4,0-18.6-0.1c-9.2-0.1-16.2-0.1-20.8-0.1s-10.6,0.2-17.9,0.6
	s-13.9,0.9-19.8,1.7c-1.7,15.1-2.4,27.8-2.2,38c0,17.5,0.2,53.7,0.6,108.5c0.4,54.8,0.6,97.2,0.6,127.2c0,3-0.2,9.6-0.7,20
	c-0.5,10.3-0.5,18.9,0,25.6c0.5,6.7,1.6,13.1,3.5,19.3c7.5,3.9,19,7.9,34.7,11.9s26.8,7.5,33.5,10.5c0.9,7.5,1.4,12.1,1.4,14
	c0,2.6-0.3,5.3-0.8,8.1l-9.5,0.3c-14.2,0.4-34.5-0.4-60.9-2.2s-45.7-2.8-57.9-2.8c-9.3,0-23.4,0.8-42.2,2.5
	c-18.8,1.7-33,2.5-42.5,2.5c-0.6-9.5-0.8-14.3-0.8-14.5v-2.5c3.2-5,8.9-9,17.2-12s17.5-5.7,27.5-8.1s17.3-4.9,21.8-7.5
	c3.5-7.8,5.3-43.5,5.3-107.1c0-18.8-0.3-47.1-0.8-84.7s-0.8-65.9-0.8-84.7v-32.7c0-0.4,0-1.8,0.1-4.3s0.1-4.8,0.1-7
	s-0.1-4.5-0.3-7.1c-0.2-2.6-0.5-4.8-0.8-6.7s-0.8-3.2-1.4-3.9c-2-2.2-17.1-3.4-45.3-3.4c-6.1,0-14.8,1.1-26,3.4S49.6,86.3,45.8,89
	c-3.5,2.4-6.7,9.2-9.5,20.3s-5.7,21.4-8.8,31s-7,14.6-11.9,15c-7.8-4.8-13-8.9-15.7-12.3V35.8L22.6,35.6z"/>
</svg>
