<?xml version="1.0" encoding="utf-8"?>
<!-- Generator: Adobe Illustrator 18.0.0, SVG Export Plug-In . SVG Version: 6.00 Build 0)  -->
<!DOCTYPE svg PUBLIC "-//W3C//DTD SVG 1.1//EN" "http://www.w3.org/Graphics/SVG/1.1/DTD/svg11.dtd">
<svg version="1.1" id="图层_1" xmlns="http://www.w3.org/2000/svg" xmlns:xlink="http://www.w3.org/1999/xlink" x="0px" y="0px"
	 viewBox="0 0 500 500" enable-background="new 0 0 500 500" xml:space="preserve">
<path fill="#999999" d="M153.8,413.5v-57.7c0-2.8-0.9-5.1-2.7-6.9s-4.1-2.7-6.9-2.7H48.1c-2.8,0-5.1,0.9-6.9,2.7
	c-1.8,1.8-2.7,4.1-2.7,6.9v57.7c0,2.8,0.9,5.1,2.7,6.9c1.8,1.8,4.1,2.7,6.9,2.7h96.2c2.8,0,5.1-0.9,6.9-2.7S153.8,416.3,153.8,413.5
	z M153.8,298.1v-57.7c0-2.8-0.9-5.1-2.7-6.9s-4.1-2.7-6.9-2.7H48.1c-2.8,0-5.1,0.9-6.9,2.7c-1.8,1.8-2.7,4.1-2.7,6.9v57.7
	c0,2.8,0.9,5.1,2.7,6.9c1.8,1.8,4.1,2.7,6.9,2.7h96.2c2.8,0,5.1-0.9,6.9-2.7S153.8,300.9,153.8,298.1z M307.7,413.5v-57.7
	c0-2.8-0.9-5.1-2.7-6.9s-4.1-2.7-6.9-2.7h-96.2c-2.8,0-5.1,0.9-6.9,2.7s-2.7,4.1-2.7,6.9v57.7c0,2.8,0.9,5.1,2.7,6.9
	s4.1,2.7,6.9,2.7h96.2c2.8,0,5.1-0.9,6.9-2.7S307.7,416.3,307.7,413.5z M153.8,182.7V125c0-2.8-0.9-5.1-2.7-6.9s-4.1-2.7-6.9-2.7
	H48.1c-2.8,0-5.1,0.9-6.9,2.7c-1.8,1.8-2.7,4.1-2.7,6.9v57.7c0,2.8,0.9,5.1,2.7,6.9c1.8,1.8,4.1,2.7,6.9,2.7h96.2
	c2.8,0,5.1-0.9,6.9-2.7S153.8,185.5,153.8,182.7z M307.7,298.1v-57.7c0-2.8-0.9-5.1-2.7-6.9s-4.1-2.7-6.9-2.7h-96.2
	c-2.8,0-5.1,0.9-6.9,2.7s-2.7,4.1-2.7,6.9v57.7c0,2.8,0.9,5.1,2.7,6.9s4.1,2.7,6.9,2.7h96.2c2.8,0,5.1-0.9,6.9-2.7
	S307.7,300.9,307.7,298.1z M461.5,413.5v-57.7c0-2.8-0.9-5.1-2.7-6.9s-4.1-2.7-6.9-2.7h-96.2c-2.8,0-5.1,0.9-6.9,2.7
	s-2.7,4.1-2.7,6.9v57.7c0,2.8,0.9,5.1,2.7,6.9s4.1,2.7,6.9,2.7h96.2c2.8,0,5.1-0.9,6.9-2.7S461.5,416.3,461.5,413.5z M307.7,182.7
	V125c0-2.8-0.9-5.1-2.7-6.9s-4.1-2.7-6.9-2.7h-96.2c-2.8,0-5.1,0.9-6.9,2.7s-2.7,4.1-2.7,6.9v57.7c0,2.8,0.9,5.1,2.7,6.9
	s4.1,2.7,6.9,2.7h96.2c2.8,0,5.1-0.9,6.9-2.7S307.7,185.5,307.7,182.7z M461.5,298.1v-57.7c0-2.8-0.9-5.1-2.7-6.9s-4.1-2.7-6.9-2.7
	h-96.2c-2.8,0-5.1,0.9-6.9,2.7s-2.7,4.1-2.7,6.9v57.7c0,2.8,0.9,5.1,2.7,6.9s4.1,2.7,6.9,2.7h96.2c2.8,0,5.1-0.9,6.9-2.7
	S461.5,300.9,461.5,298.1z M461.5,182.7V125c0-2.8-0.9-5.1-2.7-6.9s-4.1-2.7-6.9-2.7h-96.2c-2.8,0-5.1,0.9-6.9,2.7s-2.7,4.1-2.7,6.9
	v57.7c0,2.8,0.9,5.1,2.7,6.9s4.1,2.7,6.9,2.7h96.2c2.8,0,5.1-0.9,6.9-2.7S461.5,185.5,461.5,182.7z M500,86.5v326.9
	c0,13.2-4.7,24.5-14.1,34s-20.7,14.1-34,14.1H48.1c-13.2,0-24.5-4.7-34-14.1S0,426.7,0,413.5V86.5c0-13.2,4.7-24.5,14.1-34
	s20.7-14.1,34-14.1h403.8c13.2,0,24.5,4.7,34,14.1S500,73.3,500,86.5z"/>
</svg>
