<?xml version="1.0" encoding="utf-8"?>
<!-- Generator: Adobe Illustrator 18.0.0, SVG Export Plug-In . SVG Version: 6.00 Build 0)  -->
<!DOCTYPE svg PUBLIC "-//W3C//DTD SVG 1.1//EN" "http://www.w3.org/Graphics/SVG/1.1/DTD/svg11.dtd">
<svg version="1.1" id="图层_1" xmlns="http://www.w3.org/2000/svg" xmlns:xlink="http://www.w3.org/1999/xlink" x="0px" y="0px"
	 viewBox="0 0 500 500" enable-background="new 0 0 500 500" xml:space="preserve">
<path fill="#999999" d="M230.8,307.7v115.4c0,10.4-3.8,19.4-11.4,27c-7.6,7.6-16.6,11.4-27,11.4H38.5c-10.4,0-19.4-3.8-27-11.4
	C3.8,442.5,0,433.5,0,423.1V307.7c0-10.4,3.8-19.4,11.4-27c7.6-7.6,16.6-11.4,27-11.4h153.8c10.4,0,19.4,3.8,27,11.4
	C227,288.3,230.8,297.3,230.8,307.7z M230.8,76.9v115.4c0,10.4-3.8,19.4-11.4,27c-7.6,7.6-16.6,11.4-27,11.4H38.5
	c-10.4,0-19.4-3.8-27-11.4C3.8,211.7,0,202.7,0,192.3V76.9c0-10.4,3.8-19.4,11.4-27s16.6-11.4,27-11.4h153.8
	c10.4,0,19.4,3.8,27,11.4C227,57.5,230.8,66.5,230.8,76.9z M500,307.7v115.4c0,10.4-3.8,19.4-11.4,27c-7.6,7.6-16.6,11.4-27,11.4
	H307.7c-10.4,0-19.4-3.8-27-11.4c-7.6-7.6-11.4-16.6-11.4-27V307.7c0-10.4,3.8-19.4,11.4-27c7.6-7.6,16.6-11.4,27-11.4h153.8
	c10.4,0,19.4,3.8,27,11.4C496.2,288.3,500,297.3,500,307.7z M500,76.9v115.4c0,10.4-3.8,19.4-11.4,27c-7.6,7.6-16.6,11.4-27,11.4
	H307.7c-10.4,0-19.4-3.8-27-11.4c-7.6-7.6-11.4-16.6-11.4-27V76.9c0-10.4,3.8-19.4,11.4-27c7.6-7.6,16.6-11.4,27-11.4h153.8
	c10.4,0,19.4,3.8,27,11.4S500,66.5,500,76.9z"/>
</svg>
