<?xml version="1.0" encoding="utf-8"?>
<!-- Generator: Adobe Illustrator 18.0.0, SVG Export Plug-In . SVG Version: 6.00 Build 0)  -->
<!DOCTYPE svg PUBLIC "-//W3C//DTD SVG 1.1//EN" "http://www.w3.org/Graphics/SVG/1.1/DTD/svg11.dtd">
<svg version="1.1" id="图层_1" xmlns="http://www.w3.org/2000/svg" xmlns:xlink="http://www.w3.org/1999/xlink" x="0px" y="0px"
	 viewBox="0 0 500 500" enable-background="new 0 0 500 500" xml:space="preserve">
<path fill="#999999" d="M142.9,366.1v53.6c0,7.4-2.6,13.8-7.8,19c-5.2,5.2-11.5,7.8-19,7.8H26.8c-7.4,0-13.8-2.6-19-7.8
	c-5.2-5.2-7.8-11.5-7.8-19v-53.6c0-7.4,2.6-13.8,7.8-19c5.2-5.2,11.5-7.8,19-7.8h89.3c7.4,0,13.8,2.6,19,7.8
	C140.3,352.3,142.9,358.6,142.9,366.1z M142.9,223.2v53.6c0,7.4-2.6,13.8-7.8,19c-5.2,5.2-11.5,7.8-19,7.8H26.8
	c-7.4,0-13.8-2.6-19-7.8c-5.2-5.2-7.8-11.5-7.8-19v-53.6c0-7.4,2.6-13.8,7.8-19s11.5-7.8,19-7.8h89.3c7.4,0,13.8,2.6,19,7.8
	S142.9,215.8,142.9,223.2z M321.4,366.1v53.6c0,7.4-2.6,13.8-7.8,19c-5.2,5.2-11.5,7.8-19,7.8h-89.3c-7.4,0-13.8-2.6-19-7.8
	c-5.2-5.2-7.8-11.5-7.8-19v-53.6c0-7.4,2.6-13.8,7.8-19c5.2-5.2,11.5-7.8,19-7.8h89.3c7.4,0,13.8,2.6,19,7.8
	C318.8,352.3,321.4,358.6,321.4,366.1z M142.9,80.4v53.6c0,7.4-2.6,13.8-7.8,19c-5.2,5.2-11.5,7.8-19,7.8H26.8
	c-7.4,0-13.8-2.6-19-7.8c-5.2-5.2-7.8-11.5-7.8-19V80.4c0-7.4,2.6-13.8,7.8-19s11.5-7.8,19-7.8h89.3c7.4,0,13.8,2.6,19,7.8
	S142.9,72.9,142.9,80.4z M321.4,223.2v53.6c0,7.4-2.6,13.8-7.8,19c-5.2,5.2-11.5,7.8-19,7.8h-89.3c-7.4,0-13.8-2.6-19-7.8
	c-5.2-5.2-7.8-11.5-7.8-19v-53.6c0-7.4,2.6-13.8,7.8-19s11.5-7.8,19-7.8h89.3c7.4,0,13.8,2.6,19,7.8
	C318.8,209.4,321.4,215.8,321.4,223.2z M500,366.1v53.6c0,7.4-2.6,13.8-7.8,19c-5.2,5.2-11.5,7.8-19,7.8h-89.3
	c-7.4,0-13.8-2.6-19-7.8c-5.2-5.2-7.8-11.5-7.8-19v-53.6c0-7.4,2.6-13.8,7.8-19c5.2-5.2,11.5-7.8,19-7.8h89.3c7.4,0,13.8,2.6,19,7.8
	C497.4,352.3,500,358.6,500,366.1z M321.4,80.4v53.6c0,7.4-2.6,13.8-7.8,19c-5.2,5.2-11.5,7.8-19,7.8h-89.3c-7.4,0-13.8-2.6-19-7.8
	c-5.2-5.2-7.8-11.5-7.8-19V80.4c0-7.4,2.6-13.8,7.8-19s11.5-7.8,19-7.8h89.3c7.4,0,13.8,2.6,19,7.8
	C318.8,66.6,321.4,72.9,321.4,80.4z M500,223.2v53.6c0,7.4-2.6,13.8-7.8,19c-5.2,5.2-11.5,7.8-19,7.8h-89.3c-7.4,0-13.8-2.6-19-7.8
	c-5.2-5.2-7.8-11.5-7.8-19v-53.6c0-7.4,2.6-13.8,7.8-19s11.5-7.8,19-7.8h89.3c7.4,0,13.8,2.6,19,7.8S500,215.8,500,223.2z M500,80.4
	v53.6c0,7.4-2.6,13.8-7.8,19c-5.2,5.2-11.5,7.8-19,7.8h-89.3c-7.4,0-13.8-2.6-19-7.8c-5.2-5.2-7.8-11.5-7.8-19V80.4
	c0-7.4,2.6-13.8,7.8-19s11.5-7.8,19-7.8h89.3c7.4,0,13.8,2.6,19,7.8S500,72.9,500,80.4z"/>
</svg>
