<?xml version="1.0" encoding="utf-8"?>
<!-- Generator: Adobe Illustrator 18.0.0, SVG Export Plug-In . SVG Version: 6.00 Build 0)  -->
<!DOCTYPE svg PUBLIC "-//W3C//DTD SVG 1.1//EN" "http://www.w3.org/Graphics/SVG/1.1/DTD/svg11.dtd">
<svg version="1.1" id="图层_1" xmlns="http://www.w3.org/2000/svg" xmlns:xlink="http://www.w3.org/1999/xlink" x="0px" y="0px"
	 viewBox="0 0 500 500" enable-background="new 0 0 500 500" xml:space="preserve">
<path fill="#999999" d="M445.3,132.8c2.6,2.6,5.2,6,7.8,10H321.4V11.2c4.1,2.6,7.4,5.2,10,7.8L445.3,132.8z M312.5,178.6h151.8
	v294.6c0,7.4-2.6,13.8-7.8,19c-5.2,5.2-11.5,7.8-19,7.8h-375c-7.4,0-13.8-2.6-19-7.8s-7.8-11.5-7.8-19V26.8c0-7.4,2.6-13.8,7.8-19
	S55.1,0,62.5,0h223.2v151.8c0,7.4,2.6,13.8,7.8,19C298.7,176,305.1,178.6,312.5,178.6z M357.1,383.9v-17.9c0-2.6-0.8-4.7-2.5-6.4
	c-1.7-1.7-3.8-2.5-6.4-2.5H151.8c-2.6,0-4.7,0.8-6.4,2.5s-2.5,3.8-2.5,6.4v17.9c0,2.6,0.8,4.7,2.5,6.4s3.8,2.5,6.4,2.5h196.4
	c2.6,0,4.7-0.8,6.4-2.5C356.3,388.7,357.1,386.5,357.1,383.9z M357.1,312.5v-17.9c0-2.6-0.8-4.7-2.5-6.4c-1.7-1.7-3.8-2.5-6.4-2.5
	H151.8c-2.6,0-4.7,0.8-6.4,2.5c-1.7,1.7-2.5,3.8-2.5,6.4v17.9c0,2.6,0.8,4.7,2.5,6.4s3.8,2.5,6.4,2.5h196.4c2.6,0,4.7-0.8,6.4-2.5
	C356.3,317.2,357.1,315.1,357.1,312.5z M357.1,241.1v-17.9c0-2.6-0.8-4.7-2.5-6.4c-1.7-1.7-3.8-2.5-6.4-2.5H151.8
	c-2.6,0-4.7,0.8-6.4,2.5s-2.5,3.8-2.5,6.4v17.9c0,2.6,0.8,4.7,2.5,6.4c1.7,1.7,3.8,2.5,6.4,2.5h196.4c2.6,0,4.7-0.8,6.4-2.5
	C356.3,245.8,357.1,243.7,357.1,241.1z"/>
</svg>
