<?xml version="1.0" encoding="utf-8"?>
<!-- Generator: Adobe Illustrator 18.0.0, SVG Export Plug-In . SVG Version: 6.00 Build 0)  -->
<!DOCTYPE svg PUBLIC "-//W3C//DTD SVG 1.1//EN" "http://www.w3.org/Graphics/SVG/1.1/DTD/svg11.dtd">
<svg version="1.1" id="图层_1" xmlns="http://www.w3.org/2000/svg" xmlns:xlink="http://www.w3.org/1999/xlink" x="0px" y="0px"
	 viewBox="0 0 500 500" enable-background="new 0 0 500 500" xml:space="preserve">
<path fill="#999999" d="M445.3,106c5.2,5.2,9.7,12.3,13.4,21.2c3.7,8.9,5.6,17.1,5.6,24.6v321.4c0,7.4-2.6,13.8-7.8,19
	c-5.2,5.2-11.5,7.8-19,7.8h-375c-7.4,0-13.8-2.6-19-7.8s-7.8-11.5-7.8-19V26.8c0-7.4,2.6-13.8,7.8-19S55.1,0,62.5,0h250
	c7.4,0,15.6,1.9,24.6,5.6c8.9,3.7,16,8.2,21.2,13.4L445.3,106z M321.4,37.9v104.9h104.9c-1.9-5.4-3.9-9.2-6.1-11.4l-87.3-87.3
	C330.6,41.9,326.8,39.8,321.4,37.9z M428.6,464.3V178.6H312.5c-7.4,0-13.8-2.6-19-7.8c-5.2-5.2-7.8-11.5-7.8-19V35.7H71.4v428.6
	H428.6z M100.7,214.3v29.9h19.5L166,428.6h44.4l35.7-135.3c1.3-3.7,2.2-8,2.8-12.8c0.4-3,0.6-5.2,0.6-6.7h1.1l0.8,6.7
	c0.2,0.6,0.5,2.4,1,5.6c0.5,3.2,1,5.6,1.5,7.3l35.7,135.3H334l45.8-184.4h19.5v-29.9h-83.7v29.9h25.1l-27.6,122.2
	c-0.9,3.7-1.6,8-2,12.8l-0.6,5.9h-1.1l-0.8-5.9c-0.2-0.9-0.6-2.9-1.1-5.9c-0.6-3-1-5.3-1.4-7l-40.2-152.1h-31.8l-40.2,152.1
	c-0.4,1.7-0.8,4-1.3,6.8c-0.5,2.9-0.8,4.9-1,6l-1.1,5.9h-1.1l-0.6-5.9c-0.4-4.8-1-9.1-2-12.8l-27.6-122.2h25.1v-29.9H100.7z"/>
</svg>
