<?xml version="1.0" encoding="utf-8"?>
<!-- Generator: Adobe Illustrator 18.0.0, SVG Export Plug-In . SVG Version: 6.00 Build 0)  -->
<!DOCTYPE svg PUBLIC "-//W3C//DTD SVG 1.1//EN" "http://www.w3.org/Graphics/SVG/1.1/DTD/svg11.dtd">
<svg version="1.1" id="图层_1" xmlns="http://www.w3.org/2000/svg" xmlns:xlink="http://www.w3.org/1999/xlink" x="0px" y="0px"
	 viewBox="0 0 500 500" enable-background="new 0 0 500 500" xml:space="preserve">
<path fill="#999999" d="M445.3,106c5.2,5.2,9.7,12.3,13.4,21.2c3.7,8.9,5.6,17.1,5.6,24.6v321.4c0,7.4-2.6,13.8-7.8,19
	c-5.2,5.2-11.5,7.8-19,7.8h-375c-7.4,0-13.8-2.6-19-7.8s-7.8-11.5-7.8-19V26.8c0-7.4,2.6-13.8,7.8-19S55.1,0,62.5,0h250
	c7.4,0,15.6,1.9,24.6,5.6c8.9,3.7,16,8.2,21.2,13.4L445.3,106z M321.4,37.9v104.9h104.9c-1.9-5.4-3.9-9.2-6.1-11.4l-87.3-87.3
	C330.6,41.9,326.8,39.8,321.4,37.9z M428.6,464.3V178.6H312.5c-7.4,0-13.8-2.6-19-7.8c-5.2-5.2-7.8-11.5-7.8-19V35.7H71.4v428.6
	H428.6z M155.4,399v29.6h78.4V399h-20.9l28.7-44.9c0.9-1.3,1.9-2.8,2.8-4.6c0.9-1.8,1.6-3,2.1-3.8c0.5-0.7,0.8-1.1,1-1.1h0.6
	c0.2,0.7,0.7,1.7,1.4,2.8c0.4,0.7,0.8,1.4,1.3,2.1c0.5,0.7,1,1.4,1.7,2.2c0.7,0.8,1.3,1.6,1.8,2.4L284,399h-21.2v29.6H344V399h-19
	l-53.6-76.2l54.4-78.7h18.7v-29.9h-77.8v29.9h20.6l-28.7,44.4c-0.7,1.3-1.7,2.8-2.8,4.6c-1.1,1.8-2,3-2.5,3.8l-0.6,0.8h-0.6
	c-0.2-0.7-0.7-1.7-1.4-2.8c-1.1-2-2.7-4.2-4.7-6.4l-29.6-44.4h21.2v-29.9h-80.9v29.9h19l52.7,75.9l-54.1,79H155.4z"/>
</svg>
