<?xml version="1.0" encoding="utf-8"?>
<!-- Generator: Adobe Illustrator 18.0.0, SVG Export Plug-In . SVG Version: 6.00 Build 0)  -->
<!DOCTYPE svg PUBLIC "-//W3C//DTD SVG 1.1//EN" "http://www.w3.org/Graphics/SVG/1.1/DTD/svg11.dtd">
<svg version="1.1" id="图层_1" xmlns="http://www.w3.org/2000/svg" xmlns:xlink="http://www.w3.org/1999/xlink" x="0px" y="0px"
	 viewBox="0 0 500 500" enable-background="new 0 0 500 500" xml:space="preserve">
<path fill="#999999" d="M445.3,106c5.2,5.2,9.7,12.3,13.4,21.2c3.7,8.9,5.6,17.1,5.6,24.6v321.4c0,7.4-2.6,13.8-7.8,19
	c-5.2,5.2-11.5,7.8-19,7.8h-375c-7.4,0-13.8-2.6-19-7.8s-7.8-11.5-7.8-19V26.8c0-7.4,2.6-13.8,7.8-19S55.1,0,62.5,0h250
	c7.4,0,15.6,1.9,24.6,5.6c8.9,3.7,16,8.2,21.2,13.4L445.3,106z M321.4,37.9v104.9h104.9c-1.9-5.4-3.9-9.2-6.1-11.4l-87.3-87.3
	C330.6,41.9,326.8,39.8,321.4,37.9z M428.6,464.3V178.6H312.5c-7.4,0-13.8-2.6-19-7.8c-5.2-5.2-7.8-11.5-7.8-19V35.7H71.4v428.6
	H428.6z M169.6,214.3c1.5-2,3.4-3.2,5.9-3.5c2.4-0.3,4.7,0.3,6.7,1.8l14.2,10.6c2,1.5,3.2,3.4,3.5,5.9c0.3,2.4-0.3,4.7-1.8,6.7
	l-50.8,67.8l50.8,67.8c1.5,2,2.1,4.3,1.8,6.7c-0.3,2.4-1.4,4.4-3.5,5.9l-14.2,10.6c-2,1.5-4.3,2.1-6.7,1.8c-2.4-0.3-4.4-1.4-5.9-3.5
	l-63.1-84c-2.6-3.5-2.6-7.1,0-10.6L169.6,214.3z M393.4,298.3c2.6,3.5,2.6,7.1,0,10.6l-63.1,84c-1.5,2-3.4,3.2-5.9,3.5
	c-2.4,0.3-4.7-0.3-6.7-1.8l-14.2-10.6c-2-1.5-3.2-3.4-3.5-5.9c-0.3-2.4,0.3-4.7,1.8-6.7l50.8-67.8l-50.8-67.8
	c-1.5-2-2.1-4.3-1.8-6.7c0.3-2.4,1.4-4.4,3.5-5.9l14.2-10.6c2-1.5,4.3-2.1,6.7-1.8s4.4,1.4,5.9,3.5L393.4,298.3z M220.4,426.9
	c-2.4-0.4-4.3-1.6-5.7-3.6c-1.4-2-1.9-4.3-1.5-6.7l38.5-231.9c0.4-2.4,1.6-4.3,3.6-5.7c2-1.4,4.3-1.9,6.7-1.5l17.6,2.8
	c2.4,0.4,4.3,1.6,5.7,3.6c1.4,2,1.9,4.3,1.5,6.7l-38.5,231.9c-0.4,2.4-1.6,4.3-3.6,5.7c-2,1.4-4.3,1.9-6.7,1.5L220.4,426.9z"/>
</svg>
