<?xml version="1.0" encoding="utf-8"?>
<!-- Generator: Adobe Illustrator 18.0.0, SVG Export Plug-In . SVG Version: 6.00 Build 0)  -->
<!DOCTYPE svg PUBLIC "-//W3C//DTD SVG 1.1//EN" "http://www.w3.org/Graphics/SVG/1.1/DTD/svg11.dtd">
<svg version="1.1" id="图层_1" xmlns="http://www.w3.org/2000/svg" xmlns:xlink="http://www.w3.org/1999/xlink" x="0px" y="0px"
	 viewBox="0 0 500 500" enable-background="new 0 0 500 500" xml:space="preserve">
<path fill="#999999" d="M374.6,8.9c0-2.6,0.8-4.7,2.5-6.4s3.8-2.5,6.4-2.5h80.4c4.8,0,9,1.8,12.6,5.3s5.3,7.7,5.3,12.6v80.4
	c0,2.6-0.8,4.7-2.5,6.4c-1.7,1.7-3.8,2.5-6.4,2.5H455c-2.6,0-4.7-0.8-6.4-2.5c-1.7-1.7-2.5-3.8-2.5-6.4V60.8L375.2,132
	c23.4,29.4,35.2,62.8,35.2,100.2c0,41.1-13.7,76.9-41.2,107.3c-27.4,30.4-61.3,47.9-101.7,52.3v36.8h26.8c2.6,0,4.7,0.8,6.4,2.5
	s2.5,3.8,2.5,6.4v17.9c0,2.6-0.8,4.7-2.5,6.4c-1.7,1.7-3.8,2.5-6.4,2.5h-26.8v26.8c0,2.6-0.8,4.7-2.5,6.4c-1.7,1.7-3.8,2.5-6.4,2.5
	h-17.9c-2.6,0-4.7-0.8-6.4-2.5s-2.5-3.8-2.5-6.4v-26.8H205c-2.6,0-4.7-0.8-6.4-2.5s-2.5-3.8-2.5-6.4v-17.9c0-2.6,0.8-4.7,2.5-6.4
	c1.7-1.7,3.8-2.5,6.4-2.5h26.8v-36.8c-40.4-4.5-74.3-21.9-101.7-52.3c-27.5-30.5-41.2-66.2-41.2-107.4c0-37.4,11.7-70.8,35.2-100.2
	l-14.5-14.8l-28.2,31c-1.7,1.9-3.7,2.8-6.1,2.9c-2.4,0.1-4.6-0.6-6.4-2.1l-13.4-12.3c-1.9-1.5-2.8-3.5-2.9-6
	c-0.1-2.5,0.7-4.7,2.4-6.6l29.3-32.1l-31-31.2v37.4c0,2.6-0.8,4.7-2.5,6.4c-1.7,1.7-3.8,2.5-6.4,2.5h-18c-2.6,0-4.7-0.8-6.4-2.5
	c-1.7-1.5-2.5-3.7-2.5-6.3V17.9c0-4.8,1.8-9,5.3-12.6S30.5,0,35.4,0h80.4c2.6,0,4.7,0.8,6.4,2.5c1.7,1.7,2.5,3.8,2.5,6.4v17.9
	c0,2.6-0.8,4.7-2.5,6.4s-3.8,2.5-6.4,2.5H78.6l29.6,29.9l24-26.2c1.7-1.9,3.7-2.8,6.1-2.9c2.4-0.1,4.6,0.6,6.4,2.1l13.4,12.3
	c1.9,1.5,2.8,3.5,2.9,6c0.1,2.5-0.7,4.7-2.4,6.6l-25,27.5l15.9,15.6c29.4-23.4,62.8-35.2,100.2-35.2s70.8,11.7,100.2,35.2L421,35.7
	h-37.4c-2.6,0-4.7-0.8-6.4-2.5s-2.5-3.8-2.5-6.4V8.9H374.6z M249.6,357.1c34.4,0,63.8-12.2,88.3-36.7c24.5-24.5,36.7-53.9,36.7-88.3
	s-12.2-63.8-36.7-88.3s-53.9-36.7-88.3-36.7s-63.8,12.2-88.3,36.7s-36.7,53.9-36.7,88.3s12.2,63.8,36.7,88.3
	S215.2,357.1,249.6,357.1z"/>
</svg>
