<?xml version="1.0" encoding="utf-8"?>
<!-- Generator: Adobe Illustrator 18.0.0, SVG Export Plug-In . SVG Version: 6.00 Build 0)  -->
<!DOCTYPE svg PUBLIC "-//W3C//DTD SVG 1.1//EN" "http://www.w3.org/Graphics/SVG/1.1/DTD/svg11.dtd">
<svg version="1.1" id="图层_1" xmlns="http://www.w3.org/2000/svg" xmlns:xlink="http://www.w3.org/1999/xlink" x="0px" y="0px"
	 viewBox="0 0 500 500" enable-background="new 0 0 500 500" xml:space="preserve">
<path fill="#999999" d="M499.3,147.6c2.2,28.8-2.7,56-14.6,81.5s-29.3,46.3-51.9,62.5s-47.8,25.8-75.7,28.7v72.5h62.5
	c2.6,0,4.7,0.8,6.4,2.5c1.7,1.7,2.5,3.8,2.5,6.4v17.9c0,2.6-0.8,4.7-2.5,6.4s-3.8,2.5-6.4,2.5h-62.5v62.5c0,2.6-0.8,4.7-2.5,6.4
	c-1.7,1.7-3.8,2.5-6.4,2.5h-17.9c-2.6,0-4.7-0.8-6.4-2.5c-1.7-1.7-2.5-3.8-2.5-6.4v-62.5H178.5v62.5c0,2.6-0.8,4.7-2.5,6.4
	c-1.7,1.7-3.8,2.5-6.4,2.5h-17.9c-2.6,0-4.7-0.8-6.4-2.5c-1.7-1.7-2.5-3.8-2.5-6.4v-62.5H80.3c-2.6,0-4.7-0.8-6.4-2.5
	c-1.7-1.7-2.5-3.8-2.5-6.4v-17.9c0-2.6,0.8-4.7,2.5-6.4c1.7-1.7,3.8-2.5,6.4-2.5h62.5v-72.5c-27.9-3-53.1-12.6-75.7-28.7
	s-39.9-37-51.9-62.5s-16.9-52.6-14.6-81.5C3.7,109.3,19,76.2,46.4,48.2s60.2-43.8,98.3-47.3c38.3-3.9,73.4,4.8,105.2,26.2
	C281.7,5.7,316.8-3,355.1,0.9c38.1,3.5,70.9,19.3,98.3,47.3C480.9,76.2,496.2,109.3,499.3,147.6z M249.9,248.1
	c23.8-24.4,35.7-53.5,35.7-87.3s-11.9-63-35.7-87.3c-23.8,24.4-35.7,53.5-35.7,87.3S226.1,223.7,249.9,248.1z M160.7,285.7
	c21.4,0,41.7-5.3,60.8-15.9c-28.6-30.7-43-67-43-109.1c0-41.7,14.3-78,43-109.1c-19.2-10.6-39.4-15.9-60.8-15.9
	c-34.4,0-63.8,12.2-88.3,36.7s-36.7,53.9-36.7,88.3s12.2,63.8,36.7,88.3S126.3,285.7,160.7,285.7z M321.4,392.9v-72.5
	c-25.5-2.8-49.3-11.5-71.4-26.2c-22.1,14.7-45.9,23.4-71.4,26.2v72.5H321.4z M339.2,285.7c34.4,0,63.8-12.2,88.3-36.7
	s36.7-53.9,36.7-88.3S452,96.9,427.5,72.5s-53.9-36.7-88.3-36.7c-21.4,0-41.7,5.3-60.8,15.9c28.6,31.1,43,67.4,43,109.1
	c0,42-14.3,78.4-43,109.1C297.5,280.4,317.8,285.7,339.2,285.7z"/>
</svg>
