<?xml version="1.0" encoding="utf-8"?>
<!-- Generator: Adobe Illustrator 18.0.0, SVG Export Plug-In . SVG Version: 6.00 Build 0)  -->
<!DOCTYPE svg PUBLIC "-//W3C//DTD SVG 1.1//EN" "http://www.w3.org/Graphics/SVG/1.1/DTD/svg11.dtd">
<svg version="1.1" id="图层_1" xmlns="http://www.w3.org/2000/svg" xmlns:xlink="http://www.w3.org/1999/xlink" x="0px" y="0px"
	 viewBox="0 0 500 500" enable-background="new 0 0 500 500" xml:space="preserve">
<path fill="#999999" d="M406.3,38.8c0-2.3,0.7-4.2,2.2-5.6c1.5-1.4,3.3-2.2,5.6-2.2h70.3c4.2,0,7.9,1.5,11,4.6
	c3.1,3.1,4.6,6.8,4.6,11v70.3c0,2.3-0.7,4.2-2.2,5.6c-1.5,1.5-3.3,2.2-5.6,2.2h-15.6c-2.3,0-4.1-0.7-5.6-2.2s-2.2-3.3-2.2-5.6V84.2
	l-62,62.3c12.4,15.5,21.1,32.9,26.2,52.2c5.1,19.4,5.9,39.5,2.3,60.3c-5.2,29.3-18.6,54.5-40.2,75.7S348,368.6,318.6,373
	c-36.3,5.5-69.6-1.8-99.8-22c-19,12.7-39.9,20.3-62.5,22.7V406h23.4c2.3,0,4.2,0.7,5.6,2.2c1.5,1.5,2.2,3.3,2.2,5.6v15.6
	c0,2.3-0.7,4.2-2.2,5.6c-1.5,1.5-3.3,2.2-5.6,2.2h-23.4v23.4c0,2.3-0.7,4.1-2.2,5.6s-3.3,2.2-5.6,2.2h-15.6c-2.3,0-4.2-0.7-5.6-2.2
	c-1.5-1.5-2.2-3.3-2.2-5.6v-23.4h-23.4c-2.3,0-4.2-0.7-5.6-2.2c-1.5-1.5-2.2-3.3-2.2-5.6v-15.6c0-2.3,0.7-4.2,2.2-5.6
	c1.5-1.5,3.3-2.2,5.6-2.2H125v-32.2c-25.2-2.8-48-11.7-68.2-26.7s-35.5-34.4-45.7-58s-13.4-48.6-9.6-74.9
	c4.1-30.4,17-56.7,38.9-78.7s48-35.4,78.2-40.2c36.5-5.5,69.8,1.8,100.1,22c23.8-15.8,49.8-23.7,78.1-23.7
	c32.7,0,61.9,10.3,87.6,30.8l62.3-62H414c-2.3,0-4.1-0.7-5.6-2.2s-2.2-3.3-2.2-5.6V38.8H406.3z M218.8,310.5
	c20.8-21.3,31.2-46.8,31.2-76.4s-10.4-55.1-31.2-76.4c-20.8,21.3-31.2,46.8-31.2,76.4S197.9,289.2,218.8,310.5z M31.3,234.1
	c0,30.1,10.7,55.9,32.1,77.3c21.4,21.4,47.2,32.1,77.3,32.1c19,0,36.8-4.6,53.2-13.9c-25.1-27.2-37.6-59-37.6-95.5
	s12.5-68.3,37.6-95.5c-16.4-9.3-34.2-13.9-53.2-13.9c-30.1,0-55.9,10.7-77.3,32.1S31.3,204,31.3,234.1z M296.9,343.5
	c30.1,0,55.9-10.7,77.3-32.1c21.4-21.4,32.1-47.2,32.1-77.3s-10.7-55.9-32.1-77.3s-47.2-32.1-77.3-32.1c-19,0-36.8,4.6-53.2,13.9
	c25.1,27.2,37.6,59,37.6,95.5s-12.5,68.3-37.6,95.5C260.1,338.8,277.9,343.5,296.9,343.5z"/>
</svg>
