<?xml version="1.0" encoding="utf-8"?>
<!-- Generator: Adobe Illustrator 18.0.0, SVG Export Plug-In . SVG Version: 6.00 Build 0)  -->
<!DOCTYPE svg PUBLIC "-//W3C//DTD SVG 1.1//EN" "http://www.w3.org/Graphics/SVG/1.1/DTD/svg11.dtd">
<svg version="1.1" id="图层_1" xmlns="http://www.w3.org/2000/svg" xmlns:xlink="http://www.w3.org/1999/xlink" x="0px" y="0px"
	 viewBox="0 0 500 500" enable-background="new 0 0 500 500" xml:space="preserve">
<path fill="#999999" d="M410.4,160.7c0,41.1-13.7,76.9-41.2,107.3s-61.3,47.9-101.7,52.3v72.5H330c2.6,0,4.7,0.8,6.4,2.5
	s2.5,3.8,2.5,6.4v17.9c0,2.6-0.8,4.7-2.5,6.4s-3.8,2.5-6.4,2.5h-62.5V491c0,2.6-0.8,4.7-2.5,6.4c-1.7,1.7-3.8,2.5-6.4,2.5h-17.9
	c-2.6,0-4.7-0.8-6.4-2.5s-2.5-3.8-2.5-6.4v-62.5h-62.5c-2.6,0-4.7-0.8-6.4-2.5c-1.7-1.7-2.5-3.8-2.5-6.4v-17.9
	c0-2.6,0.8-4.7,2.5-6.4c1.7-1.7,3.8-2.5,6.4-2.5h62.5v-72.5c-27.9-3-53.2-12.6-75.8-28.7c-22.6-16.2-39.9-37-51.9-62.5
	s-16.9-52.6-14.6-81.5c2-24.9,9.5-48.1,22.5-69.5s29.9-38.9,50.8-52.5S206.6,3.8,231.3,1c31.6-3.5,61.3,1.5,89,15.1
	C348,29.7,370,49.5,386.1,75.3C402.3,101.2,410.4,129.6,410.4,160.7z M124.7,160.7c0,34.4,12.2,63.9,36.7,88.3s53.9,36.7,88.3,36.7
	s63.9-12.2,88.3-36.7c24.4-24.5,36.7-53.9,36.7-88.3S362.5,96.8,338,72.4s-53.9-36.7-88.3-36.7s-63.9,12.2-88.3,36.7
	S124.7,126.3,124.7,160.7z"/>
</svg>
