<?xml version="1.0" encoding="utf-8"?>
<!-- Generator: Adobe Illustrator 18.0.0, SVG Export Plug-In . SVG Version: 6.00 Build 0)  -->
<!DOCTYPE svg PUBLIC "-//W3C//DTD SVG 1.1//EN" "http://www.w3.org/Graphics/SVG/1.1/DTD/svg11.dtd">
<svg version="1.1" id="图层_1" xmlns="http://www.w3.org/2000/svg" xmlns:xlink="http://www.w3.org/1999/xlink" x="0px" y="0px"
	 viewBox="0 0 500 500" enable-background="new 0 0 500 500" xml:space="preserve">
<path fill="#999999" d="M496.1,238.5c3.1,3.1,4.6,6.8,4.6,11s-1.5,7.9-4.6,11l-71.9,71.9c-1.5,1.6-3.3,2.4-5.5,2.4s-4-0.8-5.5-2.4
	l-11-11c-1.6-1.5-2.4-3.3-2.4-5.5s0.8-4,2.4-5.5l45.2-45.2h-71.9V320c0,2.3-0.7,4.2-2.2,5.6c-1.5,1.5-3.3,2.2-5.6,2.2h-15.6
	c-2.3,0-4.2-0.7-5.6-2.2c-1.5-1.5-2.2-3.3-2.2-5.6v-54.8h-32c-2,19.4-7.4,37.8-16.4,55.3s-20.3,32.4-34,44.9
	c-13.7,12.5-29.7,22.4-48,29.7c-18.3,7.3-37.4,11-57.3,11c-29.3,0-56.3-7.4-80.8-22.2s-43.6-35-57.3-60.4s-19.9-53-18.2-82.5
	c1.3-26.4,9-50.9,23-73.3s32.4-40.5,55.3-53.7s47.6-20.3,74-20.9c27.1-0.7,52.4,5.2,75.9,17.5s42.7,29.3,57.6,51
	c14.8,21.7,23.6,45.8,26.2,72.4h32v-54.9c0-2.3,0.7-4.2,2.2-5.6s3.3-2.2,5.6-2.2h15.6c2.3,0,4.2,0.7,5.6,2.2
	c1.5,1.5,2.2,3.3,2.2,5.6v54.8h71.9l-45.2-45.2c-1.6-1.5-2.4-3.3-2.4-5.5s0.8-4,2.4-5.5l11-11c1.5-1.6,3.3-2.4,5.5-2.4
	s4,0.8,5.5,2.4L496.1,238.5z M156.5,374.7c17,0,33.1-3.3,48.5-9.9s28.7-15.5,40-26.8c11.3-11.3,20.2-24.6,26.8-40
	c6.6-15.4,9.9-31.6,9.9-48.5s-3.3-33.1-9.9-48.5s-15.5-28.7-26.8-40s-24.6-20.2-40-26.8c-15.4-6.6-31.6-9.9-48.5-9.9
	s-33.1,3.3-48.5,9.9c-15.4,6.6-28.8,15.6-40,26.8s-20.2,24.6-26.8,40s-9.9,31.6-9.9,48.5s3.3,33.1,9.9,48.5s15.5,28.7,26.8,40
	s24.6,20.2,40,26.8C123.4,371.4,139.5,374.7,156.5,374.7z"/>
</svg>
