<?xml version="1.0" encoding="utf-8"?>
<!-- Generator: Adobe Illustrator 18.0.0, SVG Export Plug-In . SVG Version: 6.00 Build 0)  -->
<!DOCTYPE svg PUBLIC "-//W3C//DTD SVG 1.1//EN" "http://www.w3.org/Graphics/SVG/1.1/DTD/svg11.dtd">
<svg version="1.1" id="图层_1" xmlns="http://www.w3.org/2000/svg" xmlns:xlink="http://www.w3.org/1999/xlink" x="0px" y="0px"
	 viewBox="0 0 500 500" enable-background="new 0 0 500 500" xml:space="preserve">
<path fill="#999999" d="M320.6,88.2c27,13.4,48.7,33,65.2,58.7c16.5,25.8,24.7,54.2,24.7,85.2c0,41.1-13.7,76.9-41.2,107.3
	c-27.4,30.4-61.3,47.9-101.7,52.3v36.8h26.8c2.6,0,4.7,0.8,6.4,2.5s2.5,3.8,2.5,6.4v17.9c0,2.6-0.8,4.7-2.5,6.4
	c-1.7,1.7-3.8,2.5-6.4,2.5h-26.8V491c0,2.6-0.8,4.7-2.5,6.4c-1.7,1.7-3.8,2.5-6.4,2.5h-17.9c-2.6,0-4.7-0.8-6.4-2.5
	s-2.5-3.8-2.5-6.4v-26.8h-26.8c-2.6,0-4.7-0.8-6.4-2.5c-1.7-1.7-2.5-3.8-2.5-6.4v-17.9c0-2.6,0.8-4.7,2.5-6.4
	c1.7-1.7,3.8-2.5,6.4-2.5h26.8v-36.8c-40.4-4.5-74.3-21.9-101.7-52.3C102.7,309,89,273.3,89,232.1c0-31.1,8.2-59.5,24.7-85.2
	s38.2-45.3,65.2-58.7c-30.7-17.9-52-43.3-63.7-76.2c-1.1-3-0.8-5.7,1-8.2c1.8-2.5,4.2-3.8,7.4-3.8h19.3c3.9,0,6.6,1.9,8.1,5.6
	c8.2,19.7,21.2,35.6,39.1,47.7s37.8,18.1,59.7,18.1s41.9-6,59.7-18.1s30.9-28,39.1-47.7C350,1.9,353.4,0,358.8,0h17
	c3.2,0,5.6,1.3,7.4,3.8s2.1,5.3,1,8.2C372.5,44.9,351.3,70.3,320.6,88.2z M249.7,357.1c34.4,0,63.8-12.2,88.3-36.7
	s36.7-53.9,36.7-88.3s-12.2-63.8-36.7-88.3c-24.5-24.5-53.9-36.7-88.3-36.7s-63.8,12.2-88.3,36.7s-36.7,53.9-36.7,88.3
	s12.2,63.8,36.7,88.3S215.3,357.1,249.7,357.1z"/>
</svg>
