<?xml version="1.0" encoding="utf-8"?>
<!-- Generator: Adobe Illustrator 18.0.0, SVG Export Plug-In . SVG Version: 6.00 Build 0)  -->
<!DOCTYPE svg PUBLIC "-//W3C//DTD SVG 1.1//EN" "http://www.w3.org/Graphics/SVG/1.1/DTD/svg11.dtd">
<svg version="1.1" id="图层_1" xmlns="http://www.w3.org/2000/svg" xmlns:xlink="http://www.w3.org/1999/xlink" x="0px" y="0px"
	 viewBox="0 0 500 500" enable-background="new 0 0 500 500" xml:space="preserve">
<path fill="#999999" d="M400,124.8c0-2.4,0.8-4.4,2.3-6c1.6-1.6,3.6-2.3,6-2.3h75c4.5,0,8.4,1.6,11.7,4.9c3.3,3.3,4.9,7.2,4.9,11.7
	v75c0,2.4-0.8,4.4-2.3,6c-1.6,1.6-3.6,2.3-6,2.3H475c-2.4,0-4.4-0.8-6-2.3c-1.6-1.6-2.3-3.6-2.3-6v-34.9l-66.1,66.4
	c13.2,16.5,22.5,35.1,28,55.7c5.5,20.7,6.3,42.1,2.5,64.3c-5.4,31.6-19.8,58.7-43.2,81.2c-23.4,22.6-51,36.1-82.8,40.6
	c-36.5,5-69.8-1.9-100.1-20.8s-51.2-45-62.9-78.1c-20.3-1-39.5-6-57.5-15c-18.1-8.9-33.5-20.5-46.2-34.6
	C25.6,318.8,15.8,302,8.8,282.8s-9.7-39.2-8.3-59.9c1.6-23.4,8.3-45.3,20.3-65.6s27.6-36.9,47.2-49.8s41.1-20.7,64.6-23.3
	c20.5-2.4,40.2-0.8,59.2,4.9s36.2,14.7,51.7,26.8l66.4-66.1H275c-2.4,0-4.4-0.8-6-2.3c-1.6-1.6-2.3-3.6-2.3-6V24.8
	c0-2.4,0.8-4.4,2.3-6c1.5-1.6,3.6-2.3,6-2.3h75c4.5,0,8.4,1.6,11.7,4.9c3.3,3.3,4.9,7.2,4.9,11.7v75c0,2.4-0.8,4.4-2.3,6
	c-1.6,1.6-3.6,2.3-6,2.3h-16.7c-2.4,0-4.4-0.8-6-2.3c-1.6-1.6-2.3-3.6-2.3-6V73.3l-66.1,66.4c10.2,12.8,18.3,27.5,24.2,44
	c31.6,1.6,60.1,12.3,85.4,32.3l66.4-66.1h-34.9c-2.4,0-4.4-0.8-6-2.3c-1.6-1.6-2.3-3.6-2.3-6L400,124.8L400,124.8z M266.7,233.1
	c0-3.5-0.3-8.5-1-15.1c-28.1,4.3-51.6,17.4-70.6,39.1s-28.4,47-28.4,76c0,3.5,0.3,8.5,1,15.1c28.1-4.3,51.6-17.4,70.6-39.1
	S266.7,262.1,266.7,233.1z M33.4,233.1c0,29.2,9.6,54.7,28.9,76.5c19.3,21.9,43.2,34.9,71.9,38.9c-0.5-5-0.8-10.2-0.8-15.4
	c0-36.5,11.7-68.5,35.2-96.2s52.8-44.7,88-51.2c-9.2-20.8-23.4-37.6-42.6-50.3s-40.5-19-63.9-19c-32.1,0-59.6,11.4-82.4,34.2
	S33.4,201,33.4,233.1z M283.4,449.8c32.1,0,59.6-11.4,82.4-34.2c22.8-22.8,34.2-50.3,34.2-82.4c0-29.2-9.6-54.7-28.9-76.5
	s-43.2-34.8-71.9-38.8c0.5,5,0.8,10.2,0.8,15.4c0,36.5-11.7,68.5-35.2,96.2c-23.4,27.7-52.8,44.7-88,51.2
	c9.2,20.8,23.4,37.6,42.6,50.3C238.6,443.4,259.9,449.8,283.4,449.8z"/>
</svg>
