<?xml version="1.0" encoding="utf-8"?>
<!-- Generator: Adobe Illustrator 18.0.0, SVG Export Plug-In . SVG Version: 6.00 Build 0)  -->
<!DOCTYPE svg PUBLIC "-//W3C//DTD SVG 1.1//EN" "http://www.w3.org/Graphics/SVG/1.1/DTD/svg11.dtd">
<svg version="1.1" id="图层_1" xmlns="http://www.w3.org/2000/svg" xmlns:xlink="http://www.w3.org/1999/xlink" x="0px" y="0px"
	 viewBox="0 0 500 500" enable-background="new 0 0 500 500" xml:space="preserve">
<path fill="#999999" d="M267.5,179.7c40.4,4.5,74.3,21.9,101.7,52.3c27.4,30.4,41.2,66.2,41.2,107.3c0,31.1-8.1,59.5-24.3,85.4
	c-16.2,25.9-38.1,45.6-65.9,59.2s-57.4,18.6-89,15.1c-24.7-2.8-47.6-11-68.5-24.6s-37.8-31.1-50.7-52.5s-20.4-44.6-22.5-69.5
	c-2.2-28.8,2.7-56,14.6-81.5c12-25.5,29.3-46.3,51.9-62.5s47.9-25.8,75.8-28.7v-36.8h-44.6c-2.6,0-4.7-0.8-6.4-2.5
	c-1.7-1.7-2.5-3.8-2.5-6.4v-17.9c0-2.6,0.8-4.7,2.5-6.4c1.7-1.7,3.8-2.5,6.4-2.5h44.6v-46l-25.7,25.7c-1.9,1.7-4,2.5-6.4,2.5
	c-2.4,0-4.5-0.8-6.1-2.5l-12.8-13c-1.7-1.7-2.5-3.7-2.5-6.1s0.8-4.6,2.5-6.4l56.4-56.1c3.5-3.5,7.7-5.3,12.6-5.3
	c4.8,0,9,1.8,12.6,5.3l56.4,56.1c1.7,1.9,2.5,4,2.5,6.4s-0.8,4.5-2.5,6.1L306,86.7c-1.7,1.7-3.7,2.5-6.1,2.5c-2.4,0-4.6-0.8-6.4-2.5
	L267.8,61v46h44.6c2.6,0,4.7,0.8,6.4,2.5s2.5,3.8,2.5,6.4v17.9c0,2.6-0.8,4.7-2.5,6.4s-3.8,2.5-6.4,2.5h-44.6v37H267.5z
	 M249.7,464.3c34.4,0,63.9-12.2,88.3-36.7c24.5-24.5,36.7-53.9,36.7-88.3S362.5,275.4,338,251s-53.9-36.7-88.3-36.7
	s-63.9,12.2-88.3,36.7s-36.7,53.9-36.7,88.3s12.2,63.9,36.7,88.3C185.8,452.1,215.3,464.3,249.7,464.3z"/>
</svg>
