<?xml version="1.0" encoding="utf-8"?>
<!-- Generator: Adobe Illustrator 18.0.0, SVG Export Plug-In . SVG Version: 6.00 Build 0)  -->
<!DOCTYPE svg PUBLIC "-//W3C//DTD SVG 1.1//EN" "http://www.w3.org/Graphics/SVG/1.1/DTD/svg11.dtd">
<svg version="1.1" id="图层_1" xmlns="http://www.w3.org/2000/svg" xmlns:xlink="http://www.w3.org/1999/xlink" x="0px" y="0px"
	 viewBox="0 0 500 500" enable-background="new 0 0 500 500" xml:space="preserve">
<path fill="#999999" d="M410.4,160.7c0,41.1-13.7,76.9-41.2,107.3c-27.4,30.4-61.3,47.9-101.7,52.3v170.8c0,2.6-0.8,4.7-2.5,6.4
	c-1.7,1.7-3.8,2.5-6.4,2.5h-17.9c-2.6,0-4.7-0.8-6.4-2.5s-2.5-3.8-2.5-6.4V320.3c-40.4-4.5-74.3-21.9-101.7-52.3S89,201.8,89,160.7
	c0-21.8,4.2-42.6,12.7-62.4S121.6,61.4,136,47s31.5-25.9,51.3-34.3S228,0,249.7,0s42.6,4.2,62.4,12.7S349,32.6,363.4,47
	s25.9,31.5,34.3,51.3C406.2,118.2,410.4,139,410.4,160.7z M249.7,285.7c34.4,0,63.8-12.2,88.3-36.7s36.7-53.9,36.7-88.3
	S362.5,96.9,338,72.4s-53.9-36.7-88.3-36.7s-63.8,12.2-88.3,36.7s-36.7,53.9-36.7,88.3s12.2,63.8,36.7,88.3S215.3,285.7,249.7,285.7
	z"/>
</svg>
