<?xml version="1.0" encoding="utf-8"?>
<!-- Generator: Adobe Illustrator 18.0.0, SVG Export Plug-In . SVG Version: 6.00 Build 0)  -->
<!DOCTYPE svg PUBLIC "-//W3C//DTD SVG 1.1//EN" "http://www.w3.org/Graphics/SVG/1.1/DTD/svg11.dtd">
<svg version="1.1" id="图层_1" xmlns="http://www.w3.org/2000/svg" xmlns:xlink="http://www.w3.org/1999/xlink" x="0px" y="0px"
	 viewBox="0 0 500 500" enable-background="new 0 0 500 500" xml:space="preserve">
<path fill="#999999" d="M357.1,8.9c0-2.6,0.8-4.7,2.5-6.4s3.8-2.5,6.4-2.5h116.1c4.8,0,9,1.8,12.6,5.3S500,13,500,17.9v116.1
	c0,2.6-0.8,4.7-2.5,6.4c-1.7,1.7-3.8,2.5-6.4,2.5h-17.9c-2.6,0-4.7-0.8-6.4-2.5c-1.7-1.7-2.5-3.8-2.5-6.4V60.8L347.4,178
	c16.2,19.3,28.2,41.3,36.1,66s10.7,50.4,8.5,77.2c-4.1,46.5-22.7,86.6-55.9,120.3s-73.1,52.8-119.6,57.5c-30.3,3.2-59.5-0.5-87.6-11
	c-28.1-10.5-51.9-25.6-71.6-45.2c-19.6-19.6-34.7-43.5-45.2-71.6C1.6,343-2.1,313.8,1.1,283.5c4.7-46.5,23.8-86.4,57.5-119.6
	s73.8-51.9,120.3-55.9c26.8-2.2,52.5,0.6,77.2,8.5s46.6,20,66,36.1L438.9,35.7h-72.8c-2.6,0-4.7-0.8-6.4-2.5
	c-1.7-1.7-2.5-3.8-2.5-6.4V8.9z M196.4,464.3c21.8,0,42.6-4.2,62.4-12.7s36.9-19.9,51.3-34.3c14.4-14.4,25.9-31.5,34.3-51.3
	c8.5-19.8,12.7-40.6,12.7-62.4s-4.2-42.6-12.7-62.4c-8.5-19.8-19.9-36.9-34.3-51.3c-14.4-14.4-31.5-25.9-51.3-34.3
	c-19.8-8.5-40.6-12.7-62.4-12.7s-42.6,4.2-62.4,12.7c-19.8,8.5-36.9,19.9-51.3,34.3s-25.9,31.5-34.3,51.3s-12.7,40.6-12.7,62.4
	s4.2,42.6,12.7,62.4c8.5,19.8,19.9,36.9,34.3,51.3c14.4,14.4,31.5,25.9,51.3,34.3S174.7,464.3,196.4,464.3z"/>
</svg>
