<?xml version="1.0" encoding="utf-8"?>
<!-- Generator: Adobe Illustrator 18.0.0, SVG Export Plug-In . SVG Version: 6.00 Build 0)  -->
<!DOCTYPE svg PUBLIC "-//W3C//DTD SVG 1.1//EN" "http://www.w3.org/Graphics/SVG/1.1/DTD/svg11.dtd">
<svg version="1.1" id="图层_1" xmlns="http://www.w3.org/2000/svg" xmlns:xlink="http://www.w3.org/1999/xlink" x="0px" y="0px"
	 viewBox="0 0 500 500" enable-background="new 0 0 500 500" xml:space="preserve">
<path fill="#999999" d="M156.3,369.9l-13.7,13.7c-1.8,1.8-3.9,2.7-6.3,2.7c-2.4,0-4.5-0.9-6.3-2.7L2.7,256.3
	C0.9,254.5,0,252.4,0,250c0-2.4,0.9-4.5,2.7-6.3l127.3-127.3c1.8-1.8,3.9-2.7,6.3-2.7c2.4,0,4.5,0.9,6.3,2.7l13.7,13.7
	c1.8,1.8,2.7,3.9,2.7,6.3c0,2.4-0.9,4.5-2.7,6.3L48.9,250l107.4,107.4c1.8,1.8,2.7,3.9,2.7,6.3C159,366,158.1,368.1,156.3,369.9
	L156.3,369.9z M317.8,78.4L215.8,431.1c-0.7,2.4-2.1,4.1-4.2,5.3c-2.1,1.2-4.2,1.4-6.4,0.7l-16.9-4.6c-2.4-0.7-4.1-2.1-5.3-4.2
	c-1.2-2.1-1.4-4.3-0.7-6.7L284.2,68.9c0.7-2.4,2.1-4.1,4.2-5.3c2.1-1.2,4.2-1.4,6.4-0.7l16.9,4.6c2.4,0.7,4.1,2.1,5.3,4.2
	C318.3,73.8,318.5,76,317.8,78.4L317.8,78.4z M497.3,256.3L369.9,383.6c-1.8,1.8-3.9,2.7-6.3,2.7c-2.4,0-4.5-0.9-6.3-2.7l-13.7-13.7
	c-1.8-1.8-2.7-3.9-2.7-6.3c0-2.4,0.9-4.5,2.7-6.3L451.1,250L343.7,142.6c-1.8-1.8-2.7-3.9-2.7-6.3c0-2.4,0.9-4.5,2.7-6.3l13.7-13.7
	c1.8-1.8,3.9-2.7,6.3-2.7c2.4,0,4.5,0.9,6.3,2.7l127.3,127.3c1.8,1.8,2.7,3.9,2.7,6.3C500,252.4,499.1,254.5,497.3,256.3
	L497.3,256.3z"/>
</svg>
