<?xml version="1.0" encoding="utf-8"?>
<!-- Generator: Adobe Illustrator 18.0.0, SVG Export Plug-In . SVG Version: 6.00 Build 0)  -->
<!DOCTYPE svg PUBLIC "-//W3C//DTD SVG 1.1//EN" "http://www.w3.org/Graphics/SVG/1.1/DTD/svg11.dtd">
<svg version="1.1" id="图层_1" xmlns="http://www.w3.org/2000/svg" xmlns:xlink="http://www.w3.org/1999/xlink" x="0px" y="0px"
	 viewBox="0 0 500 500" enable-background="new 0 0 500 500" xml:space="preserve">
<path fill="#999999" d="M395.5,190.9v118.2c0,7.6-2.7,14-8,19.3c-5.3,5.3-11.7,8-19.3,8s-14-2.7-19.3-8c-5.3-5.3-8-11.7-8-19.3v-100
	h-18.2v259.1c0,8.7-3.1,16.2-9.4,22.4c-6.3,6.2-13.7,9.4-22.4,9.4s-16.2-3.1-22.4-9.4c-6.3-6.3-9.4-13.7-9.4-22.4V336.4h-18.2v131.8
	c0,8.7-3.1,16.2-9.4,22.4c-6.2,6.2-13.7,9.4-22.4,9.4c-8.7,0-16.2-3.1-22.4-9.4c-6.3-6.3-9.4-13.7-9.4-22.4V209.1h-18.2v100
	c0,7.6-2.7,14-8,19.3c-5.3,5.3-11.7,8-19.3,8c-7.6,0-14-2.7-19.3-8s-8-11.7-8-19.3V190.9c0-15.2,5.3-28,15.9-38.6
	c10.6-10.6,23.5-15.9,38.6-15.9h181.8c15.2,0,28,5.3,38.6,15.9C390.2,162.9,395.5,175.8,395.5,190.9L395.5,190.9z M313.6,63.6
	c0,17.6-6.2,32.6-18.6,45c-12.4,12.4-27.4,18.6-45,18.6s-32.6-6.2-45-18.6s-18.6-27.4-18.6-45s6.2-32.6,18.6-45S232.4,0,250,0
	s32.6,6.2,45,18.6C307.4,31,313.6,46,313.6,63.6L313.6,63.6z"/>
</svg>
