<?xml version="1.0" encoding="utf-8"?>
<!-- Generator: Adobe Illustrator 18.0.0, SVG Export Plug-In . SVG Version: 6.00 Build 0)  -->
<!DOCTYPE svg PUBLIC "-//W3C//DTD SVG 1.1//EN" "http://www.w3.org/Graphics/SVG/1.1/DTD/svg11.dtd">
<svg version="1.1" id="图层_1" xmlns="http://www.w3.org/2000/svg" xmlns:xlink="http://www.w3.org/1999/xlink" x="0px" y="0px"
	 viewBox="0 0 500 500" enable-background="new 0 0 500 500" xml:space="preserve">
<path fill="#999999" d="M166.7,166.7c0,13.9-4.9,25.7-14.6,35.4s-21.5,14.6-35.4,14.6s-25.7-4.9-35.4-14.6s-14.6-21.5-14.6-35.4
	c0-13.9,4.9-25.7,14.6-35.4s21.5-14.6,35.4-14.6s25.7,4.9,35.4,14.6S166.7,152.8,166.7,166.7L166.7,166.7z M433.3,266.7v116.7H66.7
	v-50L150,250l41.7,41.7L325,158.3L433.3,266.7z M458.3,83.3H41.7c-2.3,0-4.2,0.8-5.9,2.5c-1.6,1.6-2.5,3.6-2.5,5.9v316.7
	c0,2.3,0.8,4.2,2.5,5.9c1.6,1.6,3.6,2.5,5.9,2.5h416.7c2.3,0,4.2-0.8,5.9-2.5s2.5-3.6,2.5-5.9V91.7c0-2.3-0.8-4.2-2.5-5.9
	C462.5,84.2,460.6,83.3,458.3,83.3L458.3,83.3z M500,91.7v316.7c0,11.5-4.1,21.3-12.2,29.4c-8.2,8.2-18,12.2-29.4,12.2H41.7
	c-11.5,0-21.3-4.1-29.4-12.2C4.1,429.6,0,419.8,0,408.3V91.7c0-11.5,4.1-21.3,12.2-29.4c8.2-8.2,18-12.2,29.4-12.2h416.7
	c11.5,0,21.3,4.1,29.4,12.2C495.9,70.4,500,80.2,500,91.7L500,91.7z"/>
</svg>
