<?xml version="1.0" encoding="utf-8"?>
<!-- Generator: Adobe Illustrator 18.0.0, SVG Export Plug-In . SVG Version: 6.00 Build 0)  -->
<!DOCTYPE svg PUBLIC "-//W3C//DTD SVG 1.1//EN" "http://www.w3.org/Graphics/SVG/1.1/DTD/svg11.dtd">
<svg version="1.1" id="图层_1" xmlns="http://www.w3.org/2000/svg" xmlns:xlink="http://www.w3.org/1999/xlink" x="0px" y="0px"
	 viewBox="0 0 500 500" enable-background="new 0 0 500 500" xml:space="preserve">
<path fill="#999999" d="M187.5,406.3V177.1c0-3-1-5.5-2.9-7.5c-2-2-4.4-2.9-7.5-2.9h-20.8c-3,0-5.5,1-7.5,2.9c-2,2-2.9,4.4-2.9,7.5
	v229.2c0,3,1,5.5,2.9,7.5c2,2,4.4,2.9,7.5,2.9h20.8c3,0,5.5-1,7.5-2.9C186.5,411.8,187.5,409.3,187.5,406.3L187.5,406.3z
	 M270.8,406.3V177.1c0-3-1-5.5-2.9-7.5c-2-2-4.4-2.9-7.5-2.9h-20.8c-3,0-5.5,1-7.5,2.9c-2,2-2.9,4.4-2.9,7.5v229.2
	c0,3,1,5.5,2.9,7.5c2,2,4.4,2.9,7.5,2.9h20.8c3,0,5.5-1,7.5-2.9C269.9,411.8,270.8,409.3,270.8,406.3L270.8,406.3z M354.2,406.3
	V177.1c0-3-1-5.5-2.9-7.5c-2-2-4.4-2.9-7.5-2.9h-20.8c-3,0-5.5,1-7.5,2.9c-2,2-2.9,4.4-2.9,7.5v229.2c0,3,1,5.5,2.9,7.5
	c2,2,4.4,2.9,7.5,2.9h20.8c3,0,5.5-1,7.5-2.9C353.2,411.8,354.2,409.3,354.2,406.3L354.2,406.3z M177.1,83.3h145.8l-15.6-38.1
	c-1.5-2-3.4-3.1-5.5-3.6H198.6c-2.2,0.4-4,1.6-5.5,3.6L177.1,83.3z M479.2,93.8v20.8c0,3-1,5.5-2.9,7.5c-2,2-4.4,2.9-7.5,2.9h-31.3
	v308.6c0,18-5.1,33.6-15.3,46.7C412,493.4,399.7,500,385.4,500H114.6c-14.3,0-26.6-6.3-36.8-19c-10.2-12.7-15.3-28-15.3-46.1V125
	H31.2c-3,0-5.5-1-7.5-2.9c-2-2-2.9-4.4-2.9-7.5V93.8c0-3,1-5.5,2.9-7.5c2-2,4.4-2.9,7.5-2.9h100.6L154.6,29
	c3.3-8,9.1-14.9,17.6-20.5c8.5-5.6,17-8.5,25.7-8.5h104.2c8.7,0,17.3,2.8,25.7,8.5c8.5,5.6,14.3,12.5,17.6,20.5l22.8,54.4h100.6
	c3,0,5.5,1,7.5,2.9C478.2,88.2,479.2,90.7,479.2,93.8L479.2,93.8z"/>
</svg>
