<?xml version="1.0" encoding="utf-8"?>
<!-- Generator: Adobe Illustrator 18.0.0, SVG Export Plug-In . SVG Version: 6.00 Build 0)  -->
<!DOCTYPE svg PUBLIC "-//W3C//DTD SVG 1.1//EN" "http://www.w3.org/Graphics/SVG/1.1/DTD/svg11.dtd">
<svg version="1.1" id="图层_1" xmlns="http://www.w3.org/2000/svg" xmlns:xlink="http://www.w3.org/1999/xlink" x="0px" y="0px"
	 viewBox="0 0 500 500" enable-background="new 0 0 500 500" xml:space="preserve">
<path fill="#999999" d="M307.7,201.9v19.2c0,2.6-1,4.9-2.9,6.8c-1.9,1.9-4.2,2.9-6.8,2.9h-67.3v67.3c0,2.6-1,4.9-2.9,6.8
	c-1.9,1.9-4.2,2.9-6.8,2.9h-19.2c-2.6,0-4.9-1-6.8-2.9c-1.9-1.9-2.9-4.2-2.9-6.8v-67.3H125c-2.6,0-4.9-1-6.8-2.9
	c-1.9-1.9-2.9-4.2-2.9-6.8v-19.2c0-2.6,1-4.9,2.9-6.8c1.9-1.9,4.2-2.9,6.8-2.9h67.3V125c0-2.6,1-4.9,2.9-6.8
	c1.9-1.9,4.2-2.9,6.8-2.9h19.2c2.6,0,4.9,1,6.8,2.9c1.9,1.9,2.9,4.2,2.9,6.8v67.3h67.3c2.6,0,4.9,1,6.8,2.9
	C306.7,197.1,307.7,199.3,307.7,201.9L307.7,201.9z M346.2,211.5c0-37.1-13.2-68.8-39.5-95.1c-26.3-26.3-58-39.5-95.1-39.5
	s-68.8,13.2-95.1,39.5c-26.3,26.3-39.5,58-39.5,95.1s13.2,68.8,39.5,95.1c26.3,26.3,58,39.5,95.1,39.5s68.8-13.2,95.1-39.5
	S346.2,248.6,346.2,211.5L346.2,211.5z M500,461.5c0,10.6-3.8,19.7-11.3,27.2c-7.5,7.5-16.6,11.3-27.2,11.3
	c-10.8,0-19.8-3.8-27-11.4L331.4,385.8c-35.9,24.8-75.8,37.3-119.9,37.3c-28.6,0-56-5.6-82.2-16.7c-26.1-11.1-48.7-26.1-67.6-45.1
	s-34-41.5-45.1-67.6C5.6,267.6,0,240.2,0,211.5c0-28.6,5.6-56,16.7-82.2c11.1-26.1,26.1-48.7,45.1-67.6s41.5-34,67.6-45.1
	C155.5,5.6,182.9,0,211.5,0c28.6,0,56,5.6,82.2,16.7c26.1,11.1,48.7,26.1,67.6,45.1s34,41.5,45.1,67.6
	c11.1,26.1,16.7,53.5,16.7,82.2c0,44.1-12.4,84-37.3,119.9l103.1,103.1C496.3,441.9,500,450.9,500,461.5L500,461.5z"/>
</svg>
