<?xml version="1.0" encoding="utf-8"?>
<!-- Generator: Adobe Illustrator 18.0.0, SVG Export Plug-In . SVG Version: 6.00 Build 0)  -->
<!DOCTYPE svg PUBLIC "-//W3C//DTD SVG 1.1//EN" "http://www.w3.org/Graphics/SVG/1.1/DTD/svg11.dtd">
<svg version="1.1" id="图层_1" xmlns="http://www.w3.org/2000/svg" xmlns:xlink="http://www.w3.org/1999/xlink" x="0px" y="0px"
	 viewBox="0 0 500 500" enable-background="new 0 0 500 500" xml:space="preserve">
<path fill="#999999" d="M416.7,346.7c0-2.4-0.2-4.1-0.7-5.2c-0.7-1.7-4.8-4.9-12.5-9.6c-7.7-4.7-17.3-10-28.8-16.1l-17.3-9.4
	c-1.1-0.7-3.1-2.1-6.2-4.2c-3-2.2-5.8-3.8-8.1-4.9c-2.4-1.1-4.7-1.6-6.8-1.6c-3.9,0-9,3.5-15.3,10.6c-6.3,7.1-12.5,14.2-18.6,21.3
	c-6.1,7.2-10.9,10.7-14.3,10.7c-1.5,0-3.3-0.4-5.4-1.1c-2.1-0.8-3.7-1.5-5-2.1c-1.3-0.7-3.1-1.7-5.5-3.1c-2.4-1.4-3.9-2.3-4.6-2.8
	c-21.5-11.9-40-25.7-55.5-41.2s-29.2-34-41.2-55.5c-0.4-0.7-1.4-2.2-2.8-4.6s-2.4-4.2-3.1-5.5c-0.7-1.3-1.4-3-2.1-5
	c-0.8-2.1-1.1-3.9-1.1-5.4c0-2.8,2.2-6.5,6.7-10.9s9.3-8.6,14.6-12.5s10.2-8.2,14.6-12.9c4.4-4.7,6.7-8.6,6.7-11.9
	c0-2.2-0.5-4.4-1.6-6.8c-1.1-2.4-2.7-5.1-4.9-8.1c-2.2-3-3.6-5.1-4.2-6.2c-0.7-1.3-2.3-4.4-4.9-9.3c-2.6-4.9-5.3-9.8-8.1-14.8
	c-2.8-5-5.7-10.1-8.6-15.5s-5.6-9.7-8.1-13.2s-4.3-5.4-5.4-5.9c-1.1-0.4-2.8-0.7-5.2-0.7c-10.4,0-21.4,2.4-32.9,7.2
	c-10,4.6-18.7,14.8-26,30.8c-7.4,16-11.1,30.1-11.1,42.5c0,3.5,0.3,7.2,0.8,11.1c0.5,3.9,1.1,7.2,1.6,9.9c0.5,2.7,1.5,6.3,2.9,10.7
	c1.4,4.4,2.5,7.6,3.3,9.6c0.8,2,2.1,5.5,4.1,10.7s3.1,8.5,3.6,9.8c13,35.6,36.5,70.4,70.5,104.3s68.7,57.5,104.3,70.5
	c1.3,0.4,4.6,1.6,9.8,3.6s8.8,3.3,10.7,4.1c2,0.8,5.2,1.8,9.6,3.3c4.4,1.4,8,2.4,10.7,2.9c2.7,0.5,6,1.1,9.9,1.6
	c3.9,0.5,7.6,0.8,11.1,0.8c12.4,0,26.5-3.7,42.5-11.1c16-7.4,26.2-16.1,30.8-26C414.3,368.1,416.7,357.1,416.7,346.7L416.7,346.7z
	 M500,93.8v312.5c0,25.8-9.2,47.9-27.5,66.2c-18.3,18.3-40.4,27.5-66.2,27.5H93.8c-25.8,0-47.9-9.2-66.2-27.5
	C9.2,454.2,0,432.1,0,406.3V93.8c0-25.8,9.2-47.9,27.5-66.2S67.9,0,93.8,0h312.5c25.8,0,47.9,9.2,66.2,27.5
	C490.8,45.8,500,67.9,500,93.8L500,93.8z"/>
</svg>
