<?xml version="1.0" encoding="utf-8"?>
<!-- Generator: Adobe Illustrator 18.0.0, SVG Export Plug-In . SVG Version: 6.00 Build 0)  -->
<!DOCTYPE svg PUBLIC "-//W3C//DTD SVG 1.1//EN" "http://www.w3.org/Graphics/SVG/1.1/DTD/svg11.dtd">
<svg version="1.1" id="图层_1" xmlns="http://www.w3.org/2000/svg" xmlns:xlink="http://www.w3.org/1999/xlink" x="0px" y="0px"
	 viewBox="0 0 500 500" enable-background="new 0 0 500 500" xml:space="preserve">
<path fill="#999999" d="M500,394.9c0,6.4-1.2,14.7-3.6,25c-2.4,10.3-4.9,18.4-7.5,24.3c-5,11.8-19.4,24.4-43.3,37.6
	C423.4,494,401.4,500,379.6,500c-6.4,0-12.6-0.4-18.6-1.2c-6-0.8-12.8-2.3-20.4-4.4c-7.6-2.1-13.2-3.8-16.9-5.1
	c-3.7-1.3-10.2-3.7-19.7-7.3c-9.5-3.6-15.3-5.7-17.4-6.4c-23.2-8.3-43.9-18.1-62.1-29.5c-30.3-18.7-61.6-44.2-93.9-76.5
	S72.7,305.9,54,275.6c-11.4-18.2-21.2-38.9-29.5-62.1c-0.7-2.1-2.8-7.9-6.4-17.4c-3.6-9.5-6-16-7.3-19.7c-1.3-3.7-3-9.3-5.1-16.9
	c-2.1-7.6-3.6-14.4-4.4-20.4C0.4,133,0,126.8,0,120.4c0-21.8,6-43.8,18.1-66.1C31.4,30.4,43.9,16,55.8,11c5.9-2.6,14-5.1,24.3-7.5
	C90.4,1.2,98.7,0,105.1,0c3.3,0,5.8,0.4,7.5,1.1c4.3,1.4,10.5,10.4,18.8,27c2.6,4.5,6.2,10.9,10.7,19.2s8.6,15.8,12.4,22.5
	c3.8,6.7,7.5,13.1,11,19c0.7,0.9,2.8,3.9,6.2,8.9c3.4,5,6,9.2,7.6,12.6s2.5,6.8,2.5,10.1c0,4.7-3.4,10.7-10.1,17.8
	c-6.7,7.1-14.1,13.6-22,19.5c-7.9,5.9-15.3,12.2-22,18.8c-6.7,6.6-10.1,12.1-10.1,16.3c0,2.1,0.6,4.8,1.8,8c1.2,3.2,2.2,5.6,3,7.3
	c0.8,1.7,2.5,4.5,5,8.5c2.5,4,3.8,6.3,4.1,6.7c18,32.4,38.6,60.3,61.8,83.5c23.2,23.2,51,43.8,83.5,61.8c0.5,0.2,2.7,1.6,6.7,4.1
	c4,2.5,6.9,4.1,8.5,5c1.7,0.8,4.1,1.8,7.3,3c3.2,1.2,5.9,1.8,8,1.8c4.3,0,9.7-3.4,16.3-10.1c6.6-6.7,12.9-14.1,18.8-22
	c5.9-7.9,12.4-15.3,19.5-22c7.1-6.7,13-10.1,17.8-10.1c3.3,0,6.7,0.8,10.1,2.5c3.4,1.7,7.6,4.2,12.6,7.6c5,3.4,7.9,5.5,8.9,6.2
	c5.9,3.6,12.3,7.2,19,11c6.7,3.8,14.3,7.9,22.5,12.4c8.3,4.5,14.7,8,19.2,10.7c16.6,8.3,25.6,14.6,27,18.8
	C499.6,389.1,500,391.6,500,394.9L500,394.9z"/>
</svg>
