<?xml version="1.0" encoding="utf-8"?>
<!-- Generator: Adobe Illustrator 18.0.0, SVG Export Plug-In . SVG Version: 6.00 Build 0)  -->
<!DOCTYPE svg PUBLIC "-//W3C//DTD SVG 1.1//EN" "http://www.w3.org/Graphics/SVG/1.1/DTD/svg11.dtd">
<svg version="1.1" id="图层_1" xmlns="http://www.w3.org/2000/svg" xmlns:xlink="http://www.w3.org/1999/xlink" x="0px" y="0px"
	 viewBox="0 0 500 500" enable-background="new 0 0 500 500" xml:space="preserve">
<path fill="#999999" d="M254.5,473.2c0-3-1.5-4.5-4.5-4.5c-11,0-20.4-4-28.3-11.9s-11.9-17.3-11.9-28.3c0-3-1.5-4.5-4.5-4.5
	s-4.5,1.5-4.5,4.5c0,13.6,4.8,25.2,14.4,34.7c9.6,9.6,21.2,14.4,34.7,14.4C253,477.7,254.5,476.2,254.5,473.2z M68.6,392.9h362.7
	c-49.5-55.8-74.2-133.2-74.2-232.1c0-9.5-2.2-19.3-6.7-29.3c-4.5-10-10.9-19.6-19.3-28.7c-8.4-9.1-19.7-16.6-33.9-22.5
	c-14.2-5.9-30-8.8-47.3-8.8s-33.1,2.9-47.3,8.8c-14.2,5.9-25.5,13.3-33.9,22.5c-8.4,9.1-14.8,18.7-19.3,28.7
	c-4.5,10-6.7,19.8-6.7,29.3C142.9,259.7,118.1,337.1,68.6,392.9z M482.1,392.9c0,9.7-3.5,18-10.6,25.1c-7.1,7.1-15.4,10.6-25.1,10.6
	h-125c0,19.7-7,36.6-20.9,50.5S269.7,500,250,500s-36.6-7-50.5-20.9c-14-14-20.9-30.8-20.9-50.5h-125c-9.7,0-18-3.5-25.1-10.6
	s-10.6-15.4-10.6-25.1c9.3-7.8,17.8-16,25.4-24.6c7.6-8.6,15.5-19.7,23.7-33.3s15.1-28.4,20.8-44.2c5.7-15.8,10.3-35,14-57.5
	c3.6-22.5,5.4-46.7,5.4-72.5c0-28.3,10.9-54.5,32.6-78.8s50.3-39,85.7-44.2c-1.5-3.5-2.2-7.2-2.2-10.9c0-7.4,2.6-13.8,7.8-19
	c5.2-5.2,11.5-7.8,19-7.8c7.4,0,13.8,2.6,19,7.8s7.8,11.5,7.8,19c0,3.7-0.7,7.3-2.2,10.9c35.3,5.2,63.9,19.9,85.7,44.2
	c21.8,24.3,32.6,50.5,32.6,78.8c0,25.9,1.8,50,5.4,72.5c3.6,22.5,8.3,41.7,14,57.5c5.7,15.8,12.6,30.6,20.8,44.2
	s16.1,24.8,23.7,33.3C464.4,376.9,472.8,385,482.1,392.9z"/>
</svg>
