<?xml version="1.0" encoding="utf-8"?>
<!-- Generator: Adobe Illustrator 18.0.0, SVG Export Plug-In . SVG Version: 6.00 Build 0)  -->
<!DOCTYPE svg PUBLIC "-//W3C//DTD SVG 1.1//EN" "http://www.w3.org/Graphics/SVG/1.1/DTD/svg11.dtd">
<svg version="1.1" id="图层_1" xmlns="http://www.w3.org/2000/svg" xmlns:xlink="http://www.w3.org/1999/xlink" x="0px" y="0px"
	 viewBox="0 0 500 500" enable-background="new 0 0 500 500" xml:space="preserve">
<path fill="#999999" d="M247.2,127.6c0-15.8-5.5-29.3-16.6-40.4c-11.1-11.1-24.6-16.6-40.4-16.6s-29.3,5.5-40.4,16.6
	c-11.1,11.1-16.6,24.6-16.6,40.4c0,8.3,1.9,16.5,5.6,24.7c-8.1-3.8-16.3-5.6-24.7-5.6c-15.8,0-29.3,5.5-40.4,16.6S57,187.8,57,203.7
	s5.5,29.3,16.6,40.4c11.1,11.1,24.6,16.6,40.4,16.6c15.8,0,29.3-5.5,40.4-16.6c11.1-11.1,16.6-24.6,16.6-40.4
	c0-8.3-1.9-16.5-5.6-24.7c8.1,3.8,16.3,5.6,24.7,5.6c15.8,0,29.3-5.5,40.4-16.6C241.6,156.9,247.2,143.4,247.2,127.6L247.2,127.6z
	 M500,336.7c0,3.4-4.9,9.9-14.6,19.6c-9.7,9.7-16.2,14.6-19.6,14.6c-1.8,0-4.6-1.6-8.5-4.8c-3.9-3.2-7.5-6.4-10.8-9.8
	c-3.4-3.4-7.2-7.3-11.4-11.9c-4.3-4.6-6.7-7.1-7.3-7.7l-28.5,28.5l65.4,65.4c5.5,5.5,8.3,12.3,8.3,20.2c0,8.3-3.9,16.3-11.6,24.1
	c-7.7,7.7-15.7,11.6-24.1,11.6c-7.9,0-14.7-2.8-20.2-8.3L217.8,278.8c-34.9,25.9-71,38.9-108.4,38.9c-32.3,0-58.6-10.2-78.9-30.5
	S0,240.7,0,208.4c0-31.7,9.4-62.7,28.2-93s43.4-54.9,73.7-73.7s61.3-28.2,93-28.2c32.3,0,58.6,10.2,78.9,30.5s30.5,46.6,30.5,78.9
	c0,37.4-13,73.6-38.9,108.4l105.5,105.5l28.5-28.5c-0.6-0.6-3.2-3-7.7-7.3c-4.6-4.3-8.5-8.1-11.9-11.4c-3.4-3.4-6.6-7-9.8-10.8
	c-3.2-3.9-4.8-6.7-4.8-8.5c0-3.4,4.9-9.9,14.6-19.6c9.7-9.7,16.2-14.6,19.6-14.6c2.6,0,4.9,1,6.8,3c1.2,1.2,5.7,5.6,13.7,13.2
	c7.9,7.6,16,15.5,24.4,23.6c8.3,8.1,16.9,16.6,25.7,25.5c8.8,8.9,16,16.6,21.7,23.2C497.2,331.1,500,335.2,500,336.7L500,336.7z"/>
</svg>
