<?xml version="1.0" encoding="utf-8"?>
<!-- Generator: Adobe Illustrator 18.0.0, SVG Export Plug-In . SVG Version: 6.00 Build 0)  -->
<!DOCTYPE svg PUBLIC "-//W3C//DTD SVG 1.1//EN" "http://www.w3.org/Graphics/SVG/1.1/DTD/svg11.dtd">
<svg version="1.1" id="图层_1" xmlns="http://www.w3.org/2000/svg" xmlns:xlink="http://www.w3.org/1999/xlink" x="0px" y="0px"
	 viewBox="0 0 500 500" enable-background="new 0 0 500 500" xml:space="preserve">
<path fill="#999999" d="M254,448.1c0-2.6-1.3-4-4-4c-9.7,0-18.1-3.5-25.1-10.5c-7-7-10.5-15.4-10.5-25.1c0-2.6-1.3-4-4-4s-4,1.3-4,4
	c0,12.1,4.3,22.3,12.8,30.8c8.5,8.5,18.8,12.8,30.8,12.8C252.6,452.1,254,450.8,254,448.1z M121,330.5l217.2-188.2
	c-6.9-14.5-17.9-26.6-32.8-36.3C290.4,96.3,272,91.5,250,91.5c-15.4,0-29.3,2.6-42,7.8c-12.6,5.2-22.7,11.8-30.1,19.9
	s-13.1,16.6-17.1,25.5c-4,8.9-5.9,17.6-5.9,26C154.9,234.2,143.6,287.4,121,330.5z M456,376.8c0,8.6-3.1,16-9.4,22.3
	c-6.3,6.3-13.7,9.4-22.3,9.4H313.4c0,17.5-6.2,32.4-18.6,44.8c-12.4,12.4-27.3,18.6-44.8,18.6s-32.4-6.1-44.7-18.4
	c-12.3-12.3-18.5-27.2-18.7-44.7l36.9-31.9H411c-27.4-30.9-46.1-68.8-56.2-113.7l27.5-24C392.3,297.9,416.9,343.8,456,376.8z
	 M477.3,32.1l20.8,23.8c1.3,1.7,1.9,3.6,1.9,5.8s-0.9,4.1-2.6,5.6L33.8,468.9c-1.7,1.3-3.6,1.9-5.8,1.7c-2.2-0.2-4-1.1-5.3-2.7
	L1.9,444.1c-1.3-1.7-1.9-3.6-1.9-5.8s0.9-4,2.6-5.3l46.1-39.9c-3.1-5.3-4.7-10.7-4.7-16.3c8.3-6.9,15.8-14.2,22.5-21.8
	s13.8-17.5,21-29.6s13.4-25.2,18.4-39.3s9.2-31,12.4-51s4.8-41.4,4.8-64.4c0-25.1,9.7-48.4,29-70s44.7-34.6,76-39.3
	c-1.3-3.1-2-6.4-2-9.7c0-6.6,2.3-12.2,6.9-16.8c4.6-4.6,10.2-6.9,16.8-6.9c6.6,0,12.2,2.3,16.8,6.9s6.9,10.2,6.9,16.8
	c0,3.3-0.7,6.5-2,9.7c20.5,3,38.5,9.8,54.2,20.4c15.7,10.6,27.9,23.6,36.7,39l103.5-89.9c1.7-1.3,3.6-1.9,5.8-1.7
	C474.2,29.5,476,30.4,477.3,32.1z"/>
</svg>
