<?xml version="1.0" encoding="utf-8"?>
<!-- Generator: Adobe Illustrator 18.0.0, SVG Export Plug-In . SVG Version: 6.00 Build 0)  -->
<!DOCTYPE svg PUBLIC "-//W3C//DTD SVG 1.1//EN" "http://www.w3.org/Graphics/SVG/1.1/DTD/svg11.dtd">
<svg version="1.1" id="图层_1" xmlns="http://www.w3.org/2000/svg" xmlns:xlink="http://www.w3.org/1999/xlink" x="0px" y="0px"
	 viewBox="0 0 500 500" enable-background="new 0 0 500 500" xml:space="preserve">
<path fill="#999999" d="M254.8,490.4c0-3.2-1.6-4.8-4.8-4.8c-11.8,0-22-4.3-30.5-12.8c-8.5-8.5-12.8-18.7-12.8-30.5
	c0-3.2-1.6-4.8-4.8-4.8c-3.2,0-4.8,1.6-4.8,4.8c0,14.6,5.2,27.1,15.5,37.4c10.3,10.3,22.8,15.5,37.4,15.5
	C253.2,495.2,254.8,493.6,254.8,490.4z M500,403.8c0,10.4-3.8,19.4-11.4,27c-7.6,7.6-16.6,11.4-27,11.4H326.9
	c0,21.2-7.5,39.4-22.5,54.4c-15,15-33.2,22.5-54.4,22.5s-39.4-7.5-54.4-22.5c-15-15-22.5-33.2-22.5-54.4H38.5
	c-10.4,0-19.4-3.8-27-11.4C3.8,423.3,0,414.3,0,403.8c10-8.4,19.1-17.2,27.3-26.4c8.2-9.2,16.7-21.2,25.5-35.9
	c8.8-14.7,16.3-30.6,22.4-47.6c6.1-17,11.1-37.7,15-61.9c3.9-24.2,5.9-50.3,5.9-78.1c0-30.4,11.7-58.7,35.2-84.9s54.2-42,92.2-47.6
	c-1.6-3.8-2.4-7.7-2.4-11.7c0-8,2.8-14.8,8.4-20.4s12.4-8.4,20.4-8.4c8,0,14.8,2.8,20.4,8.4c5.6,5.6,8.4,12.4,8.4,20.4
	c0,4-0.8,7.9-2.4,11.7c38.1,5.6,68.8,21.5,92.2,47.6s35.2,54.4,35.2,84.9c0,27.8,2,53.9,5.9,78.1c3.9,24.2,8.9,44.9,15,61.9
	c6.1,17,13.6,32.9,22.4,47.6c8.8,14.7,17.3,26.7,25.5,35.9C480.9,386.6,490,395.4,500,403.8z"/>
</svg>
