<?xml version="1.0" encoding="utf-8"?>
<!-- Generator: Adobe Illustrator 18.0.0, SVG Export Plug-In . SVG Version: 6.00 Build 0)  -->
<!DOCTYPE svg PUBLIC "-//W3C//DTD SVG 1.1//EN" "http://www.w3.org/Graphics/SVG/1.1/DTD/svg11.dtd">
<svg version="1.1" id="图层_1" xmlns="http://www.w3.org/2000/svg" xmlns:xlink="http://www.w3.org/1999/xlink" x="0px" y="0px"
	 viewBox="0 0 500 500" enable-background="new 0 0 500 500" xml:space="preserve">
<path fill="#999999" d="M267.9,73.7c0-4.8-1.8-9-5.3-12.6c-3.5-3.5-7.7-5.3-12.6-5.3s-9,1.8-12.6,5.3c-3.5,3.5-5.3,7.7-5.3,12.6
	c0,4.8,1.8,9,5.3,12.6c3.5,3.5,7.7,5.3,12.6,5.3s9-1.8,12.6-5.3C266.1,82.7,267.9,78.5,267.9,73.7z M500,332.6v98.2
	c0,4.1-1.9,6.9-5.6,8.4c-1.5,0.4-2.6,0.6-3.3,0.6c-2.4,0-4.6-0.8-6.4-2.5l-25.9-25.9c-22.1,26.6-51.8,47.7-88.9,63.2
	s-77.1,23.3-119.8,23.3s-82.7-7.8-119.8-23.3s-66.7-36.6-88.9-63.2l-25.9,25.9c-1.7,1.7-3.8,2.5-6.4,2.5c-0.7,0-1.9-0.2-3.3-0.6
	c-3.7-1.5-5.6-4.3-5.6-8.4v-98.2c0-2.6,0.8-4.7,2.5-6.4s3.8-2.5,6.4-2.5h98.2c4.1,0,6.9,1.9,8.4,5.6c1.5,3.5,0.8,6.8-2,9.8
	l-27.9,27.9c12.5,16.9,30.1,31.2,52.9,42.8s48,19.3,75.8,23V252.2h-53.6c-4.8,0-9-1.8-12.6-5.3c-3.5-3.5-5.3-7.7-5.3-12.6v-35.7
	c0-4.8,1.8-9,5.3-12.6c3.5-3.5,7.7-5.3,12.6-5.3h53.6v-45.5c-10.8-6.3-19.4-14.9-25.9-25.8s-9.8-22.8-9.8-35.9
	c0-19.7,7-36.6,20.9-50.5c14-14,30.8-20.9,50.5-20.9s36.6,7,50.5,20.9s20.9,30.8,20.9,50.5c0,13-3.3,25-9.8,35.9
	c-6.5,10.9-15.2,19.5-25.9,25.8v45.5h53.6c4.8,0,9,1.8,12.6,5.3c3.5,3.5,5.3,7.7,5.3,12.6v35.7c0,4.8-1.8,9-5.3,12.6
	c-3.5,3.5-7.7,5.3-12.6,5.3h-53.6v180.5c27.7-3.7,53-11.4,75.8-23c22.8-11.6,40.4-25.9,52.9-42.8L386.4,339c-2.8-3-3.4-6.2-2-9.8
	c1.5-3.7,4.3-5.6,8.4-5.6h98.2c2.6,0,4.7,0.8,6.4,2.5S500,330,500,332.6z"/>
</svg>
