<?xml version="1.0" encoding="utf-8"?>
<!-- Generator: Adobe Illustrator 18.0.0, SVG Export Plug-In . SVG Version: 6.00 Build 0)  -->
<!DOCTYPE svg PUBLIC "-//W3C//DTD SVG 1.1//EN" "http://www.w3.org/Graphics/SVG/1.1/DTD/svg11.dtd">
<svg version="1.1" id="图层_1" xmlns="http://www.w3.org/2000/svg" xmlns:xlink="http://www.w3.org/1999/xlink" x="0px" y="0px"
	 viewBox="0 0 500 500" enable-background="new 0 0 500 500" xml:space="preserve">
<path fill="#999999" d="M419.2,42.3H80.8v410.4l139.8-134.2l29.4-28.1l29.4,28.1l139.8,134.2V42.3z M423.2,0c5.1,0,9.9,1,14.5,3
	c7.3,2.9,13.1,7.4,17.3,13.5s6.4,13,6.4,20.5v426c0,7.5-2.1,14.3-6.4,20.5c-4.3,6.2-10.1,10.7-17.3,13.5c-4.2,1.8-9,2.6-14.5,2.6
	c-10.6,0-19.7-3.5-27.4-10.6L250,349L104.3,489.1c-7.9,7.3-17.1,10.9-27.4,10.9c-5.1,0-9.9-1-14.5-3c-7.3-2.9-13.1-7.4-17.3-13.5
	c-4.3-6.2-6.4-13-6.4-20.5V37c0-7.5,2.1-14.3,6.4-20.5S55,5.8,62.3,3c4.6-2,9.5-3,14.5-3H423.2z"/>
</svg>
