<?xml version="1.0" encoding="utf-8"?>
<!-- Generator: Adobe Illustrator 18.0.0, SVG Export Plug-In . SVG Version: 6.00 Build 0)  -->
<!DOCTYPE svg PUBLIC "-//W3C//DTD SVG 1.1//EN" "http://www.w3.org/Graphics/SVG/1.1/DTD/svg11.dtd">
<svg version="1.1" id="图层_1" xmlns="http://www.w3.org/2000/svg" xmlns:xlink="http://www.w3.org/1999/xlink" x="0px" y="0px"
	 viewBox="0 0 500 500" enable-background="new 0 0 500 500" xml:space="preserve">
<path fill="#999999" d="M178.6,107.1h142.9V71.4H178.6V107.1z M500,285.7v133.9c0,12.3-4.4,22.8-13.1,31.5
	c-8.7,8.7-19.3,13.1-31.5,13.1H44.6c-12.3,0-22.8-4.4-31.5-13.1S0,431.9,0,419.6V285.7h187.5v44.6c0,4.8,1.8,9,5.3,12.6
	c3.5,3.5,7.7,5.3,12.6,5.3h89.3c4.8,0,9-1.8,12.6-5.3c3.5-3.5,5.3-7.7,5.3-12.6v-44.6H500z M285.7,285.7v35.7h-71.4v-35.7H285.7z
	 M500,151.8v107.1H0V151.8c0-12.3,4.4-22.8,13.1-31.5s19.3-13.1,31.5-13.1h98.2V62.5c0-7.4,2.6-13.8,7.8-19c5.2-5.2,11.5-7.8,19-7.8
	h160.7c7.4,0,13.8,2.6,19,7.8s7.8,11.5,7.8,19v44.6h98.2c12.3,0,22.8,4.4,31.5,13.1C495.6,129,500,139.5,500,151.8z"/>
</svg>
