<?xml version="1.0" encoding="utf-8"?>
<!-- Generator: Adobe Illustrator 18.0.0, SVG Export Plug-In . SVG Version: 6.00 Build 0)  -->
<!DOCTYPE svg PUBLIC "-//W3C//DTD SVG 1.1//EN" "http://www.w3.org/Graphics/SVG/1.1/DTD/svg11.dtd">
<svg version="1.1" id="图层_1" xmlns="http://www.w3.org/2000/svg" xmlns:xlink="http://www.w3.org/1999/xlink" x="0px" y="0px"
	 viewBox="0 0 500 500" enable-background="new 0 0 500 500" xml:space="preserve">
<path fill="#999999" d="M461.6,300.1c10,5.6,16.4,14.1,19.4,25.2c2.9,11.2,1.6,21.8-4.1,31.7l-20.8,35.8
	c-5.6,10-14.1,16.4-25.2,19.4c-11.2,2.9-21.8,1.6-31.7-4.1l-86.6-49.8v99.9c0,11.3-4.1,21.1-12.4,29.3c-8.2,8.2-18,12.4-29.3,12.4
	h-41.7c-11.3,0-21.1-4.1-29.3-12.4c-8.2-8.2-12.4-18-12.4-29.3v-99.9l-86.6,49.8c-10,5.6-20.6,7-31.7,4.1s-19.6-9.4-25.2-19.4
	l-20.8-35.8c-5.6-10-7-20.6-4.1-31.7c2.9-11.2,9.4-19.6,19.4-25.2L125,250l-86.6-50.1c-10-5.6-16.4-14.1-19.4-25.2
	s-1.6-21.8,4.1-31.7l20.8-35.8c5.6-10,14.1-16.4,25.2-19.4s21.8-1.6,31.7,4.1l86.6,49.8V41.7c0-11.3,4.1-21.1,12.4-29.3
	S217.9,0,229.2,0h41.7c11.3,0,21.1,4.1,29.3,12.4c8.2,8.2,12.4,18,12.4,29.3v99.9l86.6-49.8c10-5.6,20.6-7,31.7-4.1
	c11.2,2.9,19.6,9.4,25.2,19.4l20.8,35.8c5.6,10,7,20.6,4.1,31.7s-9.4,19.6-19.4,25.2L375,250L461.6,300.1z"/>
</svg>
