<?xml version="1.0" encoding="utf-8"?>
<!-- Generator: Adobe Illustrator 18.0.0, SVG Export Plug-In . SVG Version: 6.00 Build 0)  -->
<!DOCTYPE svg PUBLIC "-//W3C//DTD SVG 1.1//EN" "http://www.w3.org/Graphics/SVG/1.1/DTD/svg11.dtd">
<svg version="1.1" id="图层_1" xmlns="http://www.w3.org/2000/svg" xmlns:xlink="http://www.w3.org/1999/xlink" x="0px" y="0px"
	 viewBox="0 0 500 500" enable-background="new 0 0 500 500" xml:space="preserve">
<path fill="#999999" d="M191.2,49c0-5.3-1.9-9.9-5.8-13.8c-3.9-3.9-8.5-5.8-13.8-5.8c-5.3,0-9.9,1.9-13.8,5.8
	c-3.9,3.9-5.8,8.5-5.8,13.8s1.9,9.9,5.8,13.8c3.9,3.9,8.5,5.8,13.8,5.8c5.3,0,9.9-1.9,13.8-5.8C189.2,58.9,191.2,54.3,191.2,49
	L191.2,49z M465.7,39.2v98c0,3.3-1.2,5.8-3.7,7.7c-1.6,1.4-3.7,2.1-6.1,2.1c-0.8,0-1.5-0.1-2.1-0.3l-137.3-29.4
	c-2.2-0.4-4.1-1.5-5.5-3.4c-1.4-1.8-2.1-3.9-2.1-6.1h-78.4v31.2c22.7,4.7,41.4,16,56.2,34s22.2,38.7,22.2,62.2v245.1
	c0,5.3-1.9,9.9-5.8,13.8s-8.5,5.8-13.8,5.8H132.4c-5.3,0-9.9-1.9-13.8-5.8c-3.9-3.9-5.8-8.5-5.8-13.8V235.3
	c0-21.7,6.4-41.1,19.1-58.4s29.3-29,49.5-35.1v-34h-9.8c-12.1,0-23.8,2.4-35.2,7.2c-11.4,4.8-20.8,10.2-28,16.2
	c-7.3,6-14,12.8-20.2,20.4c-6.2,7.6-10.4,13-12.4,16.4c-2,3.4-3.5,5.9-4.3,7.5c-3.5,7.1-9.3,10.7-17.5,10.7c-3.3,0-6.2-0.7-8.9-2.1
	c-4.7-2.5-7.9-6.2-9.7-11.3c-1.7-5.1-1.4-10.1,1.1-15c1-2,2.5-4.7,4.4-8c1.9-3.3,5.8-8.7,11.5-16.4c5.7-7.7,11.9-14.8,18.5-21.4
	c6.6-6.6,15.3-13.5,26-20.5c10.7-7,21.8-12.4,33.2-16.1c-5.1-8.6-7.7-17.4-7.7-26.3c0-13.5,4.8-25,14.4-34.6
	C146.6,4.8,158.1,0,171.6,0c13.5,0,25,4.8,34.6,14.4c9.6,9.6,14.4,21.1,14.4,34.6c0,6.7-1.4,13.3-4.3,19.6h92.5
	c0-2.2,0.7-4.3,2.1-6.1c1.4-1.8,3.3-3,5.5-3.4l137.3-29.4c0.6-0.2,1.3-0.3,2.1-0.3c2.5,0,4.5,0.7,6.1,2.1
	C464.5,33.4,465.7,35.9,465.7,39.2L465.7,39.2z"/>
</svg>
