<?xml version="1.0" encoding="utf-8"?>
<!-- Generator: Adobe Illustrator 18.0.0, SVG Export Plug-In . SVG Version: 6.00 Build 0)  -->
<!DOCTYPE svg PUBLIC "-//W3C//DTD SVG 1.1//EN" "http://www.w3.org/Graphics/SVG/1.1/DTD/svg11.dtd">
<svg version="1.1" id="图层_1" xmlns="http://www.w3.org/2000/svg" xmlns:xlink="http://www.w3.org/1999/xlink" x="0px" y="0px"
	 viewBox="0 0 500 500" enable-background="new 0 0 500 500" xml:space="preserve">
<path fill="#999999" d="M381.3,131.6c3.6,4,4.3,8.4,2.1,13.2L221.1,492.5c-2.6,5-6.8,7.5-12.6,7.5c-0.8,0-2.2-0.2-4.2-0.6
	c-3.4-1-6-2.9-7.7-5.7s-2.2-5.8-1.4-9l59.2-242.8l-122,30.3c-0.8,0.2-2,0.3-3.6,0.3c-3.6,0-6.7-1.1-9.3-3.3c-3.6-3-4.9-6.9-3.9-11.7
	L176.1,9.6c0.8-2.8,2.4-5.1,4.8-6.9c2.4-1.8,5.2-2.7,8.4-2.7h98.6c3.8,0,7,1.3,9.6,3.8c2.6,2.5,3.9,5.5,3.9,8.9
	c0,1.6-0.5,3.4-1.5,5.4l-51.4,139.1l119-29.4c1.6-0.4,2.8-0.6,3.6-0.6C374.9,127.1,378.3,128.6,381.3,131.6z"/>
</svg>
