<?xml version="1.0" encoding="utf-8"?>
<!-- Generator: Adobe Illustrator 18.0.0, SVG Export Plug-In . SVG Version: 6.00 Build 0)  -->
<!DOCTYPE svg PUBLIC "-//W3C//DTD SVG 1.1//EN" "http://www.w3.org/Graphics/SVG/1.1/DTD/svg11.dtd">
<svg version="1.1" id="图层_1" xmlns="http://www.w3.org/2000/svg" xmlns:xlink="http://www.w3.org/1999/xlink" x="0px" y="0px"
	 viewBox="0 0 500 500" enable-background="new 0 0 500 500" xml:space="preserve">
<path fill="#999999" d="M284,238.4c1.6,12.9-3.5,23.2-15.5,31s-23.4,8.4-34.2,1.8c-8-3.5-13.4-9.4-16.4-17.8c-3-8.4-3-16.8-0.2-25.2
	c2.9-8.4,8.2-14.3,16-17.8c7.4-3.7,14.8-4.9,22.2-3.7c7.5,1.2,14,4.9,19.6,10.9C281.2,223.7,284,230.6,284,238.4z M318,232
	c-2.9-21.9-14.4-38.7-34.7-50.3c-20.3-11.7-40.4-13-60.4-4c-12.9,5.7-23.2,14.8-30.8,27.2c-7.7,12.4-11.2,25.6-10.6,39.7
	c0.8,18.6,8.7,34.5,23.8,47.6c15,13.1,32,18.8,50.8,17.2c18.6-1.6,34.2-10.2,46.6-25.8S320.3,250.8,318,232z M391.4,65.7
	c-4.1-5.5-9.8-10.1-17.2-13.7c-7.4-3.6-13.3-5.8-17.8-6.8c-4.5-0.9-11.8-2.2-21.8-3.8C275.1,31.8,217.2,32,160.9,42
	c-8.8,1.4-15.5,2.7-20.2,3.7c-4.7,1-10.3,3.3-16.9,6.8c-6.5,3.5-11.7,7.9-15.3,13.2c6.1,5.7,13.9,10.4,23.3,14
	c9.4,3.6,16.9,5.8,22.6,6.8c5.6,0.9,14.6,2.1,26.8,3.5c46.6,5.9,92.5,6,137.5,0.3c12.9-1.6,22-2.9,27.5-3.7c5.4-0.8,12.8-3,22.2-6.6
	C377.8,76.4,385.4,71.6,391.4,65.7z M408.8,383.2c-1.6,5.3-3.2,13.1-4.8,23.5s-3,18.9-4.3,25.8c-1.3,6.9-4.2,14-8.7,21.5
	c-4.5,7.5-10.4,13.2-17.8,17.3c-17.6,9.8-37,17.1-58.1,21.9c-21.2,4.8-41.8,7.1-62,6.8s-40.8-2.2-61.8-5.7c-9.4-1.6-17.7-3.5-25-5.5
	s-15.1-4.8-23.5-8.3s-15.9-7.9-22.4-13.3s-11.9-11.7-16-18.9c-5.1-19.6-10.9-49.5-17.5-89.6l1.8-4.9l5.5-2.8
	c45.6,30.3,97.4,45.4,155.4,45.4s109.9-15.1,155.7-45.4c4.3,1.2,6.8,3.6,7.4,7.1c0.6,3.5,0.1,8.1-1.5,13.8
	C409.7,377.6,408.8,381.4,408.8,383.2z M464.4,88.4c-5.3,34.2-16.7,101.1-34.1,201c-1,6.1-3.8,11.9-8.3,17.2
	c-4.5,5.3-8.9,9.4-13.3,12.3s-10,6-16.7,9.5c-51.5,25.8-113.9,34.8-187.2,27c-50.7-5.5-91-19.7-120.9-42.6c-3.1-2.5-5.7-5.2-7.8-8.1
	c-2.1-3-3.9-6.5-5.2-10.7c-1.3-4.2-2.3-7.7-2.8-10.4c-0.5-2.8-1.1-6.8-1.8-12.1s-1.3-8.9-1.7-10.7c-1.8-10.2-4.6-25.6-8.1-46
	c-3.6-20.5-6.4-37-8.6-49.6c-2.1-12.6-4.6-27.7-7.2-45.3c-2.7-17.6-4.9-33.7-6.8-48.5c0.6-5.3,2.4-10.3,5.4-14.9
	c3-4.6,6.2-8.4,9.7-11.5c3.5-3.1,8.1-6.1,13.8-9.2c5.7-3.1,10.4-5.4,14.1-6.9c3.7-1.5,8.6-3.4,14.7-5.7c25.6-9.4,57.6-16,96-19.6
	C265.2-4.2,334.3,0.9,395,18.7c31.7,9.4,53.7,21.9,66,37.4c3.3,4.1,5,9.3,5.1,15.6S465.6,83.7,464.4,88.4z"/>
</svg>
