<?xml version="1.0" encoding="utf-8"?>
<!-- Generator: Adobe Illustrator 18.0.0, SVG Export Plug-In . SVG Version: 6.00 Build 0)  -->
<!DOCTYPE svg PUBLIC "-//W3C//DTD SVG 1.1//EN" "http://www.w3.org/Graphics/SVG/1.1/DTD/svg11.dtd">
<svg version="1.1" id="图层_1" xmlns="http://www.w3.org/2000/svg" xmlns:xlink="http://www.w3.org/1999/xlink" x="0px" y="0px"
	 viewBox="0 0 500 500" enable-background="new 0 0 500 500" xml:space="preserve">
<path fill="#999999" d="M492.3,124.5c8,11.4,9.8,24.3,5.4,38.7l-82.6,272c-3.8,12.8-11.5,23.6-23,32.3s-23.8,13.1-36.8,13.1H78.2
	c-15.4,0-30.3-5.4-44.6-16.1S9.4,440.7,3.8,425c-4.8-13.4-5-26.1-0.6-38.1c0-0.8,0.3-3.5,0.9-8.1c0.6-4.6,1-8.3,1.2-11.1
	c0.2-1.6-0.1-3.8-0.9-6.5c-0.8-2.7-1.1-4.7-0.9-5.9c0.4-2.2,1.2-4.3,2.4-6.3c1.2-2,2.9-4.4,5-7.1c2.1-2.7,3.8-5.1,5-7.1
	c4.6-7.6,9.1-16.8,13.5-27.5s7.4-19.9,9-27.5c0.6-2,0.7-5,0.2-9c-0.5-4-0.6-6.8-0.2-8.4c0.6-2.2,2.3-5,5.1-8.4
	c2.8-3.4,4.5-5.7,5.1-6.9c4.2-7.2,8.4-16.4,12.6-27.6c4.2-11.2,6.7-20.2,7.5-27c0.2-1.8-0.1-5-0.8-9.6c-0.7-4.6-0.7-7.4,0.2-8.4
	c0.8-2.6,3-5.7,6.6-9.2c3.6-3.5,5.8-5.8,6.6-6.8c3.8-5.2,8.1-13.7,12.8-25.4c4.7-11.7,7.5-21.4,8.3-29c0.2-1.6-0.1-4.2-0.9-7.7
	c-0.8-3.5-1-6.2-0.6-8c0.4-1.6,1.3-3.4,2.7-5.4c1.4-2,3.2-4.3,5.4-6.9c2.2-2.6,3.9-4.7,5.1-6.3c1.6-2.4,3.3-5.5,5-9.2
	c1.7-3.7,3.2-7.2,4.5-10.5c1.3-3.3,2.9-6.9,4.8-10.8c1.9-3.9,3.9-7.1,5.9-9.6c2-2.5,4.7-4.9,8-7.1c3.3-2.2,6.9-3.4,10.8-3.5
	c3.9-0.1,8.7,0.5,14.3,1.7l-0.3,0.9c7.6-1.8,12.7-2.7,15.3-2.7h228.5c14.8,0,26.2,5.6,34.2,16.8s9.8,24.2,5.4,39l-82.3,272
	c-7.2,23.8-14.4,39.2-21.5,46.1c-7.1,6.9-20,10.4-38.6,10.4H47c-5.4,0-9.2,1.5-11.4,4.5c-2.2,3.2-2.3,7.5-0.3,12.9
	c4.8,14,19.2,21,43.2,21h277.1c5.8,0,11.4-1.6,16.8-4.7c5.4-3.1,8.9-7.3,10.5-12.5L473,128.7c1.4-4.4,1.9-10.1,1.5-17.1
	C482.1,114.6,488,118.9,492.3,124.5z M172.8,125.1c-0.8,2.6-0.6,4.9,0.6,6.8c1.2,1.9,3.2,2.9,6,2.9h182.5c2.6,0,5.2-1,7.7-2.9
	c2.5-1.9,4.2-4.2,5-6.8l6.3-19.2c0.8-2.6,0.6-4.9-0.6-6.8c-1.2-1.9-3.2-2.9-6-2.9H191.7c-2.6,0-5.2,1-7.7,2.9
	c-2.5,1.9-4.2,4.2-5,6.8L172.8,125.1z M147.9,202c-0.8,2.6-0.6,4.9,0.6,6.8c1.2,1.9,3.2,2.9,6,2.9H337c2.6,0,5.2-1,7.7-2.9
	c2.5-1.9,4.2-4.2,5-6.8l6.3-19.2c0.8-2.6,0.6-4.9-0.6-6.8c-1.2-1.9-3.2-2.9-6-2.9H166.8c-2.6,0-5.2,1-7.7,2.9
	c-2.5,1.9-4.2,4.2-5,6.8L147.9,202z"/>
</svg>
