<?xml version="1.0" encoding="utf-8"?>
<!-- Generator: Adobe Illustrator 18.0.0, SVG Export Plug-In . SVG Version: 6.00 Build 0)  -->
<!DOCTYPE svg PUBLIC "-//W3C//DTD SVG 1.1//EN" "http://www.w3.org/Graphics/SVG/1.1/DTD/svg11.dtd">
<svg version="1.1" id="图层_1" xmlns="http://www.w3.org/2000/svg" xmlns:xlink="http://www.w3.org/1999/xlink" x="0px" y="0px"
	 viewBox="0 0 500 500" enable-background="new 0 0 500 500" xml:space="preserve">
<path fill="#999999" d="M464.3,178.4c9.9,0,18.3,3.5,25.3,10.5c7,7,10.5,15.4,10.5,25.3c0,9.9-3.5,18.3-10.5,25.3
	c-7,7-15.4,10.5-25.3,10.5V357c0,9.7-3.5,18-10.6,25.1c-7.1,7.1-15.4,10.6-25.1,10.6c-77.6-64.5-153.1-99.9-226.6-106
	c-10.8,3.5-19.3,9.7-25.4,18.4c-6.1,8.7-9,18.1-8.6,28s4.1,18.6,11.2,25.8c-3.7,6.1-5.9,12.2-6.4,18.3c-0.6,6,0,11.4,1.7,16.2
	c1.7,4.7,4.8,9.9,9.3,15.3s9,10.1,13.4,14c4.4,3.8,10.1,8.5,17.2,14.1c-5.4,10.8-15.8,18.5-31.1,23.2c-15.3,4.7-31,5.7-47,3.2
	c-16-2.5-28.3-7.7-36.8-15.5c-1.3-4.3-4-12.4-8.2-24.4c-4.2-12-7.2-20.8-8.9-26.4c-1.8-5.6-3.9-13.9-6.4-24.8
	c-2.5-11-3.9-20.4-4.2-28.2c-0.3-7.8,0-17,1-27.5c0.9-10.5,3-20.8,6.1-30.8h-34c-12.3,0-22.8-4.4-31.5-13.1S0,253.2,0,240.9v-53.6
	c0-12.3,4.4-22.8,13.1-31.5s19.3-13.1,31.5-13.1h133.9c80.9,0,164.2-35.7,250-107.1c9.7,0,18,3.5,25.1,10.6
	c7.1,7.1,10.6,15.4,10.6,25.1V178.4z M428.6,346.9V80.7c-73.3,56.2-144.7,88.1-214.3,95.7v75.3C284.4,259.6,355.8,291.3,428.6,346.9
	z"/>
</svg>
