<?xml version="1.0" encoding="utf-8"?>
<!-- Generator: Adobe Illustrator 18.0.0, SVG Export Plug-In . SVG Version: 6.00 Build 0)  -->
<!DOCTYPE svg PUBLIC "-//W3C//DTD SVG 1.1//EN" "http://www.w3.org/Graphics/SVG/1.1/DTD/svg11.dtd">
<svg version="1.1" id="图层_1" xmlns="http://www.w3.org/2000/svg" xmlns:xlink="http://www.w3.org/1999/xlink" x="0px" y="0px"
	 viewBox="0 0 500 500" enable-background="new 0 0 500 500" xml:space="preserve">
<path fill="#999999" d="M160.7,366.1v17.9c0,2.4-0.9,4.5-2.7,6.3s-3.9,2.7-6.3,2.7h-17.9c-2.4,0-4.5-0.9-6.3-2.7
	c-1.8-1.8-2.7-3.9-2.7-6.3v-17.9c0-2.4,0.9-4.5,2.7-6.3c1.8-1.8,3.9-2.7,6.3-2.7h17.9c2.4,0,4.5,0.9,6.3,2.7
	S160.7,363.7,160.7,366.1z M160.7,294.6v17.9c0,2.4-0.9,4.5-2.7,6.3s-3.9,2.7-6.3,2.7h-17.9c-2.4,0-4.5-0.9-6.3-2.7
	c-1.8-1.8-2.7-3.9-2.7-6.3v-17.9c0-2.4,0.9-4.5,2.7-6.3c1.8-1.8,3.9-2.7,6.3-2.7h17.9c2.4,0,4.5,0.9,6.3,2.7
	S160.7,292.2,160.7,294.6z M232.1,294.6v17.9c0,2.4-0.9,4.5-2.7,6.3s-3.9,2.7-6.3,2.7h-17.9c-2.4,0-4.5-0.9-6.3-2.7
	s-2.7-3.9-2.7-6.3v-17.9c0-2.4,0.9-4.5,2.7-6.3s3.9-2.7,6.3-2.7h17.9c2.4,0,4.5,0.9,6.3,2.7S232.1,292.2,232.1,294.6z M160.7,223.2
	v17.9c0,2.4-0.9,4.5-2.7,6.3s-3.9,2.7-6.3,2.7h-17.9c-2.4,0-4.5-0.9-6.3-2.7c-1.8-1.8-2.7-3.9-2.7-6.3v-17.9c0-2.4,0.9-4.5,2.7-6.3
	c1.8-1.8,3.9-2.7,6.3-2.7h17.9c2.4,0,4.5,0.9,6.3,2.7S160.7,220.8,160.7,223.2z M375,366.1v17.9c0,2.4-0.9,4.5-2.7,6.3
	s-3.9,2.7-6.3,2.7h-17.9c-2.4,0-4.5-0.9-6.3-2.7c-1.8-1.8-2.7-3.9-2.7-6.3v-17.9c0-2.4,0.9-4.5,2.7-6.3c1.8-1.8,3.9-2.7,6.3-2.7
	h17.9c2.4,0,4.5,0.9,6.3,2.7S375,363.7,375,366.1z M303.6,294.6v17.9c0,2.4-0.9,4.5-2.7,6.3c-1.8,1.8-3.9,2.7-6.3,2.7h-17.9
	c-2.4,0-4.5-0.9-6.3-2.7s-2.7-3.9-2.7-6.3v-17.9c0-2.4,0.9-4.5,2.7-6.3s3.9-2.7,6.3-2.7h17.9c2.4,0,4.5,0.9,6.3,2.7
	C302.7,290.1,303.6,292.2,303.6,294.6z M232.1,223.2v17.9c0,2.4-0.9,4.5-2.7,6.3s-3.9,2.7-6.3,2.7h-17.9c-2.4,0-4.5-0.9-6.3-2.7
	s-2.7-3.9-2.7-6.3v-17.9c0-2.4,0.9-4.5,2.7-6.3s3.9-2.7,6.3-2.7h17.9c2.4,0,4.5,0.9,6.3,2.7S232.1,220.8,232.1,223.2z M160.7,151.8
	v17.9c0,2.4-0.9,4.5-2.7,6.3s-3.9,2.7-6.3,2.7h-17.9c-2.4,0-4.5-0.9-6.3-2.7c-1.8-1.8-2.7-3.9-2.7-6.3v-17.9c0-2.4,0.9-4.5,2.7-6.3
	c1.8-1.8,3.9-2.7,6.3-2.7h17.9c2.4,0,4.5,0.9,6.3,2.7S160.7,149.4,160.7,151.8z M375,294.6v17.9c0,2.4-0.9,4.5-2.7,6.3
	s-3.9,2.7-6.3,2.7h-17.9c-2.4,0-4.5-0.9-6.3-2.7c-1.8-1.8-2.7-3.9-2.7-6.3v-17.9c0-2.4,0.9-4.5,2.7-6.3c1.8-1.8,3.9-2.7,6.3-2.7
	h17.9c2.4,0,4.5,0.9,6.3,2.7S375,292.2,375,294.6z M303.6,223.2v17.9c0,2.4-0.9,4.5-2.7,6.3c-1.8,1.8-3.9,2.7-6.3,2.7h-17.9
	c-2.4,0-4.5-0.9-6.3-2.7s-2.7-3.9-2.7-6.3v-17.9c0-2.4,0.9-4.5,2.7-6.3s3.9-2.7,6.3-2.7h17.9c2.4,0,4.5,0.9,6.3,2.7
	C302.7,218.7,303.6,220.8,303.6,223.2z M232.1,151.8v17.9c0,2.4-0.9,4.5-2.7,6.3s-3.9,2.7-6.3,2.7h-17.9c-2.4,0-4.5-0.9-6.3-2.7
	s-2.7-3.9-2.7-6.3v-17.9c0-2.4,0.9-4.5,2.7-6.3s3.9-2.7,6.3-2.7h17.9c2.4,0,4.5,0.9,6.3,2.7S232.1,149.4,232.1,151.8z M160.7,80.4
	v17.9c0,2.4-0.9,4.5-2.7,6.3s-3.9,2.7-6.3,2.7h-17.9c-2.4,0-4.5-0.9-6.3-2.7c-1.8-1.8-2.7-3.9-2.7-6.3V80.4c0-2.4,0.9-4.5,2.7-6.3
	c1.8-1.8,3.9-2.7,6.3-2.7h17.9c2.4,0,4.5,0.9,6.3,2.7C159.8,75.8,160.7,77.9,160.7,80.4z M375,223.2v17.9c0,2.4-0.9,4.5-2.7,6.3
	s-3.9,2.7-6.3,2.7h-17.9c-2.4,0-4.5-0.9-6.3-2.7c-1.8-1.8-2.7-3.9-2.7-6.3v-17.9c0-2.4,0.9-4.5,2.7-6.3c1.8-1.8,3.9-2.7,6.3-2.7
	h17.9c2.4,0,4.5,0.9,6.3,2.7S375,220.8,375,223.2z M303.6,151.8v17.9c0,2.4-0.9,4.5-2.7,6.3c-1.8,1.8-3.9,2.7-6.3,2.7h-17.9
	c-2.4,0-4.5-0.9-6.3-2.7s-2.7-3.9-2.7-6.3v-17.9c0-2.4,0.9-4.5,2.7-6.3s3.9-2.7,6.3-2.7h17.9c2.4,0,4.5,0.9,6.3,2.7
	C302.7,147.3,303.6,149.4,303.6,151.8z M232.1,80.4v17.9c0,2.4-0.9,4.5-2.7,6.3s-3.9,2.7-6.3,2.7h-17.9c-2.4,0-4.5-0.9-6.3-2.7
	s-2.7-3.9-2.7-6.3V80.4c0-2.4,0.9-4.5,2.7-6.3c1.8-1.8,3.9-2.7,6.3-2.7h17.9c2.4,0,4.5,0.9,6.3,2.7
	C231.3,75.8,232.1,77.9,232.1,80.4z M375,151.8v17.9c0,2.4-0.9,4.5-2.7,6.3s-3.9,2.7-6.3,2.7h-17.9c-2.4,0-4.5-0.9-6.3-2.7
	c-1.8-1.8-2.7-3.9-2.7-6.3v-17.9c0-2.4,0.9-4.5,2.7-6.3c1.8-1.8,3.9-2.7,6.3-2.7h17.9c2.4,0,4.5,0.9,6.3,2.7S375,149.4,375,151.8z
	 M303.6,80.4v17.9c0,2.4-0.9,4.5-2.7,6.3c-1.8,1.8-3.9,2.7-6.3,2.7h-17.9c-2.4,0-4.5-0.9-6.3-2.7s-2.7-3.9-2.7-6.3V80.4
	c0-2.4,0.9-4.5,2.7-6.3c1.8-1.8,3.9-2.7,6.3-2.7h17.9c2.4,0,4.5,0.9,6.3,2.7C302.7,75.8,303.6,77.9,303.6,80.4z M375,80.4v17.9
	c0,2.4-0.9,4.5-2.7,6.3s-3.9,2.7-6.3,2.7h-17.9c-2.4,0-4.5-0.9-6.3-2.7c-1.8-1.8-2.7-3.9-2.7-6.3V80.4c0-2.4,0.9-4.5,2.7-6.3
	c1.8-1.8,3.9-2.7,6.3-2.7h17.9c2.4,0,4.5,0.9,6.3,2.7C374.1,75.8,375,77.9,375,80.4z M303.6,464.3h107.1V35.7H89.3v428.6h107.1
	v-62.5c0-2.4,0.9-4.5,2.7-6.3s3.9-2.7,6.3-2.7h89.3c2.4,0,4.5,0.9,6.3,2.7c1.8,1.8,2.7,3.9,2.7,6.3V464.3z M446.4,17.9v464.3
	c0,4.8-1.8,9-5.3,12.6s-7.7,5.3-12.6,5.3H71.4c-4.8,0-9-1.8-12.6-5.3c-3.5-3.5-5.3-7.7-5.3-12.6V17.9c0-4.8,1.8-9,5.3-12.6
	C62.4,1.8,66.6,0,71.4,0h357.1c4.8,0,9,1.8,12.6,5.3S446.4,13,446.4,17.9z"/>
</svg>
