<?xml version="1.0" encoding="utf-8"?>
<!-- Generator: Adobe Illustrator 18.0.0, SVG Export Plug-In . SVG Version: 6.00 Build 0)  -->
<!DOCTYPE svg PUBLIC "-//W3C//DTD SVG 1.1//EN" "http://www.w3.org/Graphics/SVG/1.1/DTD/svg11.dtd">
<svg version="1.1" id="图层_1" xmlns="http://www.w3.org/2000/svg" xmlns:xlink="http://www.w3.org/1999/xlink" x="0px" y="0px"
	 viewBox="0 0 500 500" enable-background="new 0 0 500 500" xml:space="preserve">
<path fill="#999999" d="M500,392.9V500H0V392.9c8.4,0,16.3-1.3,23.7-3.9s12.9-5.2,16.5-7.7c3.5-2.5,7.9-6,13.1-10.5
	c5.6-5,10.4-8.6,14.4-10.6c4-2,9.3-3.1,15.8-3.1s11.7,1,15.5,3.1c3.8,2,8.7,5.6,14.6,10.6c5.4,4.7,9.8,8.2,13.1,10.6
	c3.3,2.4,8.7,4.9,16.2,7.5s15.4,3.9,24,3.9c8.4,0,16.3-1.3,23.7-4c7.4-2.7,12.8-5.2,16.2-7.5c3.3-2.3,7.8-5.8,13.4-10.5
	c3.9-3.5,6.9-6,9.1-7.5s5-2.9,8.6-4.2c3.6-1.3,7.7-2,12.1-2c6.5,0,11.8,1,15.8,3.1c4,2,8.8,5.6,14.4,10.6c5.2,4.5,9.6,8,13.1,10.5
	c3.5,2.5,9,5.1,16.5,7.7c7.4,2.6,15.3,3.9,23.7,3.9c8.4,0,16.3-1.3,23.7-3.9s12.9-5.2,16.5-7.7c3.5-2.5,7.9-6,13.1-10.5
	c5.6-5,10.4-8.6,14.4-10.6s9.3-3.1,15.8-3.1c6.3,0,11.5,1,15.5,3.1s8.8,5.6,14.4,10.6c5.2,4.5,9.6,8,13.1,10.5
	c3.5,2.5,9,5.1,16.5,7.7S491.6,392.9,500,392.9z M500,303.6v53.6c-6.5,0-11.7-1-15.5-3.1s-8.7-5.6-14.6-10.6
	c-5.4-4.7-9.8-8.2-13.1-10.6c-3.3-2.4-8.7-4.9-16.2-7.5c-7.4-2.6-15.3-3.9-23.7-3.9c-8.6,0-16.6,1.3-24,3.9
	c-7.4,2.6-12.8,5.1-16.2,7.5c-3.3,2.4-7.7,6-13.1,10.6c-4.1,3.5-7.2,6-9.2,7.5c-2,1.5-4.9,2.9-8.6,4.2s-7.8,2-12.3,2
	c-6.5,0-11.8-1-15.8-3.1s-8.8-5.6-14.4-10.6c-5.4-4.7-9.8-8.2-13.1-10.6c-3.3-2.4-8.7-4.9-16.2-7.5c-7.4-2.6-15.4-3.9-24-3.9
	c-8.4,0-16.3,1.3-23.7,4c-7.4,2.7-12.8,5.2-16.2,7.5c-3.3,2.3-7.8,5.8-13.4,10.5c-3.9,3.5-6.9,6-9.1,7.5c-2.1,1.5-5,2.9-8.6,4.2
	c-3.6,1.3-7.7,2-12.1,2c-6.5,0-11.8-1-15.8-3.1s-8.8-5.6-14.4-10.6c-5.2-4.5-9.6-8-13.1-10.5s-9-5.1-16.5-7.7
	c-7.4-2.6-15.3-3.9-23.7-3.9c-8.6,0-16.6,1.3-24,3.9c-7.4,2.6-12.8,5.1-16.2,7.5c-3.3,2.4-7.7,6-13.1,10.6
	c-5.6,5-10.4,8.6-14.4,10.6s-9.3,3.1-15.8,3.1v-53.6c0-14.9,5.2-27.5,15.6-37.9S38.7,250,53.6,250h17.9V125h71.4v125h71.4V125h71.4
	v125h71.4V125h71.4v125h17.9c14.9,0,27.5,5.2,37.9,15.6S500,288.7,500,303.6z M142.9,62.5c0,14.3-3.3,25.3-10,33.1
	s-15.3,11.6-25.7,11.6c-9.9,0-18.3-3.5-25.3-10.5c-7-7-10.5-15.4-10.5-25.3c0-5.4,0.9-10.1,2.7-14.2c1.8-4.1,4-7.3,6.6-9.5
	c2.6-2.2,5.5-4.8,8.6-7.8c3.2-3,6-5.9,8.6-8.8c2.6-2.9,4.8-7,6.6-12.4s2.7-11.6,2.7-18.7c7.1,0,14.8,6.9,23.2,20.6
	C138.7,34.4,142.9,48.4,142.9,62.5z M285.7,62.5c0,14.3-3.3,25.3-10,33.1c-6.7,7.7-15.3,11.6-25.7,11.6c-9.9,0-18.3-3.5-25.3-10.5
	s-10.5-15.4-10.5-25.3c0-5.4,0.9-10.1,2.7-14.2s4-7.3,6.6-9.5c2.6-2.2,5.5-4.8,8.6-7.8c3.2-3,6-5.9,8.6-8.8c2.6-2.9,4.8-7,6.6-12.4
	S250,7.1,250,0c7.1,0,14.8,6.9,23.2,20.6S285.7,48.4,285.7,62.5z M428.6,62.5c0,14.3-3.3,25.3-10,33.1c-6.7,7.7-15.3,11.6-25.7,11.6
	c-9.9,0-18.3-3.5-25.3-10.5c-7-7-10.5-15.4-10.5-25.3c0-5.4,0.9-10.1,2.7-14.2s4-7.3,6.6-9.5c2.6-2.2,5.5-4.8,8.6-7.8
	c3.2-3,6-5.9,8.6-8.8c2.6-2.9,4.8-7,6.6-12.4s2.7-11.6,2.7-18.7c7.1,0,14.8,6.9,23.2,20.6S428.6,48.4,428.6,62.5z"/>
</svg>
