<?xml version="1.0" encoding="utf-8"?>
<!-- Generator: Adobe Illustrator 18.0.0, SVG Export Plug-In . SVG Version: 6.00 Build 0)  -->
<!DOCTYPE svg PUBLIC "-//W3C//DTD SVG 1.1//EN" "http://www.w3.org/Graphics/SVG/1.1/DTD/svg11.dtd">
<svg version="1.1" id="图层_1" xmlns="http://www.w3.org/2000/svg" xmlns:xlink="http://www.w3.org/1999/xlink" x="0px" y="0px"
	 viewBox="0 0 500 500" enable-background="new 0 0 500 500" xml:space="preserve">
<path fill="#999999" d="M232.1,17.9v178.6c0,11.3-3.3,21.7-9.9,31c-6.6,9.3-15.2,15.8-25.8,19.5v217.4c0,9.7-3.5,18-10.6,25.1
	c-7.1,7.1-15.4,10.6-25.1,10.6H125c-9.7,0-18-3.5-25.1-10.6c-7.1-7.1-10.6-15.4-10.6-25.1V246.9c-10.6-3.7-19.2-10.2-25.8-19.5
	c-6.6-9.3-9.9-19.6-9.9-31V17.9c0-4.8,1.8-9,5.3-12.6C62.4,1.8,66.6,0,71.4,0s9,1.8,12.6,5.3s5.3,7.7,5.3,12.6v116.1
	c0,4.8,1.8,9,5.3,12.6c3.5,3.5,7.7,5.3,12.6,5.3c4.8,0,9-1.8,12.6-5.3s5.3-7.7,5.3-12.6V17.9c0-4.8,1.8-9,5.3-12.6
	C133.8,1.8,138,0,142.9,0c4.8,0,9,1.8,12.6,5.3c3.5,3.5,5.3,7.7,5.3,12.6v116.1c0,4.8,1.8,9,5.3,12.6s7.7,5.3,12.6,5.3
	s9-1.8,12.6-5.3c3.5-3.5,5.3-7.7,5.3-12.6V17.9c0-4.8,1.8-9,5.3-12.6c3.5-3.5,7.7-5.3,12.6-5.3s9,1.8,12.6,5.3
	C230.4,8.8,232.1,13,232.1,17.9z M446.4,17.9v446.4c0,9.7-3.5,18-10.6,25.1c-7.1,7.1-15.4,10.6-25.1,10.6H375
	c-9.7,0-18-3.5-25.1-10.6c-7.1-7.1-10.6-15.4-10.6-25.1V321.4h-62.5c-2.4,0-4.5-0.9-6.3-2.7s-2.7-3.9-2.7-6.3V89.3
	c0-24.6,8.7-45.6,26.2-63.1S332.6,0,357.1,0h71.4c4.8,0,9,1.8,12.6,5.3S446.4,13,446.4,17.9z"/>
</svg>
