<?xml version="1.0" encoding="utf-8"?>
<!-- Generator: Adobe Illustrator 18.0.0, SVG Export Plug-In . SVG Version: 6.00 Build 0)  -->
<!DOCTYPE svg PUBLIC "-//W3C//DTD SVG 1.1//EN" "http://www.w3.org/Graphics/SVG/1.1/DTD/svg11.dtd">
<svg version="1.1" id="图层_1" xmlns="http://www.w3.org/2000/svg" xmlns:xlink="http://www.w3.org/1999/xlink" x="0px" y="0px"
	 viewBox="0 0 500 500" enable-background="new 0 0 500 500" xml:space="preserve">
<path fill="#999999" d="M333.3,250c0,23-8.1,42.6-24.4,58.9c-16.3,16.3-35.9,24.4-58.9,24.4s-42.6-8.1-58.9-24.4
	c-16.3-16.3-24.4-35.9-24.4-58.9s8.1-42.6,24.4-58.9s35.9-24.4,58.9-24.4s42.6,8.1,58.9,24.4C325.2,207.4,333.3,227,333.3,250z
	 M375,250c0-34.5-12.2-64-36.6-88.4S284.5,125,250,125s-64,12.2-88.4,36.6S125,215.5,125,250s12.2,64,36.6,88.4S215.5,375,250,375
	s64-12.2,88.4-36.6S375,284.5,375,250z M416.7,250c0,46-16.3,85.3-48.8,117.8S296,416.7,250,416.7s-85.3-16.3-117.8-48.8
	S83.3,296,83.3,250s16.3-85.3,48.8-117.8S204,83.3,250,83.3s85.3,16.3,117.8,48.8S416.7,204,416.7,250z M458.3,250
	c0-28.2-5.5-55.2-16.6-80.9c-11.1-25.7-25.9-47.9-44.4-66.4s-40.7-33.4-66.4-44.4c-25.7-11.1-52.7-16.6-80.9-16.6
	s-55.2,5.5-80.9,16.6s-47.9,25.9-66.4,44.4s-33.4,40.7-44.4,66.4S41.7,221.8,41.7,250s5.5,55.2,16.6,80.9
	c11.1,25.7,25.9,47.9,44.4,66.4s40.7,33.4,66.4,44.4c25.7,11.1,52.7,16.6,80.9,16.6s55.2-5.5,80.9-16.6
	c25.7-11.1,47.9-25.9,66.4-44.4s33.4-40.7,44.4-66.4C452.8,305.2,458.3,278.2,458.3,250z M500,250c0,45.4-11.2,87.2-33.5,125.5
	s-52.7,68.6-91,91S295.4,500,250,500s-87.2-11.2-125.5-33.5s-68.6-52.7-91-91S0,295.4,0,250s11.2-87.2,33.5-125.5s52.7-68.6,91-91
	S204.6,0,250,0s87.2,11.2,125.5,33.5s68.6,52.7,91,91S500,204.6,500,250z"/>
</svg>
