<?xml version="1.0" encoding="utf-8"?>
<!-- Generator: Adobe Illustrator 18.0.0, SVG Export Plug-In . SVG Version: 6.00 Build 0)  -->
<!DOCTYPE svg PUBLIC "-//W3C//DTD SVG 1.1//EN" "http://www.w3.org/Graphics/SVG/1.1/DTD/svg11.dtd">
<svg version="1.1" id="图层_1" xmlns="http://www.w3.org/2000/svg" xmlns:xlink="http://www.w3.org/1999/xlink" x="0px" y="0px"
	 viewBox="0 0 500 500" enable-background="new 0 0 500 500" xml:space="preserve">
<path fill="#999999" d="M426.5,249.8c0-34.8-9.4-66.7-28.2-95.7L153.6,398.4c29.6,19.3,61.8,28.9,96.4,28.9c24,0,46.9-4.7,68.6-14.1
	c21.7-9.4,40.5-22,56.3-37.8s28.3-34.7,37.6-56.6C421.9,296.8,426.5,273.8,426.5,249.8z M102.4,346.9l245-244.6
	c-29.2-19.7-61.6-29.5-97.3-29.5c-32,0-61.5,7.9-88.6,23.7s-48.5,37.3-64.2,64.6s-23.7,56.9-23.7,88.9
	C73.5,284.9,83.1,317.2,102.4,346.9z M499.2,249.8c0,34-6.6,66.4-19.8,97.3s-30.9,57.5-53,79.8c-22.2,22.3-48.7,40-79.5,53.2
	C316,493.4,283.7,500,250,500s-66-6.6-96.9-19.8C122.3,467,95.8,449.3,73.7,427c-22.2-22.3-39.9-48.9-53-79.8S0.8,283.8,0.8,249.8
	s6.6-66.4,19.8-97.2s30.9-57.4,53-79.7s48.7-40,79.5-53.2S216.3,0,250,0s66,6.6,96.9,19.8s57.3,30.9,79.5,53.2s39.9,48.8,53,79.7
	S499.2,215.9,499.2,249.8z"/>
</svg>
