<?xml version="1.0" encoding="utf-8"?>
<!-- Generator: Adobe Illustrator 18.0.0, SVG Export Plug-In . SVG Version: 6.00 Build 0)  -->
<!DOCTYPE svg PUBLIC "-//W3C//DTD SVG 1.1//EN" "http://www.w3.org/Graphics/SVG/1.1/DTD/svg11.dtd">
<svg version="1.1" id="图层_1" xmlns="http://www.w3.org/2000/svg" xmlns:xlink="http://www.w3.org/1999/xlink" x="0px" y="0px"
	 viewBox="0 0 500 500" enable-background="new 0 0 500 500" xml:space="preserve">
<path fill="#999999" d="M110.6,409.2c0-5.3-1.9-9.9-5.8-13.7c-3.9-3.9-8.4-5.8-13.7-5.8c-5.3,0-9.9,1.9-13.7,5.8
	c-3.9,3.9-5.8,8.4-5.8,13.7s1.9,9.9,5.8,13.7c3.9,3.9,8.4,5.8,13.7,5.8c5.3,0,9.9-1.9,13.7-5.8C108.7,419.1,110.6,414.5,110.6,409.2
	L110.6,409.2z M306.8,281.2L99,489c-7.5,7.5-16.7,11.3-27.4,11.3c-10.6,0-19.8-3.8-27.7-11.3l-32.3-32.9C3.9,448.8,0,439.7,0,428.7
	c0-10.8,3.9-20,11.6-27.7l207.5-207.5c7.9,19.9,19.6,37.5,34.9,52.9S286.9,273.3,306.8,281.2L306.8,281.2z M500,148.7
	c0,7.9-2.3,18.7-7,32.3c-9.5,27.2-26.3,49.3-50.1,66.3c-23.9,17-50.1,25.4-78.8,25.4c-37.6,0-69.7-13.4-96.4-40.1
	s-40.1-58.9-40.1-96.4s13.4-69.7,40.1-96.4s58.9-40.1,96.4-40.1c11.8,0,24.1,1.7,37,5c12.9,3.4,23.8,8.1,32.8,14.2
	c3.3,2.2,4.9,5.1,4.9,8.5s-1.6,6.3-4.9,8.5l-89.3,51.5v68.3l58.8,32.6c1-0.6,9-5.5,24.1-14.8c15-9.2,28.8-17.5,41.3-24.7
	c12.5-7.2,19.7-10.8,21.5-10.8c3,0,5.4,1,7.2,3C499.1,143.1,500,145.6,500,148.7L500,148.7z"/>
</svg>
