<?xml version="1.0" encoding="utf-8"?>
<!-- Generator: Adobe Illustrator 18.0.0, SVG Export Plug-In . SVG Version: 6.00 Build 0)  -->
<!DOCTYPE svg PUBLIC "-//W3C//DTD SVG 1.1//EN" "http://www.w3.org/Graphics/SVG/1.1/DTD/svg11.dtd">
<svg version="1.1" id="图层_1" xmlns="http://www.w3.org/2000/svg" xmlns:xlink="http://www.w3.org/1999/xlink" x="0px" y="0px"
	 viewBox="0 0 500 500" enable-background="new 0 0 500 500" xml:space="preserve">
<path fill="#999999" d="M316.4,210.6c0-23.4-5.8-41.8-17.4-55s-27.6-19.9-48-19.9c-13.7,0-27.1,3.3-40.4,9.9
	c-13.2,6.6-25.2,15.8-35.8,27.5s-19.3,26.6-25.9,44.6s-9.9,37.5-9.9,58.6c0,24.3,5.8,43.1,17.4,56.3c11.6,13.2,27.9,19.9,49,19.9
	c20.8,0,39.9-7.2,57.3-21.6c17.4-14.4,30.7-32.4,39.9-54C311.8,255.3,316.4,233.2,316.4,210.6z M500,250c0,24.1-4,45.5-12,64.1
	c-8,18.7-18.7,33.3-32.1,43.9c-13.3,10.6-27.6,18.7-42.8,24.3s-30.9,8.5-47.2,9c-1.3,0-3,0.1-5,0.2s-3.9,0.2-5.4,0.2
	c-20.6,0-36-5.8-46.2-17.3c-6.1-7.2-9.7-16.2-10.7-27c-11.3,14.3-25.6,26.3-42.8,35.8c-17.3,9.5-36.1,14.3-56.5,14.3
	c-34.9,0-62-10.4-81.2-31.1c-19.2-20.7-28.8-50-28.8-87.7c0-34.1,7.2-65.5,21.5-94.4s33.7-51.7,58.3-68.5s51.2-25.2,80.1-25.2
	c18.9,0,35.7,3.9,50.5,11.6c14.8,7.7,26.3,18.5,34.5,32.4l0.7-6.2l3.6-18.2c0.2-1.3,0.8-2.6,1.8-3.9c1-1.3,2-2,3.1-2h38.4
	c1.1,0,2.5,1.2,4.2,3.6c1.1,1.1,1.4,2.8,1,5.2l-39.1,199.9c-1.1,5.2-1.6,10.4-1.6,15.6c0,8.5,1.4,14.1,4.1,16.9s7.5,4.2,14.5,4.2
	c6.1-0.2,12.3-0.8,18.6-1.8c6.3-1,14.2-3.6,23.8-7.8c9.5-4.2,17.9-9.7,25.1-16.3c7.2-6.6,13.3-16.3,18.6-29.1
	c5.2-12.8,7.8-27.7,7.8-44.6c0-63.4-18.9-113.9-56.6-151.7S313.4,41.7,250,41.7c-28.2,0-55.2,5.5-80.9,16.6s-47.9,25.9-66.4,44.4
	s-33.4,40.7-44.4,66.4S41.7,221.8,41.7,250s5.5,55.2,16.6,80.9c11.1,25.7,25.9,47.9,44.4,66.4s40.7,33.4,66.4,44.4
	c25.7,11.1,52.7,16.6,80.9,16.6c49.5,0,93.4-15.6,131.8-46.9c2.4-2,5-2.8,7.8-2.6c2.8,0.2,5.1,1.5,6.8,3.9l13.3,16
	c1.7,2.6,2.5,5.2,2.3,7.8c-0.4,2.8-1.7,5.2-3.9,7.2c-22.1,18-46.8,31.9-74.1,41.7S278.9,500,250,500c-33.9,0-66.2-6.6-97-19.9
	c-30.8-13.2-57.4-31-79.8-53.4S33.1,377.8,19.9,347S0,283.9,0,250s6.6-66.2,19.9-97s31-57.4,53.4-79.8s48.9-40.1,79.8-53.4
	S216.1,0,250,0c74.7,0,135,23,181,69S500,175.3,500,250z"/>
</svg>
