<?xml version="1.0" encoding="utf-8"?>
<!-- Generator: Adobe Illustrator 18.0.0, SVG Export Plug-In . SVG Version: 6.00 Build 0)  -->
<!DOCTYPE svg PUBLIC "-//W3C//DTD SVG 1.1//EN" "http://www.w3.org/Graphics/SVG/1.1/DTD/svg11.dtd">
<svg version="1.1" id="图层_1" xmlns="http://www.w3.org/2000/svg" xmlns:xlink="http://www.w3.org/1999/xlink" x="0px" y="0px"
	 viewBox="0 0 500 500" enable-background="new 0 0 500 500" xml:space="preserve">
<path fill="#999999" d="M250,208.3c20.7,0,38.3,7.3,53,22c14.7,14.7,22,32.3,22,53s-7.3,38.3-22,53c-14.7,14.7-32.3,22-53,22
	s-38.3-7.3-53-22s-22-32.3-22-53s7.3-38.3,22-53S229.3,208.3,250,208.3z M433.3,100c18.4,0,34.1,6.5,47.1,19.5s19.5,28.7,19.5,47.1
	V400c0,18.4-6.5,34.1-19.5,47.1c-13,13-28.7,19.5-47.1,19.5H66.7c-18.4,0-34.1-6.5-47.1-19.5C6.5,434.1,0,418.4,0,400V166.7
	c0-18.4,6.5-34.1,19.5-47.1S48.3,100,66.7,100H125l13.3-35.4c3.3-8.5,9.3-15.8,18.1-22c8.8-6.2,17.8-9.2,27-9.2h133.3
	c9.2,0,18.2,3.1,27,9.2c8.8,6.2,14.8,13.5,18.1,22L375,100H433.3z M250,400c32.1,0,59.6-11.4,82.4-34.2
	c22.8-22.8,34.2-50.3,34.2-82.4s-11.4-59.6-34.2-82.4s-50.3-34.2-82.4-34.2s-59.6,11.4-82.4,34.2s-34.2,50.3-34.2,82.4
	s11.4,59.6,34.2,82.4C190.4,388.6,217.9,400,250,400z"/>
</svg>
