<?xml version="1.0" encoding="utf-8"?>
<!-- Generator: Adobe Illustrator 18.0.0, SVG Export Plug-In . SVG Version: 6.00 Build 0)  -->
<!DOCTYPE svg PUBLIC "-//W3C//DTD SVG 1.1//EN" "http://www.w3.org/Graphics/SVG/1.1/DTD/svg11.dtd">
<svg version="1.1" id="图层_1" xmlns="http://www.w3.org/2000/svg" xmlns:xlink="http://www.w3.org/1999/xlink" x="0px" y="0px"
	 viewBox="0 0 500 500" enable-background="new 0 0 500 500" xml:space="preserve">
<path fill="#999999" d="M333.3,446.6c-9.1-52.3-24.3-106.3-45.6-162.1h-0.7l-0.7,0.3c-3.5,1.3-8.1,3.1-14,5.4
	c-5.9,2.3-16.8,7.6-32.9,16s-30.9,17.3-44.6,26.7c-13.7,9.4-27.9,21.9-42.6,37.3s-25.9,31.5-33.5,48.2l-4.9-3.6
	c39.9,32.6,85.3,48.8,136.1,48.8C278.6,463.5,306.4,457.9,333.3,446.6z M273.1,249c-4.6-10.6-10.3-22.7-17.3-36.1
	c-67.5,20.2-140.5,30.3-219.1,30.3c-0.2,1.5-0.3,3.8-0.3,6.8c0,26.9,4.8,52.6,14.3,77s23,46.3,40.4,65.6
	c10.9-19.3,24.3-37.4,40.2-54.2s31.4-30.3,46.4-40.5c15-10.2,29.1-19,42.5-26.4s24.1-12.6,32.4-15.6l12-4.2c0.9-0.2,2.3-0.6,4.2-1.1
	S272.2,249.5,273.1,249z M238.3,180c-26-46.2-52.5-87.2-79.4-123c-29.9,14.1-55.3,34.3-76.2,60.5S48,173.3,41,206.1
	C106.6,206.1,172.3,197.4,238.3,180z M460.9,283.9c-45.6-13-90-16.2-133.1-9.4c18.9,51.9,32.8,102.8,41.7,152.7
	c24.1-16.3,44.2-36.8,60.2-61.7C445.7,340.5,456.2,313.4,460.9,283.9z M198.9,42.6c-0.2,0-0.4,0.1-0.7,0.3
	C198.5,42.8,198.7,42.6,198.9,42.6z M391,89.8c-40.1-35.6-87.1-53.4-141-53.4c-16.5,0-33.3,2.1-50.5,6.2
	C228,79.5,254.7,121,279.6,167c15-5.6,29.1-12.2,42.3-19.7c13.2-7.5,23.7-14.2,31.4-20c7.7-5.9,14.8-12,21.3-18.6
	c6.5-6.5,10.6-10.9,12.2-13.2L391,89.8z M463.5,247.7c-0.7-50.3-16.8-94.8-48.5-133.5l-0.3,0.3c-2,2.6-4,5.3-6.2,8
	c-2.2,2.7-6.9,7.5-14.2,14.5c-7.3,6.9-15,13.5-23.1,19.7c-8.1,6.2-19,13.2-32.6,21.2c-13.6,7.9-27.8,14.9-42.8,21
	c5.4,11.5,10.2,21.8,14.3,30.9c0.4,1.3,1.1,3.2,2.1,5.7s1.8,4.3,2.4,5.4c7.8-1.1,15.9-1.8,24.3-2.3c8.4-0.4,16.3-0.7,23.9-0.7
	c7.6,0,15.1,0.2,22.5,0.5c7.4,0.3,14.3,0.8,20.8,1.3s12.6,1.1,18.4,1.8c5.8,0.7,11,1.4,15.6,2.1c4.7,0.8,8.6,1.4,11.9,2s6,1,8.1,1.5
	L463.5,247.7z M500,250c0,45.4-11.2,87.2-33.5,125.5s-52.7,68.6-91,91S295.4,500,250,500s-87.2-11.2-125.5-33.5s-68.6-52.7-91-91
	S0,295.4,0,250s11.2-87.2,33.5-125.5s52.7-68.6,91-91S204.6,0,250,0s87.2,11.2,125.5,33.5s68.6,52.7,91,91S500,204.6,500,250z"/>
</svg>
