<?xml version="1.0" encoding="utf-8"?>
<!-- Generator: Adobe Illustrator 18.0.0, SVG Export Plug-In . SVG Version: 6.00 Build 0)  -->
<!DOCTYPE svg PUBLIC "-//W3C//DTD SVG 1.1//EN" "http://www.w3.org/Graphics/SVG/1.1/DTD/svg11.dtd">
<svg version="1.1" id="图层_1" xmlns="http://www.w3.org/2000/svg" xmlns:xlink="http://www.w3.org/1999/xlink" x="0px" y="0px"
	 viewBox="0 0 500 500" enable-background="new 0 0 500 500" xml:space="preserve">
<path fill="#999999" d="M448.3,163.8c0-14.4-5-26.6-15.1-36.6c-10.1-10.1-22.3-15.1-36.6-15.1h-17.2v103.4h17.2
	c14.4,0,26.6-5,36.6-15.1C443.2,190.4,448.3,178.2,448.3,163.8z M0,370.7h482.8c0,19-6.7,35.3-20.2,48.8
	c-13.5,13.5-29.7,20.2-48.8,20.2H69c-19,0-35.3-6.7-48.8-20.2C6.7,406,0,389.7,0,370.7z M500,163.8c0,28.6-10.1,52.9-30.3,73.1
	s-44.6,30.3-73.1,30.3h-17.2v8.6c0,16.5-5.9,30.7-17.8,42.6c-11.9,11.9-26,17.8-42.6,17.8H129.3c-16.5,0-30.7-5.9-42.6-17.8
	S69,292.4,69,275.9V77.6c0-4.7,1.7-8.7,5.1-12.1c3.4-3.4,7.5-5.1,12.1-5.1h310.3c28.6,0,52.9,10.1,73.1,30.3S500,135.2,500,163.8z"
	/>
</svg>
