<?xml version="1.0" encoding="utf-8"?>
<!-- Generator: Adobe Illustrator 18.0.0, SVG Export Plug-In . SVG Version: 6.00 Build 0)  -->
<!DOCTYPE svg PUBLIC "-//W3C//DTD SVG 1.1//EN" "http://www.w3.org/Graphics/SVG/1.1/DTD/svg11.dtd">
<svg version="1.1" id="图层_1" xmlns="http://www.w3.org/2000/svg" xmlns:xlink="http://www.w3.org/1999/xlink" x="0px" y="0px"
	 viewBox="0 0 500 500" enable-background="new 0 0 500 500" xml:space="preserve">
<path fill="#999999" d="M258.9,232.1c0-2.6-0.8-4.7-2.5-6.4c-1.7-1.7-3.8-2.5-6.4-2.5c-12.3,0-22.8,4.4-31.5,13.1
	s-13.1,19.3-13.1,31.5c0,2.6,0.8,4.7,2.5,6.4c1.7,1.7,3.8,2.5,6.4,2.5c2.6,0,4.7-0.8,6.4-2.5c1.7-1.7,2.5-3.8,2.5-6.4
	c0-7.4,2.6-13.8,7.8-19c5.2-5.2,11.5-7.8,19-7.8c2.6,0,4.7-0.8,6.4-2.5C258.1,236.9,258.9,234.7,258.9,232.1z M321.4,268.4
	c0,19.7-7,36.6-20.9,50.5s-30.8,20.9-50.5,20.9s-36.6-7-50.5-20.9c-14-14-20.9-30.8-20.9-50.5c0-19.7,7-36.6,20.9-50.5
	c14-14,30.8-20.9,50.5-20.9s36.6,7,50.5,20.9S321.4,248.7,321.4,268.4z M35.7,428.6h428.6v-35.7H35.7V428.6z M357.1,268.4
	c0-29.6-10.5-54.8-31.4-75.8c-20.9-20.9-46.2-31.4-75.8-31.4s-54.8,10.5-75.8,31.4s-31.4,46.2-31.4,75.8c0,29.6,10.5,54.8,31.4,75.8
	c20.9,20.9,46.2,31.4,75.8,31.4s54.8-10.5,75.8-31.4C346.7,323.2,357.1,298,357.1,268.4z M71.4,89.3h107.1V53.6H71.4V89.3z
	 M35.7,142.9h428.6V71.4h-231l-17.9,35.7H35.7V142.9z M500,71.4v357.1c0,9.9-3.5,18.3-10.5,25.3c-7,7-15.4,10.5-25.3,10.5H35.7
	c-9.9,0-18.3-3.5-25.3-10.5c-7-7-10.5-15.4-10.5-25.3V71.4c0-9.9,3.5-18.3,10.5-25.3s15.4-10.5,25.3-10.5h428.6
	c9.9,0,18.3,3.5,25.3,10.5C496.5,53.2,500,61.6,500,71.4z"/>
</svg>
