<?xml version="1.0" encoding="utf-8"?>
<!-- Generator: Adobe Illustrator 18.0.0, SVG Export Plug-In . SVG Version: 6.00 Build 0)  -->
<!DOCTYPE svg PUBLIC "-//W3C//DTD SVG 1.1//EN" "http://www.w3.org/Graphics/SVG/1.1/DTD/svg11.dtd">
<svg version="1.1" id="图层_1" xmlns="http://www.w3.org/2000/svg" xmlns:xlink="http://www.w3.org/1999/xlink" x="0px" y="0px"
	 viewBox="0 0 500 500" enable-background="new 0 0 500 500" xml:space="preserve">
<path fill="#999999" d="M357.1,285.7h85.1c-0.9,1.1-1.9,2.1-2.8,2.9c-0.9,0.8-1.8,1.5-2.5,2.1l-0.8,1.1L262.3,459.3
	c-3.3,3.3-7.4,5-12.3,5s-8.9-1.7-12.3-5l-174.1-168c-0.9-0.4-2.9-2.2-5.9-5.6h103c4.1,0,7.8-1.3,11-3.8s5.3-5.7,6.3-9.6l19.5-78.4
	l53,186.1c1.1,3.7,3.3,6.8,6.4,9.2c3.2,2.4,6.8,3.6,10.9,3.6c3.9,0,7.4-1.2,10.6-3.6c3.2-2.4,5.3-5.5,6.4-9.2l40.7-135.3l15.6,31.3
	C344.6,282.5,349.9,285.7,357.1,285.7L357.1,285.7z M500,166.3c0,27-9.6,54.9-28.7,83.7h-103l-31-61.7c-1.5-3.2-3.9-5.7-7.1-7.5
	c-3.3-1.9-6.6-2.6-10.2-2.2c-8.4,0.9-13.6,5.2-15.6,12.8l-36,120L213.7,120c-1.1-3.7-3.3-6.8-6.6-9.2c-3.3-2.4-6.9-3.6-11-3.6
	s-7.7,1.3-10.9,3.8c-3.2,2.5-5.2,5.7-6.1,9.6L146.8,250h-118C9.6,221.2,0,193.3,0,166.3c0-40.9,11.8-72.9,35.4-96
	s56.3-34.6,97.9-34.6c11.5,0,23.3,2,35.3,6c12,4,23.2,9.4,33.5,16.2s19.2,13.2,26.6,19.1c7.4,6,14.5,12.3,21.2,19
	c6.7-6.7,13.8-13,21.2-19c7.4-6,16.3-12.3,26.6-19.1s21.5-12.2,33.5-16.2s23.8-6,35.3-6c41.7,0,74.3,11.5,97.9,34.6
	S500,125.4,500,166.3L500,166.3z"/>
</svg>
