<?xml version="1.0" encoding="utf-8"?>
<!-- Generator: Adobe Illustrator 18.0.0, SVG Export Plug-In . SVG Version: 6.00 Build 0)  -->
<!DOCTYPE svg PUBLIC "-//W3C//DTD SVG 1.1//EN" "http://www.w3.org/Graphics/SVG/1.1/DTD/svg11.dtd">
<svg version="1.1" id="图层_1" xmlns="http://www.w3.org/2000/svg" xmlns:xlink="http://www.w3.org/1999/xlink" x="0px" y="0px"
	 viewBox="0 0 500 500" enable-background="new 0 0 500 500" xml:space="preserve">
<path fill="#999999" d="M333.3,275c0-2.4-0.8-4.4-2.3-6s-3.6-2.3-6-2.3h-58.3V175c0-2.3-0.8-4.2-2.5-5.9c-1.6-1.6-3.6-2.5-5.9-2.5
	h-50c-2.3,0-4.2,0.8-5.9,2.5c-1.6,1.6-2.5,3.6-2.5,5.9v91.7h-58.3c-2.3,0-4.2,0.8-5.9,2.5s-2.5,3.6-2.5,5.9c0,2.4,0.8,4.4,2.3,6
	l91.7,91.7c1.6,1.6,3.6,2.3,6,2.3c2.4,0,4.4-0.8,6-2.3l91.4-91.4C332.5,279.2,333.3,277.1,333.3,275z M500,333.3
	c0,27.6-9.8,51.2-29.3,70.7s-43.1,29.3-70.7,29.3H116.7c-32.1,0-59.6-11.4-82.4-34.2C11.4,376.3,0,348.8,0,316.7
	c0-22.6,6.1-43.4,18.2-62.5s28.5-33.4,49-43c-0.3-5.2-0.5-8.9-0.5-11.2c0-36.8,13-68.2,39.1-94.3s57.5-39.1,94.3-39.1
	c27.1,0,51.9,7.6,74.3,22.7s38.8,35.2,49.1,60.2c12.3-10.8,26.7-16.1,43.2-16.1c18.4,0,34.1,6.5,47.1,19.5
	c13,13,19.5,28.7,19.5,47.1c0,13.2-3.6,25.2-10.7,35.9c22.6,5.4,41.1,17.1,55.6,35.3S500,310.1,500,333.3z"/>
</svg>
