<?xml version="1.0" encoding="utf-8"?>
<!-- Generator: Adobe Illustrator 18.0.0, SVG Export Plug-In . SVG Version: 6.00 Build 0)  -->
<!DOCTYPE svg PUBLIC "-//W3C//DTD SVG 1.1//EN" "http://www.w3.org/Graphics/SVG/1.1/DTD/svg11.dtd">
<svg version="1.1" id="图层_1" xmlns="http://www.w3.org/2000/svg" xmlns:xlink="http://www.w3.org/1999/xlink" x="0px" y="0px"
	 viewBox="0 0 500 500" enable-background="new 0 0 500 500" xml:space="preserve">
<path fill="#999999" d="M500,333.3c0,27.6-9.8,51.2-29.3,70.7s-43.1,29.3-70.7,29.3H116.7c-32.1,0-59.6-11.4-82.4-34.2
	C11.4,376.3,0,348.8,0,316.7c0-22.9,6.2-43.9,18.5-62.9s28.6-33.2,48.7-42.6c-0.3-4.9-0.5-8.6-0.5-11.2c0-36.8,13-68.2,39.1-94.3
	s57.5-39.1,94.3-39.1c27.4,0,52.3,7.6,74.6,22.9s38.6,35.2,48.8,59.9c12.2-10.8,26.6-16.1,43.2-16.1c18.4,0,34.1,6.5,47.1,19.5
	c13,13,19.5,28.7,19.5,47.1c0,13-3.6,25-10.7,35.9c22.4,5.2,40.9,16.9,55.5,35S500,309.9,500,333.3z"/>
</svg>
