<?xml version="1.0" encoding="utf-8"?>
<!-- Generator: Adobe Illustrator 18.0.0, SVG Export Plug-In . SVG Version: 6.00 Build 0)  -->
<!DOCTYPE svg PUBLIC "-//W3C//DTD SVG 1.1//EN" "http://www.w3.org/Graphics/SVG/1.1/DTD/svg11.dtd">
<svg version="1.1" id="图层_1" xmlns="http://www.w3.org/2000/svg" xmlns:xlink="http://www.w3.org/1999/xlink" x="0px" y="0px"
	 viewBox="0 0 500 500" enable-background="new 0 0 500 500" xml:space="preserve">
<path fill="#999999" d="M384.6,173.1c0-5.2-1.9-9.7-5.7-13.5c-3.8-3.8-8.3-5.7-13.5-5.7s-9.7,1.9-13.5,5.7l-44.2,43.9v-88
	c0-5.2-1.9-9.7-5.7-13.5c-3.8-3.8-8.3-5.7-13.5-5.7c-5.2,0-9.7,1.9-13.5,5.7c-3.8,3.8-5.7,8.3-5.7,13.5v88l-44.2-43.9
	c-3.8-3.8-8.3-5.7-13.5-5.7s-9.7,1.9-13.5,5.7c-3.8,3.8-5.7,8.3-5.7,13.5s1.9,9.7,5.7,13.5l76.9,76.9c3.8,3.8,8.3,5.7,13.5,5.7
	c5.2,0,9.7-1.9,13.5-5.7l76.9-76.9C382.7,182.8,384.6,178.3,384.6,173.1z M192.3,423.1c0,10.6-3.8,19.7-11.3,27.2
	c-7.5,7.5-16.6,11.3-27.2,11.3c-10.6,0-19.7-3.8-27.2-11.3c-7.5-7.5-11.3-16.6-11.3-27.2c0-10.6,3.8-19.7,11.3-27.2
	s16.6-11.3,27.2-11.3c10.6,0,19.7,3.8,27.2,11.3C188.6,403.4,192.3,412.5,192.3,423.1z M461.5,423.1c0,10.6-3.8,19.7-11.3,27.2
	c-7.5,7.5-16.6,11.3-27.2,11.3c-10.6,0-19.7-3.8-27.2-11.3c-7.5-7.5-11.3-16.6-11.3-27.2c0-10.6,3.8-19.7,11.3-27.2
	s16.6-11.3,27.2-11.3c10.6,0,19.7,3.8,27.2,11.3C457.8,403.4,461.5,412.5,461.5,423.1z M500,96.2V250c0,4.8-1.6,9.1-4.8,12.8
	c-3.2,3.7-7.3,5.9-12.3,6.5l-313.7,36.7c0.2,1.4,0.7,3.6,1.4,6.5c0.7,2.9,1.3,5.6,1.8,8c0.5,2.4,0.8,4.6,0.8,6.6
	c0,3.2-2.4,9.6-7.2,19.2h276.4c5.2,0,9.7,1.9,13.5,5.7c3.8,3.8,5.7,8.3,5.7,13.5s-1.9,9.7-5.7,13.5c-3.8,3.8-8.3,5.7-13.5,5.7H134.6
	c-5.2,0-9.7-1.9-13.5-5.7s-5.7-8.3-5.7-13.5c0-2.8,1.1-6.8,3.3-11.9s5.2-11.1,8.9-17.9c3.7-6.8,5.8-10.6,6.2-11.4L80.5,76.9H19.2
	c-5.2,0-9.7-1.9-13.5-5.7C1.9,67.4,0,62.9,0,57.7S1.9,48,5.7,44.2s8.3-5.7,13.5-5.7h76.9c3.2,0,6.1,0.7,8.6,2c2.5,1.3,4.5,2.9,6,4.7
	c1.5,1.8,2.8,4.3,3.9,7.4c1.1,3.1,1.9,5.8,2.3,8c0.4,2.2,1,5.2,1.7,8.9s1.2,6.3,1.4,7.7h360.9c5.2,0,9.7,1.9,13.5,5.7
	C498.1,86.4,500,90.9,500,96.2z"/>
</svg>
