<?xml version="1.0" encoding="utf-8"?>
<!-- Generator: Adobe Illustrator 18.0.0, SVG Export Plug-In . SVG Version: 6.00 Build 0)  -->
<!DOCTYPE svg PUBLIC "-//W3C//DTD SVG 1.1//EN" "http://www.w3.org/Graphics/SVG/1.1/DTD/svg11.dtd">
<svg version="1.1" id="图层_1" xmlns="http://www.w3.org/2000/svg" xmlns:xlink="http://www.w3.org/1999/xlink" x="0px" y="0px"
	 viewBox="0 0 500 500" enable-background="new 0 0 500 500" xml:space="preserve">
<path fill="#999999" d="M177.1,437.5c0-8.7-3-16.1-9.1-22.1c-6.1-6.1-13.5-9.1-22.1-9.1c-8.7,0-16.1,3-22.1,9.1
	c-6.1,6.1-9.1,13.5-9.1,22.1s3,16.1,9.1,22.1c6.1,6.1,13.5,9.1,22.1,9.1c8.7,0,16.1-3,22.1-9.1C174,453.6,177.1,446.2,177.1,437.5z
	 M177.1,62.5c0-8.7-3-16.1-9.1-22.1s-13.5-9.1-22.1-9.1c-8.7,0-16.1,3-22.1,9.1c-6.1,6.1-9.1,13.5-9.1,22.1s3,16.1,9.1,22.1
	c6.1,6.1,13.5,9.1,22.1,9.1c8.7,0,16.1-3,22.1-9.1S177.1,71.2,177.1,62.5z M385.4,104.2c0-8.7-3-16.1-9.1-22.1
	c-6.1-6.1-13.5-9.1-22.1-9.1S338.1,76,332,82s-9.1,13.5-9.1,22.1s3,16.1,9.1,22.1c6.1,6.1,13.5,9.1,22.1,9.1s16.1-3,22.1-9.1
	C382.4,120.2,385.4,112.8,385.4,104.2z M416.7,104.2c0,11.3-2.8,21.8-8.5,31.4c-5.6,9.7-13.2,17.2-22.8,22.6
	c-0.4,62.3-25,107.2-73.6,134.8c-14.8,8.2-36.8,17-66.1,26.4c-27.8,8.7-46.2,16.4-55.2,23.1c-9,6.7-13.5,17.6-13.5,32.6v8.5
	c9.5,5.4,17.1,13,22.8,22.6c5.6,9.7,8.5,20.1,8.5,31.4c0,17.4-6.1,32.1-18.2,44.3C178,493.9,163.2,500,145.8,500
	s-32.1-6.1-44.3-18.2c-12.2-12.2-18.2-26.9-18.2-44.3c0-11.3,2.8-21.8,8.5-31.4s13.2-17.2,22.8-22.6V116.5
	c-9.5-5.4-17.1-13-22.8-22.6s-8.5-20.1-8.5-31.4c0-17.4,6.1-32.1,18.2-44.3S128.5,0,145.8,0s32.1,6.1,44.3,18.2s18.2,26.9,18.2,44.3
	c0,11.3-2.8,21.8-8.5,31.4c-5.6,9.7-13.2,17.2-22.8,22.6v161.8c11.7-5.6,28.4-11.8,50.1-18.6c11.9-3.7,21.4-6.9,28.5-9.6
	c7.1-2.7,14.7-6.1,22.9-10.1c8.2-4,14.6-8.3,19.2-12.9c4.6-4.6,9-10.1,13.2-16.6c4.2-6.5,7.3-14.1,9.1-22.6s2.8-18.5,2.8-29.8
	c-9.5-5.4-17.1-13-22.8-22.6c-5.6-9.7-8.5-20.1-8.5-31.4c0-17.4,6.1-32.1,18.2-44.3c12.2-12.2,26.9-18.2,44.3-18.2
	c17.4,0,32.1,6.1,44.3,18.2S416.7,86.8,416.7,104.2z"/>
</svg>
