<?xml version="1.0" encoding="utf-8"?>
<!-- Generator: Adobe Illustrator 18.0.0, SVG Export Plug-In . SVG Version: 6.00 Build 0)  -->
<!DOCTYPE svg PUBLIC "-//W3C//DTD SVG 1.1//EN" "http://www.w3.org/Graphics/SVG/1.1/DTD/svg11.dtd">
<svg version="1.1" id="图层_1" xmlns="http://www.w3.org/2000/svg" xmlns:xlink="http://www.w3.org/1999/xlink" x="0px" y="0px"
	 viewBox="0 0 500 500" enable-background="new 0 0 500 500" xml:space="preserve">
<path fill="#999999" d="M154.9,354.6l21.8-39.3c-16.2-11.7-28.8-26.5-37.9-44.4c-9.1-17.9-13.7-36.7-13.7-56.6
	c0-22.5,5.7-43.4,17-62.8C99.4,173.3,64,206.1,35.7,250C66.8,298,106.5,332.9,154.9,354.6z M263.4,142.9c0-3.7-1.3-6.9-3.9-9.5
	c-2.6-2.6-5.8-3.9-9.5-3.9c-23.3,0-43.2,8.3-59.8,25s-25,36.6-25,59.8c0,3.7,1.3,6.9,3.9,9.5s5.8,3.9,9.5,3.9s6.9-1.3,9.5-3.9
	c2.6-2.6,3.9-5.8,3.9-9.5c0-16,5.7-29.7,17-41c11.3-11.3,25-17,41-17c3.7,0,6.9-1.3,9.5-3.9S263.4,146.6,263.4,142.9z M364.7,89.6
	c0,1.3-0.1,2.1-0.3,2.5c-19.5,35-48.8,87.6-87.9,157.9s-68.5,123-88.2,158.2L174.7,433c-1.9,3-4.5,4.5-7.8,4.5
	c-2.2,0-14.7-6.5-37.4-19.5c-3-1.9-4.5-4.5-4.5-7.8c0-2.2,4.1-10.3,12.3-24.3c-26.6-12.1-51.1-28.2-73.5-48.3s-41.8-42.9-58.2-68.4
	C1.9,263.5,0,257.1,0,250s1.9-13.5,5.6-19.3c28.5-43.7,63.8-78.2,106-103.5S200,89.3,250,89.3c16.6,0,33.3,1.6,50.2,4.7L315.3,67
	c1.9-3,4.5-4.5,7.8-4.5c0.9,0,2.6,0.6,5,1.7c2.4,1.1,5.3,2.6,8.6,4.3c3.3,1.8,6.4,3.5,9.2,5.2c2.8,1.7,5.7,3.4,8.8,5.2
	c3.1,1.8,4.9,2.8,5.4,3.2C363.2,83.9,364.7,86.4,364.7,89.6z M375,214.3c0,25.9-7.3,49.4-22,70.7c-14.7,21.3-34.1,36.6-58.3,45.9
	l78.1-140.1C374.3,199.2,375,207,375,214.3z M500,250c0,6.5-1.9,12.9-5.6,19.3c-7.3,11.9-17.4,25.4-30.4,40.5
	c-27.9,32-60.2,56.8-97,74.5s-75.8,26.5-117,26.5l20.6-36.8c39.4-3.3,75.9-16.1,109.5-38.2s61.6-50.7,84.1-85.7
	c-21.4-33.3-47.6-60.6-78.7-82l17.6-31.3c17.7,11.9,34.6,26.1,50.9,42.7s29.7,33.7,40.3,51.3C498.1,237.1,500,243.5,500,250z"/>
</svg>
