<?xml version="1.0" encoding="utf-8"?>
<!-- Generator: Adobe Illustrator 18.0.0, SVG Export Plug-In . SVG Version: 6.00 Build 0)  -->
<!DOCTYPE svg PUBLIC "-//W3C//DTD SVG 1.1//EN" "http://www.w3.org/Graphics/SVG/1.1/DTD/svg11.dtd">
<svg version="1.1" id="图层_1" xmlns="http://www.w3.org/2000/svg" xmlns:xlink="http://www.w3.org/1999/xlink" x="0px" y="0px"
	 viewBox="0 0 500 500" enable-background="new 0 0 500 500" xml:space="preserve">
<path fill="#999999" d="M125,428.6c0-9.9-3.5-18.3-10.5-25.3c-7-7-15.4-10.5-25.3-10.5S71,396.3,64,403.3s-10.5,15.4-10.5,25.3
	s3.5,18.3,10.5,25.3c7,7,15.4,10.5,25.3,10.5s18.3-3.5,25.3-10.5C121.5,446.8,125,438.4,125,428.6z M232.1,428.6
	c0-9.9-3.5-18.3-10.5-25.3s-15.4-10.5-25.3-10.5s-18.3,3.5-25.3,10.5s-10.5,15.4-10.5,25.3s3.5,18.3,10.5,25.3
	c7,7,15.4,10.5,25.3,10.5s18.3-3.5,25.3-10.5C228.7,446.8,232.1,438.4,232.1,428.6z M125,321.4c0-9.9-3.5-18.3-10.5-25.3
	c-7-7-15.4-10.5-25.3-10.5S71,289.2,64,296.2c-7,7-10.5,15.4-10.5,25.3s3.5,18.3,10.5,25.3s15.4,10.5,25.3,10.5s18.3-3.5,25.3-10.5
	C121.5,339.7,125,331.3,125,321.4z M339.3,428.6c0-9.9-3.5-18.3-10.5-25.3c-7-7-15.4-10.5-25.3-10.5s-18.3,3.5-25.3,10.5
	s-10.5,15.4-10.5,25.3s3.5,18.3,10.5,25.3c7,7,15.4,10.5,25.3,10.5s18.3-3.5,25.3-10.5C335.8,446.8,339.3,438.4,339.3,428.6z
	 M232.1,321.4c0-9.9-3.5-18.3-10.5-25.3c-7-7-15.4-10.5-25.3-10.5s-18.3,3.5-25.3,10.5c-7,7-10.5,15.4-10.5,25.3s3.5,18.3,10.5,25.3
	s15.4,10.5,25.3,10.5s18.3-3.5,25.3-10.5S232.1,331.3,232.1,321.4z M125,214.3c0-9.9-3.5-18.3-10.5-25.3c-7-7-15.4-10.5-25.3-10.5
	S71,182.1,64,189c-7,7-10.5,15.4-10.5,25.3c0,9.9,3.5,18.3,10.5,25.3S79.4,250,89.3,250s18.3-3.5,25.3-10.5
	C121.5,232.6,125,224.1,125,214.3z M339.3,321.4c0-9.9-3.5-18.3-10.5-25.3c-7-7-15.4-10.5-25.3-10.5s-18.3,3.5-25.3,10.5
	c-7,7-10.5,15.4-10.5,25.3s3.5,18.3,10.5,25.3s15.4,10.5,25.3,10.5s18.3-3.5,25.3-10.5C335.8,339.7,339.3,331.3,339.3,321.4z
	 M232.1,214.3c0-9.9-3.5-18.3-10.5-25.3c-7-7-15.4-10.5-25.3-10.5s-18.3,3.5-25.3,10.5c-7,7-10.5,15.4-10.5,25.3
	c0,9.9,3.5,18.3,10.5,25.3s15.4,10.5,25.3,10.5s18.3-3.5,25.3-10.5S232.1,224.1,232.1,214.3z M446.4,428.6V321.4
	c0-9.7-3.5-18-10.6-25.1c-7.1-7.1-15.4-10.6-25.1-10.6s-18,3.5-25.1,10.6c-7.1,7.1-10.6,15.4-10.6,25.1v107.1
	c0,9.7,3.5,18,10.6,25.1c7.1,7.1,15.4,10.6,25.1,10.6s18-3.5,25.1-10.6C442.9,446.6,446.4,438.2,446.4,428.6z M339.3,214.3
	c0-9.9-3.5-18.3-10.5-25.3c-7-7-15.4-10.5-25.3-10.5s-18.3,3.5-25.3,10.5c-7,7-10.5,15.4-10.5,25.3c0,9.9,3.5,18.3,10.5,25.3
	s15.4,10.5,25.3,10.5s18.3-3.5,25.3-10.5C335.8,232.6,339.3,224.1,339.3,214.3z M446.4,125V53.6c0-4.8-1.8-9-5.3-12.6
	s-7.7-5.3-12.6-5.3H71.4c-4.8,0-9,1.8-12.6,5.3c-3.5,3.5-5.3,7.7-5.3,12.6V125c0,4.8,1.8,9,5.3,12.6c3.5,3.5,7.7,5.3,12.6,5.3h357.1
	c4.8,0,9-1.8,12.6-5.3S446.4,129.8,446.4,125z M446.4,214.3c0-9.9-3.5-18.3-10.5-25.3c-7-7-15.4-10.5-25.3-10.5s-18.3,3.5-25.3,10.5
	c-7,7-10.5,15.4-10.5,25.3c0,9.9,3.5,18.3,10.5,25.3c7,7,15.4,10.5,25.3,10.5s18.3-3.5,25.3-10.5
	C442.9,232.6,446.4,224.1,446.4,214.3z M482.1,35.7v428.6c0,9.7-3.5,18-10.6,25.1c-7.1,7.1-15.4,10.6-25.1,10.6H53.6
	c-9.7,0-18-3.5-25.1-10.6c-7.1-7.1-10.6-15.4-10.6-25.1V35.7c0-9.7,3.5-18,10.6-25.1S43.9,0,53.6,0h392.9c9.7,0,18,3.5,25.1,10.6
	C478.6,17.7,482.1,26,482.1,35.7z"/>
</svg>
