<?xml version="1.0" encoding="utf-8"?>
<!-- Generator: Adobe Illustrator 18.0.0, SVG Export Plug-In . SVG Version: 6.00 Build 0)  -->
<!DOCTYPE svg PUBLIC "-//W3C//DTD SVG 1.1//EN" "http://www.w3.org/Graphics/SVG/1.1/DTD/svg11.dtd">
<svg version="1.1" id="图层_1" xmlns="http://www.w3.org/2000/svg" xmlns:xlink="http://www.w3.org/1999/xlink" x="0px" y="0px"
	 viewBox="0 0 500 500" enable-background="new 0 0 500 500" xml:space="preserve">
<path fill="#999999" d="M428.6,0c4.8,0,9,1.8,12.6,5.3s5.3,7.7,5.3,12.6v464.3c0,4.8-1.8,9-5.3,12.6s-7.7,5.3-12.6,5.3H71.4
	c-4.8,0-9-1.8-12.6-5.3c-3.5-3.5-5.3-7.7-5.3-12.6V17.9c0-4.8,1.8-9,5.3-12.6C62.4,1.8,66.6,0,71.4,0H428.6z M196.4,80.4v17.9
	c0,2.6,0.8,4.7,2.5,6.4c1.7,1.7,3.8,2.5,6.4,2.5h17.9c2.6,0,4.7-0.8,6.4-2.5c1.7-1.7,2.5-3.8,2.5-6.4V80.4c0-2.6-0.8-4.7-2.5-6.4
	c-1.7-1.7-3.8-2.5-6.4-2.5h-17.9c-2.6,0-4.7,0.8-6.4,2.5C197.3,75.6,196.4,77.8,196.4,80.4z M196.4,151.8v17.9
	c0,2.6,0.8,4.7,2.5,6.4c1.7,1.7,3.8,2.5,6.4,2.5h17.9c2.6,0,4.7-0.8,6.4-2.5c1.7-1.7,2.5-3.8,2.5-6.4v-17.9c0-2.6-0.8-4.7-2.5-6.4
	s-3.8-2.5-6.4-2.5h-17.9c-2.6,0-4.7,0.8-6.4,2.5C197.3,147,196.4,149.2,196.4,151.8z M196.4,223.2v17.9c0,2.6,0.8,4.7,2.5,6.4
	c1.7,1.7,3.8,2.5,6.4,2.5h17.9c2.6,0,4.7-0.8,6.4-2.5c1.7-1.7,2.5-3.8,2.5-6.4v-17.9c0-2.6-0.8-4.7-2.5-6.4s-3.8-2.5-6.4-2.5h-17.9
	c-2.6,0-4.7,0.8-6.4,2.5C197.3,218.5,196.4,220.6,196.4,223.2z M196.4,294.6v17.9c0,2.6,0.8,4.7,2.5,6.4c1.7,1.7,3.8,2.5,6.4,2.5
	h17.9c2.6,0,4.7-0.8,6.4-2.5s2.5-3.8,2.5-6.4v-17.9c0-2.6-0.8-4.7-2.5-6.4c-1.7-1.7-3.8-2.5-6.4-2.5h-17.9c-2.6,0-4.7,0.8-6.4,2.5
	C197.3,289.9,196.4,292,196.4,294.6z M160.7,383.9v-17.9c0-2.6-0.8-4.7-2.5-6.4s-3.8-2.5-6.4-2.5h-17.9c-2.6,0-4.7,0.8-6.4,2.5
	s-2.5,3.8-2.5,6.4v17.9c0,2.6,0.8,4.7,2.5,6.4s3.8,2.5,6.4,2.5h17.9c2.6,0,4.7-0.8,6.4-2.5S160.7,386.5,160.7,383.9z M160.7,312.5
	v-17.9c0-2.6-0.8-4.7-2.5-6.4c-1.7-1.7-3.8-2.5-6.4-2.5h-17.9c-2.6,0-4.7,0.8-6.4,2.5c-1.7,1.7-2.5,3.8-2.5,6.4v17.9
	c0,2.6,0.8,4.7,2.5,6.4s3.8,2.5,6.4,2.5h17.9c2.6,0,4.7-0.8,6.4-2.5S160.7,315.1,160.7,312.5z M160.7,241.1v-17.9
	c0-2.6-0.8-4.7-2.5-6.4s-3.8-2.5-6.4-2.5h-17.9c-2.6,0-4.7,0.8-6.4,2.5s-2.5,3.8-2.5,6.4v17.9c0,2.6,0.8,4.7,2.5,6.4
	c1.7,1.7,3.8,2.5,6.4,2.5h17.9c2.6,0,4.7-0.8,6.4-2.5C159.9,245.8,160.7,243.7,160.7,241.1z M160.7,169.6v-17.9
	c0-2.6-0.8-4.7-2.5-6.4s-3.8-2.5-6.4-2.5h-17.9c-2.6,0-4.7,0.8-6.4,2.5s-2.5,3.8-2.5,6.4v17.9c0,2.6,0.8,4.7,2.5,6.4
	c1.7,1.7,3.8,2.5,6.4,2.5h17.9c2.6,0,4.7-0.8,6.4-2.5C159.9,174.4,160.7,172.2,160.7,169.6z M160.7,98.2V80.4c0-2.6-0.8-4.7-2.5-6.4
	c-1.7-1.7-3.8-2.5-6.4-2.5h-17.9c-2.6,0-4.7,0.8-6.4,2.5c-1.7,1.7-2.5,3.8-2.5,6.4v17.9c0,2.6,0.8,4.7,2.5,6.4
	c1.7,1.7,3.8,2.5,6.4,2.5h17.9c2.6,0,4.7-0.8,6.4-2.5C159.9,103,160.7,100.8,160.7,98.2z M303.6,455.4v-53.6c0-2.6-0.8-4.7-2.5-6.4
	c-1.7-1.7-3.8-2.5-6.4-2.5h-89.3c-2.6,0-4.7,0.8-6.4,2.5c-1.7,1.7-2.5,3.8-2.5,6.4v53.6c0,2.6,0.8,4.7,2.5,6.4
	c1.7,1.7,3.8,2.5,6.4,2.5h89.3c2.6,0,4.7-0.8,6.4-2.5C302.7,460.1,303.6,458,303.6,455.4z M303.6,312.5v-17.9c0-2.6-0.8-4.7-2.5-6.4
	c-1.7-1.7-3.8-2.5-6.4-2.5h-17.9c-2.6,0-4.7,0.8-6.4,2.5c-1.7,1.7-2.5,3.8-2.5,6.4v17.9c0,2.6,0.8,4.7,2.5,6.4
	c1.7,1.7,3.8,2.5,6.4,2.5h17.9c2.6,0,4.7-0.8,6.4-2.5S303.6,315.1,303.6,312.5z M303.6,241.1v-17.9c0-2.6-0.8-4.7-2.5-6.4
	s-3.8-2.5-6.4-2.5h-17.9c-2.6,0-4.7,0.8-6.4,2.5c-1.7,1.7-2.5,3.8-2.5,6.4v17.9c0,2.6,0.8,4.7,2.5,6.4c1.7,1.7,3.8,2.5,6.4,2.5h17.9
	c2.6,0,4.7-0.8,6.4-2.5C302.7,245.8,303.6,243.7,303.6,241.1z M303.6,169.6v-17.9c0-2.6-0.8-4.7-2.5-6.4s-3.8-2.5-6.4-2.5h-17.9
	c-2.6,0-4.7,0.8-6.4,2.5c-1.7,1.7-2.5,3.8-2.5,6.4v17.9c0,2.6,0.8,4.7,2.5,6.4c1.7,1.7,3.8,2.5,6.4,2.5h17.9c2.6,0,4.7-0.8,6.4-2.5
	C302.7,174.4,303.6,172.2,303.6,169.6z M303.6,98.2V80.4c0-2.6-0.8-4.7-2.5-6.4c-1.7-1.7-3.8-2.5-6.4-2.5h-17.9
	c-2.6,0-4.7,0.8-6.4,2.5c-1.7,1.7-2.5,3.8-2.5,6.4v17.9c0,2.6,0.8,4.7,2.5,6.4c1.7,1.7,3.8,2.5,6.4,2.5h17.9c2.6,0,4.7-0.8,6.4-2.5
	C302.7,103,303.6,100.8,303.6,98.2z M375,383.9v-17.9c0-2.6-0.8-4.7-2.5-6.4s-3.8-2.5-6.4-2.5h-17.9c-2.6,0-4.7,0.8-6.4,2.5
	s-2.5,3.8-2.5,6.4v17.9c0,2.6,0.8,4.7,2.5,6.4s3.8,2.5,6.4,2.5h17.9c2.6,0,4.7-0.8,6.4-2.5S375,386.5,375,383.9z M375,312.5v-17.9
	c0-2.6-0.8-4.7-2.5-6.4c-1.7-1.7-3.8-2.5-6.4-2.5h-17.9c-2.6,0-4.7,0.8-6.4,2.5c-1.7,1.7-2.5,3.8-2.5,6.4v17.9
	c0,2.6,0.8,4.7,2.5,6.4s3.8,2.5,6.4,2.5h17.9c2.6,0,4.7-0.8,6.4-2.5S375,315.1,375,312.5z M375,241.1v-17.9c0-2.6-0.8-4.7-2.5-6.4
	s-3.8-2.5-6.4-2.5h-17.9c-2.6,0-4.7,0.8-6.4,2.5s-2.5,3.8-2.5,6.4v17.9c0,2.6,0.8,4.7,2.5,6.4c1.7,1.7,3.8,2.5,6.4,2.5h17.9
	c2.6,0,4.7-0.8,6.4-2.5C374.2,245.8,375,243.7,375,241.1z M375,169.6v-17.9c0-2.6-0.8-4.7-2.5-6.4s-3.8-2.5-6.4-2.5h-17.9
	c-2.6,0-4.7,0.8-6.4,2.5s-2.5,3.8-2.5,6.4v17.9c0,2.6,0.8,4.7,2.5,6.4c1.7,1.7,3.8,2.5,6.4,2.5h17.9c2.6,0,4.7-0.8,6.4-2.5
	C374.2,174.4,375,172.2,375,169.6z M375,98.2V80.4c0-2.6-0.8-4.7-2.5-6.4c-1.7-1.7-3.8-2.5-6.4-2.5h-17.9c-2.6,0-4.7,0.8-6.4,2.5
	c-1.7,1.7-2.5,3.8-2.5,6.4v17.9c0,2.6,0.8,4.7,2.5,6.4c1.7,1.7,3.8,2.5,6.4,2.5h17.9c2.6,0,4.7-0.8,6.4-2.5
	C374.2,103,375,100.8,375,98.2z"/>
</svg>
