<?xml version="1.0" encoding="utf-8"?>
<!-- Generator: Adobe Illustrator 18.0.0, SVG Export Plug-In . SVG Version: 6.00 Build 0)  -->
<!DOCTYPE svg PUBLIC "-//W3C//DTD SVG 1.1//EN" "http://www.w3.org/Graphics/SVG/1.1/DTD/svg11.dtd">
<svg version="1.1" id="图层_1" xmlns="http://www.w3.org/2000/svg" xmlns:xlink="http://www.w3.org/1999/xlink" x="0px" y="0px"
	 viewBox="0 0 500 500" enable-background="new 0 0 500 500" xml:space="preserve">
<path fill="#999999" d="M17.6,446.4H0V53.6h17.6V446.4z M35.2,446.1h-8.9V53.6h8.9V446.1z M61.4,446.1h-8.6V53.6h8.6V446.1z
	 M105.2,446.1h-8.6V53.6h8.6V446.1z M149,446.1h-17.3V53.6H149V446.1z M184.2,446.1h-8.6V53.6h8.6V446.1z M201.7,446.1h-8.6V53.6
	h8.6V446.1z M219.3,446.1h-8.6V53.6h8.6V446.1z M263.1,446.1h-17.6V53.6h17.6V446.1z M306.9,446.1h-17.6V53.6h17.6V446.1z
	 M342.1,446.1h-17.6V53.6h17.6V446.1z M377.2,446.1h-17.6V53.6h17.6V446.1z M403.5,446.1h-17.6V53.6h17.6V446.1z M456.2,446.1H430
	V53.6h26.2V446.1z M473.8,446.1h-8.9V53.6h8.9V446.1z M500,446.4h-17.6V53.6H500V446.4z"/>
</svg>
