<?xml version="1.0" encoding="utf-8"?>
<!-- Generator: Adobe Illustrator 18.0.0, SVG Export Plug-In . SVG Version: 6.00 Build 0)  -->
<!DOCTYPE svg PUBLIC "-//W3C//DTD SVG 1.1//EN" "http://www.w3.org/Graphics/SVG/1.1/DTD/svg11.dtd">
<svg version="1.1" id="图层_1" xmlns="http://www.w3.org/2000/svg" xmlns:xlink="http://www.w3.org/1999/xlink" x="0px" y="0px"
	 viewBox="0 0 500 500" enable-background="new 0 0 500 500" xml:space="preserve">
<path fill="#999999" d="M307.7,230.8c0-5.2-1.9-9.7-5.7-13.5c-3.8-3.8-8.3-5.7-13.5-5.7h-76.9c-5.2,0-9.7,1.9-13.5,5.7
	c-3.8,3.8-5.7,8.3-5.7,13.5s1.9,9.7,5.7,13.5c3.8,3.8,8.3,5.7,13.5,5.7h76.9c5.2,0,9.7-1.9,13.5-5.7
	C305.8,240.5,307.7,236,307.7,230.8z M480.8,173.1v288.5c0,5.2-1.9,9.7-5.7,13.5c-3.8,3.8-8.3,5.7-13.5,5.7H38.5
	c-5.2,0-9.7-1.9-13.5-5.7c-3.8-3.8-5.7-8.3-5.7-13.5V173.1c0-5.2,1.9-9.7,5.7-13.5c3.8-3.8,8.3-5.7,13.5-5.7h423.1
	c5.2,0,9.7,1.9,13.5,5.7C478.9,163.4,480.8,167.9,480.8,173.1z M500,38.5v76.9c0,5.2-1.9,9.7-5.7,13.5c-3.8,3.8-8.3,5.7-13.5,5.7
	H19.2c-5.2,0-9.7-1.9-13.5-5.7c-3.8-3.8-5.7-8.3-5.7-13.5V38.5c0-5.2,1.9-9.7,5.7-13.5s8.3-5.7,13.5-5.7h461.5
	c5.2,0,9.7,1.9,13.5,5.7C498.1,28.7,500,33.3,500,38.5z"/>
</svg>
