<?xml version="1.0" encoding="utf-8"?>
<!-- Generator: Adobe Illustrator 18.0.0, SVG Export Plug-In . SVG Version: 6.00 Build 0)  -->
<!DOCTYPE svg PUBLIC "-//W3C//DTD SVG 1.1//EN" "http://www.w3.org/Graphics/SVG/1.1/DTD/svg11.dtd">
<svg version="1.1" id="图层_1" xmlns="http://www.w3.org/2000/svg" xmlns:xlink="http://www.w3.org/1999/xlink" x="0px" y="0px"
	 viewBox="0 0 500 500" enable-background="new 0 0 500 500" xml:space="preserve">
<path fill="#999999" d="M355.2,177.5L444.7,88L412,55.3l-89.5,89.5L355.2,177.5z M491.8,88c0,5.5-1.8,10.1-5.5,13.7L93.5,494.5
	c-3.7,3.7-8.2,5.5-13.7,5.5c-5.5,0-10.1-1.8-13.7-5.5L5.5,434c-3.7-3.7-5.5-8.2-5.5-13.7c0-5.5,1.8-10.1,5.5-13.7L398.3,13.7
	c3.7-3.7,8.2-5.5,13.7-5.5s10.1,1.8,13.7,5.5l60.5,60.5C489.9,77.9,491.8,82.5,491.8,88L491.8,88z M79.1,29.9l29.9,9.2l-29.9,9.2
	l-9.2,29.9l-9.2-29.9l-29.9-9.2l29.9-9.2L69.9,0L79.1,29.9z M186,79.4l59.9,18.3L186,116.1l-18.3,59.9l-18.3-59.9L89.5,97.7
	l59.9-18.3l18.3-59.9L186,79.4z M470.1,225.4l29.9,9.2l-29.9,9.2l-9.2,29.9l-9.2-29.9l-29.9-9.2l29.9-9.2l9.2-29.9L470.1,225.4z
	 M274.6,29.9l29.9,9.2l-29.9,9.2l-9.2,29.9l-9.2-29.9l-29.9-9.2l29.9-9.2L265.4,0L274.6,29.9z"/>
</svg>
