<?xml version="1.0" encoding="utf-8"?>
<!-- Generator: Adobe Illustrator 18.0.0, SVG Export Plug-In . SVG Version: 6.00 Build 0)  -->
<!DOCTYPE svg PUBLIC "-//W3C//DTD SVG 1.1//EN" "http://www.w3.org/Graphics/SVG/1.1/DTD/svg11.dtd">
<svg version="1.1" id="图层_1" xmlns="http://www.w3.org/2000/svg" xmlns:xlink="http://www.w3.org/1999/xlink" x="0px" y="0px"
	 viewBox="0 0 500 500" enable-background="new 0 0 500 500" xml:space="preserve">
<path fill="#999999" d="M62.5,281.3h421.9c4.2,0,7.9,1.5,11,4.6s4.6,6.8,4.6,11v109.4h-62.5v-62.5h-375v62.5H0V109.4
	c0-4.2,1.5-7.9,4.6-11s6.8-4.6,11-4.6h31.3c4.2,0,7.9,1.5,11,4.6s4.6,6.8,4.6,11V281.3z M203.1,203.1c0-17.3-6.1-32-18.3-44.2
	s-26.9-18.3-44.2-18.3s-32,6.1-44.2,18.3s-18.3,26.9-18.3,44.2s6.1,32,18.3,44.2s26.9,18.3,44.2,18.3s32-6.1,44.2-18.3
	S203.1,220.4,203.1,203.1z M500,265.6V250c0-25.9-9.2-48-27.5-66.3s-40.4-27.5-66.3-27.5H234.4c-4.2,0-7.9,1.5-11,4.6
	s-4.6,6.8-4.6,11v93.8H500z"/>
</svg>
