<?xml version="1.0" encoding="utf-8"?>
<!-- Generator: Adobe Illustrator 18.0.0, SVG Export Plug-In . SVG Version: 6.00 Build 0)  -->
<!DOCTYPE svg PUBLIC "-//W3C//DTD SVG 1.1//EN" "http://www.w3.org/Graphics/SVG/1.1/DTD/svg11.dtd">
<svg version="1.1" id="图层_1" xmlns="http://www.w3.org/2000/svg" xmlns:xlink="http://www.w3.org/1999/xlink" x="0px" y="0px"
	 viewBox="0 0 500 500" enable-background="new 0 0 500 500" xml:space="preserve">
<path fill="#999999" d="M250,214.3c44.1,0,85.3-4,123.6-12s68.5-19.8,90.7-35.4v47.4c0,12.8-9.6,24.7-28.7,35.7
	s-45.2,19.7-78.1,26.1s-68.7,9.6-107.4,9.6s-74.5-3.2-107.4-9.6S83.6,261,64.5,250s-28.7-22.9-28.7-35.7v-47.4
	c22.1,15.6,52.4,27.4,90.7,35.4S205.9,214.3,250,214.3z M250,428.6c44.1,0,85.3-4,123.6-12s68.5-19.8,90.7-35.4v47.4
	c0,12.8-9.6,24.7-28.7,35.7c-19.2,11-45.2,19.7-78.1,26.1c-32.9,6.4-68.7,9.6-107.4,9.6s-74.5-3.2-107.4-9.6
	c-32.9-6.4-59-15.1-78.1-26.1c-19.2-11-28.7-22.9-28.7-35.7v-47.4c22.1,15.6,52.4,27.4,90.7,35.4S205.9,428.6,250,428.6z M250,321.4
	c44.1,0,85.3-4,123.6-12c38.3-8,68.5-19.8,90.7-35.4v47.4c0,12.8-9.6,24.7-28.7,35.7c-19.2,11-45.2,19.7-78.1,26.1
	c-32.9,6.4-68.7,9.6-107.4,9.6s-74.5-3.2-107.4-9.6c-32.9-6.4-59-15.1-78.1-26.1c-19.2-11-28.7-22.9-28.7-35.7V274
	c22.1,15.6,52.4,27.4,90.7,35.4C164.7,317.4,205.9,321.4,250,321.4z M250,0c38.7,0,74.5,3.2,107.4,9.6s59,15.1,78.1,26.1
	s28.7,22.9,28.7,35.7v35.7c0,12.8-9.6,24.7-28.7,35.7c-19.2,11-45.2,19.7-78.1,26.1s-68.7,9.6-107.4,9.6s-74.5-3.2-107.4-9.6
	s-59-15.1-78.1-26.1c-19.2-11-28.7-22.9-28.7-35.7V71.4c0-12.8,9.6-24.7,28.7-35.7S109.7,16,142.6,9.6S211.3,0,250,0z"/>
</svg>
