<?xml version="1.0" encoding="utf-8"?>
<!-- Generator: Adobe Illustrator 18.0.0, SVG Export Plug-In . SVG Version: 6.00 Build 0)  -->
<!DOCTYPE svg PUBLIC "-//W3C//DTD SVG 1.1//EN" "http://www.w3.org/Graphics/SVG/1.1/DTD/svg11.dtd">
<svg version="1.1" id="图层_1" xmlns="http://www.w3.org/2000/svg" xmlns:xlink="http://www.w3.org/1999/xlink" x="0px" y="0px"
	 viewBox="0 0 500 500" enable-background="new 0 0 500 500" xml:space="preserve">
<path fill="#999999" d="M500,180.2v221.5c0,12.3-4.4,22.8-13.1,31.5c-8.7,8.7-19.3,13.1-31.5,13.1H44.6c-12.3,0-22.8-4.4-31.5-13.1
	C4.4,424.6,0,414.1,0,401.8V180.2c8.2,9.1,17.6,17.2,28.2,24.3c67.3,45.8,113.6,77.8,138.7,96.3c10.6,7.8,19.2,13.9,25.8,18.3
	c6.6,4.4,15.4,8.8,26.4,13.4c11,4.6,21.2,6.8,30.7,6.8h0.6c9.5,0,19.7-2.3,30.7-6.8c11-4.6,19.8-9,26.4-13.4
	c6.6-4.4,15.2-10.5,25.8-18.3c31.6-22.9,77.9-55,139-96.3C482.7,197.3,492,189.2,500,180.2z M500,98.2c0,14.7-4.6,28.7-13.7,42.1
	c-9.1,13.4-20.5,24.8-34,34.3c-69.9,48.5-113.5,78.8-130.6,90.7c-1.9,1.3-5.8,4.1-11.9,8.5c-6,4.4-11.1,7.9-15.1,10.6
	c-4,2.7-8.8,5.7-14.5,9.1c-5.7,3.3-11,5.9-16,7.5c-5,1.7-9.7,2.5-14,2.5h-0.6c-4.3,0-8.9-0.8-14-2.5c-5-1.7-10.4-4.2-16-7.5
	c-5.7-3.3-10.5-6.4-14.5-9.1c-4-2.7-9-6.2-15.1-10.6c-6-4.4-10-7.2-11.9-8.5c-16.9-11.9-41.3-28.9-73.1-50.9S54.3,179.1,48,174.7
	c-11.5-7.8-22.4-18.6-32.6-32.2S0,116.1,0,104.4c0-14.5,3.9-26.6,11.6-36.3s18.7-14.5,33.1-14.5h410.7c12.1,0,22.6,4.4,31.4,13.1
	C495.6,75.4,500,85.9,500,98.2z"/>
</svg>
