<?xml version="1.0" encoding="utf-8"?>
<!-- Generator: Adobe Illustrator 18.0.0, SVG Export Plug-In . SVG Version: 6.00 Build 0)  -->
<!DOCTYPE svg PUBLIC "-//W3C//DTD SVG 1.1//EN" "http://www.w3.org/Graphics/SVG/1.1/DTD/svg11.dtd">
<svg version="1.1" id="图层_1" xmlns="http://www.w3.org/2000/svg" xmlns:xlink="http://www.w3.org/1999/xlink" x="0px" y="0px"
	 viewBox="0 0 500 500" enable-background="new 0 0 500 500" xml:space="preserve">
<path fill="#999999" d="M466.7,291.7V75c0-2.3-0.8-4.2-2.5-5.9c-1.6-1.6-3.6-2.5-5.9-2.5H41.7c-2.3,0-4.2,0.8-5.9,2.5
	c-1.6,1.6-2.5,3.6-2.5,5.9v216.7c0,2.3,0.8,4.2,2.5,5.9c1.6,1.6,3.6,2.5,5.9,2.5h416.7c2.3,0,4.2-0.8,5.9-2.5
	C465.8,295.9,466.7,293.9,466.7,291.7z M500,75v283.3c0,11.5-4.1,21.3-12.2,29.4s-18,12.2-29.4,12.2H316.7c0,6.4,1.4,13.2,4.2,20.2
	s5.6,13.2,8.3,18.5s4.2,9.1,4.2,11.3c0,4.5-1.6,8.4-4.9,11.7c-3.3,3.3-7.2,4.9-11.7,4.9H183.3c-4.5,0-8.4-1.6-11.7-4.9
	s-4.9-7.2-4.9-11.7c0-2.4,1.4-6.3,4.2-11.5c2.8-5.2,5.6-11.3,8.3-18.2c2.8-6.9,4.2-13.7,4.2-20.3H41.7c-11.5,0-21.3-4.1-29.4-12.2
	S0,369.8,0,358.3V75c0-11.5,4.1-21.3,12.2-29.4s18-12.2,29.4-12.2h416.7c11.5,0,21.3,4.1,29.4,12.2S500,63.5,500,75z"/>
</svg>
