<?xml version="1.0" encoding="utf-8"?>
<!-- Generator: Adobe Illustrator 18.0.0, SVG Export Plug-In . SVG Version: 6.00 Build 0)  -->
<!DOCTYPE svg PUBLIC "-//W3C//DTD SVG 1.1//EN" "http://www.w3.org/Graphics/SVG/1.1/DTD/svg11.dtd">
<svg version="1.1" id="图层_1" xmlns="http://www.w3.org/2000/svg" xmlns:xlink="http://www.w3.org/1999/xlink" x="0px" y="0px"
	 viewBox="0 0 500 500" enable-background="new 0 0 500 500" xml:space="preserve">
<path fill="#999999" d="M167.4,346.2h178.8V167.4L167.4,346.2z M153.8,332.6l178.8-178.8H153.8V332.6z M500,355.8v57.7
	c0,2.8-0.9,5.1-2.7,6.9s-4.1,2.7-6.9,2.7h-67.3v67.3c0,2.8-0.9,5.1-2.7,6.9s-4.1,2.7-6.9,2.7h-57.7c-2.8,0-5.1-0.9-6.9-2.7
	s-2.7-4.1-2.7-6.9v-67.3H86.5c-2.8,0-5.1-0.9-6.9-2.7s-2.7-4.1-2.7-6.9V153.8H9.6c-2.8,0-5.1-0.9-6.9-2.7S0,147,0,144.2V86.5
	c0-2.8,0.9-5.1,2.7-6.9s4.1-2.7,6.9-2.7h67.3V9.6c0-2.8,0.9-5.1,2.7-6.9S83.7,0,86.5,0h57.7c2.8,0,5.1,0.9,6.9,2.7s2.7,4.1,2.7,6.9
	v67.3h255.7l73.9-74.2c2-1.8,4.3-2.7,6.9-2.7s4.9,0.9,6.9,2.7c1.8,2,2.7,4.3,2.7,6.9s-0.9,4.9-2.7,6.9l-74.2,73.9v255.7h67.3
	c2.8,0,5.1,0.9,6.9,2.7S500,353,500,355.8z"/>
</svg>
