<?xml version="1.0" encoding="utf-8"?>
<!-- Generator: Adobe Illustrator 18.0.0, SVG Export Plug-In . SVG Version: 6.00 Build 0)  -->
<!DOCTYPE svg PUBLIC "-//W3C//DTD SVG 1.1//EN" "http://www.w3.org/Graphics/SVG/1.1/DTD/svg11.dtd">
<svg version="1.1" id="图层_1" xmlns="http://www.w3.org/2000/svg" xmlns:xlink="http://www.w3.org/1999/xlink" x="0px" y="0px"
	 viewBox="0 0 500 500" enable-background="new 0 0 500 500" xml:space="preserve">
<path fill="#999999" d="M333.3,250c0-23-8.1-42.6-24.4-58.9c-16.3-16.3-35.9-24.4-58.9-24.4s-42.6,8.1-58.9,24.4
	S166.7,227,166.7,250s8.1,42.6,24.4,58.9c16.3,16.3,35.9,24.4,58.9,24.4s42.6-8.1,58.9-24.4C325.2,292.6,333.3,273,333.3,250z
	 M500,214.5v72.3c0,2.6-0.9,5.1-2.6,7.5c-1.7,2.4-3.9,3.8-6.5,4.2l-60.2,9.1c-4.1,11.7-8.4,21.6-12.7,29.6
	c7.6,10.9,19.2,25.8,34.8,44.9c2.2,2.6,3.3,5.3,3.3,8.1s-1,5.3-2.9,7.5c-5.9,8-16.6,19.7-32.2,35.2c-15.6,15.4-25.8,23.1-30.6,23.1
	c-2.6,0-5.4-1-8.5-2.9L336.9,418c-9.5,5-19.4,9.1-29.6,12.4c-3.5,29.5-6.6,49.7-9.4,60.5c-1.5,6.1-5.4,9.1-11.7,9.1h-72.3
	c-3,0-5.7-0.9-8-2.8c-2.3-1.8-3.5-4.2-3.7-7l-9.1-59.9c-10.6-3.5-20.4-7.5-29.3-12l-45.9,34.8c-2.2,2-4.9,2.9-8.1,2.9
	c-3,0-5.8-1.2-8.1-3.6c-27.3-24.7-45.2-43-53.7-54.7c-1.5-2.2-2.3-4.7-2.3-7.5c0-2.6,0.9-5.1,2.6-7.5c3.3-4.6,8.8-11.8,16.6-21.6
	s13.7-17.5,17.6-22.9C76.5,327.4,72,316.6,69,306l-59.6-8.8c-2.8-0.4-5.1-1.8-6.8-4.1c-1.7-2.3-2.6-4.8-2.6-7.6v-72.3
	c0-2.6,0.9-5.1,2.6-7.5s3.8-3.8,6.2-4.2l60.5-9.1c3-10,7.3-20,12.7-29.9c-8.7-12.4-20.3-27.3-34.8-44.9c-2.2-2.6-3.3-5.2-3.3-7.8
	c0-2.2,1-4.7,2.9-7.5c5.6-7.8,16.3-19.5,32.1-35s26-23.3,30.8-23.3c2.8,0,5.6,1.1,8.5,3.3L163.1,82c9.5-5,19.4-9.1,29.6-12.4
	c3.5-29.5,6.6-49.7,9.4-60.5C203.7,3,207.6,0,213.9,0h72.3c3,0,5.7,0.9,8,2.8c2.3,1.8,3.5,4.2,3.7,7l9.1,59.9
	c10.6,3.5,20.4,7.5,29.3,12l46.2-34.8c2-2,4.6-2.9,7.8-2.9c2.8,0,5.5,1.1,8.1,3.3c28,25.8,45.9,44.3,53.7,55.3
	c1.5,1.7,2.3,4.1,2.3,7.2c0,2.6-0.9,5.1-2.6,7.5c-3.3,4.6-8.8,11.8-16.6,21.6c-7.8,9.9-13.7,17.5-17.6,22.9
	c5.6,10.9,10.1,21.5,13.3,31.9l59.6,9.1c2.8,0.4,5.1,1.8,6.8,4.1C499.1,209.1,500,211.7,500,214.5z"/>
</svg>
