<?xml version="1.0" encoding="utf-8"?>
<!-- Generator: Adobe Illustrator 18.0.0, SVG Export Plug-In . SVG Version: 6.00 Build 0)  -->
<!DOCTYPE svg PUBLIC "-//W3C//DTD SVG 1.1//EN" "http://www.w3.org/Graphics/SVG/1.1/DTD/svg11.dtd">
<svg version="1.1" id="图层_1" xmlns="http://www.w3.org/2000/svg" xmlns:xlink="http://www.w3.org/1999/xlink" x="0px" y="0px"
	 viewBox="0 0 500 500" enable-background="new 0 0 500 500" xml:space="preserve">
<path fill="#999999" d="M447.8,250l44.9,43.9c6.5,6.1,8.7,13.7,6.5,22.8c-2.6,8.9-8.2,14.4-16.9,16.6l-61.2,15.6l17.2,60.5
	c2.6,8.9,0.5,16.5-6.2,22.8c-6.3,6.7-13.9,8.8-22.8,6.2l-60.5-17.2l-15.6,61.2c-2.2,8.7-7.7,14.3-16.6,16.9
	c-2.6,0.4-4.7,0.7-6.2,0.7c-6.7,0-12.3-2.4-16.6-7.2L250,447.8l-43.9,44.9c-6.1,6.5-13.7,8.7-22.8,6.5c-8.9-2.4-14.4-8-16.6-16.9
	l-15.6-61.2l-60.5,17.2c-8.9,2.6-16.5,0.5-22.8-6.2c-6.7-6.3-8.8-13.9-6.2-22.8l17.2-60.5l-61.2-15.6c-8.7-2.2-14.3-7.7-16.9-16.6
	c-2.2-9.1,0-16.7,6.5-22.8L52.2,250L7.3,206.1c-6.5-6.1-8.7-13.7-6.5-22.8c2.6-8.9,8.2-14.4,16.9-16.6l61.2-15.6L61.6,90.6
	c-2.6-8.9-0.5-16.5,6.2-22.8c6.3-6.7,13.9-8.8,22.8-6.2l60.5,17.2l15.6-61.2c2.2-8.9,7.7-14.4,16.6-16.6c8.9-2.6,16.5-0.5,22.8,6.2
	L250,52.5l43.9-45.2c6.3-6.5,13.9-8.6,22.8-6.2c8.9,2.2,14.4,7.7,16.6,16.6l15.6,61.2l60.5-17.2c8.9-2.6,16.5-0.5,22.8,6.2
	c6.7,6.3,8.8,13.9,6.2,22.8l-17.2,60.5l61.2,15.6c8.7,2.2,14.3,7.7,16.9,16.6c2.2,9.1,0,16.7-6.5,22.8L447.8,250z"/>
</svg>
