<?xml version="1.0" encoding="utf-8"?>
<!-- Generator: Adobe Illustrator 18.0.0, SVG Export Plug-In . SVG Version: 6.00 Build 0)  -->
<!DOCTYPE svg PUBLIC "-//W3C//DTD SVG 1.1//EN" "http://www.w3.org/Graphics/SVG/1.1/DTD/svg11.dtd">
<svg version="1.1" id="图层_1" xmlns="http://www.w3.org/2000/svg" xmlns:xlink="http://www.w3.org/1999/xlink" x="0px" y="0px"
	 viewBox="0 0 500 500" enable-background="new 0 0 500 500" xml:space="preserve">
<path fill="#999999" d="M196.4,89.3c-28.5,0-55.1,4.8-79.8,14.5s-44.4,22.8-59,39.3s-21.9,34.3-21.9,53.3c0,15.3,4.9,29.9,14.8,44.1
	c9.9,14.1,23.7,26.4,41.6,36.8l27.1,15.6l-9.8,23.4c6.3-3.7,12.1-7.3,17.3-10.9l12.3-8.6l14.8,2.8c14.5,2.6,28.7,3.9,42.7,3.9
	c28.5,0,55.1-4.8,79.8-14.5c24.7-9.7,44.4-22.8,59-39.3c14.6-16.6,21.9-34.3,21.9-53.3s-7.3-36.7-21.9-53.3
	c-14.6-16.6-34.3-29.7-59-39.3C251.5,94.1,224.9,89.3,196.4,89.3z M196.4,53.6c35.5,0,68.4,6.4,98.6,19.1
	c30.2,12.7,54.1,30.1,71.6,52s26.2,45.9,26.2,71.7s-8.7,49.8-26.2,71.7s-41.3,39.3-71.6,52c-30.2,12.7-63.1,19.1-98.6,19.1
	c-16,0-32.4-1.5-49.1-4.5c-23.1,16.4-48.9,28.3-77.6,35.7c-6.7,1.7-14.7,3.2-24,4.5h-0.8c-2,0-4-0.7-5.7-2.2
	c-1.8-1.5-2.8-3.4-3.2-5.9c-0.2-0.6-0.3-1.2-0.3-1.8c0-0.7,0-1.3,0.1-1.8c0.1-0.6,0.3-1.1,0.6-1.7l0.7-1.4l1-1.5l1.1-1.4l1.3-1.4
	l1.1-1.3c0.9-1.1,3.1-3.4,6.4-7c3.3-3.5,5.8-6.3,7.3-8.2s3.6-4.7,6.3-8.1s5-7,7-10.7s3.9-7.8,5.7-12.3
	c-23.1-13.4-41.2-29.9-54.4-49.4S0,218.5,0,196.4c0-25.9,8.7-49.8,26.2-71.7s41.3-39.3,71.6-52S160.9,53.6,196.4,53.6z M425.8,379.7
	c1.9,4.5,3.8,8.6,5.7,12.3c2,3.7,4.3,7.3,7,10.7c2.7,3.4,4.8,6.1,6.3,8.1c1.5,2,3.9,4.7,7.3,8.2c3.3,3.5,5.5,5.9,6.4,7
	c0.2,0.2,0.6,0.6,1.1,1.3c0.6,0.7,1,1.1,1.3,1.4c0.3,0.3,0.7,0.7,1.1,1.4c0.5,0.7,0.8,1.2,1,1.5l0.7,1.4l0.6,1.7l0.1,1.8l-0.3,1.8
	c-0.6,2.6-1.8,4.7-3.6,6.1c-1.9,1.5-3.9,2.1-6.1,2c-9.3-1.3-17.3-2.8-24-4.5c-28.6-7.4-54.5-19.3-77.6-35.7
	c-16.7,3-33.1,4.5-49.1,4.5c-50.4,0-94.3-12.3-131.7-36.8c10.8,0.7,19,1.1,24.6,1.1c29.9,0,58.7-4.2,86.2-12.6
	c27.5-8.4,52.1-20.4,73.7-36c23.3-17.1,41.1-36.8,53.6-59.2c12.5-22.3,18.7-45.9,18.7-70.9c0-14.3-2.1-28.5-6.4-42.4
	c24,13.2,43,29.8,56.9,49.7S500,245,500,267.8c0,22.3-6.6,43.2-19.8,62.6S448.8,366.3,425.8,379.7z"/>
</svg>
