<?xml version="1.0" encoding="utf-8"?>
<!-- Generator: Adobe Illustrator 18.0.0, SVG Export Plug-In . SVG Version: 6.00 Build 0)  -->
<!DOCTYPE svg PUBLIC "-//W3C//DTD SVG 1.1//EN" "http://www.w3.org/Graphics/SVG/1.1/DTD/svg11.dtd">
<svg version="1.1" id="图层_1" xmlns="http://www.w3.org/2000/svg" xmlns:xlink="http://www.w3.org/1999/xlink" x="0px" y="0px"
	 viewBox="0 0 500 500" enable-background="new 0 0 500 500" xml:space="preserve">
<path fill="#999999" d="M118,134.8c0-9.3-3.3-17.2-9.9-23.8c-6.6-6.6-14.5-9.9-23.8-9.9c-9.3,0-17.2,3.3-23.8,9.9
	c-6.6,6.6-9.9,14.5-9.9,23.8s3.3,17.2,9.9,23.8c6.6,6.6,14.5,9.9,23.8,9.9c9.3,0,17.2-3.3,23.8-9.9C114.7,152.1,118,144.1,118,134.8
	L118,134.8z M398.9,286.5c0,9.3-3.2,17.2-9.7,23.7L259.9,439.7c-6.8,6.5-14.8,9.7-24,9.7c-9.3,0-17.2-3.2-23.7-9.7L24,251.2
	c-6.7-6.5-12.3-15.4-17-26.6c-4.7-11.2-7-21.5-7-30.8V84.3c0-9.1,3.3-17,10-23.7c6.7-6.7,14.6-10,23.7-10h109.5
	c9.3,0,19.6,2.3,30.8,7c11.2,4.7,20.2,10.3,26.9,17l188.3,188C395.6,269.4,398.9,277.3,398.9,286.5L398.9,286.5z M500,286.5
	c0,9.3-3.2,17.2-9.7,23.7L361,439.7c-6.8,6.5-14.8,9.7-24,9.7c-6.3,0-11.5-1.2-15.5-3.7c-4-2.5-8.7-6.4-14-11.8l123.7-123.7
	c6.5-6.5,9.7-14.4,9.7-23.7c0-9.1-3.2-17.1-9.7-24L243,74.5c-6.7-6.7-15.6-12.3-26.9-17c-11.2-4.7-21.5-7-30.8-7h59
	c9.3,0,19.6,2.3,30.8,7c11.2,4.7,20.2,10.3,26.9,17l188.3,188C496.8,269.4,500,277.3,500,286.5L500,286.5z"/>
</svg>
