<?xml version="1.0" encoding="utf-8"?>
<!-- Generator: Adobe Illustrator 18.0.0, SVG Export Plug-In . SVG Version: 6.00 Build 0)  -->
<!DOCTYPE svg PUBLIC "-//W3C//DTD SVG 1.1//EN" "http://www.w3.org/Graphics/SVG/1.1/DTD/svg11.dtd">
<svg version="1.1" id="图层_1" xmlns="http://www.w3.org/2000/svg" xmlns:xlink="http://www.w3.org/1999/xlink" x="0px" y="0px"
	 viewBox="0 0 500 500" enable-background="new 0 0 500 500" xml:space="preserve">
<path fill="#999999" d="M500,214.2c0,32.4-11.2,62.3-33.5,89.7c-22.3,27.4-52.6,49.1-91,65s-80.2,23.9-125.6,23.9
	c-13,0-26.5-0.7-40.5-2.2c-36.8,32.6-79.6,55.1-128.3,67.5c-9.1,2.6-19.7,4.7-31.8,6.1c-3.2,0.4-6-0.5-8.5-2.5
	c-2.5-2-4.1-4.7-4.9-8.1v-0.3c-0.6-0.7-0.6-1.9-0.1-3.3c0.5-1.5,0.7-2.4,0.6-2.8c-0.1-0.4,0.3-1.3,1.3-2.7l1.7-2.5l2-2.4l2.2-2.5
	c1.3-1.5,4.2-4.7,8.6-9.6c4.5-4.9,7.7-8.5,9.6-10.6s4.8-5.8,8.6-11c3.8-5.2,6.8-10,9.1-14.2c2.2-4.3,4.7-9.8,7.5-16.5
	c2.8-6.7,5.2-13.8,7.3-21.2c-29.2-16.6-52.2-37-69.1-61.4C8.4,268.3,0,242.1,0,214.2c0-24.2,6.6-47.3,19.8-69.3s31-41.1,53.3-57.1
	s48.9-28.7,79.8-38.1s63.2-14.1,97.1-14.1c45.4,0,87.2,8,125.6,23.9s68.6,37.6,91,65C488.8,152,500,181.9,500,214.2z"/>
</svg>
