<?xml version="1.0" encoding="utf-8"?>
<!-- Generator: Adobe Illustrator 18.0.0, SVG Export Plug-In . SVG Version: 6.00 Build 0)  -->
<!DOCTYPE svg PUBLIC "-//W3C//DTD SVG 1.1//EN" "http://www.w3.org/Graphics/SVG/1.1/DTD/svg11.dtd">
<svg version="1.1" id="图层_1" xmlns="http://www.w3.org/2000/svg" xmlns:xlink="http://www.w3.org/1999/xlink" x="0px" y="0px"
	 viewBox="0 0 500 500" enable-background="new 0 0 500 500" xml:space="preserve">
<path fill="#999999" d="M250,71.4c-37.9,0-73.4,6.5-106.4,19.4s-59.2,30.4-78.7,52.3s-29.2,45.7-29.2,71.1
	c0,20.8,6.6,40.7,19.9,59.6c13.3,18.9,32,35.2,56.2,49l24.3,14l-7.5,26.8c-4.5,16.9-11,32.9-19.5,48c28.3-11.7,53.9-27.6,76.7-47.7
	l12-10.6l15.9,1.7c12.8,1.5,24.9,2.2,36.3,2.2c37.9,0,73.4-6.5,106.4-19.4c33-12.9,59.2-30.4,78.7-52.3s29.2-45.7,29.2-71.1
	s-9.7-49.2-29.2-71.1s-45.7-39.4-78.7-52.3S287.9,71.4,250,71.4z M500,214.3c0,32.4-11.2,62.3-33.5,89.7c-22.3,27.4-52.6,49.1-91,65
	c-38.3,15.9-80.2,23.9-125.6,23.9c-13,0-26.5-0.7-40.5-2.2c-36.8,32.6-79.6,55.1-128.3,67.5c-9.1,2.6-19.7,4.7-31.8,6.1H48
	c-2.8,0-5.3-1-7.5-2.9s-3.7-4.5-4.5-7.7v-0.3c-0.6-0.7-0.6-1.9-0.1-3.3c0.5-1.5,0.7-2.4,0.6-2.8c-0.1-0.4,0.3-1.3,1.3-2.7l1.7-2.5
	l2-2.4l2.2-2.5c1.3-1.5,4.2-4.7,8.6-9.6c4.5-4.9,7.7-8.5,9.6-10.6s4.8-5.8,8.6-11c3.8-5.2,6.8-10,9.1-14.2c2.2-4.3,4.7-9.8,7.5-16.5
	c2.8-6.7,5.2-13.8,7.3-21.2c-29.2-16.6-52.2-37-69.1-61.4C8.4,268.3,0,242.2,0,214.3c0-32.4,11.2-62.3,33.5-89.7s52.6-49.1,91-65
	S204.6,35.7,250,35.7s87.2,8,125.6,23.9s68.6,37.6,91,65C488.8,152,500,181.9,500,214.3z"/>
</svg>
