<?xml version="1.0" encoding="utf-8"?>
<!-- Generator: Adobe Illustrator 18.0.0, SVG Export Plug-In . SVG Version: 6.00 Build 0)  -->
<!DOCTYPE svg PUBLIC "-//W3C//DTD SVG 1.1//EN" "http://www.w3.org/Graphics/SVG/1.1/DTD/svg11.dtd">
<svg version="1.1" id="图层_1" xmlns="http://www.w3.org/2000/svg" xmlns:xlink="http://www.w3.org/1999/xlink" x="0px" y="0px"
	 viewBox="0 0 500 500" enable-background="new 0 0 500 500" xml:space="preserve">
<path fill="#999999" d="M51.8,203.1l152.1,162.3l-73.2-162.3H51.8z M250,391.6l85.2-188.5H164.8L250,391.6z M131.4,171.9l49.8-93.7
	h-64l-70.3,93.7H131.4z M296.1,365.5l152.1-162.3h-78.9L296.1,365.5z M166.8,171.9h166.5l-49.8-93.7h-66.9L166.8,171.9z
	 M368.6,171.9h84.5l-70.3-93.7h-64L368.6,171.9z M403.1,53.2l93.7,125c2.3,2.9,3.3,6.3,3.2,10.1c-0.2,3.8-1.5,7.1-4.2,9.9
	l-234.4,250c-2.9,3.3-6.8,4.9-11.5,4.9s-8.5-1.6-11.5-4.9L4.2,198.2c-2.6-2.8-4-6.1-4.2-9.9c-0.2-3.8,0.9-7.2,3.2-10.1l93.7-125
	c2.9-4.2,7.1-6.3,12.5-6.3h281.2C396,46.9,400.1,49,403.1,53.2z"/>
</svg>
