<?xml version="1.0" encoding="utf-8"?>
<!-- Generator: Adobe Illustrator 18.0.0, SVG Export Plug-In . SVG Version: 6.00 Build 0)  -->
<!DOCTYPE svg PUBLIC "-//W3C//DTD SVG 1.1//EN" "http://www.w3.org/Graphics/SVG/1.1/DTD/svg11.dtd">
<svg version="1.1" id="图层_1" xmlns="http://www.w3.org/2000/svg" xmlns:xlink="http://www.w3.org/1999/xlink" x="0px" y="0px"
	 viewBox="0 0 500 500" enable-background="new 0 0 500 500" xml:space="preserve">
<path fill="#999999" d="M53.6,464.3h392.9V178.6H53.6V464.3z M160.7,125V44.6c0-2.6-0.8-4.7-2.5-6.4c-1.7-1.7-3.8-2.5-6.4-2.5h-17.9
	c-2.6,0-4.7,0.8-6.4,2.5c-1.7,1.7-2.5,3.8-2.5,6.4V125c0,2.6,0.8,4.7,2.5,6.4c1.7,1.7,3.8,2.5,6.4,2.5h17.9c2.6,0,4.7-0.8,6.4-2.5
	C159.9,129.7,160.7,127.6,160.7,125z M375,125V44.6c0-2.6-0.8-4.7-2.5-6.4c-1.7-1.7-3.8-2.5-6.4-2.5h-17.9c-2.6,0-4.7,0.8-6.4,2.5
	c-1.7,1.7-2.5,3.8-2.5,6.4V125c0,2.6,0.8,4.7,2.5,6.4c1.7,1.7,3.8,2.5,6.4,2.5h17.9c2.6,0,4.7-0.8,6.4-2.5
	C374.2,129.7,375,127.6,375,125z M482.1,107.1v357.1c0,9.7-3.5,18-10.6,25.1c-7.1,7.1-15.4,10.6-25.1,10.6H53.6
	c-9.7,0-18-3.5-25.1-10.6c-7.1-7.1-10.6-15.4-10.6-25.1V107.1c0-9.7,3.5-18,10.6-25.1s15.4-10.6,25.1-10.6h35.7V44.6
	c0-12.3,4.4-22.8,13.1-31.5S121.7,0,133.9,0h17.9c12.3,0,22.8,4.4,31.5,13.1s13.1,19.3,13.1,31.5v26.8h107.1V44.6
	c0-12.3,4.4-22.8,13.1-31.5C325.4,4.4,335.9,0,348.2,0h17.9c12.3,0,22.8,4.4,31.5,13.1c8.7,8.7,13.1,19.3,13.1,31.5v26.8h35.7
	c9.7,0,18,3.5,25.1,10.6C478.6,89.1,482.1,97.5,482.1,107.1z"/>
</svg>
