<?xml version="1.0" encoding="utf-8"?>
<!-- Generator: Adobe Illustrator 18.0.0, SVG Export Plug-In . SVG Version: 6.00 Build 0)  -->
<!DOCTYPE svg PUBLIC "-//W3C//DTD SVG 1.1//EN" "http://www.w3.org/Graphics/SVG/1.1/DTD/svg11.dtd">
<svg version="1.1" id="图层_1" xmlns="http://www.w3.org/2000/svg" xmlns:xlink="http://www.w3.org/1999/xlink" x="0px" y="0px"
	 viewBox="0 0 500 500" enable-background="new 0 0 500 500" xml:space="preserve">
<path fill="#999999" d="M480.8,28.8v336.5c0,10-3.4,18.9-10.2,26.7s-15.4,13.9-25.8,18.2s-20.8,7.5-31.1,9.6
	c-10.3,2.1-20,3.2-29,3.2s-18.7-1.1-29-3.2s-20.7-5.3-31.1-9.6s-19-10.4-25.8-18.2s-10.2-16.7-10.2-26.7c0-10,3.4-18.9,10.2-26.7
	s15.4-13.9,25.8-18.2s20.8-7.5,31.1-9.6s20-3.2,29-3.2c21,0,40.3,3.9,57.7,11.7V158.1l-230.8,71.2v213c0,10-3.4,18.9-10.2,26.7
	c-6.8,7.8-15.4,13.9-25.8,18.2c-10.4,4.3-20.8,7.5-31.1,9.6c-10.3,2.1-20,3.2-29,3.2s-18.7-1.1-29-3.2s-20.7-5.3-31.1-9.6
	c-10.4-4.3-19-10.4-25.8-18.2s-10.2-16.7-10.2-26.7c0-10,3.4-18.9,10.2-26.7s15.4-13.9,25.8-18.2c10.4-4.3,20.8-7.5,31.1-9.6
	c10.3-2.1,20-3.2,29-3.2c21,0,40.3,3.9,57.7,11.7V105.8c0-6.2,1.9-11.9,5.7-17c3.8-5.1,8.7-8.7,14.7-10.7l250-76.9
	c2.4-0.8,5.2-1.2,8.4-1.2c8,0,14.8,2.8,20.4,8.4C478,14,480.8,20.8,480.8,28.8z"/>
</svg>
