<?xml version="1.0" encoding="utf-8"?>
<!-- Generator: Adobe Illustrator 18.0.0, SVG Export Plug-In . SVG Version: 6.00 Build 0)  -->
<!DOCTYPE svg PUBLIC "-//W3C//DTD SVG 1.1//EN" "http://www.w3.org/Graphics/SVG/1.1/DTD/svg11.dtd">
<svg version="1.1" id="图层_1" xmlns="http://www.w3.org/2000/svg" xmlns:xlink="http://www.w3.org/1999/xlink" x="0px" y="0px"
	 viewBox="0 0 500 500" enable-background="new 0 0 500 500" xml:space="preserve">
<path fill="#999999" d="M500,196.4c0,4.4-2.6,9.2-7.8,14.4L383.1,317.2L409,467.4c0.2,1.4,0.3,3.4,0.3,6c0,4.2-1.1,7.8-3.2,10.7
	s-5.2,4.4-9.2,4.4c-3.8,0-7.8-1.2-12-3.6L250,413.9l-134.9,70.9c-4.4,2.4-8.4,3.6-12,3.6c-4.2,0-7.4-1.5-9.5-4.4
	c-2.1-2.9-3.2-6.5-3.2-10.7c0-1.2,0.2-3.2,0.6-6l25.8-150.2L7.5,210.8c-5-5.4-7.5-10.2-7.5-14.4c0-7.4,5.6-12,16.8-13.8l150.8-21.9
	l67.6-136.7c3.8-8.2,8.7-12.3,14.7-12.3s10.9,4.1,14.7,12.3l67.6,136.7l150.8,21.9C494.4,184.3,500,189,500,196.4z"/>
</svg>
