<?xml version="1.0" encoding="utf-8"?>
<!-- Generator: Adobe Illustrator 18.0.0, SVG Export Plug-In . SVG Version: 6.00 Build 0)  -->
<!DOCTYPE svg PUBLIC "-//W3C//DTD SVG 1.1//EN" "http://www.w3.org/Graphics/SVG/1.1/DTD/svg11.dtd">
<svg version="1.1" id="图层_1" xmlns="http://www.w3.org/2000/svg" xmlns:xlink="http://www.w3.org/1999/xlink" x="0px" y="0px"
	 viewBox="0 0 500 500" enable-background="new 0 0 500 500" xml:space="preserve">
<path fill="#999999" d="M230.8,288.5v115.4c0,16-5.6,29.6-16.8,40.9s-24.8,16.8-40.9,16.8H57.7c-16,0-29.6-5.6-40.9-16.8
	S0,419.9,0,403.8V192.3c0-20.8,4.1-40.7,12.2-59.6s19.1-35.3,32.9-49.1s30.2-24.8,49.1-32.9s38.8-12.2,59.6-12.2h19.2
	c5.2,0,9.7,1.9,13.5,5.7s5.7,8.3,5.7,13.5v38.5c0,5.2-1.9,9.7-5.7,13.5c-3.8,3.8-8.3,5.7-13.5,5.7h-19.2c-21.2,0-39.4,7.5-54.4,22.5
	c-15,15-22.5,33.2-22.5,54.4v9.6c0,8,2.8,14.8,8.4,20.4s12.4,8.4,20.4,8.4h67.3c16,0,29.6,5.6,40.9,16.8
	C225.2,258.8,230.8,272.4,230.8,288.5z M500,288.5v115.4c0,16-5.6,29.6-16.8,40.9c-11.2,11.2-24.8,16.8-40.9,16.8H326.9
	c-16,0-29.6-5.6-40.9-16.8c-11.2-11.2-16.8-24.8-16.8-40.9V192.3c0-20.8,4.1-40.7,12.2-59.6s19.1-35.3,32.9-49.1
	s30.2-24.8,49.1-32.9s38.8-12.2,59.6-12.2h19.2c5.2,0,9.7,1.9,13.5,5.7c3.8,3.8,5.7,8.3,5.7,13.5v38.5c0,5.2-1.9,9.7-5.7,13.5
	c-3.8,3.8-8.3,5.7-13.5,5.7h-19.2c-21.2,0-39.4,7.5-54.4,22.5c-15,15-22.5,33.2-22.5,54.4v9.6c0,8,2.8,14.8,8.4,20.4
	c5.6,5.6,12.4,8.4,20.4,8.4h67.3c16,0,29.6,5.6,40.9,16.8C494.4,258.8,500,272.4,500,288.5z"/>
</svg>
