<?xml version="1.0" encoding="utf-8"?>
<!-- Generator: Adobe Illustrator 18.0.0, SVG Export Plug-In . SVG Version: 6.00 Build 0)  -->
<!DOCTYPE svg PUBLIC "-//W3C//DTD SVG 1.1//EN" "http://www.w3.org/Graphics/SVG/1.1/DTD/svg11.dtd">
<svg version="1.1" id="图层_1" xmlns="http://www.w3.org/2000/svg" xmlns:xlink="http://www.w3.org/1999/xlink" x="0px" y="0px"
	 viewBox="0 0 500 500" enable-background="new 0 0 500 500" xml:space="preserve">
<path fill="#999999" d="M230.8,96.2v211.5c0,20.8-4.1,40.7-12.2,59.6s-19.1,35.3-32.9,49.1s-30.2,24.8-49.1,32.9
	s-38.8,12.2-59.6,12.2H57.7c-5.2,0-9.7-1.9-13.5-5.7c-3.8-3.8-5.7-8.3-5.7-13.5v-38.5c0-5.2,1.9-9.7,5.7-13.5
	c3.8-3.8,8.3-5.7,13.5-5.7h19.2c21.2,0,39.4-7.5,54.4-22.5c15-15,22.5-33.2,22.5-54.4v-9.6c0-8-2.8-14.8-8.4-20.4
	s-12.4-8.4-20.4-8.4H57.7c-16,0-29.6-5.6-40.9-16.8C5.6,241.2,0,227.6,0,211.5V96.2c0-16,5.6-29.6,16.8-40.9s24.8-16.8,40.9-16.8
	h115.4c16,0,29.6,5.6,40.9,16.8S230.8,80.1,230.8,96.2z M500,96.2v211.5c0,20.8-4.1,40.7-12.2,59.6s-19.1,35.3-32.9,49.1
	s-30.2,24.8-49.1,32.9c-18.9,8.1-38.8,12.2-59.6,12.2h-19.2c-5.2,0-9.7-1.9-13.5-5.7c-3.8-3.8-5.7-8.3-5.7-13.5v-38.5
	c0-5.2,1.9-9.7,5.7-13.5c3.8-3.8,8.3-5.7,13.5-5.7h19.2c21.2,0,39.4-7.5,54.4-22.5c15-15,22.5-33.2,22.5-54.4v-9.6
	c0-8-2.8-14.8-8.4-20.4c-5.6-5.6-12.4-8.4-20.4-8.4h-67.3c-16,0-29.6-5.6-40.9-16.8c-11.2-11.2-16.8-24.8-16.8-40.9V96.2
	c0-16,5.6-29.6,16.8-40.9c11.2-11.2,24.8-16.8,40.9-16.8h115.4c16,0,29.6,5.6,40.9,16.8C494.4,66.5,500,80.1,500,96.2z"/>
</svg>
