<?xml version="1.0" encoding="utf-8"?>
<!-- Generator: Adobe Illustrator 18.0.0, SVG Export Plug-In . SVG Version: 6.00 Build 0)  -->
<!DOCTYPE svg PUBLIC "-//W3C//DTD SVG 1.1//EN" "http://www.w3.org/Graphics/SVG/1.1/DTD/svg11.dtd">
<svg version="1.1" id="图层_1" xmlns="http://www.w3.org/2000/svg" xmlns:xlink="http://www.w3.org/1999/xlink" x="0px" y="0px"
	 viewBox="0 0 500 500" enable-background="new 0 0 500 500" xml:space="preserve">
<path fill="#999999" d="M147.9,105.6c0-11.7-4.1-21.6-12.4-29.9c-8.3-8.3-18.2-12.4-29.9-12.4c-11.7,0-21.6,4.1-29.9,12.4
	s-12.4,18.2-12.4,29.9c0,11.7,4.1,21.6,12.4,29.9c8.3,8.3,18.2,12.4,29.9,12.4c11.7,0,21.6-4.1,29.9-12.4
	C143.7,127.2,147.9,117.3,147.9,105.6L147.9,105.6z M500,295.7c0,11.7-4.1,21.6-12.2,29.7l-162,162.4c-8.6,8.1-18.6,12.2-30,12.2
	c-11.7,0-21.6-4.1-29.7-12.2L30,251.5c-8.4-8.1-15.5-19.3-21.3-33.3c-5.8-14.1-8.7-27-8.7-38.6V42.2c0-11.4,4.2-21.3,12.5-29.7
	S30.8,0,42.2,0h137.3c11.7,0,24.5,2.9,38.6,8.7c14.1,5.8,25.3,12.9,33.7,21.3l236,235.6C495.9,274.3,500,284.3,500,295.7L500,295.7z
	"/>
</svg>
