<?xml version="1.0" encoding="utf-8"?>
<!-- Generator: Adobe Illustrator 18.0.0, SVG Export Plug-In . SVG Version: 6.00 Build 0)  -->
<!DOCTYPE svg PUBLIC "-//W3C//DTD SVG 1.1//EN" "http://www.w3.org/Graphics/SVG/1.1/DTD/svg11.dtd">
<svg version="1.1" id="图层_1" xmlns="http://www.w3.org/2000/svg" xmlns:xlink="http://www.w3.org/1999/xlink" x="0px" y="0px"
	 viewBox="0 0 500 500" enable-background="new 0 0 500 500" xml:space="preserve">
<path fill="#999999" d="M423.1,211.5V250c0,44.3-14.8,82.8-44.3,115.5c-29.5,32.8-66.1,51.5-109.5,56.3v39.7h76.9
	c5.2,0,9.7,1.9,13.5,5.7c3.8,3.8,5.7,8.3,5.7,13.5s-1.9,9.7-5.7,13.5c-3.8,3.8-8.3,5.7-13.5,5.7H153.8c-5.2,0-9.7-1.9-13.5-5.7
	c-3.8-3.8-5.7-8.3-5.7-13.5s1.9-9.7,5.7-13.5c3.8-3.8,8.3-5.7,13.5-5.7h76.9v-39.7c-43.5-4.8-80-23.6-109.5-56.3
	S76.9,294.3,76.9,250v-38.5c0-5.2,1.9-9.7,5.7-13.5c3.8-3.8,8.3-5.7,13.5-5.7s9.7,1.9,13.5,5.7c3.8,3.8,5.7,8.3,5.7,13.5V250
	c0,37.1,13.2,68.8,39.5,95.1s58,39.5,95.1,39.5s68.8-13.2,95.1-39.5s39.5-58,39.5-95.1v-38.5c0-5.2,1.9-9.7,5.7-13.5
	c3.8-3.8,8.3-5.7,13.5-5.7s9.7,1.9,13.5,5.7C421.2,201.8,423.1,206.3,423.1,211.5z M346.2,96.2V250c0,26.4-9.4,49.1-28.2,67.9
	c-18.8,18.8-41.5,28.2-67.9,28.2s-49.1-9.4-67.9-28.2c-18.8-18.8-28.2-41.5-28.2-67.9V96.2c0-26.4,9.4-49.1,28.2-67.9S223.6,0,250,0
	s49.1,9.4,67.9,28.2S346.2,69.7,346.2,96.2z"/>
</svg>
