<?xml version="1.0" encoding="utf-8"?>
<!-- Generator: Adobe Illustrator 18.0.0, SVG Export Plug-In . SVG Version: 6.00 Build 0)  -->
<!DOCTYPE svg PUBLIC "-//W3C//DTD SVG 1.1//EN" "http://www.w3.org/Graphics/SVG/1.1/DTD/svg11.dtd">
<svg version="1.1" id="图层_1" xmlns="http://www.w3.org/2000/svg" xmlns:xlink="http://www.w3.org/1999/xlink" x="0px" y="0px"
	 viewBox="0 0 500 500" enable-background="new 0 0 500 500" xml:space="preserve">
<path fill="#999999" d="M119.9,284l-30.3,30.3c-8.4-20.6-12.6-42.1-12.6-64.3v-38.5c0-5.2,1.9-9.7,5.7-13.5
	c3.8-3.8,8.3-5.7,13.5-5.7s9.7,1.9,13.5,5.7c3.8,3.8,5.7,8.3,5.7,13.5V250C115.4,260.6,116.9,271.9,119.9,284z M454.6,103.1
	L346.2,211.5V250c0,26.4-9.4,49.1-28.2,67.9c-18.8,18.8-41.5,28.2-67.9,28.2c-11,0-21.9-1.9-32.8-5.7l-28.8,28.8
	c19.4,10.2,40,15.3,61.6,15.3c37.1,0,68.8-13.2,95.1-39.5s39.5-58,39.5-95.1v-38.5c0-5.2,1.9-9.7,5.7-13.5c3.8-3.8,8.3-5.7,13.5-5.7
	s9.7,1.9,13.5,5.7c3.8,3.8,5.7,8.3,5.7,13.5V250c0,44.3-14.8,82.8-44.3,115.5c-29.5,32.8-66.1,51.5-109.5,56.3v39.7h76.9
	c5.2,0,9.7,1.9,13.5,5.7c3.8,3.8,5.7,8.3,5.7,13.5s-1.9,9.7-5.7,13.5c-3.8,3.8-8.3,5.7-13.5,5.7H153.8c-5.2,0-9.7-1.9-13.5-5.7
	c-3.8-3.8-5.7-8.3-5.7-13.5s1.9-9.7,5.7-13.5c3.8-3.8,8.3-5.7,13.5-5.7h76.9v-39.7c-25-2.6-48.6-10.7-70.6-24.3l-76.3,76.3
	c-2,2-4.3,3-6.9,3c-2.6,0-4.9-1-6.9-3l-24.6-24.6c-2-2-3-4.3-3-6.9c0-2.6,1-4.9,3-6.9L416.2,64.6c2-2,4.3-3,6.9-3s4.9,1,6.9,3
	l24.6,24.6c2,2,3,4.3,3,6.9S456.6,101.1,454.6,103.1z M340.4,63.4L153.8,250V96.2c0-26.4,9.4-49.1,28.2-67.9S223.6,0,250,0
	c20.4,0,38.9,5.9,55.4,17.7C322,29.5,333.6,44.8,340.4,63.4z"/>
</svg>
