<?xml version="1.0" encoding="utf-8"?>
<!-- Generator: Adobe Illustrator 18.0.0, SVG Export Plug-In . SVG Version: 6.00 Build 0)  -->
<!DOCTYPE svg PUBLIC "-//W3C//DTD SVG 1.1//EN" "http://www.w3.org/Graphics/SVG/1.1/DTD/svg11.dtd">
<svg version="1.1" id="图层_1" xmlns="http://www.w3.org/2000/svg" xmlns:xlink="http://www.w3.org/1999/xlink" x="0px" y="0px"
	 viewBox="0 0 500 500" enable-background="new 0 0 500 500" xml:space="preserve">
<path fill="#999999" d="M250,464.3c-4.8,0-8.9-1.7-12.3-5l-174.1-168c-1.9-1.5-4.4-3.9-7.7-7.3c-3.3-3.3-8.4-9.4-15.5-18.3
	s-13.4-17.9-19-27.2c-5.6-9.3-10.6-20.6-14.9-33.8c-4.4-13.2-6.6-26-6.6-38.5c0-40.9,11.8-72.9,35.4-96s56.3-34.6,97.9-34.6
	c11.5,0,23.3,2,35.3,6c12,4,23.2,9.4,33.5,16.2s19.2,13.2,26.6,19.1c7.4,6,14.5,12.3,21.2,19c6.7-6.7,13.8-13,21.2-19
	c7.4-6,16.3-12.3,26.6-19.1s21.5-12.2,33.5-16.2s23.8-6,35.3-6c41.7,0,74.3,11.5,97.9,34.6s35.4,55.1,35.4,96
	c0,41.1-21.3,83-63.9,125.6L262.3,459.3C258.9,462.6,254.8,464.3,250,464.3z"/>
</svg>
