<?xml version="1.0" encoding="utf-8"?>
<!-- Generator: Adobe Illustrator 18.0.0, SVG Export Plug-In . SVG Version: 6.00 Build 0)  -->
<!DOCTYPE svg PUBLIC "-//W3C//DTD SVG 1.1//EN" "http://www.w3.org/Graphics/SVG/1.1/DTD/svg11.dtd">
<svg version="1.1" id="图层_1" xmlns="http://www.w3.org/2000/svg" xmlns:xlink="http://www.w3.org/1999/xlink" x="0px" y="0px"
	 viewBox="0 0 500 500" enable-background="new 0 0 500 500" xml:space="preserve">
<path fill="#999999" d="M464.3,166.3c0-15.1-2-28.4-6-39.9s-9.1-20.7-15.3-27.5c-6.2-6.8-13.8-12.3-22.7-16.6
	c-8.9-4.3-17.7-7.2-26.2-8.6c-8.6-1.5-17.7-2.2-27.3-2.2s-20.1,2.4-31.3,7.1c-11.2,4.7-21.4,10.7-30.8,17.9
	c-9.4,7.2-17.4,13.9-24.1,20.1c-6.7,6.2-12.3,12-16.7,17.2c-3.3,4.1-7.9,6.1-13.7,6.1s-10.3-2-13.7-6.1c-4.5-5.2-10-10.9-16.7-17.2
	c-6.7-6.2-14.7-12.9-24.1-20.1c-9.4-7.2-19.7-13.1-30.8-17.9c-11.2-4.7-21.6-7.1-31.3-7.1c-9.7,0-18.8,0.7-27.3,2.2
	S88.7,78,79.8,82.3c-8.9,4.3-16.5,9.8-22.7,16.6c-6.2,6.8-11.3,16-15.3,27.5s-6,24.8-6,39.9c0,31.3,17.4,64.3,52.2,99.1L250,421.6
	l161.8-156C446.8,230.7,464.3,197.5,464.3,166.3z M500,166.3c0,41.1-21.3,83-63.9,125.6L262.3,459.3c-3.3,3.3-7.4,5-12.3,5
	s-8.9-1.7-12.3-5l-174.1-168c-1.9-1.5-4.4-3.9-7.7-7.3c-3.3-3.3-8.4-9.4-15.5-18.3s-13.4-17.9-19-27.2c-5.6-9.3-10.6-20.6-14.9-33.8
	c-4.4-13.2-6.6-26-6.6-38.5c0-40.9,11.8-72.9,35.4-96s56.3-34.6,97.9-34.6c11.5,0,23.3,2,35.3,6c12,4,23.2,9.4,33.5,16.2
	s19.2,13.2,26.6,19.1c7.4,6,14.5,12.3,21.2,19c6.7-6.7,13.8-13,21.2-19c7.4-6,16.3-12.3,26.6-19.1s21.5-12.2,33.5-16.2
	s23.8-6,35.3-6c41.7,0,74.3,11.5,97.9,34.6S500,125.4,500,166.3z"/>
</svg>
