<?xml version="1.0" encoding="utf-8"?>
<!-- Generator: Adobe Illustrator 18.0.0, SVG Export Plug-In . SVG Version: 6.00 Build 0)  -->
<!DOCTYPE svg PUBLIC "-//W3C//DTD SVG 1.1//EN" "http://www.w3.org/Graphics/SVG/1.1/DTD/svg11.dtd">
<svg version="1.1" id="图层_1" xmlns="http://www.w3.org/2000/svg" xmlns:xlink="http://www.w3.org/1999/xlink" x="0px" y="0px"
	 viewBox="0 0 500 500" enable-background="new 0 0 500 500" xml:space="preserve">
<path fill="#999999" d="M369.1,308.3c-8,26.3-23,47.4-44.9,63.5c-21.9,16.1-46.7,24.1-74.2,24.1s-52.3-8-74.2-24.1
	c-21.9-16.1-36.9-37.2-44.9-63.5c-1.7-5.4-1.3-10.7,1.3-15.8c2.6-5.1,6.7-8.5,12.4-10.3c5.4-1.7,10.7-1.3,15.8,1.3
	c5.1,2.6,8.5,6.7,10.3,12.4c5.4,17.4,15.5,31.4,30.1,42.2s31.1,16.1,49.3,16.1s34.7-5.4,49.3-16.1s24.7-24.8,30.1-42.2
	c1.7-5.6,5.2-9.8,10.4-12.4c5.2-2.6,10.5-3,16-1.3c5.4,1.7,9.4,5.2,12,10.3C370.4,297.6,370.9,302.8,369.1,308.3z M208.3,166.7
	c0,11.5-4.1,21.3-12.2,29.5c-8.1,8.1-18,12.2-29.5,12.2c-11.5,0-21.3-4.1-29.5-12.2c-8.1-8.1-12.2-18-12.2-29.5
	c0-11.5,4.1-21.3,12.2-29.5s18-12.2,29.5-12.2c11.5,0,21.3,4.1,29.5,12.2C204.3,145.3,208.3,155.2,208.3,166.7z M375,166.7
	c0,11.5-4.1,21.3-12.2,29.5c-8.1,8.1-18,12.2-29.5,12.2c-11.5,0-21.3-4.1-29.5-12.2c-8.1-8.1-12.2-18-12.2-29.5
	c0-11.5,4.1-21.3,12.2-29.5c8.1-8.1,18-12.2,29.5-12.2c11.5,0,21.3,4.1,29.5,12.2S375,155.2,375,166.7z M458.3,250
	c0-28.2-5.5-55.2-16.6-80.9c-11.1-25.7-25.9-47.9-44.4-66.4s-40.7-33.4-66.4-44.4c-25.7-11.1-52.7-16.6-80.9-16.6
	s-55.2,5.5-80.9,16.6s-47.9,25.9-66.4,44.4s-33.4,40.7-44.4,66.4S41.7,221.8,41.7,250s5.5,55.2,16.6,80.9
	c11.1,25.7,25.9,47.9,44.4,66.4s40.7,33.4,66.4,44.4c25.7,11.1,52.7,16.6,80.9,16.6s55.2-5.5,80.9-16.6
	c25.7-11.1,47.9-25.9,66.4-44.4s33.4-40.7,44.4-66.4C452.8,305.2,458.3,278.2,458.3,250z M500,250c0,45.4-11.2,87.2-33.5,125.5
	s-52.7,68.6-91,91S295.4,500,250,500s-87.2-11.2-125.5-33.5s-68.6-52.7-91-91S0,295.4,0,250s11.2-87.2,33.5-125.5s52.7-68.6,91-91
	S204.6,0,250,0s87.2,11.2,125.5,33.5s68.6,52.7,91,91S500,204.6,500,250z"/>
</svg>
