<?xml version="1.0" encoding="utf-8"?>
<!-- Generator: Adobe Illustrator 18.0.0, SVG Export Plug-In . SVG Version: 6.00 Build 0)  -->
<!DOCTYPE svg PUBLIC "-//W3C//DTD SVG 1.1//EN" "http://www.w3.org/Graphics/SVG/1.1/DTD/svg11.dtd">
<svg version="1.1" id="图层_1" xmlns="http://www.w3.org/2000/svg" xmlns:xlink="http://www.w3.org/1999/xlink" x="0px" y="0px"
	 viewBox="0 0 500 500" enable-background="new 0 0 500 500" xml:space="preserve">
<path fill="#999999" d="M159.1,227.3h181.8v-68.2c0-25.1-8.9-46.5-26.6-64.3S275.1,68.2,250,68.2s-46.5,8.9-64.3,26.6
	s-26.6,39.2-26.6,64.3V227.3z M454.5,261.4v204.5c0,9.5-3.3,17.5-9.9,24.1c-6.6,6.6-14.7,9.9-24.1,9.9H79.5
	c-9.5,0-17.5-3.3-24.1-9.9c-6.6-6.6-9.9-14.7-9.9-24.1V261.4c0-9.5,3.3-17.5,9.9-24.1s14.7-9.9,24.1-9.9h11.4v-68.2
	c0-43.6,15.6-81,46.9-112.2S206.4,0,250,0s81,15.6,112.2,46.9s46.9,68.7,46.9,112.2v68.2h11.4c9.5,0,17.5,3.3,24.1,9.9
	C451.2,243.8,454.5,251.9,454.5,261.4z"/>
</svg>
