<?xml version="1.0" encoding="utf-8"?>
<!-- Generator: Adobe Illustrator 18.0.0, SVG Export Plug-In . SVG Version: 6.00 Build 0)  -->
<!DOCTYPE svg PUBLIC "-//W3C//DTD SVG 1.1//EN" "http://www.w3.org/Graphics/SVG/1.1/DTD/svg11.dtd">
<svg version="1.1" id="图层_1" xmlns="http://www.w3.org/2000/svg" xmlns:xlink="http://www.w3.org/1999/xlink" x="0px" y="0px"
	 viewBox="0 0 500 500" enable-background="new 0 0 500 500" xml:space="preserve">
<path fill="#999999" d="M500,173.1V250c0,5.2-1.9,9.7-5.7,13.5c-3.8,3.8-8.3,5.7-13.5,5.7h-19.2c-5.2,0-9.7-1.9-13.5-5.7
	c-3.8-3.8-5.7-8.3-5.7-13.5v-76.9c0-21.2-7.5-39.4-22.5-54.4s-33.2-22.5-54.4-22.5c-21.2,0-39.4,7.5-54.4,22.5
	c-15,15-22.5,33.2-22.5,54.4v57.7h28.8c8,0,14.8,2.8,20.4,8.4c5.6,5.6,8.4,12.4,8.4,20.4v173.1c0,8-2.8,14.8-8.4,20.4
	c-5.6,5.6-12.4,8.4-20.4,8.4H28.8c-8,0-14.8-2.8-20.4-8.4S0,440.7,0,432.7V259.6c0-8,2.8-14.8,8.4-20.4s12.4-8.4,20.4-8.4h201.9
	v-57.7c0-37.1,13.2-68.8,39.5-95.1s58-39.5,95.1-39.5s68.8,13.2,95.1,39.5S500,136,500,173.1z"/>
</svg>
