<?xml version="1.0" encoding="utf-8"?>
<!-- Generator: Adobe Illustrator 18.0.0, SVG Export Plug-In . SVG Version: 6.00 Build 0)  -->
<!DOCTYPE svg PUBLIC "-//W3C//DTD SVG 1.1//EN" "http://www.w3.org/Graphics/SVG/1.1/DTD/svg11.dtd">
<svg version="1.1" id="图层_1" xmlns="http://www.w3.org/2000/svg" xmlns:xlink="http://www.w3.org/1999/xlink" x="0px" y="0px"
	 viewBox="0 0 500 500" enable-background="new 0 0 500 500" xml:space="preserve">
<path fill="#999999" d="M406.3,250c8.7,0,16.1,3,22.1,9.1c6.1,6.1,9.1,13.5,9.1,22.1v187.5c0,8.7-3,16.1-9.1,22.1
	c-6.1,6.1-13.5,9.1-22.1,9.1H93.8c-8.7,0-16.1-3-22.1-9.1c-6.1-6.1-9.1-13.5-9.1-22.1V281.3c0-8.7,3-16.1,9.1-22.1
	c6.1-6.1,13.5-9.1,22.1-9.1h10.4V145.8c0-40.1,14.3-74.5,42.8-103S209.9,0,250,0s74.5,14.3,103,42.8s42.8,62.9,42.8,103
	c0,5.6-2.1,10.5-6.2,14.6s-9,6.2-14.6,6.2h-20.8c-5.6,0-10.5-2.1-14.6-6.2c-4.1-4.1-6.2-9-6.2-14.6c0-23-8.1-42.6-24.4-58.9
	C292.6,70.6,273,62.5,250,62.5s-42.6,8.1-58.9,24.4s-24.4,35.9-24.4,58.9V250H406.3z"/>
</svg>
