<?xml version="1.0" encoding="utf-8"?>
<!-- Generator: Adobe Illustrator 18.0.0, SVG Export Plug-In . SVG Version: 6.00 Build 0)  -->
<!DOCTYPE svg PUBLIC "-//W3C//DTD SVG 1.1//EN" "http://www.w3.org/Graphics/SVG/1.1/DTD/svg11.dtd">
<svg version="1.1" id="图层_1" xmlns="http://www.w3.org/2000/svg" xmlns:xlink="http://www.w3.org/1999/xlink" x="0px" y="0px"
	 viewBox="0 0 500 500" enable-background="new 0 0 500 500" xml:space="preserve">
<path fill="#999999" d="M497.4,33.1L270.1,487.5c-4,8.3-10.8,12.4-20.2,12.4c-1.2,0-3-0.2-5.3-0.7c-5.2-1.2-9.4-3.8-12.6-8
	c-3.2-4.1-4.8-8.8-4.8-14V272.7H22.6c-5.2,0-9.9-1.6-14-4.8c-4.1-3.2-6.8-7.4-8-12.6s-0.7-10.2,1.4-14.9c2.1-4.7,5.6-8.3,10.3-10.7
	L466.8,2.5c3.1-1.7,6.5-2.5,10.3-2.5c6.4,0,11.7,2.2,16,6.7c3.6,3.3,5.7,7.4,6.6,12.2C500.5,23.9,499.7,28.6,497.4,33.1L497.4,33.1z
	"/>
</svg>
