<?xml version="1.0" encoding="utf-8"?>
<!-- Generator: Adobe Illustrator 18.0.0, SVG Export Plug-In . SVG Version: 6.00 Build 0)  -->
<!DOCTYPE svg PUBLIC "-//W3C//DTD SVG 1.1//EN" "http://www.w3.org/Graphics/SVG/1.1/DTD/svg11.dtd">
<svg version="1.1" id="图层_1" xmlns="http://www.w3.org/2000/svg" xmlns:xlink="http://www.w3.org/1999/xlink" x="0px" y="0px"
	 viewBox="0 0 500 500" enable-background="new 0 0 500 500" xml:space="preserve">
<path fill="#999999" d="M233,339.8l-4.3,104.6l-0.6,6.3l-119.3-8.2c-6.8-0.6-13.2-3.6-19-8.9c-5.9-5.4-10.3-11.6-13.4-18.6
	c-2.1-5.1-3.5-10.3-4.1-15.6c-0.7-5.3-0.3-11.5,1.1-18.5c1.4-7,2.6-12.2,3.4-15.6c0.9-3.4,2.9-9.5,6.1-18.2c3.2-8.7,5-13.7,5.4-15.1
	C103.1,334.1,151.3,336.7,233,339.8L233,339.8z M123,173.3L174.2,281l-41.8-26.1c-11.9,13.6-22.5,27.3-31.7,41.1
	c-9.2,13.7-16.1,25.6-20.6,35.5s-8.3,18.9-11.2,26.8c-2.9,8-4.7,13.9-5.3,17.9l-1.1,6l-54-101.4c-3.2-4.9-4.9-10.2-5.1-15.9
	c-0.2-5.7,0.4-10.1,1.7-13.4l2.3-5.1c6.6-11.9,17.4-29.7,32.4-53.4L0,168.4L123,173.3z M472.8,320.2l-53.4,102
	c-2.3,5.5-5.7,9.9-10.4,13.2c-4.6,3.3-8.8,5.3-12.4,5.8l-5.1,1.1c-13.4,1.3-34.2,2.5-62.2,3.4l2.3,46.6l-65.3-104.3l60-102.9l2,49.2
	c32.2,3,59,3.5,80.4,1.4c21.4-2.1,37.5-5.2,48.3-9.4L472.8,320.2z M249.7,57.6c-8.9,11.9-34,53.1-75.3,123.6l-90.1-53.1l-5.4-3.4
	l63.9-101.1c3.8-5.9,9.5-10.1,17-12.8s15.2-3.6,22.7-2.8c4.5,0.4,9.1,1.5,13.8,3.4c4.6,1.9,8.6,3.9,11.9,6c3.3,2.1,7.2,5.2,11.8,9.4
	c4.5,4.2,8,7.4,10.2,9.8c2.3,2.4,5.7,6.1,10.2,11.2C245.2,52.8,248.2,56.1,249.7,57.6L249.7,57.6z M435.8,144.9L496.1,248
	c3.4,7,4.6,14.2,3.6,21.6c-1,7.4-3.6,14.4-7.8,21c-2.5,3.8-5.6,7.3-9.4,10.5c-3.8,3.2-7.4,5.9-10.8,8c-3.4,2.1-8,4.2-13.8,6.3
	c-5.8,2.1-10.2,3.6-13.4,4.5c-3.1,0.9-8,2.3-14.6,4c-6.6,1.7-11,2.8-13.1,3.4c-6.4-13.6-31.5-54.9-75.3-123.9l88.9-55.4L435.8,144.9
	z M395.2,80.6l40.3-23.6l-62.5,106l-119-5.7l42.9-24.4c-6.4-16.9-13.5-32.6-21.3-47.2c-7.8-14.6-14.9-26.3-21.5-35.1
	c-6.5-8.8-12.6-16.4-18.3-22.7c-5.7-6.3-10.1-10.7-13.4-13.2l-4.8-3.7l115.1,0.3c5.9-0.6,11.4,0.4,16.5,3c5.1,2.6,8.8,5.3,11.1,8.1
	l3.1,4.3C370.8,38.2,381.4,56.2,395.2,80.6L395.2,80.6z"/>
</svg>
