<?xml version="1.0" encoding="utf-8"?>
<!-- Generator: Adobe Illustrator 18.0.0, SVG Export Plug-In . SVG Version: 6.00 Build 0)  -->
<!DOCTYPE svg PUBLIC "-//W3C//DTD SVG 1.1//EN" "http://www.w3.org/Graphics/SVG/1.1/DTD/svg11.dtd">
<svg version="1.1" id="图层_1" xmlns="http://www.w3.org/2000/svg" xmlns:xlink="http://www.w3.org/1999/xlink" x="0px" y="0px"
	 viewBox="0 0 500 500" enable-background="new 0 0 500 500" xml:space="preserve">
<path fill="#999999" d="M473.8,26.2C491.3,43.7,500,64.8,500,89.4s-8.7,45.6-26.2,62.9L411,214.6l29,29c1.9,1.9,2.8,4,2.8,6.4
	s-0.9,4.6-2.8,6.4L381.4,315c-1.9,1.9-4,2.8-6.4,2.8s-4.6-0.9-6.4-2.8l-29.3-29.3L171,454c-6.9,6.9-15.3,10.3-25.1,10.3H89.3
	L17.9,500L0,482.1l35.7-71.4v-56.6c0-9.9,3.4-18.2,10.3-25.1l168.2-168.2L185,131.4c-1.9-1.9-2.8-4-2.8-6.4s0.9-4.6,2.8-6.4
	L243.6,60c1.9-1.9,4-2.8,6.4-2.8s4.6,0.9,6.4,2.8l29,29l62.2-62.8C365,8.7,385.9,0,410.6,0C435.2,0,456.3,8.7,473.8,26.2L473.8,26.2
	z M142.9,410.7L303.6,250L250,196.4L89.3,357.1v53.6H142.9L142.9,410.7z"/>
</svg>
