<?xml version="1.0" encoding="utf-8"?>
<!-- Generator: Adobe Illustrator 18.0.0, SVG Export Plug-In . SVG Version: 6.00 Build 0)  -->
<!DOCTYPE svg PUBLIC "-//W3C//DTD SVG 1.1//EN" "http://www.w3.org/Graphics/SVG/1.1/DTD/svg11.dtd">
<svg version="1.1" id="图层_1" xmlns="http://www.w3.org/2000/svg" xmlns:xlink="http://www.w3.org/1999/xlink" x="0px" y="0px"
	 viewBox="0 0 500 500" enable-background="new 0 0 500 500" xml:space="preserve">
<path fill="#999999" d="M480.8,269.2c0,31.2-6.1,61.1-18.3,89.5c-12.2,28.4-28.6,53-49.3,73.6c-20.6,20.6-45.2,37.1-73.6,49.3
	C311.1,493.9,281.3,500,250,500s-61.1-6.1-89.5-18.3c-28.4-12.2-53-28.6-73.6-49.3c-20.6-20.6-37.1-45.2-49.3-73.6
	c-12.2-28.4-18.3-58.3-18.3-89.5c0-36.5,8.1-70.8,24.2-103.1s38.8-59.3,68.1-81.1c8.6-6.4,18.2-8.9,28.7-7.5
	c10.5,1.4,18.9,6.4,25.1,15c6.4,8.4,8.9,17.9,7.4,28.4c-1.5,10.5-6.5,19-14.9,25.4c-19.6,14.8-34.8,33-45.5,54.4
	c-10.7,21.4-16.1,44.3-16.1,68.5c0,20.8,4.1,40.7,12.2,59.6c8.1,18.9,19.1,35.3,32.9,49.1c13.8,13.8,30.2,24.8,49.1,32.9
	c18.9,8.1,38.8,12.2,59.6,12.2s40.7-4.1,59.6-12.2c18.9-8.1,35.3-19.1,49.1-32.9c13.8-13.8,24.8-30.2,32.9-49.1
	c8.1-18.9,12.2-38.8,12.2-59.6c0-24.2-5.4-47.1-16.1-68.5c-10.7-21.4-25.9-39.6-45.5-54.4c-8.4-6.4-13.4-14.9-14.9-25.4
	c-1.5-10.5,1-20,7.4-28.4c6.2-8.6,14.6-13.6,25.2-15c10.6-1.4,20.1,1.1,28.5,7.5c29.2,21.8,51.9,48.9,68.1,81.1
	C472.7,198.4,480.8,232.8,480.8,269.2L480.8,269.2z M288.5,38.5v192.3c0,10.4-3.8,19.4-11.4,27c-7.6,7.6-16.6,11.4-27,11.4
	c-10.4,0-19.4-3.8-27-11.4c-7.6-7.6-11.4-16.6-11.4-27V38.5c0-10.4,3.8-19.4,11.4-27C230.6,3.8,239.6,0,250,0
	c10.4,0,19.4,3.8,27,11.4C284.7,19,288.5,28,288.5,38.5L288.5,38.5z"/>
</svg>
