<?xml version="1.0" encoding="utf-8"?>
<!-- Generator: Adobe Illustrator 18.0.0, SVG Export Plug-In . SVG Version: 6.00 Build 0)  -->
<!DOCTYPE svg PUBLIC "-//W3C//DTD SVG 1.1//EN" "http://www.w3.org/Graphics/SVG/1.1/DTD/svg11.dtd">
<svg version="1.1" id="图层_1" xmlns="http://www.w3.org/2000/svg" xmlns:xlink="http://www.w3.org/1999/xlink" x="0px" y="0px"
	 viewBox="0 0 500 500" enable-background="new 0 0 500 500" xml:space="preserve">
<path fill="#999999" d="M172.6,250c-26,0-48.2-9.2-66.6-27.6s-27.6-40.6-27.6-66.6s9.2-48.2,27.6-66.6s40.6-27.6,66.6-27.6
	s48.2,9.2,66.6,27.6s27.6,40.6,27.6,66.6s-9.2,48.2-27.6,66.6S198.6,250,172.6,250L172.6,250z M436.7,328.5l61.1,61.1
	c1.5,1.5,2.2,3.4,2.2,5.6c0,2.1-0.7,3.9-2.2,5.4l-33.3,33.3c-1.5,1.5-3.3,2.2-5.4,2.2c-2.3,0-4.2-0.7-5.6-2.2l-61.1-61.1l-61.1,61.1
	c-1.5,1.5-3.4,2.2-5.6,2.2c-2.1,0-3.9-0.7-5.4-2.2l-33.3-33.3c-1.5-1.5-2.2-3.3-2.2-5.4c0-2.3,0.7-4.2,2.2-5.6l61.1-61.1l-61.1-61.1
	c-1.5-1.5-2.2-3.4-2.2-5.6c0-2.1,0.7-3.9,2.2-5.4l33.3-33.3c1.5-1.5,3.3-2.2,5.4-2.2c2.3,0,4.2,0.7,5.6,2.2l61.1,61.1l61.1-61.1
	c1.5-1.5,3.4-2.2,5.6-2.2c2.1,0,3.9,0.7,5.4,2.2l33.3,33.3c1.5,1.5,2.2,3.3,2.2,5.4c0,2.3-0.7,4.2-2.2,5.6L436.7,328.5z
	 M314.6,328.5l-44.4,44.4c-6,6-9.1,13.5-9.1,22.3c0,8.7,3,16,9.1,22.1l20.4,20.4c-3.4,0.5-7,0.7-10.8,0.7H65.5
	c-19.8,0-35.6-5.6-47.6-16.9C6,410.1,0,394.6,0,374.8c0-8.7,0.3-17.1,0.9-25.4c0.6-8.3,1.7-17.2,3.4-26.7c1.7-9.6,3.9-18.4,6.5-26.6
	c2.6-8.2,6.1-16.1,10.5-23.9s9.5-14.4,15.2-19.9c5.7-5.5,12.7-9.8,21-13.1s17.4-4.9,27.3-4.9c3.1,0,6.3,1.4,9.6,4.2
	c25.2,19.9,51.3,29.9,78.2,29.9s53-10,78.2-29.9c3.3-2.8,6.5-4.2,9.6-4.2c4.6,0,9.2,0.5,14,1.5c-4.6,4.4-7.9,8.5-10.1,12.3
	c-2.1,3.8-3.2,8.3-3.2,13.7c0,8.8,3,16.3,9.1,22.3L314.6,328.5z"/>
</svg>
