<?xml version="1.0" encoding="utf-8"?>
<!-- Generator: Adobe Illustrator 18.0.0, SVG Export Plug-In . SVG Version: 6.00 Build 0)  -->
<!DOCTYPE svg PUBLIC "-//W3C//DTD SVG 1.1//EN" "http://www.w3.org/Graphics/SVG/1.1/DTD/svg11.dtd">
<svg version="1.1" id="图层_1" xmlns="http://www.w3.org/2000/svg" xmlns:xlink="http://www.w3.org/1999/xlink" x="0px" y="0px"
	 viewBox="0 0 500 500" enable-background="new 0 0 500 500" xml:space="preserve">
<path fill="#999999" d="M171.9,250c-25.9,0-48-9.2-66.3-27.5s-27.5-40.4-27.5-66.3s9.2-48,27.5-66.3s40.4-27.5,66.3-27.5
	s48,9.2,66.3,27.5s27.5,40.4,27.5,66.3s-9.2,48-27.5,66.3S197.8,250,171.9,250L171.9,250z M406.3,281.3h85.9c2.1,0,3.9,0.8,5.5,2.3
	s2.3,3.4,2.3,5.5v46.9c0,2.1-0.8,3.9-2.3,5.5s-3.4,2.3-5.5,2.3h-85.9v85.9c0,2.1-0.8,3.9-2.3,5.5s-3.4,2.3-5.5,2.3h-46.9
	c-2.1,0-3.9-0.8-5.5-2.3s-2.3-3.4-2.3-5.5v-85.9h-85.9c-2.1,0-3.9-0.8-5.5-2.3s-2.3-3.4-2.3-5.5v-46.9c0-2.1,0.8-3.9,2.3-5.5
	s3.4-2.3,5.5-2.3h85.9v-85.9c0-2.1,0.8-3.9,2.3-5.5s3.4-2.3,5.5-2.3h46.9c2.1,0,3.9,0.8,5.5,2.3s2.3,3.4,2.3,5.5V281.3L406.3,281.3z
	 M226.6,335.9c0,8.5,3.1,15.8,9.3,22s13.5,9.3,22,9.3h62.5v58.1c-11.1,8.1-25,12.2-41.7,12.2H65.2c-19.7,0-35.5-5.6-47.4-16.8
	S0,394,0,374.3c0-8.6,0.3-17,0.9-25.3s1.7-17.1,3.4-26.6s3.9-18.4,6.5-26.5s6.1-16.1,10.5-23.8s9.4-14.3,15.1-19.8
	c5.7-5.5,12.7-9.8,20.9-13.1s17.3-4.9,27.2-4.9c3.1,0,6.3,1.4,9.5,4.2c12.9,9.9,25.4,17.4,37.7,22.3c12.3,5,25.7,7.4,40.2,7.4
	s27.9-2.5,40.2-7.4c12.3-5,24.9-12.4,37.7-22.3c3.3-2.8,6.4-4.2,9.5-4.2c21.5,0,39.1,7.8,53,23.4h-54.4c-8.5,0-15.8,3.1-22,9.3
	s-9.3,13.5-9.3,22V335.9L226.6,335.9z"/>
</svg>
