<?xml version="1.0" encoding="utf-8"?>
<!-- Generator: Adobe Illustrator 18.0.0, SVG Export Plug-In . SVG Version: 6.00 Build 0)  -->
<!DOCTYPE svg PUBLIC "-//W3C//DTD SVG 1.1//EN" "http://www.w3.org/Graphics/SVG/1.1/DTD/svg11.dtd">
<svg version="1.1" id="图层_1" xmlns="http://www.w3.org/2000/svg" xmlns:xlink="http://www.w3.org/1999/xlink" x="0px" y="0px"
	 viewBox="0 0 500 500" enable-background="new 0 0 500 500" xml:space="preserve">
<path fill="#999999" d="M154.4,250c-28.1,0.9-51.1,12-69,33.3H50.5c-14.2,0-26.2-3.5-35.9-10.5C4.9,265.8,0,255.5,0,241.9
	C0,180.6,10.8,150,32.3,150c1,0,4.8,1.8,11.3,5.5c6.5,3.6,15,7.3,25.4,11.1s20.7,5.6,31,5.6c11.6,0,23.2-2,34.6-6
	c-0.9,6.4-1.3,12.2-1.3,17.2C133.3,207.5,140.4,229.7,154.4,250L154.4,250z M433.3,415.9c0,20.8-6.3,37.3-19,49.3
	c-12.7,12.1-29.5,18.1-50.5,18.1H136.2c-21,0-37.8-6-50.5-18.1c-12.7-12.1-19-28.5-19-49.3c0-9.2,0.3-18.2,0.9-27
	c0.6-8.8,1.8-18.2,3.6-28.4c1.8-10.2,4.1-19.6,6.9-28.3c2.8-8.7,6.5-17.1,11.2-25.4c4.7-8.2,10.1-15.3,16.1-21.1
	c6.1-5.8,13.5-10.5,22.3-13.9c8.8-3.5,18.4-5.2,29-5.2c1.7,0,5.5,1.9,11.2,5.6s12.1,7.9,19,12.5c6.9,4.6,16.2,8.8,27.9,12.5
	c11.6,3.7,23.4,5.6,35.2,5.6c11.8,0,23.5-1.9,35.2-5.6c11.6-3.7,20.9-7.9,27.9-12.5c6.9-4.6,13.3-8.8,19-12.5
	c5.7-3.7,9.5-5.6,11.2-5.6c10.6,0,20.3,1.7,29,5.2c8.8,3.5,16.2,8.1,22.3,13.9c6.1,5.8,11.5,12.8,16.1,21.1
	c4.7,8.2,8.4,16.7,11.2,25.4c2.8,8.7,5.1,18.1,6.9,28.3c1.8,10.2,3,19.6,3.6,28.4C433,397.7,433.3,406.7,433.3,415.9L433.3,415.9z
	 M166.7,83.3c0,18.4-6.5,34.1-19.5,47.1c-13,13-28.7,19.5-47.1,19.5s-34.1-6.5-47.1-19.5c-13-13-19.5-28.7-19.5-47.1
	c0-18.4,6.5-34.1,19.5-47.1S81.6,16.7,100,16.7s34.1,6.5,47.1,19.5C160.2,49.2,166.7,64.9,166.7,83.3L166.7,83.3z M350,183.3
	c0,27.6-9.8,51.2-29.3,70.7c-19.5,19.5-43.1,29.3-70.7,29.3s-51.2-9.8-70.7-29.3c-19.5-19.5-29.3-43.1-29.3-70.7s9.8-51.2,29.3-70.7
	c19.5-19.5,43.1-29.3,70.7-29.3s51.2,9.8,70.7,29.3C340.2,132.2,350,155.7,350,183.3L350,183.3z M500,241.9
	c0,13.5-4.9,23.8-14.6,30.9c-9.7,7-21.7,10.5-35.9,10.5h-34.9c-17.9-21.4-40.9-32.5-69-33.3c14.1-20.3,21.1-42.5,21.1-66.7
	c0-5-0.4-10.8-1.3-17.2c11.5,4,23,6,34.6,6c10.2,0,20.6-1.9,31-5.6s18.9-7.4,25.4-11.1c6.5-3.6,10.3-5.5,11.3-5.5
	C489.2,150,500,180.6,500,241.9L500,241.9z M466.7,83.3c0,18.4-6.5,34.1-19.5,47.1c-13,13-28.7,19.5-47.1,19.5
	c-18.4,0-34.1-6.5-47.1-19.5c-13-13-19.5-28.7-19.5-47.1c0-18.4,6.5-34.1,19.5-47.1c13-13,28.7-19.5,47.1-19.5
	c18.4,0,34.1,6.5,47.1,19.5C460.2,49.2,466.7,64.9,466.7,83.3L466.7,83.3z"/>
</svg>
