<?xml version="1.0" encoding="utf-8"?>
<!-- Generator: Adobe Illustrator 18.0.0, SVG Export Plug-In . SVG Version: 6.00 Build 0)  -->
<!DOCTYPE svg PUBLIC "-//W3C//DTD SVG 1.1//EN" "http://www.w3.org/Graphics/SVG/1.1/DTD/svg11.dtd">
<svg version="1.1" id="图层_1" xmlns="http://www.w3.org/2000/svg" xmlns:xlink="http://www.w3.org/1999/xlink" x="0px" y="0px"
	 viewBox="0 0 500 500" enable-background="new 0 0 500 500" xml:space="preserve">
<path fill="#999999" d="M479.2,415.7c0,26-7.9,46.6-23.8,61.7c-15.8,15.1-36.9,22.6-63.2,22.6H107.7c-26.3,0-47.3-7.5-63.2-22.6
	c-15.8-15.1-23.8-35.6-23.8-61.7c0-11.5,0.4-22.7,1.1-33.7c0.8-11,2.3-22.8,4.6-35.5s5.2-24.5,8.6-35.3c3.5-10.9,8.1-21.4,14-31.7
	c5.9-10.3,12.6-19.1,20.2-26.4c7.6-7.3,16.9-13.1,27.8-17.4c11-4.3,23.1-6.5,36.3-6.5c2,0,6.5,2.3,13.7,7
	c7.2,4.7,15.2,9.9,24.3,15.6c9,5.8,20.7,11,35.2,15.6c14.4,4.7,28.9,7,43.5,7c14.5,0,29-2.3,43.5-7c14.4-4.7,26.2-9.9,35.2-15.6
	c9-5.8,17.1-11,24.3-15.6c7.2-4.7,11.7-7,13.7-7c13.2,0,25.3,2.2,36.3,6.5c11,4.3,20.2,10.1,27.8,17.4s14.3,16.1,20.2,26.4
	c5.9,10.3,10.5,20.9,14,31.7c3.5,10.9,6.3,22.6,8.6,35.3c2.3,12.7,3.8,24.5,4.6,35.5C478.8,393,479.2,404.2,479.2,415.7L479.2,415.7
	z M375,125c0,34.5-12.2,64-36.6,88.4C314,237.8,284.5,250,250,250s-64-12.2-88.4-36.6S125,159.5,125,125s12.2-64,36.6-88.4
	S215.5,0,250,0s64,12.2,88.4,36.6C362.8,61,375,90.5,375,125L375,125z"/>
</svg>
