<?xml version="1.0" encoding="utf-8"?>
<!-- Generator: Adobe Illustrator 18.0.0, SVG Export Plug-In . SVG Version: 6.00 Build 0)  -->
<!DOCTYPE svg PUBLIC "-//W3C//DTD SVG 1.1//EN" "http://www.w3.org/Graphics/SVG/1.1/DTD/svg11.dtd">
<svg version="1.1" id="图层_1" xmlns="http://www.w3.org/2000/svg" xmlns:xlink="http://www.w3.org/1999/xlink" x="0px" y="0px"
	 viewBox="0 0 500 500" enable-background="new 0 0 500 500" xml:space="preserve">
<path fill="#999999" d="M136.4,363.6v45.5H90.9v-45.5H136.4L136.4,363.6z M136.4,90.9v45.5H90.9V90.9H136.4L136.4,90.9z M409.1,90.9
	v45.5h-45.5V90.9H409.1L409.1,90.9z M45.5,454.2h136.4v-136H45.5V454.2L45.5,454.2z M45.5,181.8h136.4V45.5H45.5V181.8L45.5,181.8z
	 M318.2,181.8h136.4V45.5H318.2V181.8L318.2,181.8z M227.3,272.7V500H0V272.7H227.3L227.3,272.7z M409.1,454.5V500h-45.5v-45.5
	H409.1L409.1,454.5z M500,454.5V500h-45.5v-45.5H500L500,454.5z M500,272.7v136.4H363.6v-45.5h-45.5V500h-45.5V272.7h136.4v45.5
	h45.5v-45.5H500L500,272.7z M227.3,0v227.3H0V0H227.3L227.3,0z M500,0v227.3H272.7V0H500L500,0z"/>
</svg>
