<?xml version="1.0" encoding="utf-8"?>
<!-- Generator: Adobe Illustrator 18.0.0, SVG Export Plug-In . SVG Version: 6.00 Build 0)  -->
<!DOCTYPE svg PUBLIC "-//W3C//DTD SVG 1.1//EN" "http://www.w3.org/Graphics/SVG/1.1/DTD/svg11.dtd">
<svg version="1.1" id="图层_1" xmlns="http://www.w3.org/2000/svg" xmlns:xlink="http://www.w3.org/1999/xlink" x="0px" y="0px"
	 viewBox="0 0 500 500" enable-background="new 0 0 500 500" xml:space="preserve">
<path fill="#999999" d="M248.9,348.7l32.5-32.5l-42.6-42.6l-32.5,32.5v15.7h26.9v26.9H248.9L248.9,348.7z M372.2,146.9
	c-3-3-6.1-2.9-9.2,0.3l-98.1,98.1c-3.2,3.2-3.3,6.3-0.3,9.2c3,3,6.1,2.9,9.2-0.3l98.1-98.1C375.1,152.9,375.2,149.9,372.2,146.9
	L372.2,146.9z M394.6,313.3v53.3c0,22.2-7.9,41.2-23.7,57s-34.8,23.7-57,23.7H80.7c-22.2,0-41.2-7.9-57-23.7S0,388.8,0,366.6V133.4
	c0-22.2,7.9-41.2,23.7-57c15.8-15.8,34.8-23.7,57-23.7h233.2c11.8,0,22.7,2.3,32.8,7c2.8,1.3,4.5,3.5,5,6.4c0.6,3.2-0.3,5.9-2.5,8.1
	L335.5,88c-2.6,2.6-5.6,3.4-9,2.2c-4.3-1.1-8.5-1.7-12.6-1.7H80.7c-12.3,0-22.9,4.4-31.7,13.2c-8.8,8.8-13.2,19.3-13.2,31.7v233.2
	c0,12.3,4.4,22.9,13.2,31.7c8.8,8.8,19.3,13.2,31.7,13.2h233.2c12.3,0,22.9-4.4,31.7-13.2c8.8-8.8,13.2-19.3,13.2-31.7v-35.3
	c0-2.4,0.8-4.5,2.5-6.2l17.9-17.9c2.8-2.8,6.1-3.5,9.8-2C392.8,306.7,394.6,309.4,394.6,313.3L394.6,313.3z M367.7,106.5l80.7,80.7
	L260.1,375.6h-80.7v-80.7L367.7,106.5z M492.2,143.5l-25.8,25.8l-80.7-80.7l25.8-25.8c5.2-5.2,11.6-7.8,19.1-7.8
	c7.5,0,13.8,2.6,19.1,7.8l42.6,42.6c5.2,5.2,7.8,11.6,7.8,19.1S497.4,138.3,492.2,143.5L492.2,143.5z"/>
</svg>
