<?xml version="1.0" encoding="utf-8"?>
<!-- Generator: Adobe Illustrator 18.0.0, SVG Export Plug-In . SVG Version: 6.00 Build 0)  -->
<!DOCTYPE svg PUBLIC "-//W3C//DTD SVG 1.1//EN" "http://www.w3.org/Graphics/SVG/1.1/DTD/svg11.dtd">
<svg version="1.1" id="图层_1" xmlns="http://www.w3.org/2000/svg" xmlns:xlink="http://www.w3.org/1999/xlink" x="0px" y="0px"
	 viewBox="0 0 500 500" enable-background="new 0 0 500 500" xml:space="preserve">
<path fill="#999999" d="M500,281.9c0,5.5-2.7,11.4-8.2,17.6l-89.4,105.4c-7.6,9-18.3,16.7-32.1,23c-13.7,6.3-26.5,9.4-38.2,9.4H42.6
	c-6,0-11.4-1.2-16.1-3.5c-4.7-2.3-7.1-6.1-7.1-11.4c0-5.5,2.7-11.4,8.2-17.6l89.4-105.4c7.6-9,18.3-16.7,32.1-23
	c13.7-6.3,26.5-9.4,38.2-9.4h289.5c6,0,11.4,1.2,16.1,3.5C497.6,272.8,500,276.6,500,281.9L500,281.9z M408.7,190.4V233H187.3
	c-16.7,0-34.1,4.2-52.4,12.6c-18.3,8.4-32.8,19-43.6,31.8L1.6,382.8l-1.3,1.6c0-0.7,0-1.8-0.1-3.3C0,379.5,0,378.4,0,377.7V122.3
	c0-16.3,5.9-30.3,17.6-42s25.7-17.6,42-17.6h85.2c16.3,0,30.3,5.9,42,17.6s17.6,25.7,17.6,42v8.5h144.8c16.3,0,30.3,5.9,42,17.6
	C402.9,160.1,408.7,174.1,408.7,190.4L408.7,190.4z"/>
</svg>
