<?xml version="1.0" encoding="utf-8"?>
<!-- Generator: Adobe Illustrator 18.0.0, SVG Export Plug-In . SVG Version: 6.00 Build 0)  -->
<!DOCTYPE svg PUBLIC "-//W3C//DTD SVG 1.1//EN" "http://www.w3.org/Graphics/SVG/1.1/DTD/svg11.dtd">
<svg version="1.1" id="图层_1" xmlns="http://www.w3.org/2000/svg" xmlns:xlink="http://www.w3.org/1999/xlink" x="0px" y="0px"
	 viewBox="0 0 500 500" enable-background="new 0 0 500 500" xml:space="preserve">
<path fill="#999999" d="M466.5,275.9c0-6.1-4.6-9.2-13.9-9.2h-285c-7,0-14.4,1.9-22.4,5.6c-7.9,3.8-14.2,8.3-18.7,13.8l-77,95.1
	c-3.1,4.2-4.7,7.7-4.7,10.5c0,6.1,4.6,9.2,13.9,9.2h285c7,0,14.5-1.9,22.5-5.8c8-3.8,14.2-8.5,18.6-13.9l77-95.1
	C464.9,282.3,466.5,278.9,466.5,275.9L466.5,275.9z M167.6,233.2h201.2v-41.9c0-7-2.4-12.9-7.3-17.8c-4.9-4.9-10.8-7.3-17.8-7.3
	H192.8c-7,0-12.9-2.4-17.8-7.3c-4.9-4.9-7.3-10.8-7.3-17.8v-16.8c0-7-2.4-12.9-7.3-17.8c-4.9-4.9-10.8-7.3-17.8-7.3H58.7
	c-7,0-12.9,2.4-17.8,7.3c-4.9,4.9-7.3,10.8-7.3,17.8v223.4l67.1-82.5c7.7-9.3,17.8-16.9,30.4-22.9
	C143.5,236.2,155.8,233.2,167.6,233.2L167.6,233.2z M500,275.9c0,10.8-4,21.3-12,31.4l-77.3,95.1c-7.5,9.3-17.6,16.9-30.4,22.9
	c-12.7,6-25,9-36.7,9h-285c-16.1,0-29.9-5.8-41.4-17.3C5.8,405.6,0,391.8,0,375.7V124.3c0-16.1,5.8-29.9,17.3-41.4
	c11.5-11.5,25.3-17.3,41.4-17.3h83.8c16.1,0,29.9,5.8,41.4,17.3c11.5,11.5,17.3,25.3,17.3,41.4v8.4h142.5c16.1,0,29.9,5.8,41.4,17.3
	c11.5,11.5,17.3,25.3,17.3,41.4v41.9h50.3c9.4,0,18.1,2.1,25.9,6.4s13.7,10.4,17.5,18.5C498.7,263.7,500,269.6,500,275.9L500,275.9z
	"/>
</svg>
