<?xml version="1.0" encoding="utf-8"?>
<!-- Generator: Adobe Illustrator 18.0.0, SVG Export Plug-In . SVG Version: 6.00 Build 0)  -->
<!DOCTYPE svg PUBLIC "-//W3C//DTD SVG 1.1//EN" "http://www.w3.org/Graphics/SVG/1.1/DTD/svg11.dtd">
<svg version="1.1" id="图层_1" xmlns="http://www.w3.org/2000/svg" xmlns:xlink="http://www.w3.org/1999/xlink" x="0px" y="0px"
	 viewBox="0 0 500 500" enable-background="new 0 0 500 500" xml:space="preserve">
<path fill="#999999" d="M500,182.7v211.5c0,18.4-6.6,34.3-19.8,47.5c-13.2,13.2-29,19.8-47.5,19.8H67.3c-18.4,0-34.3-6.6-47.5-19.8
	C6.6,428.5,0,412.7,0,394.2V105.8c0-18.4,6.6-34.3,19.8-47.5s29-19.8,47.5-19.8h96.2c18.4,0,34.3,6.6,47.5,19.8
	c13.2,13.2,19.8,29,19.8,47.5v9.6h201.9c18.4,0,34.3,6.6,47.5,19.8C493.4,148.4,500,164.3,500,182.7L500,182.7z"/>
</svg>
