<?xml version="1.0" encoding="utf-8"?>
<!-- Generator: Adobe Illustrator 18.0.0, SVG Export Plug-In . SVG Version: 6.00 Build 0)  -->
<!DOCTYPE svg PUBLIC "-//W3C//DTD SVG 1.1//EN" "http://www.w3.org/Graphics/SVG/1.1/DTD/svg11.dtd">
<svg version="1.1" id="图层_1" xmlns="http://www.w3.org/2000/svg" xmlns:xlink="http://www.w3.org/1999/xlink" x="0px" y="0px"
	 viewBox="0 0 500 500" enable-background="new 0 0 500 500" xml:space="preserve">
<path fill="#999999" d="M349,146.5l112,112L258.3,461.2l-112-112L349,146.5z M274.3,493.4l219-219c4.5-4.5,6.7-9.8,6.7-15.9
	c0-6.1-2.2-11.5-6.7-15.9L365,114.3c-4.3-4.3-9.6-6.4-15.9-6.4c-6.4,0-11.7,2.1-15.9,6.4l-219,219c-4.5,4.5-6.7,9.8-6.7,15.9
	c0,6.1,2.2,11.5,6.7,15.9l128.3,128.3c4.3,4.3,9.6,6.4,15.9,6.4S270,497.7,274.3,493.4L274.3,493.4z M485.2,218l-267,267.3
	c-7.3,7.3-16.1,10.9-26.6,10.9s-19.4-3.6-26.6-10.9l-37.1-37.1c11-11,16.5-24.3,16.5-40c0-15.7-5.5-29-16.5-40
	c-11-11-24.3-16.5-40-16.5s-29,5.5-40,16.5l-36.8-37.1C3.6,323.8,0,315,0,304.5c0-10.5,3.6-19.4,10.9-26.6l267-266.7
	c7.3-7.3,16.1-10.9,26.6-10.9c10.5,0,19.4,3.6,26.6,10.9L368,47.9c-11,11-16.5,24.3-16.5,40s5.5,29,16.5,40c11,11,24.3,16.5,40,16.5
	c15.7,0,29-5.5,40-16.5l37.1,36.8c7.3,7.3,10.9,16.1,10.9,26.6C496.1,201.9,492.5,210.8,485.2,218L485.2,218z"/>
</svg>
