<?xml version="1.0" encoding="utf-8"?>
<!-- Generator: Adobe Illustrator 18.0.0, SVG Export Plug-In . SVG Version: 6.00 Build 0)  -->
<!DOCTYPE svg PUBLIC "-//W3C//DTD SVG 1.1//EN" "http://www.w3.org/Graphics/SVG/1.1/DTD/svg11.dtd">
<svg version="1.1" id="图层_1" xmlns="http://www.w3.org/2000/svg" xmlns:xlink="http://www.w3.org/1999/xlink" x="0px" y="0px"
	 viewBox="0 0 500 500" enable-background="new 0 0 500 500" xml:space="preserve">
<path fill="#999999" d="M461.5,394.2V182.7c0-8-2.8-14.8-8.4-20.4c-5.6-5.6-12.4-8.4-20.4-8.4H221.2c-8,0-14.8-2.8-20.4-8.4
	s-8.4-12.4-8.4-20.4v-19.2c0-8-2.8-14.8-8.4-20.4c-5.6-5.6-12.4-8.4-20.4-8.4H67.3c-8,0-14.8,2.8-20.4,8.4
	c-5.6,5.6-8.4,12.4-8.4,20.4v288.5c0,8,2.8,14.8,8.4,20.4c5.6,5.6,12.4,8.4,20.4,8.4h365.4c8,0,14.8-2.8,20.4-8.4
	C458.7,409.1,461.5,402.2,461.5,394.2L461.5,394.2z M500,182.7v211.5c0,18.4-6.6,34.3-19.8,47.5c-13.2,13.2-29,19.8-47.5,19.8H67.3
	c-18.4,0-34.3-6.6-47.5-19.8C6.6,428.5,0,412.7,0,394.2V105.8c0-18.4,6.6-34.3,19.8-47.5s29-19.8,47.5-19.8h96.2
	c18.4,0,34.3,6.6,47.5,19.8c13.2,13.2,19.8,29,19.8,47.5v9.6h201.9c18.4,0,34.3,6.6,47.5,19.8C493.4,148.4,500,164.3,500,182.7
	L500,182.7z"/>
</svg>
