<?xml version="1.0" encoding="utf-8"?>
<!-- Generator: Adobe Illustrator 18.0.0, SVG Export Plug-In . SVG Version: 6.00 Build 0)  -->
<!DOCTYPE svg PUBLIC "-//W3C//DTD SVG 1.1//EN" "http://www.w3.org/Graphics/SVG/1.1/DTD/svg11.dtd">
<svg version="1.1" id="图层_1" xmlns="http://www.w3.org/2000/svg" xmlns:xlink="http://www.w3.org/1999/xlink" x="0px" y="0px"
	 viewBox="0 0 500 500" enable-background="new 0 0 500 500" xml:space="preserve">
<path fill="#999999" d="M169.9,227.7l80.1-58l80.1,58l-30.4,93.7h-99.1L169.9,227.7z M250,0c33.9,0,66.2,6.6,97.1,19.8
	s57.5,31,79.8,53.3c22.3,22.3,40.1,48.9,53.3,79.8c13.2,30.9,19.8,63.2,19.8,97.1s-6.6,66.2-19.8,97.1c-13.2,30.9-31,57.5-53.3,79.8
	c-22.3,22.3-48.9,40.1-79.8,53.3C316.2,493.4,283.9,500,250,500s-66.2-6.6-97.1-19.8c-30.9-13.2-57.5-31-79.8-53.3
	C50.8,404.6,33,378,19.8,347.1S0,283.9,0,250s6.6-66.2,19.8-97.1s31-57.5,53.3-79.8S122,33,152.9,19.8S216.1,0,250,0L250,0z
	 M422.7,376.7c27.7-37.8,41.6-80,41.6-126.7v-0.8L435.8,274l-67-62.5l17.6-90.1l37.4,3.3C395.9,86.4,359.7,60.2,315.3,46l14.8,34.6
	L250,125l-80.1-44.4L184.7,46c-44.5,14.1-80.6,40.4-108.5,78.7l37.7-3.3l17.3,90.1l-67,62.5l-28.5-24.8v0.8
	c0,46.7,13.9,88.9,41.6,126.7l8.4-36.8l91,11.2l38.8,83.1L183,453.4c21.8,7.3,44.1,10.9,67,10.9s45.2-3.6,67-10.9l-32.4-19.3
	l38.8-83.1l91-11.2L422.7,376.7z"/>
</svg>
