<?xml version="1.0" encoding="utf-8"?>
<!-- Generator: Adobe Illustrator 18.0.0, SVG Export Plug-In . SVG Version: 6.00 Build 0)  -->
<!DOCTYPE svg PUBLIC "-//W3C//DTD SVG 1.1//EN" "http://www.w3.org/Graphics/SVG/1.1/DTD/svg11.dtd">
<svg version="1.1" id="图层_1" xmlns="http://www.w3.org/2000/svg" xmlns:xlink="http://www.w3.org/1999/xlink" x="0px" y="0px"
	 viewBox="0 0 500 500" enable-background="new 0 0 500 500" xml:space="preserve">
<path fill="#999999" d="M216.7,266.7v-33.3c0-2.4-0.8-4.4-2.3-6c-1.6-1.6-3.6-2.3-6-2.3h-50v-50c0-2.4-0.8-4.4-2.3-6
	c-1.6-1.6-3.6-2.3-6-2.3h-33.3c-2.4,0-4.4,0.8-6,2.3c-1.6,1.6-2.3,3.6-2.3,6v50h-50c-2.4,0-4.4,0.8-6,2.3c-1.6,1.6-2.3,3.6-2.3,6
	v33.3c0,2.4,0.8,4.4,2.3,6c1.6,1.6,3.6,2.3,6,2.3h50v50c0,2.4,0.8,4.4,2.3,6c1.6,1.6,3.6,2.3,6,2.3H150c2.4,0,4.4-0.8,6-2.3
	c1.6-1.6,2.3-3.6,2.3-6v-50h50c2.4,0,4.4-0.8,6-2.3C215.9,271.1,216.7,269.1,216.7,266.7L216.7,266.7z M366.7,283.3
	c0-9.2-3.3-17.1-9.8-23.6c-6.5-6.5-14.4-9.8-23.6-9.8c-9.2,0-17.1,3.3-23.6,9.8c-6.5,6.5-9.8,14.4-9.8,23.6c0,9.2,3.3,17.1,9.8,23.6
	c6.5,6.5,14.4,9.8,23.6,9.8c9.2,0,17.1-3.3,23.6-9.8C363.4,300.4,366.7,292.5,366.7,283.3L366.7,283.3z M433.3,216.7
	c0-9.2-3.3-17.1-9.8-23.6s-14.4-9.8-23.6-9.8c-9.2,0-17.1,3.3-23.6,9.8c-6.5,6.5-9.8,14.4-9.8,23.6c0,9.2,3.3,17.1,9.8,23.6
	c6.5,6.5,14.4,9.8,23.6,9.8c9.2,0,17.1-3.3,23.6-9.8C430.1,233.7,433.3,225.9,433.3,216.7L433.3,216.7z M500,250
	c0,36.8-13,68.2-39.1,94.3c-26,26-57.5,39.1-94.3,39.1c-33.3,0-62.7-11.1-88-33.3h-57.3c-25.3,22.2-54.7,33.3-88,33.3
	c-36.8,0-68.2-13-94.3-39.1C13,318.2,0,286.8,0,250s13-68.2,39.1-94.3s57.5-39.1,94.3-39.1h233.3c36.8,0,68.2,13,94.3,39.1
	S500,213.2,500,250L500,250z"/>
</svg>
