<?xml version="1.0" encoding="utf-8"?>
<!-- Generator: Adobe Illustrator 18.0.0, SVG Export Plug-In . SVG Version: 6.00 Build 0)  -->
<!DOCTYPE svg PUBLIC "-//W3C//DTD SVG 1.1//EN" "http://www.w3.org/Graphics/SVG/1.1/DTD/svg11.dtd">
<svg version="1.1" id="图层_1" xmlns="http://www.w3.org/2000/svg" xmlns:xlink="http://www.w3.org/1999/xlink" x="0px" y="0px"
	 viewBox="0 0 500 500" enable-background="new 0 0 500 500" xml:space="preserve">
<path fill="#999999" d="M489.7,126.4c6.9,6.9,10.3,15.3,10.3,25.1s-3.4,18.3-10.3,25.4L377.8,288.5l41.9,41.9L375,375
	c-30.3,30.3-66.5,47.7-108.7,52c-42.1,4.4-80.4-5-114.8-28l-101,101H0v-50.5l101-101c-23.1-34.4-32.4-72.7-28-114.8
	c4.4-42.1,21.7-78.4,52-108.7l44.6-44.6l41.9,41.9L323.1,10.3C330.2,3.4,338.6,0,348.5,0c9.9,0,18.2,3.4,25.1,10.3
	c6.9,6.9,10.3,15.3,10.3,25.3s-3.4,18.4-10.3,25.3L262,172.7l65.3,65.3l111.9-111.6c7.1-6.9,15.5-10.3,25.4-10.3
	S482.8,119.5,489.7,126.4L489.7,126.4z"/>
</svg>
