<?xml version="1.0" encoding="utf-8"?>
<!-- Generator: Adobe Illustrator 18.0.0, SVG Export Plug-In . SVG Version: 6.00 Build 0)  -->
<!DOCTYPE svg PUBLIC "-//W3C//DTD SVG 1.1//EN" "http://www.w3.org/Graphics/SVG/1.1/DTD/svg11.dtd">
<svg version="1.1" id="图层_1" xmlns="http://www.w3.org/2000/svg" xmlns:xlink="http://www.w3.org/1999/xlink" x="0px" y="0px"
	 viewBox="0 0 500 500" enable-background="new 0 0 500 500" xml:space="preserve">
<path fill="#999999" d="M250,0c33.9,0,66.2,6.6,97.1,19.8s57.5,31,79.8,53.3c22.3,22.3,40.1,48.9,53.3,79.8
	c13.2,30.9,19.8,63.2,19.8,97.1s-6.6,66.2-19.8,97.1c-13.2,30.9-31,57.5-53.3,79.8c-22.3,22.3-48.9,40.1-79.8,53.3
	C316.2,493.4,283.9,500,250,500s-66.2-6.6-97.1-19.8c-30.9-13.2-57.5-31-79.8-53.3C50.8,404.6,33,378,19.8,347.1S0,283.9,0,250
	s6.6-66.2,19.8-97.1s31-57.5,53.3-79.8S122,33,152.9,19.8S216.1,0,250,0L250,0z M250,35.7c-35.3,0-68.9,8.4-100.7,25.1l54.1,54.1
	c15.3-5.2,30.8-7.8,46.6-7.8c15.8,0,31.3,2.6,46.6,7.8l54.1-54.1C318.9,44.1,285.3,35.7,250,35.7L250,35.7z M60.8,350.7l54.1-54.1
	c-5.2-15.3-7.8-30.8-7.8-46.6c0-15.8,2.6-31.3,7.8-46.6l-54.1-54.1C44.1,181.1,35.7,214.7,35.7,250S44.1,318.9,60.8,350.7
	L60.8,350.7z M250,464.3c35.3,0,68.9-8.4,100.7-25.1L296.6,385c-15.3,5.2-30.8,7.8-46.6,7.8c-15.8,0-31.3-2.6-46.6-7.8l-54.1,54.1
	C181.1,455.9,214.7,464.3,250,464.3L250,464.3z M250,357.1c29.6,0,54.8-10.5,75.8-31.4c20.9-20.9,31.4-46.2,31.4-75.8
	s-10.5-54.8-31.4-75.8c-20.9-20.9-46.2-31.4-75.8-31.4s-54.8,10.5-75.8,31.4s-31.4,46.2-31.4,75.8s10.5,54.8,31.4,75.8
	C195.2,346.7,220.4,357.1,250,357.1L250,357.1z M385,296.6l54.1,54.1c16.7-31.8,25.1-65.4,25.1-100.7s-8.4-68.9-25.1-100.7
	L385,203.4c5.2,15.3,7.8,30.8,7.8,46.6C392.9,265.8,390.3,281.3,385,296.6L385,296.6z"/>
</svg>
