<?xml version="1.0" encoding="utf-8"?>
<!-- Generator: Adobe Illustrator 18.0.0, SVG Export Plug-In . SVG Version: 6.00 Build 0)  -->
<!DOCTYPE svg PUBLIC "-//W3C//DTD SVG 1.1//EN" "http://www.w3.org/Graphics/SVG/1.1/DTD/svg11.dtd">
<svg version="1.1" id="图层_1" xmlns="http://www.w3.org/2000/svg" xmlns:xlink="http://www.w3.org/1999/xlink" x="0px" y="0px"
	 viewBox="0 0 500 500" enable-background="new 0 0 500 500" xml:space="preserve">
<path fill="#999999" d="M455.4,410.7c0,4.8-1.8,9-5.3,12.6s-7.7,5.3-12.6,5.3H308.6c0.2,3.2,0.7,11.3,1.7,24.4
	c0.9,13.1,1.4,23.2,1.4,30.3c0,4.7-1.7,8.6-5,11.9s-7.3,4.9-12,4.9h-89.3c-4.7,0-8.6-1.6-12-4.9s-5-7.2-5-11.9
	c0-7.1,0.5-17.2,1.4-30.3c0.9-13.1,1.5-21.3,1.7-24.4H62.5c-4.8,0-9-1.8-12.6-5.3c-3.5-3.5-5.3-7.7-5.3-12.6c0-4.8,1.8-9,5.3-12.6
	l112.2-112.4H98.2c-4.8,0-9-1.8-12.6-5.3c-3.5-3.5-5.3-7.7-5.3-12.6s1.8-9,5.3-12.6l112.2-112.4h-55c-4.8,0-9-1.8-12.6-5.3
	c-3.5-3.5-5.3-7.7-5.3-12.6s1.8-9,5.3-12.6L237.4,5.3C241,1.8,245.2,0,250,0s9,1.8,12.6,5.3l107.1,107.1c3.5,3.5,5.3,7.7,5.3,12.6
	s-1.8,9-5.3,12.6c-3.5,3.5-7.7,5.3-12.6,5.3h-55l112.2,112.4c3.5,3.5,5.3,7.7,5.3,12.6s-1.8,9-5.3,12.6s-7.7,5.3-12.6,5.3h-63.9
	l112.2,112.4C453.6,401.7,455.4,405.9,455.4,410.7L455.4,410.7z"/>
</svg>
