<?xml version="1.0" encoding="utf-8"?>
<!-- Generator: Adobe Illustrator 18.0.0, SVG Export Plug-In . SVG Version: 6.00 Build 0)  -->
<!DOCTYPE svg PUBLIC "-//W3C//DTD SVG 1.1//EN" "http://www.w3.org/Graphics/SVG/1.1/DTD/svg11.dtd">
<svg version="1.1" id="图层_1" xmlns="http://www.w3.org/2000/svg" xmlns:xlink="http://www.w3.org/1999/xlink" x="0px" y="0px"
	 viewBox="0 0 500 500" enable-background="new 0 0 500 500" xml:space="preserve">
<path fill="#999999" d="M137.6,246.1c-14.8-32.5-22.2-69.6-22.2-111.5H38.5v28.8c0,15.6,9.5,31.9,28.4,48.7S109.4,240.3,137.6,246.1
	L137.6,246.1z M461.5,163.5v-28.8h-76.9c0,41.9-7.4,79-22.2,111.5c28.2-5.8,51.8-17.1,70.8-34C452.1,195.3,461.5,179.1,461.5,163.5
	L461.5,163.5z M500,125v38.5c0,14.2-4.2,28.5-12.5,43c-8.3,14.4-19.5,27.4-33.7,39.1c-14.1,11.6-31.5,21.4-52,29.3
	c-20.5,7.9-42.1,12.4-64.8,13.4c-8.4,10.8-17.9,20.3-28.5,28.5c-7.6,6.8-12.9,14.1-15.8,21.8s-4.4,16.7-4.4,26.9
	c0,10.8,3.1,19.9,9.2,27.3c6.1,7.4,15.9,11.1,29.3,11.1c15,0,28.4,4.6,40.1,13.7c11.7,9.1,17.6,20.6,17.6,34.4v19.2
	c0,2.8-0.9,5.1-2.7,6.9s-4.1,2.7-6.9,2.7H125c-2.8,0-5.1-0.9-6.9-2.7c-1.8-1.8-2.7-4.1-2.7-6.9v-19.2c0-13.8,5.9-25.3,17.6-34.4
	c11.7-9.1,25.1-13.7,40.1-13.7c13.4,0,23.2-3.7,29.3-11.1c6.1-7.4,9.2-16.5,9.2-27.3c0-10.2-1.5-19.2-4.4-26.9
	c-2.9-7.7-8.2-15-15.8-21.8c-10.6-8.2-20.1-17.7-28.5-28.5c-22.6-1-44.2-5.5-64.8-13.4c-20.5-7.9-37.9-17.7-52-29.3
	c-14.1-11.6-25.3-24.6-33.7-39.1C4.2,192,0,177.7,0,163.5V125c0-8,2.8-14.8,8.4-20.4c5.6-5.6,12.4-8.4,20.4-8.4h86.5V67.3
	c0-13.2,4.7-24.5,14.1-34s20.7-14.1,34-14.1h173.1c13.2,0,24.5,4.7,34,14.1c9.4,9.4,14.1,20.7,14.1,34v28.8h86.5
	c8,0,14.8,2.8,20.4,8.4C497.2,110.2,500,117,500,125L500,125z"/>
</svg>
