<?xml version="1.0" encoding="utf-8"?>
<!-- Generator: Adobe Illustrator 18.0.0, SVG Export Plug-In . SVG Version: 6.00 Build 0)  -->
<!DOCTYPE svg PUBLIC "-//W3C//DTD SVG 1.1//EN" "http://www.w3.org/Graphics/SVG/1.1/DTD/svg11.dtd">
<svg version="1.1" id="图层_1" xmlns="http://www.w3.org/2000/svg" xmlns:xlink="http://www.w3.org/1999/xlink" x="0px" y="0px"
	 viewBox="0 0 500 500" enable-background="new 0 0 500 500" xml:space="preserve">
<path fill="#999999" d="M491.3,17.4c0,7-4.3,14.8-12.9,23.4L288.5,230.8v230.8h96.2c5.2,0,9.7,1.9,13.5,5.7
	c3.8,3.8,5.7,8.3,5.7,13.5c0,5.2-1.9,9.7-5.7,13.5c-3.8,3.8-8.3,5.7-13.5,5.7H115.4c-5.2,0-9.7-1.9-13.5-5.7
	c-3.8-3.8-5.7-8.3-5.7-13.5c0-5.2,1.9-9.7,5.7-13.5c3.8-3.8,8.3-5.7,13.5-5.7h96.2V230.8L21.6,40.9C13,32.3,8.7,24.4,8.7,17.4
	c0-4.6,1.8-8.3,5.4-11c3.6-2.7,7.4-4.5,11.4-5.3c4-0.8,8.3-1.2,12.9-1.2h423.1c4.6,0,8.9,0.4,12.9,1.2c4,0.8,7.8,2.6,11.4,5.3
	C489.5,9.2,491.3,12.8,491.3,17.4L491.3,17.4z"/>
</svg>
