<?xml version="1.0" encoding="utf-8"?>
<!-- Generator: Adobe Illustrator 18.0.0, SVG Export Plug-In . SVG Version: 6.00 Build 0)  -->
<!DOCTYPE svg PUBLIC "-//W3C//DTD SVG 1.1//EN" "http://www.w3.org/Graphics/SVG/1.1/DTD/svg11.dtd">
<svg version="1.1" id="图层_1" xmlns="http://www.w3.org/2000/svg" xmlns:xlink="http://www.w3.org/1999/xlink" x="0px" y="0px"
	 viewBox="0 0 500 500" enable-background="new 0 0 500 500" xml:space="preserve">
<path fill="#999999" d="M250,369.6c0-8.2-2.3-16-6.8-23.4c-0.2-0.2-2-2.8-5.3-7.6c-3.3-4.9-6.2-9.2-8.7-12.9s-5.3-8.7-8.5-14.9
	c-3.2-6.2-5.5-11.9-7.1-17.2c-0.9-3.6-3.3-5.4-7.1-5.4c-3.8,0-6.2,1.8-7.1,5.4c-1.6,5.2-4,10.9-7.1,17.2c-3.2,6.2-6,11.2-8.5,14.9
	c-2.5,3.7-5.4,8-8.7,12.9c-3.3,4.9-5,7.4-5.3,7.6c-4.5,7.5-6.8,15.3-6.8,23.4c0,12,4.2,22.2,12.7,30.7c8.5,8.5,18.7,12.7,30.7,12.7
	s22.2-4.2,30.7-12.7C245.8,391.8,250,381.6,250,369.6L250,369.6z M423.9,326.1c0,48-17,89-51,123s-75,51-123,51s-89-17-123-51
	s-51-75-51-123c0-32.8,9.2-64,27.5-93.4c1.4-2,8.4-12.3,21.2-30.7s24.2-35.6,34.3-51.3c10.1-15.7,21.3-35.9,33.8-60.5
	c12.5-24.6,21.9-47.4,28.2-68.4c2-6.8,5.9-12.1,11.5-16C238.3,1.9,244.1,0,250,0s11.7,1.9,17.5,5.8c5.8,3.8,9.6,9.2,11.4,16
	c6.3,21.1,15.7,43.9,28.2,68.4c12.5,24.6,23.7,44.7,33.8,60.5s21.5,32.8,34.3,51.3s19.9,28.7,21.2,30.7
	C414.7,261.4,423.9,292.6,423.9,326.1L423.9,326.1z"/>
</svg>
