<?xml version="1.0" encoding="utf-8"?>
<!-- Generator: Adobe Illustrator 18.0.0, SVG Export Plug-In . SVG Version: 6.00 Build 0)  -->
<!DOCTYPE svg PUBLIC "-//W3C//DTD SVG 1.1//EN" "http://www.w3.org/Graphics/SVG/1.1/DTD/svg11.dtd">
<svg version="1.1" id="图层_1" xmlns="http://www.w3.org/2000/svg" xmlns:xlink="http://www.w3.org/1999/xlink" x="0px" y="0px"
	 viewBox="0 0 500 500" enable-background="new 0 0 500 500" xml:space="preserve">
<path fill="#999999" d="M500,285c0,5.4-2,10.1-5.9,14.1s-8.6,5.9-14.1,5.9h-70c0,35.6-7,65.8-20.9,90.6l65,65.3
	c4,4,5.9,8.6,5.9,14.1s-2,10.1-5.9,14.1c-3.8,4-8.4,5.9-14.1,5.9s-10.3-2-14.1-5.9l-61.9-61.6c-1,1-2.6,2.4-4.7,4.1
	s-6.5,4.6-13.1,8.9s-13.4,8.1-20.3,11.4s-15.4,6.4-25.6,9.1S280,465,270,465V185h-40v280c-10.6,0-21.2-1.4-31.7-4.2
	s-19.6-6.3-27.2-10.3s-14.5-8.1-20.6-12.2s-10.7-7.4-13.6-10.2l-4.7-4.4L75,488.4c-4.2,4.4-9.2,6.6-15,6.6c-5,0-9.5-1.7-13.4-5
	c-4-3.8-6.1-8.4-6.4-13.9s1.3-10.4,4.8-14.5l63.1-70.9C96,366.9,90,338.3,90,305H20c-5.4,0-10.1-2-14.1-5.9S0,290.4,0,285
	s2-10.1,5.9-14.1S14.6,265,20,265h70v-91.9l-54.1-54.1c-4-4-5.9-8.6-5.9-14.1s2-10.1,5.9-14.1S44.6,85,50,85s10.1,2,14.1,5.9
	l54.1,54.1h263.8l54.1-54.1c4-4,8.6-5.9,14.1-5.9s10.1,2,14.1,5.9s5.9,8.6,5.9,14.1s-2,10.1-5.9,14.1L410,173.1V265h70
	c5.4,0,10.1,2,14.1,5.9S500,279.6,500,285L500,285z M350,105H150c0-27.7,9.7-51.3,29.2-70.8S222.3,5,250,5s51.3,9.7,70.8,29.2
	S350,77.3,350,105L350,105z"/>
</svg>
