<?xml version="1.0" encoding="utf-8"?>
<!-- Generator: Adobe Illustrator 18.0.0, SVG Export Plug-In . SVG Version: 6.00 Build 0)  -->
<!DOCTYPE svg PUBLIC "-//W3C//DTD SVG 1.1//EN" "http://www.w3.org/Graphics/SVG/1.1/DTD/svg11.dtd">
<svg version="1.1" id="图层_1" xmlns="http://www.w3.org/2000/svg" xmlns:xlink="http://www.w3.org/1999/xlink" x="0px" y="0px"
	 viewBox="0 0 500 500" enable-background="new 0 0 500 500" xml:space="preserve">
<path fill="#999999" d="M107.1,303.6c0-9.9-3.5-18.3-10.5-25.3s-15.4-10.5-25.3-10.5s-18.3,3.5-25.3,10.5s-10.5,15.4-10.5,25.3
	c0,9.9,3.5,18.3,10.5,25.3c7,7,15.4,10.5,25.3,10.5s18.3-3.5,25.3-10.5C103.7,321.8,107.1,313.4,107.1,303.6L107.1,303.6z
	 M160.7,178.6c0-9.9-3.5-18.3-10.5-25.3s-15.4-10.5-25.3-10.5s-18.3,3.5-25.3,10.5c-7,7-10.5,15.4-10.5,25.3s3.5,18.3,10.5,25.3
	c7,7,15.4,10.5,25.3,10.5s18.3-3.5,25.3-10.5S160.7,188.4,160.7,178.6L160.7,178.6z M280.1,312.8l28.2-106.6
	c1.1-4.8,0.4-9.3-2.1-13.5c-2.5-4.2-6.1-6.9-10.7-8.2c-4.7-1.3-9.1-0.7-13.4,1.8c-4.3,2.5-7.1,6.2-8.4,11l-28.2,106.6
	c-11.2,0.9-21.1,5-29.9,12.1s-14.6,16.3-17.6,27.5c-3.7,14.3-1.9,27.9,5.6,40.7c7.4,12.8,18.3,21.1,32.6,24.8
	c14.3,3.7,27.9,1.9,40.7-5.6c12.8-7.4,21.1-18.3,24.8-32.6c3-11.2,2.4-22-1.7-32.6C296.1,327.6,289.4,319.1,280.1,312.8L280.1,312.8
	z M464.3,303.6c0-9.9-3.5-18.3-10.5-25.3c-7-7-15.4-10.5-25.3-10.5c-9.9,0-18.3,3.5-25.3,10.5s-10.5,15.4-10.5,25.3
	c0,9.9,3.5,18.3,10.5,25.3c7,7,15.4,10.5,25.3,10.5c9.9,0,18.3-3.5,25.3-10.5C460.8,321.8,464.3,313.4,464.3,303.6L464.3,303.6z
	 M285.7,125c0-9.9-3.5-18.3-10.5-25.3c-7-7-15.4-10.5-25.3-10.5c-9.9,0-18.3,3.5-25.3,10.5c-7,7-10.5,15.4-10.5,25.3
	s3.5,18.3,10.5,25.3s15.4,10.5,25.3,10.5c9.9,0,18.3-3.5,25.3-10.5C282.2,143.3,285.7,134.9,285.7,125L285.7,125z M410.7,178.6
	c0-9.9-3.5-18.3-10.5-25.3c-7-7-15.4-10.5-25.3-10.5s-18.3,3.5-25.3,10.5c-7,7-10.5,15.4-10.5,25.3s3.5,18.3,10.5,25.3
	c7,7,15.4,10.5,25.3,10.5s18.3-3.5,25.3-10.5C407.2,196.8,410.7,188.4,410.7,178.6L410.7,178.6z M500,303.6
	c0,48.5-13.1,93.5-39.3,134.8c-3.5,5.4-8.6,8.1-15.1,8.1H54.4c-6.5,0-11.5-2.7-15.1-8.1C13.1,397.2,0,352.3,0,303.6
	c0-33.9,6.6-66.2,19.8-97.1s31-57.5,53.3-79.8s48.9-40.1,79.8-53.3s63.2-19.8,97.1-19.8s66.2,6.6,97.1,19.8s57.5,31,79.8,53.3
	c22.3,22.3,40.1,48.9,53.3,79.8C493.4,237.4,500,269.7,500,303.6L500,303.6z"/>
</svg>
