<?xml version="1.0" encoding="utf-8"?>
<!-- Generator: Adobe Illustrator 18.0.0, SVG Export Plug-In . SVG Version: 6.00 Build 0)  -->
<!DOCTYPE svg PUBLIC "-//W3C//DTD SVG 1.1//EN" "http://www.w3.org/Graphics/SVG/1.1/DTD/svg11.dtd">
<svg version="1.1" id="图层_1" xmlns="http://www.w3.org/2000/svg" xmlns:xlink="http://www.w3.org/1999/xlink" x="0px" y="0px"
	 viewBox="0 0 500 500" enable-background="new 0 0 500 500" xml:space="preserve">
<path fill="#999999" d="M80.4,107.1c12.3,0,22.8,4.4,31.5,13.1s13.1,19.3,13.1,31.5v303.6c0,12.3-4.4,22.8-13.1,31.5
	c-8.7,8.7-19.3,13.1-31.5,13.1H44.6c-12.3,0-22.8-4.4-31.5-13.1C4.4,478.1,0,467.6,0,455.4V151.8c0-12.3,4.4-22.8,13.1-31.5
	s19.3-13.1,31.5-13.1H80.4L80.4,107.1z M464.3,152.6c10.8,6.3,19.4,15,25.9,25.9c6.5,11,9.8,22.9,9.8,35.7v214.3
	c0,19.7-7,36.6-20.9,50.5S448.3,500,428.6,500H187.5c-12.3,0-22.8-4.4-31.5-13.1c-8.7-8.7-13.1-19.3-13.1-31.5V26.8
	c0-7.4,2.6-13.8,7.8-19s11.5-7.8,19-7.8h187.5c7.4,0,15.6,1.9,24.6,5.6c8.9,3.7,16,8.2,21.2,13.4l42.4,42.4
	c5.2,5.2,9.7,12.3,13.4,21.2s5.6,17.1,5.6,24.6V152.6L464.3,152.6z M258.9,428.6v-35.7c0-2.6-0.8-4.7-2.5-6.4
	c-1.7-1.7-3.8-2.5-6.4-2.5h-35.7c-2.6,0-4.7,0.8-6.4,2.5s-2.5,3.8-2.5,6.4v35.7c0,2.6,0.8,4.7,2.5,6.4s3.8,2.5,6.4,2.5H250
	c2.6,0,4.7-0.8,6.4-2.5C258.1,433.3,258.9,431.2,258.9,428.6L258.9,428.6z M258.9,357.1v-35.7c0-2.6-0.8-4.7-2.5-6.4
	c-1.7-1.7-3.8-2.5-6.4-2.5h-35.7c-2.6,0-4.7,0.8-6.4,2.5s-2.5,3.8-2.5,6.4v35.7c0,2.6,0.8,4.7,2.5,6.4s3.8,2.5,6.4,2.5H250
	c2.6,0,4.7-0.8,6.4-2.5C258.1,361.9,258.9,359.7,258.9,357.1L258.9,357.1z M258.9,285.7V250c0-2.6-0.8-4.7-2.5-6.4
	c-1.7-1.7-3.8-2.5-6.4-2.5h-35.7c-2.6,0-4.7,0.8-6.4,2.5c-1.7,1.7-2.5,3.8-2.5,6.4v35.7c0,2.6,0.8,4.7,2.5,6.4
	c1.7,1.7,3.8,2.5,6.4,2.5H250c2.6,0,4.7-0.8,6.4-2.5C258.1,290.5,258.9,288.3,258.9,285.7L258.9,285.7z M330.4,428.6v-35.7
	c0-2.6-0.8-4.7-2.5-6.4s-3.8-2.5-6.4-2.5h-35.7c-2.6,0-4.7,0.8-6.4,2.5s-2.5,3.8-2.5,6.4v35.7c0,2.6,0.8,4.7,2.5,6.4
	s3.8,2.5,6.4,2.5h35.7c2.6,0,4.7-0.8,6.4-2.5S330.4,431.2,330.4,428.6L330.4,428.6z M330.4,357.1v-35.7c0-2.6-0.8-4.7-2.5-6.4
	s-3.8-2.5-6.4-2.5h-35.7c-2.6,0-4.7,0.8-6.4,2.5s-2.5,3.8-2.5,6.4v35.7c0,2.6,0.8,4.7,2.5,6.4s3.8,2.5,6.4,2.5h35.7
	c2.6,0,4.7-0.8,6.4-2.5S330.4,359.7,330.4,357.1L330.4,357.1z M330.4,285.7V250c0-2.6-0.8-4.7-2.5-6.4c-1.7-1.7-3.8-2.5-6.4-2.5
	h-35.7c-2.6,0-4.7,0.8-6.4,2.5c-1.7,1.7-2.5,3.8-2.5,6.4v35.7c0,2.6,0.8,4.7,2.5,6.4c1.7,1.7,3.8,2.5,6.4,2.5h35.7
	c2.6,0,4.7-0.8,6.4-2.5C329.5,290.5,330.4,288.3,330.4,285.7L330.4,285.7z M401.8,428.6v-35.7c0-2.6-0.8-4.7-2.5-6.4
	c-1.7-1.7-3.8-2.5-6.4-2.5h-35.7c-2.6,0-4.7,0.8-6.4,2.5c-1.7,1.7-2.5,3.8-2.5,6.4v35.7c0,2.6,0.8,4.7,2.5,6.4
	c1.7,1.7,3.8,2.5,6.4,2.5h35.7c2.6,0,4.7-0.8,6.4-2.5C400.9,433.3,401.8,431.2,401.8,428.6L401.8,428.6z M401.8,357.1v-35.7
	c0-2.6-0.8-4.7-2.5-6.4c-1.7-1.7-3.8-2.5-6.4-2.5h-35.7c-2.6,0-4.7,0.8-6.4,2.5c-1.7,1.7-2.5,3.8-2.5,6.4v35.7
	c0,2.6,0.8,4.7,2.5,6.4c1.7,1.7,3.8,2.5,6.4,2.5h35.7c2.6,0,4.7-0.8,6.4-2.5C400.9,361.9,401.8,359.7,401.8,357.1L401.8,357.1z
	 M401.8,285.7V250c0-2.6-0.8-4.7-2.5-6.4c-1.7-1.7-3.8-2.5-6.4-2.5h-35.7c-2.6,0-4.7,0.8-6.4,2.5c-1.7,1.7-2.5,3.8-2.5,6.4v35.7
	c0,2.6,0.8,4.7,2.5,6.4c1.7,1.7,3.8,2.5,6.4,2.5h35.7c2.6,0,4.7-0.8,6.4-2.5C400.9,290.5,401.8,288.3,401.8,285.7L401.8,285.7z
	 M428.6,178.6v-71.4h-44.6c-7.4,0-13.8-2.6-19-7.8c-5.2-5.2-7.8-11.5-7.8-19V35.7H178.6v142.9H428.6L428.6,178.6z"/>
</svg>
