<?xml version="1.0" encoding="utf-8"?>
<!-- Generator: Adobe Illustrator 18.0.0, SVG Export Plug-In . SVG Version: 6.00 Build 0)  -->
<!DOCTYPE svg PUBLIC "-//W3C//DTD SVG 1.1//EN" "http://www.w3.org/Graphics/SVG/1.1/DTD/svg11.dtd">
<svg version="1.1" id="图层_1" xmlns="http://www.w3.org/2000/svg" xmlns:xlink="http://www.w3.org/1999/xlink" x="0px" y="0px"
	 viewBox="0 0 500 500" enable-background="new 0 0 500 500" xml:space="preserve">
<path fill="#999999" d="M476.2,429.7c12.2,19.3,14.5,35.9,7,49.6c-7.5,13.8-22.7,20.7-45.7,20.7h-375c-23,0-38.2-6.9-45.7-20.7
	c-7.5-13.8-5.2-30.3,7-49.6l163.7-258.1V41.7h-20.8c-5.6,0-10.5-2.1-14.6-6.2c-4.1-4.1-6.2-9-6.2-14.6s2.1-10.5,6.2-14.6
	c4.1-4.1,9-6.2,14.6-6.2h166.7c5.6,0,10.5,2.1,14.6,6.2c4.1,4.1,6.2,9,6.2,14.6s-2.1,10.5-6.2,14.6c-4.1,4.1-9,6.2-14.6,6.2h-20.8
	v129.9L476.2,429.7z M222.7,193.7l-88.5,139.6h231.8l-88.5-139.6l-6.5-10.1V41.7h-41.7v141.9L222.7,193.7z"/>
</svg>
