<?xml version="1.0" encoding="utf-8"?>
<!-- Generator: Adobe Illustrator 18.0.0, SVG Export Plug-In . SVG Version: 6.00 Build 0)  -->
<!DOCTYPE svg PUBLIC "-//W3C//DTD SVG 1.1//EN" "http://www.w3.org/Graphics/SVG/1.1/DTD/svg11.dtd">
<svg version="1.1" id="图层_1" xmlns="http://www.w3.org/2000/svg" xmlns:xlink="http://www.w3.org/1999/xlink" x="0px" y="0px"
	 viewBox="0 0 500 500" enable-background="new 0 0 500 500" xml:space="preserve">
<path fill="#999999" d="M322.9,145.8c0,2.8-1,5.3-3.1,7.3c-2.1,2.1-4.5,3.1-7.3,3.1c-2.8,0-5.3-1-7.3-3.1c-2.1-2.1-3.1-4.5-3.1-7.3
	c0-10-5.9-17.7-17.6-23.1c-11.7-5.4-23.2-8.1-34.5-8.1c-2.8,0-5.3-1-7.3-3.1c-2.1-2.1-3.1-4.5-3.1-7.3c0-2.8,1-5.3,3.1-7.3
	c2.1-2.1,4.5-3.1,7.3-3.1c10.9,0,21.6,1.7,32.4,5.2c10.7,3.5,20.2,9.3,28.3,17.6C318.8,124.8,322.9,134.5,322.9,145.8L322.9,145.8z
	 M375,145.8c0-15.6-3.7-30.2-11.2-43.6s-17.3-24.5-29.3-33c-12-8.6-25.4-15.3-40-20.2c-14.6-4.9-29.5-7.3-44.4-7.3
	c-15,0-29.8,2.4-44.4,7.3c-14.6,4.9-28,11.6-40,20.2c-12,8.6-21.8,19.6-29.3,33c-7.5,13.5-11.2,28-11.2,43.6
	c0,21.9,7.4,41.4,22.1,58.6c2.2,2.4,5.5,6,9.9,10.7c4.4,4.8,7.8,8.4,9.9,10.7c27.8,33.2,43.1,65.5,45.9,97h74.2
	c2.8-31.5,18.1-63.8,45.9-97c2.2-2.4,5.5-6,9.9-10.7c4.4-4.8,7.8-8.4,9.9-10.7C367.6,187.3,375,167.8,375,145.8L375,145.8z
	 M416.7,145.8c0,33.6-11.2,62.7-33.5,87.2c-9.8,10.6-17.8,20.1-24.3,28.3c-6.4,8.2-12.9,18.6-19.4,31.1c-6.5,12.5-10.2,24.1-11.1,35
	c10.2,6.1,15.3,15,15.3,26.7c0,8-2.7,15-8.1,20.8c5.4,5.9,8.1,12.8,8.1,20.8c0,11.3-4.9,20.1-14.6,26.4c2.8,5,4.2,10.1,4.2,15.3
	c0,10-3.4,17.7-10.3,23.1c-6.8,5.4-15.2,8.1-25.2,8.1c-4.3,9.5-10.9,17.1-19.5,22.8c-8.7,5.6-18.1,8.5-28.3,8.5
	c-10.2,0-19.6-2.8-28.3-8.5c-8.7-5.6-15.2-13.2-19.5-22.8c-10,0-18.4-2.7-25.2-8.1c-6.8-5.4-10.3-13.1-10.3-23.1
	c0-5.2,1.4-10.3,4.2-15.3c-9.8-6.3-14.6-15.1-14.6-26.4c0-8,2.7-15,8.1-20.8c-5.4-5.9-8.1-12.8-8.1-20.8c0-11.7,5.1-20.6,15.3-26.7
	c-0.9-10.9-4.6-22.5-11.1-35c-6.5-12.5-13-22.8-19.4-31.1c-6.4-8.2-14.5-17.7-24.3-28.3c-22.4-24.5-33.5-53.6-33.5-87.2
	c0-21.5,4.8-41.5,14.5-60.1c9.7-18.6,22.4-34,38.1-46.2s33.5-21.9,53.4-29S229.4,0,250,0s40.9,3.5,60.7,10.6s37.7,16.7,53.4,29
	c15.7,12.3,28.4,27.7,38.1,46.2C411.8,104.3,416.7,124.3,416.7,145.8L416.7,145.8z"/>
</svg>
