<?xml version="1.0" encoding="utf-8"?>
<!-- Generator: Adobe Illustrator 18.0.0, SVG Export Plug-In . SVG Version: 6.00 Build 0)  -->
<!DOCTYPE svg PUBLIC "-//W3C//DTD SVG 1.1//EN" "http://www.w3.org/Graphics/SVG/1.1/DTD/svg11.dtd">
<svg version="1.1" id="图层_1" xmlns="http://www.w3.org/2000/svg" xmlns:xlink="http://www.w3.org/1999/xlink" x="0px" y="0px"
	 viewBox="0 0 500 500" enable-background="new 0 0 500 500" xml:space="preserve">
<path fill="#999999" d="M302.1,410.2V177.1H197.9v233.1c0,5.4,2,9.6,5.9,12.5s8.9,4.4,15,4.4h62.5c6.1,0,11.1-1.5,15-4.4
	S302.1,415.6,302.1,410.2L302.1,410.2z M153.6,135.4h63.5l-41-52.4c-5.6-6.7-13.1-10.1-22.5-10.1c-8.7,0-16.1,3-22.1,9.1
	c-6.1,6.1-9.1,13.5-9.1,22.1c0,8.7,3,16.1,9.1,22.1C137.6,132.4,145,135.4,153.6,135.4L153.6,135.4z M377.6,104.2
	c0-8.7-3-16.1-9.1-22.1c-6.1-6.1-13.5-9.1-22.1-9.1c-9.3,0-16.8,3.4-22.5,10.1l-40.7,52.4h63.2c8.7,0,16.1-3,22.1-9.1
	C374.6,120.2,377.6,112.8,377.6,104.2L377.6,104.2z M500,187.5v104.2c0,3-1,5.5-2.9,7.5s-4.4,2.9-7.5,2.9h-31.3v135.4
	c0,8.7-3,16.1-9.1,22.1c-6.1,6.1-13.5,9.1-22.1,9.1H72.9c-8.7,0-16.1-3-22.1-9.1c-6.1-6.1-9.1-13.5-9.1-22.1V302.1H10.4
	c-3,0-5.5-1-7.5-2.9S0,294.7,0,291.7V187.5c0-3,1-5.5,2.9-7.5s4.4-2.9,7.5-2.9h143.2c-20.2,0-37.4-7.1-51.6-21.3
	s-21.3-31.4-21.3-51.6s7.1-37.4,21.3-51.6s31.4-21.3,51.6-21.3c23.2,0,41.4,8.4,54.7,25.1L250,110l41.7-53.7
	c13.2-16.7,31.5-25.1,54.7-25.1c20.2,0,37.4,7.1,51.6,21.3s21.3,31.4,21.3,51.6s-7.1,37.4-21.3,51.6s-31.4,21.3-51.6,21.3h143.2
	c3,0,5.5,1,7.5,2.9S500,184.5,500,187.5L500,187.5z"/>
</svg>
