<?xml version="1.0" encoding="utf-8"?>
<!-- Generator: Adobe Illustrator 18.0.0, SVG Export Plug-In . SVG Version: 6.00 Build 0)  -->
<!DOCTYPE svg PUBLIC "-//W3C//DTD SVG 1.1//EN" "http://www.w3.org/Graphics/SVG/1.1/DTD/svg11.dtd">
<svg version="1.1" id="图层_1" xmlns="http://www.w3.org/2000/svg" xmlns:xlink="http://www.w3.org/1999/xlink" x="0px" y="0px"
	 viewBox="0 0 500 500" enable-background="new 0 0 500 500" xml:space="preserve">
<path fill="#999999" d="M500,266.2c0,33.3-6,64.7-18,94.4l-6,14.7l-55.6,9.9c-4.4,16.6-13.5,30.3-27.2,41
	c-13.7,10.7-29.4,16.1-47,16.1v9.6c0,2.8-0.9,5.1-2.7,6.9s-4.1,2.7-6.9,2.7h-19.2c-2.8,0-5.1-0.9-6.9-2.7s-2.7-4.1-2.7-6.9V278.8
	c0-2.8,0.9-5.1,2.7-6.9s4.1-2.7,6.9-2.7h19.2c2.8,0,5.1,0.9,6.9,2.7s2.7,4.1,2.7,6.9v9.6c14.2,0,27.2,3.6,39.1,10.7
	c11.8,7.1,21.1,16.7,27.9,28.7l20.4-3.6c5.8-19,8.7-38.4,8.7-58c0-29.6-8.8-57.6-26.4-83.8c-17.6-26.2-41.3-47.2-71.1-62.8
	C315.1,104,283.5,96.2,250,96.2s-65.1,7.8-94.8,23.4c-29.7,15.6-53.4,36.6-71.1,62.8s-26.4,54.2-26.4,83.8c0,19.6,2.9,39,8.7,58
	l20.4,3.6c6.8-12,16.1-21.6,27.9-28.7c11.8-7.1,24.8-10.7,39.1-10.7v-9.6c0-2.8,0.9-5.1,2.7-6.9c1.8-1.8,4.1-2.7,6.9-2.7h19.2
	c2.8,0,5.1,0.9,6.9,2.7c1.8,1.8,2.7,4.1,2.7,6.9v173.1c0,2.8-0.9,5.1-2.7,6.9c-1.8,1.8-4.1,2.7-6.9,2.7h-19.2
	c-2.8,0-5.1-0.9-6.9-2.7c-1.8-1.8-2.7-4.1-2.7-6.9v-9.6c-17.6,0-33.3-5.4-47-16.1c-13.7-10.7-22.8-24.4-27.2-41L24,375.3l-6-14.7
	C6,330.9,0,299.5,0,266.2c0-30.2,6.7-59.4,20.1-87.4s31.4-52.3,53.8-72.9S123,69,153.8,56.8s62.9-18.3,96.2-18.3s65.3,6.1,96.2,18.3
	s57.5,28.6,79.9,49.1c22.4,20.5,40.4,44.8,53.8,72.9C493.3,206.8,500,236,500,266.2L500,266.2z"/>
</svg>
