<?xml version="1.0" encoding="utf-8"?>
<!-- Generator: Adobe Illustrator 18.0.0, SVG Export Plug-In . SVG Version: 6.00 Build 0)  -->
<!DOCTYPE svg PUBLIC "-//W3C//DTD SVG 1.1//EN" "http://www.w3.org/Graphics/SVG/1.1/DTD/svg11.dtd">
<svg version="1.1" id="图层_1" xmlns="http://www.w3.org/2000/svg" xmlns:xlink="http://www.w3.org/1999/xlink" x="0px" y="0px"
	 viewBox="0 0 500 500" enable-background="new 0 0 500 500" xml:space="preserve">
<path fill="#999999" d="M74.1,64.8c0,13.9-6.2,24.5-18.5,31.8V463c0,2.5-0.9,4.7-2.7,6.5c-1.8,1.8-4,2.7-6.5,2.7H27.8
	c-2.5,0-4.7-0.9-6.5-2.7c-1.8-1.8-2.7-4-2.7-6.5V96.6C6.2,89.3,0,78.7,0,64.8c0-10.2,3.6-19,10.9-26.2s16-10.9,26.2-10.9
	s19,3.6,26.2,10.9C70.5,45.9,74.1,54.6,74.1,64.8L74.1,64.8z M500,83.3v220.8c0,4.8-1.2,8.5-3.6,11.1c-2.4,2.6-6.2,5.3-11.4,8
	c-41.5,22.4-77.1,33.6-106.8,33.6c-11.8,0-23.7-2.1-35.7-6.4s-22.5-8.9-31.4-13.9c-8.9-5-20-9.6-33.4-13.9s-27.2-6.4-41.2-6.4
	c-37,0-81.8,14.1-134.3,42.2c-3.3,1.7-6.5,2.6-9.5,2.6c-5,0-9.4-1.8-13-5.5s-5.5-8-5.5-13V127.9c0-6.2,3-11.5,9-15.9
	c4.1-2.7,11.7-6.8,22.9-12.4c45.5-23.1,86.1-34.7,121.8-34.7c20.6,0,39.9,2.8,57.9,8.4c17.9,5.6,39.1,14.1,63.4,25.5
	c7.3,3.7,15.8,5.5,25.5,5.5c10.4,0,21.7-2,34-6.1c12.2-4.1,22.9-8.6,31.8-13.6c9-5,17.5-9.5,25.5-13.6c8-4.1,13.3-6.1,15.8-6.1
	c5,0,9.4,1.8,13,5.5S500,78.3,500,83.3L500,83.3z"/>
</svg>
