<?xml version="1.0" encoding="utf-8"?>
<!-- Generator: Adobe Illustrator 18.0.0, SVG Export Plug-In . SVG Version: 6.00 Build 0)  -->
<!DOCTYPE svg PUBLIC "-//W3C//DTD SVG 1.1//EN" "http://www.w3.org/Graphics/SVG/1.1/DTD/svg11.dtd">
<svg version="1.1" id="图层_1" xmlns="http://www.w3.org/2000/svg" xmlns:xlink="http://www.w3.org/1999/xlink" x="0px" y="0px"
	 viewBox="0 0 500 500" enable-background="new 0 0 500 500" xml:space="preserve">
<path fill="#999999" d="M222.2,280.1v-55.6c-34.9,3.1-72,14.4-111.1,33.9v53.5C150.7,293.4,187.7,282.8,222.2,280.1L222.2,280.1z
	 M222.2,159.1v-57c-33.2,1.5-70.2,13.7-111.1,36.5v54.7C152.6,171.9,189.6,160.5,222.2,159.1L222.2,159.1z M463,293.1v-53.2
	c-45.3,22.4-82.4,29.2-111.1,20.5v-64.8c-3.9-1.2-7.6-2.6-11.3-4.3c-1-0.6-4.1-2.2-9.5-4.9c-5.4-2.7-8.7-4.3-10-4.9s-4.3-2-9.1-4.3
	c-4.8-2.3-8.2-3.8-10-4.5c-1.8-0.7-5-1.9-9.4-3.8c-4.4-1.8-7.9-3-10.4-3.6c-2.5-0.6-5.9-1.4-10.1-2.5c-4.2-1.1-8.1-1.8-11.4-2.2
	c-3.4-0.4-7.2-0.8-11.4-1.2c-4.2-0.4-8.5-0.6-12.7-0.6c-4.4,0-9.2,0.3-14.2,0.9V224h5.5c19.7,0,38.2,2.8,55.7,8.4
	c17.5,5.6,36.5,13.5,57.1,23.7c3.7,1.7,7.4,3.2,11.3,4.3v54.4c8.1,3.3,16.9,4.9,26.3,4.9C401.3,319.7,429.6,310.9,463,293.1
	L463,293.1z M463,169.6v-54.7c-32.6,17.6-62.1,26.3-88.5,26.3c-8.7,0-16.2-0.8-22.6-2.3v56.7C380.4,203.7,417.4,195,463,169.6
	L463,169.6z M74.1,64.8c0,6.8-1.7,12.9-5.1,18.5c-3.4,5.6-7.9,10-13.5,13.3V463c0,2.7-0.9,4.9-2.6,6.7c-1.7,1.7-4,2.6-6.7,2.6H27.8
	c-2.7,0-4.9-0.9-6.7-2.6c-1.7-1.7-2.6-4-2.6-6.7V96.6c-5.6-3.3-10.1-7.7-13.5-13.3S0,71.6,0,64.8c0-10.2,3.6-19,10.9-26.2
	s16-10.9,26.2-10.9s19,3.6,26.2,10.9C70.5,45.9,74.1,54.6,74.1,64.8L74.1,64.8z M500,83.3v220.8c0,7.5-3.4,13-10.1,16.5
	c-1.9,1-3.6,1.8-4.9,2.6c-42.1,22.4-77.6,33.6-106.8,33.6c-17,0-32.2-3.4-45.7-10.1l-8.1-4.1c-12.3-6.4-21.9-11-28.6-13.9
	c-6.8-2.9-15.5-5.7-26.3-8.4c-10.8-2.7-21.8-4.1-33-4.1c-19.7,0-42.4,4.2-68.1,12.7s-47.8,18.3-66.1,29.5c-2.9,1.7-6.1,2.6-9.5,2.6
	c-3.1,0-6.2-0.8-9.3-2.3c-6.2-3.7-9.3-9.1-9.3-16.2V127.9c0-6.8,3-12.1,9-15.9c6.8-4.1,14.3-8.2,22.7-12.3c8.4-4.1,19.4-9.2,33-15
	c13.6-5.9,28.3-10.7,44.1-14.3c15.8-3.7,30.8-5.5,44.8-5.5c21.6,0,41.8,3,60.5,9c18.7,6,38.9,14.3,60.5,24.9
	c7.3,3.7,15.9,5.5,25.8,5.5c23.5,0,53.4-10.8,89.7-32.4c4.2-2.3,7.2-4,9-4.9c6-3.1,12-2.9,17.9,0.6C497,71.3,500,76.6,500,83.3
	L500,83.3z"/>
</svg>
