<?xml version="1.0" encoding="utf-8"?>
<!-- Generator: Adobe Illustrator 18.0.0, SVG Export Plug-In . SVG Version: 6.00 Build 0)  -->
<!DOCTYPE svg PUBLIC "-//W3C//DTD SVG 1.1//EN" "http://www.w3.org/Graphics/SVG/1.1/DTD/svg11.dtd">
<svg version="1.1" id="图层_1" xmlns="http://www.w3.org/2000/svg" xmlns:xlink="http://www.w3.org/1999/xlink" x="0px" y="0px"
	 viewBox="0 0 500 500" enable-background="new 0 0 500 500" xml:space="preserve">
<path fill="#999999" d="M463,293.1V114.9c-32.6,17.6-62.1,26.3-88.5,26.3c-15.8,0-29.8-3.1-42-9.3c-19.3-9.5-37-16.8-53.2-22.1
	c-16.2-5.3-33.4-8-51.5-8c-33.4,0-72.2,12.2-116.6,36.7v173.3c47.3-21.8,89-32.7,125.3-32.7c10.6,0,20.6,0.7,29.9,2.2
	c9.4,1.4,18.8,4,28.4,7.5c9.5,3.6,17,6.6,22.3,9c5.3,2.4,13.3,6.2,23.9,11.4l8.1,4.1c8.5,4.2,18.2,6.4,29.2,6.4
	C401.3,319.7,429.6,310.9,463,293.1L463,293.1z M74.1,64.8c0,6.8-1.7,12.9-5.1,18.5c-3.4,5.6-7.9,10-13.5,13.3V463
	c0,2.7-0.9,4.9-2.6,6.7c-1.7,1.7-4,2.6-6.7,2.6H27.8c-2.7,0-4.9-0.9-6.7-2.6c-1.7-1.7-2.6-4-2.6-6.7V96.6
	c-5.6-3.3-10.1-7.7-13.5-13.3S0,71.6,0,64.8c0-10.2,3.6-19,10.9-26.2s16-10.9,26.2-10.9s19,3.6,26.2,10.9
	C70.5,45.9,74.1,54.6,74.1,64.8L74.1,64.8z M500,83.3v220.8c0,7.5-3.4,13-10.1,16.5c-1.9,1-3.6,1.8-4.9,2.6
	c-42.1,22.4-77.6,33.6-106.8,33.6c-17,0-32.2-3.4-45.7-10.1l-8.1-4.1c-12.3-6.4-21.9-11-28.6-13.9c-6.8-2.9-15.5-5.7-26.3-8.4
	c-10.8-2.7-21.8-4.1-33-4.1c-19.7,0-42.4,4.2-68.1,12.7s-47.8,18.3-66.1,29.5c-2.9,1.7-6.1,2.6-9.5,2.6c-3.1,0-6.2-0.8-9.3-2.3
	c-6.2-3.7-9.3-9.1-9.3-16.2V127.9c0-6.8,3-12.1,9-15.9c6.8-4.1,14.3-8.2,22.7-12.3c8.4-4.1,19.4-9.2,33-15
	c13.6-5.9,28.3-10.7,44.1-14.3c15.8-3.7,30.8-5.5,44.8-5.5c21.6,0,41.8,3,60.5,9c18.7,6,38.9,14.3,60.5,24.9
	c7.3,3.7,15.9,5.5,25.8,5.5c23.5,0,53.4-10.8,89.7-32.4c4.2-2.3,7.2-4,9-4.9c6-3.1,12-2.9,17.9,0.6C497,71.3,500,76.6,500,83.3
	L500,83.3z"/>
</svg>
