<?xml version="1.0" encoding="utf-8"?>
<!-- Generator: Adobe Illustrator 18.0.0, SVG Export Plug-In . SVG Version: 6.00 Build 0)  -->
<!DOCTYPE svg PUBLIC "-//W3C//DTD SVG 1.1//EN" "http://www.w3.org/Graphics/SVG/1.1/DTD/svg11.dtd">
<svg version="1.1" id="图层_1" xmlns="http://www.w3.org/2000/svg" xmlns:xlink="http://www.w3.org/1999/xlink" x="0px" y="0px"
	 viewBox="0 0 500 500" enable-background="new 0 0 500 500" xml:space="preserve">
<path fill="#999999" d="M421.6,382.4c-11.7,2-23.7,2.9-35.8,2.9c-39.5,0-76.1-9.8-109.8-29.3c-33.7-19.5-60.3-46.1-79.8-79.8
	s-29.3-70.2-29.3-109.8c0-41.7,11.3-80.5,33.9-116.3c-43.6,13-79.3,37.9-107,74.6s-41.5,78.4-41.5,125.1c0,28.2,5.5,55.2,16.6,80.9
	c11.1,25.7,25.9,47.9,44.5,66.4c18.6,18.6,40.7,33.4,66.4,44.5c25.7,11.1,52.7,16.6,80.9,16.6c31.3,0,61-6.7,89.1-20
	C377.9,424.9,401.8,406.3,421.6,382.4L421.6,382.4z M487.7,354.7c-20.4,44.1-51.2,79.3-92.3,105.7c-41.1,26.4-86,39.6-134.7,39.6
	c-33.9,0-66.2-6.6-97.1-19.9c-30.8-13.2-57.4-31.1-79.8-53.4c-22.4-22.4-40.2-49-53.4-79.8c-13.2-30.8-19.9-63.2-19.9-97.1
	c0-33.2,6.2-65,18.7-95.3S58.7,98.1,80,75.9s47-40,76.7-53.6S218,1.3,251.2,0c9.6-0.4,16.2,3.8,19.9,12.7c3.9,8.9,2.3,16.7-4.9,23.5
	c-18.7,16.9-33,36.6-42.8,59.1s-14.8,46.2-14.8,71.2c0,32.1,7.9,61.8,23.8,88.9s37.3,48.6,64.5,64.5c27.1,15.9,56.8,23.8,88.9,23.8
	c25.6,0,50.4-5.5,74.3-16.6c8.9-3.9,16.7-2.5,23.5,4.2c3,3,4.9,6.7,5.7,11.1C489.9,346.7,489.4,350.8,487.7,354.7L487.7,354.7z"/>
</svg>
