<?xml version="1.0" encoding="utf-8"?>
<!-- Generator: Adobe Illustrator 18.0.0, SVG Export Plug-In . SVG Version: 6.00 Build 0)  -->
<!DOCTYPE svg PUBLIC "-//W3C//DTD SVG 1.1//EN" "http://www.w3.org/Graphics/SVG/1.1/DTD/svg11.dtd">
<svg version="1.1" id="图层_1" xmlns="http://www.w3.org/2000/svg" xmlns:xlink="http://www.w3.org/1999/xlink" x="0px" y="0px"
	 viewBox="0 0 500 500" enable-background="new 0 0 500 500" xml:space="preserve">
<path fill="#999999" d="M410.8,249.9c0-21.8-4.2-42.6-12.7-62.4c-8.5-19.8-19.9-36.9-34.3-51.4c-14.4-14.4-31.5-25.9-51.4-34.3
	c-19.8-8.5-40.6-12.7-62.4-12.7s-42.6,4.2-62.4,12.7c-19.8,8.5-36.9,19.9-51.4,34.3c-14.4,14.4-25.9,31.5-34.3,51.4
	s-12.7,40.6-12.7,62.4c0,21.8,4.2,42.6,12.7,62.4c8.5,19.8,19.9,36.9,34.3,51.4c14.4,14.4,31.5,25.9,51.4,34.3
	c19.8,8.5,40.6,12.7,62.4,12.7s42.6-4.2,62.4-12.7c19.8-8.5,36.9-19.9,51.4-34.3c14.4-14.4,25.9-31.5,34.3-51.4
	C406.6,292.4,410.8,271.6,410.8,249.9L410.8,249.9z M487.9,327.2c-0.7,2.8-2.6,4.7-5.6,5.6l-81.5,26.8V445c0,3-1.2,5.4-3.6,7.3
	c-2.8,1.9-5.5,2.2-8.1,1.1l-81.5-26.2l-50.3,69.2c-1.9,2.4-4.3,3.6-7.3,3.6c-3,0-5.4-1.2-7.3-3.6l-50.3-69.2L111,453.4
	c-2.6,1.1-5.3,0.7-8.1-1.1c-2.4-1.9-3.6-4.3-3.6-7.3v-85.4l-81.5-26.8c-3-0.9-4.8-2.8-5.6-5.6c-0.9-3.2-0.6-5.9,1.1-8.1l50.3-69.2
	l-50.3-69.2c-1.7-2.4-2-5.1-1.1-8.1c0.7-2.8,2.6-4.7,5.6-5.6l81.5-26.8V54.7c0-3,1.2-5.4,3.6-7.3c2.8-1.9,5.5-2.2,8.1-1.1l81.5,26.2
	l50.3-69.2c1.7-2.2,4.1-3.4,7.3-3.4c3.2,0,5.6,1.1,7.3,3.4l50.3,69.2L389,46.3c2.6-1.1,5.3-0.7,8.1,1.1c2.4,1.9,3.6,4.3,3.6,7.3
	v85.4l81.5,26.8c3,0.9,4.8,2.8,5.6,5.6c0.9,3,0.6,5.7-1.1,8.1l-50.3,69.2l50.3,69.2C488.4,321.3,488.8,324,487.9,327.2L487.9,327.2z
	"/>
</svg>
