<?xml version="1.0" encoding="utf-8"?>
<!-- Generator: Adobe Illustrator 18.0.0, SVG Export Plug-In . SVG Version: 6.00 Build 0)  -->
<!DOCTYPE svg PUBLIC "-//W3C//DTD SVG 1.1//EN" "http://www.w3.org/Graphics/SVG/1.1/DTD/svg11.dtd">
<svg version="1.1" id="图层_1" xmlns="http://www.w3.org/2000/svg" xmlns:xlink="http://www.w3.org/1999/xlink" x="0px" y="0px"
	 viewBox="0 0 500 500" enable-background="new 0 0 500 500" xml:space="preserve">
<path fill="#999999" d="M178.6,107.1h142.9V71.4H178.6V107.1L178.6,107.1z M80.4,107.1v357.1H62.5c-17.1,0-31.8-6.1-44.1-18.4
	C6.1,433.6,0,418.9,0,401.8V169.6c0-17.1,6.1-31.8,18.4-44.1s27-18.4,44.1-18.4H80.4L80.4,107.1z M392.9,107.1v357.1H107.1V107.1
	h35.7V62.5c0-7.4,2.6-13.8,7.8-19s11.5-7.8,19-7.8h160.7c7.4,0,13.8,2.6,19,7.8s7.8,11.5,7.8,19v44.6H392.9L392.9,107.1z M500,169.6
	v232.1c0,17.1-6.1,31.8-18.4,44.1c-12.3,12.3-27,18.4-44.1,18.4h-17.9V107.1h17.9c17.1,0,31.8,6.1,44.1,18.4
	C493.9,137.8,500,152.5,500,169.6L500,169.6z"/>
</svg>
