<?xml version="1.0" encoding="utf-8"?>
<!-- Generator: Adobe Illustrator 18.0.0, SVG Export Plug-In . SVG Version: 6.00 Build 0)  -->
<!DOCTYPE svg PUBLIC "-//W3C//DTD SVG 1.1//EN" "http://www.w3.org/Graphics/SVG/1.1/DTD/svg11.dtd">
<svg version="1.1" id="图层_1" xmlns="http://www.w3.org/2000/svg" xmlns:xlink="http://www.w3.org/1999/xlink" x="0px" y="0px"
	 viewBox="0 0 500 500" enable-background="new 0 0 500 500" xml:space="preserve">
<path fill="#999999" d="M464.3,250c-28.3-43.9-63.7-76.7-106.3-98.5c11.3,19.3,17,40.3,17,62.8c0,34.4-12.2,63.8-36.7,88.3
	c-24.5,24.5-53.9,36.7-88.3,36.7s-63.8-12.2-88.3-36.7c-24.5-24.5-36.7-53.9-36.7-88.3c0-22.5,5.7-43.4,17-62.8
	C99.4,173.3,64,206.1,35.7,250c24.7,38.1,55.8,68.5,93.1,91.1C166.1,363.7,206.5,375,250,375s83.9-11.3,121.2-33.9
	C408.5,318.5,439.5,288.1,464.3,250L464.3,250z M263.4,142.9c0-3.7-1.3-6.9-3.9-9.5c-2.6-2.6-5.8-3.9-9.5-3.9
	c-23.3,0-43.2,8.3-59.8,25s-25,36.6-25,59.8c0,3.7,1.3,6.9,3.9,9.5s5.8,3.9,9.5,3.9s6.9-1.3,9.5-3.9c2.6-2.6,3.9-5.8,3.9-9.5
	c0-16,5.7-29.7,17-41c11.3-11.3,25-17,41-17c3.7,0,6.9-1.3,9.5-3.9S263.4,146.6,263.4,142.9L263.4,142.9z M500,250
	c0,6.3-1.9,12.7-5.6,19.3c-26,42.8-61.1,77.1-105.1,102.8s-90.4,38.6-139.4,38.6s-95.4-12.9-139.4-38.8
	c-44-25.9-79-60.1-105.1-102.7C1.9,262.7,0,256.3,0,250s1.9-12.7,5.6-19.3c26-42.6,61.1-76.8,105.1-102.7S201.1,89.3,250,89.3
	s95.4,12.9,139.4,38.8s79,60.1,105.1,102.7C498.1,237.3,500,243.7,500,250L500,250z"/>
</svg>
