<?xml version="1.0" encoding="utf-8"?>
<!-- Generator: Adobe Illustrator 18.0.0, SVG Export Plug-In . SVG Version: 6.00 Build 0)  -->
<!DOCTYPE svg PUBLIC "-//W3C//DTD SVG 1.1//EN" "http://www.w3.org/Graphics/SVG/1.1/DTD/svg11.dtd">
<svg version="1.1" id="图层_1" xmlns="http://www.w3.org/2000/svg" xmlns:xlink="http://www.w3.org/1999/xlink" x="0px" y="0px"
	 viewBox="0 0 500 500" enable-background="new 0 0 500 500" xml:space="preserve">
<path fill="#999999" d="M100,304.2v25c0,2.8-1.4,4.2-4.2,4.2h-25c-2.8,0-4.2-1.4-4.2-4.2v-25c0-2.8,1.4-4.2,4.2-4.2h25
	C98.6,300,100,301.4,100,304.2L100,304.2z M133.3,237.5v25c0,2.8-1.4,4.2-4.2,4.2H70.8c-2.8,0-4.2-1.4-4.2-4.2v-25
	c0-2.8,1.4-4.2,4.2-4.2h58.3C131.9,233.3,133.3,234.7,133.3,237.5L133.3,237.5z M100,170.8v25c0,2.8-1.4,4.2-4.2,4.2h-25
	c-2.8,0-4.2-1.4-4.2-4.2v-25c0-2.8,1.4-4.2,4.2-4.2h25C98.6,166.7,100,168.1,100,170.8L100,170.8z M366.7,304.2v25
	c0,2.8-1.4,4.2-4.2,4.2h-225c-2.8,0-4.2-1.4-4.2-4.2v-25c0-2.8,1.4-4.2,4.2-4.2h225C365.3,300,366.7,301.4,366.7,304.2L366.7,304.2z
	 M200,237.5v25c0,2.8-1.4,4.2-4.2,4.2h-25c-2.8,0-4.2-1.4-4.2-4.2v-25c0-2.8,1.4-4.2,4.2-4.2h25C198.6,233.3,200,234.7,200,237.5
	L200,237.5z M166.7,170.8v25c0,2.8-1.4,4.2-4.2,4.2h-25c-2.8,0-4.2-1.4-4.2-4.2v-25c0-2.8,1.4-4.2,4.2-4.2h25
	C165.3,166.7,166.7,168.1,166.7,170.8L166.7,170.8z M266.7,237.5v25c0,2.8-1.4,4.2-4.2,4.2h-25c-2.8,0-4.2-1.4-4.2-4.2v-25
	c0-2.8,1.4-4.2,4.2-4.2h25C265.3,233.3,266.7,234.7,266.7,237.5L266.7,237.5z M233.3,170.8v25c0,2.8-1.4,4.2-4.2,4.2h-25
	c-2.8,0-4.2-1.4-4.2-4.2v-25c0-2.8,1.4-4.2,4.2-4.2h25C231.9,166.7,233.3,168.1,233.3,170.8L233.3,170.8z M333.3,237.5v25
	c0,2.8-1.4,4.2-4.2,4.2h-25c-2.8,0-4.2-1.4-4.2-4.2v-25c0-2.8,1.4-4.2,4.2-4.2h25C331.9,233.3,333.3,234.7,333.3,237.5L333.3,237.5z
	 M433.3,304.2v25c0,2.8-1.4,4.2-4.2,4.2h-25c-2.8,0-4.2-1.4-4.2-4.2v-25c0-2.8,1.4-4.2,4.2-4.2h25
	C431.9,300,433.3,301.4,433.3,304.2L433.3,304.2z M300,170.8v25c0,2.8-1.4,4.2-4.2,4.2h-25c-2.8,0-4.2-1.4-4.2-4.2v-25
	c0-2.8,1.4-4.2,4.2-4.2h25C298.6,166.7,300,168.1,300,170.8L300,170.8z M366.7,170.8v25c0,2.8-1.4,4.2-4.2,4.2h-25
	c-2.8,0-4.2-1.4-4.2-4.2v-25c0-2.8,1.4-4.2,4.2-4.2h25C365.3,166.7,366.7,168.1,366.7,170.8L366.7,170.8z M433.3,170.8v91.7
	c0,2.8-1.4,4.2-4.2,4.2h-58.3c-2.8,0-4.2-1.4-4.2-4.2v-25c0-2.8,1.4-4.2,4.2-4.2H400v-62.5c0-2.8,1.4-4.2,4.2-4.2h25
	C431.9,166.7,433.3,168.1,433.3,170.8L433.3,170.8z M466.7,366.7V133.3H33.3v233.3H466.7L466.7,366.7z M500,133.3v233.3
	c0,9.2-3.3,17.1-9.8,23.6s-14.4,9.8-23.6,9.8H33.3c-9.2,0-17.1-3.3-23.6-9.8S0,375.9,0,366.7V133.3c0-9.2,3.3-17.1,9.8-23.6
	s14.4-9.8,23.6-9.8h433.3c9.2,0,17.1,3.3,23.6,9.8S500,124.1,500,133.3L500,133.3z"/>
</svg>
