<?xml version="1.0" encoding="utf-8"?>
<!-- Generator: Adobe Illustrator 18.0.0, SVG Export Plug-In . SVG Version: 6.00 Build 0)  -->
<!DOCTYPE svg PUBLIC "-//W3C//DTD SVG 1.1//EN" "http://www.w3.org/Graphics/SVG/1.1/DTD/svg11.dtd">
<svg version="1.1" id="图层_1" xmlns="http://www.w3.org/2000/svg" xmlns:xlink="http://www.w3.org/1999/xlink" x="0px" y="0px"
	 viewBox="0 0 500 500" enable-background="new 0 0 500 500" xml:space="preserve">
<path fill="#999999" d="M131.5,319l49.5,49.5l-16.9,16.9h-18.2v-31.3h-31.3v-18.2L131.5,319z M266.3,192.1c3,2.8,2.7,6.1-1,9.8
	l-94.7,94.7c-3.7,3.7-6.9,4-9.8,1c-3-2.8-2.7-6.1,1-9.8l94.7-94.7C260.2,189.3,263.5,189,266.3,192.1L266.3,192.1z M177.1,416.7
	l177.1-177.1l-93.8-93.8L83.3,322.9v93.8H177.1L177.1,416.7z M375,218.8l29.9-29.9c6.1-6.1,9.1-13.5,9.1-22.1c0-8.7-3-16.1-9.1-22.1
	l-49.5-49.5c-6.1-6.1-13.5-9.1-22.1-9.1s-16.1,3-22.1,9.1L281.3,125L375,218.8z M500,93.8v312.5c0,25.8-9.2,47.9-27.5,66.2
	c-18.3,18.3-40.4,27.5-66.2,27.5H93.8c-25.8,0-47.9-9.2-66.2-27.5C9.2,454.2,0,432.1,0,406.3V93.8c0-25.8,9.2-47.9,27.5-66.2
	S67.9,0,93.8,0h312.5c25.8,0,47.9,9.2,66.2,27.5C490.8,45.8,500,67.9,500,93.8L500,93.8z"/>
</svg>
