<?xml version="1.0" encoding="utf-8"?>
<!-- Generator: Adobe Illustrator 18.0.0, SVG Export Plug-In . SVG Version: 6.00 Build 0)  -->
<!DOCTYPE svg PUBLIC "-//W3C//DTD SVG 1.1//EN" "http://www.w3.org/Graphics/SVG/1.1/DTD/svg11.dtd">
<svg version="1.1" id="图层_1" xmlns="http://www.w3.org/2000/svg" xmlns:xlink="http://www.w3.org/1999/xlink" x="0px" y="0px"
	 viewBox="0 0 500 500" enable-background="new 0 0 500 500" xml:space="preserve">
<path fill="#999999" d="M119.8,457.8l30-30l-77.6-77.6l-30,30v35.3h42.2v42.2H119.8L119.8,457.8z M292.4,151.5
	c0-4.8-2.4-7.3-7.3-7.3c-2.2,0-4.1,0.8-5.6,2.3L100.7,325.4c-1.5,1.5-2.3,3.4-2.3,5.6c0,4.8,2.4,7.3,7.3,7.3c2.2,0,4.1-0.8,5.6-2.3
	l178.9-178.9C291.6,155.6,292.4,153.7,292.4,151.5L292.4,151.5z M274.6,88.1l137.3,137.3L137.3,500H0V362.7L274.6,88.1z M500,119.8
	c0,11.7-4.1,21.6-12.2,29.7L433,204.3L295.7,67l54.8-54.5C358.4,4.2,368.3,0,380.2,0c11.7,0,21.7,4.2,30,12.5l77.6,77.2
	C495.9,98.3,500,108.4,500,119.8L500,119.8z"/>
</svg>
