<?xml version="1.0" encoding="utf-8"?>
<!-- Generator: Adobe Illustrator 18.0.0, SVG Export Plug-In . SVG Version: 6.00 Build 0)  -->
<!DOCTYPE svg PUBLIC "-//W3C//DTD SVG 1.1//EN" "http://www.w3.org/Graphics/SVG/1.1/DTD/svg11.dtd">
<svg version="1.1" id="图层_1" xmlns="http://www.w3.org/2000/svg" xmlns:xlink="http://www.w3.org/1999/xlink" x="0px" y="0px"
	 viewBox="0 0 500 500" enable-background="new 0 0 500 500" xml:space="preserve">
<path fill="#999999" d="M333.3,166.7c0-23-8.1-42.6-24.4-58.9C292.6,91.5,273,83.3,250,83.3s-42.6,8.1-58.9,24.4
	s-24.4,35.9-24.4,58.9c0,23,8.1,42.6,24.4,58.9S227,250,250,250s42.6-8.1,58.9-24.4C325.2,209.3,333.3,189.7,333.3,166.7
	L333.3,166.7z M416.7,166.7c0,23.7-3.6,43.1-10.7,58.3l-118.5,252c-3.5,7.2-8.6,12.8-15.5,16.9c-6.8,4.1-14.2,6.2-22,6.2
	c-7.8,0-15.1-2.1-22-6.2c-6.8-4.1-11.9-9.8-15.1-16.9l-118.8-252c-7.2-15.2-10.7-34.6-10.7-58.3c0-46,16.3-85.3,48.8-117.8
	S204,0,250,0s85.3,16.3,117.8,48.8S416.7,120.7,416.7,166.7L416.7,166.7z"/>
</svg>
