<?xml version="1.0" encoding="utf-8"?>
<!-- Generator: Adobe Illustrator 18.0.0, SVG Export Plug-In . SVG Version: 6.00 Build 0)  -->
<!DOCTYPE svg PUBLIC "-//W3C//DTD SVG 1.1//EN" "http://www.w3.org/Graphics/SVG/1.1/DTD/svg11.dtd">
<svg version="1.1" id="图层_1" xmlns="http://www.w3.org/2000/svg" xmlns:xlink="http://www.w3.org/1999/xlink" x="0px" y="0px"
	 viewBox="0 0 500 500" enable-background="new 0 0 500 500" xml:space="preserve">
<path fill="#999999" d="M192.3,423.1c0,10.4-3.8,19.4-11.4,27c-7.6,7.6-16.6,11.4-27,11.4c-10.4,0-19.4-3.8-27-11.4
	c-7.6-7.6-11.4-16.6-11.4-27c0-10.4,3.8-19.4,11.4-27c7.6-7.6,16.6-11.4,27-11.4c10.4,0,19.4,3.8,27,11.4
	C188.5,403.6,192.3,412.7,192.3,423.1L192.3,423.1z M461.5,423.1c0,10.4-3.8,19.4-11.4,27c-7.6,7.6-16.6,11.4-27,11.4
	s-19.4-3.8-27-11.4c-7.6-7.6-11.4-16.6-11.4-27c0-10.4,3.8-19.4,11.4-27c7.6-7.6,16.6-11.4,27-11.4s19.4,3.8,27,11.4
	C457.7,403.6,461.5,412.7,461.5,423.1L461.5,423.1z M500,96.2V250c0,4.8-1.7,9.1-5,12.8s-7.4,5.9-12.2,6.5l-313.7,36.7
	c2.6,12,3.9,19,3.9,21c0,3.2-2.4,9.6-7.2,19.2h276.4c5.2,0,9.7,1.9,13.5,5.7c3.8,3.8,5.7,8.3,5.7,13.5c0,5.2-1.9,9.7-5.7,13.5
	c-3.8,3.8-8.3,5.7-13.5,5.7H134.6c-5.2,0-9.7-1.9-13.5-5.7c-3.8-3.8-5.7-8.3-5.7-13.5c0-2.2,0.8-5.4,2.4-9.5
	c1.6-4.1,3.2-7.7,4.8-10.8c1.6-3.1,3.8-7.1,6.5-12c2.7-4.9,4.3-7.9,4.7-8.9L80.5,76.9H19.2c-5.2,0-9.7-1.9-13.5-5.7
	C1.9,67.4,0,62.9,0,57.7c0-5.2,1.9-9.7,5.7-13.5c3.8-3.8,8.3-5.7,13.5-5.7h76.9c3.2,0,6.1,0.7,8.6,2c2.5,1.3,4.5,2.9,5.9,4.7
	c1.4,1.8,2.7,4.3,3.9,7.4c1.2,3.1,2,5.7,2.4,7.8c0.4,2.1,1,5.1,1.7,8.9c0.7,3.8,1.2,6.4,1.4,7.8h360.9c5.2,0,9.7,1.9,13.5,5.7
	C498.1,86.4,500,90.9,500,96.2L500,96.2z"/>
</svg>
