<?xml version="1.0" encoding="utf-8"?>
<!-- Generator: Adobe Illustrator 18.0.0, SVG Export Plug-In . SVG Version: 6.00 Build 0)  -->
<!DOCTYPE svg PUBLIC "-//W3C//DTD SVG 1.1//EN" "http://www.w3.org/Graphics/SVG/1.1/DTD/svg11.dtd">
<svg version="1.1" id="图层_1" xmlns="http://www.w3.org/2000/svg" xmlns:xlink="http://www.w3.org/1999/xlink" x="0px" y="0px"
	 viewBox="0 0 500 500" enable-background="new 0 0 500 500" xml:space="preserve">
<path fill="#999999" d="M291.7,406.3v-62.5c0-3-1-5.5-2.9-7.5s-4.4-2.9-7.5-2.9h-62.5c-3,0-5.5,1-7.5,2.9s-2.9,4.4-2.9,7.5v62.5
	c0,3,1,5.5,2.9,7.5s4.4,2.9,7.5,2.9h62.5c3,0,5.5-1,7.5-2.9S291.7,409.3,291.7,406.3L291.7,406.3z M375,187.5
	c0-19.1-6-36.8-18.1-53.1s-27.1-28.9-45.1-37.8c-18-8.9-36.5-13.3-55.3-13.3c-52.7,0-93,23.1-120.8,69.3c-3.3,5.2-2.4,9.8,2.6,13.7
	l43,32.6c1.5,1.3,3.6,2,6.2,2c3.5,0,6.2-1.3,8.1-3.9c11.5-14.8,20.8-24.7,28-29.9c7.4-5.2,16.7-7.8,28-7.8c10.4,0,19.7,2.8,27.8,8.5
	c8.1,5.6,12.2,12,12.2,19.2c0,8.2-2.2,14.9-6.5,19.9c-4.3,5-11.7,9.9-22.1,14.6c-13.7,6.1-26.2,15.5-37.6,28.2
	c-11.4,12.7-17.1,26.3-17.1,40.9v11.7c0,3,1,5.5,2.9,7.5s4.4,2.9,7.5,2.9h62.5c3,0,5.5-1,7.5-2.9s2.9-4.4,2.9-7.5
	c0-4.1,2.3-9.5,7-16.1c4.7-6.6,10.6-12,17.7-16.1c6.9-3.9,12.3-7,16-9.3c3.7-2.3,8.7-6.1,15-11.4c6.3-5.3,11.1-10.5,14.5-15.6
	c3.4-5.1,6.4-11.7,9.1-19.7C373.6,205.8,375,197,375,187.5L375,187.5z M500,250c0,45.4-11.2,87.2-33.5,125.5s-52.7,68.6-91,91
	S295.4,500,250,500s-87.2-11.2-125.5-33.5s-68.6-52.7-91-91S0,295.4,0,250s11.2-87.2,33.5-125.5s52.7-68.6,91-91S204.6,0,250,0
	s87.2,11.2,125.5,33.5s68.6,52.7,91,91S500,204.6,500,250L500,250z"/>
</svg>
