<?xml version="1.0" encoding="utf-8"?>
<!-- Generator: Adobe Illustrator 18.0.0, SVG Export Plug-In . SVG Version: 6.00 Build 0)  -->
<!DOCTYPE svg PUBLIC "-//W3C//DTD SVG 1.1//EN" "http://www.w3.org/Graphics/SVG/1.1/DTD/svg11.dtd">
<svg version="1.1" id="图层_1" xmlns="http://www.w3.org/2000/svg" xmlns:xlink="http://www.w3.org/1999/xlink" x="0px" y="0px"
	 viewBox="0 0 500 500" enable-background="new 0 0 500 500" xml:space="preserve">
<path fill="#999999" d="M307,390.6v93.8c0,4.2-1.6,7.8-4.7,10.9s-6.8,4.7-10.9,4.7h-93.8c-4.2,0-7.8-1.6-10.9-4.7s-4.7-6.8-4.7-10.9
	v-93.8c0-4.2,1.6-7.8,4.7-10.9s6.8-4.7,10.9-4.7h93.8c4.2,0,7.8,1.6,10.9,4.7S307,386.5,307,390.6L307,390.6z M430.5,156.3
	c0,14.1-2,27.2-6.1,39.5c-4,12.2-8.6,22.2-13.7,29.9s-12.2,15.4-21.5,23.2c-9.2,7.8-16.7,13.5-22.5,17c-5.7,3.5-13.7,8.1-23.8,13.9
	c-10.7,6-19.6,14.5-26.8,25.4c-7.2,10.9-10.7,19.7-10.7,26.2c0,4.4-1.6,8.7-4.7,12.7c-3.1,4-6.8,6.1-10.9,6.1h-93.8
	c-3.9,0-7.2-2.4-10-7.2c-2.7-4.8-4.1-9.7-4.1-14.6v-17.6c0-21.6,8.5-42,25.4-61.1s35.5-33.3,55.9-42.4c15.4-7,26.3-14.3,32.8-21.9
	c6.5-7.6,9.8-17.4,9.8-29.7c0-10.9-6.1-20.6-18.2-28.9c-12.1-8.3-26.1-12.5-42-12.5c-16.9,0-31,3.8-42.2,11.3
	c-9.1,6.5-23,21.5-41.8,44.9c-3.4,4.2-7.4,6.3-12.1,6.3c-3.1,0-6.4-1-9.8-3.1l-64.1-48.8c-3.4-2.6-5.4-5.9-6.1-9.8
	c-0.7-3.9,0.1-7.6,2.1-10.9C113.6,34.6,174,0,253.1,0C274,0,294.9,4,316,12.1c21.1,8.1,40.1,18.9,57,32.4
	c16.9,13.5,30.7,30.1,41.4,49.8C425.1,114,430.5,134.6,430.5,156.3L430.5,156.3z"/>
</svg>
