<?xml version="1.0" encoding="utf-8"?>
<!-- Generator: Adobe Illustrator 18.0.0, SVG Export Plug-In . SVG Version: 6.00 Build 0)  -->
<!DOCTYPE svg PUBLIC "-//W3C//DTD SVG 1.1//EN" "http://www.w3.org/Graphics/SVG/1.1/DTD/svg11.dtd">
<svg version="1.1" id="图层_1" xmlns="http://www.w3.org/2000/svg" xmlns:xlink="http://www.w3.org/1999/xlink" x="0px" y="0px"
	 viewBox="0 0 500 500" enable-background="new 0 0 500 500" xml:space="preserve">
<path fill="#999999" d="M145.8,395.8c0,5.6-2.1,10.5-6.2,14.6c-4.1,4.1-9,6.2-14.6,6.2c-5.6,0-10.5-2.1-14.6-6.2
	c-4.1-4.1-6.2-9-6.2-14.6s2.1-10.5,6.2-14.6c4.1-4.1,9-6.2,14.6-6.2c5.6,0,10.5,2.1,14.6,6.2C143.8,385.3,145.8,390.2,145.8,395.8
	L145.8,395.8z M479.2,415.7c0,26.3-7.9,46.9-23.8,61.8c-15.8,15-36.9,22.5-63.2,22.5H107.7c-26.3,0-47.3-7.5-63.2-22.5
	s-23.8-35.6-23.8-61.8c0-14.8,0.6-29,1.8-42.6c1.2-13.7,3.8-28.6,7.8-44.9c4-16.3,9.2-30.7,15.5-43.1c6.3-12.5,15.1-23.7,26.4-33.5
	c11.3-9.9,24.3-16.4,39.1-19.7c-4.8,11.3-7.2,24.3-7.2,39.1v66.1c-12.6,4.3-22.7,11.9-30.3,22.8c-7.6,10.9-11.4,22.9-11.4,36.1
	c0,17.4,6.1,32.1,18.2,44.3c12.2,12.2,26.9,18.2,44.3,18.2c17.4,0,32.1-6.1,44.3-18.2c12.2-12.2,18.2-26.9,18.2-44.3
	c0-13.2-3.9-25.3-11.6-36.1c-7.7-10.9-17.7-18.4-30.1-22.8v-66.1c0-13.5,2.7-23.5,8.1-30.3c28.6,22.6,60.7,33.9,96,33.9
	s67.4-11.3,96-33.9c5.4,6.7,8.1,16.8,8.1,30.3v20.8c-23,0-42.6,8.1-58.9,24.4C279,332.4,270.8,352,270.8,375v29
	c-6.9,6.3-10.4,14-10.4,23.1c0,8.7,3,16.1,9.1,22.1c6.1,6.1,13.5,9.1,22.1,9.1s16.1-3,22.1-9.1c6.1-6.1,9.1-13.5,9.1-22.1
	c0-9.1-3.5-16.8-10.4-23.1v-29c0-11.3,4.1-21.1,12.4-29.3c8.2-8.2,18-12.4,29.3-12.4s21.1,4.1,29.3,12.4c8.2,8.2,12.4,18,12.4,29.3
	v29c-6.9,6.3-10.4,14-10.4,23.1c0,8.7,3,16.1,9.1,22.1c6.1,6.1,13.5,9.1,22.1,9.1c8.7,0,16.1-3,22.1-9.1c6.1-6.1,9.1-13.5,9.1-22.1
	c0-9.1-3.5-16.8-10.4-23.1v-29c0-14.8-3.7-28.6-11.2-41.5c-7.5-12.9-17.6-23.1-30.4-30.4c0-2.2,0.1-6.8,0.2-13.8
	c0.1-7.1,0.1-12.3,0-15.6c-0.1-3.4-0.4-7.9-0.8-13.5c-0.4-5.6-1.2-10.7-2.3-15.3c-1.1-4.6-2.5-8.9-4.2-13
	c14.8,3.3,27.8,9.8,39.1,19.7c11.3,9.9,20.1,21.1,26.4,33.5c6.3,12.5,11.4,26.9,15.5,43.1c4,16.3,6.6,31.2,7.8,44.9
	C478.6,386.7,479.2,400.9,479.2,415.7L479.2,415.7z M375,125c0,34.5-12.2,64-36.6,88.4C314,237.8,284.5,250,250,250
	s-64-12.2-88.4-36.6S125,159.5,125,125s12.2-64,36.6-88.4S215.5,0,250,0s64,12.2,88.4,36.6C362.8,61,375,90.5,375,125L375,125z"/>
</svg>
