<?xml version="1.0" encoding="utf-8"?>
<!-- Generator: Adobe Illustrator 18.0.0, SVG Export Plug-In . SVG Version: 6.00 Build 0)  -->
<!DOCTYPE svg PUBLIC "-//W3C//DTD SVG 1.1//EN" "http://www.w3.org/Graphics/SVG/1.1/DTD/svg11.dtd">
<svg version="1.1" id="图层_1" xmlns="http://www.w3.org/2000/svg" xmlns:xlink="http://www.w3.org/1999/xlink" x="0px" y="0px"
	 viewBox="0 0 500 500" enable-background="new 0 0 500 500" xml:space="preserve">
<path fill="#999999" d="M333.3,406.3v-52.1c0-3-1-5.5-2.9-7.5s-4.4-2.9-7.5-2.9h-31.3V177.1c0-3-1-5.5-2.9-7.5s-4.4-2.9-7.5-2.9
	H177.1c-3,0-5.5,1-7.5,2.9s-2.9,4.4-2.9,7.5v52.1c0,3,1,5.5,2.9,7.5s4.4,2.9,7.5,2.9h31.3v104.2h-31.3c-3,0-5.5,1-7.5,2.9
	s-2.9,4.4-2.9,7.5v52.1c0,3,1,5.5,2.9,7.5s4.4,2.9,7.5,2.9h145.8c3,0,5.5-1,7.5-2.9S333.3,409.3,333.3,406.3L333.3,406.3z
	 M291.7,114.6V62.5c0-3-1-5.5-2.9-7.5s-4.4-2.9-7.5-2.9h-62.5c-3,0-5.5,1-7.5,2.9s-2.9,4.4-2.9,7.5v52.1c0,3,1,5.5,2.9,7.5
	s4.4,2.9,7.5,2.9h62.5c3,0,5.5-1,7.5-2.9S291.7,117.6,291.7,114.6L291.7,114.6z M500,250c0,45.4-11.2,87.2-33.5,125.5
	s-52.7,68.6-91,91S295.4,500,250,500s-87.2-11.2-125.5-33.5s-68.6-52.7-91-91S0,295.4,0,250s11.2-87.2,33.5-125.5s52.7-68.6,91-91
	S204.6,0,250,0s87.2,11.2,125.5,33.5s68.6,52.7,91,91S500,204.6,500,250L500,250z"/>
</svg>
