<?xml version="1.0" encoding="utf-8"?>
<!-- Generator: Adobe Illustrator 18.0.0, SVG Export Plug-In . SVG Version: 6.00 Build 0)  -->
<!DOCTYPE svg PUBLIC "-//W3C//DTD SVG 1.1//EN" "http://www.w3.org/Graphics/SVG/1.1/DTD/svg11.dtd">
<svg version="1.1" id="图层_1" xmlns="http://www.w3.org/2000/svg" xmlns:xlink="http://www.w3.org/1999/xlink" x="0px" y="0px"
	 viewBox="0 0 500 500" enable-background="new 0 0 500 500" xml:space="preserve">
<path fill="#999999" d="M363.6,431.8v45.5c0,6.2-2.2,11.5-6.7,16c-4.5,4.5-9.8,6.7-16,6.7H159.1c-6.2,0-11.5-2.2-16-6.7
	c-4.5-4.5-6.7-9.8-6.7-16v-45.5c0-6.2,2.2-11.5,6.7-16c4.5-4.5,9.8-6.7,16-6.7h22.7V272.7h-22.7c-6.2,0-11.5-2.2-16-6.7
	c-4.5-4.5-6.7-9.8-6.7-16v-45.5c0-6.2,2.2-11.5,6.7-16c4.5-4.5,9.8-6.7,16-6.7h136.4c6.2,0,11.5,2.2,16,6.7c4.5,4.5,6.7,9.8,6.7,16
	v204.5h22.7c6.2,0,11.5,2.2,16,6.7C361.4,420.3,363.6,425.7,363.6,431.8L363.6,431.8z M318.2,22.7v68.2c0,6.2-2.2,11.5-6.7,16
	c-4.5,4.5-9.8,6.7-16,6.7h-90.9c-6.2,0-11.5-2.2-16-6.7c-4.5-4.5-6.7-9.8-6.7-16V22.7c0-6.2,2.2-11.5,6.7-16c4.5-4.5,9.8-6.7,16-6.7
	h90.9c6.2,0,11.5,2.2,16,6.7C315.9,11.2,318.2,16.6,318.2,22.7L318.2,22.7z"/>
</svg>
