<?xml version="1.0" encoding="utf-8"?>
<!-- Generator: Adobe Illustrator 18.0.0, SVG Export Plug-In . SVG Version: 6.00 Build 0)  -->
<!DOCTYPE svg PUBLIC "-//W3C//DTD SVG 1.1//EN" "http://www.w3.org/Graphics/SVG/1.1/DTD/svg11.dtd">
<svg version="1.1" id="图层_1" xmlns="http://www.w3.org/2000/svg" xmlns:xlink="http://www.w3.org/1999/xlink" x="0px" y="0px"
	 viewBox="0 0 500 500" enable-background="new 0 0 500 500" xml:space="preserve">
<path fill="#999999" d="M285.7,401.3v-53c0-2.6-0.9-4.8-2.6-6.5c-1.8-1.8-3.9-2.6-6.3-2.6h-53.5c-2.4,0-4.5,0.9-6.3,2.6
	c-1.8,1.8-2.6,3.9-2.6,6.5v53c0,2.6,0.9,4.8,2.6,6.5c1.8,1.8,3.9,2.6,6.3,2.6h53.5c2.4,0,4.5-0.9,6.3-2.6
	C284.8,406.1,285.7,403.9,285.7,401.3L285.7,401.3z M285.1,297.1l5-127.9c0-2.2-0.9-4-2.8-5.3c-2.4-2-4.6-3.1-6.7-3.1h-61.3
	c-2,0-4.3,1-6.7,3.1c-1.9,1.3-2.8,3.3-2.8,5.9l4.7,127.4c0,1.9,0.9,3.4,2.8,4.6c1.9,1.2,4.1,1.8,6.7,1.8h51.6c2.6,0,4.8-0.6,6.5-1.8
	C284,300.5,284.9,299,285.1,297.1L285.1,297.1z M281.2,36.8l214,392.4c6.5,11.7,6.3,23.4-0.6,35.1c-3.2,5.4-7.5,9.7-13,12.8
	c-5.5,3.2-11.4,4.7-17.7,4.7H36c-6.3,0-12.2-1.6-17.7-4.7c-5.5-3.2-9.8-7.4-13-12.8c-6.9-11.7-7.1-23.4-0.6-35.1l214-392.4
	c3.2-5.8,7.5-10.3,13.1-13.7c5.6-3.3,11.6-5,18.1-5s12.5,1.7,18.1,5C273.7,26.5,278.1,31,281.2,36.8L281.2,36.8z"/>
</svg>
