<?xml version="1.0" encoding="utf-8"?>
<!-- Generator: Adobe Illustrator 18.0.0, SVG Export Plug-In . SVG Version: 6.00 Build 0)  -->
<!DOCTYPE svg PUBLIC "-//W3C//DTD SVG 1.1//EN" "http://www.w3.org/Graphics/SVG/1.1/DTD/svg11.dtd">
<svg version="1.1" id="图层_1" xmlns="http://www.w3.org/2000/svg" xmlns:xlink="http://www.w3.org/1999/xlink" x="0px" y="0px"
	 viewBox="0 0 500 500" enable-background="new 0 0 500 500" xml:space="preserve">
<path fill="#999999" d="M250,0c45.4,0,87.2,11.2,125.5,33.5s68.6,52.7,91,91S500,204.6,500,250s-11.2,87.2-33.5,125.5
	s-52.7,68.6-91,91S295.4,500,250,500s-87.2-11.2-125.5-33.5s-68.6-52.7-91-91S0,295.4,0,250s11.2-87.2,33.5-125.5s52.7-68.6,91-91
	S204.6,0,250,0L250,0z M291.7,405.9v-61.8c0-3-1-5.6-2.9-7.6s-4.3-3.1-7.2-3.1h-62.5c-2.8,0-5.3,1.1-7.5,3.3
	c-2.2,2.2-3.3,4.7-3.3,7.5v61.8c0,2.8,1.1,5.3,3.3,7.5c2.2,2.2,4.7,3.3,7.5,3.3h62.5c2.8,0,5.2-1,7.2-3.1S291.7,409,291.7,405.9
	L291.7,405.9z M291,293.9l5.9-202.1c0-2.6-1.1-4.6-3.3-5.9c-2.2-1.7-4.8-2.6-7.8-2.6h-71.6c-3,0-5.6,0.9-7.8,2.6
	c-2.2,1.3-3.3,3.3-3.3,5.9l5.5,202.1c0,2.2,1.1,4.1,3.3,5.7c2.2,1.6,4.8,2.4,7.8,2.4h60.2c3,0,5.6-0.8,7.6-2.4
	C289.7,298,290.8,296.1,291,293.9L291,293.9z"/>
</svg>
