<?xml version="1.0" encoding="utf-8"?>
<!-- Generator: Adobe Illustrator 18.0.0, SVG Export Plug-In . SVG Version: 6.00 Build 0)  -->
<!DOCTYPE svg PUBLIC "-//W3C//DTD SVG 1.1//EN" "http://www.w3.org/Graphics/SVG/1.1/DTD/svg11.dtd">
<svg version="1.1" id="图层_1" xmlns="http://www.w3.org/2000/svg" xmlns:xlink="http://www.w3.org/1999/xlink" x="0px" y="0px"
	 viewBox="0 0 500 500" enable-background="new 0 0 500 500" xml:space="preserve">
<path fill="#999999" d="M395.8,270.8v-41.7c0-5.6-2.1-10.5-6.2-14.6c-4.1-4.1-9-6.2-14.6-6.2h-83.3V125c0-5.6-2.1-10.5-6.2-14.6
	c-4.1-4.1-9-6.2-14.6-6.2h-41.7c-5.6,0-10.5,2.1-14.6,6.2c-4.1,4.1-6.2,9-6.2,14.6v83.3H125c-5.6,0-10.5,2.1-14.6,6.2
	c-4.1,4.1-6.2,9-6.2,14.6v41.7c0,5.6,2.1,10.5,6.2,14.6c4.1,4.1,9,6.2,14.6,6.2h83.3V375c0,5.6,2.1,10.5,6.2,14.6
	c4.1,4.1,9,6.2,14.6,6.2h41.7c5.6,0,10.5-2.1,14.6-6.2c4.1-4.1,6.2-9,6.2-14.6v-83.3H375c5.6,0,10.5-2.1,14.6-6.2
	C393.8,281.4,395.8,276.5,395.8,270.8L395.8,270.8z M500,250c0,45.4-11.2,87.2-33.5,125.5s-52.7,68.6-91,91S295.4,500,250,500
	s-87.2-11.2-125.5-33.5s-68.6-52.7-91-91S0,295.4,0,250s11.2-87.2,33.5-125.5s52.7-68.6,91-91S204.6,0,250,0s87.2,11.2,125.5,33.5
	s68.6,52.7,91,91S500,204.6,500,250L500,250z"/>
</svg>
