<?xml version="1.0" encoding="utf-8"?>
<!-- Generator: Adobe Illustrator 18.0.0, SVG Export Plug-In . SVG Version: 6.00 Build 0)  -->
<!DOCTYPE svg PUBLIC "-//W3C//DTD SVG 1.1//EN" "http://www.w3.org/Graphics/SVG/1.1/DTD/svg11.dtd">
<svg version="1.1" id="图层_1" xmlns="http://www.w3.org/2000/svg" xmlns:xlink="http://www.w3.org/1999/xlink" x="0px" y="0px"
	 viewBox="0 0 500 500" enable-background="new 0 0 500 500" xml:space="preserve">
<path fill="#999999" d="M418,197.3c0-6.1-2-11.1-5.9-15L382.5,153c-4.1-4.1-9-6.2-14.6-6.2c-5.6,0-10.5,2.1-14.6,6.2L220.4,285.5
	l-73.6-73.6c-4.1-4.1-9-6.2-14.6-6.2c-5.6,0-10.5,2.1-14.6,6.2l-29.6,29.3c-3.9,3.9-5.9,8.9-5.9,15c0,5.9,2,10.7,5.9,14.6
	l117.8,117.8c4.1,4.1,9,6.2,14.6,6.2c5.9,0,10.9-2.1,15-6.2l176.8-176.8C416,208,418,203.1,418,197.3L418,197.3z M500,250
	c0,45.4-11.2,87.2-33.5,125.5s-52.7,68.6-91,91S295.4,500,250,500s-87.2-11.2-125.5-33.5s-68.6-52.7-91-91S0,295.4,0,250
	s11.2-87.2,33.5-125.5s52.7-68.6,91-91S204.6,0,250,0s87.2,11.2,125.5,33.5s68.6,52.7,91,91S500,204.6,500,250L500,250z"/>
</svg>
