<?xml version="1.0" encoding="utf-8"?>
<!-- Generator: Adobe Illustrator 18.0.0, SVG Export Plug-In . SVG Version: 6.00 Build 0)  -->
<!DOCTYPE svg PUBLIC "-//W3C//DTD SVG 1.1//EN" "http://www.w3.org/Graphics/SVG/1.1/DTD/svg11.dtd">
<svg version="1.1" id="图层_1" xmlns="http://www.w3.org/2000/svg" xmlns:xlink="http://www.w3.org/1999/xlink" x="0px" y="0px"
	 viewBox="0 0 500 500" enable-background="new 0 0 500 500" xml:space="preserve">
<path fill="#999999" d="M381.2,223L243.8,360.4c-4.1,4.1-9,6.2-14.6,6.2c-5.6,0-10.5-2.1-14.6-6.2l-95.7-95.7
	c-4.1-4.1-6.2-9-6.2-14.6s2.1-10.5,6.2-14.6l33.2-33.2c4.1-4.1,9-6.2,14.6-6.2c5.6,0,10.5,2.1,14.6,6.2l47.9,47.9l89.5-89.5
	c4.1-4.1,9-6.2,14.6-6.2c5.6,0,10.5,2.1,14.6,6.2l33.2,33.2c4.1,4.1,6.2,9,6.2,14.6C387.4,214,385.3,218.9,381.2,223L381.2,223z
	 M427.1,250c0-32.1-7.9-61.7-23.8-88.9s-37.3-48.6-64.5-64.5S282.1,72.9,250,72.9s-61.7,7.9-88.9,23.8s-48.6,37.3-64.5,64.5
	S72.9,217.9,72.9,250s7.9,61.7,23.8,88.9s37.3,48.6,64.5,64.5s56.7,23.8,88.9,23.8s61.7-7.9,88.9-23.8s48.6-37.3,64.5-64.5
	S427.1,282.1,427.1,250L427.1,250z M500,250c0,45.4-11.2,87.2-33.5,125.5s-52.7,68.6-91,91S295.4,500,250,500s-87.2-11.2-125.5-33.5
	s-68.6-52.7-91-91S0,295.4,0,250s11.2-87.2,33.5-125.5s52.7-68.6,91-91S204.6,0,250,0s87.2,11.2,125.5,33.5s68.6,52.7,91,91
	S500,204.6,500,250L500,250z"/>
</svg>
