<?xml version="1.0" encoding="utf-8"?>
<!-- Generator: Adobe Illustrator 18.0.0, SVG Export Plug-In . SVG Version: 6.00 Build 0)  -->
<!DOCTYPE svg PUBLIC "-//W3C//DTD SVG 1.1//EN" "http://www.w3.org/Graphics/SVG/1.1/DTD/svg11.dtd">
<svg version="1.1" id="图层_1" xmlns="http://www.w3.org/2000/svg" xmlns:xlink="http://www.w3.org/1999/xlink" x="0px" y="0px"
	 viewBox="0 0 500 500" enable-background="new 0 0 500 500" xml:space="preserve">
<path fill="#999999" d="M374,323.6c0-5.6-2.1-10.5-6.2-14.6L308.9,250l58.9-58.9c4.1-4.1,6.2-9,6.2-14.6c0-5.9-2.1-10.9-6.2-15
	l-29.3-29.3c-4.1-4.1-9.1-6.2-15-6.2c-5.6,0-10.5,2.1-14.6,6.2L250,191.1l-58.9-58.9c-4.1-4.1-9-6.2-14.6-6.2
	c-5.9,0-10.9,2.1-15,6.2l-29.3,29.3c-4.1,4.1-6.2,9.1-6.2,15c0,5.6,2.1,10.5,6.2,14.6l58.9,58.9l-58.9,58.9c-4.1,4.1-6.2,9-6.2,14.6
	c0,5.9,2.1,10.9,6.2,15l29.3,29.3c4.1,4.1,9.1,6.2,15,6.2c5.6,0,10.5-2.1,14.6-6.2l58.9-58.9l58.9,58.9c4.1,4.1,9,6.2,14.6,6.2
	c5.9,0,10.9-2.1,15-6.2l29.3-29.3C372,334.4,374,329.4,374,323.6L374,323.6z M500,250c0,45.4-11.2,87.2-33.5,125.5s-52.7,68.6-91,91
	S295.4,500,250,500s-87.2-11.2-125.5-33.5s-68.6-52.7-91-91S0,295.4,0,250s11.2-87.2,33.5-125.5s52.7-68.6,91-91S204.6,0,250,0
	s87.2,11.2,125.5,33.5s68.6,52.7,91,91S500,204.6,500,250L500,250z"/>
</svg>
