<?xml version="1.0" encoding="utf-8"?>
<!-- Generator: Adobe Illustrator 18.0.0, SVG Export Plug-In . SVG Version: 6.00 Build 0)  -->
<!DOCTYPE svg PUBLIC "-//W3C//DTD SVG 1.1//EN" "http://www.w3.org/Graphics/SVG/1.1/DTD/svg11.dtd">
<svg version="1.1" id="图层_1" xmlns="http://www.w3.org/2000/svg" xmlns:xlink="http://www.w3.org/1999/xlink" x="0px" y="0px"
	 viewBox="0 0 500 500" enable-background="new 0 0 500 500" xml:space="preserve">
<path fill="#999999" d="M437.5,187.5c0-5.6-2.1-10.5-6.2-14.6c-4.1-4.1-9-6.2-14.6-6.2c-5.6,0-10.5,2.1-14.6,6.2
	c-4.1,4.1-6.2,9-6.2,14.6c0,5.6,2.1,10.5,6.2,14.6c4.1,4.1,9,6.2,14.6,6.2c5.6,0,10.5-2.1,14.6-6.2
	C435.4,198,437.5,193.1,437.5,187.5L437.5,187.5z M479.2,187.5c0,13.5-3.9,25.5-11.6,36.1c-7.7,10.6-17.7,18.2-30.1,22.8V375
	c0,34.5-14.3,64-42.8,88.4s-62.9,36.6-103,36.6s-74.5-12.2-103-36.6s-42.8-53.9-42.8-88.4v-43c-35.6-4.3-65.3-18.2-89.2-41.7
	c-23.9-23.4-35.8-50.8-35.8-82V41.7c0-5.6,2.1-10.5,6.2-14.6s9-6.2,14.6-6.2c1.3,0,3,0.2,5.2,0.7C50.6,15,55.7,9.8,62.2,5.9
	C68.7,2,75.7,0,83.3,0c11.5,0,21.3,4.1,29.5,12.2s12.2,18,12.2,29.5s-4.1,21.3-12.2,29.5s-18,12.2-29.5,12.2c-7.2,0-14.1-2-20.8-5.9
	v130.9c0,23,10.2,42.6,30.6,58.9c20.4,16.3,44.9,24.4,73.6,24.4s53.2-8.1,73.6-24.4c20.4-16.3,30.6-35.9,30.6-58.9V77.5
	c-6.7,3.9-13.7,5.9-20.8,5.9c-11.5,0-21.3-4.1-29.5-12.2c-8.1-8.1-12.2-18-12.2-29.5s4.1-21.3,12.2-29.5C228.7,4.1,238.5,0,250,0
	c7.6,0,14.6,2,21.2,5.9c6.5,3.9,11.6,9.1,15.3,15.6c2.2-0.4,3.9-0.7,5.2-0.7c5.6,0,10.5,2.1,14.6,6.2c4.1,4.1,6.2,9,6.2,14.6v166.7
	c0,31.2-11.9,58.6-35.8,82c-23.9,23.4-53.6,37.3-89.2,41.7v43c0,23,10.2,42.6,30.6,58.9c20.4,16.3,44.9,24.4,73.6,24.4
	s53.2-8.1,73.6-24.4c20.4-16.3,30.6-35.9,30.6-58.9V246.4c-12.4-4.6-22.4-12.2-30.1-22.8c-7.7-10.6-11.6-22.7-11.6-36.1
	c0-17.4,6.1-32.1,18.2-44.3c12.2-12.2,26.9-18.2,44.3-18.2c17.4,0,32.1,6.1,44.3,18.2C473.1,155.4,479.2,170.1,479.2,187.5
	L479.2,187.5z"/>
</svg>
