<?xml version="1.0" encoding="utf-8"?>
<!-- Generator: Adobe Illustrator 18.0.0, SVG Export Plug-In . SVG Version: 6.00 Build 0)  -->
<!DOCTYPE svg PUBLIC "-//W3C//DTD SVG 1.1//EN" "http://www.w3.org/Graphics/SVG/1.1/DTD/svg11.dtd">
<svg version="1.1" id="图层_1" xmlns="http://www.w3.org/2000/svg" xmlns:xlink="http://www.w3.org/1999/xlink" x="0px" y="0px"
	 viewBox="0 0 500 500" enable-background="new 0 0 500 500" xml:space="preserve">
<path fill="#999999" d="M500,133.2c0,8.6-3,15.9-9,21.9L257.4,388.7l-43.9,43.9c-6,6-13.3,9-21.9,9c-8.6,0-15.9-3-21.9-9l-43.9-43.9
	L9,271.9c-6-6-9-13.3-9-21.9c0-8.6,3-15.9,9-21.9l43.9-43.9c6-6,13.3-9,21.9-9s15.9,3,21.9,9l94.8,95.2L403.2,67.4
	c6-6,13.3-9,21.9-9c8.6,0,15.9,3,21.9,9l43.9,43.9C497,117.3,500,124.6,500,133.2L500,133.2z"/>
</svg>
