<?xml version="1.0" encoding="utf-8"?>
<!-- Generator: Adobe Illustrator 18.0.0, SVG Export Plug-In . SVG Version: 6.00 Build 0)  -->
<!DOCTYPE svg PUBLIC "-//W3C//DTD SVG 1.1//EN" "http://www.w3.org/Graphics/SVG/1.1/DTD/svg11.dtd">
<svg version="1.1" id="图层_1" xmlns="http://www.w3.org/2000/svg" xmlns:xlink="http://www.w3.org/1999/xlink" x="0px" y="0px"
	 viewBox="0 0 500 500" enable-background="new 0 0 500 500" xml:space="preserve">
<path fill="#999999" d="M500,402.4c0,11.2-3.9,20.8-11.8,28.6L431,488.2c-7.9,7.9-17.4,11.8-28.6,11.8c-11.2,0-20.8-3.9-28.6-11.8
	L250,364.5L126.3,488.2c-7.9,7.9-17.4,11.8-28.6,11.8c-11.2,0-20.8-3.9-28.6-11.8L11.8,431C3.9,423.1,0,413.6,0,402.4
	c0-11.2,3.9-20.8,11.8-28.6L135.5,250L11.8,126.3C3.9,118.4,0,108.9,0,97.6C0,86.4,3.9,76.9,11.8,69L69,11.8C76.9,3.9,86.4,0,97.6,0
	c11.2,0,20.8,3.9,28.6,11.8L250,135.5L373.7,11.8C381.6,3.9,391.1,0,402.4,0c11.2,0,20.8,3.9,28.6,11.8L488.2,69
	c7.9,7.9,11.8,17.4,11.8,28.6c0,11.2-3.9,20.8-11.8,28.6L364.5,250l123.7,123.7C496.1,381.6,500,391.1,500,402.4L500,402.4z"/>
</svg>
