<?xml version="1.0" encoding="utf-8"?>
<!-- Generator: Adobe Illustrator 18.0.0, SVG Export Plug-In . SVG Version: 6.00 Build 0)  -->
<!DOCTYPE svg PUBLIC "-//W3C//DTD SVG 1.1//EN" "http://www.w3.org/Graphics/SVG/1.1/DTD/svg11.dtd">
<svg version="1.1" id="图层_1" xmlns="http://www.w3.org/2000/svg" xmlns:xlink="http://www.w3.org/1999/xlink" x="0px" y="0px"
	 viewBox="0 0 500 500" enable-background="new 0 0 500 500" xml:space="preserve">
<path fill="#999999" d="M500,215.9v68.2c0,9.5-3.3,17.5-9.9,24.1c-6.6,6.6-14.7,9.9-24.1,9.9H318.2v147.7c0,9.5-3.3,17.5-9.9,24.1
	c-6.6,6.6-14.7,9.9-24.1,9.9h-68.2c-9.5,0-17.5-3.3-24.1-9.9c-6.6-6.6-9.9-14.7-9.9-24.1V318.2H34.1c-9.5,0-17.5-3.3-24.1-9.9
	C3.3,301.6,0,293.6,0,284.1v-68.2c0-9.5,3.3-17.5,9.9-24.1s14.7-9.9,24.1-9.9h147.7V34.1c0-9.5,3.3-17.5,9.9-24.1S206.4,0,215.9,0
	h68.2c9.5,0,17.5,3.3,24.1,9.9c6.6,6.6,9.9,14.7,9.9,24.1v147.7h147.7c9.5,0,17.5,3.3,24.1,9.9C496.7,198.4,500,206.4,500,215.9
	L500,215.9z"/>
</svg>
