<?xml version="1.0" encoding="utf-8"?>
<!-- Generator: Adobe Illustrator 18.0.0, SVG Export Plug-In . SVG Version: 6.00 Build 0)  -->
<!DOCTYPE svg PUBLIC "-//W3C//DTD SVG 1.1//EN" "http://www.w3.org/Graphics/SVG/1.1/DTD/svg11.dtd">
<svg version="1.1" id="图层_1" xmlns="http://www.w3.org/2000/svg" xmlns:xlink="http://www.w3.org/1999/xlink" x="0px" y="0px"
	 viewBox="0 0 500 500" enable-background="new 0 0 500 500" xml:space="preserve">
<path fill="#999999" d="M492.2,3.1c6.1,4.5,8.6,10.4,7.5,17.9l-71.4,428.6c-0.9,5.4-3.9,9.6-8.9,12.6c-2.6,1.5-5.5,2.2-8.6,2.2
	c-2,0-4.3-0.5-6.7-1.4l-126.4-51.6l-67.5,82.3c-3.3,4.3-7.9,6.4-13.7,6.4c-2.4,0-4.5-0.4-6.1-1.1c-3.5-1.3-6.4-3.5-8.5-6.6
	c-2.1-3.1-3.2-6.5-3.2-10.2v-97.4L419.7,89.3L121.4,347.4L11.2,302.2c-6.9-2.6-10.6-7.7-11.2-15.3c-0.4-7.4,2.6-12.9,8.9-16.5
	L473.2,2.5C476,0.8,479,0,482.2,0C485.9,0,489.2,1,492.2,3.1L492.2,3.1z"/>
</svg>
