<?xml version="1.0" encoding="utf-8"?>
<!-- Generator: Adobe Illustrator 18.0.0, SVG Export Plug-In . SVG Version: 6.00 Build 0)  -->
<!DOCTYPE svg PUBLIC "-//W3C//DTD SVG 1.1//EN" "http://www.w3.org/Graphics/SVG/1.1/DTD/svg11.dtd">
<svg version="1.1" id="图层_1" xmlns="http://www.w3.org/2000/svg" xmlns:xlink="http://www.w3.org/1999/xlink" x="0px" y="0px"
	 viewBox="0 0 500 500" enable-background="new 0 0 500 500" xml:space="preserve">
<path fill="#999999" d="M492.2,3.2c6.1,4.5,8.6,10.4,7.5,17.9l-71.4,428.5c-0.9,5.4-3.9,9.6-8.9,12.6c-2.6,1.5-5.5,2.2-8.6,2.2
	c-2,0-4.3-0.5-6.7-1.4l-147-60l-83.1,91.2c-3.3,3.9-7.7,5.9-13.1,5.9c-2.6,0-4.7-0.4-6.4-1.1c-3.5-1.3-6.3-3.5-8.4-6.6
	c-2-3.1-3.1-6.5-3.1-10.2V356.2L11.2,302.3c-6.9-2.6-10.6-7.7-11.2-15.3c-0.6-7.3,2.4-12.7,8.9-16.5L473.2,2.7
	C479.7-1.2,486.1-1,492.2,3.2L492.2,3.2z M396.8,421.4l61.7-369.1L58.4,283.1l93.7,38.2L392.9,143L259.5,365.4L396.8,421.4z"/>
</svg>
