<?xml version="1.0" encoding="utf-8"?>
<!-- Generator: Adobe Illustrator 18.0.0, SVG Export Plug-In . SVG Version: 6.00 Build 0)  -->
<!DOCTYPE svg PUBLIC "-//W3C//DTD SVG 1.1//EN" "http://www.w3.org/Graphics/SVG/1.1/DTD/svg11.dtd">
<svg version="1.1" id="图层_1" xmlns="http://www.w3.org/2000/svg" xmlns:xlink="http://www.w3.org/1999/xlink" x="0px" y="0px"
	 viewBox="0 0 500 500" enable-background="new 0 0 500 500" xml:space="preserve">
<path fill="#999999" d="M230.8,86.5v326.9c0,5.2-1.9,9.7-5.7,13.5c-3.8,3.8-8.3,5.7-13.5,5.7c-5.2,0-9.7-1.9-13.5-5.7L98,326.9H19.2
	c-5.2,0-9.7-1.9-13.5-5.7c-3.8-3.8-5.7-8.3-5.7-13.5V192.3c0-5.2,1.9-9.7,5.7-13.5c3.8-3.8,8.3-5.7,13.5-5.7H98L198,73
	c3.8-3.8,8.3-5.7,13.5-5.7c5.2,0,9.7,1.9,13.5,5.7C228.9,76.8,230.8,81.3,230.8,86.5L230.8,86.5z M346.2,250
	c0,15.2-4.3,29.4-12.8,42.5c-8.5,13.1-19.8,22.5-33.8,28.1c-2,1-4.5,1.5-7.5,1.5c-5.2,0-9.7-1.9-13.5-5.6c-3.8-3.7-5.7-8.3-5.7-13.7
	c0-4.2,1.2-7.8,3.6-10.7c2.4-2.9,5.3-5.4,8.7-7.5c3.4-2.1,6.8-4.4,10.2-6.9c3.4-2.5,6.3-6.1,8.7-10.7c2.4-4.6,3.6-10.3,3.6-17.1
	c0-6.8-1.2-12.5-3.6-17.1c-2.4-4.6-5.3-8.2-8.7-10.7c-3.4-2.5-6.8-4.8-10.2-6.9c-3.4-2.1-6.3-4.6-8.7-7.5c-2.4-2.9-3.6-6.5-3.6-10.7
	c0-5.4,1.9-10,5.7-13.7c3.8-3.7,8.3-5.6,13.5-5.6c3,0,5.5,0.5,7.5,1.5c14,5.4,25.3,14.7,33.8,27.9
	C341.9,220.6,346.2,234.8,346.2,250L346.2,250z M423.1,250c0,30.6-8.5,58.9-25.5,84.9c-17,25.9-39.6,44.8-67.6,56.6
	c-2.6,1-5.1,1.5-7.5,1.5c-5.4,0-10-1.9-13.8-5.7c-3.8-3.8-5.7-8.3-5.7-13.5c0-7.8,3.9-13.7,11.7-17.7c11.2-5.8,18.8-10.2,22.8-13.2
	c14.8-10.8,26.4-24.4,34.7-40.7c8.3-16.3,12.5-33.7,12.5-52.1s-4.2-35.8-12.5-52.1c-8.3-16.3-19.9-29.9-34.7-40.7
	c-4-3-11.6-7.4-22.8-13.2c-7.8-4-11.7-9.9-11.7-17.7c0-5.2,1.9-9.7,5.7-13.5c3.8-3.8,8.3-5.7,13.5-5.7c2.6,0,5.2,0.5,7.8,1.5
	c28,11.8,50.6,30.7,67.6,56.6S423.1,219.4,423.1,250L423.1,250z M500,250c0,46.1-12.7,88.4-38.2,127c-25.4,38.6-59.3,67-101.6,85.2
	c-2.6,1-5.2,1.5-7.8,1.5c-5.2,0-9.7-1.9-13.5-5.7c-3.8-3.8-5.7-8.3-5.7-13.5c0-7.2,3.9-13.1,11.7-17.7c1.4-0.8,3.7-1.9,6.8-3.2
	c3.1-1.3,5.4-2.4,6.8-3.2c9.2-5,17.4-10.1,24.6-15.3c24.6-18.2,43.9-41,57.7-68.2c13.8-27.2,20.7-56.2,20.7-86.8
	s-6.9-59.6-20.7-86.8s-33.1-50-57.7-68.2c-7.2-5.2-15.4-10.3-24.6-15.3c-1.4-0.8-3.7-1.9-6.8-3.2c-3.1-1.3-5.4-2.4-6.8-3.2
	c-7.8-4.6-11.7-10.5-11.7-17.7c0-5.2,1.9-9.7,5.7-13.5c3.8-3.8,8.3-5.7,13.5-5.7c2.6,0,5.2,0.5,7.8,1.5
	c42.3,18.2,76.1,46.6,101.6,85.2S500,203.9,500,250L500,250z"/>
</svg>
