<?xml version="1.0" encoding="utf-8"?>
<!-- Generator: Adobe Illustrator 18.0.0, SVG Export Plug-In . SVG Version: 6.00 Build 0)  -->
<!DOCTYPE svg PUBLIC "-//W3C//DTD SVG 1.1//EN" "http://www.w3.org/Graphics/SVG/1.1/DTD/svg11.dtd">
<svg version="1.1" id="图层_1" xmlns="http://www.w3.org/2000/svg" xmlns:xlink="http://www.w3.org/1999/xlink" x="0px" y="0px"
	 viewBox="0 0 500 500" enable-background="new 0 0 500 500" xml:space="preserve">
<path fill="#999999" d="M328.9,26.3v447.4c0,7.1-2.6,13.3-7.8,18.5c-5.2,5.2-11.4,7.8-18.5,7.8c-7.1,0-13.3-2.6-18.5-7.8
	L147.2,355.3H39.5c-7.1,0-13.3-2.6-18.5-7.8c-5.2-5.2-7.8-11.4-7.8-18.5V171.1c0-7.1,2.6-13.3,7.8-18.5c5.2-5.2,11.4-7.8,18.5-7.8
	h107.7L284.1,7.8c5.2-5.2,11.4-7.8,18.5-7.8c7.1,0,13.3,2.6,18.5,7.8C326.3,13,328.9,19.2,328.9,26.3L328.9,26.3z M486.8,250
	c0,20.8-5.8,40.2-17.5,58.2c-11.7,18-27.1,30.8-46.3,38.4c-2.7,1.4-6.2,2.1-10.3,2.1c-7.1,0-13.3-2.5-18.5-7.6
	c-5.2-5.1-7.8-11.3-7.8-18.7c0-5.8,1.6-10.6,4.9-14.6c3.3-4,7.3-7.4,11.9-10.3c4.7-2.9,9.3-6,14-9.5c4.7-3.4,8.6-8.3,11.9-14.6
	c3.3-6.3,4.9-14.1,4.9-23.4c0-9.3-1.6-17.1-4.9-23.4c-3.3-6.3-7.3-11.2-11.9-14.6c-4.7-3.4-9.3-6.6-14-9.5
	c-4.7-2.9-8.6-6.3-11.9-10.3c-3.3-4-4.9-8.8-4.9-14.6c0-7.4,2.6-13.6,7.8-18.7c5.2-5.1,11.4-7.6,18.5-7.6c4.1,0,7.5,0.7,10.3,2.1
	c19.2,7.4,34.6,20.1,46.3,38.2C481,209.7,486.8,229.2,486.8,250L486.8,250z"/>
</svg>
