<?xml version="1.0" encoding="utf-8"?>
<!-- Generator: Adobe Illustrator 18.0.0, SVG Export Plug-In . SVG Version: 6.00 Build 0)  -->
<!DOCTYPE svg PUBLIC "-//W3C//DTD SVG 1.1//EN" "http://www.w3.org/Graphics/SVG/1.1/DTD/svg11.dtd">
<svg version="1.1" id="图层_1" xmlns="http://www.w3.org/2000/svg" xmlns:xlink="http://www.w3.org/1999/xlink" x="0px" y="0px"
	 viewBox="0 0 500 500" enable-background="new 0 0 500 500" xml:space="preserve">
<path fill="#999999" d="M407.9,26.3v447.4c0,7.1-2.6,13.3-7.8,18.5c-5.2,5.2-11.4,7.8-18.5,7.8c-7.1,0-13.3-2.6-18.5-7.8
	L226.2,355.3H118.4c-7.1,0-13.3-2.6-18.5-7.8c-5.2-5.2-7.8-11.4-7.8-18.5V171.1c0-7.1,2.6-13.3,7.8-18.5c5.2-5.2,11.4-7.8,18.5-7.8
	h107.7L363.1,7.8c5.2-5.2,11.4-7.8,18.5-7.8c7.1,0,13.3,2.6,18.5,7.8C405.3,13,407.9,19.2,407.9,26.3L407.9,26.3z"/>
</svg>
