<?xml version="1.0" encoding="utf-8"?>
<!-- Generator: Adobe Illustrator 18.0.0, SVG Export Plug-In . SVG Version: 6.00 Build 0)  -->
<!DOCTYPE svg PUBLIC "-//W3C//DTD SVG 1.1//EN" "http://www.w3.org/Graphics/SVG/1.1/DTD/svg11.dtd">
<svg version="1.1" id="图层_1" xmlns="http://www.w3.org/2000/svg" xmlns:xlink="http://www.w3.org/1999/xlink" x="0px" y="0px"
	 viewBox="0 0 500 500" enable-background="new 0 0 500 500" xml:space="preserve">
<path fill="#999999" d="M142.9,403.4c0,10.2-3.6,19-10.9,26.2c-7.2,7.2-16,10.9-26.2,10.9c-10,0-18.7-3.7-26-11
	c-7.3-7.3-11-16-11-26c0-10.2,3.6-19,10.9-26.2c7.2-7.2,16-10.9,26.2-10.9s19,3.6,26.2,10.9C139.3,384.4,142.9,393.1,142.9,403.4
	L142.9,403.4z M287,463c0,10.2-3.6,19-10.9,26.2c-7.2,7.2-16,10.9-26.2,10.9c-10.2,0-19-3.6-26.2-10.9S213,473.2,213,463
	c0-10.2,3.6-19,10.9-26.2c7.2-7.2,16-10.9,26.2-10.9c10.2,0,19,3.6,26.2,10.9C283.4,444,287,452.7,287,463L287,463z M83.3,259.3
	c0,10.2-3.6,19-10.9,26.2s-16,10.9-26.2,10.9c-10.2,0-19-3.6-26.2-10.9c-7.2-7.2-10.9-16-10.9-26.2s3.6-19,10.9-26.2
	c7.2-7.2,16-10.9,26.2-10.9c10.2,0,19,3.6,26.2,10.9C79.7,240.3,83.3,249,83.3,259.3L83.3,259.3z M431.1,403.4c0,10-3.7,18.7-11,26
	c-7.3,7.3-16,11-26,11c-10.2,0-19-3.6-26.2-10.9s-10.9-16-10.9-26.2c0-10.2,3.6-19,10.9-26.2c7.2-7.2,16-10.9,26.2-10.9
	c10.2,0,19,3.6,26.2,10.9C427.5,384.4,431.1,393.1,431.1,403.4L431.1,403.4z M152.2,115.2c0,12.7-4.5,23.6-13.6,32.7
	c-9.1,9.1-20,13.6-32.7,13.6s-23.6-4.5-32.7-13.6c-9.1-9.1-13.6-20-13.6-32.7s4.5-23.6,13.6-32.7c9.1-9.1,20-13.6,32.7-13.6
	s23.6,4.5,32.7,13.6C147.7,91.5,152.2,102.4,152.2,115.2L152.2,115.2z M490.7,259.3c0,10.2-3.6,19-10.9,26.2s-16,10.9-26.2,10.9
	c-10.2,0-19-3.6-26.2-10.9c-7.2-7.2-10.9-16-10.9-26.2s3.6-19,10.9-26.2c7.2-7.2,16-10.9,26.2-10.9c10.2,0,19,3.6,26.2,10.9
	C487.1,240.3,490.7,249,490.7,259.3L490.7,259.3z M305.6,55.6c0,15.4-5.4,28.5-16.2,39.4c-10.8,10.8-23.9,16.2-39.4,16.2
	c-15.4,0-28.5-5.4-39.4-16.2c-10.8-10.8-16.2-23.9-16.2-39.4s5.4-28.5,16.2-39.4C221.5,5.4,234.6,0,250,0c15.4,0,28.5,5.4,39.4,16.2
	C300.2,27,305.6,40.1,305.6,55.6L305.6,55.6z M458.9,115.2c0,17.9-6.4,33.2-19.1,45.9c-12.7,12.6-28,19-45.7,19
	c-17.9,0-33.2-6.3-45.9-19c-12.6-12.6-19-27.9-19-45.9c0-17.7,6.3-33,19-45.7s27.9-19.1,45.9-19.1c17.7,0,33,6.4,45.7,19.1
	S458.9,97.4,458.9,115.2L458.9,115.2z"/>
</svg>
