<?xml version="1.0" encoding="utf-8"?>
<!-- Generator: Adobe Illustrator 18.0.0, SVG Export Plug-In . SVG Version: 6.00 Build 0)  -->
<!DOCTYPE svg PUBLIC "-//W3C//DTD SVG 1.1//EN" "http://www.w3.org/Graphics/SVG/1.1/DTD/svg11.dtd">
<svg version="1.1" id="图层_1" xmlns="http://www.w3.org/2000/svg" xmlns:xlink="http://www.w3.org/1999/xlink" x="0px" y="0px"
	 viewBox="0 0 500 500" enable-background="new 0 0 500 500" xml:space="preserve">
<path fill="#999999" d="M204.1,423.5c0,0.9,0.1,3,0.3,6.4c0.2,3.4,0.3,6.2,0.2,8.5c-0.1,2.2-0.4,4.7-1,7.5c-0.5,2.8-1.6,4.8-3.2,6.2
	c-1.6,1.4-3.8,2.1-6.5,2.1h-102c-25.3,0-46.9-9-64.9-26.9C9,409.2,0,387.5,0,362.2V137.8c0-25.3,9-46.9,26.9-64.9
	s39.6-26.9,64.9-26.9h102c2.8,0,5.2,1,7.2,3s3,4.4,3,7.2c0,0.9,0.1,3,0.3,6.4c0.2,3.4,0.3,6.2,0.2,8.5c-0.1,2.2-0.4,4.7-1,7.5
	c-0.5,2.8-1.6,4.8-3.2,6.2c-1.6,1.4-3.8,2.1-6.5,2.1h-102c-14,0-26,5-36,15s-15,22-15,36v224.5c0,14,5,26,15,36s22,15,36,15h99.5
	l3.7,0.3l3.7,1l2.6,1.8l2.2,2.9L204.1,423.5L204.1,423.5z M500,250c0,5.5-2,10.3-6.1,14.3L320.5,437.8c-4,4-8.8,6.1-14.3,6.1
	s-10.3-2-14.3-6.1s-6.1-8.8-6.1-14.3v-91.8H142.9c-5.5,0-10.3-2-14.3-6.1c-4-4-6.1-8.8-6.1-14.3V188.8c0-5.5,2-10.3,6.1-14.3
	c4-4,8.8-6.1,14.3-6.1h142.9V76.5c0-5.5,2-10.3,6.1-14.3c4-4,8.8-6.1,14.3-6.1s10.3,2,14.3,6.1l173.5,173.5
	C498,239.7,500,244.5,500,250L500,250z"/>
</svg>
