<?xml version="1.0" encoding="utf-8"?>
<!-- Generator: Adobe Illustrator 18.0.0, SVG Export Plug-In . SVG Version: 6.00 Build 0)  -->
<!DOCTYPE svg PUBLIC "-//W3C//DTD SVG 1.1//EN" "http://www.w3.org/Graphics/SVG/1.1/DTD/svg11.dtd">
<svg version="1.1" id="图层_1" xmlns="http://www.w3.org/2000/svg" xmlns:xlink="http://www.w3.org/1999/xlink" x="0px" y="0px"
	 viewBox="0 0 500 500" enable-background="new 0 0 500 500" xml:space="preserve">
<path fill="#999999" d="M385.4,250c0,5.6-2.1,10.5-6.2,14.6L202.1,441.7c-4.1,4.1-9,6.2-14.6,6.2c-5.6,0-10.5-2.1-14.6-6.2
	s-6.2-9-6.2-14.6v-93.8H20.8c-5.6,0-10.5-2.1-14.6-6.2c-4.1-4.1-6.2-9-6.2-14.6v-125c0-5.6,2.1-10.5,6.2-14.6
	c4.1-4.1,9-6.2,14.6-6.2h145.8V72.9c0-5.6,2.1-10.5,6.2-14.6s9-6.2,14.6-6.2c5.6,0,10.5,2.1,14.6,6.2l177.1,177.1
	C383.4,239.5,385.4,244.4,385.4,250L385.4,250z M500,135.4v229.2c0,25.8-9.2,47.9-27.5,66.2c-18.3,18.3-40.4,27.5-66.2,27.5H302.1
	c-2.8,0-5.3-1-7.3-3.1c-2.1-2.1-3.1-4.5-3.1-7.3c0-0.9-0.1-3-0.3-6.5c-0.2-3.5-0.3-6.3-0.2-8.6c0.1-2.3,0.4-4.8,1-7.6
	c0.5-2.8,1.6-4.9,3.3-6.3c1.6-1.4,3.9-2.1,6.7-2.1h104.2c14.3,0,26.6-5.1,36.8-15.3c10.2-10.2,15.3-22.5,15.3-36.8V135.4
	c0-14.3-5.1-26.6-15.3-36.8c-10.2-10.2-22.5-15.3-36.8-15.3H304.7l-3.7-0.3l-3.7-1l-2.6-1.8l-2.3-2.9l-0.7-4.4c0-0.9-0.1-3-0.3-6.5
	c-0.2-3.5-0.3-6.3-0.2-8.6c0.1-2.3,0.4-4.8,1-7.6c0.5-2.8,1.6-4.9,3.3-6.3c1.6-1.4,3.9-2.1,6.7-2.1h104.2c25.8,0,47.9,9.2,66.2,27.5
	C490.8,87.5,500,109.6,500,135.4L500,135.4z"/>
</svg>
