<?xml version="1.0" encoding="utf-8"?>
<!-- Generator: Adobe Illustrator 18.0.0, SVG Export Plug-In . SVG Version: 6.00 Build 0)  -->
<!DOCTYPE svg PUBLIC "-//W3C//DTD SVG 1.1//EN" "http://www.w3.org/Graphics/SVG/1.1/DTD/svg11.dtd">
<svg version="1.1" id="图层_1" xmlns="http://www.w3.org/2000/svg" xmlns:xlink="http://www.w3.org/1999/xlink" x="0px" y="0px"
	 viewBox="0 0 500 500" enable-background="new 0 0 500 500" xml:space="preserve">
<path fill="#999999" d="M392.9,294.6v89.3c0,22.1-7.9,41.1-23.6,56.8c-15.7,15.7-34.6,23.6-56.8,23.6H80.4
	c-22.1,0-41.1-7.9-56.8-23.6S0,406.1,0,383.9V151.8c0-22.1,7.9-41.1,23.6-56.8s34.6-23.6,56.8-23.6h196.4c2.6,0,4.7,0.8,6.4,2.5
	c1.7,1.7,2.5,3.8,2.5,6.4v17.9c0,2.6-0.8,4.7-2.5,6.4c-1.7,1.7-3.8,2.5-6.4,2.5H80.4c-12.3,0-22.8,4.4-31.5,13.1
	s-13.1,19.3-13.1,31.5v232.1c0,12.3,4.4,22.8,13.1,31.5c8.7,8.7,19.3,13.1,31.5,13.1h232.1c12.3,0,22.8-4.4,31.5-13.1
	c8.7-8.7,13.1-19.3,13.1-31.5v-89.3c0-2.6,0.8-4.7,2.5-6.4c1.7-1.7,3.8-2.5,6.4-2.5h17.9c2.6,0,4.7,0.8,6.4,2.5
	C392,289.9,392.9,292,392.9,294.6L392.9,294.6z M500,53.6v142.9c0,4.8-1.8,9-5.3,12.6s-7.7,5.3-12.6,5.3s-9-1.8-12.6-5.3l-49.1-49.1
	L238.6,341.8c-1.9,1.9-4,2.8-6.4,2.8c-2.4,0-4.6-0.9-6.4-2.8L193.9,310c-1.9-1.9-2.8-4-2.8-6.4c0-2.4,0.9-4.6,2.8-6.4l181.9-181.9
	l-49.1-49.1c-3.5-3.5-5.3-7.7-5.3-12.6s1.8-9,5.3-12.6s7.7-5.3,12.6-5.3h142.9c4.8,0,9,1.8,12.6,5.3S500,48.7,500,53.6L500,53.6z"/>
</svg>
