<?xml version="1.0" encoding="utf-8"?>
<!-- Generator: Adobe Illustrator 18.0.0, SVG Export Plug-In . SVG Version: 6.00 Build 0)  -->
<!DOCTYPE svg PUBLIC "-//W3C//DTD SVG 1.1//EN" "http://www.w3.org/Graphics/SVG/1.1/DTD/svg11.dtd">
<svg version="1.1" id="图层_1" xmlns="http://www.w3.org/2000/svg" xmlns:xlink="http://www.w3.org/1999/xlink" x="0px" y="0px"
	 viewBox="0 0 500 500" enable-background="new 0 0 500 500" xml:space="preserve">
<path fill="#999999" d="M327.1,316.7l114.6-114.6c4.1-4.1,6.2-9,6.2-14.6s-2.1-10.5-6.2-14.6L327.1,58.3c-6.5-6.7-14-8.2-22.5-4.6
	c-8.7,3.7-13,10.1-13,19.2V125c-25.8,0-49.3,2.1-70.3,6.3s-38.7,9.8-52.9,16.6s-26.6,15.4-37.1,25.7s-18.8,20.7-24.9,31.1
	c-6.1,10.4-10.9,22.2-14.5,35.5c-3.6,13.2-5.9,25.3-7,36.3c-1.1,11-1.6,22.9-1.6,36c0,39.3,18.1,83.1,54.4,131.5
	c2.2,2.6,4.9,3.9,8.1,3.9c1.5,0,2.9-0.3,4.2-1c4.8-2,6.8-5.5,6.2-10.7c-9.5-76.8-2.8-128.1,20.2-154c10-11.3,24.1-19.5,42.3-24.6
	c18.2-5.1,42.5-7.6,72.9-7.6v52.1c0,9.1,4.3,15.5,13,19.2c2.6,1.1,5.2,1.6,7.8,1.6C318.1,322.9,323,320.9,327.1,316.7L327.1,316.7z
	 M500,93.8v312.5c0,25.8-9.2,47.9-27.5,66.2c-18.3,18.3-40.4,27.5-66.2,27.5H93.8c-25.8,0-47.9-9.2-66.2-27.5
	C9.2,454.2,0,432.1,0,406.3V93.8c0-25.8,9.2-47.9,27.5-66.2S67.9,0,93.8,0h312.5c25.8,0,47.9,9.2,66.2,27.5
	C490.8,45.8,500,67.9,500,93.8L500,93.8z"/>
</svg>
