<?xml version="1.0" encoding="utf-8"?>
<!-- Generator: Adobe Illustrator 18.0.0, SVG Export Plug-In . SVG Version: 6.00 Build 0)  -->
<!DOCTYPE svg PUBLIC "-//W3C//DTD SVG 1.1//EN" "http://www.w3.org/Graphics/SVG/1.1/DTD/svg11.dtd">
<svg version="1.1" id="图层_1" xmlns="http://www.w3.org/2000/svg" xmlns:xlink="http://www.w3.org/1999/xlink" x="0px" y="0px"
	 viewBox="0 0 500 500" enable-background="new 0 0 500 500" xml:space="preserve">
<path fill="#999999" d="M423.1,316.4v77.8c0,23.8-8.5,44.2-25.4,61.1s-37.3,25.4-61.1,25.4h-250c-23.8,0-44.2-8.5-61.1-25.4
	S0,418.1,0,394.2v-250c0-23.8,8.5-44.2,25.4-61.1s37.3-25.4,61.1-25.4h76.6c2.6,0,4.9,1,6.8,2.9c1.9,1.9,2.9,4.2,2.9,6.8
	c0,5.4-2.6,8.6-7.8,9.6c-15.4,5.2-28.7,11.2-40,18c-2,0.8-3.6,1.2-4.8,1.2H86.5c-13.2,0-24.5,4.7-34,14.1
	c-9.4,9.4-14.1,20.7-14.1,34v250c0,13.2,4.7,24.5,14.1,34c9.4,9.4,20.7,14.1,34,14.1h250c13.2,0,24.5-4.7,34-14.1
	c9.4-9.4,14.1-20.7,14.1-34v-64.3c0-3.8,1.8-6.7,5.4-8.7c5.6-2.6,11-6.3,16.2-11.1c3.2-3.2,6.7-4,10.5-2.4
	C421,309.5,423.1,312.4,423.1,316.4L423.1,316.4z M494.3,167.4L378.9,282.8c-3.6,3.8-8.1,5.7-13.5,5.7c-2.4,0-4.9-0.5-7.5-1.5
	c-7.8-3.4-11.7-9.3-11.7-17.7v-57.7h-48.1c-64.7,0-108.6,13.1-131.6,39.4c-23.8,27.4-31.3,74.8-22.2,142.1c0.6,4.6-1.4,8-6,10.2
	c-1.6,0.4-2.8,0.6-3.6,0.6c-3.2,0-5.8-1.3-7.8-3.9c-2-2.8-4.1-5.9-6.3-9.3c-2.2-3.4-6.2-10.3-11.9-20.6
	c-5.7-10.3-10.7-20.3-14.9-29.9c-4.2-9.6-8.1-21-11.6-34.3c-3.5-13.2-5.3-25.4-5.3-36.7c0-9.8,0.4-18.9,1.1-27.3s2.1-17.4,4.2-27
	c2.1-9.6,4.9-18.4,8.4-26.4c3.5-8,8.2-16.2,14.1-24.5c5.9-8.3,12.8-15.7,20.6-22.2c7.8-6.5,17.3-12.7,28.4-18.5
	c11.1-5.8,23.6-10.7,37.4-14.6c13.8-3.9,29.8-7,47.9-9.2c18.1-2.2,37.8-3.3,59-3.3h48.1V38.5c0-8.4,3.9-14.3,11.7-17.7
	c2.6-1,5.1-1.5,7.5-1.5c5.2,0,9.7,1.9,13.5,5.7l115.4,115.4c3.8,3.8,5.7,8.3,5.7,13.5C500,159.1,498.1,163.6,494.3,167.4
	L494.3,167.4z"/>
</svg>
