<?xml version="1.0" encoding="utf-8"?>
<!-- Generator: Adobe Illustrator 18.0.0, SVG Export Plug-In . SVG Version: 6.00 Build 0)  -->
<!DOCTYPE svg PUBLIC "-//W3C//DTD SVG 1.1//EN" "http://www.w3.org/Graphics/SVG/1.1/DTD/svg11.dtd">
<svg version="1.1" id="图层_1" xmlns="http://www.w3.org/2000/svg" xmlns:xlink="http://www.w3.org/1999/xlink" x="0px" y="0px"
	 viewBox="0 0 500 500" enable-background="new 0 0 500 500" xml:space="preserve">
<path fill="#999999" d="M178.6,311v19.5c0,7.8-3.6,13.3-10.9,16.5c-2.4,0.9-4.7,1.4-7,1.4c-5,0-9.2-1.8-12.6-5.3L5.3,200.2
	c-3.5-3.5-5.3-7.7-5.3-12.6c0-4.8,1.8-9,5.3-12.6L148.2,32.2c5.4-5.8,11.9-7.1,19.5-3.9c7.3,3.2,10.9,8.6,10.9,16.5V64l-110.8,111
	c-3.5,3.5-5.3,7.7-5.3,12.6c0,4.8,1.8,9,5.3,12.6L178.6,311z M500,321.6c0,10.8-1.6,23.2-4.7,37.2c-3.2,14-6.7,26.9-10.7,38.5
	c-4,11.6-8.5,23.3-13.4,34.9c-4.9,11.6-8.7,20-11.3,25.3l-5.6,11.2c-1.5,3.2-4.1,4.7-7.8,4.7c-1.1,0-2-0.1-2.5-0.3
	c-4.7-1.5-6.8-4.7-6.4-9.5c8-74.4-1.9-127-29.6-157.6c-11.9-13.2-27.8-23.5-47.6-30.8c-19.8-7.3-44.7-12.2-74.6-14.6v70
	c0,7.8-3.6,13.3-10.9,16.5c-2.4,0.9-4.7,1.4-7,1.4c-5,0-9.2-1.8-12.6-5.3L112.4,200.2c-3.5-3.5-5.3-7.7-5.3-12.6
	c0-4.8,1.8-9,5.3-12.6L255.3,32.2c5.4-5.8,11.9-7.1,19.5-3.9c7.3,3.2,10.9,8.6,10.9,16.5v73.1c76.5,5.2,132.2,25.8,167.1,61.7
	C484.3,211.7,500,259.1,500,321.6L500,321.6z"/>
</svg>
