<?xml version="1.0" encoding="utf-8"?>
<!-- Generator: Adobe Illustrator 18.0.0, SVG Export Plug-In . SVG Version: 6.00 Build 0)  -->
<!DOCTYPE svg PUBLIC "-//W3C//DTD SVG 1.1//EN" "http://www.w3.org/Graphics/SVG/1.1/DTD/svg11.dtd">
<svg version="1.1" id="图层_1" xmlns="http://www.w3.org/2000/svg" xmlns:xlink="http://www.w3.org/1999/xlink" x="0px" y="0px"
	 viewBox="0 0 500 500" enable-background="new 0 0 500 500" xml:space="preserve">
<path fill="#999999" d="M500,321.4c0,30.9-11.8,72.8-35.4,125.8c-0.6,1.3-1.5,3.5-2.9,6.7c-1.4,3.2-2.7,6-3.8,8.4
	c-1.1,2.4-2.3,4.5-3.6,6.1c-2.2,3.2-4.8,4.7-7.8,4.7c-2.8,0-5-0.9-6.6-2.8s-2.4-4.2-2.4-7c0-1.7,0.2-4.1,0.7-7.4
	c0.5-3.3,0.7-5.4,0.7-6.6c0.9-12.6,1.4-24.1,1.4-34.3c0-18.8-1.6-35.6-4.9-50.5c-3.3-14.9-7.8-27.8-13.5-38.6
	c-5.8-10.9-13.2-20.3-22.3-28.2c-9.1-7.9-18.9-14.4-29.4-19.4c-10.5-5-22.9-9-37.1-11.9s-28.6-4.9-43-6c-14.4-1.1-30.7-1.7-49-1.7
	h-62.5v71.4c0,4.8-1.8,9-5.3,12.6c-3.5,3.5-7.7,5.3-12.6,5.3c-4.8,0-9-1.8-12.6-5.3L5.3,200.1c-3.5-3.5-5.3-7.7-5.3-12.6
	s1.8-9,5.3-12.6L148.2,32.1c3.5-3.5,7.7-5.3,12.6-5.3c4.8,0,9,1.8,12.6,5.3c3.5,3.5,5.3,7.7,5.3,12.6v71.4h62.5
	c132.6,0,214,37.5,244.1,112.4C495.1,253.4,500,284.4,500,321.4L500,321.4z"/>
</svg>
