<?xml version="1.0" encoding="utf-8"?>
<!-- Generator: Adobe Illustrator 18.0.0, SVG Export Plug-In . SVG Version: 6.00 Build 0)  -->
<!DOCTYPE svg PUBLIC "-//W3C//DTD SVG 1.1//EN" "http://www.w3.org/Graphics/SVG/1.1/DTD/svg11.dtd">
<svg version="1.1" id="图层_1" xmlns="http://www.w3.org/2000/svg" xmlns:xlink="http://www.w3.org/1999/xlink" x="0px" y="0px"
	 viewBox="0 0 500 500" enable-background="new 0 0 500 500" xml:space="preserve">
<path fill="#999999" d="M500,187.5c0,4.8-1.8,9-5.3,12.6L351.8,342.9c-3.5,3.5-7.7,5.3-12.6,5.3c-4.8,0-9-1.8-12.6-5.3
	s-5.3-7.7-5.3-12.6v-71.4h-62.5c-18.2,0-34.6,0.6-49,1.7c-14.4,1.1-28.7,3.1-43,6s-26.6,6.8-37.1,11.9c-10.5,5-20.3,11.5-29.4,19.4
	S83.9,315.2,78.1,326c-5.8,10.9-10.3,23.8-13.5,38.6c-3.3,14.9-4.9,31.7-4.9,50.5c0,10.2,0.5,21.7,1.4,34.3c0,1.1,0.2,3.3,0.7,6.6
	s0.7,5.7,0.7,7.4c0,2.8-0.8,5.1-2.4,7s-3.8,2.8-6.6,2.8c-3,0-5.6-1.6-7.8-4.7c-1.3-1.7-2.5-3.7-3.6-6.1c-1.1-2.4-2.4-5.2-3.8-8.4
	c-1.4-3.2-2.4-5.4-2.9-6.7C11.8,394.3,0,352.3,0,321.4c0-37,4.9-68,14.8-92.9c30.1-75,111.5-112.4,244.1-112.4h62.5V44.6
	c0-4.8,1.8-9,5.3-12.6s7.7-5.3,12.6-5.3c4.8,0,9,1.8,12.6,5.3l142.9,142.9C498.2,178.5,500,182.7,500,187.5L500,187.5z"/>
</svg>
