<?xml version="1.0" encoding="utf-8"?>
<!-- Generator: Adobe Illustrator 18.0.0, SVG Export Plug-In . SVG Version: 6.00 Build 0)  -->
<!DOCTYPE svg PUBLIC "-//W3C//DTD SVG 1.1//EN" "http://www.w3.org/Graphics/SVG/1.1/DTD/svg11.dtd">
<svg version="1.1" id="图层_1" xmlns="http://www.w3.org/2000/svg" xmlns:xlink="http://www.w3.org/1999/xlink" x="0px" y="0px"
	 viewBox="0 0 500 500" enable-background="new 0 0 500 500" xml:space="preserve">
<path fill="#999999" d="M491.9,302.1c0,1.1-0.1,1.8-0.3,2.3c-13.9,58.2-43,105.3-87.2,141.4S308.2,500,248.7,500
	c-31.7,0-62.3-6-92-17.9c-29.6-11.9-56-29-79.3-51.1l-42,42c-4.1,4.1-9,6.2-14.6,6.2s-10.5-2.1-14.6-6.2c-4.1-4.1-6.2-9-6.2-14.6
	V312.5c0-5.6,2.1-10.5,6.2-14.6s9-6.2,14.6-6.2h145.8c5.6,0,10.5,2.1,14.6,6.2c4.1,4.1,6.2,9,6.2,14.6s-2.1,10.5-6.2,14.6
	l-44.6,44.6c15.4,14.3,32.9,25.4,52.4,33.2s39.8,11.7,60.9,11.7c29.1,0,56.2-7.1,81.4-21.2c25.2-14.1,45.4-33.5,60.5-58.3
	c2.4-3.7,8.1-16.4,17.3-38.1c1.7-5,5-7.5,9.8-7.5h62.5c2.8,0,5.3,1,7.3,3.1S491.9,299.3,491.9,302.1L491.9,302.1z M500,41.7v145.8
	c0,5.6-2.1,10.5-6.2,14.6c-4.1,4.1-9,6.2-14.6,6.2H333.3c-5.6,0-10.5-2.1-14.6-6.2c-4.1-4.1-6.2-9-6.2-14.6s2.1-10.5,6.2-14.6
	l44.9-44.9c-32.1-29.7-70-44.6-113.6-44.6c-29.1,0-56.2,7.1-81.4,21.2s-45.4,33.5-60.5,58.3c-2.4,3.7-8.1,16.4-17.3,38.1
	c-1.7,5-5,7.5-9.8,7.5H16.3c-2.8,0-5.3-1-7.3-3.1c-2.1-2.1-3.1-4.5-3.1-7.3v-2.3C20,137.5,49.3,90.3,93.8,54.2S190.3,0,250,0
	c31.7,0,62.5,6,92.4,18.1c29.9,12,56.5,29,79.8,50.9l42.3-42c4.1-4.1,9-6.2,14.6-6.2c5.6,0,10.5,2.1,14.6,6.2
	C497.9,31.1,500,36,500,41.7L500,41.7z"/>
</svg>
