<?xml version="1.0" encoding="utf-8"?>
<!-- Generator: Adobe Illustrator 18.0.0, SVG Export Plug-In . SVG Version: 6.00 Build 0)  -->
<!DOCTYPE svg PUBLIC "-//W3C//DTD SVG 1.1//EN" "http://www.w3.org/Graphics/SVG/1.1/DTD/svg11.dtd">
<svg version="1.1" id="图层_1" xmlns="http://www.w3.org/2000/svg" xmlns:xlink="http://www.w3.org/1999/xlink" x="0px" y="0px"
	 viewBox="0 0 500 500" enable-background="new 0 0 500 500" xml:space="preserve">
<path fill="#999999" d="M173.2,245.3L32.1,386.4c-2,2-4.3,3-7,3s-4.9-1-7-3L3,371.3c-2-2-3-4.3-3-7c0-2.6,1-4.9,3-7l119-119L3,119.3
	c-2-2-3-4.3-3-7c0-2.6,1-4.9,3-7l15.1-15.1c2-2,4.3-3,7-3s4.9,1,7,3l141.1,141.1c2,2,3,4.3,3,7C176.3,241,175.2,243.3,173.2,245.3
	L173.2,245.3z M500,383.7v19.4c0,2.8-0.9,5.1-2.7,7c-1.8,1.8-4.1,2.7-7,2.7H199.6c-2.8,0-5.1-0.9-7-2.7c-1.8-1.8-2.7-4.1-2.7-7
	v-19.4c0-2.8,0.9-5.1,2.7-7s4.1-2.7,7-2.7h290.7c2.8,0,5.1,0.9,7,2.7C499.1,378.6,500,380.9,500,383.7L500,383.7z"/>
</svg>
