<?xml version="1.0" encoding="utf-8"?>
<!-- Generator: Adobe Illustrator 18.0.0, SVG Export Plug-In . SVG Version: 6.00 Build 0)  -->
<!DOCTYPE svg PUBLIC "-//W3C//DTD SVG 1.1//EN" "http://www.w3.org/Graphics/SVG/1.1/DTD/svg11.dtd">
<svg version="1.1" id="图层_1" xmlns="http://www.w3.org/2000/svg" xmlns:xlink="http://www.w3.org/1999/xlink" x="0px" y="0px"
	 viewBox="0 0 500 500" enable-background="new 0 0 500 500" xml:space="preserve">
<path fill="#999999" d="M0,250c0-21.2,4.2-41.4,12.5-60.7s19.4-35.9,33.3-49.8s30.5-25,49.8-33.3s39.5-12.5,60.7-12.5h187.5
	c21.2,0,41.4,4.2,60.7,12.5s35.9,19.4,49.8,33.3s25,30.5,33.3,49.8S500,228.8,500,250s-4.2,41.4-12.5,60.7s-19.4,35.9-33.3,49.8
	s-30.5,25-49.8,33.3s-39.5,12.5-60.7,12.5H156.3c-21.2,0-41.4-4.2-60.7-12.5s-35.9-19.4-49.8-33.3s-25-30.5-33.3-49.8S0,271.2,0,250
	L0,250z M343.8,375c16.9,0,33.1-3.3,48.5-9.9s28.7-15.5,39.9-26.7s20.1-24.5,26.7-39.9s9.9-31.5,9.9-48.5s-3.3-33.1-9.9-48.5
	s-15.5-28.7-26.7-39.9s-24.5-20.1-39.9-26.7s-31.5-9.9-48.5-9.9s-33.1,3.3-48.5,9.9s-28.7,15.5-39.9,26.7s-20.1,24.5-26.7,39.9
	s-9.9,31.5-9.9,48.5s3.3,33.1,9.9,48.5s15.5,28.7,26.7,39.9s24.5,20.1,39.9,26.7S326.8,375,343.8,375L343.8,375z"/>
</svg>
