<?xml version="1.0" encoding="utf-8"?>
<!-- Generator: Adobe Illustrator 18.0.0, SVG Export Plug-In . SVG Version: 6.00 Build 0)  -->
<!DOCTYPE svg PUBLIC "-//W3C//DTD SVG 1.1//EN" "http://www.w3.org/Graphics/SVG/1.1/DTD/svg11.dtd">
<svg version="1.1" id="图层_1" xmlns="http://www.w3.org/2000/svg" xmlns:xlink="http://www.w3.org/1999/xlink" x="0px" y="0px"
	 viewBox="0 0 500 500" enable-background="new 0 0 500 500" xml:space="preserve">
<path fill="#999999" d="M281.3,250c0-16.9-3.3-33.1-9.9-48.5s-15.5-28.7-26.7-39.9s-24.5-20.1-39.9-26.7s-31.5-9.9-48.5-9.9
	s-33.1,3.3-48.5,9.9s-28.7,15.5-39.9,26.7s-20.1,24.5-26.7,39.9s-9.9,31.5-9.9,48.5s3.3,33.1,9.9,48.5s15.5,28.7,26.7,39.9
	s24.5,20.1,39.9,26.7s31.5,9.9,48.5,9.9s33.1-3.3,48.5-9.9s28.7-15.5,39.9-26.7s20.1-24.5,26.7-39.9S281.3,266.9,281.3,250
	L281.3,250z M468.8,250c0-16.9-3.3-33.1-9.9-48.5s-15.5-28.7-26.7-39.9s-24.5-20.1-39.9-26.7s-31.5-9.9-48.5-9.9h-94.2
	c19.4,14.6,34.7,32.9,46,54.7s17,45.2,17,70.3s-5.7,48.5-17,70.3s-26.7,40-46,54.7h94.2c16.9,0,33.1-3.3,48.5-9.9
	s28.7-15.5,39.9-26.7s20.1-24.5,26.7-39.9S468.8,266.9,468.8,250L468.8,250z M500,250c0,21.2-4.2,41.4-12.5,60.7
	s-19.4,35.9-33.3,49.8s-30.5,25-49.8,33.3s-39.5,12.5-60.7,12.5H156.3c-21.2,0-41.4-4.2-60.7-12.5s-35.9-19.4-49.8-33.3
	s-25-30.5-33.3-49.8S0,271.2,0,250s4.2-41.4,12.5-60.7s19.4-35.9,33.3-49.8s30.5-25,49.8-33.3s39.5-12.5,60.7-12.5h187.5
	c21.2,0,41.4,4.2,60.7,12.5s35.9,19.4,49.8,33.3s25,30.5,33.3,49.8S500,228.8,500,250L500,250z"/>
</svg>
