<?xml version="1.0" encoding="utf-8"?>
<!-- Generator: Adobe Illustrator 18.0.0, SVG Export Plug-In . SVG Version: 6.00 Build 0)  -->
<!DOCTYPE svg PUBLIC "-//W3C//DTD SVG 1.1//EN" "http://www.w3.org/Graphics/SVG/1.1/DTD/svg11.dtd">
<svg version="1.1" id="图层_1" xmlns="http://www.w3.org/2000/svg" xmlns:xlink="http://www.w3.org/1999/xlink" x="0px" y="0px"
	 viewBox="0 0 500 500" enable-background="new 0 0 500 500" xml:space="preserve">
<path fill="#999999" d="M406.3,0c25.8,0,47.9,9.2,66.2,27.5C490.8,45.8,500,67.9,500,93.8v312.5c0,25.8-9.2,47.9-27.5,66.2
	c-18.3,18.3-40.4,27.5-66.2,27.5H93.8c-25.8,0-47.9-9.2-66.2-27.5C9.2,454.2,0,432.1,0,406.3V93.8c0-25.8,9.2-47.9,27.5-66.2
	S67.9,0,93.8,0H406.3L406.3,0z M416.7,343.8V201.8c-6.7,7.6-13.7,13.6-20.8,17.9c-7.4,4.8-21.8,14-43.1,27.7
	c-21.4,13.7-37.8,24.4-49.3,32.2c-21.3,15-39.1,22.5-53.4,22.5c-14.3,0-32.1-7.5-53.4-22.5c-10-6.9-25.3-17-46.1-30.1
	c-20.7-13.1-36.2-23.2-46.4-30.1c-2.6-1.7-6.2-4.7-10.7-8.8c-4.6-4.1-7.9-7.1-10.1-8.8v141.9c0,8.7,3,16.1,9.1,22.1
	c6.1,6.1,13.5,9.1,22.1,9.1h270.8c8.7,0,16.1-3,22.1-9.1C413.6,359.8,416.7,352.4,416.7,343.8L416.7,343.8z M416.7,157.2
	c0-8.9-3-16.5-9-22.8s-13.4-9.4-22.3-9.4H114.6c-8.7,0-16.1,3-22.1,9.1c-6.1,6.1-9.1,13.5-9.1,22.1c0,8,3.3,16.3,9.9,24.9
	s13.9,15.6,22,21c10.2,6.9,25.1,16.6,44.8,29c19.6,12.4,33.7,21.4,42.2,27c0.7,0.4,2.5,1.7,5.5,3.7c3,2.1,5.3,3.6,6.8,4.6
	s3.8,2.4,6.8,4.2c3,1.8,5.6,3.3,7.6,4.2s4.4,2,7,3.1c2.6,1.1,5,1.9,7.3,2.4c2.3,0.5,4.5,0.8,6.7,0.8s4.4-0.3,6.7-0.8
	c2.3-0.5,4.7-1.4,7.3-2.4c2.6-1.1,4.9-2.1,7-3.1s4.6-2.4,7.6-4.2s5.3-3.3,6.8-4.2c1.5-1,3.8-2.5,6.8-4.6s4.9-3.3,5.5-3.7l86.9-56.6
	c7.6-5,14.8-11.8,21.6-20.3S416.7,164.6,416.7,157.2L416.7,157.2z"/>
</svg>
