<?xml version="1.0" encoding="utf-8"?>
<!-- Generator: Adobe Illustrator 18.0.0, SVG Export Plug-In . SVG Version: 6.00 Build 0)  -->
<!DOCTYPE svg PUBLIC "-//W3C//DTD SVG 1.1//EN" "http://www.w3.org/Graphics/SVG/1.1/DTD/svg11.dtd">
<svg version="1.1" id="图层_1" xmlns="http://www.w3.org/2000/svg" xmlns:xlink="http://www.w3.org/1999/xlink" x="0px" y="0px"
	 viewBox="0 0 500 500" enable-background="new 0 0 500 500" xml:space="preserve">
<path fill="#999999" d="M464.3,401.8V187.5c-6,6.7-12.4,12.8-19.3,18.4c-49.9,38.3-89.5,69.8-118.9,94.3c-9.5,8-17.2,14.2-23.2,18.7
	c-6,4.5-14,9-24.1,13.5s-19.7,6.8-28.6,6.8h-0.6c-8.9,0-18.5-2.3-28.6-6.8c-10.1-4.6-18.2-9.1-24.1-13.5c-6-4.5-13.7-10.7-23.2-18.7
	c-29.4-24.6-69-56-118.9-94.3c-6.9-5.6-13.3-11.7-19.3-18.4v214.3c0,2.4,0.9,4.5,2.7,6.3c1.8,1.8,3.9,2.7,6.3,2.7h410.7
	c2.4,0,4.5-0.9,6.3-2.7C463.4,406.3,464.3,404.2,464.3,401.8L464.3,401.8z M464.3,108.5v-6.8l-0.1-3.6l-0.8-3.5l-1.5-2.5l-2.5-2.1
	l-3.9-0.7H44.6c-2.4,0-4.5,0.9-6.3,2.7s-2.7,3.9-2.7,6.3c0,31.2,13.7,57.7,41,79.2c35.9,28.3,73.2,57.8,111.9,88.4
	c1.1,0.9,4.4,3.7,9.8,8.2s9.7,8,12.8,10.5c3.2,2.4,7.3,5.3,12.4,8.8c5.1,3.4,9.8,6,14.1,7.7c4.3,1.7,8.3,2.5,12,2.5h0.6
	c3.7,0,7.7-0.8,12-2.5c4.3-1.7,9-4.2,14.1-7.7c5.1-3.4,9.3-6.4,12.4-8.8c3.2-2.4,7.4-5.9,12.8-10.5c5.4-4.6,8.6-7.3,9.8-8.2
	c38.7-30.7,76-60.2,111.9-88.4c10-8,19.4-18.7,28-32.2C460,131.7,464.3,119.5,464.3,108.5L464.3,108.5z M500,98.2v303.6
	c0,12.3-4.4,22.8-13.1,31.5c-8.7,8.7-19.3,13.1-31.5,13.1H44.6c-12.3,0-22.8-4.4-31.5-13.1S0,414.1,0,401.8V98.2
	c0-12.3,4.4-22.8,13.1-31.5s19.3-13.1,31.5-13.1h410.7c12.3,0,22.8,4.4,31.5,13.1C495.6,75.4,500,85.9,500,98.2L500,98.2z"/>
</svg>
