<?xml version="1.0" encoding="utf-8"?>
<!-- Generator: Adobe Illustrator 18.0.0, SVG Export Plug-In . SVG Version: 6.00 Build 0)  -->
<!DOCTYPE svg PUBLIC "-//W3C//DTD SVG 1.1//EN" "http://www.w3.org/Graphics/SVG/1.1/DTD/svg11.dtd">
<svg version="1.1" id="图层_1" xmlns="http://www.w3.org/2000/svg" xmlns:xlink="http://www.w3.org/1999/xlink" x="0px" y="0px"
	 viewBox="0 0 500 500" enable-background="new 0 0 500 500" xml:space="preserve">
<path fill="#999999" d="M281.3,450c0-8.6-3.1-16-9.2-22.1s-13.5-9.2-22.1-9.2s-16,3.1-22.1,9.2s-9.2,13.5-9.2,22.1s3.1,16,9.2,22.1
	s13.5,9.2,22.1,9.2s16-3.1,22.1-9.2S281.3,458.6,281.3,450L281.3,450z M362.5,387.5v-275c0-3.4-1.2-6.3-3.7-8.8s-5.4-3.7-8.8-3.7
	H150c-3.4,0-6.3,1.2-8.8,3.7s-3.7,5.4-3.7,8.8v275c0,3.4,1.2,6.3,3.7,8.8s5.4,3.7,8.8,3.7h200c3.4,0,6.3-1.2,8.8-3.7
	S362.5,390.9,362.5,387.5L362.5,387.5z M287.5,56.3c0-4.2-2.1-6.3-6.3-6.3h-62.5c-4.2,0-6.3,2.1-6.3,6.3s2.1,6.3,6.3,6.3h62.5
	C285.4,62.5,287.5,60.4,287.5,56.3L287.5,56.3z M400,50v400c0,13.5-4.9,25.3-14.8,35.2S363.5,500,350,500H150
	c-13.5,0-25.3-4.9-35.2-14.8S100,463.5,100,450V50c0-13.5,4.9-25.3,14.8-35.2S136.5,0,150,0h200c13.5,0,25.3,4.9,35.2,14.8
	S400,36.5,400,50L400,50z"/>
</svg>
