<?xml version="1.0" encoding="utf-8"?>
<!-- Generator: Adobe Illustrator 18.0.0, SVG Export Plug-In . SVG Version: 6.00 Build 0)  -->
<!DOCTYPE svg PUBLIC "-//W3C//DTD SVG 1.1//EN" "http://www.w3.org/Graphics/SVG/1.1/DTD/svg11.dtd">
<svg version="1.1" id="图层_1" xmlns="http://www.w3.org/2000/svg" xmlns:xlink="http://www.w3.org/1999/xlink" x="0px" y="0px"
	 viewBox="0 0 500 500" enable-background="new 0 0 500 500" xml:space="preserve">
<path fill="#999999" d="M272.7,454.5c0-6.2-2.2-11.5-6.7-16c-4.5-4.5-9.8-6.7-16-6.7c-6.2,0-11.5,2.2-16,6.7
	c-4.5,4.5-6.7,9.8-6.7,16c0,6.2,2.2,11.5,6.7,16c4.5,4.5,9.8,6.7,16,6.7c6.2,0,11.5-2.2,16-6.7C270.5,466,272.7,460.7,272.7,454.5
	L272.7,454.5z M409.1,397.7V56.8c0-3.1-1.1-5.7-3.4-8c-2.2-2.2-4.9-3.4-8-3.4H102.3c-3.1,0-5.7,1.1-8,3.4c-2.2,2.2-3.4,4.9-3.4,8
	v340.9c0,3.1,1.1,5.7,3.4,8c2.2,2.2,4.9,3.4,8,3.4h295.5c3.1,0,5.7-1.1,8-3.4C408,403.5,409.1,400.8,409.1,397.7L409.1,397.7z
	 M454.5,56.8v386.4c0,15.6-5.6,29-16.7,40.1c-11.1,11.1-24.5,16.7-40.1,16.7H102.3c-15.6,0-29-5.6-40.1-16.7
	c-11.1-11.1-16.7-24.5-16.7-40.1V56.8c0-15.6,5.6-29,16.7-40.1S86.6,0,102.3,0h295.5c15.6,0,29,5.6,40.1,16.7
	C449,27.8,454.5,41.2,454.5,56.8L454.5,56.8z"/>
</svg>
