<?xml version="1.0" encoding="utf-8"?>
<!-- Generator: Adobe Illustrator 18.0.0, SVG Export Plug-In . SVG Version: 6.00 Build 0)  -->
<!DOCTYPE svg PUBLIC "-//W3C//DTD SVG 1.1//EN" "http://www.w3.org/Graphics/SVG/1.1/DTD/svg11.dtd">
<svg version="1.1" id="图层_1" xmlns="http://www.w3.org/2000/svg" xmlns:xlink="http://www.w3.org/1999/xlink" x="0px" y="0px"
	 viewBox="0 0 500 500" enable-background="new 0 0 500 500" xml:space="preserve">
<path fill="#999999" d="M108.3,350c-11.5,0-21.3-4.1-29.4-12.2c-8.2-8.2-12.2-18-12.2-29.4V125c0-11.5,4.1-21.3,12.2-29.4
	c8.2-8.2,18-12.2,29.4-12.2h283.3c11.5,0,21.3,4.1,29.4,12.2c8.2,8.2,12.2,18,12.2,29.4v183.3c0,11.5-4.1,21.3-12.2,29.4
	c-8.2,8.2-18,12.2-29.4,12.2H108.3L108.3,350z M100,125v183.3c0,2.3,0.8,4.2,2.5,5.9c1.6,1.6,3.6,2.5,5.9,2.5h283.3
	c2.3,0,4.2-0.8,5.9-2.5c1.6-1.6,2.5-3.6,2.5-5.9V125c0-2.3-0.8-4.2-2.5-5.9c-1.6-1.6-3.6-2.5-5.9-2.5H108.3c-2.3,0-4.2,0.8-5.9,2.5
	S100,122.7,100,125L100,125z M458.3,366.7H500v25c0,6.9-4.1,12.8-12.2,17.7c-8.2,4.9-18,7.3-29.4,7.3H41.7
	c-11.5,0-21.3-2.4-29.4-7.3C4.1,404.5,0,398.6,0,391.7v-25H458.3L458.3,366.7z M270.8,391.7c2.8,0,4.2-1.4,4.2-4.2
	c0-2.8-1.4-4.2-4.2-4.2h-41.7c-2.8,0-4.2,1.4-4.2,4.2c0,2.8,1.4,4.2,4.2,4.2H270.8L270.8,391.7z"/>
</svg>
