<?xml version="1.0" encoding="utf-8"?>
<!-- Generator: Adobe Illustrator 18.0.0, SVG Export Plug-In . SVG Version: 6.00 Build 0)  -->
<!DOCTYPE svg PUBLIC "-//W3C//DTD SVG 1.1//EN" "http://www.w3.org/Graphics/SVG/1.1/DTD/svg11.dtd">
<svg version="1.1" id="图层_1" xmlns="http://www.w3.org/2000/svg" xmlns:xlink="http://www.w3.org/1999/xlink" x="0px" y="0px"
	 viewBox="0 0 500 500" enable-background="new 0 0 500 500" xml:space="preserve">
<path fill="#999999" d="M410.5,120L325,210.4v255c0,9.5-3.2,17.6-9.7,24.4c-6.4,6.8-14.2,10.2-23.1,10.2s-16.7-3.4-23.1-10.2
	c-6.4-6.8-9.7-15-9.7-24.4V346.5h-18.7v118.8c0,9.5-3.2,17.6-9.7,24.4c-6.4,6.8-14.2,10.2-23.1,10.2c-9,0-16.7-3.4-23.1-10.2
	c-6.4-6.8-9.7-15-9.7-24.4v-255L89.5,120c-5.5-5.8-8.2-12.8-8.2-21s2.7-15.3,8.2-21c5.5-5.8,12.1-8.7,19.9-8.7s14.5,2.9,19.9,8.7
	l66.8,70.5h107.8L370.7,78c5.5-5.8,12.1-8.7,19.9-8.7c7.8,0,14.5,2.9,19.9,8.7c5.5,5.8,8.2,12.8,8.2,21S416,114.3,410.5,120
	L410.5,120z M315.6,69.3c0,19.2-6.4,35.5-19.2,49c-12.8,13.5-28.3,20.3-46.4,20.3s-33.6-6.8-46.4-20.3s-19.2-29.9-19.2-49
	s6.4-35.5,19.2-49S231.8,0,250,0s33.6,6.8,46.4,20.3C309.2,33.8,315.6,50.1,315.6,69.3L315.6,69.3z"/>
</svg>
