<?xml version="1.0" encoding="utf-8"?>
<!-- Generator: Adobe Illustrator 18.0.0, SVG Export Plug-In . SVG Version: 6.00 Build 0)  -->
<!DOCTYPE svg PUBLIC "-//W3C//DTD SVG 1.1//EN" "http://www.w3.org/Graphics/SVG/1.1/DTD/svg11.dtd">
<svg version="1.1" id="图层_1" xmlns="http://www.w3.org/2000/svg" xmlns:xlink="http://www.w3.org/1999/xlink" x="0px" y="0px"
	 viewBox="0 0 500 500" enable-background="new 0 0 500 500" xml:space="preserve">
<path fill="#999999" d="M431.8,290.9c0,7.6-2.7,14-8,19.3c-5.3,5.3-11.7,8-19.3,8c-9.7,0-17.2-4.1-22.7-12.2l-64.5-96.9h-12.8v37.5
	l70.2,116.8c1.7,2.8,2.6,6,2.6,9.4c0,4.9-1.8,9.2-5.4,12.8c-3.6,3.6-7.9,5.4-12.8,5.4h-54.5v77.3c0,8.7-3.1,16.2-9.4,22.4
	c-6.2,6.3-13.7,9.4-22.4,9.4h-45.5c-8.7,0-16.2-3.1-22.4-9.4c-6.3-6.3-9.4-13.7-9.4-22.4v-77.3h-54.5c-4.9,0-9.2-1.8-12.8-5.4
	c-3.6-3.6-5.4-7.9-5.4-12.8c0-3.4,0.9-6.5,2.6-9.4l70.2-116.8v-37.5h-12.8L118.2,306c-5.5,8.1-13.1,12.2-22.7,12.2
	c-7.6,0-14-2.7-19.3-8c-5.3-5.3-8-11.7-8-19.3c0-5.5,1.5-10.5,4.5-15.1l72.7-109.1c13.8-20.3,30.5-30.4,50-30.4h109.1
	c19.5,0,36.2,10.1,50,30.4l72.7,109.1C430.3,280.4,431.8,285.4,431.8,290.9L431.8,290.9z M313.6,63.6c0,17.6-6.2,32.6-18.6,45
	c-12.4,12.4-27.4,18.6-45,18.6c-17.6,0-32.6-6.2-45-18.6c-12.4-12.4-18.6-27.4-18.6-45s6.2-32.6,18.6-45C217.4,6.2,232.4,0,250,0
	c17.6,0,32.6,6.2,45,18.6C307.4,31,313.6,46,313.6,63.6L313.6,63.6z"/>
</svg>
